; OM File Header - Saved 2021/07/13 18:34:01
; (6.2 :patc (om-make-point 24 24) (om-make-point 0 0) (om-make-point 510 600) "" 183 0 nil "2021/07/13 18:33:55")
; End File Header
; External resources 
; (list (list (quote :picture) "#P\"../../../../openmusic/OPENMUSIC/resources/pict/om3\""))
(in-package :om)(load-lib-for (quote nil))(setf *om-current-persistent* (om-load-patch1 "arithm-ser" (quote ((let ((box (om-load-boxcomment "comment" (om-make-point 145 113) (quote "INPUTS:$begin   number$end       number$step      number$Optional input$nummax    number$OUTPUTS:$returns an arithmetic series$") "" (om-make-point 264 30) nil (om-make-color 0 0 0) (om-make-font "Arial" 10.665364583333333D0 :family "Arial" :style (quote (:plain)) :mode (quote nil))))) (when (fboundp (quote set-active)) (set-active box nil)) box) (let ((box (om-load-editor-box1 "CHORD-SEQ" (quote chord-seq) (quote ((om-load-inputfun (quote input-funbox) "objs" "SELF" nil) (om-load-inputfun (quote input-funbox) "no documentation" "LMIDIC" (list 6000)) (om-load-inputfun (quote input-funbox) "no documentation" "LONSET" (list 0 250)) (om-load-inputfun (quote input-funbox) "no documentation" "LDUR" (list 1000)) (om-load-inputfun (quote input-funbox) "no documentation" "LVEL" (list 100)) (om-load-inputfun (quote input-funbox) "no documentation" "LOFFSET" (list 0)) (om-load-inputfun (quote input-funbox) "no documentation" "LCHAN" (list 1)) (om-load-inputfun (quote input-funbox) "no documentation" "LEGATO" 100))) (om-make-point 87 467) (om-make-point 275 113) (let ((newobj (when (find-class (quote chord-seq) nil) (make-instance (quote chord-seq) :lmidic (quote ((6000) (6100) (6200) (6300) (6400) (6500) (6600) (6700) (6800) (6900) (7000) (7100) (7200))) :lonset (quote (0 250 500 750 1000 1250 1500 1750 2000 2250 2500 2750 3000 3250)) :ldur (quote ((250) (250) (250) (250) (250) (250) (250) (250) (250) (250) (250) (250) (250))) :lvel (quote ((100) (100) (100) (100) (100) (100) (100) (100) (100) (100) (100) (100) (100))) :loffset (quote ((0) (0) (0) (0) (0) (0) (0) (0) (0) (0) (0) (0) (0))) :lchan (quote ((1) (1) (1) (1) (1) (1) (1) (1) (1) (1) (1) (1) (1))) :legato 100)))) (load-port-info newobj (quote ((0) (0) (0) (0) (0) (0) (0) (0) (0) (0) (0) (0) (0)))) (init-mus-color newobj (quote nil)) (set-extra-pairs newobj (quote nil)) (set-patch-pairs newobj (quote nil)) (set-name newobj nil) (set-tonalite newobj nil) newobj) "x" nil (pairlis (quote (player scale palette-mode approx fontsize staff cmnpref deltapict outport inport zoom notechancolor? grillestep mode winsize winpos score-mode obj-mode show-stems)) (list (quote :midi-player) nil 0 2 24 (quote g) (let ((newobj (make-instance (quote edition-values)))) (setf (paper-size newobj) (om-make-point 600 800)) (setf (top-margin newobj) 2) (setf (left-margin newobj) 1) (setf (right-margin newobj) 1) (setf (bottom-margin newobj) 1) (setf (orientation newobj) nil) (setf (scale newobj) nil) (setf (system-space newobj) (quote (1))) (setf (system-color newobj) (quote nil)) (setf (line-space newobj) 1) (setf (title newobj) nil) (setf (show-title? newobj) nil) (setf (show-page? newobj) nil) (setf (sheet-id newobj) nil) (setf (page-mode newobj) nil) newobj) (om-make-point 0 0) 0 0 1 nil 1000 0 (om-make-point 370 280) (om-make-point 40 10) 0 1 (quote t))) t nil nil nil))) (when (fboundp (quote set-active)) (set-active box nil)) box) (let ((box (om-load-editor-box1 "NOTE" (quote note) (quote ((om-load-inputfun (quote input-funbox) "objs" "SELF" nil) (om-load-inputfun (quote input-funbox) "no documentation" "MIDIC" 6000) (om-load-inputfun (quote input-funbox) "no documentation" "VEL" 80) (om-load-inputfun (quote input-funbox) "no documentation" "DUR" 1000) (om-load-inputfun (quote input-funbox) "no documentation" "CHAN" 1))) (om-make-point 147 327) (om-make-point 68 70) (if (find-class (quote note) nil) (let ((newobj (make-instance (quote note) :midic 6000 :vel 80 :dur 1000 :chan 1 :from-file t))) (load-port-info newobj (quote 0)) (init-mus-color newobj (quote nil)) (set-extra-pairs newobj (quote nil)) (set-patch-pairs newobj (quote ((nil (om-load-patch-abs1 "patch" (quote nil) (quote nil) 6.2 nil "" (om-make-point 200 200) (om-make-point 400 500)))))) (set-name newobj nil) (set-tonalite newobj nil) newobj)) "x" nil (pairlis (quote (player cursor-mode scale palette-mode approx fontsize staff cmnpref deltapict outport inport zoom notechancolor? grillestep mode winsize winpos score-mode obj-mode show-stems)) (list (quote :midi-player) (quote :normal) nil 0 2 24 (quote g) (let ((newobj (make-instance (quote edition-values)))) (setf (paper-size newobj) (om-make-point 600 800)) (setf (top-margin newobj) 2) (setf (left-margin newobj) 1) (setf (right-margin newobj) 1) (setf (bottom-margin newobj) 1) (setf (orientation newobj) nil) (setf (scale newobj) nil) (setf (system-space newobj) (quote (1))) (setf (system-color newobj) (quote nil)) (setf (line-space newobj) 1) (setf (title newobj) nil) (setf (show-title? newobj) nil) (setf (show-page? newobj) nil) (setf (sheet-id newobj) nil) (setf (page-mode newobj) nil) newobj) (om-make-point 0 4) 0 0 1 nil 1000 0 (om-make-point 370 280) (om-make-point 0 0) 0 0 (quote t))) t nil nil nil))) (when (fboundp (quote set-active)) (set-active box nil)) box) (let ((box (om-load-boxcall (quote genfun) "OM+" (quote om+) (quote ((om-load-inputfun (quote input-funbox) "first input" "SELF" 0) (om-load-inputfun (quote input-funbox) "second input" "NUM" 0))) (om-make-point 190 400) (om-make-point 60 35) nil nil nil 1))) (when (fboundp (quote set-active)) (set-active box nil)) box) (let ((box (om-load-boxcall (quote bastype) "aux2" (quote t) (quote nil) (om-make-point 266 222) (om-make-point 38 30) 100 "100" nil))) (when (fboundp (quote set-active)) (set-active box nil)) box) (let ((box (om-load-boxcall (quote bastype) "aux1" (quote t) (quote nil) (om-make-point 212 222) (om-make-point 44 30) 1200 "1200" nil))) (when (fboundp (quote set-active)) (set-active box nil)) box) (let ((box (om-load-boxcall (quote bastype) "aux" (quote t) (quote nil) (om-make-point 170 222) (om-make-point 26 30) 0 "0" nil))) (when (fboundp (quote set-active)) (set-active box nil)) box) (let ((box (om-load-boxcall (quote genfun) "ARITHM-SER" (quote arithm-ser) (quote ((om-load-inputfun (quote input-funbox) "begin" "BEGIN" 0) (om-load-inputfun (quote input-funbox) "end " "END" 10) (om-load-inputfun (quote input-funbox) "step" "STEP" 1))) (om-make-point 130 265) (om-make-point 203 55) nil nil nil 1))) (when (fboundp (quote set-active)) (set-active box nil)) box) (let ((box (om-load-boxcomment "comment" (om-make-point 349 36) (quote "Returns a list of numbers starting from begin to end with increment step. ") "" (om-make-point 75 150) nil (om-make-color 0 0 0) (om-make-font "Arial" 10.665364583333333D0 :family "Arial" :style (quote (:plain)) :mode (quote nil))))) (when (fboundp (quote set-active)) (set-active box nil)) box) (let ((box (om-load-boxcomment "comment" (om-make-point 104 26) (quote "arithm-ser") "" (om-make-point 190 7) nil (om-make-color 0 0 0) (om-make-font "Arial" 16.0D0 :family "Arial" :style (quote (:bold)) :mode (quote nil))))) (when (fboundp (quote set-active)) (set-active box nil)) box))) (quote ((3 0 1 1 nil 0) (2 1 3 0 nil 0) (7 0 3 1 nil 0) (6 0 7 0 nil 0) (5 0 7 1 nil 0) (4 0 7 2 nil 0))) (list (let ((newpict (make-instance (quote patch-picture) :name "om3" :source (quote kernel) :pict-pathname (restore-pict-path (restore-path nil)) :thepict (om-get-picture "om3" (quote kernel)) :storemode :external :draw-params (quote (p 0 0 100 100)) :extraobjs nil))) (setf (pict-pos newpict) (om-make-point 76 38)) (setf (pict-size newpict) (om-make-point 98 82)) newpict)) 6.2))
