; OM File Header - Saved 2021/07/13 14:16:27
; (6.2 :patc (om-make-point 24 24) (om-make-point 0 0) (om-make-point 496 392) "" 183 0 nil "2021/07/13 14:16:27")
; End File Header
; External resources 
; (list (list (quote :picture) "#P\"../../../../openmusic/OPENMUSIC/resources/pict/om3\""))
(in-package :om)(load-lib-for (quote nil))(setf *om-current-persistent* (om-load-patch1 "create-list" (quote ((let ((box (om-load-editor-box1 "TEXT-BOX" (quote text-box) (quote ((om-load-inputfun (quote input-funbox) "dialog-item text (string)" "text" "untitled"))) (om-make-point 122 289) (om-make-point 176 40) (om-make-dialog-item (quote text-box) (om-make-point 1 1) (om-make-point 148 20) "((a 2) (a 2) (a 2) (a 2) (a 2))" :font (om-make-font "Liberation Sans" 11.0D0 :family "Liberation Sans" :style (quote (:plain)) :mode (quote nil))) nil nil (pairlis (quote (winsize winpos)) (list (om-make-point 335 275) (om-make-point 10 40))) nil nil nil nil))) (when (fboundp (quote set-active)) (set-active box nil)) box) (let ((box (om-load-boxcomment "comment" (om-make-point 228 76) (quote "INPUTS:$count    integer.$elem     any type of data$OUTPUT:$returns a list of count  instances of elem$$") "" (om-make-point 111 38) nil (om-make-color 0 0 0) (om-make-font "Arial" 12.0D0 :family "Arial" :style (quote (:plain)) :mode (quote nil))))) (when (fboundp (quote set-active)) (set-active box nil)) box) (let ((box (om-load-boxcall (quote bastype) "aux1" (quote t) (quote nil) (om-make-point 218 168) (om-make-point 43 30) (list (quote a) 2) "(a 2)" nil))) (when (fboundp (quote set-active)) (set-active box nil)) box) (let ((box (om-load-boxcall (quote bastype) "aux" (quote t) (quote nil) (om-make-point 178 169) (om-make-point 26 30) 5 "5" nil))) (when (fboundp (quote set-active)) (set-active box nil)) box) (let ((box (om-load-boxcall (quote genfun) "CREATE-LIST" (quote create-list) (quote ((om-load-inputfun (quote input-funbox) "number of elements" "COUNT" 10) (om-load-inputfun (quote input-funbox) "initial element" "ELEM" nil))) (om-make-point 184 204) nil nil nil nil 1))) (when (fboundp (quote set-active)) (set-active box nil)) box) (let ((box (om-load-boxcomment "comment" (om-make-point 236 38) (quote "Returns a list of length <count>  filled with <elem> ") "" (om-make-point 107 130) nil (om-make-color 0 0 0) (om-make-font "Arial" 12.0D0 :family "Arial" :style (quote (:plain)) :mode (quote nil))))) (when (fboundp (quote set-active)) (set-active box nil)) box) (let ((box (om-load-boxcomment "comment" (om-make-point 108 36) (quote "create-list") "" (om-make-point 184 6) nil (om-make-color 0 0 0) (om-make-font "Arial" 16.0D0 :family "Arial" :style (quote (:bold)) :mode (quote nil))))) (when (fboundp (quote set-active)) (set-active box nil)) box))) (quote ((4 0 0 0 nil 0) (3 0 4 0 nil 0) (2 0 4 1 nil 0))) (list (let ((newpict (make-instance (quote patch-picture) :name "om3" :source (quote kernel) :pict-pathname (restore-pict-path (restore-path nil)) :thepict (om-get-picture "om3" (quote kernel)) :storemode :external :draw-params (quote (p 0 0 100 100)) :extraobjs nil))) (setf (pict-pos newpict) (om-make-point 3 33)) (setf (pict-size newpict) (om-make-point 98 82)) newpict)) 6.2))
