; OM File Header - Saved 2021/07/13 16:04:06
; (6.2 :patc (om-make-point 24 24) (om-make-point 0 0) (om-make-point 506 508) "" 183 0 nil "2021/07/13 16:04:06")
; End File Header
; External resources 
; (list (list (quote :picture) "#P\"../../../../openmusic/OPENMUSIC/resources/pict/om3\""))
(in-package :om)(load-lib-for (quote nil))(setf *om-current-persistent* (om-load-patch1 "last-first-n" (quote ((let ((box (om-load-editor-box1 "TEXT-BOX" (quote text-box) (quote ((om-load-inputfun (quote input-funbox) "dialog-item text (string)" "text" "untitled"))) (om-make-point 231 379) (om-make-point 130 40) (om-make-dialog-item (quote text-box) (om-make-point 1 1) (om-make-point 102 21) "(1 2 3)" :font (om-make-font "Liberation Sans" 11.0D0 :family "Liberation Sans" :style (quote (:plain)) :mode (quote nil))) nil nil (pairlis (quote (winsize winpos)) (list (om-make-point 335 275) (om-make-point 10 40))) nil nil nil nil))) (when (fboundp (quote set-active)) (set-active box nil)) box) (let ((box (om-load-editor-box1 "TEXT-BOX" (quote text-box) (quote ((om-load-inputfun (quote input-funbox) "dialog-item text (string)" "text" "untitled"))) (om-make-point 74 380) (om-make-point 130 40) (om-make-dialog-item (quote text-box) (om-make-point 1 1) (om-make-point 102 20) "(7 8 9)" :font (om-make-font "Liberation Sans" 11.0D0 :family "Liberation Sans" :style (quote (:plain)) :mode (quote nil))) nil nil (pairlis (quote (winsize winpos)) (list (om-make-point 335 275) (om-make-point 10 40))) nil nil nil nil))) (when (fboundp (quote set-active)) (set-active box nil)) box) (let ((box (om-load-boxcomment "comment" (om-make-point 148 79) (quote "INPUTS:$list   list $n      integer$OUTPUT:$returns  a list$") "" (om-make-point 199 31) nil (om-make-color 0 0 0) (om-make-font "Arial" 12.0D0 :family "Arial" :style (quote (:plain)) :mode (quote nil))))) (when (fboundp (quote set-active)) (set-active box nil)) box) (let ((box (om-load-boxcall (quote bastype) "aux1" (quote t) (quote nil) (om-make-point 303 266) (om-make-point 26 30) 3 "3" nil))) (when (fboundp (quote set-active)) (set-active box nil)) box) (let ((box (om-load-boxcall (quote bastype) "aux1" (quote t) (quote nil) (om-make-point 146 265) (om-make-point 26 30) 3 "3" nil))) (when (fboundp (quote set-active)) (set-active box nil)) box) (let ((box (om-load-boxcall (quote genfun) "FIRST-N" (quote first-n) (quote ((om-load-inputfun (quote input-funbox) "one list" "LIST" nil) (om-load-inputfun (quote input-funbox) "number of elements" "N" 0))) (om-make-point 280 300) nil nil nil nil 1))) (when (fboundp (quote set-active)) (set-active box nil)) box) (let ((box (om-load-boxcall (quote genfun) "LAST-N" (quote last-n) (quote ((om-load-inputfun (quote input-funbox) "one list" "LIST" nil) (om-load-inputfun (quote input-funbox) "number of elements" "N" 0))) (om-make-point 124 300) nil nil nil nil 1))) (when (fboundp (quote set-active)) (set-active box nil)) box) (let ((box (om-load-boxcall (quote bastype) "aux" (quote t) (quote nil) (om-make-point 147 180) (om-make-point 106 30) (list 1 2 3 4 5 6 7 8 9) "(1 2 3 4 5 6 7 8 9)" nil))) (when (fboundp (quote set-active)) (set-active box nil)) box) (let ((box (om-load-boxcomment "comment" (om-make-point 294 38) (quote "Returns the <n> last or first elements of <list>.$<n> must be a non-negative integer.$") "" (om-make-point 131 126) nil (om-make-color 0 0 0) (om-make-font "Arial" 12.0D0 :family "Arial" :style (quote (:plain)) :mode (quote nil))))) (when (fboundp (quote set-active)) (set-active box nil)) box) (let ((box (om-load-boxcomment "comment" (om-make-point 156 30) (quote "last-n and first-n") "" (om-make-point 184 6) nil (om-make-color 0 0 0) (om-make-font "Arial" 16.0D0 :family "Arial" :style (quote (:bold)) :mode (quote nil))))) (when (fboundp (quote set-active)) (set-active box nil)) box))) (quote ((5 0 0 0 nil 0) (6 0 1 0 nil 0) (7 0 5 0 nil 0) (3 0 5 1 nil 0) (7 0 6 0 nil 0) (4 0 6 1 nil 0))) (list (let ((newpict (make-instance (quote patch-picture) :name "om3" :source (quote kernel) :pict-pathname (restore-pict-path (restore-path nil)) :thepict (om-get-picture "om3" (quote kernel)) :storemode :external :draw-params (quote (p 0 0 100 100)) :extraobjs nil))) (setf (pict-pos newpict) (om-make-point 60 29)) (setf (pict-size newpict) (om-make-point 98 82)) newpict)) 6.2))
