; OM File Header - Saved 2021/07/13 16:49:39
; (6.2 :patc (om-make-point 24 24) (om-make-point 0 0) (om-make-point 582 758) "" 183 0 nil "2021/07/13 16:49:39")
; End File Header
; External resources 
; (list (list (quote :picture) "#P\"../../../../openmusic/OPENMUSIC/resources/pict/om3\""))
(in-package :om)(load-lib-for (quote nil))(setf *om-current-persistent* (om-load-patch1 "om-eucl" (quote ((let ((box (om-load-editor-box1 "TEXT-BOX 3" (quote text-box) (quote ((om-load-inputfun (quote input-funbox) "dialog-item text (string)" "text" "untitled"))) (om-make-point 276 678) (om-make-point 130 40) (om-make-dialog-item (quote text-box) (om-make-point 1 1) (om-make-point 102 20) "(0 700 0 400)" :font (om-make-font "Liberation Sans" 11.0D0 :family "Liberation Sans" :style (quote (:plain)) :mode (quote nil))) nil nil (pairlis (quote (winsize winpos)) (list (om-make-point 335 275) (om-make-point 10 40))) nil nil nil nil))) (when (fboundp (quote set-active)) (set-active box nil)) box) (let ((box (om-load-editor-box1 "TEXT-BOX 2" (quote text-box) (quote ((om-load-inputfun (quote input-funbox) "dialog-item text (string)" "text" "untitled"))) (om-make-point 123 678) (om-make-point 130 40) (om-make-dialog-item (quote text-box) (om-make-point 1 1) (om-make-point 102 20) "(4 4 5 5)" :font (om-make-font "Liberation Sans" 11.0D0 :family "Liberation Sans" :style (quote (:plain)) :mode (quote nil))) nil nil (pairlis (quote (winsize winpos)) (list (om-make-point 335 275) (om-make-point 10 40))) nil nil nil nil))) (when (fboundp (quote set-active)) (set-active box nil)) box) (let ((box (om-load-editor-box1 "TEXT-BOX" (quote text-box) (quote ((om-load-inputfun (quote input-funbox) "dialog-item text (string)" "text" "untitled"))) (om-make-point 260 316) (om-make-point 130 40) (om-make-dialog-item (quote text-box) (om-make-point 1 1) (om-make-point 102 20) "(1 1 0)" :font (om-make-font "Liberation Sans" 11.0D0 :family "Liberation Sans" :style (quote (:plain)) :mode (quote nil))) nil nil (pairlis (quote (winsize winpos)) (list (om-make-point 335 275) (om-make-point 10 40))) nil nil nil nil))) (when (fboundp (quote set-active)) (set-active box nil)) box) (let ((box (om-load-editor-box1 "TEXT-BOX" (quote text-box) (quote ((om-load-inputfun (quote input-funbox) "dialog-item text (string)" "text" "untitled"))) (om-make-point 107 314) (om-make-point 130 40) (om-make-dialog-item (quote text-box) (om-make-point 1 1) (om-make-point 102 20) "(2 3 5)" :font (om-make-font "Liberation Sans" 11.0D0 :family "Liberation Sans" :style (quote (:plain)) :mode (quote nil))) nil nil (pairlis (quote (winsize winpos)) (list (om-make-point 335 275) (om-make-point 10 40))) nil nil nil nil))) (when (fboundp (quote set-active)) (set-active box nil)) box) (let ((box (om-load-boxcomment "comment" (om-make-point 336 148) (quote "INPUTS:$self         number or list$divisor   number or list$OUTPUTS:$1) returns the euclidean division of <self> and <divisor>$2) returns the rest of the euclidean division $$Yields an integer result and the rest of the division. When the divisor is 1, the operation is known as 'floor'.") "" (om-make-point 122 47) nil (om-make-color 0 0 0) (om-make-font "Arial" 12.0D0 :family "Arial" :style (quote (:plain)) :mode (quote nil))))) (when (fboundp (quote set-active)) (set-active box nil)) box) (let ((box (om-load-boxcomment "comment" (om-make-point 253 58) (quote "It is very useful for separating pitches$and their register. $0 is for C, 700 for the fifth (G), etc...$$") "" (om-make-point 130 368) nil (om-make-color 0 0 0) (om-make-font "Arial" 12.0D0 :family "Arial" :style (quote (:plain)) :mode (quote nil))))) (when (fboundp (quote set-active)) (set-active box nil)) box) (let ((box (om-load-editor-box1 "CHORD" (quote chord) (quote ((om-load-inputfun (quote input-funbox) "objs" "SELF" nil) (om-load-inputfun (quote input-funbox) "no documentation" "LMIDIC" (list 6000)) (om-load-inputfun (quote input-funbox) "no documentation" "LVEL" (list 100)) (om-load-inputfun (quote input-funbox) "no documentation" "LOFFSET" (list 0)) (om-load-inputfun (quote input-funbox) "no documentation" "LDUR" (list 1000)) (om-load-inputfun (quote input-funbox) "no documentation" "LCHAN" (list 1)))) (om-make-point 180 443) (om-make-point 82 121) (let ((thechord (make-instance (quote chord) :lmidic (quote (4800 5500 6000 6400)) :ldur (quote (1000 1000 1000 1000)) :lvel (quote (80 80 80 80)) :loffset (quote (0 0 0 0)) :lchan (quote (1 1 1 1))))) (load-port-info thechord (quote (0 0 0 0))) (init-mus-color thechord (quote nil)) (set-extra-pairs thechord (quote nil)) (set-tonalite thechord nil) thechord) "x" nil (pairlis (quote (scale show-stems obj-mode score-mode winpos winsize mode grillestep notechancolor? zoom inport outport deltapict cmnpref staff fontsize approx palette-mode)) (list nil (quote t) 0 0 (om-make-point 40 10) (om-make-point 370 280) 0 1000 nil 1 0 0 (om-make-point 0 0) (let ((newobj (make-instance (quote edition-values)))) (setf (paper-size newobj) (om-make-point 600 800)) (setf (top-margin newobj) 2) (setf (left-margin newobj) 1) (setf (right-margin newobj) 1) (setf (bottom-margin newobj) 1) (setf (orientation newobj) nil) (setf (scale newobj) nil) (setf (system-space newobj) (quote (1))) (setf (system-color newobj) (quote nil)) (setf (line-space newobj) 1) (setf (title newobj) nil) (setf (show-title? newobj) nil) (setf (show-page? newobj) nil) (setf (sheet-id newobj) nil) (setf (page-mode newobj) nil) newobj) (quote gf) 24 2 0)) t nil nil nil))) (when (fboundp (quote set-active)) (set-active box nil)) box) (let ((box (om-load-boxcall (quote bastype) "aux2" (quote t) (quote nil) (om-make-point 285 543) (om-make-point 55 25) 1200 "1200" nil))) (when (fboundp (quote set-active)) (set-active box nil)) box) (let ((box (om-load-boxcall (quote genfun) "OM//" (quote om//) (quote ((om-load-inputfun (quote input-funbox) "number or tree" "SELF" 1) (om-load-inputfun (quote input-funbox) "number or tree" "DIVISOR" 1))) (om-make-point 254 595) (om-make-point 33 59) nil nil nil 2))) (when (fboundp (quote set-active)) (set-active box nil)) box) (let ((box (om-load-boxcall (quote bastype) "aux1" (quote t) (quote nil) (om-make-point 263 204) (om-make-point 20 25) 2 "2" nil))) (when (fboundp (quote set-active)) (set-active box nil)) box) (let ((box (om-load-boxcall (quote bastype) "aux" (quote t) (quote nil) (om-make-point 193 204) (om-make-point 57 28) (list 5 7 10) "(5 7 10)" nil))) (when (fboundp (quote set-active)) (set-active box nil)) box) (let ((box (om-load-boxcall (quote genfun) "OM//" (quote om//) (quote ((om-load-inputfun (quote input-funbox) "number or tree" "SELF" 1) (om-load-inputfun (quote input-funbox) "number or tree" "DIVISOR" 1))) (om-make-point 233 240) (om-make-point 25 59) nil nil nil 2))) (when (fboundp (quote set-active)) (set-active box nil)) box) (let ((box (om-load-boxcomment "comment" (om-make-point 61 26) (quote "om//") "" (om-make-point 229 5) nil (om-make-color 0 0 0) (om-make-font "Arial" 18.666666666666665D0 :family "Arial" :style (quote (:bold)) :mode (quote nil))))) (when (fboundp (quote set-active)) (set-active box nil)) box))) (quote ((8 1 0 0 nil 0) (8 0 1 0 nil 0) (11 1 2 0 nil 0) (11 0 3 0 nil 0) (6 1 8 0 nil 0) (7 0 8 1 nil 0) (10 0 11 0 nil 0) (9 0 11 1 nil 0))) (list (let ((newpict (make-instance (quote patch-picture) :name "om3" :source (quote kernel) :pict-pathname (restore-pict-path (restore-path nil)) :thepict (om-get-picture "om3" (quote kernel)) :storemode :external :draw-params (quote (p 0 0 100 100)) :extraobjs nil))) (setf (pict-pos newpict) (om-make-point 12 61)) (setf (pict-size newpict) (om-make-point 98 82)) newpict)) 6.2))
