; OM File Header - Saved 2021/04/25 16:08:40
; (6.19 :patc (om-make-point 282 211) (om-make-point 629 52) (om-make-point 554 837) "" 183 0 "2021/04/25 16:07:32" "2021/04/25 16:08:40")
; End File Header
; External resources 
; (list (list (quote :picture) "#P\"../resources/pict/kernel-om3\""))
(in-package :om)(load-lib-for (quote nil))(setf *om-current-persistent* (om-load-patch1 "x-append" (quote ((let ((box (om-load-boxcomment "comment 4" (om-make-point 97 28) (quote "x-append") "" (om-make-point 192 6) nil (om-make-color 0 0 0) (om-make-font "Arial" 16.0D0 :family "Arial" :style (quote (:bold)) :mode (quote nil))))) (when (fboundp (quote set-active)) (set-active box nil)) box) (let ((box (om-load-boxcomment "comment 3" (om-make-point 449 46) (quote "Appends lists or atoms together to form a new list. This box can be extended.$This modules removes one level of parentheses to the lists that it is forming.$") "" (om-make-point 59 151) nil (om-make-color 0 0 0) (om-make-font "Arial" 12.0D0 :family "Arial" :style (quote (:plain)) :mode (quote nil))))) (when (fboundp (quote set-active)) (set-active box nil)) box) (let ((box (om-load-boxcomment "comment 2" (om-make-point 102 37) (quote "will return$? OM->(1 2 a b)$") "" (om-make-point 160 305) nil (om-make-color 0 0 0) (om-make-font "Arial" 12.0D0 :family "Arial" :style (quote (:plain)) :mode (quote nil))))) (when (fboundp (quote set-active)) (set-active box nil)) box) (let ((box (om-load-boxcall (quote genfun) "X-APPEND 2" (quote x-append) (quote ((om-load-inputfun (quote input-funbox) "first list" "L1?" nil) (om-load-inputfun (quote input-funbox) "second list" "L2?" nil))) (om-make-point 180 243) nil nil nil nil 1))) (when (fboundp (quote set-active)) (set-active box nil)) box) (let ((box (om-load-boxcall (quote bastype) "aux 2" (quote t) (quote nil) (om-make-point 171 210) (om-make-point 34 29) (list 1 2) "(1 2)" nil))) (when (fboundp (quote set-active)) (set-active box nil)) box) (let ((box (om-load-boxcall (quote bastype) "aux" (quote t) (quote nil) (om-make-point 214 210) (om-make-point 40 30) (list (quote a) (quote b)) "(a b)" nil))) (when (fboundp (quote set-active)) (set-active box nil)) box) (let ((box (om-load-boxcall (quote genfun) "X-APPEND" (quote x-append) (quote ((om-load-inputfun (quote input-funbox) "first list" "L1?" nil) (om-load-inputfun (quote input-funbox) "second list" "L2?" nil) (om-load-inputfun (quote input-funbox) "add list" "LST?" nil))) (om-make-point 169 513) nil nil nil nil 1))) (when (fboundp (quote set-active)) (set-active box nil)) box) (let ((box (om-load-editor-box1 "CHORD 3" (quote chord) (quote ((om-load-inputfun (quote input-funbox) "objs" "SELF" nil) (om-load-inputfun (quote input-funbox) "no documentation" "LMIDIC" (list 6000)) (om-load-inputfun (quote input-funbox) "no documentation" "LVEL" (list 100)) (om-load-inputfun (quote input-funbox) "no documentation" "LOFFSET" (list 0)) (om-load-inputfun (quote input-funbox) "no documentation" "LDUR" (list 1000)) (om-load-inputfun (quote input-funbox) "no documentation" "LCHAN" (list 1)))) (om-make-point 106 354) (om-make-point 68 129) (let ((thechord (make-instance (quote chord) :lmidic (quote (6000 4200 5900 7300)) :ldur (quote (1000 1000 1000 1000)) :lvel (quote (100 100 100 100)) :loffset (quote (0 0 0 0)) :lchan (quote (1 1 1 1))))) (load-port-info thechord (quote (0 0 0 0))) (init-mus-color thechord (quote nil)) (set-extra-pairs thechord (quote nil)) (set-tonalite thechord nil) thechord) "x" nil (pairlis (quote (scale show-stems obj-mode score-mode winpos winsize mode grillestep notechancolor? zoom inport outport deltapict cmnpref staff fontsize approx palette-mode)) (list nil (quote t) 0 0 (om-make-point 40 10) (om-make-point 370 280) 0 1000 nil 1 0 0 (om-make-point 0 0) (let ((newobj (make-instance (quote edition-values)))) (setf (paper-size newobj) (om-make-point 600 800)) (setf (top-margin newobj) 2) (setf (left-margin newobj) 1) (setf (right-margin newobj) 1) (setf (bottom-margin newobj) 1) (setf (orientation newobj) nil) (setf (scale newobj) nil) (setf (system-space newobj) (quote (1))) (setf (system-color newobj) (quote nil)) (setf (line-space newobj) 1) (setf (title newobj) nil) (setf (show-title? newobj) nil) (setf (show-page? newobj) nil) (setf (sheet-id newobj) nil) (setf (page-mode newobj) nil) newobj) (quote gf) 24 2 0)) t nil nil nil))) (when (fboundp (quote set-active)) (set-active box nil)) box) (let ((box (om-load-editor-box1 "CHORD 2" (quote chord) (quote ((om-load-inputfun (quote input-funbox) "objs" "SELF" nil) (om-load-inputfun (quote input-funbox) "no documentation" "LMIDIC" (list 6000)) (om-load-inputfun (quote input-funbox) "no documentation" "LVEL" (list 100)) (om-load-inputfun (quote input-funbox) "no documentation" "LOFFSET" (list 0)) (om-load-inputfun (quote input-funbox) "no documentation" "LDUR" (list 1000)) (om-load-inputfun (quote input-funbox) "no documentation" "LCHAN" (list 1)))) (om-make-point 187 354) (om-make-point 68 129) (let ((thechord (make-instance (quote chord) :lmidic (quote (6400 5300 5900 6700)) :ldur (quote (1000 1000 1000 1000)) :lvel (quote (100 100 100 100)) :loffset (quote (0 0 0 0)) :lchan (quote (1 1 1 1))))) (load-port-info thechord (quote (0 0 0 0))) (init-mus-color thechord (quote nil)) (set-extra-pairs thechord (quote nil)) (set-tonalite thechord nil) thechord) "x" nil (pairlis (quote (scale show-stems obj-mode score-mode winpos winsize mode grillestep notechancolor? zoom inport outport deltapict cmnpref staff fontsize approx palette-mode)) (list nil (quote t) 0 0 (om-make-point 40 10) (om-make-point 370 280) 0 1000 nil 1 0 0 (om-make-point 0 0) (let ((newobj (make-instance (quote edition-values)))) (setf (paper-size newobj) (om-make-point 600 800)) (setf (top-margin newobj) 2) (setf (left-margin newobj) 1) (setf (right-margin newobj) 1) (setf (bottom-margin newobj) 1) (setf (orientation newobj) nil) (setf (scale newobj) nil) (setf (system-space newobj) (quote (1))) (setf (system-color newobj) (quote nil)) (setf (line-space newobj) 1) (setf (title newobj) nil) (setf (show-title? newobj) nil) (setf (show-page? newobj) nil) (setf (sheet-id newobj) nil) (setf (page-mode newobj) nil) newobj) (quote gf) 24 2 0)) t nil nil nil))) (when (fboundp (quote set-active)) (set-active box nil)) box) (let ((box (om-load-editor-box1 "CHORD-SEQ" (quote chord-seq) (quote ((om-load-inputfun (quote input-funbox) "objs" "SELF" nil) (om-load-inputfun (quote input-funbox) "no documentation" "LMIDIC" (list 6000)) (om-load-inputfun (quote input-funbox) "no documentation" "LONSET" (list 0 1000)) (om-load-inputfun (quote input-funbox) "no documentation" "LDUR" (list 1000)) (om-load-inputfun (quote input-funbox) "no documentation" "LVEL" (list 100)) (om-load-inputfun (quote input-funbox) "no documentation" "LOFFSET" (list 0)) (om-load-inputfun (quote input-funbox) "no documentation" "LCHAN" (list 1)) (om-load-inputfun (quote input-funbox) "no documentation" "LEGATO" 0))) (om-make-point 97 646) (om-make-point 216 130) (let ((newobj (when (find-class (quote chord-seq) nil) (make-instance (quote chord-seq) :lmidic (quote ((6000 4200 5900 7300) (6400 5300 5900 6700) (7400 3900 5900 8000))) :lonset (quote (0 1000 2000 3000)) :ldur (quote ((1000 1000 1000 1000) (1000 1000 1000 1000) (1000 1000 1000 1000))) :lvel (quote ((100 100 100 100) (100 100 100 100) (100 100 100 100))) :loffset (quote ((0 0 0 0) (0 0 0 0) (0 0 0 0))) :lchan (quote ((1 1 1 1) (1 1 1 1) (1 1 1 1))) :legato 0)))) (load-port-info newobj (quote ((0 0 0 0) (0 0 0 0) (0 0 0 0)))) (init-mus-color newobj (quote nil)) (set-extra-pairs newobj (quote nil)) (set-patch-pairs newobj (quote (((0) (om-load-patch-abs1 "patch" (quote nil) (quote nil) 6.19 nil "" (om-make-point 200 200) (om-make-point 400 500))) ((1) (om-load-patch-abs1 "patch" (quote nil) (quote nil) 6.19 nil "" (om-make-point 200 200) (om-make-point 400 500))) ((2) (om-load-patch-abs1 "patch" (quote nil) (quote nil) 6.19 nil "" (om-make-point 200 200) (om-make-point 400 500)))))) (set-name newobj nil) (set-tonalite newobj nil) newobj) nil nil (pairlis (quote (scale show-stems obj-mode score-mode winpos winsize mode grillestep notechancolor? zoom inport outport deltapict cmnpref staff fontsize approx palette-mode)) (list nil (quote t) 1 0 (om-make-point 40 10) (om-make-point 370 280) 0 1000 nil 1 0 0 (om-make-point 0 6) (let ((newobj (make-instance (quote edition-values)))) (setf (paper-size newobj) (om-make-point 600 800)) (setf (top-margin newobj) 2) (setf (left-margin newobj) 1) (setf (right-margin newobj) 1) (setf (bottom-margin newobj) 1) (setf (orientation newobj) nil) (setf (scale newobj) nil) (setf (system-space newobj) (quote (1))) (setf (system-color newobj) (quote nil)) (setf (line-space newobj) 1) (setf (title newobj) nil) (setf (show-title? newobj) nil) (setf (show-page? newobj) nil) (setf (sheet-id newobj) nil) (setf (page-mode newobj) nil) newobj) (quote gf) 24 2 0)) t nil nil nil))) (when (fboundp (quote set-active)) (set-active box nil)) box) (let ((box (om-load-editor-box1 "CHORD" (quote chord) (quote ((om-load-inputfun (quote input-funbox) "objs" "SELF" nil) (om-load-inputfun (quote input-funbox) "no documentation" "LMIDIC" (list 6000)) (om-load-inputfun (quote input-funbox) "no documentation" "LVEL" (list 100)) (om-load-inputfun (quote input-funbox) "no documentation" "LOFFSET" (list 0)) (om-load-inputfun (quote input-funbox) "no documentation" "LDUR" (list 1000)) (om-load-inputfun (quote input-funbox) "no documentation" "LCHAN" (list 1)))) (om-make-point 265 353) (om-make-point 68 129) (let ((thechord (make-instance (quote chord) :lmidic (quote (7400 3900 5900 8000)) :ldur (quote (1000 1000 1000 1000)) :lvel (quote (100 100 100 100)) :loffset (quote (0 0 0 0)) :lchan (quote (1 1 1 1))))) (load-port-info thechord (quote (0 0 0 0))) (init-mus-color thechord (quote nil)) (set-extra-pairs thechord (quote nil)) (set-tonalite thechord nil) thechord) "x" nil (pairlis (quote (scale show-stems obj-mode score-mode winpos winsize mode grillestep notechancolor? zoom inport outport deltapict cmnpref staff fontsize approx palette-mode)) (list nil (quote t) 0 0 (om-make-point 40 10) (om-make-point 370 280) 0 1000 nil 1 0 0 (om-make-point 0 0) (let ((newobj (make-instance (quote edition-values)))) (setf (paper-size newobj) (om-make-point 600 800)) (setf (top-margin newobj) 2) (setf (left-margin newobj) 1) (setf (right-margin newobj) 1) (setf (bottom-margin newobj) 1) (setf (orientation newobj) nil) (setf (scale newobj) nil) (setf (system-space newobj) (quote (1))) (setf (system-color newobj) (quote nil)) (setf (line-space newobj) 1) (setf (title newobj) nil) (setf (show-title? newobj) nil) (setf (show-page? newobj) nil) (setf (sheet-id newobj) nil) (setf (page-mode newobj) nil) newobj) (quote gf) 24 2 0)) t nil nil nil))) (when (fboundp (quote set-active)) (set-active box nil)) box) (let ((box (om-load-boxcomment "comment" (om-make-point 142 124) (quote "INPUTS:$l1?   any data type$l2?   any data type$OPTIONAL INPUTS:$lst?   any data type$OUTPUT:$returns a set of lists merged$") "" (om-make-point 185 31) nil (om-make-color 0 0 0) (om-make-font "Arial" 12.0D0 :family "Arial" :style (quote (:plain)) :mode (quote nil))))) (when (fboundp (quote set-active)) (set-active box nil)) box))) (quote ((4 0 3 0 nil 0) (5 0 3 1 nil 0) (7 0 6 0 nil 0) (8 0 6 1 nil 0) (10 0 6 2 nil 0) (6 0 9 0 nil 0))) (list (let ((newpict (make-instance (quote patch-picture) :name "kernel-om3" :source (quote user) :pict-pathname (restore-pict-path (restore-path nil)) :thepict (om-get-picture "kernel-om3" (quote user)) :storemode :external :draw-params (quote (p 0 0 100 100)) :extraobjs nil))) (setf (pict-pos newpict) (om-make-point 53 39)) (setf (pict-size newpict) (om-make-point 109 92)) newpict)) 6.19))