; OM File Header - Saved 2021/07/13 18:34:01
; (6.2 :patc (om-make-point 24 24) (om-make-point 0 0) (om-make-point 562 558) "" 183 0 nil "2021/07/13 18:33:55")
; End File Header
; External resources 
; (list (list (quote :picture) "#P\"../../../../openmusic/OPENMUSIC/resources/pict/om3\""))
(in-package :om)(load-lib-for (quote nil))(setf *om-current-persistent* (om-load-patch1 "x-union" (quote ((let ((box (om-load-editor-box1 "TEXT-BOX" (quote text-box) (quote ((om-load-inputfun (quote input-funbox) "dialog-item text (string)" "text" "untitled"))) (om-make-point 157 468) (om-make-point 130 40) (om-make-dialog-item (quote text-box) (om-make-point 1 1) (om-make-point 102 20) "(4 2 1 3 5 7)" :font (om-make-font "Liberation Sans" 11.0D0 :family "Liberation Sans" :style (quote (:plain)) :mode (quote nil))) nil nil (pairlis (quote (winsize winpos)) (list (om-make-point 335 275) (om-make-point 10 40))) nil nil nil nil))) (when (fboundp (quote set-active)) (set-active box nil)) box) (let ((box (om-load-boxcomment "comment" (om-make-point 261 127) (quote "INPUTS:$l1?    list$l2?    list$OPTIONAL INPUTS:$test     symbol, function or Lambda-function$key     symbol, function or Lambda-function$list       other lists$OUTPUT:$returns a set of lists ( l1?, l2?  and list  ) merged$") "" (om-make-point 192 45) nil (om-make-color 0 0 0) (om-make-font "Arial" 12.0D0 :family "Arial" :style (quote (:plain)) :mode (quote nil))))) (when (fboundp (quote set-active)) (set-active box nil)) box) (let ((box (om-load-boxcall (quote bastype) "aux" (quote t) (quote nil) (om-make-point 244 353) (om-make-point 66 28) (list 1 2 3 4 5) "(1 2 3 4 5)" nil))) (when (fboundp (quote set-active)) (set-active box nil)) box) (let ((box (om-load-boxcall (quote bastype) "aux" (quote t) (quote nil) (om-make-point 141 352) (om-make-point 66 28) (list 1 3 5 7) "(1 3 5 7)" nil))) (when (fboundp (quote set-active)) (set-active box nil)) box) (let ((box (om-load-boxcall (quote genfun) "X-UNION" (quote x-union) (quote ((om-load-inputfun (quote input-funbox) "first list" "L1?" nil) (om-load-inputfun (quote input-funbox) "second list" "L2?" nil))) (om-make-point 202 396) nil nil nil nil 1))) (when (fboundp (quote set-active)) (set-active box nil)) box) (let ((box (om-load-boxcomment "comment" (om-make-point 401 133) (quote "This function merges a set of lists,< l1?>  and <l2?>, or elements into a single list, with no repetitions. If the optional <test> argument is added (remember that this module might be extended) , the lists can be compared according to any  predicate ( the default value of <test> being 'equal). Only elements in< l1?> that return true when compared with all the elements in < l2?> (according to the predicate), are returned in the result list. If the key argument  is included (the default function is identity), its function is first evaluated using each of < l1?> elements as input, and then the lists are compared according to the test on the results of the function.  <test> and <key> may also be connected function or subpatch icons in 'lambda' mode. Additional lists can be compared using <list> .") "" (om-make-point 59 188) nil (om-make-color 0 0 0) (om-make-font "Arial" 12.0D0 :family "Arial" :style (quote (:plain)) :mode (quote nil))))) (when (fboundp (quote set-active)) (set-active box nil)) box) (let ((box (om-load-boxcomment "comment" (om-make-point 93 28) (quote "x-union") "" (om-make-point 222 8) nil (om-make-color 0 0 0) (om-make-font "Arial" 18.666666666666665D0 :family "Arial" :style (quote (:bold)) :mode (quote nil))))) (when (fboundp (quote set-active)) (set-active box nil)) box))) (quote ((4 0 0 0 nil 0) (3 0 4 0 nil 0) (2 0 4 1 nil 0))) (list (let ((newpict (make-instance (quote patch-picture) :name "om3" :source (quote kernel) :pict-pathname (restore-pict-path (restore-path nil)) :thepict (om-get-picture "om3" (quote kernel)) :storemode :external :draw-params (quote (p 0 0 100 100)) :extraobjs nil))) (setf (pict-pos newpict) (om-make-point 67 60)) (setf (pict-size newpict) (om-make-point 119 112)) newpict)) 6.2))
