; OM File Header - Saved 2014/02/16 1:41:16
; (6.070104 :patc (om-make-point 55 51) (om-make-point 161 483) (om-make-point 885 451) "non documentation" 183 0 nil "2014/02/16 1:41:16")
; End File Header
; External resources 
; (list (list (quote :sound) "#P\"../../in-files/africa.aiff\"" "#P\"../../in-files/Bassclarinet1.aif\""))
(in-package :om)(load-lib-for (quote nil))(setf *om-current-persistent* (om-load-patch1 "01-sound-tracks" (quote ((om-load-boxcomment "comment" (om-make-point 183 28) (quote "=> connect to sound's 1st input") "" (om-make-point 541 137) nil (om-make-color 0 0 0) (om-make-font "Arial" 12 :family "Arial" :style (quote (:plain)) :mode (quote nil))) (om-load-boxcomment "comment" (om-make-point 216 70) (quote "INFILE :$create a pathname with the input name and  the input-files directory specified in the Preferences") "" (om-make-point 601 72) nil (om-make-color 0 0 0) (om-make-font "Arial" 12 :family "Arial" :style (quote (:plain)) :mode (quote nil))) (om-load-boxcall (quote bastype) "aux1" (quote t) (quote nil) (om-make-point 515 38) (om-make-point 96 30) "pulse1b.aiff" "\"pulse1b.aiff\"" nil) (om-load-boxcall (quote genfun) "INFILE" (quote infile) (quote ((om-load-inputfun (quote input-funbox) "no documentation" "PATH" nil))) (om-make-point 543 76) nil nil nil nil 1) (om-load-boxcomment "comment" (om-make-point 330 30) (quote "... or use the general Audio Mixer (Menu \"Windows\")") "" (om-make-point 70 378) nil (om-make-color 0 0 0) (om-make-font "Verdana" 12 :family "Verdana" :style (quote (:plain)) :mode (quote nil))) (om-load-boxcomment "comment" (om-make-point 139 58) (quote "Eval and double click to acces the mixin console interface") "" (om-make-point 294 296) nil (om-make-color 0 0 0) (om-make-font "Verdana" 12 :family "Verdana" :style (quote (:plain)) :mode (quote nil))) (om-load-boxcall (quote bastype) "aux2" (quote t) (quote nil) (om-make-point 211 126) (om-make-point 27 30) 2 "2" nil) (om-load-boxcall (quote bastype) "aux1" (quote t) (quote nil) (om-make-point 111 126) (om-make-point 27 30) 1 "1" nil) (om-load-boxcall (quote bastype) "aux" (quote t) (quote nil) (om-make-point 243 260) (om-make-point 16 26) 2 "2" nil) (om-load-boxcomment "comment" (om-make-point 150 34) (quote "<-- Number of tracks") "" (om-make-point 265 254) nil (om-make-color 0 0 0) (om-make-font "Verdana" 12 :family "Verdana" :style (quote (:plain)) :mode (quote nil))) (om-load-boxcomment "comment" (om-make-point 57 27) (quote "SOUND") "" (om-make-point 15 130) nil (om-make-color 0 0 0) (om-make-font "Verdana" 12 :family "Verdana" :style (quote (:plain)) :mode (quote nil))) (om-load-boxcomment "comment" (om-make-point 143 27) (quote "AUDIO-MIX-CONSOLE") "" (om-make-point 17 252) nil (om-make-color 0 0 0) (om-make-font "Verdana" 12 :family "Verdana" :style (quote (:plain)) :mode (quote nil))) (om-load-editor-box1 "AUDIO-MIX-CONSOLE" (quote audio-mix-console) (quote ((om-load-inputfun (quote input-funbox) "objs" "SELF" nil) (om-load-inputfun (quote input-funbox) "no documentation" "NBTRACKS" 2))) (om-make-point 187 288) (om-make-point 91 61) (let ((rep (make-instance (quote audio-mix-console) :nbtracks (quote 2)))) (setf (channels-ctrl rep) (list (if (find-class (quote audio-channel-ctrl) nil) (make-instance (quote audio-channel-ctrl) :track 1 :pan-ctrl 0 :vol-ctrl 92 :from-file t)) (if (find-class (quote audio-channel-ctrl) nil) (make-instance (quote audio-channel-ctrl) :track 2 :pan-ctrl 0 :vol-ctrl 76 :from-file t)))) rep) "x" nil (pairlis (quote (scale show-stems obj-mode score-mode winpos winsize mode grillestep notechancolor? zoom inport outport deltapict cmnpref staff fontsize approx palette-mode player)) (list nil (quote t) 1 0 (om-make-point 276 178) (om-make-point 160 250) 0 1000 nil 1 0 0 (om-make-point 0 0) (let ((newobj (make-instance (quote edition-values)))) (setf (paper-size newobj) (om-make-point 600 800)) (setf (top-margin newobj) 2) (setf (left-margin newobj) 1) (setf (right-margin newobj) 1) (setf (bottom-margin newobj) 1) (setf (orientation newobj) nil) (setf (scale newobj) nil) (setf (system-space newobj) (quote (1))) (setf (system-color newobj) (quote nil)) (setf (line-space newobj) 1) (setf (title newobj) nil) (setf (show-title? newobj) nil) (setf (show-page? newobj) nil) (setf (sheet-id newobj) nil) (setf (page-mode newobj) nil) newobj) (quote g) 24 2 0 (quote :midishare))) t nil nil nil) (om-load-boxcomment "comment" (om-make-point 209 56) (quote "The track number can be set using the 2nd input of the sound box or inside the sound editor") "" (om-make-point 276 161) nil (om-make-color 0 0 0) (om-make-font "Verdana" 12 :family "Verdana" :style (quote (:plain)) :mode (quote nil))) (om-load-boxcomment "comment" (om-make-point 209 56) (quote "Sounds can be assigned an audio track in order to be controlled by a mixing console") "" (om-make-point 124 40) nil (om-make-color 0 0 0) (om-make-font "Verdana" 12 :family "Verdana" :style (quote (:plain)) :mode (quote nil))) (om-load-boxcomment "comment" (om-make-point 69 29) (quote "Tracks") "" (om-make-point 176 15) nil (om-make-color 0 0 0) (om-make-font "Verdana" 14 :family "Verdana" :style (quote (:bold)) :mode (quote nil))) (om-load-editor-box1 "africa.aiff" (quote sound) (quote ((om-load-inputfun (quote input-funbox) "objs" "SELF" nil) (om-load-inputfun (quote input-funbox) "no documentation" "TRACKNUM" 2) (om-load-inputfun (quote input-funbox) "no documentation" "MARKERS" nil))) (om-make-point 179 159) (om-make-point 88 65) (let ((newobj (let ((thesound (load-sound (om-make-pathname :directory (quote (:relative "in-files")) :device :unspecific :host :unspecific :name "africa" :type "aiff") 2))) (when thesound (setf (markers thesound) (quote nil))) thesound))) (load-port-info newobj (quote nil)) (init-mus-color newobj (quote nil)) (set-extra-pairs newobj (quote nil)) (set-patch-pairs newobj (quote nil)) (set-name newobj "africa.aiff") (set-tonalite newobj nil) newobj) nil nil (pairlis (quote (scale show-stems obj-mode score-mode winpos winsize mode grillestep notechancolor? zoom inport outport deltapict cmnpref staff fontsize approx palette-mode player)) (list nil (quote t) 1 0 (om-make-point 40 10) (om-make-point 370 280) 0 1000 nil 1 0 0 (om-make-point 0 0) (let ((newobj (make-instance (quote edition-values)))) (setf (paper-size newobj) (om-make-point 600 800)) (setf (top-margin newobj) 2) (setf (left-margin newobj) 1) (setf (right-margin newobj) 1) (setf (bottom-margin newobj) 1) (setf (orientation newobj) nil) (setf (scale newobj) nil) (setf (system-space newobj) (quote (1))) (setf (system-color newobj) (quote nil)) (setf (line-space newobj) 1) (setf (title newobj) nil) (setf (show-title? newobj) nil) (setf (show-page? newobj) nil) (setf (sheet-id newobj) nil) (setf (page-mode newobj) nil) newobj) (quote g) 24 2 0 (quote :midishare))) t nil nil nil) (om-load-editor-box1 "Bassclarinet1.aif" (quote sound) (quote ((om-load-inputfun (quote input-funbox) "objs" "SELF" nil) (om-load-inputfun (quote input-funbox) "no documentation" "TRACKNUM" 1) (om-load-inputfun (quote input-funbox) "no documentation" "MARKERS" nil))) (om-make-point 79 159) (om-make-point 88 63) (let ((newobj (let ((thesound (load-sound (om-make-pathname :directory (quote (:relative "in-files")) :device :unspecific :host :unspecific :name "Bassclarinet1" :type "aif") 1))) (when thesound (setf (markers thesound) (quote nil))) thesound))) (load-port-info newobj (quote nil)) (init-mus-color newobj (quote nil)) (set-extra-pairs newobj (quote nil)) (set-patch-pairs newobj (quote nil)) (set-name newobj "Bassclarinet1.aif") (set-tonalite newobj nil) newobj) nil nil (pairlis (quote (scale show-stems obj-mode score-mode winpos winsize mode grillestep notechancolor? zoom inport outport deltapict cmnpref staff fontsize approx palette-mode player)) (list nil (quote t) 1 0 (om-make-point 55 22) (om-make-point 370 280) 0 1000 nil 1 0 0 (om-make-point 0 0) (let ((newobj (make-instance (quote edition-values)))) (setf (paper-size newobj) (om-make-point 600 800)) (setf (top-margin newobj) 2) (setf (left-margin newobj) 1) (setf (right-margin newobj) 1) (setf (bottom-margin newobj) 1) (setf (orientation newobj) nil) (setf (scale newobj) nil) (setf (system-space newobj) (quote (1))) (setf (system-color newobj) (quote nil)) (setf (line-space newobj) 1) (setf (title newobj) nil) (setf (show-title? newobj) nil) (setf (show-page? newobj) nil) (setf (sheet-id newobj) nil) (setf (page-mode newobj) nil) newobj) (quote g) 24 2 0 (quote :midishare))) t nil nil nil))) (quote ((2 0 3 0 nil 0) (8 0 12 1 nil 0) (6 0 16 1 nil 0) (7 0 17 1 nil 0))) nil 6.070104))
