; OM File Header - Saved 2009/10/22 17:11:45
; (6.010003 :patc (om-make-point 152 52) (om-make-point 727 48) (om-make-point 666 473) "non documentation" 183 0 nil "2009/10/22 17:10:47")
; End File Header
; External resources 
; (list (list (quote :sound) "../../in-files/pulse1b.aiff"))
(in-package :om)(load-lib-for (quote nil))(setf *om-current-persistent* (om-load-patch1 "02-sound-markers" (quote ((om-load-boxcomment "comment" (om-make-point 216 70) (quote "INFILE :$create a pathname with the input name and  the input-files directory specified in the Preferences") "" (om-make-point 144 55) nil (om-make-color 0 0 0) (om-make-font "Arial" 12 :family "Arial" :style (quote (:plain)) :mode (quote nil))) (om-load-boxcall (quote bastype) "aux1" (quote t) (quote nil) (om-make-point 50 57) (om-make-point 75 25) "pulse1b.aiff" "\"pulse1b.aiff\"" nil) (om-load-boxcall (quote genfun) "INFILE" (quote infile) (quote ((om-load-inputfun (quote input-funbox) "no documentation" "PATH" nil))) (om-make-point 70 83) nil nil nil nil 1) (om-load-boxcall (quote bastype) "aux" (quote t) (quote nil) (om-make-point 180 206) (om-make-point 108 33) (list 0.5 1.0 1.5 2.5 4.0) "(0.5 1.0 1.5 2.5 4.0)" nil) (om-load-boxcomment "comment" (om-make-point 222 59) (quote "Markers can also be added (alt+click), edited, and removed from inside the sound editor") "" (om-make-point 298 259) nil (om-make-color 0 0 0) (om-make-font "Verdana" 12 :family "Verdana" :style (quote (:plain)) :mode (quote nil))) (om-load-boxcomment "comment" (om-make-point 57 27) (quote "SOUND") "" (om-make-point 57 249) nil (om-make-color 0 0 0) (om-make-font "Verdana" 12 :family "Verdana" :style (quote (:plain)) :mode (quote nil))) (om-load-boxcomment "comment" (om-make-point 211 42) (quote "The 3rd in/ouput of the SOUND box is a list of temporal markers") "" (om-make-point 340 169) nil (om-make-color 0 0 0) (om-make-font "Verdana" 12 :family "Verdana" :style (quote (:plain)) :mode (quote nil))) (om-load-boxcomment "comment" (om-make-point 69 29) (quote "Markers") "" (om-make-point 248 9) nil (om-make-color 0 0 0) (om-make-font "Verdana" 14 :family "Verdana" :style (quote (:bold)) :mode (quote nil))) (om-load-editor-box1 "SOUND" (quote sound) (quote ((om-load-inputfun (quote input-funbox) "objs" "SELF" nil) (om-load-inputfun (quote input-funbox) "no documentation" "TRACKNUM" 1) (om-load-inputfun (quote input-funbox) "no documentation" "MARKERS" nil))) (om-make-point 124 245) (om-make-point 145 92) (let ((newobj (let ((thesound (load-sound (make-pathname :directory (quote (:relative "in-files")) :device :unspecific :host :unspecific :name "pulse1b" :type "aiff") 1))) (when thesound (setf (markers thesound) (quote (0.5 1.0 1.5 2.5 4.0)))) thesound))) (load-port-info newobj (quote nil)) (init-mus-color newobj (quote nil)) (set-extra-pairs newobj (quote nil)) (set-patch-pairs newobj (quote nil)) (set-name newobj nil) (set-tonalite newobj nil) newobj) nil nil (pairlis (quote (scale player palette-mode approx fontsize staff cmnpref deltapict outport inport zoom notechancolor? grillestep mode winsize winpos score-mode obj-mode show-stems)) (list nil (quote :midishare) 0 2 24 (quote g) (let ((newobj (make-instance (quote edition-values)))) (setf (paper-size newobj) (om-make-point 600 800)) (setf (top-margin newobj) 2) (setf (left-margin newobj) 1) (setf (right-margin newobj) 1) (setf (bottom-margin newobj) 1) (setf (orientation newobj) nil) (setf (scale newobj) nil) (setf (system-space newobj) (quote (1))) (setf (system-color newobj) (quote nil)) (setf (line-space newobj) 1) (setf (title newobj) nil) (setf (show-title? newobj) nil) (setf (show-page? newobj) nil) (setf (sheet-id newobj) nil) (setf (page-mode newobj) nil) newobj) (om-make-point 0 0) 0 0 1 nil 1000 0 (om-make-point 370 280) (om-make-point 40 10) 0 1 (quote t))) t nil nil nil))) (quote ((1 0 2 0 nil 0) (2 0 8 0 nil 0) (3 0 8 2 nil 0))) nil 6.010003))
