; OM File Header - Saved 2009/10/22 17:11:45
; (6.010003 :patc (om-make-point 257 52) (om-make-point 580 147) (om-make-point 717 363) "non documentation" 183 0 nil "2009/10/22 17:10:47")
; End File Header
; External resources 
; (list (list (quote :sound) "../../in-files/pulse1b.aiff"))
(in-package :om)(load-lib-for (quote nil))(setf *om-current-persistent* (om-load-patch1 "03-sound-info" (quote ((om-load-boxcall (quote bastype) "aux1" (quote t) (quote nil) (om-make-point 85 55) (om-make-point 75 25) "pulse1b.aiff" "\"pulse1b.aiff\"" nil) (om-load-boxcall (quote genfun) "INFILE" (quote infile) (quote ((om-load-inputfun (quote input-funbox) "no documentation" "PATH" nil))) (om-make-point 105 83) nil nil nil nil 1) (om-load-boxcall (quote lispfun) "OM-SOUND-FILE-NAME" (quote om-sound-file-name) (quote ((om-load-inputfun (quote input-funbox) "SELF" "SELF" nil))) (om-make-point 92 242) nil nil nil nil 1) (om-load-boxcall (quote lispfun) "OM-SOUND-FORMAT" (quote om-sound-format) (quote ((om-load-inputfun (quote input-funbox) "SELF" "SELF" nil))) (om-make-point 554 242) nil nil nil nil 1) (om-load-boxcall (quote lispfun) "OM-SOUND-N-CHANNELS" (quote om-sound-n-channels) (quote ((om-load-inputfun (quote input-funbox) "SELF" "SELF" nil))) (om-make-point 434 242) nil nil nil nil 1) (om-load-boxcall (quote lispfun) "OM-SOUND-SAMPLE-RATE" (quote om-sound-sample-rate) (quote ((om-load-inputfun (quote input-funbox) "SELF" "SELF" nil))) (om-make-point 310 242) nil nil nil nil 1) (om-load-boxcall (quote lispfun) "OM-SOUND-N-SAMPLES" (quote om-sound-n-samples) (quote ((om-load-inputfun (quote input-funbox) "SELF" "SELF" nil))) (om-make-point 199 242) nil nil nil nil 1) (om-load-boxcall (quote genfun) "SOUND-DUR-MS" (quote sound-dur-ms) (quote ((om-load-inputfun (quote input-funbox) "sound file or pathname" "S" nil))) (om-make-point 10 242) nil nil nil nil 1) (om-load-boxcomment "comment" (om-make-point 57 27) (quote "SOUND") "" (om-make-point 31 147) nil (om-make-color 0 0 0) (om-make-font "Verdana" 12 :family "Verdana" :style (quote (:plain)) :mode (quote nil))) (om-load-boxcomment "comment" (om-make-point 141 42) (quote "Get informations about a sound file") "" (om-make-point 299 9) nil (om-make-color 0 0 0) (om-make-font "Verdana" 12 :family "Verdana" :style (quote (:plain)) :mode (quote nil))) (om-load-boxcomment "comment" (om-make-point 115 32) (quote "Sound Info") "" (om-make-point 166 9) nil (om-make-color 0 0 0) (om-make-font "Verdana" 14 :family "Verdana" :style (quote (:bold)) :mode (quote nil))) (om-load-editor-box1 "SOUND" (quote sound) (quote ((om-load-inputfun (quote input-funbox) "objs" "SELF" nil) (om-load-inputfun (quote input-funbox) "no documentation" "TRACKNUM" 1) (om-load-inputfun (quote input-funbox) "no documentation" "MARKERS" nil))) (om-make-point 106 148) (om-make-point 88 63) (let ((newobj (let ((thesound (load-sound (make-pathname :directory (quote (:relative "in-files")) :device :unspecific :host :unspecific :name "pulse1b" :type "aiff") 1))) (when thesound (setf (markers thesound) (quote nil))) thesound))) (load-port-info newobj (quote nil)) (init-mus-color newobj (quote nil)) (set-extra-pairs newobj (quote nil)) (set-patch-pairs newobj (quote nil)) (set-name newobj nil) (set-tonalite newobj nil) newobj) "x" nil (pairlis (quote (player show-stems obj-mode score-mode winpos winsize mode grillestep notechancolor? zoom inport outport deltapict cmnpref staff fontsize approx palette-mode scale)) (list (quote :midishare) (quote t) 1 0 (om-make-point 40 10) (om-make-point 370 280) 0 1000 nil 1 0 0 (om-make-point 0 0) (let ((newobj (make-instance (quote edition-values)))) (setf (paper-size newobj) (om-make-point 600 800)) (setf (top-margin newobj) 2) (setf (left-margin newobj) 1) (setf (right-margin newobj) 1) (setf (bottom-margin newobj) 1) (setf (orientation newobj) nil) (setf (scale newobj) nil) (setf (system-space newobj) (quote (1))) (setf (system-color newobj) (quote nil)) (setf (line-space newobj) 1) (setf (title newobj) nil) (setf (show-title? newobj) nil) (setf (show-page? newobj) nil) (setf (sheet-id newobj) nil) (setf (page-mode newobj) nil) newobj) (quote g) 24 2 0 nil)) t nil nil nil))) (quote ((0 0 1 0 nil 0) (11 0 2 0 nil 0) (11 0 3 0 nil 0) (11 0 4 0 nil 0) (11 0 5 0 nil 0) (11 0 6 0 nil 0) (11 0 7 0 nil 0) (1 0 11 0 nil 0))) nil 6.010003))
