; OM File Header - Saved 2014/02/16 1:41:16
; (6.070104 :patc (om-make-point 257 52) (om-make-point 477 189) (om-make-point 717 363) "non documentation" 183 0 nil "2014/02/16 1:41:16")
; End File Header
; External resources 
; (list (list (quote :sound) "#P\"../../in-files/Bassclarinet2.aif\""))
(in-package :om)(load-lib-for (quote nil))(setf *om-current-persistent* (om-load-patch1 "03-sound-info" (quote ((om-load-boxcall (quote lispfun) "OM-SOUND-FILE-NAME" (quote om-sound-file-name) (quote ((om-load-inputfun (quote input-funbox) "SELF" "SELF" nil))) (om-make-point 64 242) nil nil nil nil 1) (om-load-boxcall (quote lispfun) "OM-SOUND-FORMAT" (quote om-sound-format) (quote ((om-load-inputfun (quote input-funbox) "SELF" "SELF" nil))) (om-make-point 554 162) nil nil nil nil 1) (om-load-boxcall (quote lispfun) "OM-SOUND-N-CHANNELS" (quote om-sound-n-channels) (quote ((om-load-inputfun (quote input-funbox) "SELF" "SELF" nil))) (om-make-point 434 192) nil nil nil nil 1) (om-load-boxcall (quote lispfun) "OM-SOUND-SAMPLE-RATE" (quote om-sound-sample-rate) (quote ((om-load-inputfun (quote input-funbox) "SELF" "SELF" nil))) (om-make-point 310 212) nil nil nil nil 1) (om-load-boxcall (quote lispfun) "OM-SOUND-N-SAMPLES" (quote om-sound-n-samples) (quote ((om-load-inputfun (quote input-funbox) "SELF" "SELF" nil))) (om-make-point 189 232) nil nil nil nil 1) (om-load-boxcall (quote genfun) "SOUND-DUR-MS" (quote sound-dur-ms) (quote ((om-load-inputfun (quote input-funbox) "sound file or pathname" "S" nil))) (om-make-point 10 182) nil nil nil nil 1) (om-load-boxcomment "comment" (om-make-point 57 27) (quote "SOUND") "" (om-make-point 31 87) nil (om-make-color 0 0 0) (om-make-font "Verdana" 12 :family "Verdana" :style (quote (:plain)) :mode (quote nil))) (om-load-boxcomment "comment" (om-make-point 141 42) (quote "Get informations about a sound file") "" (om-make-point 299 9) nil (om-make-color 0 0 0) (om-make-font "Verdana" 12 :family "Verdana" :style (quote (:plain)) :mode (quote nil))) (om-load-boxcomment "comment" (om-make-point 115 32) (quote "Sound Info") "" (om-make-point 166 9) nil (om-make-color 0 0 0) (om-make-font "Verdana" 14 :family "Verdana" :style (quote (:bold)) :mode (quote nil))) (om-load-editor-box1 "Bassclarinet2.aif" (quote sound) (quote ((om-load-inputfun (quote input-funbox) "object" "self" nil) (om-load-inputfun (quote input-funbox) "a track index for multichannel mixing (0 = no specific track)" "tracknum" 1) (om-load-inputfun (quote input-funbox) "a list of markers (s)" "markers" nil))) (om-make-point 106 88) (om-make-point 88 63) (let ((newobj (let ((thesound (load-sound (om-make-pathname :directory (quote (:relative "in-files")) :device :unspecific :host :unspecific :name "Bassclarinet2" :type "aif") 1))) (when thesound (setf (markers thesound) (quote nil))) thesound))) (load-port-info newobj (quote nil)) (init-mus-color newobj (quote nil)) (set-extra-pairs newobj (quote nil)) (set-patch-pairs newobj (quote nil)) (set-name newobj "Bassclarinet2.aif") (set-tonalite newobj nil) newobj) "x" nil (pairlis (quote (scale palette-mode approx fontsize staff cmnpref deltapict outport inport zoom notechancolor? grillestep mode winsize winpos score-mode obj-mode show-stems player)) (list nil 0 2 24 (quote g) (let ((newobj (make-instance (quote edition-values)))) (setf (paper-size newobj) (om-make-point 600 800)) (setf (top-margin newobj) 2) (setf (left-margin newobj) 1) (setf (right-margin newobj) 1) (setf (bottom-margin newobj) 1) (setf (orientation newobj) nil) (setf (scale newobj) nil) (setf (system-space newobj) (quote (1))) (setf (system-color newobj) (quote nil)) (setf (line-space newobj) 1) (setf (title newobj) nil) (setf (show-title? newobj) nil) (setf (show-page? newobj) nil) (setf (sheet-id newobj) nil) (setf (page-mode newobj) nil) newobj) (om-make-point 0 0) 0 0 1 nil 1000 0 (om-make-point 1117 518) (om-make-point 153 177) 0 1 (quote t) (quote :midishare))) t nil nil nil))) (quote ((9 0 0 0 nil 0) (9 0 1 0 nil 0) (9 0 2 0 nil 0) (9 0 3 0 nil 0) (9 0 4 0 nil 0) (9 0 5 0 nil 0))) nil 6.070104))
