; OM File Header - Saved 2014/02/16 1:41:16
; (6.070104 :patc (om-make-point 260 116) (om-make-point 399 232) (om-make-point 455 515) "non documentation" 183 0 nil "2014/02/16 1:40:37")
; End File Header
; External resources 
; (list (list (quote :sound) "#P\"../../in-files/Bassclarinet2.aif\"" "#P\"../../in-files/africa.aiff\""))
(in-package :om)(load-lib-for (quote nil))(setf *om-current-persistent* (om-load-patch1 "07-sound-mix" (quote ((om-load-boxcall (quote genfun) "SOUND-MIX" (quote sound-mix) (quote ((om-load-inputfun (quote input-funbox) "no documentation" "S1" nil) (om-load-inputfun (quote input-funbox) "no documentation" "S2" nil) (om-load-inputfunmenu1 (quote input-funmenu) "a mixing method" "METHOD" 1 (list (list "Sum" 0) (list "Sum / Average" 1) (list "Sum / Hard Limiting" 2))))) (om-make-point 146 192) nil nil nil nil 1) (om-load-editor-box1 "Bassclarinet2.aif" (quote sound) (quote ((om-load-inputfun (quote input-funbox) "objs" "SELF" nil) (om-load-inputfun (quote input-funbox) "no documentation" "TRACKNUM" 1) (om-load-inputfun (quote input-funbox) "no documentation" "MARKERS" nil))) (om-make-point 207 81) (om-make-point 88 63) (let ((newobj (let ((thesound (load-sound (om-make-pathname :directory (quote (:relative "in-files")) :device :unspecific :host :unspecific :name "Bassclarinet2" :type "aif") 1))) (when thesound (setf (markers thesound) (quote nil))) thesound))) (load-port-info newobj (quote nil)) (init-mus-color newobj (quote nil)) (set-extra-pairs newobj (quote nil)) (set-patch-pairs newobj (quote nil)) (set-name newobj "Bassclarinet2.aif") (set-tonalite newobj nil) newobj) "x" nil (pairlis (quote (player palette-mode approx fontsize staff cmnpref deltapict outport inport zoom notechancolor? grillestep mode winsize winpos score-mode obj-mode show-stems scale)) (list (quote :midishare) 0 2 24 (quote g) (let ((newobj (make-instance (quote edition-values)))) (setf (paper-size newobj) (om-make-point 600 800)) (setf (top-margin newobj) 2) (setf (left-margin newobj) 1) (setf (right-margin newobj) 1) (setf (bottom-margin newobj) 1) (setf (orientation newobj) nil) (setf (scale newobj) nil) (setf (system-space newobj) (quote (1))) (setf (system-color newobj) (quote nil)) (setf (line-space newobj) 1) (setf (title newobj) nil) (setf (show-title? newobj) nil) (setf (show-page? newobj) nil) (setf (sheet-id newobj) nil) (setf (page-mode newobj) nil) newobj) (om-make-point 0 0) 0 0 1 nil 1000 0 (om-make-point 370 280) (om-make-point 40 10) 0 1 (quote t) nil)) t nil nil nil) (om-load-editor-box1 "" (quote sound) (quote ((om-load-inputfun (quote input-funbox) "objs" "SELF" nil) (om-load-inputfun (quote input-funbox) "no documentation" "TRACKNUM" 1) (om-load-inputfun (quote input-funbox) "no documentation" "MARKERS" nil))) (om-make-point 131 380) (om-make-point 134 65) (let ((newobj nil)) (load-port-info newobj (quote nil)) (init-mus-color newobj (quote nil)) (set-extra-pairs newobj (quote nil)) (set-patch-pairs newobj (quote nil)) (set-name newobj "") (set-tonalite newobj nil) newobj) nil nil (pairlis (quote (player palette-mode approx fontsize staff cmnpref deltapict outport inport zoom notechancolor? grillestep mode winsize winpos score-mode obj-mode show-stems scale)) (list (quote :midishare) 0 2 24 (quote g) (let ((newobj (make-instance (quote edition-values)))) (setf (paper-size newobj) (om-make-point 600 800)) (setf (top-margin newobj) 2) (setf (left-margin newobj) 1) (setf (right-margin newobj) 1) (setf (bottom-margin newobj) 1) (setf (orientation newobj) nil) (setf (scale newobj) nil) (setf (system-space newobj) (quote (1))) (setf (system-color newobj) (quote nil)) (setf (line-space newobj) 1) (setf (title newobj) nil) (setf (show-title? newobj) nil) (setf (show-page? newobj) nil) (setf (sheet-id newobj) nil) (setf (page-mode newobj) nil) newobj) (om-make-point 0 0) 0 0 1 nil 1000 0 (om-make-point 370 280) (om-make-point 40 10) 0 1 (quote t) nil)) t nil nil nil) (om-load-boxcall (quote bastype) "aux2" (quote t) (quote nil) (om-make-point 256 214) (om-make-point 78 25) "mix.aiff" "\"mix.aiff\"" nil) (om-load-boxcall (quote genfun) "OUTFILE" (quote outfile) (quote ((om-load-inputfun (quote input-funbox) "no documentation" "PATH" nil))) (om-make-point 249 243) nil nil nil nil 1) (om-load-boxcall (quote genfun) "SAVE-SOUND" (quote save-sound) (quote ((om-load-inputfun (quote input-funbox) "no documentation" "SELF" nil) (om-load-inputfun (quote input-funbox) "no documentation" "FILENAME" nil))) (om-make-point 194 313) nil nil nil nil 1) (om-load-boxcomment "comment" (om-make-point 94 28) (quote "Sound mix$") "" (om-make-point 132 21) nil (om-make-color 0 0 0) (om-make-font "Verdana" 14 :family "Verdana" :style (quote (:bold)) :mode (quote nil))) (om-load-editor-box1 "africa.aiff" (quote sound) (quote ((om-load-inputfun (quote input-funbox) "objs" "SELF" nil) (om-load-inputfun (quote input-funbox) "no documentation" "TRACKNUM" 1) (om-load-inputfun (quote input-funbox) "no documentation" "MARKERS" nil))) (om-make-point 93 82) (om-make-point 88 63) (let ((newobj (let ((thesound (load-sound (om-make-pathname :directory (quote (:relative "in-files")) :device :unspecific :host :unspecific :name "africa" :type "aiff") 1))) (when thesound (setf (markers thesound) (quote nil))) thesound))) (load-port-info newobj (quote nil)) (init-mus-color newobj (quote nil)) (set-extra-pairs newobj (quote nil)) (set-patch-pairs newobj (quote nil)) (set-name newobj "africa.aiff") (set-tonalite newobj nil) newobj) "x" nil (pairlis (quote (player palette-mode approx fontsize staff cmnpref deltapict outport inport zoom notechancolor? grillestep mode winsize winpos score-mode obj-mode show-stems scale)) (list (quote :midishare) 0 2 24 (quote g) (let ((newobj (make-instance (quote edition-values)))) (setf (paper-size newobj) (om-make-point 600 800)) (setf (top-margin newobj) 2) (setf (left-margin newobj) 1) (setf (right-margin newobj) 1) (setf (bottom-margin newobj) 1) (setf (orientation newobj) nil) (setf (scale newobj) nil) (setf (system-space newobj) (quote (1))) (setf (system-color newobj) (quote nil)) (setf (line-space newobj) 1) (setf (title newobj) nil) (setf (show-title? newobj) nil) (setf (show-page? newobj) nil) (setf (sheet-id newobj) nil) (setf (page-mode newobj) nil) newobj) (om-make-point 0 0) 0 0 1 nil 1000 0 (om-make-point 370 280) (om-make-point 40 10) 0 1 (quote t) nil)) t nil nil nil))) (quote ((7 0 0 0 nil 0) (1 0 0 1 nil 0) (5 0 2 0 nil 0) (3 0 4 0 nil 0) (0 0 5 0 nil 0) (4 0 5 1 nil 0))) nil 6.070104))
