; OM File Header - Saved 2021/07/12 1:42:18
; (6.2 :patc (om-make-point 238 16) (om-make-point 0 0) (om-make-point 983 690) "non documentation" 183 0 nil "2021/07/11 20:05:06")
; End File Header
(in-package :om)(load-lib-for (quote nil))(setf *om-current-persistent* (om-load-patch1 "03-Red-criteria" (quote ((let ((box (om-load-editor-box1 "TEXT-BOX 3" (quote text-box) (quote ((om-load-inputfun (quote input-funbox) "dialog-item text (string)" "text" "untitled"))) (om-make-point 790 594) (om-make-point 54 40) (om-make-dialog-item (quote text-box) (om-make-point 1 1) (om-make-point 26 21) "26" :font (om-make-font "Liberation Sans" 11.0D0 :family "Liberation Sans" :style (quote (:plain)) :mode (quote nil))) nil nil (pairlis (quote (winsize winpos)) (list (om-make-point 335 275) (om-make-point 10 40))) nil nil nil nil))) (when (fboundp (quote set-active)) (set-active box nil)) box) (let ((box (om-load-editor-box1 "TEXT-BOX 2" (quote text-box) (quote ((om-load-inputfun (quote input-funbox) "dialog-item text (string)" "text" "untitled"))) (om-make-point 539 591) (om-make-point 54 40) (om-make-dialog-item (quote text-box) (om-make-point 1 1) (om-make-point 26 21) "10" :font (om-make-font "Liberation Sans" 11.0D0 :family "Liberation Sans" :style (quote (:plain)) :mode (quote nil))) nil nil (pairlis (quote (winsize winpos)) (list (om-make-point 335 275) (om-make-point 10 40))) nil nil nil nil))) (when (fboundp (quote set-active)) (set-active box nil)) box) (let ((box (om-load-editor-box1 "TEXT-BOX" (quote text-box) (quote ((om-load-inputfun (quote input-funbox) "dialog-item text (string)" "text" "untitled"))) (om-make-point 210 596) (om-make-point 54 40) (om-make-dialog-item (quote text-box) (om-make-point 1 1) (om-make-point 26 21) "20" :font (om-make-font "Liberation Sans" 11.0D0 :family "Liberation Sans" :style (quote (:plain)) :mode (quote nil))) nil nil (pairlis (quote (winsize winpos)) (list (om-make-point 335 275) (om-make-point 10 40))) nil nil nil nil))) (when (fboundp (quote set-active)) (set-active box nil)) box) (let ((box (om-load-boxcall (quote genfun) "SUITE-REDUCTIBLE1" (quote suite-reductible) (quote ((om-load-inputfun (quote input-funbox) "no documentation" "LIST" nil) (om-load-inputfun (quote input-funbox) "no documentation" "N" nil))) (om-make-point 781 464) nil nil nil nil 1))) (when (fboundp (quote set-active)) (set-active box nil)) box) (let ((box (om-load-boxcall (quote genfun) "SUITE-REDUCTIBLE1" (quote suite-reductible) (quote ((om-load-inputfun (quote input-funbox) "no documentation" "LIST" nil) (om-load-inputfun (quote input-funbox) "no documentation" "N" nil))) (om-make-point 530 456) nil nil nil nil 1))) (when (fboundp (quote set-active)) (set-active box nil)) box) (let ((box (om-load-boxcall (quote genfun) "SUITE-REDUCTIBLE1" (quote suite-reductible) (quote ((om-load-inputfun (quote input-funbox) "no documentation" "LIST" nil) (om-load-inputfun (quote input-funbox) "no documentation" "N" nil))) (om-make-point 201 461) nil nil nil nil 1))) (when (fboundp (quote set-active)) (set-active box nil)) box) (let ((box (om-load-boxcall (quote bastype) "aux" (quote t) (quote nil) (om-make-point 570 318) (om-make-point 26 30) 9 "9" nil))) (when (fboundp (quote set-active)) (set-active box nil)) box) (let ((box (om-load-boxcall (quote lispfun) "LENGTH" (quote length) (quote ((om-load-inputfun (quote input-funbox) "SEQUENCE" "SEQUENCE" nil))) (om-make-point 550 531) nil nil nil nil 1))) (when (fboundp (quote set-active)) (set-active box nil)) box) (let ((box (om-load-boxcall (quote genfun) "REPEAT-N" (quote repeat-n) (quote ((om-load-inputfun (quote input-funbox) "patch" "SELF" nil) (om-load-inputfun (quote input-funbox) "times" "NUM" 0))) (om-make-point 535 353) nil nil nil nil 1))) (when (fboundp (quote set-active)) (set-active box nil)) box) (let ((box (om-load-boxcall (quote bastype) "aux3" (quote t) (quote nil) (om-make-point 570 206) (om-make-point 26 30) 2 "2" nil))) (when (fboundp (quote set-active)) (set-active box nil)) box) (let ((box (om-load-boxcall (quote bastype) "aux2" (quote t) (quote nil) (om-make-point 531 207) (om-make-point 26 30) 0 "0" nil))) (when (fboundp (quote set-active)) (set-active box nil)) box) (let ((box (om-load-boxcall (quote genfun) "OM-RANDOM" (quote om-random) (quote ((om-load-inputfun (quote input-funbox) "min" "LOW" 0) (om-load-inputfun (quote input-funbox) "max" "HIGH" 0))) (om-make-point 521 259) nil nil nil nil 1))) (when (fboundp (quote set-active)) (set-active box nil)) box) (let ((box (om-load-boxcall (quote bastype) "aux1" (quote t) (quote nil) (om-make-point 590 425) (om-make-point 26 30) 3 "3" nil))) (when (fboundp (quote set-active)) (set-active box nil)) box) (let ((box (om-load-boxcall (quote bastype) "aux1" (quote t) (quote nil) (om-make-point 844 431) (om-make-point 26 30) 5 "5" nil))) (when (fboundp (quote set-active)) (set-active box nil)) box) (let ((box (om-load-boxcomment "comment" (om-make-point 423 63) (quote "Criteria of reducibility") "" (om-make-point 275 11) nil (om-make-color 5/17 41/255 143/255) (om-make-font "Geneva" 36 :family "Geneva" :style (quote (:plain)) :mode (quote nil))))) (when (fboundp (quote set-active)) (set-active box nil)) box) (let ((box (om-load-boxcomment "comment" (om-make-point 266 82) (quote "Any sequence of period a prime number p and taking values in Z/pZ is reducible") "" (om-make-point 117 116) nil (om-make-color 5/17 41/255 143/255) (om-make-font "Geneva" 18 :family "Geneva" :style (quote (:plain)) :mode (quote nil))))) (when (fboundp (quote set-active)) (set-active box nil)) box) (let ((box (om-load-boxcomment "comment" (om-make-point 262 58) (quote "Any sequence of period p^n and taking values in Z/pZ is reducible") "" (om-make-point 569 92) nil (om-make-color 5/17 41/255 143/255) (om-make-font "Geneva" 18 :family "Geneva" :style (quote (:plain)) :mode (quote nil))))) (when (fboundp (quote set-active)) (set-active box nil)) box) (let ((box (om-load-boxcall (quote bastype) "aux" (quote t) (quote nil) (om-make-point 818 334) (om-make-point 32 30) 25 "25" nil))) (when (fboundp (quote set-active)) (set-active box nil)) box) (let ((box (om-load-boxcall (quote lispfun) "LENGTH" (quote length) (quote ((om-load-inputfun (quote input-funbox) "SEQUENCE" "SEQUENCE" nil))) (om-make-point 801 541) nil nil nil nil 1))) (when (fboundp (quote set-active)) (set-active box nil)) box) (let ((box (om-load-boxcall (quote genfun) "REPEAT-N" (quote repeat-n) (quote ((om-load-inputfun (quote input-funbox) "patch" "SELF" nil) (om-load-inputfun (quote input-funbox) "times" "NUM" 0))) (om-make-point 786 364) nil nil nil nil 1))) (when (fboundp (quote set-active)) (set-active box nil)) box) (let ((box (om-load-boxcall (quote bastype) "aux3" (quote t) (quote nil) (om-make-point 816 206) (om-make-point 26 30) 4 "4" nil))) (when (fboundp (quote set-active)) (set-active box nil)) box) (let ((box (om-load-boxcall (quote bastype) "aux2" (quote t) (quote nil) (om-make-point 782 207) (om-make-point 26 30) 0 "0" nil))) (when (fboundp (quote set-active)) (set-active box nil)) box) (let ((box (om-load-boxcall (quote genfun) "OM-RANDOM" (quote om-random) (quote ((om-load-inputfun (quote input-funbox) "min" "LOW" 0) (om-load-inputfun (quote input-funbox) "max" "HIGH" 0))) (om-make-point 772 251) nil nil nil nil 1))) (when (fboundp (quote set-active)) (set-active box nil)) box) (let ((box (om-load-boxcall (quote lispfun) "LENGTH" (quote length) (quote ((om-load-inputfun (quote input-funbox) "SEQUENCE" "SEQUENCE" nil))) (om-make-point 221 538) nil nil nil nil 1))) (when (fboundp (quote set-active)) (set-active box nil)) box) (let ((box (om-load-boxcall (quote genfun) "REPEAT-N" (quote repeat-n) (quote ((om-load-inputfun (quote input-funbox) "patch" "SELF" nil) (om-load-inputfun (quote input-funbox) "times" "NUM" 0))) (om-make-point 169 395) nil nil nil nil 1))) (when (fboundp (quote set-active)) (set-active box nil)) box) (let ((box (om-load-boxcall (quote bastype) "aux3" (quote t) (quote nil) (om-make-point 241 229) (om-make-point 32 30) 19 "19" nil))) (when (fboundp (quote set-active)) (set-active box nil)) box) (let ((box (om-load-boxcall (quote bastype) "aux2" (quote t) (quote nil) (om-make-point 165 227) (om-make-point 26 30) 1 "1" nil))) (when (fboundp (quote set-active)) (set-active box nil)) box) (let ((box (om-load-boxcall (quote genfun) "OM-RANDOM" (quote om-random) (quote ((om-load-inputfun (quote input-funbox) "min" "LOW" 0) (om-load-inputfun (quote input-funbox) "max" "HIGH" 0))) (om-make-point 155 264) nil nil nil nil 1))) (when (fboundp (quote set-active)) (set-active box nil)) box))) (quote ((18 0 0 0 nil 0) (7 0 1 0 nil 0) (23 0 2 0 nil 0) (19 0 3 0 nil 0) (13 0 3 1 nil 0) (8 0 4 0 nil 0) (12 0 4 1 nil 0) (24 0 5 0 nil 0) (25 0 5 1 nil 0) (4 0 7 0 nil 0) (11 0 8 0 nil 0) (6 0 8 1 nil 0) (10 0 11 0 nil 0) (9 0 11 1 nil 0) (3 0 18 0 nil 0) (22 0 19 0 nil 0) (17 0 19 1 nil 0) (21 0 22 0 nil 0) (20 0 22 1 nil 0) (5 0 23 0 nil 0) (27 0 24 0 nil 0) (25 0 24 1 nil 0) (26 0 27 0 nil 0) (25 0 27 1 nil 0))) nil 6.2))
