; OM File Header - Saved 2021/07/12 1:42:19
; (6.2 :patc (om-make-point 337 15) (om-make-point 0 0) (om-make-point 1049 676) "non documentation" 183 0 nil "2021/07/11 20:22:18")
; End File Header
(in-package :om)(load-lib-for (quote nil))(setf *om-current-persistent* (om-load-patch1 "04-Rep-criteria" (quote ((let ((box (om-load-boxcall (quote genfun) "SUITE-REPRODUCTIBLE1" (quote suite-reproductible) (quote ((om-load-inputfun (quote input-funbox) "no documentation" "LIST" nil) (om-load-inputfun (quote input-funbox) "no documentation" "N" 7))) (om-make-point 219 225) nil nil nil nil 1))) (when (fboundp (quote set-active)) (set-active box nil)) box) (let ((box (om-load-boxcall (quote genfun) "PERMUT-RANDOM" (quote permut-random) (quote ((om-load-inputfun (quote input-funbox) "the list" "LIST" nil))) (om-make-point 677 151) nil nil nil nil 1))) (when (fboundp (quote set-active)) (set-active box nil)) box) (let ((box (om-load-boxcall (quote bastype) "aux" (quote t) (quote nil) (om-make-point 660 111) (om-make-point 121 30) (list 1 2 3 4 5 6 7 8 9 10) "(1 2 3 4 5 6 7 8 9 10)" nil))) (when (fboundp (quote set-active)) (set-active box nil)) box) (let ((box (om-load-boxcall (quote lispfun) "SUITE-REPRODUCTIBLE" (quote suite-reproductible) (quote ((om-load-inputfun (quote input-funbox) "LIST" "LIST" nil) (om-load-inputfun (quote input-funbox) "N" "N" 11))) (om-make-point 684 221) nil nil nil nil 1))) (when (fboundp (quote set-active)) (set-active box nil)) box) (let ((box (om-load-editor-box1 "N-CERCLE" (quote n-cercle) (quote ((om-load-inputfun (quote input-funbox) "objs" "SELF" nil) (om-load-inputfun (quote input-funbox) "no documentation" "N" 24) (om-load-inputfun (quote input-funbox) "no documentation" "PUNTOS" (list 0 5 7)))) (om-make-point 630 285) (om-make-point 185 96) (if (find-class (quote n-cercle) nil) (make-instance (quote n-cercle) :n 24 :puntos (list (list 10 1 5 8 7 4 3 6 9 2) (list 2 4 3 10 8 10 3 3 4 8) (list 2 10 7 9 2 4 0 1 4 5) (list 8 8 2 4 2 7 1 3 1 8) (list 0 5 2 9 5 5 2 9 7 0) (list 5 8 7 7 0 8 7 9 4 0) (list 3 10 0 4 8 10 2 6 7 5) (list 7 1 4 4 2 3 4 1 9 9) (list 5 3 0 9 1 1 8 8 0 9) (list 9 8 9 3 0 7 0 3 9 7) (list 10 1 5 8 7 4 3 6 9 2)) :from-file t)) nil nil (pairlis (quote (deltapict outport inport zoom palette-mode obj-mode cmnpref notechancolor? grillestep mode winsize winpos show-stems)) (list (om-make-point 0 0) 0 0 1 0 0 (let ((newobj (make-instance (quote edition-values)))) (setf (paper-size newobj) (om-make-point 600 800)) (setf (top-margin newobj) 2) (setf (left-margin newobj) 1) (setf (right-margin newobj) 1) (setf (bottom-margin newobj) 1) (setf (orientation newobj) nil) (setf (scale newobj) nil) (setf (system-space newobj) (quote (1))) (setf (system-color newobj) (quote nil)) (setf (line-space newobj) 1) (setf (title newobj) nil) (setf (show-title? newobj) nil) (setf (show-page? newobj) nil) (setf (sheet-id newobj) nil) (setf (page-mode newobj) nil) newobj) nil 1000 0 18350450 2621450 (quote t))) t nil nil nil))) (when (fboundp (quote set-active)) (set-active box nil)) box) (let ((box (om-load-boxcall (quote genfun) "C2CHORD-SEQ" (quote c2chord-seq) (quote ((om-load-inputfun (quote input-funbox) "the cercle" "SELF" nil) (om-load-inputfun (quote input-funbox) "initial value" "BASE" 6000) (om-load-inputfun (quote input-funbox) "approx" "APPROX" 100))) (om-make-point 713 422) nil nil nil nil 1))) (when (fboundp (quote set-active)) (set-active box nil)) box) (let ((box (om-load-editor-box1 "CHORD-SEQ" (quote chord-seq) (quote ((om-load-inputfun (quote input-funbox) "objs" "SELF" nil) (om-load-inputfun (quote input-funbox) "no documentation" "LMIDIC" (list 6000)) (om-load-inputfun (quote input-funbox) "no documentation" "LONSET" (list 0 1000)) (om-load-inputfun (quote input-funbox) "no documentation" "LDUR" (list 1000)) (om-load-inputfun (quote input-funbox) "no documentation" "LVEL" (list 100)) (om-load-inputfun (quote input-funbox) "no documentation" "LOFFSET" (list 0)) (om-load-inputfun (quote input-funbox) "no documentation" "LCHAN" (list 1)) (om-load-inputfun (quote input-funbox) "no documentation" "LEGATO" 0))) (om-make-point 603 512) (om-make-point 275 105) (let ((newobj (when (find-class (quote chord-seq) nil) (make-instance (quote chord-seq) :lmidic (quote ((6500 6050 6250 6400 6350 6200 6150 6300 6450 6100) (6100 6200 6150 6500 6400 6500 6150 6150 6200 6400) (6100 6500 6350 6450 6100 6200 6000 6050 6200 6250) (6400 6400 6100 6200 6100 6350 6050 6150 6050 6400) (6000 6250 6100 6450 6250 6250 6100 6450 6350 6000) (6250 6400 6350 6350 6000 6400 6350 6450 6200 6000) (6150 6500 6000 6200 6400 6500 6100 6300 6350 6250) (6350 6050 6200 6200 6100 6150 6200 6050 6450 6450) (6250 6150 6000 6450 6050 6050 6400 6400 6000 6450) (6450 6400 6450 6150 6000 6350 6000 6150 6450 6350) (6500 6050 6250 6400 6350 6200 6150 6300 6450 6100))) :lonset (quote (0 1000 2000 3000 4000 5000 6000 7000 8000 9000 10000 11000)) :ldur (quote ((1000 1000 1000 1000 1000 1000 1000 1000 1000 1000) (1000 1000 1000 1000 1000 1000 1000 1000 1000 1000) (1000 1000 1000 1000 1000 1000 1000 1000 1000 1000) (1000 1000 1000 1000 1000 1000 1000 1000 1000 1000) (1000 1000 1000 1000 1000 1000 1000 1000 1000 1000) (1000 1000 1000 1000 1000 1000 1000 1000 1000 1000) (1000 1000 1000 1000 1000 1000 1000 1000 1000 1000) (1000 1000 1000 1000 1000 1000 1000 1000 1000 1000) (1000 1000 1000 1000 1000 1000 1000 1000 1000 1000) (1000 1000 1000 1000 1000 1000 1000 1000 1000 1000) (1000 1000 1000 1000 1000 1000 1000 1000 1000 1000))) :lvel (quote ((100 100 100 100 100 100 100 100 100 100) (100 100 100 100 100 100 100 100 100 100) (100 100 100 100 100 100 100 100 100 100) (100 100 100 100 100 100 100 100 100 100) (100 100 100 100 100 100 100 100 100 100) (100 100 100 100 100 100 100 100 100 100) (100 100 100 100 100 100 100 100 100 100) (100 100 100 100 100 100 100 100 100 100) (100 100 100 100 100 100 100 100 100 100) (100 100 100 100 100 100 100 100 100 100) (100 100 100 100 100 100 100 100 100 100))) :loffset (quote ((0 0 0 0 0 0 0 0 0 0) (0 0 0 0 0 0 0 0 0 0) (0 0 0 0 0 0 0 0 0 0) (0 0 0 0 0 0 0 0 0 0) (0 0 0 0 0 0 0 0 0 0) (0 0 0 0 0 0 0 0 0 0) (0 0 0 0 0 0 0 0 0 0) (0 0 0 0 0 0 0 0 0 0) (0 0 0 0 0 0 0 0 0 0) (0 0 0 0 0 0 0 0 0 0) (0 0 0 0 0 0 0 0 0 0))) :lchan (quote ((1 1 1 1 1 1 1 1 1 1) (1 1 1 1 1 1 1 1 1 1) (1 1 1 1 1 1 1 1 1 1) (1 1 1 1 1 1 1 1 1 1) (1 1 1 1 1 1 1 1 1 1) (1 1 1 1 1 1 1 1 1 1) (1 1 1 1 1 1 1 1 1 1) (1 1 1 1 1 1 1 1 1 1) (1 1 1 1 1 1 1 1 1 1) (1 1 1 1 1 1 1 1 1 1) (1 1 1 1 1 1 1 1 1 1))) :legato 0)))) (load-port-info newobj (quote ((0 0 0 0 0 0 0 0 0 0) (0 0 0 0 0 0 0 0 0 0) (0 0 0 0 0 0 0 0 0 0) (0 0 0 0 0 0 0 0 0 0) (0 0 0 0 0 0 0 0 0 0) (0 0 0 0 0 0 0 0 0 0) (0 0 0 0 0 0 0 0 0 0) (0 0 0 0 0 0 0 0 0 0) (0 0 0 0 0 0 0 0 0 0) (0 0 0 0 0 0 0 0 0 0) (0 0 0 0 0 0 0 0 0 0)))) (init-mus-color newobj (quote nil)) (set-extra-pairs newobj (quote nil)) (set-patch-pairs newobj (quote nil)) (set-name newobj nil) (set-tonalite newobj nil) newobj) nil nil (pairlis (quote (player scale show-stems obj-mode palette-mode winpos winsize mode grillestep notechancolor? zoom inport outport deltapict cmnpref staff fontsize approx)) (list (quote :midi-player) nil (quote t) 0 0 2621450 18350450 0 1000 nil 1 0 0 (om-make-point 0 0) (let ((newobj (make-instance (quote edition-values)))) (setf (paper-size newobj) (om-make-point 600 800)) (setf (top-margin newobj) 2) (setf (left-margin newobj) 1) (setf (right-margin newobj) 1) (setf (bottom-margin newobj) 1) (setf (orientation newobj) nil) (setf (scale newobj) nil) (setf (system-space newobj) (quote (1))) (setf (system-color newobj) (quote nil)) (setf (line-space newobj) 1) (setf (title newobj) nil) (setf (show-title? newobj) nil) (setf (show-page? newobj) nil) (setf (sheet-id newobj) nil) (setf (page-mode newobj) nil) newobj) (quote g) 24 4)) t nil nil nil))) (when (fboundp (quote set-active)) (set-active box nil)) box) (let ((box (om-load-boxcall (quote bastype) "aux4" (quote t) (quote nil) (om-make-point 785 384) (om-make-point 32 30) 50 "50" nil))) (when (fboundp (quote set-active)) (set-active box nil)) box) (let ((box (om-load-boxcall (quote bastype) "aux4" (quote t) (quote nil) (om-make-point 301 411) (om-make-point 38 30) 100 "100" nil))) (when (fboundp (quote set-active)) (set-active box nil)) box) (let ((box (om-load-editor-box1 "CHORD-SEQ" (quote chord-seq) (quote ((om-load-inputfun (quote input-funbox) "objs" "SELF" nil) (om-load-inputfun (quote input-funbox) "no documentation" "LMIDIC" (list 6000)) (om-load-inputfun (quote input-funbox) "no documentation" "LONSET" (list 0 1000)) (om-load-inputfun (quote input-funbox) "no documentation" "LDUR" (list 1000)) (om-load-inputfun (quote input-funbox) "no documentation" "LVEL" (list 100)) (om-load-inputfun (quote input-funbox) "no documentation" "LOFFSET" (list 0)) (om-load-inputfun (quote input-funbox) "no documentation" "LCHAN" (list 1)) (om-load-inputfun (quote input-funbox) "no documentation" "LEGATO" 0))) (om-make-point 44 515) (om-make-point 456 97) (let ((newobj (when (find-class (quote chord-seq) nil) (make-instance (quote chord-seq) :lmidic (quote ((6400 6600 6500 6100 6200 6300) (6200 6600 6300 6100 6100 6100) (6400 6400 6500 6000 6000 6100) (6000 6100 6200 6000 6100 6300) (6100 6100 6500 6100 6200 6400) (6000 6400 6300 6100 6200 6400) (6400 6600 6500 6100 6200 6300))) :lonset (quote (0 1000 2000 3000 4000 5000 6000 7000)) :ldur (quote ((1000 1000 1000 1000 1000 1000) (1000 1000 1000 1000 1000 1000) (1000 1000 1000 1000 1000 1000) (1000 1000 1000 1000 1000 1000) (1000 1000 1000 1000 1000 1000) (1000 1000 1000 1000 1000 1000) (1000 1000 1000 1000 1000 1000))) :lvel (quote ((100 100 100 100 100 100) (100 100 100 100 100 100) (100 100 100 100 100 100) (100 100 100 100 100 100) (100 100 100 100 100 100) (100 100 100 100 100 100) (100 100 100 100 100 100))) :loffset (quote ((0 0 0 0 0 0) (0 0 0 0 0 0) (0 0 0 0 0 0) (0 0 0 0 0 0) (0 0 0 0 0 0) (0 0 0 0 0 0) (0 0 0 0 0 0))) :lchan (quote ((1 1 1 1 1 1) (1 1 1 1 1 1) (1 1 1 1 1 1) (1 1 1 1 1 1) (1 1 1 1 1 1) (1 1 1 1 1 1) (1 1 1 1 1 1))) :legato 0)))) (load-port-info newobj (quote ((0 0 0 0 0 0) (0 0 0 0 0 0) (0 0 0 0 0 0) (0 0 0 0 0 0) (0 0 0 0 0 0) (0 0 0 0 0 0) (0 0 0 0 0 0)))) (init-mus-color newobj (quote nil)) (set-extra-pairs newobj (quote nil)) (set-patch-pairs newobj (quote nil)) (set-name newobj nil) (set-tonalite newobj nil) newobj) nil nil (pairlis (quote (player scale show-stems obj-mode palette-mode winpos winsize mode grillestep notechancolor? zoom inport outport deltapict cmnpref staff fontsize approx)) (list (quote :midi-player) nil (quote t) 0 0 2621450 18350450 0 1000 nil 1 0 0 (om-make-point 0 0) (let ((newobj (make-instance (quote edition-values)))) (setf (paper-size newobj) (om-make-point 600 800)) (setf (top-margin newobj) 2) (setf (left-margin newobj) 1) (setf (right-margin newobj) 1) (setf (bottom-margin newobj) 1) (setf (orientation newobj) nil) (setf (scale newobj) nil) (setf (system-space newobj) (quote (1))) (setf (system-color newobj) (quote nil)) (setf (line-space newobj) 1) (setf (title newobj) nil) (setf (show-title? newobj) nil) (setf (show-page? newobj) nil) (setf (sheet-id newobj) nil) (setf (page-mode newobj) nil) newobj) (quote g) 24 4)) t nil nil nil))) (when (fboundp (quote set-active)) (set-active box nil)) box) (let ((box (om-load-boxcall (quote genfun) "C2CHORD-SEQ" (quote c2chord-seq) (quote ((om-load-inputfun (quote input-funbox) "the cercle" "SELF" nil) (om-load-inputfun (quote input-funbox) "initial value" "BASE" 6000) (om-load-inputfun (quote input-funbox) "approx" "APPROX" 100))) (om-make-point 237 448) nil nil nil nil 1))) (when (fboundp (quote set-active)) (set-active box nil)) box) (let ((box (om-load-editor-box1 "N-CERCLE" (quote n-cercle) (quote ((om-load-inputfun (quote input-funbox) "objs" "SELF" nil) (om-load-inputfun (quote input-funbox) "no documentation" "N" 12) (om-load-inputfun (quote input-funbox) "no documentation" "PUNTOS" (list 0 5 7)))) (om-make-point 154 311) (om-make-point 185 96) (if (find-class (quote n-cercle) nil) (make-instance (quote n-cercle) :n 12 :puntos (list (list 4 6 5 1 2 3) (list 2 6 3 1 1 1) (list 4 4 5 0 0 1) (list 0 1 2 0 1 3) (list 1 1 5 1 2 4) (list 0 4 3 1 2 4) (list 4 6 5 1 2 3)) :from-file t)) nil nil (pairlis (quote (deltapict outport inport zoom palette-mode obj-mode cmnpref notechancolor? grillestep mode winsize winpos show-stems)) (list (om-make-point 0 0) 0 0 1 0 0 (let ((newobj (make-instance (quote edition-values)))) (setf (paper-size newobj) (om-make-point 600 800)) (setf (top-margin newobj) 2) (setf (left-margin newobj) 1) (setf (right-margin newobj) 1) (setf (bottom-margin newobj) 1) (setf (orientation newobj) nil) (setf (scale newobj) nil) (setf (system-space newobj) (quote (1))) (setf (system-color newobj) (quote nil)) (setf (line-space newobj) 1) (setf (title newobj) nil) (setf (show-title? newobj) nil) (setf (show-page? newobj) nil) (setf (sheet-id newobj) nil) (setf (page-mode newobj) nil) newobj) nil 1000 0 18350450 2621450 (quote t))) t nil nil nil))) (when (fboundp (quote set-active)) (set-active box nil)) box) (let ((box (om-load-boxcomment "comment" (om-make-point 498 59) (quote "Criteria of reproducibility") "" (om-make-point 251 6) nil (om-make-color 5/17 41/255 143/255) (om-make-font "Geneva" 36 :family "Geneva" :style (quote (:plain)) :mode (quote nil))))) (when (fboundp (quote set-active)) (set-active box nil)) box) (let ((box (om-load-boxcomment "comment" (om-make-point 908 42) (quote "Any sequence of p-1 different elements (p is a prime number) taking values in Z/pZ is reproducible") "" (om-make-point 41 59) nil (om-make-color 5/17 41/255 143/255) (om-make-font "Geneva" 18 :family "Geneva" :style (quote (:plain)) :mode (quote nil))))) (when (fboundp (quote set-active)) (set-active box nil)) box) (let ((box (om-load-boxcall (quote bastype) "aux" (quote t) (quote nil) (om-make-point 215 115) (om-make-point 79 30) (list 1 2 3 4 5 6) "(1 2 3 4 5 6)" nil))) (when (fboundp (quote set-active)) (set-active box nil)) box) (let ((box (om-load-boxcall (quote genfun) "PERMUT-RANDOM" (quote permut-random) (quote ((om-load-inputfun (quote input-funbox) "the list" "LIST" nil))) (om-make-point 212 159) nil nil nil nil 1))) (when (fboundp (quote set-active)) (set-active box nil)) box))) (quote ((15 0 0 0 nil 0) (2 0 1 0 nil 0) (1 0 3 0 nil 0) (3 0 4 2 nil 0) (4 0 5 0 nil 0) (7 0 5 2 nil 0) (5 0 6 0 nil 0) (10 0 9 0 nil 0) (11 0 10 0 nil 0) (8 0 10 2 nil 0) (0 0 11 2 nil 0) (14 0 15 0 nil 0))) nil 6.2))
