; OM File Header - Saved 2021/07/12 1:42:18
; (6.2 :patc (om-make-point 23 74) (om-make-point 0 0) (om-make-point 1155 898) "non documentation" 183 0 nil "2021/07/11 20:22:18")
; End File Header
(in-package :om)(load-lib-for (quote nil))(setf *om-current-persistent* (om-load-patch1 "05-decomposition" (quote ((let ((box (om-load-editor-box1 "TEXT-BOX 4" (quote text-box) (quote ((om-load-inputfun (quote input-funbox) "dialog-item text (string)" "text" "untitled"))) (om-make-point 27 460) (om-make-point 79 40) (om-make-dialog-item (quote text-box) (om-make-point 1 1) (om-make-point 51 21) "6" :font (om-make-font "Liberation Sans" 11.0D0 :family "Liberation Sans" :style (quote (:plain)) :mode (quote nil))) nil nil (pairlis (quote (winsize winpos)) (list (om-make-point 335 275) (om-make-point 10 40))) nil nil nil nil))) (when (fboundp (quote set-active)) (set-active box nil)) box) (let ((box (om-load-editor-box1 "TEXT-BOX 3" (quote text-box) (quote ((om-load-inputfun (quote input-funbox) "dialog-item text (string)" "text" "untitled"))) (om-make-point 242 392) (om-make-point 79 40) (om-make-dialog-item (quote text-box) (om-make-point 1 1) (om-make-point 51 21) "13" :font (om-make-font "Liberation Sans" 11.0D0 :family "Liberation Sans" :style (quote (:plain)) :mode (quote nil))) nil nil (pairlis (quote (winsize winpos)) (list (om-make-point 335 275) (om-make-point 10 40))) nil nil nil nil))) (when (fboundp (quote set-active)) (set-active box nil)) box) (let ((box (om-load-boxcall (quote lispfun) "SECOND" (quote second) (quote ((om-load-inputfun (quote input-funbox) "LIST" "LIST" nil))) (om-make-point 350 198) nil nil nil nil 1))) (when (fboundp (quote set-active)) (set-active box nil)) box) (let ((box (om-load-editor-box1 "TEXT-BOX 2" (quote text-box) (quote ((om-load-inputfun (quote input-funbox) "dialog-item text (string)" "text" "untitled"))) (om-make-point 288 287) (om-make-point 165 42) (om-make-dialog-item (quote text-box) (om-make-point 1 1) (om-make-point 137 22) "(4 0 2 2 6 10 10 6 2 2 0 4)" :font (om-make-font "Liberation Sans" 11.0D0 :family "Liberation Sans" :style (quote (:plain)) :mode (quote nil))) nil nil (pairlis (quote (winsize winpos)) (list (om-make-point 335 275) (om-make-point 10 40))) nil nil nil nil))) (when (fboundp (quote set-active)) (set-active box nil)) box) (let ((box (om-load-boxcall (quote lispfun) "FIRST" (quote first) (quote ((om-load-inputfun (quote input-funbox) "LIST" "LIST" nil))) (om-make-point 88 199) nil nil nil nil 1))) (when (fboundp (quote set-active)) (set-active box nil)) box) (let ((box (om-load-editor-box1 "TEXT-BOX 2" (quote text-box) (quote ((om-load-inputfun (quote input-funbox) "dialog-item text (string)" "text" "untitled"))) (om-make-point 17 289) (om-make-point 165 42) (om-make-dialog-item (quote text-box) (om-make-point 1 1) (om-make-point 137 22) "(1 4 10 7 1 4 10 7 1 4 10 7)" :font (om-make-font "Liberation Sans" 11.0D0 :family "Liberation Sans" :style (quote (:plain)) :mode (quote nil))) nil nil (pairlis (quote (winsize winpos)) (list (om-make-point 335 275) (om-make-point 10 40))) nil nil nil nil))) (when (fboundp (quote set-active)) (set-active box nil)) box) (let ((box (om-load-editor-box1 "TEXT-VIEW" (quote text-view) (quote ((om-load-inputfun (quote input-funbox) "dialog-item text (string)" "text" "untitled"))) (om-make-point 843 307) (om-make-point 138 64) (let ((rep (om-make-dialog-item (quote text-view) (om-make-point 1 1) (om-make-point 114 44) "untitled"))) (om-set-dialog-item-text rep "(0 0 0 0 0 0 0 0 0)
(2 5 3 7 5 5 6 8 9)
") rep) nil nil (pairlis (quote (winsize winpos)) (list (om-make-point 335 275) (om-make-point 10 40))) nil nil nil nil))) (when (fboundp (quote set-active)) (set-active box nil)) box) (let ((box (om-load-editor-box1 "TEXT-BOX" (quote text-box) (quote ((om-load-inputfun (quote input-funbox) "dialog-item text (string)" "text" "untitled"))) (om-make-point 1001 358) (om-make-point 79 40) (om-make-dialog-item (quote text-box) (om-make-point 1 1) (om-make-point 51 20) "15625" :font (om-make-font "Liberation Sans" 11.0D0 :family "Liberation Sans" :style (quote (:plain)) :mode (quote nil))) nil nil (pairlis (quote (winsize winpos)) (list (om-make-point 335 275) (om-make-point 10 40))) nil nil nil nil))) (when (fboundp (quote set-active)) (set-active box nil)) box) (let ((box (om-load-boxcall (quote genfun) "SUITE-REDUCTIBLE1" (quote suite-reductible) (quote ((om-load-inputfun (quote input-funbox) "no documentation" "LIST" nil) (om-load-inputfun (quote input-funbox) "no documentation" "N" 12))) (om-make-point 70 341) nil nil nil nil 1))) (when (fboundp (quote set-active)) (set-active box nil)) box) (let ((box (om-load-boxcall (quote genfun) "SUITE-REPRODUCTIBLE1" (quote suite-reproductible) (quote ((om-load-inputfun (quote input-funbox) "no documentation" "LIST" nil) (om-load-inputfun (quote input-funbox) "no documentation" "N" 12))) (om-make-point 336 337) nil nil nil nil 1))) (when (fboundp (quote set-active)) (set-active box nil)) box) (let ((box (om-load-boxcall (quote genfun) "SUITE-REPRODUCTIBLE1" (quote suite-reproductible) (quote ((om-load-inputfun (quote input-funbox) "no documentation" "LIST" nil) (om-load-inputfun (quote input-funbox) "no documentation" "N" nil))) (om-make-point 997 226) nil nil nil nil 1))) (when (fboundp (quote set-active)) (set-active box nil)) box) (let ((box (om-load-boxcall (quote genfun) "SUITE-DECOMPOSITION1" (quote suite-decomposition) (quote ((om-load-inputfun (quote input-funbox) "no documentation" "SUITE" nil) (om-load-inputfun (quote input-funbox) "no documentation" "N" nil))) (om-make-point 862 227) nil nil nil nil 1))) (when (fboundp (quote set-active)) (set-active box nil)) box) (let ((box (om-load-boxcall (quote genfun) "SUITE-DECOMPOSITION1" (quote suite-decomposition) (quote ((om-load-inputfun (quote input-funbox) "no documentation" "SUITE" nil) (om-load-inputfun (quote input-funbox) "no documentation" "N" nil))) (om-make-point 164 121) nil nil nil nil 1))) (when (fboundp (quote set-active)) (set-active box nil)) box) (let ((box (om-load-boxcall (quote lispfun) "LENGTH1" (quote length) (quote ((om-load-inputfun (quote input-funbox) "SEQUENCE" "SEQUENCE" nil))) (om-make-point 1025 302) nil nil nil nil 1))) (when (fboundp (quote set-active)) (set-active box nil)) box) (let ((box (om-load-boxcall (quote bastype) "aux8" (quote t) (quote nil) (om-make-point 1047 190) (om-make-point 32 30) 10 "10" nil))) (when (fboundp (quote set-active)) (set-active box nil)) box) (let ((box (om-load-boxcall (quote bastype) "aux7" (quote t) (quote nil) (om-make-point 918 191) (om-make-point 32 30) 10 "10" nil))) (when (fboundp (quote set-active)) (set-active box nil)) box) (let ((box (om-load-boxcall (quote bastype) "aux4" (quote t) (quote nil) (om-make-point 913 96) (om-make-point 106 30) (list 2 5 3 7 5 5 6 8 9) "(2 5 3 7 5 5 6 8 9)" nil))) (when (fboundp (quote set-active)) (set-active box nil)) box) (let ((box (om-load-boxcomment "comment1" (om-make-point 53 29) (quote "Rep") "" (om-make-point 525 667) nil (om-make-color 5/17 41/255 143/255) (om-make-font "Geneva" 18 :family "Geneva" :style (quote (:plain)) :mode (quote nil))))) (when (fboundp (quote set-active)) (set-active box nil)) box) (let ((box (om-load-boxcomment "comment1" (om-make-point 53 29) (quote "Red") "" (om-make-point 527 621) nil (om-make-color 56/255 27/85 56/255) (om-make-font "Geneva" 18 :family "Geneva" :style (quote (:plain)) :mode (quote nil))))) (when (fboundp (quote set-active)) (set-active box nil)) box) (let ((box (om-load-editor-box1 "MULTI-SEQ1" (quote multi-seq) (quote ((om-load-inputfun (quote input-funbox) "objs" "SELF" nil) (om-load-inputfun (quote input-funbox) "no documentation" "CHORD-SEQS" (list (let ((newobj (when (find-class (quote chord-seq) nil) (make-instance (quote chord-seq) :lmidic (quote ((6000))) :lonset (quote (0 1000)) :ldur (quote ((1000))) :lvel (quote ((100))) :loffset (quote ((0))) :lchan (quote ((1))) :legato 0)))) (load-port-info newobj (quote ((0)))) (init-mus-color newobj (quote nil)) (set-extra-pairs newobj (quote nil)) (set-patch-pairs newobj (quote nil)) (set-name newobj nil) (set-tonalite newobj nil) newobj))))) (om-make-point 245 427) (om-make-point 254 408) (if (find-class (quote multi-seq) nil) (let ((newobj (make-instance (quote multi-seq) :chord-seqs (list (let ((newobj (when (find-class (quote chord-seq) nil) (make-instance (quote chord-seq) :lmidic (quote ((6400) (6000) (6200) (6200) (6600) (7000) (7000) (6600) (6200) (6200) (6000) (6400))) :lonset (quote (0 1000 2000 3000 4000 5000 6000 7000 8000 9000 10000 11000 12000)) :ldur (quote ((1000) (1000) (1000) (1000) (1000) (1000) (1000) (1000) (1000) (1000) (1000) (1000))) :lvel (quote ((100) (100) (100) (100) (100) (100) (100) (100) (100) (100) (100) (100))) :loffset (quote ((0) (0) (0) (0) (0) (0) (0) (0) (0) (0) (0) (0))) :lchan (quote ((1) (1) (1) (1) (1) (1) (1) (1) (1) (1) (1) (1))) :legato 0)))) (load-port-info newobj (quote ((0) (0) (0) (0) (0) (0) (0) (0) (0) (0) (0) (0)))) (init-mus-color newobj (quote nil)) (set-extra-pairs newobj (quote nil)) (set-patch-pairs newobj (quote nil)) (set-name newobj nil) (set-tonalite newobj nil) newobj) (let ((newobj (when (find-class (quote chord-seq) nil) (make-instance (quote chord-seq) :lmidic (quote ((6800) (6200) (6000) (6400) (6400) (6000) (6800) (6800) (6000) (7000) (6400) (6000))) :lonset (quote (0 1000 2000 3000 4000 5000 6000 7000 8000 9000 10000 11000 12000)) :ldur (quote ((1000) (1000) (1000) (1000) (1000) (1000) (1000) (1000) (1000) (1000) (1000) (1000))) :lvel (quote ((100) (100) (100) (100) (100) (100) (100) (100) (100) (100) (100) (100))) :loffset (quote ((0) (0) (0) (0) (0) (0) (0) (0) (0) (0) (0) (0))) :lchan (quote ((1) (1) (1) (1) (1) (1) (1) (1) (1) (1) (1) (1))) :legato 0)))) (load-port-info newobj (quote ((0) (0) (0) (0) (0) (0) (0) (0) (0) (0) (0) (0)))) (init-mus-color newobj (quote nil)) (set-extra-pairs newobj (quote nil)) (set-patch-pairs newobj (quote nil)) (set-name newobj nil) (set-tonalite newobj nil) newobj) (let ((newobj (when (find-class (quote chord-seq) nil) (make-instance (quote chord-seq) :lmidic (quote ((6600) (7000) (6400) (6000) (6800) (6800) (6000) (6400) (7000) (6600) (6800) (6800))) :lonset (quote (0 1000 2000 3000 4000 5000 6000 7000 8000 9000 10000 11000 12000)) :ldur (quote ((1000) (1000) (1000) (1000) (1000) (1000) (1000) (1000) (1000) (1000) (1000) (1000))) :lvel (quote ((100) (100) (100) (100) (100) (100) (100) (100) (100) (100) (100) (100))) :loffset (quote ((0) (0) (0) (0) (0) (0) (0) (0) (0) (0) (0) (0))) :lchan (quote ((1) (1) (1) (1) (1) (1) (1) (1) (1) (1) (1) (1))) :legato 0)))) (load-port-info newobj (quote ((0) (0) (0) (0) (0) (0) (0) (0) (0) (0) (0) (0)))) (init-mus-color newobj (quote nil)) (set-extra-pairs newobj (quote nil)) (set-patch-pairs newobj (quote nil)) (set-name newobj nil) (set-tonalite newobj nil) newobj) (let ((newobj (when (find-class (quote chord-seq) nil) (make-instance (quote chord-seq) :lmidic (quote ((6400) (6600) (6800) (6800) (6000) (6400) (6400) (6600) (6800) (6200) (6000) (7000))) :lonset (quote (0 1000 2000 3000 4000 5000 6000 7000 8000 9000 10000 11000 12000)) :ldur (quote ((1000) (1000) (1000) (1000) (1000) (1000) (1000) (1000) (1000) (1000) (1000) (1000))) :lvel (quote ((100) (100) (100) (100) (100) (100) (100) (100) (100) (100) (100) (100))) :loffset (quote ((0) (0) (0) (0) (0) (0) (0) (0) (0) (0) (0) (0))) :lchan (quote ((1) (1) (1) (1) (1) (1) (1) (1) (1) (1) (1) (1))) :legato 0)))) (load-port-info newobj (quote ((0) (0) (0) (0) (0) (0) (0) (0) (0) (0) (0) (0)))) (init-mus-color newobj (quote nil)) (set-extra-pairs newobj (quote nil)) (set-patch-pairs newobj (quote nil)) (set-name newobj nil) (set-tonalite newobj nil) newobj) (let ((newobj (when (find-class (quote chord-seq) nil) (make-instance (quote chord-seq) :lmidic (quote ((6200) (6200) (6000) (6400) (6400) (6000) (6200) (6200) (6600) (7000) (7000) (6600))) :lonset (quote (0 1000 2000 3000 4000 5000 6000 7000 8000 9000 10000 11000 12000)) :ldur (quote ((1000) (1000) (1000) (1000) (1000) (1000) (1000) (1000) (1000) (1000) (1000) (1000))) :lvel (quote ((100) (100) (100) (100) (100) (100) (100) (100) (100) (100) (100) (100))) :loffset (quote ((0) (0) (0) (0) (0) (0) (0) (0) (0) (0) (0) (0))) :lchan (quote ((1) (1) (1) (1) (1) (1) (1) (1) (1) (1) (1) (1))) :legato 0)))) (load-port-info newobj (quote ((0) (0) (0) (0) (0) (0) (0) (0) (0) (0) (0) (0)))) (init-mus-color newobj (quote nil)) (set-extra-pairs newobj (quote nil)) (set-patch-pairs newobj (quote nil)) (set-name newobj nil) (set-tonalite newobj nil) newobj) (let ((newobj (when (find-class (quote chord-seq) nil) (make-instance (quote chord-seq) :lmidic (quote ((6000) (7000) (6400) (6000) (6800) (6200) (6000) (6400) (6400) (6000) (6800) (6800))) :lonset (quote (0 1000 2000 3000 4000 5000 6000 7000 8000 9000 10000 11000 12000)) :ldur (quote ((1000) (1000) (1000) (1000) (1000) (1000) (1000) (1000) (1000) (1000) (1000) (1000))) :lvel (quote ((100) (100) (100) (100) (100) (100) (100) (100) (100) (100) (100) (100))) :loffset (quote ((0) (0) (0) (0) (0) (0) (0) (0) (0) (0) (0) (0))) :lchan (quote ((1) (1) (1) (1) (1) (1) (1) (1) (1) (1) (1) (1))) :legato 0)))) (load-port-info newobj (quote ((0) (0) (0) (0) (0) (0) (0) (0) (0) (0) (0) (0)))) (init-mus-color newobj (quote nil)) (set-extra-pairs newobj (quote nil)) (set-patch-pairs newobj (quote nil)) (set-name newobj nil) (set-tonalite newobj nil) newobj) (let ((newobj (when (find-class (quote chord-seq) nil) (make-instance (quote chord-seq) :lmidic (quote ((7000) (6600) (6800) (6800) (6600) (7000) (6400) (6000) (6800) (6800) (6000) (6400))) :lonset (quote (0 1000 2000 3000 4000 5000 6000 7000 8000 9000 10000 11000 12000)) :ldur (quote ((1000) (1000) (1000) (1000) (1000) (1000) (1000) (1000) (1000) (1000) (1000) (1000))) :lvel (quote ((100) (100) (100) (100) (100) (100) (100) (100) (100) (100) (100) (100))) :loffset (quote ((0) (0) (0) (0) (0) (0) (0) (0) (0) (0) (0) (0))) :lchan (quote ((1) (1) (1) (1) (1) (1) (1) (1) (1) (1) (1) (1))) :legato 0)))) (load-port-info newobj (quote ((0) (0) (0) (0) (0) (0) (0) (0) (0) (0) (0) (0)))) (init-mus-color newobj (quote nil)) (set-extra-pairs newobj (quote nil)) (set-patch-pairs newobj (quote nil)) (set-name newobj nil) (set-tonalite newobj nil) newobj) (let ((newobj (when (find-class (quote chord-seq) nil) (make-instance (quote chord-seq) :lmidic (quote ((6800) (6200) (6000) (7000) (6400) (6600) (6800) (6800) (6000) (6400) (6400) (6600))) :lonset (quote (0 1000 2000 3000 4000 5000 6000 7000 8000 9000 10000 11000 12000)) :ldur (quote ((1000) (1000) (1000) (1000) (1000) (1000) (1000) (1000) (1000) (1000) (1000) (1000))) :lvel (quote ((100) (100) (100) (100) (100) (100) (100) (100) (100) (100) (100) (100))) :loffset (quote ((0) (0) (0) (0) (0) (0) (0) (0) (0) (0) (0) (0))) :lchan (quote ((1) (1) (1) (1) (1) (1) (1) (1) (1) (1) (1) (1))) :legato 0)))) (load-port-info newobj (quote ((0) (0) (0) (0) (0) (0) (0) (0) (0) (0) (0) (0)))) (init-mus-color newobj (quote nil)) (set-extra-pairs newobj (quote nil)) (set-patch-pairs newobj (quote nil)) (set-name newobj nil) (set-tonalite newobj nil) newobj) (let ((newobj (when (find-class (quote chord-seq) nil) (make-instance (quote chord-seq) :lmidic (quote ((6600) (7000) (7000) (6600) (6200) (6200) (6000) (6400) (6400) (6000) (6200) (6200))) :lonset (quote (0 1000 2000 3000 4000 5000 6000 7000 8000 9000 10000 11000 12000)) :ldur (quote ((1000) (1000) (1000) (1000) (1000) (1000) (1000) (1000) (1000) (1000) (1000) (1000))) :lvel (quote ((100) (100) (100) (100) (100) (100) (100) (100) (100) (100) (100) (100))) :loffset (quote ((0) (0) (0) (0) (0) (0) (0) (0) (0) (0) (0) (0))) :lchan (quote ((1) (1) (1) (1) (1) (1) (1) (1) (1) (1) (1) (1))) :legato 0)))) (load-port-info newobj (quote ((0) (0) (0) (0) (0) (0) (0) (0) (0) (0) (0) (0)))) (init-mus-color newobj (quote nil)) (set-extra-pairs newobj (quote nil)) (set-patch-pairs newobj (quote nil)) (set-name newobj nil) (set-tonalite newobj nil) newobj) (let ((newobj (when (find-class (quote chord-seq) nil) (make-instance (quote chord-seq) :lmidic (quote ((6400) (6000) (6800) (6800) (6000) (7000) (6400) (6000) (6800) (6200) (6000) (6400))) :lonset (quote (0 1000 2000 3000 4000 5000 6000 7000 8000 9000 10000 11000 12000)) :ldur (quote ((1000) (1000) (1000) (1000) (1000) (1000) (1000) (1000) (1000) (1000) (1000) (1000))) :lvel (quote ((100) (100) (100) (100) (100) (100) (100) (100) (100) (100) (100) (100))) :loffset (quote ((0) (0) (0) (0) (0) (0) (0) (0) (0) (0) (0) (0))) :lchan (quote ((1) (1) (1) (1) (1) (1) (1) (1) (1) (1) (1) (1))) :legato 0)))) (load-port-info newobj (quote ((0) (0) (0) (0) (0) (0) (0) (0) (0) (0) (0) (0)))) (init-mus-color newobj (quote nil)) (set-extra-pairs newobj (quote nil)) (set-patch-pairs newobj (quote nil)) (set-name newobj nil) (set-tonalite newobj nil) newobj) (let ((newobj (when (find-class (quote chord-seq) nil) (make-instance (quote chord-seq) :lmidic (quote ((6800) (6800) (6000) (6400) (7000) (6600) (6800) (6800) (6600) (7000) (6400) (6000))) :lonset (quote (0 1000 2000 3000 4000 5000 6000 7000 8000 9000 10000 11000 12000)) :ldur (quote ((1000) (1000) (1000) (1000) (1000) (1000) (1000) (1000) (1000) (1000) (1000) (1000))) :lvel (quote ((100) (100) (100) (100) (100) (100) (100) (100) (100) (100) (100) (100))) :loffset (quote ((0) (0) (0) (0) (0) (0) (0) (0) (0) (0) (0) (0))) :lchan (quote ((1) (1) (1) (1) (1) (1) (1) (1) (1) (1) (1) (1))) :legato 0)))) (load-port-info newobj (quote ((0) (0) (0) (0) (0) (0) (0) (0) (0) (0) (0) (0)))) (init-mus-color newobj (quote nil)) (set-extra-pairs newobj (quote nil)) (set-patch-pairs newobj (quote nil)) (set-name newobj nil) (set-tonalite newobj nil) newobj) (let ((newobj (when (find-class (quote chord-seq) nil) (make-instance (quote chord-seq) :lmidic (quote ((6000) (6400) (6400) (6600) (6800) (6200) (6000) (7000) (6400) (6600) (6800) (6800))) :lonset (quote (0 1000 2000 3000 4000 5000 6000 7000 8000 9000 10000 11000 12000)) :ldur (quote ((1000) (1000) (1000) (1000) (1000) (1000) (1000) (1000) (1000) (1000) (1000) (1000))) :lvel (quote ((100) (100) (100) (100) (100) (100) (100) (100) (100) (100) (100) (100))) :loffset (quote ((0) (0) (0) (0) (0) (0) (0) (0) (0) (0) (0) (0))) :lchan (quote ((1) (1) (1) (1) (1) (1) (1) (1) (1) (1) (1) (1))) :legato 0)))) (load-port-info newobj (quote ((0) (0) (0) (0) (0) (0) (0) (0) (0) (0) (0) (0)))) (init-mus-color newobj (quote nil)) (set-extra-pairs newobj (quote nil)) (set-patch-pairs newobj (quote nil)) (set-name newobj nil) (set-tonalite newobj nil) newobj) (let ((newobj (when (find-class (quote chord-seq) nil) (make-instance (quote chord-seq) :lmidic (quote ((6400) (6000) (6200) (6200) (6600) (7000) (7000) (6600) (6200) (6200) (6000) (6400))) :lonset (quote (0 1000 2000 3000 4000 5000 6000 7000 8000 9000 10000 11000 12000)) :ldur (quote ((1000) (1000) (1000) (1000) (1000) (1000) (1000) (1000) (1000) (1000) (1000) (1000))) :lvel (quote ((100) (100) (100) (100) (100) (100) (100) (100) (100) (100) (100) (100))) :loffset (quote ((0) (0) (0) (0) (0) (0) (0) (0) (0) (0) (0) (0))) :lchan (quote ((1) (1) (1) (1) (1) (1) (1) (1) (1) (1) (1) (1))) :legato 0)))) (load-port-info newobj (quote ((0) (0) (0) (0) (0) (0) (0) (0) (0) (0) (0) (0)))) (init-mus-color newobj (quote nil)) (set-extra-pairs newobj (quote nil)) (set-patch-pairs newobj (quote nil)) (set-name newobj nil) (set-tonalite newobj nil) newobj)) :from-file t))) (load-port-info newobj (quote (((0) (0) (0) (0) (0) (0) (0) (0) (0) (0) (0) (0)) ((0) (0) (0) (0) (0) (0) (0) (0) (0) (0) (0) (0)) ((0) (0) (0) (0) (0) (0) (0) (0) (0) (0) (0) (0)) ((0) (0) (0) (0) (0) (0) (0) (0) (0) (0) (0) (0)) ((0) (0) (0) (0) (0) (0) (0) (0) (0) (0) (0) (0)) ((0) (0) (0) (0) (0) (0) (0) (0) (0) (0) (0) (0)) ((0) (0) (0) (0) (0) (0) (0) (0) (0) (0) (0) (0)) ((0) (0) (0) (0) (0) (0) (0) (0) (0) (0) (0) (0)) ((0) (0) (0) (0) (0) (0) (0) (0) (0) (0) (0) (0)) ((0) (0) (0) (0) (0) (0) (0) (0) (0) (0) (0) (0)) ((0) (0) (0) (0) (0) (0) (0) (0) (0) (0) (0) (0)) ((0) (0) (0) (0) (0) (0) (0) (0) (0) (0) (0) (0)) ((0) (0) (0) (0) (0) (0) (0) (0) (0) (0) (0) (0))))) (init-mus-color newobj (quote nil)) (set-extra-pairs newobj (quote nil)) (set-patch-pairs newobj (quote ((nil (om-load-patch-abs1 "patch" (quote nil) (quote nil) 6.2 nil "" (om-make-point 200 200) (om-make-point 400 500)))))) (set-name newobj nil) (set-tonalite newobj nil) newobj)) nil nil (pairlis (quote (scale show-stems approx fontsize staff cmnpref deltapict outport inport zoom notechancolor? grillestep mode winsize winpos palette-mode obj-mode)) (list nil (quote t) 2 10 (list (quote g) (quote g) (quote g) (quote g) (quote g) (quote g) (quote g) (quote g) (quote g) (quote g) (quote g) (quote g) (quote g)) (let ((newobj (make-instance (quote edition-values)))) (setf (paper-size newobj) (om-make-point 600 800)) (setf (top-margin newobj) 2) (setf (left-margin newobj) 1) (setf (right-margin newobj) 1) (setf (bottom-margin newobj) 1) (setf (orientation newobj) nil) (setf (scale newobj) nil) (setf (system-space newobj) (quote (1 1 1 1 1 1 1 1 1 1 1 1 1))) (setf (system-color newobj) (quote nil)) (setf (line-space newobj) 1) (setf (title newobj) nil) (setf (show-title? newobj) nil) (setf (show-page? newobj) nil) (setf (sheet-id newobj) nil) (setf (page-mode newobj) nil) newobj) (om-make-point 0 0) 1 1 1 nil 1000 0 18350450 2621450 0 2)) t nil nil nil))) (when (fboundp (quote set-active)) (set-active box nil)) box) (let ((box (om-load-boxwithed1 (quote box-with-win) "OMLOOP" (quote omloop) (quote ((om-load-inputfun (quote input-funbox) "no documentation" "input0" nil))) (om-make-point 464 363) nil nil nil (list (let ((box (om-load-editor-box1 "CHORD-SEQ" (quote chord-seq) (quote ((om-load-inputfun (quote input-funbox) "objs" "SELF" nil) (om-load-inputfun (quote input-funbox) "no documentation" "LMIDIC" (list 6000)) (om-load-inputfun (quote input-funbox) "no documentation" "LONSET" (list 0 1000)) (om-load-inputfun (quote input-funbox) "no documentation" "LDUR" (list 1000)) (om-load-inputfun (quote input-funbox) "no documentation" "LVEL" (list 100)) (om-load-inputfun (quote input-funbox) "no documentation" "LOFFSET" (list 0)) (om-load-inputfun (quote input-funbox) "no documentation" "LCHAN" (list 1)) (om-load-inputfun (quote input-funbox) "no documentation" "LEGATO" 0))) (om-make-point 249 155) (om-make-point 130 65) (let ((newobj (when (find-class (quote chord-seq) nil) (make-instance (quote chord-seq) :lmidic (quote ((6000))) :lonset (quote (0 1000)) :ldur (quote ((1000))) :lvel (quote ((100))) :loffset (quote ((0))) :lchan (quote ((1))) :legato 0)))) (load-port-info newobj (quote ((0)))) (init-mus-color newobj (quote nil)) (set-extra-pairs newobj (quote nil)) (set-patch-pairs newobj (quote nil)) (set-name newobj nil) (set-tonalite newobj nil) newobj) nil nil (pairlis (quote (scale show-stems obj-mode palette-mode winpos winsize mode grillestep notechancolor? zoom inport outport deltapict cmnpref staff fontsize approx)) (list nil (quote t) 0 0 2621450 18350450 0 1000 nil 1 0 0 (om-make-point 0 0) (let ((newobj (make-instance (quote edition-values)))) (setf (paper-size newobj) (om-make-point 600 800)) (setf (top-margin newobj) 2) (setf (left-margin newobj) 1) (setf (right-margin newobj) 1) (setf (bottom-margin newobj) 1) (setf (orientation newobj) nil) (setf (scale newobj) nil) (setf (system-space newobj) (quote (1))) (setf (system-color newobj) (quote nil)) (setf (line-space newobj) 1) (setf (title newobj) nil) (setf (show-title? newobj) nil) (setf (show-page? newobj) nil) (setf (sheet-id newobj) nil) (setf (page-mode newobj) nil) newobj) (quote g) 24 2)) nil nil nil nil))) (when (fboundp (quote set-active)) (set-active box nil)) box) (let ((box (om-load-boxcall (quote genfun) "collect" (quote listing) (quote ((om-load-inputfun (quote input-funbox) "no documentation" "WHAT?" nil))) (om-make-point 197 230) nil nil nil nil 3))) (when (fboundp (quote set-active)) (set-active box nil)) box) (let ((box (om-load-boxcall (quote genfun) "OM+" (quote om+) (quote ((om-load-inputfun (quote input-funbox) "first input" "SELF" 0) (om-load-inputfun (quote input-funbox) "second input" "NUM" 6000))) (om-make-point 217 117) nil nil nil nil 1))) (when (fboundp (quote set-active)) (set-active box nil)) box) (let ((box (om-load-boxcall (quote genfun) "OM*" (quote om*) (quote ((om-load-inputfun (quote input-funbox) "first input" "SELF" 0) (om-load-inputfun (quote input-funbox) "second input" "NUM" 100))) (om-make-point 137 203) (om-make-point 20 35) nil nil nil 1))) (when (fboundp (quote set-active)) (set-active box nil)) box) (let ((box (om-load-boxcall (quote genfun) "inlist" (quote listloop) (quote ((om-load-inputfun (quote input-funbox) "list to iterate" "LIST" nil))) (om-make-point 121 121) nil nil nil nil 1))) (when (fboundp (quote set-active)) (set-active box nil)) box) (let ((box (om-load-boxin "input0" 0 (om-make-point 125 47) "no documentation" nil nil nil))) (when (fboundp (quote set-active)) (set-active box nil)) box) (let ((box (om-load-seqbox "finally" (quote finaldo) (quote ((om-load-inputfun (quote input-funbox) "patch" "PATCH" nil))) (om-make-point 380 312) nil nil nil 0))) (when (fboundp (quote set-active)) (set-active box nil)) box) (let ((box (om-load-seqbox "eachTime" (quote loopdo) (quote ((om-load-inputfun (quote input-funbox) "patch" "PATCH" nil))) (om-make-point 80 301) nil nil nil 0))) (when (fboundp (quote set-active)) (set-active box nil)) box)) (quote ((2 0 0 1 nil 0) (0 0 1 0 nil 0) (3 0 2 0 nil 0) (4 0 3 0 nil 0) (5 0 4 0 nil 0) (1 1 6 0 nil 0) (1 0 7 0 nil 0))) 1 "omloop" nil))) (when (fboundp (quote set-active)) (set-active box nil)) box) (let ((box (om-load-boxwithed1 (quote box-with-win) "OMLOOP" (quote omloop) (quote ((om-load-inputfun (quote input-funbox) "no documentation" "input0" nil))) (om-make-point 140 437) nil nil nil (list (let ((box (om-load-editor-box1 "CHORD-SEQ" (quote chord-seq) (quote ((om-load-inputfun (quote input-funbox) "objs" "SELF" nil) (om-load-inputfun (quote input-funbox) "no documentation" "LMIDIC" (list 6000)) (om-load-inputfun (quote input-funbox) "no documentation" "LONSET" (list 0 1000)) (om-load-inputfun (quote input-funbox) "no documentation" "LDUR" (list 1000)) (om-load-inputfun (quote input-funbox) "no documentation" "LVEL" (list 100)) (om-load-inputfun (quote input-funbox) "no documentation" "LOFFSET" (list 0)) (om-load-inputfun (quote input-funbox) "no documentation" "LCHAN" (list 1)) (om-load-inputfun (quote input-funbox) "no documentation" "LEGATO" 0))) (om-make-point 249 155) (om-make-point 130 65) (let ((newobj (when (find-class (quote chord-seq) nil) (make-instance (quote chord-seq) :lmidic (quote ((6000))) :lonset (quote (0 1000)) :ldur (quote ((1000))) :lvel (quote ((100))) :loffset (quote ((0))) :lchan (quote ((1))) :legato 0)))) (load-port-info newobj (quote ((0)))) (init-mus-color newobj (quote nil)) (set-extra-pairs newobj (quote nil)) (set-patch-pairs newobj (quote nil)) (set-name newobj nil) (set-tonalite newobj nil) newobj) nil nil (pairlis (quote (scale show-stems obj-mode palette-mode winpos winsize mode grillestep notechancolor? zoom inport outport deltapict cmnpref staff fontsize approx)) (list nil (quote t) 0 0 2621450 18350450 0 1000 nil 1 0 0 (om-make-point 0 0) (let ((newobj (make-instance (quote edition-values)))) (setf (paper-size newobj) (om-make-point 600 800)) (setf (top-margin newobj) 2) (setf (left-margin newobj) 1) (setf (right-margin newobj) 1) (setf (bottom-margin newobj) 1) (setf (orientation newobj) nil) (setf (scale newobj) nil) (setf (system-space newobj) (quote (1))) (setf (system-color newobj) (quote nil)) (setf (line-space newobj) 1) (setf (title newobj) nil) (setf (show-title? newobj) nil) (setf (show-page? newobj) nil) (setf (sheet-id newobj) nil) (setf (page-mode newobj) nil) newobj) (quote g) 24 2)) nil nil nil nil))) (when (fboundp (quote set-active)) (set-active box nil)) box) (let ((box (om-load-boxcall (quote genfun) "collect" (quote listing) (quote ((om-load-inputfun (quote input-funbox) "no documentation" "WHAT?" nil))) (om-make-point 197 230) nil nil nil nil 3))) (when (fboundp (quote set-active)) (set-active box nil)) box) (let ((box (om-load-boxcall (quote genfun) "OM+" (quote om+) (quote ((om-load-inputfun (quote input-funbox) "first input" "SELF" 0) (om-load-inputfun (quote input-funbox) "second input" "NUM" 6000))) (om-make-point 217 117) nil nil nil nil 1))) (when (fboundp (quote set-active)) (set-active box nil)) box) (let ((box (om-load-boxcall (quote genfun) "OM*" (quote om*) (quote ((om-load-inputfun (quote input-funbox) "first input" "SELF" 0) (om-load-inputfun (quote input-funbox) "second input" "NUM" 100))) (om-make-point 137 203) (om-make-point 20 35) nil nil nil 1))) (when (fboundp (quote set-active)) (set-active box nil)) box) (let ((box (om-load-boxcall (quote genfun) "inlist" (quote listloop) (quote ((om-load-inputfun (quote input-funbox) "list to iterate" "LIST" nil))) (om-make-point 121 121) nil nil nil nil 1))) (when (fboundp (quote set-active)) (set-active box nil)) box) (let ((box (om-load-boxin "input0" 0 (om-make-point 125 47) "no documentation" nil nil nil))) (when (fboundp (quote set-active)) (set-active box nil)) box) (let ((box (om-load-seqbox "finally" (quote finaldo) (quote ((om-load-inputfun (quote input-funbox) "patch" "PATCH" nil))) (om-make-point 380 312) nil nil nil 0))) (when (fboundp (quote set-active)) (set-active box nil)) box) (let ((box (om-load-seqbox "eachTime" (quote loopdo) (quote ((om-load-inputfun (quote input-funbox) "patch" "PATCH" nil))) (om-make-point 80 301) nil nil nil 0))) (when (fboundp (quote set-active)) (set-active box nil)) box)) (quote ((2 0 0 1 nil 0) (0 0 1 0 nil 0) (3 0 2 0 nil 0) (4 0 3 0 nil 0) (5 0 4 0 nil 0) (1 1 6 0 nil 0) (1 0 7 0 nil 0))) 1 "omloop" nil))) (when (fboundp (quote set-active)) (set-active box nil)) box) (let ((box (om-load-editor-box1 "MULTI-SEQ1" (quote multi-seq) (quote ((om-load-inputfun (quote input-funbox) "objs" "SELF" nil) (om-load-inputfun (quote input-funbox) "no documentation" "CHORD-SEQS" (list (let ((newobj (when (find-class (quote chord-seq) nil) (make-instance (quote chord-seq) :lmidic (quote ((6000))) :lonset (quote (0 1000)) :ldur (quote ((1000))) :lvel (quote ((100))) :loffset (quote ((0))) :lchan (quote ((1))) :legato 0)))) (load-port-info newobj (quote ((0)))) (init-mus-color newobj (quote nil)) (set-extra-pairs newobj (quote nil)) (set-patch-pairs newobj (quote nil)) (set-name newobj nil) (set-tonalite newobj nil) newobj))))) (om-make-point 9 528) (om-make-point 224 294) (if (find-class (quote multi-seq) nil) (let ((newobj (make-instance (quote multi-seq) :chord-seqs (list (let ((newobj (when (find-class (quote chord-seq) nil) (make-instance (quote chord-seq) :lmidic (quote ((6100) (6400) (7000) (6700) (6100) (6400) (7000) (6700) (6100) (6400) (7000) (6700))) :lonset (quote (0 1000 2000 3000 4000 5000 6000 7000 8000 9000 10000 11000 12000)) :ldur (quote ((1000) (1000) (1000) (1000) (1000) (1000) (1000) (1000) (1000) (1000) (1000) (1000))) :lvel (quote ((100) (100) (100) (100) (100) (100) (100) (100) (100) (100) (100) (100))) :loffset (quote ((0) (0) (0) (0) (0) (0) (0) (0) (0) (0) (0) (0))) :lchan (quote ((1) (1) (1) (1) (1) (1) (1) (1) (1) (1) (1) (1))) :legato 0)))) (load-port-info newobj (quote ((0) (0) (0) (0) (0) (0) (0) (0) (0) (0) (0) (0)))) (init-mus-color newobj (quote nil)) (set-extra-pairs newobj (quote nil)) (set-patch-pairs newobj (quote nil)) (set-name newobj nil) (set-tonalite newobj nil) newobj) (let ((newobj (when (find-class (quote chord-seq) nil) (make-instance (quote chord-seq) :lmidic (quote ((6300) (6600) (6900) (6600) (6300) (6600) (6900) (6600) (6300) (6600) (6900) (6600))) :lonset (quote (0 1000 2000 3000 4000 5000 6000 7000 8000 9000 10000 11000 12000)) :ldur (quote ((1000) (1000) (1000) (1000) (1000) (1000) (1000) (1000) (1000) (1000) (1000) (1000))) :lvel (quote ((100) (100) (100) (100) (100) (100) (100) (100) (100) (100) (100) (100))) :loffset (quote ((0) (0) (0) (0) (0) (0) (0) (0) (0) (0) (0) (0))) :lchan (quote ((1) (1) (1) (1) (1) (1) (1) (1) (1) (1) (1) (1))) :legato 0)))) (load-port-info newobj (quote ((0) (0) (0) (0) (0) (0) (0) (0) (0) (0) (0) (0)))) (init-mus-color newobj (quote nil)) (set-extra-pairs newobj (quote nil)) (set-patch-pairs newobj (quote nil)) (set-name newobj nil) (set-tonalite newobj nil) newobj) (let ((newobj (when (find-class (quote chord-seq) nil) (make-instance (quote chord-seq) :lmidic (quote ((6300) (6300) (6900) (6900) (6300) (6300) (6900) (6900) (6300) (6300) (6900) (6900))) :lonset (quote (0 1000 2000 3000 4000 5000 6000 7000 8000 9000 10000 11000 12000)) :ldur (quote ((1000) (1000) (1000) (1000) (1000) (1000) (1000) (1000) (1000) (1000) (1000) (1000))) :lvel (quote ((100) (100) (100) (100) (100) (100) (100) (100) (100) (100) (100) (100))) :loffset (quote ((0) (0) (0) (0) (0) (0) (0) (0) (0) (0) (0) (0))) :lchan (quote ((1) (1) (1) (1) (1) (1) (1) (1) (1) (1) (1) (1))) :legato 0)))) (load-port-info newobj (quote ((0) (0) (0) (0) (0) (0) (0) (0) (0) (0) (0) (0)))) (init-mus-color newobj (quote nil)) (set-extra-pairs newobj (quote nil)) (set-patch-pairs newobj (quote nil)) (set-name newobj nil) (set-tonalite newobj nil) newobj) (let ((newobj (when (find-class (quote chord-seq) nil) (make-instance (quote chord-seq) :lmidic (quote ((6000) (6600) (6000) (6600) (6000) (6600) (6000) (6600) (6000) (6600) (6000) (6600))) :lonset (quote (0 1000 2000 3000 4000 5000 6000 7000 8000 9000 10000 11000 12000)) :ldur (quote ((1000) (1000) (1000) (1000) (1000) (1000) (1000) (1000) (1000) (1000) (1000) (1000))) :lvel (quote ((100) (100) (100) (100) (100) (100) (100) (100) (100) (100) (100) (100))) :loffset (quote ((0) (0) (0) (0) (0) (0) (0) (0) (0) (0) (0) (0))) :lchan (quote ((1) (1) (1) (1) (1) (1) (1) (1) (1) (1) (1) (1))) :legato 0)))) (load-port-info newobj (quote ((0) (0) (0) (0) (0) (0) (0) (0) (0) (0) (0) (0)))) (init-mus-color newobj (quote nil)) (set-extra-pairs newobj (quote nil)) (set-patch-pairs newobj (quote nil)) (set-name newobj nil) (set-tonalite newobj nil) newobj) (let ((newobj (when (find-class (quote chord-seq) nil) (make-instance (quote chord-seq) :lmidic (quote ((6600) (6600) (6600) (6600) (6600) (6600) (6600) (6600) (6600) (6600) (6600) (6600))) :lonset (quote (0 1000 2000 3000 4000 5000 6000 7000 8000 9000 10000 11000 12000)) :ldur (quote ((1000) (1000) (1000) (1000) (1000) (1000) (1000) (1000) (1000) (1000) (1000) (1000))) :lvel (quote ((100) (100) (100) (100) (100) (100) (100) (100) (100) (100) (100) (100))) :loffset (quote ((0) (0) (0) (0) (0) (0) (0) (0) (0) (0) (0) (0))) :lchan (quote ((1) (1) (1) (1) (1) (1) (1) (1) (1) (1) (1) (1))) :legato 0)))) (load-port-info newobj (quote ((0) (0) (0) (0) (0) (0) (0) (0) (0) (0) (0) (0)))) (init-mus-color newobj (quote nil)) (set-extra-pairs newobj (quote nil)) (set-patch-pairs newobj (quote nil)) (set-name newobj nil) (set-tonalite newobj nil) newobj) (let ((newobj (when (find-class (quote chord-seq) nil) (make-instance (quote chord-seq) :lmidic (quote ((6000) (6000) (6000) (6000) (6000) (6000) (6000) (6000) (6000) (6000) (6000) (6000))) :lonset (quote (0 1000 2000 3000 4000 5000 6000 7000 8000 9000 10000 11000 12000)) :ldur (quote ((1000) (1000) (1000) (1000) (1000) (1000) (1000) (1000) (1000) (1000) (1000) (1000))) :lvel (quote ((100) (100) (100) (100) (100) (100) (100) (100) (100) (100) (100) (100))) :loffset (quote ((0) (0) (0) (0) (0) (0) (0) (0) (0) (0) (0) (0))) :lchan (quote ((1) (1) (1) (1) (1) (1) (1) (1) (1) (1) (1) (1))) :legato 0)))) (load-port-info newobj (quote ((0) (0) (0) (0) (0) (0) (0) (0) (0) (0) (0) (0)))) (init-mus-color newobj (quote nil)) (set-extra-pairs newobj (quote nil)) (set-patch-pairs newobj (quote nil)) (set-name newobj nil) (set-tonalite newobj nil) newobj)) :from-file t))) (load-port-info newobj (quote (((0) (0) (0) (0) (0) (0) (0) (0) (0) (0) (0) (0)) ((0) (0) (0) (0) (0) (0) (0) (0) (0) (0) (0) (0)) ((0) (0) (0) (0) (0) (0) (0) (0) (0) (0) (0) (0)) ((0) (0) (0) (0) (0) (0) (0) (0) (0) (0) (0) (0)) ((0) (0) (0) (0) (0) (0) (0) (0) (0) (0) (0) (0)) ((0) (0) (0) (0) (0) (0) (0) (0) (0) (0) (0) (0))))) (init-mus-color newobj (quote nil)) (set-extra-pairs newobj (quote nil)) (set-patch-pairs newobj (quote nil)) (set-name newobj nil) (set-tonalite newobj nil) newobj)) nil nil (pairlis (quote (scale show-stems approx fontsize staff cmnpref deltapict outport inport zoom notechancolor? grillestep mode winsize winpos palette-mode obj-mode)) (list nil (quote t) 2 24 (list (quote g) (quote g) (quote g) (quote g) (quote g) (quote g)) (let ((newobj (make-instance (quote edition-values)))) (setf (paper-size newobj) (om-make-point 600 800)) (setf (top-margin newobj) 2) (setf (left-margin newobj) 1) (setf (right-margin newobj) 1) (setf (bottom-margin newobj) 1) (setf (orientation newobj) nil) (setf (scale newobj) nil) (setf (system-space newobj) (quote (1 1 1 1 1 1))) (setf (system-color newobj) (quote nil)) (setf (line-space newobj) 1) (setf (title newobj) nil) (setf (show-title? newobj) nil) (setf (show-page? newobj) nil) (setf (sheet-id newobj) nil) (setf (page-mode newobj) nil) newobj) (om-make-point 0 0) 1 1 1 nil 1000 0 18350450 2621450 0 2)) t nil nil nil))) (when (fboundp (quote set-active)) (set-active box nil)) box) (let ((box (om-load-boxcomment "comment" (om-make-point 524 39) (quote "4   0    2    2   6  10   10  6   2   2    0   4") "" (om-make-point 593 663) nil (om-make-color 5/17 41/255 143/255) (om-make-font "Geneva" 24 :family "Geneva" :style (quote (:plain)) :mode (quote nil))))) (when (fboundp (quote set-active)) (set-active box nil)) box) (let ((box (om-load-boxcomment "comment" (om-make-point 511 40) (quote "1   4   10   7   1   4   10   7   1   4   10   7") "" (om-make-point 595 617) nil (om-make-color 56/255 27/85 56/255) (om-make-font "Geneva" 24 :family "Geneva" :style (quote (:plain)) :mode (quote nil))))) (when (fboundp (quote set-active)) (set-active box nil)) box) (let ((box (om-load-boxcomment "comment" (om-make-point 524 38) (quote "5   4     0   9   7   2   8   1   3   6   10   11") "" (om-make-point 595 571) nil (om-make-color 133/255 14/85 53/255) (om-make-font "Geneva" 24 :family "Geneva" :style (quote (:plain)) :mode (quote nil))))) (when (fboundp (quote set-active)) (set-active box nil)) box) (let ((box (om-load-boxcall (quote lispfun) "CAR" (quote car) (quote ((om-load-inputfun (quote input-funbox) "LIST" "LIST" nil))) (om-make-point 757 268) nil nil nil nil 1))) (when (fboundp (quote set-active)) (set-active box nil)) box) (let ((box (om-load-boxcall (quote bastype) "aux6" (quote t) (quote nil) (om-make-point 649 347) (om-make-point 44 30) 6000 "6000" nil))) (when (fboundp (quote set-active)) (set-active box nil)) box) (let ((box (om-load-boxcall (quote bastype) "aux5" (quote t) (quote nil) (om-make-point 709 287) (om-make-point 38 30) 100 "100" nil))) (when (fboundp (quote set-active)) (set-active box nil)) box) (let ((box (om-load-boxcall (quote genfun) "OM*" (quote om*) (quote ((om-load-inputfun (quote input-funbox) "first input" "SELF" 0) (om-load-inputfun (quote input-funbox) "second input" "NUM" 0))) (om-make-point 754 327) nil nil nil nil 1))) (when (fboundp (quote set-active)) (set-active box nil)) box) (let ((box (om-load-boxcall (quote genfun) "OM+" (quote om+) (quote ((om-load-inputfun (quote input-funbox) "first input" "SELF" 0) (om-load-inputfun (quote input-funbox) "second input" "NUM" 0))) (om-make-point 692 395) nil nil nil nil 1))) (when (fboundp (quote set-active)) (set-active box nil)) box) (let ((box (om-load-editor-box1 "N-CERCLE1" (quote n-cercle) (quote ((om-load-inputfun (quote input-funbox) "objs" "SELF" nil) (om-load-inputfun (quote input-funbox) "no documentation" "N" 12) (om-load-inputfun (quote input-funbox) "no documentation" "PUNTOS" (list 0 1 2 3 4 5 6 7 8 9 10 11)))) (om-make-point 637 120) (om-make-point 180 126) (if (find-class (quote n-cercle) nil) (make-instance (quote n-cercle) :n 12 :puntos (list (list 5 4 0 9 7 2 8 1 3 6 10 11)) :from-file t)) nil nil (pairlis (quote (show-stems deltapict outport inport zoom palette-mode obj-mode cmnpref notechancolor? grillestep mode winsize winpos)) (list (quote t) (om-make-point 0 0) 0 0 1 0 0 (let ((newobj (make-instance (quote edition-values)))) (setf (paper-size newobj) (om-make-point 600 800)) (setf (top-margin newobj) 2) (setf (left-margin newobj) 1) (setf (right-margin newobj) 1) (setf (bottom-margin newobj) 1) (setf (orientation newobj) nil) (setf (scale newobj) nil) (setf (system-space newobj) (quote (1))) (setf (system-color newobj) (quote nil)) (setf (line-space newobj) 1) (setf (title newobj) nil) (setf (show-title? newobj) nil) (setf (show-page? newobj) nil) (setf (sheet-id newobj) nil) (setf (page-mode newobj) nil) newobj) nil 1000 0 18350450 2621450)) t nil nil nil))) (when (fboundp (quote set-active)) (set-active box nil)) box) (let ((box (om-load-editor-box1 "CHORD-SEQ" (quote chord-seq) (quote ((om-load-inputfun (quote input-funbox) "objs" "SELF" nil) (om-load-inputfun (quote input-funbox) "no documentation" "LMIDIC" (list 6000)) (om-load-inputfun (quote input-funbox) "no documentation" "LONSET" (list 0 1000)) (om-load-inputfun (quote input-funbox) "no documentation" "LDUR" (list 1000)) (om-load-inputfun (quote input-funbox) "no documentation" "LVEL" (list 100)) (om-load-inputfun (quote input-funbox) "no documentation" "LOFFSET" (list 0)) (om-load-inputfun (quote input-funbox) "no documentation" "LCHAN" (list 1)) (om-load-inputfun (quote input-funbox) "no documentation" "LEGATO" 0))) (om-make-point 582 451) (om-make-point 531 109) (let ((newobj (when (find-class (quote chord-seq) nil) (make-instance (quote chord-seq) :lmidic (quote ((6500) (6400) (6000) (6900) (6700) (6200) (6800) (6100) (6300) (6600) (7000) (7100))) :lonset (quote (0 1000 2000 3000 4000 5000 6000 7000 8000 9000 10000 11000 12000)) :ldur (quote ((1000) (1000) (1000) (1000) (1000) (1000) (1000) (1000) (1000) (1000) (1000) (1000))) :lvel (quote ((100) (100) (100) (100) (100) (100) (100) (100) (100) (100) (100) (100))) :loffset (quote ((0) (0) (0) (0) (0) (0) (0) (0) (0) (0) (0) (0))) :lchan (quote ((1) (1) (1) (1) (1) (1) (1) (1) (1) (1) (1) (1))) :legato 0)))) (load-port-info newobj (quote ((0) (0) (0) (0) (0) (0) (0) (0) (0) (0) (0) (0)))) (init-mus-color newobj (quote nil)) (set-extra-pairs newobj (quote nil)) (set-patch-pairs newobj (quote nil)) (set-name newobj nil) (set-tonalite newobj nil) newobj) nil nil (pairlis (quote (scale show-stems obj-mode palette-mode winpos winsize mode grillestep notechancolor? zoom inport outport deltapict cmnpref staff fontsize approx)) (list nil (quote t) 0 0 2621450 18350450 0 1000 nil 1 0 0 (om-make-point 0 0) (let ((newobj (make-instance (quote edition-values)))) (setf (paper-size newobj) (om-make-point 600 800)) (setf (top-margin newobj) 2) (setf (left-margin newobj) 1) (setf (right-margin newobj) 1) (setf (bottom-margin newobj) 1) (setf (orientation newobj) nil) (setf (scale newobj) nil) (setf (system-space newobj) (quote (1))) (setf (system-color newobj) (quote nil)) (setf (line-space newobj) 1) (setf (title newobj) nil) (setf (show-title? newobj) nil) (setf (show-page? newobj) nil) (setf (sheet-id newobj) nil) (setf (page-mode newobj) nil) newobj) (quote g) 24 2)) t nil nil nil))) (when (fboundp (quote set-active)) (set-active box nil)) box) (let ((box (om-load-boxcomment "comment" (om-make-point 204 30) (quote "reducible component") "" (om-make-point 11 249) nil (om-make-color 56/255 27/85 56/255) (om-make-font "Geneva" 18 :family "Geneva" :style (quote (:plain)) :mode (quote nil))))) (when (fboundp (quote set-active)) (set-active box nil)) box) (let ((box (om-load-boxcall (quote lispfun) "LENGTH" (quote length) (quote ((om-load-inputfun (quote input-funbox) "SEQUENCE" "SEQUENCE" nil))) (om-make-point 266 346) nil nil nil nil 1))) (when (fboundp (quote set-active)) (set-active box nil)) box) (let ((box (om-load-boxcall (quote lispfun) "LENGTH" (quote length) (quote ((om-load-inputfun (quote input-funbox) "SEQUENCE" "SEQUENCE" nil))) (om-make-point 51 407) nil nil nil nil 1))) (when (fboundp (quote set-active)) (set-active box nil)) box) (let ((box (om-load-boxcomment "comment" (om-make-point 207 32) (quote "(all-interval series)") "" (om-make-point 128 51) nil (om-make-color 5/17 41/255 143/255) (om-make-font "Geneva" 18 :family "Geneva" :style (quote (:plain)) :mode (quote nil))))) (when (fboundp (quote set-active)) (set-active box nil)) box) (let ((box (om-load-boxcomment "comment" (om-make-point 745 63) (quote "Decomposition of a periodic sequence") "" (om-make-point 221 0) nil (om-make-color 5/17 41/255 143/255) (om-make-font "Geneva" 36 :family "Geneva" :style (quote (:plain)) :mode (quote nil))))) (when (fboundp (quote set-active)) (set-active box nil)) box) (let ((box (om-load-boxcomment "comment" (om-make-point 78 24) (quote "palindromic!") "" (om-make-point 467 296) nil (om-make-color 0 0 0) (om-make-font "Geneva" 10 :family "Geneva" :style (quote (:plain)) :mode (quote nil))))) (when (fboundp (quote set-active)) (set-active box nil)) box) (let ((box (om-load-boxcomment "comment" (om-make-point 91 21) (quote "Suite Lyrique") "" (om-make-point 37 85) nil (om-make-color 0 0 0) (om-make-font "Geneva" 10 :family "Geneva" :style (quote (:plain)) :mode (quote nil))))) (when (fboundp (quote set-active)) (set-active box nil)) box) (let ((box (om-load-boxcall (quote bastype) "aux1" (quote t) (quote nil) (om-make-point 282 82) (om-make-point 32 30) 12 "12" nil))) (when (fboundp (quote set-active)) (set-active box nil)) box) (let ((box (om-load-boxcall (quote bastype) "aux" (quote t) (quote nil) (om-make-point 129 84) (om-make-point 144 30) (list 5 4 0 9 7 2 8 1 3 6 10 11) "(5 4 0 9 7 2 8 1 3 6 10 11)" nil))) (when (fboundp (quote set-active)) (set-active box nil)) box))) (quote ((35 0 0 0 nil 0) (34 0 1 0 nil 0) (12 0 2 0 nil 0) (2 0 3 0 nil 0) (12 0 4 0 nil 0) (4 0 5 0 nil 0) (11 0 6 0 nil 0) (13 0 7 0 nil 0) (5 0 8 0 nil 0) (3 0 9 0 nil 0) (16 0 10 0 nil 0) (14 0 10 1 nil 0) (16 0 11 0 nil 0) (15 0 11 1 nil 0) (41 0 12 0 nil 0) (40 0 12 1 nil 0) (10 0 13 0 nil 0) (20 0 19 1 nil 0) (9 0 20 0 nil 0) (8 0 21 0 nil 0) (21 0 22 1 nil 0) (31 2 26 0 nil 0) (28 0 29 0 nil 0) (26 0 29 1 nil 0) (27 0 30 0 nil 0) (29 0 30 1 nil 0) (41 0 31 2 nil 0) (30 0 32 1 nil 0) (9 0 34 0 nil 0) (8 0 35 0 nil 0))) nil 6.2))
