; OM File Header - Saved 2017/01/10 17:34:48
; (6.04 :patc (om-make-point 25 15) (om-make-point 50 50) (om-make-point 1030 746) "non documentation" 183 0 nil "2017/01/10 17:34:48")
; End File Header
(in-package :om)(load-lib-for 'nil)(setf *om-current-persistent* (om-load-patch1 "01-Canons-0-1" '((om-load-boxcall 'genfun "TRANSP-COMB2" 'transp-comb '((om-load-inputfun 'input-funbox "no documentation" "A" nil) (om-load-inputfun 'input-funbox "no documentation" "TID" nil) (om-load-inputfun 'input-funbox "no documentation" "N" nil)) (om-make-point 51 271) nil nil nil nil 1) (om-load-boxcall 'genfun "TRANSP-COMB2" 'transp-comb '((om-load-inputfun 'input-funbox "no documentation" "A" nil) (om-load-inputfun 'input-funbox "no documentation" "TID" nil) (om-load-inputfun 'input-funbox "no documentation" "N" nil)) (om-make-point 740 265) nil nil nil nil 1) (om-load-boxcall 'genfun "POLY2CANON1" 'poly2canon '((om-load-inputfun 'input-funbox "no documentation" "POLY" nil)) (om-make-point 646 143) nil nil nil nil 1) (om-load-boxcall 'genfun "N-STRUCTURE" 'n-structure '((om-load-inputfun 'input-funbox "values" "L" (list 5 7 9)) (om-load-inputfun 'input-funbox "n" "N" 18)) (om-make-point 619 270) nil nil nil nil 1) (om-load-boxcall 'genfun "N-STRUCTURE" 'n-structure '((om-load-inputfun 'input-funbox "values" "L" (list 5 7 9)) (om-load-inputfun 'input-funbox "n" "N" 18)) (om-make-point 525 267) nil nil nil nil 1) (om-load-boxcall 'genfun "POLY2CANON1" 'poly2canon '((om-load-inputfun 'input-funbox "no documentation" "POLY" nil)) (om-make-point 517 141) nil nil nil nil 1) (om-load-boxcall 'genfun "N-STRUCTURE" 'n-structure '((om-load-inputfun 'input-funbox "values" "L" (list 5 7 9)) (om-load-inputfun 'input-funbox "n" "N" 8)) (om-make-point 278 236) nil nil nil nil 1) (om-load-boxcall 'bastype "aux2" 't 'nil (om-make-point 116 239) (om-make-point 17 20) 8 "8" nil) (om-load-boxcall 'genfun "N-STRUCTURE" 'n-structure '((om-load-inputfun 'input-funbox "values" "L" (list 5 7 9)) (om-load-inputfun 'input-funbox "n" "N" 8)) (om-make-point 150 244) nil nil nil nil 1) (om-load-boxcall 'genfun "POLY2CANON1" 'poly2canon '((om-load-inputfun 'input-funbox "no documentation" "POLY" nil)) (om-make-point 209 125) nil nil nil nil 1) (om-load-boxcall 'genfun "POLY2CANON1" 'poly2canon '((om-load-inputfun 'input-funbox "no documentation" "POLY" nil)) (om-make-point 66 125) nil nil nil "poly2canon" 1) (om-load-boxcomment "comment" (om-make-point 605 59) '"Tiling canons as 0-1 polynomials" "" (om-make-point 243 3) nil (om-make-color 16/17 41/255 94/255) (om-make-font "Geneva" 36 :family nil :style 'nil :mode nil)) (om-load-boxcall 'genfun "CANONS" 'canons '((om-load-inputfun 'input-funbox "no documentation" "R" nil) (om-load-inputfun 'input-funbox "no documentation" "S" nil) (om-load-inputfun 'input-funbox "no documentation" "TIMES" nil)) (om-make-point 613 428) nil nil nil nil 1) (om-load-boxcall 'bastype "aux3" 't 'nil (om-make-point 665 402) (om-make-point 23 20) 4 "4" nil) (om-load-editor-box1 "MULTI-SEQ" 'multi-seq '((om-load-inputfun 'input-funbox "objs" "SELF" nil) (om-load-inputfun 'input-funbox "no documentation" "CHORD-SEQS" (list (let ((newobj (when (find-class 'chord-seq nil) (make-instance 'chord-seq :lmidic '((6000)) :lonset '(0 1000) :ldur '((1000)) :lvel '((100)) :loffset '((0)) :lchan '((1)) :legato 0)))) (load-port-info newobj '((0))) (init-mus-color newobj (list (list nil (om-make-color 0 0 0)) (list (list 0) (om-make-color 0 0 0)) (list (list 0 0) (om-make-color 0 0 0)))) (set-extra-pairs newobj 'nil) (set-patch-pairs newobj 'nil) (set-tonalite newobj nil) newobj)))) (om-make-point 578 504) (om-make-point 369 164) (if (find-class 'multi-seq nil) (let ((newobj (make-instance 'multi-seq :chord-seqs (list (let ((newobj (when (find-class 'chord-seq nil) (make-instance 'chord-seq :lmidic '((6100) (6100) (6100) (6100) (6100) (6100) (6100) (6100) (6100) (6100) (6100) (6100)) :lonset '(0 500 1000 4500 5000 5500 9000 9500 10000 13500 14000 14500 18250) :ldur '((1000) (1000) (1000) (1000) (1000) (1000) (1000) (1000) (1000) (1000) (1000) (1000)) :lvel '((100) (100) (100) (100) (100) (100) (100) (100) (100) (100) (100) (100)) :loffset '((0) (0) (0) (0) (0) (0) (0) (0) (0) (0) (0) (0)) :lchan '((10) (10) (10) (10) (10) (10) (10) (10) (10) (10) (10) (10)) :legato 0)))) (load-port-info newobj '((0) (0) (0) (0) (0) (0) (0) (0) (0) (0) (0) (0))) (init-mus-color newobj nil) (set-extra-pairs newobj 'nil) (set-patch-pairs newobj 'nil) (set-tonalite newobj nil) newobj) (let ((newobj (when (find-class 'chord-seq nil) (make-instance 'chord-seq :lmidic '((6200) (6200) (6200) (6200) (6200) (6200) (6200) (6200) (6200) (6200) (6200) (6200)) :lonset '(250 750 1250 4750 5250 5750 9250 9750 10250 13750 14250 14750 18250) :ldur '((1000) (1000) (1000) (1000) (1000) (1000) (1000) (1000) (1000) (1000) (1000) (1000)) :lvel '((100) (100) (100) (100) (100) (100) (100) (100) (100) (100) (100) (100)) :loffset '((0) (0) (0) (0) (0) (0) (0) (0) (0) (0) (0) (0)) :lchan '((10) (10) (10) (10) (10) (10) (10) (10) (10) (10) (10) (10)) :legato 0)))) (load-port-info newobj '((0) (0) (0) (0) (0) (0) (0) (0) (0) (0) (0) (0))) (init-mus-color newobj nil) (set-extra-pairs newobj 'nil) (set-patch-pairs newobj 'nil) (set-tonalite newobj nil) newobj) (let ((newobj (when (find-class 'chord-seq nil) (make-instance 'chord-seq :lmidic '((6300) (6300) (6300) (6300) (6300) (6300) (6300) (6300) (6300) (6300) (6300) (6300)) :lonset '(1500 2000 2500 6000 6500 7000 10500 11000 11500 15000 15500 16000 18250) :ldur '((1000) (1000) (1000) (1000) (1000) (1000) (1000) (1000) (1000) (1000) (1000) (1000)) :lvel '((100) (100) (100) (100) (100) (100) (100) (100) (100) (100) (100) (100)) :loffset '((0) (0) (0) (0) (0) (0) (0) (0) (0) (0) (0) (0)) :lchan '((10) (10) (10) (10) (10) (10) (10) (10) (10) (10) (10) (10)) :legato 0)))) (load-port-info newobj '((0) (0) (0) (0) (0) (0) (0) (0) (0) (0) (0) (0))) (init-mus-color newobj nil) (set-extra-pairs newobj 'nil) (set-patch-pairs newobj 'nil) (set-tonalite newobj nil) newobj) (let ((newobj (when (find-class 'chord-seq nil) (make-instance 'chord-seq :lmidic '((6400) (6400) (6400) (6400) (6400) (6400) (6400) (6400) (6400) (6400) (6400) (6400)) :lonset '(1750 2250 2750 6250 6750 7250 10750 11250 11750 15250 15750 16250 18250) :ldur '((1000) (1000) (1000) (1000) (1000) (1000) (1000) (1000) (1000) (1000) (1000) (1000)) :lvel '((100) (100) (100) (100) (100) (100) (100) (100) (100) (100) (100) (100)) :loffset '((0) (0) (0) (0) (0) (0) (0) (0) (0) (0) (0) (0)) :lchan '((10) (10) (10) (10) (10) (10) (10) (10) (10) (10) (10) (10)) :legato 0)))) (load-port-info newobj '((0) (0) (0) (0) (0) (0) (0) (0) (0) (0) (0) (0))) (init-mus-color newobj nil) (set-extra-pairs newobj 'nil) (set-patch-pairs newobj 'nil) (set-tonalite newobj nil) newobj) (let ((newobj (when (find-class 'chord-seq nil) (make-instance 'chord-seq :lmidic '((6500) (6500) (6500) (6500) (6500) (6500) (6500) (6500) (6500) (6500) (6500) (6500)) :lonset '(3000 3500 4000 7500 8000 8500 12000 12500 13000 16500 17000 17500 18250) :ldur '((1000) (1000) (1000) (1000) (1000) (1000) (1000) (1000) (1000) (1000) (1000) (1000)) :lvel '((100) (100) (100) (100) (100) (100) (100) (100) (100) (100) (100) (100)) :loffset '((0) (0) (0) (0) (0) (0) (0) (0) (0) (0) (0) (0)) :lchan '((10) (10) (10) (10) (10) (10) (10) (10) (10) (10) (10) (10)) :legato 0)))) (load-port-info newobj '((0) (0) (0) (0) (0) (0) (0) (0) (0) (0) (0) (0))) (init-mus-color newobj nil) (set-extra-pairs newobj 'nil) (set-patch-pairs newobj 'nil) (set-tonalite newobj nil) newobj) (let ((newobj (when (find-class 'chord-seq nil) (make-instance 'chord-seq :lmidic '((6600) (6600) (6600) (6600) (6600) (6600) (6600) (6600) (6600) (6600) (6600) (6600)) :lonset '(3250 3750 4250 7750 8250 8750 12250 12750 13250 16750 17250 17750 18250) :ldur '((1000) (1000) (1000) (1000) (1000) (1000) (1000) (1000) (1000) (1000) (1000) (1000)) :lvel '((100) (100) (100) (100) (100) (100) (100) (100) (100) (100) (100) (100)) :loffset '((0) (0) (0) (0) (0) (0) (0) (0) (0) (0) (0) (0)) :lchan '((10) (10) (10) (10) (10) (10) (10) (10) (10) (10) (10) (10)) :legato 0)))) (load-port-info newobj '((0) (0) (0) (0) (0) (0) (0) (0) (0) (0) (0) (0))) (init-mus-color newobj nil) (set-extra-pairs newobj 'nil) (set-patch-pairs newobj 'nil) (set-tonalite newobj nil) newobj)) :from-file t))) (load-port-info newobj '(((0) (0) (0) (0) (0) (0) (0) (0) (0) (0) (0) (0)) ((0) (0) (0) (0) (0) (0) (0) (0) (0) (0) (0) (0)) ((0) (0) (0) (0) (0) (0) (0) (0) (0) (0) (0) (0)) ((0) (0) (0) (0) (0) (0) (0) (0) (0) (0) (0) (0)) ((0) (0) (0) (0) (0) (0) (0) (0) (0) (0) (0) (0)) ((0) (0) (0) (0) (0) (0) (0) (0) (0) (0) (0) (0)))) (init-mus-color newobj (list (list nil (om-make-color 0 0 0)) (list (list 0) (om-make-color 0 0 0)) (list (list 0 0) (om-make-color 0 0 0)) (list (list 0 0 0) (om-make-color 0 0 0)) (list (list 0 1) (om-make-color 0 0 0)) (list (list 0 1 0) (om-make-color 0 0 0)) (list (list 0 2) (om-make-color 0 0 0)) (list (list 0 2 0) (om-make-color 0 0 0)) (list (list 0 3) (om-make-color 0 0 0)) (list (list 0 3 0) (om-make-color 0 0 0)) (list (list 0 4) (om-make-color 0 0 0)) (list (list 0 4 0) (om-make-color 0 0 0)) (list (list 0 5) (om-make-color 0 0 0)) (list (list 0 5 0) (om-make-color 0 0 0)) (list (list 0 6) (om-make-color 0 0 0)) (list (list 0 6 0) (om-make-color 0 0 0)) (list (list 0 7) (om-make-color 0 0 0)) (list (list 0 7 0) (om-make-color 0 0 0)) (list (list 0 8) (om-make-color 0 0 0)) (list (list 0 8 0) (om-make-color 0 0 0)) (list (list 0 9) (om-make-color 0 0 0)) (list (list 0 9 0) (om-make-color 0 0 0)) (list (list 0 10) (om-make-color 0 0 0)) (list (list 0 10 0) (om-make-color 0 0 0)) (list (list 0 11) (om-make-color 0 0 0)) (list (list 0 11 0) (om-make-color 0 0 0)) (list (list 1) (om-make-color 0 0 0)) (list (list 1 0) (om-make-color 0 0 0)) (list (list 1 0 0) (om-make-color 0 0 0)) (list (list 1 1) (om-make-color 0 0 0)) (list (list 1 1 0) (om-make-color 0 0 0)) (list (list 1 2) (om-make-color 0 0 0)) (list (list 1 2 0) (om-make-color 0 0 0)) (list (list 1 3) (om-make-color 0 0 0)) (list (list 1 3 0) (om-make-color 0 0 0)) (list (list 1 4) (om-make-color 0 0 0)) (list (list 1 4 0) (om-make-color 0 0 0)) (list (list 1 5) (om-make-color 0 0 0)) (list (list 1 5 0) (om-make-color 0 0 0)) (list (list 1 6) (om-make-color 0 0 0)) (list (list 1 6 0) (om-make-color 0 0 0)) (list (list 1 7) (om-make-color 0 0 0)) (list (list 1 7 0) (om-make-color 0 0 0)) (list (list 1 8) (om-make-color 0 0 0)) (list (list 1 8 0) (om-make-color 0 0 0)) (list (list 1 9) (om-make-color 0 0 0)) (list (list 1 9 0) (om-make-color 0 0 0)) (list (list 1 10) (om-make-color 0 0 0)) (list (list 1 10 0) (om-make-color 0 0 0)) (list (list 1 11) (om-make-color 0 0 0)) (list (list 1 11 0) (om-make-color 0 0 0)) (list (list 2) (om-make-color 0 0 0)) (list (list 2 0) (om-make-color 0 0 0)) (list (list 2 0 0) (om-make-color 0 0 0)) (list (list 2 1) (om-make-color 0 0 0)) (list (list 2 1 0) (om-make-color 0 0 0)) (list (list 2 2) (om-make-color 0 0 0)) (list (list 2 2 0) (om-make-color 0 0 0)) (list (list 2 3) (om-make-color 0 0 0)) (list (list 2 3 0) (om-make-color 0 0 0)) (list (list 2 4) (om-make-color 0 0 0)) (list (list 2 4 0) (om-make-color 0 0 0)) (list (list 2 5) (om-make-color 0 0 0)) (list (list 2 5 0) (om-make-color 0 0 0)) (list (list 2 6) (om-make-color 0 0 0)) (list (list 2 6 0) (om-make-color 0 0 0)) (list (list 2 7) (om-make-color 0 0 0)) (list (list 2 7 0) (om-make-color 0 0 0)) (list (list 2 8) (om-make-color 0 0 0)) (list (list 2 8 0) (om-make-color 0 0 0)) (list (list 2 9) (om-make-color 0 0 0)) (list (list 2 9 0) (om-make-color 0 0 0)) (list (list 2 10) (om-make-color 0 0 0)) (list (list 2 10 0) (om-make-color 0 0 0)) (list (list 2 11) (om-make-color 0 0 0)) (list (list 2 11 0) (om-make-color 0 0 0)) (list (list 3) (om-make-color 0 0 0)) (list (list 3 0) (om-make-color 0 0 0)) (list (list 3 0 0) (om-make-color 0 0 0)) (list (list 3 1) (om-make-color 0 0 0)) (list (list 3 1 0) (om-make-color 0 0 0)) (list (list 3 2) (om-make-color 0 0 0)) (list (list 3 2 0) (om-make-color 0 0 0)) (list (list 3 3) (om-make-color 0 0 0)) (list (list 3 3 0) (om-make-color 0 0 0)) (list (list 3 4) (om-make-color 0 0 0)) (list (list 3 4 0) (om-make-color 0 0 0)) (list (list 3 5) (om-make-color 0 0 0)) (list (list 3 5 0) (om-make-color 0 0 0)) (list (list 3 6) (om-make-color 0 0 0)) (list (list 3 6 0) (om-make-color 0 0 0)) (list (list 3 7) (om-make-color 0 0 0)) (list (list 3 7 0) (om-make-color 0 0 0)) (list (list 3 8) (om-make-color 0 0 0)) (list (list 3 8 0) (om-make-color 0 0 0)) (list (list 3 9) (om-make-color 0 0 0)) (list (list 3 9 0) (om-make-color 0 0 0)) (list (list 3 10) (om-make-color 0 0 0)) (list (list 3 10 0) (om-make-color 0 0 0)) (list (list 3 11) (om-make-color 0 0 0)) (list (list 3 11 0) (om-make-color 0 0 0)) (list (list 4) (om-make-color 0 0 0)) (list (list 4 0) (om-make-color 0 0 0)) (list (list 4 0 0) (om-make-color 0 0 0)) (list (list 4 1) (om-make-color 0 0 0)) (list (list 4 1 0) (om-make-color 0 0 0)) (list (list 4 2) (om-make-color 0 0 0)) (list (list 4 2 0) (om-make-color 0 0 0)) (list (list 4 3) (om-make-color 0 0 0)) (list (list 4 3 0) (om-make-color 0 0 0)) (list (list 4 4) (om-make-color 0 0 0)) (list (list 4 4 0) (om-make-color 0 0 0)) (list (list 4 5) (om-make-color 0 0 0)) (list (list 4 5 0) (om-make-color 0 0 0)) (list (list 4 6) (om-make-color 0 0 0)) (list (list 4 6 0) (om-make-color 0 0 0)) (list (list 4 7) (om-make-color 0 0 0)) (list (list 4 7 0) (om-make-color 0 0 0)) (list (list 4 8) (om-make-color 0 0 0)) (list (list 4 8 0) (om-make-color 0 0 0)) (list (list 4 9) (om-make-color 0 0 0)) (list (list 4 9 0) (om-make-color 0 0 0)) (list (list 4 10) (om-make-color 0 0 0)) (list (list 4 10 0) (om-make-color 0 0 0)) (list (list 4 11) (om-make-color 0 0 0)) (list (list 4 11 0) (om-make-color 0 0 0)) (list (list 5) (om-make-color 0 0 0)) (list (list 5 0) (om-make-color 0 0 0)) (list (list 5 0 0) (om-make-color 0 0 0)) (list (list 5 1) (om-make-color 0 0 0)) (list (list 5 1 0) (om-make-color 0 0 0)) (list (list 5 2) (om-make-color 0 0 0)) (list (list 5 2 0) (om-make-color 0 0 0)) (list (list 5 3) (om-make-color 0 0 0)) (list (list 5 3 0) (om-make-color 0 0 0)) (list (list 5 4) (om-make-color 0 0 0)) (list (list 5 4 0) (om-make-color 0 0 0)) (list (list 5 5) (om-make-color 0 0 0)) (list (list 5 5 0) (om-make-color 0 0 0)) (list (list 5 6) (om-make-color 0 0 0)) (list (list 5 6 0) (om-make-color 0 0 0)) (list (list 5 7) (om-make-color 0 0 0)) (list (list 5 7 0) (om-make-color 0 0 0)) (list (list 5 8) (om-make-color 0 0 0)) (list (list 5 8 0) (om-make-color 0 0 0)) (list (list 5 9) (om-make-color 0 0 0)) (list (list 5 9 0) (om-make-color 0 0 0)) (list (list 5 10) (om-make-color 0 0 0)) (list (list 5 10 0) (om-make-color 0 0 0)) (list (list 5 11) (om-make-color 0 0 0)) (list (list 5 11 0) (om-make-color 0 0 0)))) (set-extra-pairs newobj 'nil) (set-patch-pairs newobj '((nil (om-load-patch-abs1 "patch" 'nil 'nil 5.0 nil)))) (set-tonalite newobj nil) newobj)) "x" nil (corrige (pairlis '(approx fontsize staff cmnpref deltapict outport inport zoom notechancolor? grillestep mode winsize winpos palette-mode obj-mode show-stems) (list 2 24 (list 'g 'g 'g 'g 'g 'g) (let ((newobj (make-instance 'edition-values))) (setf (paper-size newobj) (om-make-point 600 800)) (setf (top-margin newobj) 2) (setf (left-margin newobj) 1) (setf (right-margin newobj) 1) (setf (bottom-margin newobj) 1) (setf (orientation newobj) nil) (setf (scale newobj) nil) (setf (system-space newobj) '(1 1 1 1 1 1)) (setf (line-space newobj) 1) (setf (title newobj) nil) (setf (show-title? newobj) nil) (setf (show-page? newobj) nil) (setf (sheet-id newobj) nil) (setf (page-mode newobj) nil) newobj) (om-make-point 0 0) 0 0 1 nil 250 0 18350450 2621450 0 0 't))) t nil nil) (om-load-boxcall 'bastype "aux7" 't 'nil (om-make-point 790 363) (om-make-point 17 20) 18 "18" nil) (om-load-boxcall 'bastype "aux5" 't 'nil (om-make-point 818 228) (om-make-point 23 20) 18 "18" nil) (om-load-editor-box1 "N-CERCLE1" 'n-cercle '((om-load-inputfun 'input-funbox "objs" "SELF" nil) (om-load-inputfun 'input-funbox "no documentation" "N" 12) (om-load-inputfun 'input-funbox "no documentation" "PUNTOS" (list 0 5 7))) (om-make-point 807 380) (om-make-point 204 131) (if (find-class 'n-cercle nil) (make-instance 'n-cercle :n 18 :puntos (list (list 0 1 6 7 12 13) (list 2 3 8 9 14 15) (list 4 5 10 11 16 17)) :from-file t)) nil nil (corrige (pairlis '(show-stems winpos winsize mode grillestep notechancolor? cmnpref obj-mode palette-mode zoom inport outport deltapict) (list 't 2621450 18350450 0 1000 nil (let ((newobj (make-instance 'edition-values))) (setf (paper-size newobj) (om-make-point 600 800)) (setf (top-margin newobj) 2) (setf (left-margin newobj) 1) (setf (right-margin newobj) 1) (setf (bottom-margin newobj) 1) (setf (orientation newobj) nil) (setf (scale newobj) nil) (setf (system-space newobj) '(1)) (setf (line-space newobj) 1) (setf (title newobj) nil) (setf (show-title? newobj) nil) (setf (show-page? newobj) nil) (setf (sheet-id newobj) nil) (setf (page-mode newobj) nil) newobj) 0 0 1 0 0 (om-make-point 0 0)))) t nil nil) (om-load-editor-box1 "MULTI-SEQ" 'multi-seq '((om-load-inputfun 'input-funbox "objs" "SELF" nil) (om-load-inputfun 'input-funbox "no documentation" "CHORD-SEQS" (list (let ((newobj (when (find-class 'chord-seq nil) (make-instance 'chord-seq :lmidic '((6000)) :lonset '(0 1000) :ldur '((1000)) :lvel '((100)) :loffset '((0)) :lchan '((1)) :legato 0)))) (load-port-info newobj '((0))) (init-mus-color newobj (list (list nil (om-make-color 0 0 0)) (list (list 0) (om-make-color 0 0 0)) (list (list 0 0) (om-make-color 0 0 0)))) (set-extra-pairs newobj 'nil) (set-patch-pairs newobj 'nil) (set-tonalite newobj nil) newobj)))) (om-make-point 228 406) (om-make-point 270 240) (if (find-class 'multi-seq nil) (let ((newobj (make-instance 'multi-seq :chord-seqs (list (let ((newobj (when (find-class 'chord-seq nil) (make-instance 'chord-seq :lmidic '((6100) (6100) (6100) (6100) (6100) (6100) (6100) (6100) (6100) (6100) (6100) (6100) (6100) (6100) (6100) (6100)) :lonset '(0 500 2000 2500 4000 4500 6000 6500 8000 8500 10000 10500 12000 12500 14000 14500 16250) :ldur '((1000) (1000) (1000) (1000) (1000) (1000) (1000) (1000) (1000) (1000) (1000) (1000) (1000) (1000) (1000) (1000)) :lvel '((100) (100) (100) (100) (100) (100) (100) (100) (100) (100) (100) (100) (100) (100) (100) (100)) :loffset '((0) (0) (0) (0) (0) (0) (0) (0) (0) (0) (0) (0) (0) (0) (0) (0)) :lchan '((1) (1) (1) (1) (1) (1) (1) (1) (1) (1) (1) (1) (1) (1) (1) (1)) :legato 0)))) (load-port-info newobj '((0) (0) (0) (0) (0) (0) (0) (0) (0) (0) (0) (0) (0) (0) (0) (0))) (init-mus-color newobj nil) (set-extra-pairs newobj 'nil) (set-patch-pairs newobj 'nil) (set-tonalite newobj nil) newobj) (let ((newobj (when (find-class 'chord-seq nil) (make-instance 'chord-seq :lmidic '((6200) (6200) (6200) (6200) (6200) (6200) (6200) (6200) (6200) (6200) (6200) (6200) (6200) (6200) (6200) (6200)) :lonset '(250 750 2250 2750 4250 4750 6250 6750 8250 8750 10250 10750 12250 12750 14250 14750 16250) :ldur '((1000) (1000) (1000) (1000) (1000) (1000) (1000) (1000) (1000) (1000) (1000) (1000) (1000) (1000) (1000) (1000)) :lvel '((100) (100) (100) (100) (100) (100) (100) (100) (100) (100) (100) (100) (100) (100) (100) (100)) :loffset '((0) (0) (0) (0) (0) (0) (0) (0) (0) (0) (0) (0) (0) (0) (0) (0)) :lchan '((2) (2) (2) (2) (2) (2) (2) (2) (2) (2) (2) (2) (2) (2) (2) (2)) :legato 0)))) (load-port-info newobj '((0) (0) (0) (0) (0) (0) (0) (0) (0) (0) (0) (0) (0) (0) (0) (0))) (init-mus-color newobj nil) (set-extra-pairs newobj 'nil) (set-patch-pairs newobj 'nil) (set-tonalite newobj nil) newobj) (let ((newobj (when (find-class 'chord-seq nil) (make-instance 'chord-seq :lmidic '((6300) (6300) (6300) (6300) (6300) (6300) (6300) (6300) (6300) (6300) (6300) (6300) (6300) (6300) (6300) (6300)) :lonset '(1000 1500 3000 3500 5000 5500 7000 7500 9000 9500 11000 11500 13000 13500 15000 15500 16250) :ldur '((1000) (1000) (1000) (1000) (1000) (1000) (1000) (1000) (1000) (1000) (1000) (1000) (1000) (1000) (1000) (1000)) :lvel '((100) (100) (100) (100) (100) (100) (100) (100) (100) (100) (100) (100) (100) (100) (100) (100)) :loffset '((0) (0) (0) (0) (0) (0) (0) (0) (0) (0) (0) (0) (0) (0) (0) (0)) :lchan '((3) (3) (3) (3) (3) (3) (3) (3) (3) (3) (3) (3) (3) (3) (3) (3)) :legato 0)))) (load-port-info newobj '((0) (0) (0) (0) (0) (0) (0) (0) (0) (0) (0) (0) (0) (0) (0) (0))) (init-mus-color newobj nil) (set-extra-pairs newobj 'nil) (set-patch-pairs newobj 'nil) (set-tonalite newobj nil) newobj) (let ((newobj (when (find-class 'chord-seq nil) (make-instance 'chord-seq :lmidic '((6400) (6400) (6400) (6400) (6400) (6400) (6400) (6400) (6400) (6400) (6400) (6400) (6400) (6400) (6400) (6400)) :lonset '(1250 1750 3250 3750 5250 5750 7250 7750 9250 9750 11250 11750 13250 13750 15250 15750 16250) :ldur '((1000) (1000) (1000) (1000) (1000) (1000) (1000) (1000) (1000) (1000) (1000) (1000) (1000) (1000) (1000) (1000)) :lvel '((100) (100) (100) (100) (100) (100) (100) (100) (100) (100) (100) (100) (100) (100) (100) (100)) :loffset '((0) (0) (0) (0) (0) (0) (0) (0) (0) (0) (0) (0) (0) (0) (0) (0)) :lchan '((4) (4) (4) (4) (4) (4) (4) (4) (4) (4) (4) (4) (4) (4) (4) (4)) :legato 0)))) (load-port-info newobj '((0) (0) (0) (0) (0) (0) (0) (0) (0) (0) (0) (0) (0) (0) (0) (0))) (init-mus-color newobj nil) (set-extra-pairs newobj 'nil) (set-patch-pairs newobj 'nil) (set-tonalite newobj nil) newobj)) :from-file t))) (load-port-info newobj '(((0) (0) (0) (0) (0) (0) (0) (0) (0) (0) (0) (0) (0) (0) (0) (0)) ((0) (0) (0) (0) (0) (0) (0) (0) (0) (0) (0) (0) (0) (0) (0) (0)) ((0) (0) (0) (0) (0) (0) (0) (0) (0) (0) (0) (0) (0) (0) (0) (0)) ((0) (0) (0) (0) (0) (0) (0) (0) (0) (0) (0) (0) (0) (0) (0) (0)))) (init-mus-color newobj (list (list nil (om-make-color 0 0 0)) (list (list 0) (om-make-color 0 0 0)) (list (list 0 0) (om-make-color 0 0 0)) (list (list 0 0 0) (om-make-color 0 0 0)) (list (list 0 1) (om-make-color 0 0 0)) (list (list 0 1 0) (om-make-color 0 0 0)) (list (list 0 2) (om-make-color 0 0 0)) (list (list 0 2 0) (om-make-color 0 0 0)) (list (list 0 3) (om-make-color 0 0 0)) (list (list 0 3 0) (om-make-color 0 0 0)) (list (list 0 4) (om-make-color 0 0 0)) (list (list 0 4 0) (om-make-color 0 0 0)) (list (list 0 5) (om-make-color 0 0 0)) (list (list 0 5 0) (om-make-color 0 0 0)) (list (list 0 6) (om-make-color 0 0 0)) (list (list 0 6 0) (om-make-color 0 0 0)) (list (list 0 7) (om-make-color 0 0 0)) (list (list 0 7 0) (om-make-color 0 0 0)) (list (list 0 8) (om-make-color 0 0 0)) (list (list 0 8 0) (om-make-color 0 0 0)) (list (list 0 9) (om-make-color 0 0 0)) (list (list 0 9 0) (om-make-color 0 0 0)) (list (list 0 10) (om-make-color 0 0 0)) (list (list 0 10 0) (om-make-color 0 0 0)) (list (list 0 11) (om-make-color 0 0 0)) (list (list 0 11 0) (om-make-color 0 0 0)) (list (list 0 12) (om-make-color 0 0 0)) (list (list 0 12 0) (om-make-color 0 0 0)) (list (list 0 13) (om-make-color 0 0 0)) (list (list 0 13 0) (om-make-color 0 0 0)) (list (list 0 14) (om-make-color 0 0 0)) (list (list 0 14 0) (om-make-color 0 0 0)) (list (list 0 15) (om-make-color 0 0 0)) (list (list 0 15 0) (om-make-color 0 0 0)) (list (list 1) (om-make-color 0 0 0)) (list (list 1 0) (om-make-color 0 0 0)) (list (list 1 0 0) (om-make-color 0 0 0)) (list (list 1 1) (om-make-color 0 0 0)) (list (list 1 1 0) (om-make-color 0 0 0)) (list (list 1 2) (om-make-color 0 0 0)) (list (list 1 2 0) (om-make-color 0 0 0)) (list (list 1 3) (om-make-color 0 0 0)) (list (list 1 3 0) (om-make-color 0 0 0)) (list (list 1 4) (om-make-color 0 0 0)) (list (list 1 4 0) (om-make-color 0 0 0)) (list (list 1 5) (om-make-color 0 0 0)) (list (list 1 5 0) (om-make-color 0 0 0)) (list (list 1 6) (om-make-color 0 0 0)) (list (list 1 6 0) (om-make-color 0 0 0)) (list (list 1 7) (om-make-color 0 0 0)) (list (list 1 7 0) (om-make-color 0 0 0)) (list (list 1 8) (om-make-color 0 0 0)) (list (list 1 8 0) (om-make-color 0 0 0)) (list (list 1 9) (om-make-color 0 0 0)) (list (list 1 9 0) (om-make-color 0 0 0)) (list (list 1 10) (om-make-color 0 0 0)) (list (list 1 10 0) (om-make-color 0 0 0)) (list (list 1 11) (om-make-color 0 0 0)) (list (list 1 11 0) (om-make-color 0 0 0)) (list (list 1 12) (om-make-color 0 0 0)) (list (list 1 12 0) (om-make-color 0 0 0)) (list (list 1 13) (om-make-color 0 0 0)) (list (list 1 13 0) (om-make-color 0 0 0)) (list (list 1 14) (om-make-color 0 0 0)) (list (list 1 14 0) (om-make-color 0 0 0)) (list (list 1 15) (om-make-color 0 0 0)) (list (list 1 15 0) (om-make-color 0 0 0)) (list (list 2) (om-make-color 0 0 0)) (list (list 2 0) (om-make-color 0 0 0)) (list (list 2 0 0) (om-make-color 0 0 0)) (list (list 2 1) (om-make-color 0 0 0)) (list (list 2 1 0) (om-make-color 0 0 0)) (list (list 2 2) (om-make-color 0 0 0)) (list (list 2 2 0) (om-make-color 0 0 0)) (list (list 2 3) (om-make-color 0 0 0)) (list (list 2 3 0) (om-make-color 0 0 0)) (list (list 2 4) (om-make-color 0 0 0)) (list (list 2 4 0) (om-make-color 0 0 0)) (list (list 2 5) (om-make-color 0 0 0)) (list (list 2 5 0) (om-make-color 0 0 0)) (list (list 2 6) (om-make-color 0 0 0)) (list (list 2 6 0) (om-make-color 0 0 0)) (list (list 2 7) (om-make-color 0 0 0)) (list (list 2 7 0) (om-make-color 0 0 0)) (list (list 2 8) (om-make-color 0 0 0)) (list (list 2 8 0) (om-make-color 0 0 0)) (list (list 2 9) (om-make-color 0 0 0)) (list (list 2 9 0) (om-make-color 0 0 0)) (list (list 2 10) (om-make-color 0 0 0)) (list (list 2 10 0) (om-make-color 0 0 0)) (list (list 2 11) (om-make-color 0 0 0)) (list (list 2 11 0) (om-make-color 0 0 0)) (list (list 2 12) (om-make-color 0 0 0)) (list (list 2 12 0) (om-make-color 0 0 0)) (list (list 2 13) (om-make-color 0 0 0)) (list (list 2 13 0) (om-make-color 0 0 0)) (list (list 2 14) (om-make-color 0 0 0)) (list (list 2 14 0) (om-make-color 0 0 0)) (list (list 2 15) (om-make-color 0 0 0)) (list (list 2 15 0) (om-make-color 0 0 0)) (list (list 3) (om-make-color 0 0 0)) (list (list 3 0) (om-make-color 0 0 0)) (list (list 3 0 0) (om-make-color 0 0 0)) (list (list 3 1) (om-make-color 0 0 0)) (list (list 3 1 0) (om-make-color 0 0 0)) (list (list 3 2) (om-make-color 0 0 0)) (list (list 3 2 0) (om-make-color 0 0 0)) (list (list 3 3) (om-make-color 0 0 0)) (list (list 3 3 0) (om-make-color 0 0 0)) (list (list 3 4) (om-make-color 0 0 0)) (list (list 3 4 0) (om-make-color 0 0 0)) (list (list 3 5) (om-make-color 0 0 0)) (list (list 3 5 0) (om-make-color 0 0 0)) (list (list 3 6) (om-make-color 0 0 0)) (list (list 3 6 0) (om-make-color 0 0 0)) (list (list 3 7) (om-make-color 0 0 0)) (list (list 3 7 0) (om-make-color 0 0 0)) (list (list 3 8) (om-make-color 0 0 0)) (list (list 3 8 0) (om-make-color 0 0 0)) (list (list 3 9) (om-make-color 0 0 0)) (list (list 3 9 0) (om-make-color 0 0 0)) (list (list 3 10) (om-make-color 0 0 0)) (list (list 3 10 0) (om-make-color 0 0 0)) (list (list 3 11) (om-make-color 0 0 0)) (list (list 3 11 0) (om-make-color 0 0 0)) (list (list 3 12) (om-make-color 0 0 0)) (list (list 3 12 0) (om-make-color 0 0 0)) (list (list 3 13) (om-make-color 0 0 0)) (list (list 3 13 0) (om-make-color 0 0 0)) (list (list 3 14) (om-make-color 0 0 0)) (list (list 3 14 0) (om-make-color 0 0 0)) (list (list 3 15) (om-make-color 0 0 0)) (list (list 3 15 0) (om-make-color 0 0 0)))) (set-extra-pairs newobj 'nil) (set-patch-pairs newobj 'nil) (set-tonalite newobj nil) newobj)) nil nil (corrige (pairlis '(approx fontsize staff cmnpref deltapict outport inport zoom notechancolor? grillestep mode winsize winpos palette-mode obj-mode show-stems) (list 2 24 (list 'g 'g 'g 'g) (let ((newobj (make-instance 'edition-values))) (setf (paper-size newobj) (om-make-point 600 800)) (setf (top-margin newobj) 2) (setf (left-margin newobj) 1) (setf (right-margin newobj) 1) (setf (bottom-margin newobj) 1) (setf (orientation newobj) nil) (setf (scale newobj) nil) (setf (system-space newobj) '(1 1 1 1)) (setf (line-space newobj) 1) (setf (title newobj) nil) (setf (show-title? newobj) nil) (setf (show-page? newobj) nil) (setf (sheet-id newobj) nil) (setf (page-mode newobj) nil) newobj) (om-make-point 0 0) 0 0 1 nil 250 0 18350450 2621450 0 0 't))) t nil nil) (om-load-boxcall 'genfun "CANONS" 'canons '((om-load-inputfun 'input-funbox "no documentation" "R" nil) (om-load-inputfun 'input-funbox "no documentation" "S" nil) (om-load-inputfun 'input-funbox "no documentation" "TIMES" 8)) (om-make-point 237 316) nil nil nil nil 1) (om-load-boxcall 'bastype "aux" 't 'nil (om-make-point 18 92) (om-make-point 53 20) (list 1 0 1) "(1 0 1)" nil) (om-load-boxcall 'bastype "aux1" 't 'nil (om-make-point 198 88) (om-make-point 125 20) (list 1 1 0 0 1 1) "(1 1 0 0 1 1)" nil) (om-load-editor-box1 "N-CERCLE" 'n-cercle '((om-load-inputfun 'input-funbox "objs" "SELF" nil) (om-load-inputfun 'input-funbox "no documentation" "N" 8) (om-load-inputfun 'input-funbox "no documentation" "PUNTOS" (list 0 5 7))) (om-make-point 7 447) (om-make-point 157 166) (if (find-class 'n-cercle nil) (make-instance 'n-cercle :n 8 :puntos (list (list 0 1 4 5) (list 2 3 6 7)) :from-file t)) nil nil (corrige (pairlis '(show-stems winpos winsize mode grillestep notechancolor? cmnpref obj-mode palette-mode zoom inport outport deltapict) (list 't 2621450 18350450 0 1000 nil (let ((newobj (make-instance 'edition-values))) (setf (paper-size newobj) (om-make-point 600 800)) (setf (top-margin newobj) 2) (setf (left-margin newobj) 1) (setf (right-margin newobj) 1) (setf (bottom-margin newobj) 1) (setf (orientation newobj) nil) (setf (scale newobj) nil) (setf (system-space newobj) '(1)) (setf (line-space newobj) 1) (setf (title newobj) nil) (setf (show-title? newobj) nil) (setf (show-page? newobj) nil) (setf (sheet-id newobj) nil) (setf (page-mode newobj) nil) newobj) 0 0 1 0 0 (om-make-point 0 0)))) t nil nil) (om-load-boxcall 'bastype "aux1" 't 'nil (om-make-point 591 82) (om-make-point 255 20) (list 1 1 0 0 0 0 1 1 0 0 0 0 1 1) "(1 1 0 0 0 0 1 1 0 0 0 0 1 1)" nil) (om-load-boxcall 'bastype "aux" 't 'nil (om-make-point 449 88) (om-make-point 78 21) (list 1 0 1 0 1) "(1 0 1 0 1)" nil)) '((10 0 0 0 nil 0) (9 0 0 1 nil 0) (7 0 0 2 nil 0) (5 0 1 0 nil 0) (2 0 1 1 nil 0) (16 0 1 2 nil 0) (23 0 2 0 nil 0) (2 0 3 0 nil 0) (5 0 4 0 nil 0) (24 0 5 0 nil 0) (9 0 6 0 nil 0) (10 0 8 0 nil 0) (21 0 9 0 nil 0) (20 0 10 0 nil 0) (4 0 12 0 nil 0) (3 0 12 1 nil 0) (13 0 12 2 nil 0) (12 0 14 0 nil 0) (15 0 17 1 nil 0) (1 0 17 2 nil 0) (19 0 18 0 nil 0) (8 0 19 0 nil 0) (6 0 19 1 nil 0) (0 0 22 2 nil 0)) (list (let ((newpict (make-instance 'patch-picture :name '|USER-ciel|))) (setf (thepict newpict) (om-get-picture '|USER-ciel|)) (setf (name newpict) '|USER-ciel|) (setf (pict-pos newpict) (om-make-point 96 168)) (setf (pict-size newpict) (om-make-point 308 357)) newpict) (let ((newpict (make-instance 'patch-picture :name '|USER-ciel|))) (setf (thepict newpict) (om-get-picture '|USER-ciel|)) (setf (name newpict) '|USER-ciel|) (setf (pict-pos newpict) (om-make-point 559 102)) (setf (pict-size newpict) (om-make-point 484 503)) newpict)) 5.0))
