; OM File Header - Saved 2009/10/22 17:10:02
; (6.04 :patc (om-make-point 157 26) (om-make-point 125 233) (om-make-point 1084 741) "No documentation " 183 0 nil nil)
; End File Header
(in-package :om)(load-lib-for 'nil)(setf *om-current-persistent* (om-load-patch1 "02-combinat-hex" '((om-load-boxcall 'genfun "TRANSP-COMB2" 'transp-comb '((om-load-inputfun 'input-funbox "no documentation" "A" nil) (om-load-inputfun 'input-funbox "no documentation" "TID" nil) (om-load-inputfun 'input-funbox "no documentation" "N" 12)) (om-make-point 478 143) nil nil nil nil 1) (om-load-editor-box1 "CHORD-SEQ" 'chord-seq '((om-load-inputfun 'input-funbox "objs" "SELF" nil) (om-load-inputfun 'input-funbox "no documentation" "LMIDIC" (list 6000)) (om-load-inputfun 'input-funbox "no documentation" "LONSET" (list 0 1000)) (om-load-inputfun 'input-funbox "no documentation" "LDUR" (list 1000)) (om-load-inputfun 'input-funbox "no documentation" "LVEL" (list 100)) (om-load-inputfun 'input-funbox "no documentation" "LOFFSET" (list 0)) (om-load-inputfun 'input-funbox "no documentation" "LCHAN" (list 1)) (om-load-inputfun 'input-funbox "no documentation" "LEGATO" 0)) (om-make-point 388 542) (om-make-point 181 88) (let ((newobj (when (find-class 'chord-seq nil) (make-instance 'chord-seq :lmidic '((6000 6600) (6100 6700) (6200 6800) (6400 7000) (6500 7100) (6900 6300)) :lonset '(0 1000 2000 3000 4000 5000 6000) :ldur '((1000 1000) (1000 1000) (1000 1000) (1000 1000) (1000 1000) (1000 1000)) :lvel '((100 100) (100 100) (100 100) (100 100) (100 100) (100 100)) :loffset '((0 0) (0 0) (0 0) (0 0) (0 0) (0 0)) :lchan '((1 1) (1 1) (1 1) (1 1) (1 1) (1 1)) :legato 0)))) (load-port-info newobj '((0 0) (0 0) (0 0) (0 0) (0 0) (0 0))) (init-mus-color newobj (list (list nil (om-make-color 0 0 0)) (list (list 0) (om-make-color 0 0 0)) (list (list 0 0) (om-make-color 0 0 0)) (list (list 0 1) (om-make-color 0 0 0)) (list (list 1) (om-make-color 0 0 0)) (list (list 1 0) (om-make-color 0 0 0)) (list (list 1 1) (om-make-color 0 0 0)) (list (list 2) (om-make-color 0 0 0)) (list (list 2 0) (om-make-color 0 0 0)) (list (list 2 1) (om-make-color 0 0 0)) (list (list 3) (om-make-color 0 0 0)) (list (list 3 0) (om-make-color 0 0 0)) (list (list 3 1) (om-make-color 0 0 0)) (list (list 4) (om-make-color 0 0 0)) (list (list 4 0) (om-make-color 0 0 0)) (list (list 4 1) (om-make-color 0 0 0)) (list (list 5) (om-make-color 0 0 0)) (list (list 5 0) (om-make-color 0 0 0)) (list (list 5 1) (om-make-color 0 0 0)))) (set-extra-pairs newobj 'nil) (set-patch-pairs newobj 'nil) (set-tonalite newobj nil) newobj) nil nil (corrige (pairlis '(approx fontsize staff cmnpref deltapict outport inport zoom notechancolor? grillestep mode winsize winpos palette-mode obj-mode show-stems) (list 2 24 'g (let ((newobj (make-instance 'edition-values))) (setf (paper-size newobj) (om-make-point 600 800)) (setf (top-margin newobj) 2) (setf (left-margin newobj) 1) (setf (right-margin newobj) 1) (setf (bottom-margin newobj) 1) (setf (orientation newobj) nil) (setf (scale newobj) nil) (setf (system-space newobj) '(1)) (setf (line-space newobj) 1) (setf (title newobj) nil) (setf (show-title? newobj) nil) (setf (show-page? newobj) nil) (setf (sheet-id newobj) nil) (setf (page-mode newobj) nil) newobj) (om-make-point 0 0) 0 0 1 nil 1000 0 (om-make-point 370 280) (om-make-point 40 10) 0 0 't))) t nil nil) (om-load-editor-box1 "CHORD-SEQ" 'chord-seq '((om-load-inputfun 'input-funbox "objs" "SELF" nil) (om-load-inputfun 'input-funbox "no documentation" "LMIDIC" (list 6000)) (om-load-inputfun 'input-funbox "no documentation" "LONSET" (list 0 1000)) (om-load-inputfun 'input-funbox "no documentation" "LDUR" (list 1000)) (om-load-inputfun 'input-funbox "no documentation" "LVEL" (list 100)) (om-load-inputfun 'input-funbox "no documentation" "LOFFSET" (list 0)) (om-load-inputfun 'input-funbox "no documentation" "LCHAN" (list 1)) (om-load-inputfun 'input-funbox "no documentation" "LEGATO" 0)) (om-make-point 245 542) (om-make-point 136 93) (let ((newobj (when (find-class 'chord-seq nil) (make-instance 'chord-seq :lmidic '((6000 6100 6200 6400 6500 6900) (6600 6700 6800 7000 7100 6300)) :lonset '(0 1000 2000) :ldur '((1000 1000 1000 1000 1000 1000) (1000 1000 1000 1000 1000 1000)) :lvel '((100 100 100 100 100 100) (100 100 100 100 100 100)) :loffset '((0 0 0 0 0 0) (0 0 0 0 0 0)) :lchan '((1 1 1 1 1 1) (1 1 1 1 1 1)) :legato 0)))) (load-port-info newobj '((0 0 0 0 0 0) (0 0 0 0 0 0))) (init-mus-color newobj (list (list nil (om-make-color 0 0 0)) (list (list 0) (om-make-color 0 0 0)) (list (list 0 0) (om-make-color 0 0 0)) (list (list 0 1) (om-make-color 0 0 0)) (list (list 0 2) (om-make-color 0 0 0)) (list (list 0 3) (om-make-color 0 0 0)) (list (list 0 4) (om-make-color 0 0 0)) (list (list 0 5) (om-make-color 0 0 0)) (list (list 1) (om-make-color 0 0 0)) (list (list 1 0) (om-make-color 0 0 0)) (list (list 1 1) (om-make-color 0 0 0)) (list (list 1 2) (om-make-color 0 0 0)) (list (list 1 3) (om-make-color 0 0 0)) (list (list 1 4) (om-make-color 0 0 0)) (list (list 1 5) (om-make-color 0 0 0)))) (set-extra-pairs newobj 'nil) (set-patch-pairs newobj 'nil) (set-tonalite newobj nil) newobj) nil nil (corrige (pairlis '(approx fontsize staff cmnpref deltapict outport inport zoom notechancolor? grillestep mode winsize winpos palette-mode obj-mode show-stems) (list 2 24 'g (let ((newobj (make-instance 'edition-values))) (setf (paper-size newobj) (om-make-point 600 800)) (setf (top-margin newobj) 2) (setf (left-margin newobj) 1) (setf (right-margin newobj) 1) (setf (bottom-margin newobj) 1) (setf (orientation newobj) nil) (setf (scale newobj) nil) (setf (system-space newobj) '(1)) (setf (line-space newobj) 1) (setf (title newobj) nil) (setf (show-title? newobj) nil) (setf (show-page? newobj) nil) (setf (sheet-id newobj) nil) (setf (page-mode newobj) nil) newobj) (om-make-point 0 0) 0 0 1 nil 1000 0 (om-make-point 370 280) (om-make-point 40 10) 0 0 't))) t nil nil) (om-load-boxcall 'genfun "C2CHORD-SEQ" 'c2chord-seq '((om-load-inputfun 'input-funbox "the cercle" "SELF" nil) (om-load-inputfun 'input-funbox "initial value" "BASE" 6000) (om-load-inputfun 'input-funbox "approx" "APPROX" 100)) (om-make-point 443 455) nil nil nil nil 1) (om-load-boxcall 'genfun "C2CHORD-SEQ" 'c2chord-seq '((om-load-inputfun 'input-funbox "the cercle" "SELF" nil) (om-load-inputfun 'input-funbox "initial value" "BASE" 6000) (om-load-inputfun 'input-funbox "approx" "APPROX" 100)) (om-make-point 296 451) nil nil nil nil 1) (om-load-editor-box1 "MULTI-SEQ" 'multi-seq '((om-load-inputfun 'input-funbox "objs" "SELF" nil) (om-load-inputfun 'input-funbox "no documentation" "CHORD-SEQS" (list (let ((newobj (when (find-class 'chord-seq nil) (make-instance 'chord-seq :lmidic '((6000)) :lonset '(0 1000) :ldur '((1000)) :lvel '((100)) :loffset '((0)) :lchan '((1)) :legato 0)))) (load-port-info newobj '((0))) (init-mus-color newobj (list (list nil (om-make-color 0 0 0)) (list (list 0) (om-make-color 0 0 0)) (list (list 0 0) (om-make-color 0 0 0)))) (set-extra-pairs newobj 'nil) (set-patch-pairs newobj 'nil) (set-tonalite newobj nil) newobj)))) (om-make-point 833 483) (om-make-point 227 162) (if (find-class 'multi-seq nil) (let ((newobj (make-instance 'multi-seq :chord-seqs (list (let ((newobj (when (find-class 'chord-seq nil) (make-instance 'chord-seq :lmidic '((6100) (6100) (6100) (6100) (6100) (6100)) :lonset '(0 1500 3000 4500 6000 7500 11250) :ldur '((1000) (1000) (1000) (1000) (1000) (1000)) :lvel '((100) (100) (100) (100) (100) (100)) :loffset '((0) (0) (0) (0) (0) (0)) :lchan '((1) (1) (1) (1) (1) (1)) :legato 0)))) (load-port-info newobj '((0) (0) (0) (0) (0) (0))) (init-mus-color newobj nil) (set-extra-pairs newobj 'nil) (set-patch-pairs newobj 'nil) (set-tonalite newobj nil) newobj) (let ((newobj (when (find-class 'chord-seq nil) (make-instance 'chord-seq :lmidic '((6200) (6200) (6200) (6200) (6200) (6200)) :lonset '(250 1750 3250 4750 6250 7750 11250) :ldur '((1000) (1000) (1000) (1000) (1000) (1000)) :lvel '((100) (100) (100) (100) (100) (100)) :loffset '((0) (0) (0) (0) (0) (0)) :lchan '((2) (2) (2) (2) (2) (2)) :legato 0)))) (load-port-info newobj '((0) (0) (0) (0) (0) (0))) (init-mus-color newobj nil) (set-extra-pairs newobj 'nil) (set-patch-pairs newobj 'nil) (set-tonalite newobj nil) newobj) (let ((newobj (when (find-class 'chord-seq nil) (make-instance 'chord-seq :lmidic '((6300) (6300) (6300) (6300) (6300) (6300)) :lonset '(500 2000 3500 5000 6500 8000 11250) :ldur '((1000) (1000) (1000) (1000) (1000) (1000)) :lvel '((100) (100) (100) (100) (100) (100)) :loffset '((0) (0) (0) (0) (0) (0)) :lchan '((3) (3) (3) (3) (3) (3)) :legato 0)))) (load-port-info newobj '((0) (0) (0) (0) (0) (0))) (init-mus-color newobj nil) (set-extra-pairs newobj 'nil) (set-patch-pairs newobj 'nil) (set-tonalite newobj nil) newobj) (let ((newobj (when (find-class 'chord-seq nil) (make-instance 'chord-seq :lmidic '((6400) (6400) (6400) (6400) (6400) (6400)) :lonset '(1000 2500 4000 5500 7000 8500 11250) :ldur '((1000) (1000) (1000) (1000) (1000) (1000)) :lvel '((100) (100) (100) (100) (100) (100)) :loffset '((0) (0) (0) (0) (0) (0)) :lchan '((4) (4) (4) (4) (4) (4)) :legato 0)))) (load-port-info newobj '((0) (0) (0) (0) (0) (0))) (init-mus-color newobj nil) (set-extra-pairs newobj 'nil) (set-patch-pairs newobj 'nil) (set-tonalite newobj nil) newobj) (let ((newobj (when (find-class 'chord-seq nil) (make-instance 'chord-seq :lmidic '((6500) (6500) (6500) (6500) (6500) (6500)) :lonset '(1250 2750 4250 5750 7250 8750 11250) :ldur '((1000) (1000) (1000) (1000) (1000) (1000)) :lvel '((100) (100) (100) (100) (100) (100)) :loffset '((0) (0) (0) (0) (0) (0)) :lchan '((5) (5) (5) (5) (5) (5)) :legato 0)))) (load-port-info newobj '((0) (0) (0) (0) (0) (0))) (init-mus-color newobj nil) (set-extra-pairs newobj 'nil) (set-patch-pairs newobj 'nil) (set-tonalite newobj nil) newobj) (let ((newobj (when (find-class 'chord-seq nil) (make-instance 'chord-seq :lmidic '((6600) (6600) (6600) (6600) (6600) (6600)) :lonset '(2250 3750 5250 6750 8250 9750 11250) :ldur '((1000) (1000) (1000) (1000) (1000) (1000)) :lvel '((100) (100) (100) (100) (100) (100)) :loffset '((0) (0) (0) (0) (0) (0)) :lchan '((6) (6) (6) (6) (6) (6)) :legato 0)))) (load-port-info newobj '((0) (0) (0) (0) (0) (0))) (init-mus-color newobj nil) (set-extra-pairs newobj 'nil) (set-patch-pairs newobj 'nil) (set-tonalite newobj nil) newobj)) :from-file t))) (load-port-info newobj '(((0) (0) (0) (0) (0) (0)) ((0) (0) (0) (0) (0) (0)) ((0) (0) (0) (0) (0) (0)) ((0) (0) (0) (0) (0) (0)) ((0) (0) (0) (0) (0) (0)) ((0) (0) (0) (0) (0) (0)))) (init-mus-color newobj (list (list nil (om-make-color 0 0 0)) (list (list 0) (om-make-color 0 0 0)) (list (list 0 0) (om-make-color 0 0 0)) (list (list 0 0 0) (om-make-color 0 0 0)) (list (list 0 1) (om-make-color 0 0 0)) (list (list 0 1 0) (om-make-color 0 0 0)) (list (list 0 2) (om-make-color 0 0 0)) (list (list 0 2 0) (om-make-color 0 0 0)) (list (list 0 3) (om-make-color 0 0 0)) (list (list 0 3 0) (om-make-color 0 0 0)) (list (list 0 4) (om-make-color 0 0 0)) (list (list 0 4 0) (om-make-color 0 0 0)) (list (list 0 5) (om-make-color 0 0 0)) (list (list 0 5 0) (om-make-color 0 0 0)) (list (list 1) (om-make-color 0 0 0)) (list (list 1 0) (om-make-color 0 0 0)) (list (list 1 0 0) (om-make-color 0 0 0)) (list (list 1 1) (om-make-color 0 0 0)) (list (list 1 1 0) (om-make-color 0 0 0)) (list (list 1 2) (om-make-color 0 0 0)) (list (list 1 2 0) (om-make-color 0 0 0)) (list (list 1 3) (om-make-color 0 0 0)) (list (list 1 3 0) (om-make-color 0 0 0)) (list (list 1 4) (om-make-color 0 0 0)) (list (list 1 4 0) (om-make-color 0 0 0)) (list (list 1 5) (om-make-color 0 0 0)) (list (list 1 5 0) (om-make-color 0 0 0)) (list (list 2) (om-make-color 0 0 0)) (list (list 2 0) (om-make-color 0 0 0)) (list (list 2 0 0) (om-make-color 0 0 0)) (list (list 2 1) (om-make-color 0 0 0)) (list (list 2 1 0) (om-make-color 0 0 0)) (list (list 2 2) (om-make-color 0 0 0)) (list (list 2 2 0) (om-make-color 0 0 0)) (list (list 2 3) (om-make-color 0 0 0)) (list (list 2 3 0) (om-make-color 0 0 0)) (list (list 2 4) (om-make-color 0 0 0)) (list (list 2 4 0) (om-make-color 0 0 0)) (list (list 2 5) (om-make-color 0 0 0)) (list (list 2 5 0) (om-make-color 0 0 0)) (list (list 3) (om-make-color 0 0 0)) (list (list 3 0) (om-make-color 0 0 0)) (list (list 3 0 0) (om-make-color 0 0 0)) (list (list 3 1) (om-make-color 0 0 0)) (list (list 3 1 0) (om-make-color 0 0 0)) (list (list 3 2) (om-make-color 0 0 0)) (list (list 3 2 0) (om-make-color 0 0 0)) (list (list 3 3) (om-make-color 0 0 0)) (list (list 3 3 0) (om-make-color 0 0 0)) (list (list 3 4) (om-make-color 0 0 0)) (list (list 3 4 0) (om-make-color 0 0 0)) (list (list 3 5) (om-make-color 0 0 0)) (list (list 3 5 0) (om-make-color 0 0 0)) (list (list 4) (om-make-color 0 0 0)) (list (list 4 0) (om-make-color 0 0 0)) (list (list 4 0 0) (om-make-color 0 0 0)) (list (list 4 1) (om-make-color 0 0 0)) (list (list 4 1 0) (om-make-color 0 0 0)) (list (list 4 2) (om-make-color 0 0 0)) (list (list 4 2 0) (om-make-color 0 0 0)) (list (list 4 3) (om-make-color 0 0 0)) (list (list 4 3 0) (om-make-color 0 0 0)) (list (list 4 4) (om-make-color 0 0 0)) (list (list 4 4 0) (om-make-color 0 0 0)) (list (list 4 5) (om-make-color 0 0 0)) (list (list 4 5 0) (om-make-color 0 0 0)) (list (list 5) (om-make-color 0 0 0)) (list (list 5 0) (om-make-color 0 0 0)) (list (list 5 0 0) (om-make-color 0 0 0)) (list (list 5 1) (om-make-color 0 0 0)) (list (list 5 1 0) (om-make-color 0 0 0)) (list (list 5 2) (om-make-color 0 0 0)) (list (list 5 2 0) (om-make-color 0 0 0)) (list (list 5 3) (om-make-color 0 0 0)) (list (list 5 3 0) (om-make-color 0 0 0)) (list (list 5 4) (om-make-color 0 0 0)) (list (list 5 4 0) (om-make-color 0 0 0)) (list (list 5 5) (om-make-color 0 0 0)) (list (list 5 5 0) (om-make-color 0 0 0)))) (set-extra-pairs newobj 'nil) (set-patch-pairs newobj '((nil (om-load-patch-abs1 "patch" 'nil 'nil 5.0 nil)))) (set-tonalite newobj nil) newobj)) "x" nil (corrige (pairlis '(approx fontsize staff cmnpref deltapict outport inport zoom notechancolor? grillestep mode winsize winpos palette-mode obj-mode show-stems) (list 2 24 (list 'g 'g 'g 'g 'g 'g) (let ((newobj (make-instance 'edition-values))) (setf (paper-size newobj) (om-make-point 600 800)) (setf (top-margin newobj) 2) (setf (left-margin newobj) 1) (setf (right-margin newobj) 1) (setf (bottom-margin newobj) 1) (setf (orientation newobj) nil) (setf (scale newobj) nil) (setf (system-space newobj) '(2 2 2 2 2 6)) (setf (line-space newobj) 1) (setf (title newobj) nil) (setf (show-title? newobj) nil) (setf (show-page? newobj) nil) (setf (sheet-id newobj) nil) (setf (page-mode newobj) nil) newobj) (om-make-point 0 0) 0 0 1 nil 1000 0 (om-make-point 370 280) (om-make-point 40 10) 0 0 't))) t nil nil) (om-load-editor-box1 "MULTI-SEQ" 'multi-seq '((om-load-inputfun 'input-funbox "objs" "SELF" nil) (om-load-inputfun 'input-funbox "no documentation" "CHORD-SEQS" (list (let ((newobj (when (find-class 'chord-seq nil) (make-instance 'chord-seq :lmidic '((6000)) :lonset '(0 1000) :ldur '((1000)) :lvel '((100)) :loffset '((0)) :lchan '((1)) :legato 0)))) (load-port-info newobj '((0))) (init-mus-color newobj (list (list nil (om-make-color 0 0 0)) (list (list 0) (om-make-color 0 0 0)) (list (list 0 0) (om-make-color 0 0 0)))) (set-extra-pairs newobj 'nil) (set-patch-pairs newobj 'nil) (set-tonalite newobj nil) newobj)))) (om-make-point 579 481) (om-make-point 217 161) (if (find-class 'multi-seq nil) (let ((newobj (make-instance 'multi-seq :chord-seqs (list (let ((newobj (when (find-class 'chord-seq nil) (make-instance 'chord-seq :lmidic '((6100) (6100) (6100) (6100) (6100) (6100) (6100) (6100) (6100) (6100) (6100) (6100) (6100) (6100) (6100) (6100) (6100) (6100)) :lonset '(0 250 500 1000 1250 2250 3000 3250 3500 4000 4250 5250 6000 6250 6500 7000 7250 8250 10750) :ldur '((1000) (1000) (1000) (1000) (1000) (1000) (1000) (1000) (1000) (1000) (1000) (1000) (1000) (1000) (1000) (1000) (1000) (1000)) :lvel '((100) (100) (100) (100) (100) (100) (100) (100) (100) (100) (100) (100) (100) (100) (100) (100) (100) (100)) :loffset '((0) (0) (0) (0) (0) (0) (0) (0) (0) (0) (0) (0) (0) (0) (0) (0) (0) (0)) :lchan '((1) (1) (1) (1) (1) (1) (1) (1) (1) (1) (1) (1) (1) (1) (1) (1) (1) (1)) :legato 0)))) (load-port-info newobj '((0) (0) (0) (0) (0) (0) (0) (0) (0) (0) (0) (0) (0) (0) (0) (0) (0) (0))) (init-mus-color newobj nil) (set-extra-pairs newobj 'nil) (set-patch-pairs newobj 'nil) (set-tonalite newobj nil) newobj) (let ((newobj (when (find-class 'chord-seq nil) (make-instance 'chord-seq :lmidic '((6200) (6200) (6200) (6200) (6200) (6200) (6200) (6200) (6200) (6200) (6200) (6200) (6200) (6200) (6200) (6200) (6200) (6200)) :lonset '(1500 1750 2000 2500 2750 3750 4500 4750 5000 5500 5750 6750 7500 7750 8000 8500 8750 9750 10750) :ldur '((1000) (1000) (1000) (1000) (1000) (1000) (1000) (1000) (1000) (1000) (1000) (1000) (1000) (1000) (1000) (1000) (1000) (1000)) :lvel '((100) (100) (100) (100) (100) (100) (100) (100) (100) (100) (100) (100) (100) (100) (100) (100) (100) (100)) :loffset '((0) (0) (0) (0) (0) (0) (0) (0) (0) (0) (0) (0) (0) (0) (0) (0) (0) (0)) :lchan '((2) (2) (2) (2) (2) (2) (2) (2) (2) (2) (2) (2) (2) (2) (2) (2) (2) (2)) :legato 0)))) (load-port-info newobj '((0) (0) (0) (0) (0) (0) (0) (0) (0) (0) (0) (0) (0) (0) (0) (0) (0) (0))) (init-mus-color newobj nil) (set-extra-pairs newobj 'nil) (set-patch-pairs newobj 'nil) (set-tonalite newobj nil) newobj)) :from-file t))) (load-port-info newobj '(((0) (0) (0) (0) (0) (0) (0) (0) (0) (0) (0) (0) (0) (0) (0) (0) (0) (0)) ((0) (0) (0) (0) (0) (0) (0) (0) (0) (0) (0) (0) (0) (0) (0) (0) (0) (0)))) (init-mus-color newobj (list (list nil (om-make-color 0 0 0)) (list (list 0) (om-make-color 0 0 0)) (list (list 0 0) (om-make-color 0 0 0)) (list (list 0 0 0) (om-make-color 0 0 0)) (list (list 0 1) (om-make-color 0 0 0)) (list (list 0 1 0) (om-make-color 0 0 0)) (list (list 0 2) (om-make-color 0 0 0)) (list (list 0 2 0) (om-make-color 0 0 0)) (list (list 0 3) (om-make-color 0 0 0)) (list (list 0 3 0) (om-make-color 0 0 0)) (list (list 0 4) (om-make-color 0 0 0)) (list (list 0 4 0) (om-make-color 0 0 0)) (list (list 0 5) (om-make-color 0 0 0)) (list (list 0 5 0) (om-make-color 0 0 0)) (list (list 0 6) (om-make-color 0 0 0)) (list (list 0 6 0) (om-make-color 0 0 0)) (list (list 0 7) (om-make-color 0 0 0)) (list (list 0 7 0) (om-make-color 0 0 0)) (list (list 0 8) (om-make-color 0 0 0)) (list (list 0 8 0) (om-make-color 0 0 0)) (list (list 0 9) (om-make-color 0 0 0)) (list (list 0 9 0) (om-make-color 0 0 0)) (list (list 0 10) (om-make-color 0 0 0)) (list (list 0 10 0) (om-make-color 0 0 0)) (list (list 0 11) (om-make-color 0 0 0)) (list (list 0 11 0) (om-make-color 0 0 0)) (list (list 0 12) (om-make-color 0 0 0)) (list (list 0 12 0) (om-make-color 0 0 0)) (list (list 0 13) (om-make-color 0 0 0)) (list (list 0 13 0) (om-make-color 0 0 0)) (list (list 0 14) (om-make-color 0 0 0)) (list (list 0 14 0) (om-make-color 0 0 0)) (list (list 0 15) (om-make-color 0 0 0)) (list (list 0 15 0) (om-make-color 0 0 0)) (list (list 0 16) (om-make-color 0 0 0)) (list (list 0 16 0) (om-make-color 0 0 0)) (list (list 0 17) (om-make-color 0 0 0)) (list (list 0 17 0) (om-make-color 0 0 0)) (list (list 1) (om-make-color 0 0 0)) (list (list 1 0) (om-make-color 0 0 0)) (list (list 1 0 0) (om-make-color 0 0 0)) (list (list 1 1) (om-make-color 0 0 0)) (list (list 1 1 0) (om-make-color 0 0 0)) (list (list 1 2) (om-make-color 0 0 0)) (list (list 1 2 0) (om-make-color 0 0 0)) (list (list 1 3) (om-make-color 0 0 0)) (list (list 1 3 0) (om-make-color 0 0 0)) (list (list 1 4) (om-make-color 0 0 0)) (list (list 1 4 0) (om-make-color 0 0 0)) (list (list 1 5) (om-make-color 0 0 0)) (list (list 1 5 0) (om-make-color 0 0 0)) (list (list 1 6) (om-make-color 0 0 0)) (list (list 1 6 0) (om-make-color 0 0 0)) (list (list 1 7) (om-make-color 0 0 0)) (list (list 1 7 0) (om-make-color 0 0 0)) (list (list 1 8) (om-make-color 0 0 0)) (list (list 1 8 0) (om-make-color 0 0 0)) (list (list 1 9) (om-make-color 0 0 0)) (list (list 1 9 0) (om-make-color 0 0 0)) (list (list 1 10) (om-make-color 0 0 0)) (list (list 1 10 0) (om-make-color 0 0 0)) (list (list 1 11) (om-make-color 0 0 0)) (list (list 1 11 0) (om-make-color 0 0 0)) (list (list 1 12) (om-make-color 0 0 0)) (list (list 1 12 0) (om-make-color 0 0 0)) (list (list 1 13) (om-make-color 0 0 0)) (list (list 1 13 0) (om-make-color 0 0 0)) (list (list 1 14) (om-make-color 0 0 0)) (list (list 1 14 0) (om-make-color 0 0 0)) (list (list 1 15) (om-make-color 0 0 0)) (list (list 1 15 0) (om-make-color 0 0 0)) (list (list 1 16) (om-make-color 0 0 0)) (list (list 1 16 0) (om-make-color 0 0 0)) (list (list 1 17) (om-make-color 0 0 0)) (list (list 1 17 0) (om-make-color 0 0 0)))) (set-extra-pairs newobj 'nil) (set-patch-pairs newobj 'nil) (set-tonalite newobj nil) newobj)) nil nil (corrige (pairlis '(approx fontsize staff cmnpref deltapict outport inport zoom notechancolor? grillestep mode winsize winpos palette-mode obj-mode show-stems) (list 2 24 (list 'g 'g) (let ((newobj (make-instance 'edition-values))) (setf (paper-size newobj) (om-make-point 600 800)) (setf (top-margin newobj) 2) (setf (left-margin newobj) 1) (setf (right-margin newobj) 1) (setf (bottom-margin newobj) 1) (setf (orientation newobj) nil) (setf (scale newobj) nil) (setf (system-space newobj) '(2 2)) (setf (line-space newobj) 1) (setf (title newobj) nil) (setf (show-title? newobj) nil) (setf (show-page? newobj) nil) (setf (sheet-id newobj) nil) (setf (page-mode newobj) nil) newobj) (om-make-point 0 0) 0 0 1 nil 1000 0 (om-make-point 370 280) (om-make-point 40 10) 0 0 't))) t nil nil) (om-load-boxcall 'genfun "CANONS" 'canons '((om-load-inputfun 'input-funbox "no documentation" "R" nil) (om-load-inputfun 'input-funbox "no documentation" "S" nil) (om-load-inputfun 'input-funbox "no documentation" "TIMES" 3)) (om-make-point 933 404) nil nil nil nil 1) (om-load-boxcall 'genfun "CANONS" 'canons '((om-load-inputfun 'input-funbox "no documentation" "R" nil) (om-load-inputfun 'input-funbox "no documentation" "S" nil) (om-load-inputfun 'input-funbox "no documentation" "TIMES" 3)) (om-make-point 733 404) nil nil nil nil 1) (om-load-boxcall 'genfun "N-STRUCTURE" 'n-structure '((om-load-inputfun 'input-funbox "values" "L" (list 5 7 9)) (om-load-inputfun 'input-funbox "n" "N" 12)) (om-make-point 1021 268) nil nil nil nil 1) (om-load-boxcall 'genfun "N-STRUCTURE" 'n-structure '((om-load-inputfun 'input-funbox "values" "L" (list 5 7 9)) (om-load-inputfun 'input-funbox "n" "N" 12)) (om-make-point 640 268) nil nil nil nil 1) (om-load-boxcall 'lispfun "FIRST1" 'first '((om-load-inputfun 'input-funbox "LIST" "LIST" nil)) (om-make-point 924 210) nil nil nil nil 1) (om-load-boxcall 'lispfun "FIRST" 'first '((om-load-inputfun 'input-funbox "LIST" "LIST" nil)) (om-make-point 756 207) nil nil nil nil 1) (om-load-editor-box1 "N-CERCLE4" 'n-cercle '((om-load-inputfun 'input-funbox "objs" "SELF" nil) (om-load-inputfun 'input-funbox "no documentation" "N" 12) (om-load-inputfun 'input-funbox "no documentation" "PUNTOS" (list 0 5 7))) (om-make-point 901 71) (om-make-point 101 75) (if (find-class 'n-cercle nil) (make-instance 'n-cercle :n 12 :puntos (list (list 0 6) (list 1 7) (list 2 8) (list 4 10) (list 5 11) (list 9 3)) :from-file t)) "x" nil (corrige (pairlis '(show-stems winpos winsize mode grillestep notechancolor? cmnpref obj-mode palette-mode zoom inport outport deltapict) (list 't (om-make-point 10 40) (om-make-point 370 280) 0 1000 nil (let ((newobj (make-instance 'edition-values))) (setf (paper-size newobj) (om-make-point 600 800)) (setf (top-margin newobj) 2) (setf (left-margin newobj) 1) (setf (right-margin newobj) 1) (setf (bottom-margin newobj) 1) (setf (orientation newobj) nil) (setf (scale newobj) nil) (setf (system-space newobj) '(1)) (setf (line-space newobj) 1) (setf (title newobj) nil) (setf (show-title? newobj) nil) (setf (show-page? newobj) nil) (setf (sheet-id newobj) nil) (setf (page-mode newobj) nil) newobj) 0 0 1 0 0 (om-make-point 0 0)))) t nil nil) (om-load-editor-box1 "N-CERCLE4" 'n-cercle '((om-load-inputfun 'input-funbox "objs" "SELF" nil) (om-load-inputfun 'input-funbox "no documentation" "N" 12) (om-load-inputfun 'input-funbox "no documentation" "PUNTOS" (list 0 5 7))) (om-make-point 646 70) (om-make-point 103 79) (if (find-class 'n-cercle nil) (make-instance 'n-cercle :n 12 :puntos (list (list 0 1 2 4 5 9) (list 6 7 8 10 11 3)) :from-file t)) "x" nil (corrige (pairlis '(show-stems winpos winsize mode grillestep notechancolor? cmnpref obj-mode palette-mode zoom inport outport deltapict) (list 't (om-make-point 10 40) (om-make-point 370 280) 0 1000 nil (let ((newobj (make-instance 'edition-values))) (setf (paper-size newobj) (om-make-point 600 800)) (setf (top-margin newobj) 2) (setf (left-margin newobj) 1) (setf (right-margin newobj) 1) (setf (bottom-margin newobj) 1) (setf (orientation newobj) nil) (setf (scale newobj) nil) (setf (system-space newobj) '(1)) (setf (line-space newobj) 1) (setf (title newobj) nil) (setf (show-title? newobj) nil) (setf (show-page? newobj) nil) (setf (sheet-id newobj) nil) (setf (page-mode newobj) nil) newobj) 0 0 1 0 0 (om-make-point 0 0)))) t nil nil) (om-load-boxcall 'genfun "TRANSP-COMB2" 'transp-comb '((om-load-inputfun 'input-funbox "no documentation" "A" nil) (om-load-inputfun 'input-funbox "no documentation" "TID" nil) (om-load-inputfun 'input-funbox "no documentation" "N" 12)) (om-make-point 375 148) nil nil nil nil 1) (om-load-editor-box1 "N-CERCLE4" 'n-cercle '((om-load-inputfun 'input-funbox "objs" "SELF" nil) (om-load-inputfun 'input-funbox "no documentation" "N" 12) (om-load-inputfun 'input-funbox "no documentation" "PUNTOS" (list 0 5 7))) (om-make-point 462 335) (om-make-point 84 59) (if (find-class 'n-cercle nil) (make-instance 'n-cercle :n 12 :puntos (list (list 0 6) (list 1 7) (list 2 8) (list 4 10) (list 5 11) (list 9 3)) :from-file t)) nil nil (corrige (pairlis '(show-stems winpos winsize mode grillestep notechancolor? cmnpref obj-mode palette-mode zoom inport outport deltapict) (list 't (om-make-point 10 40) (om-make-point 370 280) 0 1000 nil (let ((newobj (make-instance 'edition-values))) (setf (paper-size newobj) (om-make-point 600 800)) (setf (top-margin newobj) 2) (setf (left-margin newobj) 1) (setf (right-margin newobj) 1) (setf (bottom-margin newobj) 1) (setf (orientation newobj) nil) (setf (scale newobj) nil) (setf (system-space newobj) '(1)) (setf (line-space newobj) 1) (setf (title newobj) nil) (setf (show-title? newobj) nil) (setf (show-page? newobj) nil) (setf (sheet-id newobj) nil) (setf (page-mode newobj) nil) newobj) 0 0 1 0 0 (om-make-point 0 0)))) t nil nil) (om-load-editor-box1 "N-CERCLE4" 'n-cercle '((om-load-inputfun 'input-funbox "objs" "SELF" nil) (om-load-inputfun 'input-funbox "no documentation" "N" 12) (om-load-inputfun 'input-funbox "no documentation" "PUNTOS" (list 0 5 7))) (om-make-point 364 336) (om-make-point 84 59) (if (find-class 'n-cercle nil) (make-instance 'n-cercle :n 12 :puntos (list (list 0 1 2 4 5 9) (list 6 7 8 10 11 3)) :from-file t)) nil nil (corrige (pairlis '(show-stems winpos winsize mode grillestep notechancolor? cmnpref obj-mode palette-mode zoom inport outport deltapict) (list 't (om-make-point 10 40) (om-make-point 370 280) 0 1000 nil (let ((newobj (make-instance 'edition-values))) (setf (paper-size newobj) (om-make-point 600 800)) (setf (top-margin newobj) 2) (setf (left-margin newobj) 1) (setf (right-margin newobj) 1) (setf (bottom-margin newobj) 1) (setf (orientation newobj) nil) (setf (scale newobj) nil) (setf (system-space newobj) '(1)) (setf (line-space newobj) 1) (setf (title newobj) nil) (setf (show-title? newobj) nil) (setf (show-page? newobj) nil) (setf (sheet-id newobj) nil) (setf (page-mode newobj) nil) newobj) 0 0 1 0 0 (om-make-point 0 0)))) t nil nil) (om-load-boxcall 'bastype "aux3" 't 'nil (om-make-point 390 78) (om-make-point 54 21) (list 0 6) "(0 6)" nil) (om-load-editor-box1 "N-CERCLE3" 'n-cercle '((om-load-inputfun 'input-funbox "objs" "SELF" nil) (om-load-inputfun 'input-funbox "no documentation" "N" 12) (om-load-inputfun 'input-funbox "no documentation" "PUNTOS" (list 0 5 7))) (om-make-point 253 273) (om-make-point 83 85) (if (find-class 'n-cercle nil) (make-instance 'n-cercle :n 12 :puntos (list (list 0 1 2 4 5 9)) :from-file t)) nil nil (corrige (pairlis '(show-stems winpos winsize mode grillestep notechancolor? cmnpref obj-mode palette-mode zoom inport outport deltapict) (list 't (om-make-point 10 40) (om-make-point 370 280) 0 1000 nil (let ((newobj (make-instance 'edition-values))) (setf (paper-size newobj) (om-make-point 600 800)) (setf (top-margin newobj) 2) (setf (left-margin newobj) 1) (setf (right-margin newobj) 1) (setf (bottom-margin newobj) 1) (setf (orientation newobj) nil) (setf (scale newobj) nil) (setf (system-space newobj) '(1)) (setf (line-space newobj) 1) (setf (title newobj) nil) (setf (show-title? newobj) nil) (setf (show-page? newobj) nil) (setf (sheet-id newobj) nil) (setf (page-mode newobj) nil) newobj) 0 0 1 0 0 (om-make-point 0 0)))) t nil nil) (om-load-boxcall 'bastype "aux" 't 'nil (om-make-point 248 150) (om-make-point 23 20) 5 "5" nil) (om-load-boxcall 'lispfun "NTH1" 'nth '((om-load-inputfun 'input-funbox "N" "N" nil) (om-load-inputfun 'input-funbox "LIST" "LIST" nil)) (om-make-point 271 201) (om-make-point 24 39) nil nil nil 1) (om-load-boxcomment "comment" (om-make-point 170 42) '"self-complementary$hexachords" "" (om-make-point 64 490) nil (om-make-color 28/85 41/255 1) (om-make-font "Geneva" 12 :family nil :style 'nil :mode nil)) (om-load-boxcall 'genfun "FAMILLE" 'famille '((om-load-inputfun 'input-funbox "Zn" "N" 12) (om-load-inputfunmenu1 'input-funmenu "familly" "FAMILLY" "tac" (list (list "tac" "tac") (list "tai" "tai") (list "tic" "tic") (list "ttl" "ttl") (list "tp" "tp") (list "tid" "tid"))) (om-load-inputfun 'input-funbox "number of elements" "K" 6) (om-load-inputfun 'input-funbox "howmany answers" "HOWMANY" 20)) (om-make-point 110 189) nil (list (list (list 0 2 4 6 8 10) (list 0 1 4 5 8 9) (list 0 1 3 5 8 10) (list 0 1 2 6 7 8) (list 0 1 2 5 9 10) (list 0 1 2 4 5 9) (list 0 1 2 3 5 10) (list 0 1 2 3 4 5))) "x" nil 1) (om-load-boxcall 'bastype "aux1" 't 'nil (om-make-point 120 135) (om-make-point 17 20) 8 "8" nil) (om-load-editor-box1 "N-CERCLE1" 'n-cercle '((om-load-inputfun 'input-funbox "objs" "SELF" nil) (om-load-inputfun 'input-funbox "no documentation" "N" 12) (om-load-inputfun 'input-funbox "no documentation" "PUNTOS" (list 0 5 7))) (om-make-point 63 349) (om-make-point 163 130) (if (find-class 'n-cercle nil) (make-instance 'n-cercle :n 12 :puntos (list (list 0 2 4 6 8 10) (list 2 3 6 7 10 11) (list 2 4 6 7 9 11) (list 0 1 2 6 7 8) (list 0 1 2 5 9 10) (list 0 1 2 4 5 9) (list 0 1 2 3 5 10) (list 0 1 2 3 4 5)) :from-file t)) "x" nil (corrige (pairlis '(show-stems obj-mode palette-mode deltapict outport inport zoom cmnpref notechancolor? grillestep mode winsize winpos) (list 't 0 0 (om-make-point 0 0) 0 0 1 (let ((newobj (make-instance 'edition-values))) (setf (paper-size newobj) (om-make-point 600 800)) (setf (top-margin newobj) 2) (setf (left-margin newobj) 1) (setf (right-margin newobj) 1) (setf (bottom-margin newobj) 1) (setf (orientation newobj) nil) (setf (scale newobj) nil) (setf (system-space newobj) '(1)) (setf (line-space newobj) 1) (setf (title newobj) nil) (setf (show-title? newobj) nil) (setf (show-page? newobj) nil) (setf (sheet-id newobj) nil) (setf (page-mode newobj) nil) newobj) nil 1000 0 18350450 2621450))) t nil nil) (om-load-boxcomment "comment" (om-make-point 1186 51) '"Hexacordal combinatoriality, partitioning and tiling canons" "" (om-make-point 84 4) nil (om-make-color 10/51 52/255 199/255) (om-make-font "Geneva" 36 :family nil :style 'nil :mode nil))) '((21 0 0 0 nil 0) (18 0 0 1 nil 0) (3 0 1 0 nil 0) (4 0 2 0 nil 0) (16 0 3 0 nil 0) (17 0 4 0 nil 0) (7 0 5 0 nil 0) (8 0 6 0 nil 0) (9 0 7 0 nil 0) (10 0 7 1 nil 1) (10 0 8 0 nil 1) (9 0 8 1 nil 0) (11 0 9 0 nil 0) (12 0 10 0 nil 0) (13 2 11 0 nil 0) (14 2 12 0 nil 0) (18 0 15 0 nil 0) (21 0 15 1 nil 0) (0 0 16 2 nil 0) (15 0 17 2 nil 0) (21 0 19 2 nil 0) (20 0 21 0 nil 0) (23 0 21 1 nil 0) (24 0 23 3 nil 0) (23 0 25 2 nil 0)) (list (let ((newpict (make-instance 'patch-picture :name '|USER-ciel|))) (setf (thepict newpict) (om-get-picture '|USER-ciel|)) (setf (name newpict) '|USER-ciel|) (setf (pict-pos newpict) (om-make-point 34 345)) (setf (pict-size newpict) (om-make-point 636 204)) newpict) (let ((newpict (make-instance 'patch-picture :name '|USER-ciel|))) (setf (thepict newpict) (om-get-picture '|USER-ciel|)) (setf (name newpict) '|USER-ciel|) (setf (pict-pos newpict) (om-make-point 78 57)) (setf (pict-size newpict) (om-make-point 293 311)) newpict)) 5.0))
