; OM File Header - Saved 2017/01/10 18:15:12
; (6.110002 :patc (om-make-point 157 26) (om-make-point 125 233) (om-make-point 1170 725) "No documentation " 183 0 nil "2017/01/10 18:15:12")
; End File Header
(in-package :om)(load-lib-for (quote nil))(setf *om-current-persistent* (om-load-patch1 "02-combinat-hex" (quote ((let ((box (om-load-boxcall (quote genfun) "TRANSP-COMB2" (quote transp-comb) (quote ((om-load-inputfun (quote input-funbox) "no documentation" "A" nil) (om-load-inputfun (quote input-funbox) "no documentation" "TID" nil) (om-load-inputfun (quote input-funbox) "no documentation" "N" 12))) (om-make-point 478 173) nil nil nil nil 1))) (when (fboundp (quote set-active)) (set-active box nil)) box) (let ((box (om-load-editor-box1 "CHORD-SEQ" (quote chord-seq) (quote ((om-load-inputfun (quote input-funbox) "objs" "SELF" nil) (om-load-inputfun (quote input-funbox) "no documentation" "LMIDIC" (list 6000)) (om-load-inputfun (quote input-funbox) "no documentation" "LONSET" (list 0 1000)) (om-load-inputfun (quote input-funbox) "no documentation" "LDUR" (list 1000)) (om-load-inputfun (quote input-funbox) "no documentation" "LVEL" (list 100)) (om-load-inputfun (quote input-funbox) "no documentation" "LOFFSET" (list 0)) (om-load-inputfun (quote input-funbox) "no documentation" "LCHAN" (list 1)) (om-load-inputfun (quote input-funbox) "no documentation" "LEGATO" 0))) (om-make-point 388 572) (om-make-point 181 88) (let ((newobj (when (find-class (quote chord-seq) nil) (make-instance (quote chord-seq) :lmidic (quote ((6000 6600) (6100 6700) (6200 6800) (6400 7000) (6500 7100) (6900 6300))) :lonset (quote (0 1000 2000 3000 4000 5000 6000)) :ldur (quote ((1000 1000) (1000 1000) (1000 1000) (1000 1000) (1000 1000) (1000 1000))) :lvel (quote ((100 100) (100 100) (100 100) (100 100) (100 100) (100 100))) :loffset (quote ((0 0) (0 0) (0 0) (0 0) (0 0) (0 0))) :lchan (quote ((1 1) (1 1) (1 1) (1 1) (1 1) (1 1))) :legato 0)))) (load-port-info newobj (quote ((0 0) (0 0) (0 0) (0 0) (0 0) (0 0)))) (init-mus-color newobj (quote nil)) (set-extra-pairs newobj (quote nil)) (set-patch-pairs newobj (quote nil)) (set-name newobj nil) (set-tonalite newobj nil) newobj) nil nil (pairlis (quote (scale show-stems obj-mode palette-mode winpos winsize mode grillestep notechancolor? zoom inport outport deltapict cmnpref staff fontsize approx)) (list nil (quote t) 0 0 (om-make-point 40 10) (om-make-point 370 280) 0 1000 nil 1 0 0 (om-make-point 0 0) (let ((newobj (make-instance (quote edition-values)))) (setf (paper-size newobj) (om-make-point 600 800)) (setf (top-margin newobj) 2) (setf (left-margin newobj) 1) (setf (right-margin newobj) 1) (setf (bottom-margin newobj) 1) (setf (orientation newobj) nil) (setf (scale newobj) nil) (setf (system-space newobj) (quote (1))) (setf (system-color newobj) (quote nil)) (setf (line-space newobj) 1) (setf (title newobj) nil) (setf (show-title? newobj) nil) (setf (show-page? newobj) nil) (setf (sheet-id newobj) nil) (setf (page-mode newobj) nil) newobj) (quote g) 24 2)) t nil nil nil))) (when (fboundp (quote set-active)) (set-active box nil)) box) (let ((box (om-load-editor-box1 "CHORD-SEQ" (quote chord-seq) (quote ((om-load-inputfun (quote input-funbox) "objs" "SELF" nil) (om-load-inputfun (quote input-funbox) "no documentation" "LMIDIC" (list 6000)) (om-load-inputfun (quote input-funbox) "no documentation" "LONSET" (list 0 1000)) (om-load-inputfun (quote input-funbox) "no documentation" "LDUR" (list 1000)) (om-load-inputfun (quote input-funbox) "no documentation" "LVEL" (list 100)) (om-load-inputfun (quote input-funbox) "no documentation" "LOFFSET" (list 0)) (om-load-inputfun (quote input-funbox) "no documentation" "LCHAN" (list 1)) (om-load-inputfun (quote input-funbox) "no documentation" "LEGATO" 0))) (om-make-point 245 572) (om-make-point 136 93) (let ((newobj (when (find-class (quote chord-seq) nil) (make-instance (quote chord-seq) :lmidic (quote ((6000 6100 6200 6400 6500 6900) (6600 6700 6800 7000 7100 6300))) :lonset (quote (0 1000 2000)) :ldur (quote ((1000 1000 1000 1000 1000 1000) (1000 1000 1000 1000 1000 1000))) :lvel (quote ((100 100 100 100 100 100) (100 100 100 100 100 100))) :loffset (quote ((0 0 0 0 0 0) (0 0 0 0 0 0))) :lchan (quote ((1 1 1 1 1 1) (1 1 1 1 1 1))) :legato 0)))) (load-port-info newobj (quote ((0 0 0 0 0 0) (0 0 0 0 0 0)))) (init-mus-color newobj (quote nil)) (set-extra-pairs newobj (quote nil)) (set-patch-pairs newobj (quote nil)) (set-name newobj nil) (set-tonalite newobj nil) newobj) nil nil (pairlis (quote (scale show-stems obj-mode palette-mode winpos winsize mode grillestep notechancolor? zoom inport outport deltapict cmnpref staff fontsize approx)) (list nil (quote t) 0 0 (om-make-point 40 10) (om-make-point 370 280) 0 1000 nil 1 0 0 (om-make-point 0 0) (let ((newobj (make-instance (quote edition-values)))) (setf (paper-size newobj) (om-make-point 600 800)) (setf (top-margin newobj) 2) (setf (left-margin newobj) 1) (setf (right-margin newobj) 1) (setf (bottom-margin newobj) 1) (setf (orientation newobj) nil) (setf (scale newobj) nil) (setf (system-space newobj) (quote (1))) (setf (system-color newobj) (quote nil)) (setf (line-space newobj) 1) (setf (title newobj) nil) (setf (show-title? newobj) nil) (setf (show-page? newobj) nil) (setf (sheet-id newobj) nil) (setf (page-mode newobj) nil) newobj) (quote g) 24 2)) t nil nil nil))) (when (fboundp (quote set-active)) (set-active box nil)) box) (let ((box (om-load-boxcall (quote genfun) "C2CHORD-SEQ" (quote c2chord-seq) (quote ((om-load-inputfun (quote input-funbox) "the cercle" "SELF" nil) (om-load-inputfun (quote input-funbox) "initial value" "BASE" 6000) (om-load-inputfun (quote input-funbox) "approx" "APPROX" 100))) (om-make-point 443 485) nil nil nil nil 1))) (when (fboundp (quote set-active)) (set-active box nil)) box) (let ((box (om-load-boxcall (quote genfun) "C2CHORD-SEQ" (quote c2chord-seq) (quote ((om-load-inputfun (quote input-funbox) "the cercle" "SELF" nil) (om-load-inputfun (quote input-funbox) "initial value" "BASE" 6000) (om-load-inputfun (quote input-funbox) "approx" "APPROX" 100))) (om-make-point 296 481) nil nil nil nil 1))) (when (fboundp (quote set-active)) (set-active box nil)) box) (let ((box (om-load-editor-box1 "MULTI-SEQ" (quote multi-seq) (quote ((om-load-inputfun (quote input-funbox) "objs" "SELF" nil) (om-load-inputfun (quote input-funbox) "no documentation" "CHORD-SEQS" (list (let ((newobj (when (find-class (quote chord-seq) nil) (make-instance (quote chord-seq) :lmidic (quote ((6000))) :lonset (quote (0 1000)) :ldur (quote ((1000))) :lvel (quote ((100))) :loffset (quote ((0))) :lchan (quote ((1))) :legato 0)))) (load-port-info newobj (quote ((0)))) (init-mus-color newobj (quote nil)) (set-extra-pairs newobj (quote nil)) (set-patch-pairs newobj (quote nil)) (set-name newobj nil) (set-tonalite newobj nil) newobj))))) (om-make-point 833 513) (om-make-point 227 162) (if (find-class (quote multi-seq) nil) (let ((newobj (make-instance (quote multi-seq) :chord-seqs (list (let ((newobj (when (find-class (quote chord-seq) nil) (make-instance (quote chord-seq) :lmidic (quote ((6100) (6100) (6100) (6100) (6100) (6100))) :lonset (quote (0 1500 3000 4500 6000 7500 8500)) :ldur (quote ((1000) (1000) (1000) (1000) (1000) (1000))) :lvel (quote ((100) (100) (100) (100) (100) (100))) :loffset (quote ((0) (0) (0) (0) (0) (0))) :lchan (quote ((1) (1) (1) (1) (1) (1))) :legato 0)))) (load-port-info newobj (quote ((0) (0) (0) (0) (0) (0)))) (init-mus-color newobj (quote nil)) (set-extra-pairs newobj (quote nil)) (set-patch-pairs newobj (quote nil)) (set-name newobj nil) (set-tonalite newobj nil) newobj) (let ((newobj (when (find-class (quote chord-seq) nil) (make-instance (quote chord-seq) :lmidic (quote ((6200) (6200) (6200) (6200) (6200) (6200))) :lonset (quote (250 1750 3250 4750 6250 7750 8750)) :ldur (quote ((1000) (1000) (1000) (1000) (1000) (1000))) :lvel (quote ((100) (100) (100) (100) (100) (100))) :loffset (quote ((0) (0) (0) (0) (0) (0))) :lchan (quote ((2) (2) (2) (2) (2) (2))) :legato 0)))) (load-port-info newobj (quote ((0) (0) (0) (0) (0) (0)))) (init-mus-color newobj (quote nil)) (set-extra-pairs newobj (quote nil)) (set-patch-pairs newobj (quote nil)) (set-name newobj nil) (set-tonalite newobj nil) newobj) (let ((newobj (when (find-class (quote chord-seq) nil) (make-instance (quote chord-seq) :lmidic (quote ((6300) (6300) (6300) (6300) (6300) (6300))) :lonset (quote (500 2000 3500 5000 6500 8000 9000)) :ldur (quote ((1000) (1000) (1000) (1000) (1000) (1000))) :lvel (quote ((100) (100) (100) (100) (100) (100))) :loffset (quote ((0) (0) (0) (0) (0) (0))) :lchan (quote ((3) (3) (3) (3) (3) (3))) :legato 0)))) (load-port-info newobj (quote ((0) (0) (0) (0) (0) (0)))) (init-mus-color newobj (quote nil)) (set-extra-pairs newobj (quote nil)) (set-patch-pairs newobj (quote nil)) (set-name newobj nil) (set-tonalite newobj nil) newobj) (let ((newobj (when (find-class (quote chord-seq) nil) (make-instance (quote chord-seq) :lmidic (quote ((6400) (6400) (6400) (6400) (6400) (6400))) :lonset (quote (1000 2500 4000 5500 7000 8500 9500)) :ldur (quote ((1000) (1000) (1000) (1000) (1000) (1000))) :lvel (quote ((100) (100) (100) (100) (100) (100))) :loffset (quote ((0) (0) (0) (0) (0) (0))) :lchan (quote ((4) (4) (4) (4) (4) (4))) :legato 0)))) (load-port-info newobj (quote ((0) (0) (0) (0) (0) (0)))) (init-mus-color newobj (quote nil)) (set-extra-pairs newobj (quote nil)) (set-patch-pairs newobj (quote nil)) (set-name newobj nil) (set-tonalite newobj nil) newobj) (let ((newobj (when (find-class (quote chord-seq) nil) (make-instance (quote chord-seq) :lmidic (quote ((6500) (6500) (6500) (6500) (6500) (6500))) :lonset (quote (1250 2750 4250 5750 7250 8750 9750)) :ldur (quote ((1000) (1000) (1000) (1000) (1000) (1000))) :lvel (quote ((100) (100) (100) (100) (100) (100))) :loffset (quote ((0) (0) (0) (0) (0) (0))) :lchan (quote ((5) (5) (5) (5) (5) (5))) :legato 0)))) (load-port-info newobj (quote ((0) (0) (0) (0) (0) (0)))) (init-mus-color newobj (quote nil)) (set-extra-pairs newobj (quote nil)) (set-patch-pairs newobj (quote nil)) (set-name newobj nil) (set-tonalite newobj nil) newobj) (let ((newobj (when (find-class (quote chord-seq) nil) (make-instance (quote chord-seq) :lmidic (quote ((6600) (6600) (6600) (6600) (6600) (6600))) :lonset (quote (2250 3750 5250 6750 8250 9750 10750)) :ldur (quote ((1000) (1000) (1000) (1000) (1000) (1000))) :lvel (quote ((100) (100) (100) (100) (100) (100))) :loffset (quote ((0) (0) (0) (0) (0) (0))) :lchan (quote ((6) (6) (6) (6) (6) (6))) :legato 0)))) (load-port-info newobj (quote ((0) (0) (0) (0) (0) (0)))) (init-mus-color newobj (quote nil)) (set-extra-pairs newobj (quote nil)) (set-patch-pairs newobj (quote nil)) (set-name newobj nil) (set-tonalite newobj nil) newobj)) :from-file t))) (load-port-info newobj (quote (((0) (0) (0) (0) (0) (0)) ((0) (0) (0) (0) (0) (0)) ((0) (0) (0) (0) (0) (0)) ((0) (0) (0) (0) (0) (0)) ((0) (0) (0) (0) (0) (0)) ((0) (0) (0) (0) (0) (0))))) (init-mus-color newobj (quote nil)) (set-extra-pairs newobj (quote nil)) (set-patch-pairs newobj (quote ((nil (om-load-patch-abs1 "patch" (quote nil) (quote nil) 6.110002 nil "" (om-make-point 200 200) (om-make-point 400 500)))))) (set-name newobj nil) (set-tonalite newobj nil) newobj)) "x" nil (pairlis (quote (scale show-stems obj-mode palette-mode winpos winsize mode grillestep notechancolor? zoom inport outport deltapict cmnpref staff fontsize approx)) (list nil (quote t) 0 0 (om-make-point 40 10) (om-make-point 370 280) 0 1000 nil 1 0 0 (om-make-point 0 0) (let ((newobj (make-instance (quote edition-values)))) (setf (paper-size newobj) (om-make-point 600 800)) (setf (top-margin newobj) 2) (setf (left-margin newobj) 1) (setf (right-margin newobj) 1) (setf (bottom-margin newobj) 1) (setf (orientation newobj) nil) (setf (scale newobj) nil) (setf (system-space newobj) (quote (2 2 2 2 2 6))) (setf (system-color newobj) (quote nil)) (setf (line-space newobj) 1) (setf (title newobj) nil) (setf (show-title? newobj) nil) (setf (show-page? newobj) nil) (setf (sheet-id newobj) nil) (setf (page-mode newobj) nil) newobj) (list (quote g) (quote g) (quote g) (quote g) (quote g) (quote g)) 24 2)) t nil nil nil))) (when (fboundp (quote set-active)) (set-active box nil)) box) (let ((box (om-load-editor-box1 "MULTI-SEQ" (quote multi-seq) (quote ((om-load-inputfun (quote input-funbox) "objs" "SELF" nil) (om-load-inputfun (quote input-funbox) "no documentation" "CHORD-SEQS" (list (let ((newobj (when (find-class (quote chord-seq) nil) (make-instance (quote chord-seq) :lmidic (quote ((6000))) :lonset (quote (0 1000)) :ldur (quote ((1000))) :lvel (quote ((100))) :loffset (quote ((0))) :lchan (quote ((1))) :legato 0)))) (load-port-info newobj (quote ((0)))) (init-mus-color newobj (quote nil)) (set-extra-pairs newobj (quote nil)) (set-patch-pairs newobj (quote nil)) (set-name newobj nil) (set-tonalite newobj nil) newobj))))) (om-make-point 579 511) (om-make-point 217 161) (if (find-class (quote multi-seq) nil) (let ((newobj (make-instance (quote multi-seq) :chord-seqs (list (let ((newobj (when (find-class (quote chord-seq) nil) (make-instance (quote chord-seq) :lmidic (quote ((6100) (6100) (6100) (6100) (6100) (6100) (6100) (6100) (6100) (6100) (6100) (6100) (6100) (6100) (6100) (6100) (6100) (6100))) :lonset (quote (0 250 500 1000 1250 2250 3000 3250 3500 4000 4250 5250 6000 6250 6500 7000 7250 8250 9250)) :ldur (quote ((1000) (1000) (1000) (1000) (1000) (1000) (1000) (1000) (1000) (1000) (1000) (1000) (1000) (1000) (1000) (1000) (1000) (1000))) :lvel (quote ((100) (100) (100) (100) (100) (100) (100) (100) (100) (100) (100) (100) (100) (100) (100) (100) (100) (100))) :loffset (quote ((0) (0) (0) (0) (0) (0) (0) (0) (0) (0) (0) (0) (0) (0) (0) (0) (0) (0))) :lchan (quote ((1) (1) (1) (1) (1) (1) (1) (1) (1) (1) (1) (1) (1) (1) (1) (1) (1) (1))) :legato 0)))) (load-port-info newobj (quote ((0) (0) (0) (0) (0) (0) (0) (0) (0) (0) (0) (0) (0) (0) (0) (0) (0) (0)))) (init-mus-color newobj (quote nil)) (set-extra-pairs newobj (quote nil)) (set-patch-pairs newobj (quote nil)) (set-name newobj nil) (set-tonalite newobj nil) newobj) (let ((newobj (when (find-class (quote chord-seq) nil) (make-instance (quote chord-seq) :lmidic (quote ((6200) (6200) (6200) (6200) (6200) (6200) (6200) (6200) (6200) (6200) (6200) (6200) (6200) (6200) (6200) (6200) (6200) (6200))) :lonset (quote (1500 1750 2000 2500 2750 3750 4500 4750 5000 5500 5750 6750 7500 7750 8000 8500 8750 9750 10750)) :ldur (quote ((1000) (1000) (1000) (1000) (1000) (1000) (1000) (1000) (1000) (1000) (1000) (1000) (1000) (1000) (1000) (1000) (1000) (1000))) :lvel (quote ((100) (100) (100) (100) (100) (100) (100) (100) (100) (100) (100) (100) (100) (100) (100) (100) (100) (100))) :loffset (quote ((0) (0) (0) (0) (0) (0) (0) (0) (0) (0) (0) (0) (0) (0) (0) (0) (0) (0))) :lchan (quote ((2) (2) (2) (2) (2) (2) (2) (2) (2) (2) (2) (2) (2) (2) (2) (2) (2) (2))) :legato 0)))) (load-port-info newobj (quote ((0) (0) (0) (0) (0) (0) (0) (0) (0) (0) (0) (0) (0) (0) (0) (0) (0) (0)))) (init-mus-color newobj (quote nil)) (set-extra-pairs newobj (quote nil)) (set-patch-pairs newobj (quote nil)) (set-name newobj nil) (set-tonalite newobj nil) newobj)) :from-file t))) (load-port-info newobj (quote (((0) (0) (0) (0) (0) (0) (0) (0) (0) (0) (0) (0) (0) (0) (0) (0) (0) (0)) ((0) (0) (0) (0) (0) (0) (0) (0) (0) (0) (0) (0) (0) (0) (0) (0) (0) (0))))) (init-mus-color newobj (quote nil)) (set-extra-pairs newobj (quote nil)) (set-patch-pairs newobj (quote nil)) (set-name newobj nil) (set-tonalite newobj nil) newobj)) nil nil (pairlis (quote (scale show-stems obj-mode palette-mode winpos winsize mode grillestep notechancolor? zoom inport outport deltapict cmnpref staff fontsize approx)) (list nil (quote t) 0 0 (om-make-point 40 10) (om-make-point 370 280) 0 1000 nil 1 0 0 (om-make-point 0 0) (let ((newobj (make-instance (quote edition-values)))) (setf (paper-size newobj) (om-make-point 600 800)) (setf (top-margin newobj) 2) (setf (left-margin newobj) 1) (setf (right-margin newobj) 1) (setf (bottom-margin newobj) 1) (setf (orientation newobj) nil) (setf (scale newobj) nil) (setf (system-space newobj) (quote (2 2))) (setf (system-color newobj) (quote nil)) (setf (line-space newobj) 1) (setf (title newobj) nil) (setf (show-title? newobj) nil) (setf (show-page? newobj) nil) (setf (sheet-id newobj) nil) (setf (page-mode newobj) nil) newobj) (list (quote g) (quote g)) 24 2)) t nil nil nil))) (when (fboundp (quote set-active)) (set-active box nil)) box) (let ((box (om-load-boxcall (quote genfun) "CANONS" (quote canons) (quote ((om-load-inputfun (quote input-funbox) "no documentation" "R" nil) (om-load-inputfun (quote input-funbox) "no documentation" "S" nil) (om-load-inputfun (quote input-funbox) "no documentation" "TIMES" 3))) (om-make-point 933 434) nil nil nil nil 1))) (when (fboundp (quote set-active)) (set-active box nil)) box) (let ((box (om-load-boxcall (quote genfun) "CANONS" (quote canons) (quote ((om-load-inputfun (quote input-funbox) "no documentation" "R" nil) (om-load-inputfun (quote input-funbox) "no documentation" "S" nil) (om-load-inputfun (quote input-funbox) "no documentation" "TIMES" 3))) (om-make-point 733 434) nil nil nil nil 1))) (when (fboundp (quote set-active)) (set-active box nil)) box) (let ((box (om-load-boxcall (quote genfun) "N-STRUCTURE" (quote n-structure) (quote ((om-load-inputfun (quote input-funbox) "values" "L" (list 5 7 9)) (om-load-inputfun (quote input-funbox) "n" "N" 12))) (om-make-point 1021 298) nil nil nil nil 1))) (when (fboundp (quote set-active)) (set-active box nil)) box) (let ((box (om-load-boxcall (quote genfun) "N-STRUCTURE" (quote n-structure) (quote ((om-load-inputfun (quote input-funbox) "values" "L" (list 5 7 9)) (om-load-inputfun (quote input-funbox) "n" "N" 12))) (om-make-point 640 298) nil nil nil nil 1))) (when (fboundp (quote set-active)) (set-active box nil)) box) (let ((box (om-load-boxcall (quote lispfun) "FIRST1" (quote first) (quote ((om-load-inputfun (quote input-funbox) "LIST" "LIST" nil))) (om-make-point 924 240) nil nil nil nil 1))) (when (fboundp (quote set-active)) (set-active box nil)) box) (let ((box (om-load-boxcall (quote lispfun) "FIRST" (quote first) (quote ((om-load-inputfun (quote input-funbox) "LIST" "LIST" nil))) (om-make-point 756 237) nil nil nil nil 1))) (when (fboundp (quote set-active)) (set-active box nil)) box) (let ((box (om-load-editor-box1 "N-CERCLE4" (quote n-cercle) (quote ((om-load-inputfun (quote input-funbox) "objs" "SELF" nil) (om-load-inputfun (quote input-funbox) "no documentation" "N" 12) (om-load-inputfun (quote input-funbox) "no documentation" "PUNTOS" (list 0 5 7)))) (om-make-point 901 101) (om-make-point 101 75) (if (find-class (quote n-cercle) nil) (make-instance (quote n-cercle) :n 12 :puntos (list (list 0 6) (list 1 7) (list 2 8) (list 4 10) (list 5 11) (list 9 3)) :from-file t)) "x" nil (pairlis (quote (deltapict outport inport zoom palette-mode obj-mode cmnpref notechancolor? grillestep mode winsize winpos show-stems)) (list (om-make-point 0 0) 0 0 1 0 0 (let ((newobj (make-instance (quote edition-values)))) (setf (paper-size newobj) (om-make-point 600 800)) (setf (top-margin newobj) 2) (setf (left-margin newobj) 1) (setf (right-margin newobj) 1) (setf (bottom-margin newobj) 1) (setf (orientation newobj) nil) (setf (scale newobj) nil) (setf (system-space newobj) (quote (1))) (setf (system-color newobj) (quote nil)) (setf (line-space newobj) 1) (setf (title newobj) nil) (setf (show-title? newobj) nil) (setf (show-page? newobj) nil) (setf (sheet-id newobj) nil) (setf (page-mode newobj) nil) newobj) nil 1000 0 (om-make-point 370 280) (om-make-point 10 40) (quote t))) t nil nil nil))) (when (fboundp (quote set-active)) (set-active box nil)) box) (let ((box (om-load-editor-box1 "N-CERCLE4" (quote n-cercle) (quote ((om-load-inputfun (quote input-funbox) "objs" "SELF" nil) (om-load-inputfun (quote input-funbox) "no documentation" "N" 12) (om-load-inputfun (quote input-funbox) "no documentation" "PUNTOS" (list 0 5 7)))) (om-make-point 646 100) (om-make-point 103 79) (if (find-class (quote n-cercle) nil) (make-instance (quote n-cercle) :n 12 :puntos (list (list 0 1 2 4 5 9) (list 6 7 8 10 11 3)) :from-file t)) "x" nil (pairlis (quote (deltapict outport inport zoom palette-mode obj-mode cmnpref notechancolor? grillestep mode winsize winpos show-stems)) (list (om-make-point 0 0) 0 0 1 0 0 (let ((newobj (make-instance (quote edition-values)))) (setf (paper-size newobj) (om-make-point 600 800)) (setf (top-margin newobj) 2) (setf (left-margin newobj) 1) (setf (right-margin newobj) 1) (setf (bottom-margin newobj) 1) (setf (orientation newobj) nil) (setf (scale newobj) nil) (setf (system-space newobj) (quote (1))) (setf (system-color newobj) (quote nil)) (setf (line-space newobj) 1) (setf (title newobj) nil) (setf (show-title? newobj) nil) (setf (show-page? newobj) nil) (setf (sheet-id newobj) nil) (setf (page-mode newobj) nil) newobj) nil 1000 0 (om-make-point 370 280) (om-make-point 10 40) (quote t))) t nil nil nil))) (when (fboundp (quote set-active)) (set-active box nil)) box) (let ((box (om-load-boxcall (quote genfun) "TRANSP-COMB2" (quote transp-comb) (quote ((om-load-inputfun (quote input-funbox) "no documentation" "A" nil) (om-load-inputfun (quote input-funbox) "no documentation" "TID" nil) (om-load-inputfun (quote input-funbox) "no documentation" "N" 12))) (om-make-point 375 178) nil nil nil nil 1))) (when (fboundp (quote set-active)) (set-active box nil)) box) (let ((box (om-load-editor-box1 "N-CERCLE4" (quote n-cercle) (quote ((om-load-inputfun (quote input-funbox) "objs" "SELF" nil) (om-load-inputfun (quote input-funbox) "no documentation" "N" 12) (om-load-inputfun (quote input-funbox) "no documentation" "PUNTOS" (list 0 5 7)))) (om-make-point 462 365) (om-make-point 84 59) (if (find-class (quote n-cercle) nil) (make-instance (quote n-cercle) :n 12 :puntos (list (list 0 6) (list 1 7) (list 2 8) (list 4 10) (list 5 11) (list 9 3)) :from-file t)) nil nil (pairlis (quote (deltapict outport inport zoom palette-mode obj-mode cmnpref notechancolor? grillestep mode winsize winpos show-stems)) (list (om-make-point 0 0) 0 0 1 0 0 (let ((newobj (make-instance (quote edition-values)))) (setf (paper-size newobj) (om-make-point 600 800)) (setf (top-margin newobj) 2) (setf (left-margin newobj) 1) (setf (right-margin newobj) 1) (setf (bottom-margin newobj) 1) (setf (orientation newobj) nil) (setf (scale newobj) nil) (setf (system-space newobj) (quote (1))) (setf (system-color newobj) (quote nil)) (setf (line-space newobj) 1) (setf (title newobj) nil) (setf (show-title? newobj) nil) (setf (show-page? newobj) nil) (setf (sheet-id newobj) nil) (setf (page-mode newobj) nil) newobj) nil 1000 0 (om-make-point 370 280) (om-make-point 10 40) (quote t))) t nil nil nil))) (when (fboundp (quote set-active)) (set-active box nil)) box) (let ((box (om-load-editor-box1 "N-CERCLE4" (quote n-cercle) (quote ((om-load-inputfun (quote input-funbox) "objs" "SELF" nil) (om-load-inputfun (quote input-funbox) "no documentation" "N" 12) (om-load-inputfun (quote input-funbox) "no documentation" "PUNTOS" (list 0 5 7)))) (om-make-point 364 366) (om-make-point 84 59) (if (find-class (quote n-cercle) nil) (make-instance (quote n-cercle) :n 12 :puntos (list (list 0 1 2 4 5 9) (list 6 7 8 10 11 3)) :from-file t)) nil nil (pairlis (quote (deltapict outport inport zoom palette-mode obj-mode cmnpref notechancolor? grillestep mode winsize winpos show-stems)) (list (om-make-point 0 0) 0 0 1 0 0 (let ((newobj (make-instance (quote edition-values)))) (setf (paper-size newobj) (om-make-point 600 800)) (setf (top-margin newobj) 2) (setf (left-margin newobj) 1) (setf (right-margin newobj) 1) (setf (bottom-margin newobj) 1) (setf (orientation newobj) nil) (setf (scale newobj) nil) (setf (system-space newobj) (quote (1))) (setf (system-color newobj) (quote nil)) (setf (line-space newobj) 1) (setf (title newobj) nil) (setf (show-title? newobj) nil) (setf (show-page? newobj) nil) (setf (sheet-id newobj) nil) (setf (page-mode newobj) nil) newobj) nil 1000 0 (om-make-point 370 280) (om-make-point 10 40) (quote t))) t nil nil nil))) (when (fboundp (quote set-active)) (set-active box nil)) box) (let ((box (om-load-boxcall (quote bastype) "aux3" (quote t) (quote nil) (om-make-point 390 108) (om-make-point 48 30) (list 0 6) "(0 6)" nil))) (when (fboundp (quote set-active)) (set-active box nil)) box) (let ((box (om-load-editor-box1 "N-CERCLE3" (quote n-cercle) (quote ((om-load-inputfun (quote input-funbox) "objs" "SELF" nil) (om-load-inputfun (quote input-funbox) "no documentation" "N" 12) (om-load-inputfun (quote input-funbox) "no documentation" "PUNTOS" (list 0 5 7)))) (om-make-point 253 303) (om-make-point 83 85) (if (find-class (quote n-cercle) nil) (make-instance (quote n-cercle) :n 12 :puntos (list (list 0 1 2 4 5 9)) :from-file t)) nil nil (pairlis (quote (deltapict outport inport zoom palette-mode obj-mode cmnpref notechancolor? grillestep mode winsize winpos show-stems)) (list (om-make-point 0 0) 0 0 1 0 0 (let ((newobj (make-instance (quote edition-values)))) (setf (paper-size newobj) (om-make-point 600 800)) (setf (top-margin newobj) 2) (setf (left-margin newobj) 1) (setf (right-margin newobj) 1) (setf (bottom-margin newobj) 1) (setf (orientation newobj) nil) (setf (scale newobj) nil) (setf (system-space newobj) (quote (1))) (setf (system-color newobj) (quote nil)) (setf (line-space newobj) 1) (setf (title newobj) nil) (setf (show-title? newobj) nil) (setf (show-page? newobj) nil) (setf (sheet-id newobj) nil) (setf (page-mode newobj) nil) newobj) nil 1000 0 (om-make-point 370 280) (om-make-point 10 40) (quote t))) t nil nil nil))) (when (fboundp (quote set-active)) (set-active box nil)) box) (let ((box (om-load-boxcall (quote bastype) "aux" (quote t) (quote nil) (om-make-point 248 180) (om-make-point 27 30) 5 "5" nil))) (when (fboundp (quote set-active)) (set-active box nil)) box) (let ((box (om-load-boxcall (quote lispfun) "NTH1" (quote nth) (quote ((om-load-inputfun (quote input-funbox) "N" "N" nil) (om-load-inputfun (quote input-funbox) "LIST" "LIST" nil))) (om-make-point 271 231) (om-make-point 24 39) nil nil nil 1))) (when (fboundp (quote set-active)) (set-active box nil)) box) (let ((box (om-load-boxcomment "comment" (om-make-point 170 42) (quote "self-complementary$hexachords") "" (om-make-point 64 520) nil (om-make-color 28/85 41/255 1) (om-make-font "Geneva" 12 :family "Geneva" :style (quote (:plain)) :mode (quote nil))))) (when (fboundp (quote set-active)) (set-active box nil)) box) (let ((box (om-load-boxcall (quote genfun) "FAMILLE" (quote famille) (quote ((om-load-inputfun (quote input-funbox) "Zn" "N" 12) (om-load-inputfunmenu1 (quote input-funmenu) "familly" "FAMILLY" "tac" (list (list "tac" "tac") (list "tai" "tai") (list "tic" "tic") (list "ttl" "ttl") (list "tp" "tp") (list "tid" "tid"))) (om-load-inputfun (quote input-funbox) "number of elements" "K" 6) (om-load-inputfun (quote input-funbox) "howmany answers" "HOWMANY" 20))) (om-make-point 110 219) nil (list (list (list 0 2 4 6 8 10) (list 0 1 4 5 8 9) (list 0 1 3 5 8 10) (list 0 1 2 6 7 8) (list 0 1 2 5 9 10) (list 0 1 2 4 5 9) (list 0 1 2 3 5 10) (list 0 1 2 3 4 5))) "x" nil 1))) (when (fboundp (quote set-active)) (set-active box nil)) box) (let ((box (om-load-boxcall (quote bastype) "aux1" (quote t) (quote nil) (om-make-point 120 165) (om-make-point 27 30) 8 "8" nil))) (when (fboundp (quote set-active)) (set-active box nil)) box) (let ((box (om-load-editor-box1 "N-CERCLE1" (quote n-cercle) (quote ((om-load-inputfun (quote input-funbox) "objs" "SELF" nil) (om-load-inputfun (quote input-funbox) "no documentation" "N" 12) (om-load-inputfun (quote input-funbox) "no documentation" "PUNTOS" (list 0 5 7)))) (om-make-point 63 379) (om-make-point 163 130) (if (find-class (quote n-cercle) nil) (make-instance (quote n-cercle) :n 12 :puntos (list (list 0 2 4 6 8 10) (list 2 3 6 7 10 11) (list 2 4 6 7 9 11) (list 0 1 2 6 7 8) (list 0 1 2 5 9 10) (list 0 1 2 4 5 9) (list 0 1 2 3 5 10) (list 0 1 2 3 4 5)) :from-file t)) "x" nil (pairlis (quote (winpos winsize mode grillestep notechancolor? cmnpref zoom inport outport deltapict palette-mode obj-mode show-stems)) (list 2621450 18350450 0 1000 nil (let ((newobj (make-instance (quote edition-values)))) (setf (paper-size newobj) (om-make-point 600 800)) (setf (top-margin newobj) 2) (setf (left-margin newobj) 1) (setf (right-margin newobj) 1) (setf (bottom-margin newobj) 1) (setf (orientation newobj) nil) (setf (scale newobj) nil) (setf (system-space newobj) (quote (1))) (setf (system-color newobj) (quote nil)) (setf (line-space newobj) 1) (setf (title newobj) nil) (setf (show-title? newobj) nil) (setf (show-page? newobj) nil) (setf (sheet-id newobj) nil) (setf (page-mode newobj) nil) newobj) 1 0 0 (om-make-point 0 0) 0 0 (quote t))) t nil nil nil))) (when (fboundp (quote set-active)) (set-active box nil)) box) (let ((box (om-load-boxcomment "comment" (om-make-point 1018 73) (quote "Hexacordal combinatoriality, partitioning and tiling canons") "" (om-make-point 84 4) nil (om-make-color 10/51 52/255 199/255) (om-make-font "Geneva" 36 :family "Geneva" :style (quote (:plain)) :mode (quote nil))))) (when (fboundp (quote set-active)) (set-active box nil)) box))) (quote ((21 0 0 0 nil 0) (18 0 0 1 nil 0) (3 0 1 0 nil 0) (4 0 2 0 nil 0) (16 0 3 0 nil 0) (17 0 4 0 nil 0) (7 0 5 0 nil 0) (8 0 6 0 nil 0) (9 0 7 0 nil 0) (10 0 7 1 nil 1) (10 0 8 0 nil 1) (9 0 8 1 nil 0) (11 0 9 0 nil 0) (12 0 10 0 nil 0) (13 2 11 0 nil 0) (14 2 12 0 nil 0) (18 0 15 0 nil 0) (21 0 15 1 nil 0) (0 0 16 2 nil 0) (15 0 17 2 nil 0) (21 0 19 2 nil 0) (20 0 21 0 nil 0) (23 0 21 1 nil 0) (24 0 23 3 nil 0) (23 0 25 2 nil 0))) nil 6.110002))