; OM File Header - Saved 2009/10/22 17:10:02
; (6.04 :patc (om-make-point 181 105) (om-make-point 50 50) (om-make-point 1201 792) "No documentation " 183 0 nil nil)
; End File Header
(in-package :om)(load-lib-for 'nil)(setf *om-current-persistent* (om-load-patch1 "04-tc+ttl" '((om-load-editor-box1 "MULTI-SEQ1" 'multi-seq '((om-load-inputfun 'input-funbox "objs" "SELF" nil) (om-load-inputfun 'input-funbox "no documentation" "CHORD-SEQS" (list (let ((newobj (when (find-class 'chord-seq nil) (make-instance 'chord-seq :lmidic '((6000)) :lonset '(0 1000) :ldur '((1000)) :lvel '((100)) :loffset '((0)) :lchan '((1)) :legato 0)))) (load-port-info newobj '((0))) (init-mus-color newobj (list (list nil (om-make-color 0 0 0)) (list (list 0) (om-make-color 0 0 0)) (list (list 0 0) (om-make-color 0 0 0)))) (set-extra-pairs newobj 'nil) (set-patch-pairs newobj 'nil) (set-tonalite newobj nil) newobj)))) (om-make-point 1015 458) (om-make-point 164 224) (if (find-class 'multi-seq nil) (let ((newobj (make-instance 'multi-seq :chord-seqs (list (let ((newobj (when (find-class 'chord-seq nil) (make-instance 'chord-seq :lmidic '((6100) (6100) (6100) (6100) (6100) (6100) (6100) (6100) (6100) (6100) (6100) (6100) (6100) (6100) (6100) (6100) (6100) (6100)) :lonset '(0 500 2000 2500 4000 4500 6000 6500 8000 8500 10000 10500 12000 12500 14000 14500 16000 16500 18250) :ldur '((1000) (1000) (1000) (1000) (1000) (1000) (1000) (1000) (1000) (1000) (1000) (1000) (1000) (1000) (1000) (1000) (1000) (1000)) :lvel '((100) (100) (100) (100) (100) (100) (100) (100) (100) (100) (100) (100) (100) (100) (100) (100) (100) (100)) :loffset '((0) (0) (0) (0) (0) (0) (0) (0) (0) (0) (0) (0) (0) (0) (0) (0) (0) (0)) :lchan '((1) (1) (1) (1) (1) (1) (1) (1) (1) (1) (1) (1) (1) (1) (1) (1) (1) (1)) :legato 0)))) (load-port-info newobj '((0) (0) (0) (0) (0) (0) (0) (0) (0) (0) (0) (0) (0) (0) (0) (0) (0) (0))) (init-mus-color newobj nil) (set-extra-pairs newobj 'nil) (set-patch-pairs newobj 'nil) (set-tonalite newobj nil) newobj) (let ((newobj (when (find-class 'chord-seq nil) (make-instance 'chord-seq :lmidic '((6200) (6200) (6200) (6200) (6200) (6200) (6200) (6200) (6200) (6200) (6200) (6200) (6200) (6200) (6200) (6200) (6200) (6200)) :lonset '(250 750 2250 2750 4250 4750 6250 6750 8250 8750 10250 10750 12250 12750 14250 14750 16250 16750 18250) :ldur '((1000) (1000) (1000) (1000) (1000) (1000) (1000) (1000) (1000) (1000) (1000) (1000) (1000) (1000) (1000) (1000) (1000) (1000)) :lvel '((100) (100) (100) (100) (100) (100) (100) (100) (100) (100) (100) (100) (100) (100) (100) (100) (100) (100)) :loffset '((0) (0) (0) (0) (0) (0) (0) (0) (0) (0) (0) (0) (0) (0) (0) (0) (0) (0)) :lchan '((2) (2) (2) (2) (2) (2) (2) (2) (2) (2) (2) (2) (2) (2) (2) (2) (2) (2)) :legato 0)))) (load-port-info newobj '((0) (0) (0) (0) (0) (0) (0) (0) (0) (0) (0) (0) (0) (0) (0) (0) (0) (0))) (init-mus-color newobj nil) (set-extra-pairs newobj 'nil) (set-patch-pairs newobj 'nil) (set-tonalite newobj nil) newobj) (let ((newobj (when (find-class 'chord-seq nil) (make-instance 'chord-seq :lmidic '((6300) (6300) (6300) (6300) (6300) (6300) (6300) (6300) (6300) (6300) (6300) (6300) (6300) (6300) (6300) (6300) (6300) (6300)) :lonset '(1000 1500 3000 3500 5000 5500 7000 7500 9000 9500 11000 11500 13000 13500 15000 15500 17000 17500 18250) :ldur '((1000) (1000) (1000) (1000) (1000) (1000) (1000) (1000) (1000) (1000) (1000) (1000) (1000) (1000) (1000) (1000) (1000) (1000)) :lvel '((100) (100) (100) (100) (100) (100) (100) (100) (100) (100) (100) (100) (100) (100) (100) (100) (100) (100)) :loffset '((0) (0) (0) (0) (0) (0) (0) (0) (0) (0) (0) (0) (0) (0) (0) (0) (0) (0)) :lchan '((3) (3) (3) (3) (3) (3) (3) (3) (3) (3) (3) (3) (3) (3) (3) (3) (3) (3)) :legato 0)))) (load-port-info newobj '((0) (0) (0) (0) (0) (0) (0) (0) (0) (0) (0) (0) (0) (0) (0) (0) (0) (0))) (init-mus-color newobj nil) (set-extra-pairs newobj 'nil) (set-patch-pairs newobj 'nil) (set-tonalite newobj nil) newobj) (let ((newobj (when (find-class 'chord-seq nil) (make-instance 'chord-seq :lmidic '((6400) (6400) (6400) (6400) (6400) (6400) (6400) (6400) (6400) (6400) (6400) (6400) (6400) (6400) (6400) (6400) (6400) (6400)) :lonset '(1250 1750 3250 3750 5250 5750 7250 7750 9250 9750 11250 11750 13250 13750 15250 15750 17250 17750 18250) :ldur '((1000) (1000) (1000) (1000) (1000) (1000) (1000) (1000) (1000) (1000) (1000) (1000) (1000) (1000) (1000) (1000) (1000) (1000)) :lvel '((100) (100) (100) (100) (100) (100) (100) (100) (100) (100) (100) (100) (100) (100) (100) (100) (100) (100)) :loffset '((0) (0) (0) (0) (0) (0) (0) (0) (0) (0) (0) (0) (0) (0) (0) (0) (0) (0)) :lchan '((4) (4) (4) (4) (4) (4) (4) (4) (4) (4) (4) (4) (4) (4) (4) (4) (4) (4)) :legato 0)))) (load-port-info newobj '((0) (0) (0) (0) (0) (0) (0) (0) (0) (0) (0) (0) (0) (0) (0) (0) (0) (0))) (init-mus-color newobj nil) (set-extra-pairs newobj 'nil) (set-patch-pairs newobj 'nil) (set-tonalite newobj nil) newobj)) :from-file t))) (load-port-info newobj '(((0) (0) (0) (0) (0) (0) (0) (0) (0) (0) (0) (0) (0) (0) (0) (0) (0) (0)) ((0) (0) (0) (0) (0) (0) (0) (0) (0) (0) (0) (0) (0) (0) (0) (0) (0) (0)) ((0) (0) (0) (0) (0) (0) (0) (0) (0) (0) (0) (0) (0) (0) (0) (0) (0) (0)) ((0) (0) (0) (0) (0) (0) (0) (0) (0) (0) (0) (0) (0) (0) (0) (0) (0) (0)))) (init-mus-color newobj (list (list nil (om-make-color 0 0 0)) (list (list 0) (om-make-color 0 0 0)) (list (list 0 0) (om-make-color 0 0 0)) (list (list 0 0 0) (om-make-color 0 0 0)) (list (list 0 1) (om-make-color 0 0 0)) (list (list 0 1 0) (om-make-color 0 0 0)) (list (list 0 2) (om-make-color 0 0 0)) (list (list 0 2 0) (om-make-color 0 0 0)) (list (list 0 3) (om-make-color 0 0 0)) (list (list 0 3 0) (om-make-color 0 0 0)) (list (list 0 4) (om-make-color 0 0 0)) (list (list 0 4 0) (om-make-color 0 0 0)) (list (list 0 5) (om-make-color 0 0 0)) (list (list 0 5 0) (om-make-color 0 0 0)) (list (list 0 6) (om-make-color 0 0 0)) (list (list 0 6 0) (om-make-color 0 0 0)) (list (list 0 7) (om-make-color 0 0 0)) (list (list 0 7 0) (om-make-color 0 0 0)) (list (list 0 8) (om-make-color 0 0 0)) (list (list 0 8 0) (om-make-color 0 0 0)) (list (list 0 9) (om-make-color 0 0 0)) (list (list 0 9 0) (om-make-color 0 0 0)) (list (list 0 10) (om-make-color 0 0 0)) (list (list 0 10 0) (om-make-color 0 0 0)) (list (list 0 11) (om-make-color 0 0 0)) (list (list 0 11 0) (om-make-color 0 0 0)) (list (list 0 12) (om-make-color 0 0 0)) (list (list 0 12 0) (om-make-color 0 0 0)) (list (list 0 13) (om-make-color 0 0 0)) (list (list 0 13 0) (om-make-color 0 0 0)) (list (list 0 14) (om-make-color 0 0 0)) (list (list 0 14 0) (om-make-color 0 0 0)) (list (list 0 15) (om-make-color 0 0 0)) (list (list 0 15 0) (om-make-color 0 0 0)) (list (list 0 16) (om-make-color 0 0 0)) (list (list 0 16 0) (om-make-color 0 0 0)) (list (list 0 17) (om-make-color 0 0 0)) (list (list 0 17 0) (om-make-color 0 0 0)) (list (list 1) (om-make-color 0 0 0)) (list (list 1 0) (om-make-color 0 0 0)) (list (list 1 0 0) (om-make-color 0 0 0)) (list (list 1 1) (om-make-color 0 0 0)) (list (list 1 1 0) (om-make-color 0 0 0)) (list (list 1 2) (om-make-color 0 0 0)) (list (list 1 2 0) (om-make-color 0 0 0)) (list (list 1 3) (om-make-color 0 0 0)) (list (list 1 3 0) (om-make-color 0 0 0)) (list (list 1 4) (om-make-color 0 0 0)) (list (list 1 4 0) (om-make-color 0 0 0)) (list (list 1 5) (om-make-color 0 0 0)) (list (list 1 5 0) (om-make-color 0 0 0)) (list (list 1 6) (om-make-color 0 0 0)) (list (list 1 6 0) (om-make-color 0 0 0)) (list (list 1 7) (om-make-color 0 0 0)) (list (list 1 7 0) (om-make-color 0 0 0)) (list (list 1 8) (om-make-color 0 0 0)) (list (list 1 8 0) (om-make-color 0 0 0)) (list (list 1 9) (om-make-color 0 0 0)) (list (list 1 9 0) (om-make-color 0 0 0)) (list (list 1 10) (om-make-color 0 0 0)) (list (list 1 10 0) (om-make-color 0 0 0)) (list (list 1 11) (om-make-color 0 0 0)) (list (list 1 11 0) (om-make-color 0 0 0)) (list (list 1 12) (om-make-color 0 0 0)) (list (list 1 12 0) (om-make-color 0 0 0)) (list (list 1 13) (om-make-color 0 0 0)) (list (list 1 13 0) (om-make-color 0 0 0)) (list (list 1 14) (om-make-color 0 0 0)) (list (list 1 14 0) (om-make-color 0 0 0)) (list (list 1 15) (om-make-color 0 0 0)) (list (list 1 15 0) (om-make-color 0 0 0)) (list (list 1 16) (om-make-color 0 0 0)) (list (list 1 16 0) (om-make-color 0 0 0)) (list (list 1 17) (om-make-color 0 0 0)) (list (list 1 17 0) (om-make-color 0 0 0)) (list (list 2) (om-make-color 0 0 0)) (list (list 2 0) (om-make-color 0 0 0)) (list (list 2 0 0) (om-make-color 0 0 0)) (list (list 2 1) (om-make-color 0 0 0)) (list (list 2 1 0) (om-make-color 0 0 0)) (list (list 2 2) (om-make-color 0 0 0)) (list (list 2 2 0) (om-make-color 0 0 0)) (list (list 2 3) (om-make-color 0 0 0)) (list (list 2 3 0) (om-make-color 0 0 0)) (list (list 2 4) (om-make-color 0 0 0)) (list (list 2 4 0) (om-make-color 0 0 0)) (list (list 2 5) (om-make-color 0 0 0)) (list (list 2 5 0) (om-make-color 0 0 0)) (list (list 2 6) (om-make-color 0 0 0)) (list (list 2 6 0) (om-make-color 0 0 0)) (list (list 2 7) (om-make-color 0 0 0)) (list (list 2 7 0) (om-make-color 0 0 0)) (list (list 2 8) (om-make-color 0 0 0)) (list (list 2 8 0) (om-make-color 0 0 0)) (list (list 2 9) (om-make-color 0 0 0)) (list (list 2 9 0) (om-make-color 0 0 0)) (list (list 2 10) (om-make-color 0 0 0)) (list (list 2 10 0) (om-make-color 0 0 0)) (list (list 2 11) (om-make-color 0 0 0)) (list (list 2 11 0) (om-make-color 0 0 0)) (list (list 2 12) (om-make-color 0 0 0)) (list (list 2 12 0) (om-make-color 0 0 0)) (list (list 2 13) (om-make-color 0 0 0)) (list (list 2 13 0) (om-make-color 0 0 0)) (list (list 2 14) (om-make-color 0 0 0)) (list (list 2 14 0) (om-make-color 0 0 0)) (list (list 2 15) (om-make-color 0 0 0)) (list (list 2 15 0) (om-make-color 0 0 0)) (list (list 2 16) (om-make-color 0 0 0)) (list (list 2 16 0) (om-make-color 0 0 0)) (list (list 2 17) (om-make-color 0 0 0)) (list (list 2 17 0) (om-make-color 0 0 0)) (list (list 3) (om-make-color 0 0 0)) (list (list 3 0) (om-make-color 0 0 0)) (list (list 3 0 0) (om-make-color 0 0 0)) (list (list 3 1) (om-make-color 0 0 0)) (list (list 3 1 0) (om-make-color 0 0 0)) (list (list 3 2) (om-make-color 0 0 0)) (list (list 3 2 0) (om-make-color 0 0 0)) (list (list 3 3) (om-make-color 0 0 0)) (list (list 3 3 0) (om-make-color 0 0 0)) (list (list 3 4) (om-make-color 0 0 0)) (list (list 3 4 0) (om-make-color 0 0 0)) (list (list 3 5) (om-make-color 0 0 0)) (list (list 3 5 0) (om-make-color 0 0 0)) (list (list 3 6) (om-make-color 0 0 0)) (list (list 3 6 0) (om-make-color 0 0 0)) (list (list 3 7) (om-make-color 0 0 0)) (list (list 3 7 0) (om-make-color 0 0 0)) (list (list 3 8) (om-make-color 0 0 0)) (list (list 3 8 0) (om-make-color 0 0 0)) (list (list 3 9) (om-make-color 0 0 0)) (list (list 3 9 0) (om-make-color 0 0 0)) (list (list 3 10) (om-make-color 0 0 0)) (list (list 3 10 0) (om-make-color 0 0 0)) (list (list 3 11) (om-make-color 0 0 0)) (list (list 3 11 0) (om-make-color 0 0 0)) (list (list 3 12) (om-make-color 0 0 0)) (list (list 3 12 0) (om-make-color 0 0 0)) (list (list 3 13) (om-make-color 0 0 0)) (list (list 3 13 0) (om-make-color 0 0 0)) (list (list 3 14) (om-make-color 0 0 0)) (list (list 3 14 0) (om-make-color 0 0 0)) (list (list 3 15) (om-make-color 0 0 0)) (list (list 3 15 0) (om-make-color 0 0 0)) (list (list 3 16) (om-make-color 0 0 0)) (list (list 3 16 0) (om-make-color 0 0 0)) (list (list 3 17) (om-make-color 0 0 0)) (list (list 3 17 0) (om-make-color 0 0 0)))) (set-extra-pairs newobj 'nil) (set-patch-pairs newobj '((nil (om-load-patch-abs1 "patch" 'nil 'nil 5.0 nil)))) (set-tonalite newobj nil) newobj)) "x" nil (corrige (pairlis '(show-stems obj-mode palette-mode winpos winsize mode grillestep notechancolor? zoom inport outport deltapict cmnpref staff fontsize approx) (list 't 0 0 2621450 18350450 0 250 nil 1 0 0 (om-make-point 0 0) (let ((newobj (make-instance 'edition-values))) (setf (paper-size newobj) (om-make-point 600 800)) (setf (top-margin newobj) 2) (setf (left-margin newobj) 1) (setf (right-margin newobj) 1) (setf (bottom-margin newobj) 1) (setf (orientation newobj) nil) (setf (scale newobj) nil) (setf (system-space newobj) '(1 1 1 1)) (setf (line-space newobj) 1) (setf (title newobj) nil) (setf (show-title? newobj) nil) (setf (show-page? newobj) nil) (setf (sheet-id newobj) nil) (setf (page-mode newobj) nil) newobj) (list 'g 'g 'g 'g) 24 2))) t nil nil) (om-load-boxcall 'genfun "N-STRUCTURE2" 'n-structure '((om-load-inputfun 'input-funbox "values" "L" (list 5 7 9)) (om-load-inputfun 'input-funbox "n" "N" 24)) (om-make-point 1090 176) nil nil nil nil 1) (om-load-boxcall 'genfun "N-STRUCTURE1" 'n-structure '((om-load-inputfun 'input-funbox "values" "L" (list 5 7 9)) (om-load-inputfun 'input-funbox "n" "N" 24)) (om-make-point 1013 176) nil nil nil nil 1) (om-load-boxcall 'genfun "CANONS1" 'canons '((om-load-inputfun 'input-funbox "no documentation" "R" nil) (om-load-inputfun 'input-funbox "no documentation" "S" nil) (om-load-inputfun 'input-funbox "no documentation" "TIMES" 3)) (om-make-point 1052 342) nil nil nil nil 1) (om-load-boxcall 'genfun "TRANSP-COMB21" 'transp-comb '((om-load-inputfun 'input-funbox "no documentation" "A" nil) (om-load-inputfun 'input-funbox "no documentation" "TID" nil) (om-load-inputfun 'input-funbox "no documentation" "N" 24)) (om-make-point 781 134) nil nil nil nil 1) (om-load-boxcall 'genfun "TRANSP-COMB2" 'transp-comb '((om-load-inputfun 'input-funbox "no documentation" "A" nil) (om-load-inputfun 'input-funbox "no documentation" "TID" nil) (om-load-inputfun 'input-funbox "no documentation" "N" 24)) (om-make-point 929 131) nil nil nil nil 1) (om-load-boxcall 'genfun "TRANSP-COMB" 'transp-comb '((om-load-inputfun 'input-funbox "no documentation" "A" nil) (om-load-inputfun 'input-funbox "no documentation" "TID" nil) (om-load-inputfun 'input-funbox "no documentation" "N" 12)) (om-make-point 590 210) nil nil nil nil 1) (om-load-editor-box1 "MULTI-SEQ" 'multi-seq '((om-load-inputfun 'input-funbox "objs" "SELF" nil) (om-load-inputfun 'input-funbox "no documentation" "CHORD-SEQS" (list (let ((newobj (when (find-class 'chord-seq nil) (make-instance 'chord-seq :lmidic '((6000)) :lonset '(0 1000) :ldur '((1000)) :lvel '((100)) :loffset '((0)) :lchan '((1)) :legato 0)))) (load-port-info newobj '((0))) (init-mus-color newobj (list (list nil (om-make-color 0 0 0)) (list (list 0) (om-make-color 0 0 0)) (list (list 0 0) (om-make-color 0 0 0)))) (set-extra-pairs newobj 'nil) (set-patch-pairs newobj 'nil) (set-tonalite newobj nil) newobj)))) (om-make-point 10 464) (om-make-point 164 224) (if (find-class 'multi-seq nil) (let ((newobj (make-instance 'multi-seq :chord-seqs (list (let ((newobj (when (find-class 'chord-seq nil) (make-instance 'chord-seq :lmidic '((6100) (6100) (6100) (6100) (6100) (6100) (6100) (6100) (6100) (6100) (6100) (6100) (6100) (6100) (6100) (6100) (6100) (6100)) :lonset '(0 250 500 1500 1750 2000 3000 3250 3500 4500 4750 5000 6000 6250 6500 7500 7750 8000 9000) :ldur '((1000) (1000) (1000) (1000) (1000) (1000) (1000) (1000) (1000) (1000) (1000) (1000) (1000) (1000) (1000) (1000) (1000) (1000)) :lvel '((100) (100) (100) (100) (100) (100) (100) (100) (100) (100) (100) (100) (100) (100) (100) (100) (100) (100)) :loffset '((0) (0) (0) (0) (0) (0) (0) (0) (0) (0) (0) (0) (0) (0) (0) (0) (0) (0)) :lchan '((1) (1) (1) (1) (1) (1) (1) (1) (1) (1) (1) (1) (1) (1) (1) (1) (1) (1)) :legato 0)))) (load-port-info newobj '((0) (0) (0) (0) (0) (0) (0) (0) (0) (0) (0) (0) (0) (0) (0) (0) (0) (0))) (init-mus-color newobj nil) (set-extra-pairs newobj 'nil) (set-patch-pairs newobj 'nil) (set-tonalite newobj nil) newobj) (let ((newobj (when (find-class 'chord-seq nil) (make-instance 'chord-seq :lmidic '((6200) (6200) (6200) (6200) (6200) (6200) (6200) (6200) (6200) (6200) (6200) (6200) (6200) (6200) (6200) (6200) (6200) (6200)) :lonset '(750 1000 1250 2250 2500 2750 3750 4000 4250 5250 5500 5750 6750 7000 7250 8250 8500 8750 9000) :ldur '((1000) (1000) (1000) (1000) (1000) (1000) (1000) (1000) (1000) (1000) (1000) (1000) (1000) (1000) (1000) (1000) (1000) (1000)) :lvel '((100) (100) (100) (100) (100) (100) (100) (100) (100) (100) (100) (100) (100) (100) (100) (100) (100) (100)) :loffset '((0) (0) (0) (0) (0) (0) (0) (0) (0) (0) (0) (0) (0) (0) (0) (0) (0) (0)) :lchan '((2) (2) (2) (2) (2) (2) (2) (2) (2) (2) (2) (2) (2) (2) (2) (2) (2) (2)) :legato 0)))) (load-port-info newobj '((0) (0) (0) (0) (0) (0) (0) (0) (0) (0) (0) (0) (0) (0) (0) (0) (0) (0))) (init-mus-color newobj nil) (set-extra-pairs newobj 'nil) (set-patch-pairs newobj 'nil) (set-tonalite newobj nil) newobj)) :from-file t))) (load-port-info newobj '(((0) (0) (0) (0) (0) (0) (0) (0) (0) (0) (0) (0) (0) (0) (0) (0) (0) (0)) ((0) (0) (0) (0) (0) (0) (0) (0) (0) (0) (0) (0) (0) (0) (0) (0) (0) (0)))) (init-mus-color newobj (list (list nil (om-make-color 0 0 0)) (list (list 0) (om-make-color 0 0 0)) (list (list 0 0) (om-make-color 0 0 0)) (list (list 0 0 0) (om-make-color 0 0 0)) (list (list 0 1) (om-make-color 0 0 0)) (list (list 0 1 0) (om-make-color 0 0 0)) (list (list 0 2) (om-make-color 0 0 0)) (list (list 0 2 0) (om-make-color 0 0 0)) (list (list 0 3) (om-make-color 0 0 0)) (list (list 0 3 0) (om-make-color 0 0 0)) (list (list 0 4) (om-make-color 0 0 0)) (list (list 0 4 0) (om-make-color 0 0 0)) (list (list 0 5) (om-make-color 0 0 0)) (list (list 0 5 0) (om-make-color 0 0 0)) (list (list 0 6) (om-make-color 0 0 0)) (list (list 0 6 0) (om-make-color 0 0 0)) (list (list 0 7) (om-make-color 0 0 0)) (list (list 0 7 0) (om-make-color 0 0 0)) (list (list 0 8) (om-make-color 0 0 0)) (list (list 0 8 0) (om-make-color 0 0 0)) (list (list 0 9) (om-make-color 0 0 0)) (list (list 0 9 0) (om-make-color 0 0 0)) (list (list 0 10) (om-make-color 0 0 0)) (list (list 0 10 0) (om-make-color 0 0 0)) (list (list 0 11) (om-make-color 0 0 0)) (list (list 0 11 0) (om-make-color 0 0 0)) (list (list 0 12) (om-make-color 0 0 0)) (list (list 0 12 0) (om-make-color 0 0 0)) (list (list 0 13) (om-make-color 0 0 0)) (list (list 0 13 0) (om-make-color 0 0 0)) (list (list 0 14) (om-make-color 0 0 0)) (list (list 0 14 0) (om-make-color 0 0 0)) (list (list 0 15) (om-make-color 0 0 0)) (list (list 0 15 0) (om-make-color 0 0 0)) (list (list 0 16) (om-make-color 0 0 0)) (list (list 0 16 0) (om-make-color 0 0 0)) (list (list 0 17) (om-make-color 0 0 0)) (list (list 0 17 0) (om-make-color 0 0 0)) (list (list 1) (om-make-color 0 0 0)) (list (list 1 0) (om-make-color 0 0 0)) (list (list 1 0 0) (om-make-color 0 0 0)) (list (list 1 1) (om-make-color 0 0 0)) (list (list 1 1 0) (om-make-color 0 0 0)) (list (list 1 2) (om-make-color 0 0 0)) (list (list 1 2 0) (om-make-color 0 0 0)) (list (list 1 3) (om-make-color 0 0 0)) (list (list 1 3 0) (om-make-color 0 0 0)) (list (list 1 4) (om-make-color 0 0 0)) (list (list 1 4 0) (om-make-color 0 0 0)) (list (list 1 5) (om-make-color 0 0 0)) (list (list 1 5 0) (om-make-color 0 0 0)) (list (list 1 6) (om-make-color 0 0 0)) (list (list 1 6 0) (om-make-color 0 0 0)) (list (list 1 7) (om-make-color 0 0 0)) (list (list 1 7 0) (om-make-color 0 0 0)) (list (list 1 8) (om-make-color 0 0 0)) (list (list 1 8 0) (om-make-color 0 0 0)) (list (list 1 9) (om-make-color 0 0 0)) (list (list 1 9 0) (om-make-color 0 0 0)) (list (list 1 10) (om-make-color 0 0 0)) (list (list 1 10 0) (om-make-color 0 0 0)) (list (list 1 11) (om-make-color 0 0 0)) (list (list 1 11 0) (om-make-color 0 0 0)) (list (list 1 12) (om-make-color 0 0 0)) (list (list 1 12 0) (om-make-color 0 0 0)) (list (list 1 13) (om-make-color 0 0 0)) (list (list 1 13 0) (om-make-color 0 0 0)) (list (list 1 14) (om-make-color 0 0 0)) (list (list 1 14 0) (om-make-color 0 0 0)) (list (list 1 15) (om-make-color 0 0 0)) (list (list 1 15 0) (om-make-color 0 0 0)) (list (list 1 16) (om-make-color 0 0 0)) (list (list 1 16 0) (om-make-color 0 0 0)) (list (list 1 17) (om-make-color 0 0 0)) (list (list 1 17 0) (om-make-color 0 0 0)))) (set-extra-pairs newobj 'nil) (set-patch-pairs newobj 'nil) (set-tonalite newobj nil) newobj)) nil nil (corrige (pairlis '(show-stems obj-mode palette-mode winpos winsize mode grillestep notechancolor? zoom inport outport deltapict cmnpref staff fontsize approx) (list 't 0 0 2621450 18350450 0 250 nil 1 0 0 (om-make-point 0 0) (let ((newobj (make-instance 'edition-values))) (setf (paper-size newobj) (om-make-point 600 800)) (setf (top-margin newobj) 2) (setf (left-margin newobj) 1) (setf (right-margin newobj) 1) (setf (bottom-margin newobj) 1) (setf (orientation newobj) nil) (setf (scale newobj) nil) (setf (system-space newobj) '(1 1)) (setf (line-space newobj) 1) (setf (title newobj) nil) (setf (show-title? newobj) nil) (setf (show-page? newobj) nil) (setf (sheet-id newobj) nil) (setf (page-mode newobj) nil) newobj) (list 'g 'g) 24 2))) t nil nil) (om-load-boxcall 'genfun "N-STRUCTURE" 'n-structure '((om-load-inputfun 'input-funbox "values" "L" (list 5 7 9)) (om-load-inputfun 'input-funbox "n" "N" 12)) (om-make-point 85 182) nil nil nil nil 1) (om-load-boxcall 'genfun "N-STRUCTURE" 'n-structure '((om-load-inputfun 'input-funbox "values" "L" (list 5 7 9)) (om-load-inputfun 'input-funbox "n" "N" 12)) (om-make-point 8 182) nil nil nil nil 1) (om-load-boxcall 'genfun "CANONS" 'canons '((om-load-inputfun 'input-funbox "no documentation" "R" nil) (om-load-inputfun 'input-funbox "no documentation" "S" nil) (om-load-inputfun 'input-funbox "no documentation" "TIMES" 3)) (om-make-point 47 348) nil nil nil nil 1) (om-load-editor-box1 "N-CERCLE4" 'n-cercle '((om-load-inputfun 'input-funbox "objs" "SELF" nil) (om-load-inputfun 'input-funbox "no documentation" "N" 12) (om-load-inputfun 'input-funbox "no documentation" "PUNTOS" (list 0 5 7))) (om-make-point 180 548) (om-make-point 119 137) (if (find-class 'n-cercle nil) (make-instance 'n-cercle :n 12 :puntos (list (list 0 1 2 6 7 8) (list 3 4 5 9 10 11)) :from-file t)) nil nil (corrige (pairlis '(show-stems winpos winsize mode grillestep notechancolor? cmnpref obj-mode palette-mode zoom inport outport deltapict) (list 't 2621450 18350450 0 1000 nil (let ((newobj (make-instance 'edition-values))) (setf (paper-size newobj) (om-make-point 600 800)) (setf (top-margin newobj) 2) (setf (left-margin newobj) 1) (setf (right-margin newobj) 1) (setf (bottom-margin newobj) 1) (setf (orientation newobj) nil) (setf (scale newobj) nil) (setf (system-space newobj) '(1)) (setf (line-space newobj) 1) (setf (title newobj) nil) (setf (show-title? newobj) nil) (setf (show-page? newobj) nil) (setf (sheet-id newobj) nil) (setf (page-mode newobj) nil) newobj) 0 0 1 0 0 (om-make-point 0 0)))) t nil nil) (om-load-boxcall 'bastype "aux3" 't 'nil (om-make-point 201 86) (om-make-point 42 20) (list 0 3) "(0 3)" nil) (om-load-boxcall 'bastype "aux" 't 'nil (om-make-point 22 85) (om-make-point 105 20) (list 0 1 2 6 7 8) "(0 1 2 6 7 8)" nil) (om-load-boxcall 'genfun "TRANSP-COMB" 'transp-comb '((om-load-inputfun 'input-funbox "no documentation" "A" nil) (om-load-inputfun 'input-funbox "no documentation" "TID" nil) (om-load-inputfun 'input-funbox "no documentation" "N" 12)) (om-make-point 160 182) nil nil nil nil 1) (om-load-boxcall 'genfun "TRANSP-COMB" 'transp-comb '((om-load-inputfun 'input-funbox "no documentation" "A" nil) (om-load-inputfun 'input-funbox "no documentation" "TID" nil) (om-load-inputfun 'input-funbox "no documentation" "N" 12)) (om-make-point 418 192) nil nil nil nil 1) (om-load-boxcall 'genfun "TRANSP-COMB" 'transp-comb '((om-load-inputfun 'input-funbox "no documentation" "A" nil) (om-load-inputfun 'input-funbox "no documentation" "TID" nil) (om-load-inputfun 'input-funbox "no documentation" "N" 12)) (om-make-point 691 204) nil nil nil nil 1) (om-load-editor-box1 "MULTI-SEQ" 'multi-seq '((om-load-inputfun 'input-funbox "objs" "SELF" nil) (om-load-inputfun 'input-funbox "no documentation" "CHORD-SEQS" (list (let ((newobj (when (find-class 'chord-seq nil) (make-instance 'chord-seq :lmidic '((6000)) :lonset '(0 1000) :ldur '((1000)) :lvel '((100)) :loffset '((0)) :lchan '((1)) :legato 0)))) (load-port-info newobj '((0))) (init-mus-color newobj (list (list nil (om-make-color 0 0 0)) (list (list 0) (om-make-color 0 0 0)) (list (list 0 0) (om-make-color 0 0 0)))) (set-extra-pairs newobj 'nil) (set-patch-pairs newobj 'nil) (set-tonalite newobj nil) newobj)))) (om-make-point 306 463) (om-make-point 164 224) (if (find-class 'multi-seq nil) (let ((newobj (make-instance 'multi-seq :chord-seqs (list (let ((newobj (when (find-class 'chord-seq nil) (make-instance 'chord-seq :lmidic '((6100) (6100) (6100) (6100) (6100) (6100)) :lonset '(0 750 3000 3750 6000 6750 9500) :ldur '((1000) (1000) (1000) (1000) (1000) (1000)) :lvel '((100) (100) (100) (100) (100) (100)) :loffset '((0) (0) (0) (0) (0) (0)) :lchan '((1) (1) (1) (1) (1) (1)) :legato 0)))) (load-port-info newobj '((0) (0) (0) (0) (0) (0))) (init-mus-color newobj nil) (set-extra-pairs newobj 'nil) (set-patch-pairs newobj 'nil) (set-tonalite newobj nil) newobj) (let ((newobj (when (find-class 'chord-seq nil) (make-instance 'chord-seq :lmidic '((6200) (6200) (6200) (6200) (6200) (6200)) :lonset '(250 1000 3250 4000 6250 7000 9500) :ldur '((1000) (1000) (1000) (1000) (1000) (1000)) :lvel '((100) (100) (100) (100) (100) (100)) :loffset '((0) (0) (0) (0) (0) (0)) :lchan '((2) (2) (2) (2) (2) (2)) :legato 0)))) (load-port-info newobj '((0) (0) (0) (0) (0) (0))) (init-mus-color newobj nil) (set-extra-pairs newobj 'nil) (set-patch-pairs newobj 'nil) (set-tonalite newobj nil) newobj) (let ((newobj (when (find-class 'chord-seq nil) (make-instance 'chord-seq :lmidic '((6300) (6300) (6300) (6300) (6300) (6300)) :lonset '(500 1250 3500 4250 6500 7250 9500) :ldur '((1000) (1000) (1000) (1000) (1000) (1000)) :lvel '((100) (100) (100) (100) (100) (100)) :loffset '((0) (0) (0) (0) (0) (0)) :lchan '((3) (3) (3) (3) (3) (3)) :legato 0)))) (load-port-info newobj '((0) (0) (0) (0) (0) (0))) (init-mus-color newobj nil) (set-extra-pairs newobj 'nil) (set-patch-pairs newobj 'nil) (set-tonalite newobj nil) newobj) (let ((newobj (when (find-class 'chord-seq nil) (make-instance 'chord-seq :lmidic '((6400) (6400) (6400) (6400) (6400) (6400)) :lonset '(1500 2250 4500 5250 7500 8250 9500) :ldur '((1000) (1000) (1000) (1000) (1000) (1000)) :lvel '((100) (100) (100) (100) (100) (100)) :loffset '((0) (0) (0) (0) (0) (0)) :lchan '((4) (4) (4) (4) (4) (4)) :legato 0)))) (load-port-info newobj '((0) (0) (0) (0) (0) (0))) (init-mus-color newobj nil) (set-extra-pairs newobj 'nil) (set-patch-pairs newobj 'nil) (set-tonalite newobj nil) newobj) (let ((newobj (when (find-class 'chord-seq nil) (make-instance 'chord-seq :lmidic '((6500) (6500) (6500) (6500) (6500) (6500)) :lonset '(1750 2500 4750 5500 7750 8500 9500) :ldur '((1000) (1000) (1000) (1000) (1000) (1000)) :lvel '((100) (100) (100) (100) (100) (100)) :loffset '((0) (0) (0) (0) (0) (0)) :lchan '((5) (5) (5) (5) (5) (5)) :legato 0)))) (load-port-info newobj '((0) (0) (0) (0) (0) (0))) (init-mus-color newobj nil) (set-extra-pairs newobj 'nil) (set-patch-pairs newobj 'nil) (set-tonalite newobj nil) newobj) (let ((newobj (when (find-class 'chord-seq nil) (make-instance 'chord-seq :lmidic '((6600) (6600) (6600) (6600) (6600) (6600)) :lonset '(2000 2750 5000 5750 8000 8750 9500) :ldur '((1000) (1000) (1000) (1000) (1000) (1000)) :lvel '((100) (100) (100) (100) (100) (100)) :loffset '((0) (0) (0) (0) (0) (0)) :lchan '((6) (6) (6) (6) (6) (6)) :legato 0)))) (load-port-info newobj '((0) (0) (0) (0) (0) (0))) (init-mus-color newobj nil) (set-extra-pairs newobj 'nil) (set-patch-pairs newobj 'nil) (set-tonalite newobj nil) newobj)) :from-file t))) (load-port-info newobj '(((0) (0) (0) (0) (0) (0)) ((0) (0) (0) (0) (0) (0)) ((0) (0) (0) (0) (0) (0)) ((0) (0) (0) (0) (0) (0)) ((0) (0) (0) (0) (0) (0)) ((0) (0) (0) (0) (0) (0)))) (init-mus-color newobj (list (list nil (om-make-color 0 0 0)) (list (list 0) (om-make-color 0 0 0)) (list (list 0 0) (om-make-color 0 0 0)) (list (list 0 0 0) (om-make-color 0 0 0)) (list (list 0 1) (om-make-color 0 0 0)) (list (list 0 1 0) (om-make-color 0 0 0)) (list (list 0 2) (om-make-color 0 0 0)) (list (list 0 2 0) (om-make-color 0 0 0)) (list (list 0 3) (om-make-color 0 0 0)) (list (list 0 3 0) (om-make-color 0 0 0)) (list (list 0 4) (om-make-color 0 0 0)) (list (list 0 4 0) (om-make-color 0 0 0)) (list (list 0 5) (om-make-color 0 0 0)) (list (list 0 5 0) (om-make-color 0 0 0)) (list (list 1) (om-make-color 0 0 0)) (list (list 1 0) (om-make-color 0 0 0)) (list (list 1 0 0) (om-make-color 0 0 0)) (list (list 1 1) (om-make-color 0 0 0)) (list (list 1 1 0) (om-make-color 0 0 0)) (list (list 1 2) (om-make-color 0 0 0)) (list (list 1 2 0) (om-make-color 0 0 0)) (list (list 1 3) (om-make-color 0 0 0)) (list (list 1 3 0) (om-make-color 0 0 0)) (list (list 1 4) (om-make-color 0 0 0)) (list (list 1 4 0) (om-make-color 0 0 0)) (list (list 1 5) (om-make-color 0 0 0)) (list (list 1 5 0) (om-make-color 0 0 0)) (list (list 2) (om-make-color 0 0 0)) (list (list 2 0) (om-make-color 0 0 0)) (list (list 2 0 0) (om-make-color 0 0 0)) (list (list 2 1) (om-make-color 0 0 0)) (list (list 2 1 0) (om-make-color 0 0 0)) (list (list 2 2) (om-make-color 0 0 0)) (list (list 2 2 0) (om-make-color 0 0 0)) (list (list 2 3) (om-make-color 0 0 0)) (list (list 2 3 0) (om-make-color 0 0 0)) (list (list 2 4) (om-make-color 0 0 0)) (list (list 2 4 0) (om-make-color 0 0 0)) (list (list 2 5) (om-make-color 0 0 0)) (list (list 2 5 0) (om-make-color 0 0 0)) (list (list 3) (om-make-color 0 0 0)) (list (list 3 0) (om-make-color 0 0 0)) (list (list 3 0 0) (om-make-color 0 0 0)) (list (list 3 1) (om-make-color 0 0 0)) (list (list 3 1 0) (om-make-color 0 0 0)) (list (list 3 2) (om-make-color 0 0 0)) (list (list 3 2 0) (om-make-color 0 0 0)) (list (list 3 3) (om-make-color 0 0 0)) (list (list 3 3 0) (om-make-color 0 0 0)) (list (list 3 4) (om-make-color 0 0 0)) (list (list 3 4 0) (om-make-color 0 0 0)) (list (list 3 5) (om-make-color 0 0 0)) (list (list 3 5 0) (om-make-color 0 0 0)) (list (list 4) (om-make-color 0 0 0)) (list (list 4 0) (om-make-color 0 0 0)) (list (list 4 0 0) (om-make-color 0 0 0)) (list (list 4 1) (om-make-color 0 0 0)) (list (list 4 1 0) (om-make-color 0 0 0)) (list (list 4 2) (om-make-color 0 0 0)) (list (list 4 2 0) (om-make-color 0 0 0)) (list (list 4 3) (om-make-color 0 0 0)) (list (list 4 3 0) (om-make-color 0 0 0)) (list (list 4 4) (om-make-color 0 0 0)) (list (list 4 4 0) (om-make-color 0 0 0)) (list (list 4 5) (om-make-color 0 0 0)) (list (list 4 5 0) (om-make-color 0 0 0)) (list (list 5) (om-make-color 0 0 0)) (list (list 5 0) (om-make-color 0 0 0)) (list (list 5 0 0) (om-make-color 0 0 0)) (list (list 5 1) (om-make-color 0 0 0)) (list (list 5 1 0) (om-make-color 0 0 0)) (list (list 5 2) (om-make-color 0 0 0)) (list (list 5 2 0) (om-make-color 0 0 0)) (list (list 5 3) (om-make-color 0 0 0)) (list (list 5 3 0) (om-make-color 0 0 0)) (list (list 5 4) (om-make-color 0 0 0)) (list (list 5 4 0) (om-make-color 0 0 0)) (list (list 5 5) (om-make-color 0 0 0)) (list (list 5 5 0) (om-make-color 0 0 0)))) (set-extra-pairs newobj 'nil) (set-patch-pairs newobj '((nil (om-load-patch-abs1 "patch" 'nil 'nil 5.0 nil)))) (set-tonalite newobj nil) newobj)) "x" nil (corrige (pairlis '(show-stems obj-mode palette-mode winpos winsize mode grillestep notechancolor? zoom inport outport deltapict cmnpref staff fontsize approx) (list 't 0 0 2621450 18350450 0 250 nil 1 0 0 (om-make-point 0 0) (let ((newobj (make-instance 'edition-values))) (setf (paper-size newobj) (om-make-point 600 800)) (setf (top-margin newobj) 2) (setf (left-margin newobj) 1) (setf (right-margin newobj) 1) (setf (bottom-margin newobj) 1) (setf (orientation newobj) nil) (setf (scale newobj) nil) (setf (system-space newobj) '(1 1 1 1 1 1)) (setf (line-space newobj) 1) (setf (title newobj) nil) (setf (show-title? newobj) nil) (setf (show-page? newobj) nil) (setf (sheet-id newobj) nil) (setf (page-mode newobj) nil) newobj) (list 'g 'g 'g 'g 'g 'g) 24 2))) t nil nil) (om-load-boxcall 'genfun "N-STRUCTURE" 'n-structure '((om-load-inputfun 'input-funbox "values" "L" (list 5 7 9)) (om-load-inputfun 'input-funbox "n" "N" 12)) (om-make-point 335 188) nil nil nil nil 1) (om-load-boxcall 'genfun "N-STRUCTURE" 'n-structure '((om-load-inputfun 'input-funbox "values" "L" (list 5 7 9)) (om-load-inputfun 'input-funbox "n" "N" 12)) (om-make-point 263 161) nil nil nil nil 1) (om-load-boxcall 'genfun "CANONS" 'canons '((om-load-inputfun 'input-funbox "no documentation" "R" nil) (om-load-inputfun 'input-funbox "no documentation" "S" nil) (om-load-inputfun 'input-funbox "no documentation" "TIMES" 3)) (om-make-point 330 291) nil nil nil nil 1) (om-load-editor-box1 "N-CERCLE4" 'n-cercle '((om-load-inputfun 'input-funbox "objs" "SELF" nil) (om-load-inputfun 'input-funbox "no documentation" "N" 24) (om-load-inputfun 'input-funbox "no documentation" "PUNTOS" (list 0 5 7))) (om-make-point 780 334) (om-make-point 114 132) (if (find-class 'n-cercle nil) (make-instance 'n-cercle :n 24 :puntos (list (list 0 1 4 5) (list 2 3 6 7) (list 8 9 12 13) (list 10 11 14 15) (list 16 17 20 21) (list 18 19 22 23)) :from-file t)) nil nil (corrige (pairlis '(show-stems winpos winsize mode grillestep notechancolor? cmnpref obj-mode palette-mode zoom inport outport deltapict) (list 't 2621450 18350450 0 1000 nil (let ((newobj (make-instance 'edition-values))) (setf (paper-size newobj) (om-make-point 600 800)) (setf (top-margin newobj) 2) (setf (left-margin newobj) 1) (setf (right-margin newobj) 1) (setf (bottom-margin newobj) 1) (setf (orientation newobj) nil) (setf (scale newobj) nil) (setf (system-space newobj) '(1)) (setf (line-space newobj) 1) (setf (title newobj) nil) (setf (show-title? newobj) nil) (setf (show-page? newobj) nil) (setf (sheet-id newobj) nil) (setf (page-mode newobj) nil) newobj) 0 0 1 0 0 (om-make-point 0 0)))) t nil nil) (om-load-editor-box1 "N-CERCLE4" 'n-cercle '((om-load-inputfun 'input-funbox "objs" "SELF" nil) (om-load-inputfun 'input-funbox "no documentation" "N" 24) (om-load-inputfun 'input-funbox "no documentation" "PUNTOS" (list 0 5 7))) (om-make-point 911 332) (om-make-point 119 137) (if (find-class 'n-cercle nil) (make-instance 'n-cercle :n 24 :puntos (list (list 0 2 8 10 16 18) (list 1 3 9 11 17 19) (list 4 6 12 14 20 22) (list 5 7 13 15 21 23)) :from-file t)) nil nil (corrige (pairlis '(show-stems winpos winsize mode grillestep notechancolor? cmnpref obj-mode palette-mode zoom inport outport deltapict) (list 't 2621450 18350450 0 1000 nil (let ((newobj (make-instance 'edition-values))) (setf (paper-size newobj) (om-make-point 600 800)) (setf (top-margin newobj) 2) (setf (left-margin newobj) 1) (setf (right-margin newobj) 1) (setf (bottom-margin newobj) 1) (setf (orientation newobj) nil) (setf (scale newobj) nil) (setf (system-space newobj) '(1)) (setf (line-space newobj) 1) (setf (title newobj) nil) (setf (show-title? newobj) nil) (setf (show-page? newobj) nil) (setf (sheet-id newobj) nil) (setf (page-mode newobj) nil) newobj) 0 0 1 0 0 (om-make-point 0 0)))) t nil nil) (om-load-boxcall 'bastype "aux3" 't 'nil (om-make-point 920 72) (om-make-point 74 20) (list 0 1 4 5) "(0 1 4 5)" nil) (om-load-boxcall 'bastype "aux" 't 'nil (om-make-point 751 77) (om-make-point 123 20) (list 0 2 8 10 16 18) "(0 2 8 10 16 18)" nil) (om-load-boxcall 'bastype "aux" 't 'nil (om-make-point 557 144) (om-make-point 105 20) (list 0 1 4 5 8 9) "(0 1 4 5 8 9)" nil) (om-load-boxcall 'bastype "aux3" 't 'nil (om-make-point 713 142) (om-make-point 42 20) (list 0 6) "(0 6)" nil) (om-load-editor-box1 "N-CERCLE4" 'n-cercle '((om-load-inputfun 'input-funbox "objs" "SELF" nil) (om-load-inputfun 'input-funbox "no documentation" "N" 12) (om-load-inputfun 'input-funbox "no documentation" "PUNTOS" (list 0 5 7))) (om-make-point 630 552) (om-make-point 119 137) (if (find-class 'n-cercle nil) (make-instance 'n-cercle :n 12 :puntos (list (list 0 6) (list 1 7) (list 4 10) (list 5 11) (list 8 2) (list 9 3)) :from-file t)) nil nil (corrige (pairlis '(show-stems winpos winsize mode grillestep notechancolor? cmnpref obj-mode palette-mode zoom inport outport deltapict) (list 't 2621450 18350450 0 1000 nil (let ((newobj (make-instance 'edition-values))) (setf (paper-size newobj) (om-make-point 600 800)) (setf (top-margin newobj) 2) (setf (left-margin newobj) 1) (setf (right-margin newobj) 1) (setf (bottom-margin newobj) 1) (setf (orientation newobj) nil) (setf (scale newobj) nil) (setf (system-space newobj) '(1)) (setf (line-space newobj) 1) (setf (title newobj) nil) (setf (show-title? newobj) nil) (setf (show-page? newobj) nil) (setf (sheet-id newobj) nil) (setf (page-mode newobj) nil) newobj) 0 0 1 0 0 (om-make-point 0 0)))) t nil nil) (om-load-editor-box1 "N-CERCLE4" 'n-cercle '((om-load-inputfun 'input-funbox "objs" "SELF" nil) (om-load-inputfun 'input-funbox "no documentation" "N" 12) (om-load-inputfun 'input-funbox "no documentation" "PUNTOS" (list 0 5 7))) (om-make-point 593 404) (om-make-point 114 132) (if (find-class 'n-cercle nil) (make-instance 'n-cercle :n 12 :puntos (list (list 0 1 4 5 8 9) (list 6 7 10 11 2 3)) :from-file t)) nil nil (corrige (pairlis '(show-stems winpos winsize mode grillestep notechancolor? cmnpref obj-mode palette-mode zoom inport outport deltapict) (list 't 2621450 18350450 0 1000 nil (let ((newobj (make-instance 'edition-values))) (setf (paper-size newobj) (om-make-point 600 800)) (setf (top-margin newobj) 2) (setf (left-margin newobj) 1) (setf (right-margin newobj) 1) (setf (bottom-margin newobj) 1) (setf (orientation newobj) nil) (setf (scale newobj) nil) (setf (system-space newobj) '(1)) (setf (line-space newobj) 1) (setf (title newobj) nil) (setf (show-title? newobj) nil) (setf (show-page? newobj) nil) (setf (sheet-id newobj) nil) (setf (page-mode newobj) nil) newobj) 0 0 1 0 0 (om-make-point 0 0)))) t nil nil) (om-load-editor-box1 "N-CERCLE4" 'n-cercle '((om-load-inputfun 'input-funbox "objs" "SELF" nil) (om-load-inputfun 'input-funbox "no documentation" "N" 12) (om-load-inputfun 'input-funbox "no documentation" "PUNTOS" (list 0 5 7))) (om-make-point 476 548) (om-make-point 119 137) (if (find-class 'n-cercle nil) (make-instance 'n-cercle :n 12 :puntos (list (list 0 3) (list 1 4) (list 2 5) (list 6 9) (list 7 10) (list 8 11)) :from-file t)) "x" nil (corrige (pairlis '(show-stems winpos winsize mode grillestep notechancolor? cmnpref obj-mode palette-mode zoom inport outport deltapict) (list 't 2621450 18350450 0 1000 nil (let ((newobj (make-instance 'edition-values))) (setf (paper-size newobj) (om-make-point 600 800)) (setf (top-margin newobj) 2) (setf (left-margin newobj) 1) (setf (right-margin newobj) 1) (setf (bottom-margin newobj) 1) (setf (orientation newobj) nil) (setf (scale newobj) nil) (setf (system-space newobj) '(1)) (setf (line-space newobj) 1) (setf (title newobj) nil) (setf (show-title? newobj) nil) (setf (show-page? newobj) nil) (setf (sheet-id newobj) nil) (setf (page-mode newobj) nil) newobj) 0 0 1 0 0 (om-make-point 0 0)))) t nil nil) (om-load-boxcall 'bastype "aux3" 't 'nil (om-make-point 464 96) (om-make-point 42 20) (list 0 3) "(0 3)" nil) (om-load-boxcall 'bastype "aux" 't 'nil (om-make-point 285 95) (om-make-point 105 20) (list 0 1 2 6 7 8) "(0 1 2 6 7 8)" nil) (om-load-boxcomment "comment" (om-make-point 1186 51) '"Transposition limited modes, partitioning and tiling canons" "" (om-make-point 84 4) nil (om-make-color 10/51 52/255 199/255) (om-make-font "Geneva" 36 :family nil :style 'nil :mode nil))) '((3 0 0 0 nil 0) (23 0 1 0 nil 0) (24 0 2 0 nil 0) (2 0 3 0 nil 0) (1 0 3 1 nil 0) (23 0 4 0 nil 0) (24 0 4 1 nil 0) (24 0 5 0 nil 0) (23 0 5 1 nil 0) (26 0 6 0 nil 0) (25 0 6 1 nil 0) (10 0 7 0 nil 0) (14 0 7 1 nil 0) (12 0 8 0 nil 0) (13 0 9 0 nil 0) (9 0 10 0 nil 0) (8 0 10 1 nil 0) (14 0 11 2 nil 0) (12 0 14 0 nil 0) (13 0 14 1 nil 0) (31 0 15 0 nil 0) (30 0 15 1 nil 0) (25 0 16 0 nil 0) (26 0 16 1 nil 0) (20 0 17 0 nil 0) (15 0 17 1 nil 0) (31 0 18 0 nil 0) (30 0 19 0 nil 0) (19 0 20 0 nil 0) (18 0 20 1 nil 0) (4 0 21 2 nil 0) (5 0 22 2 nil 0) (16 0 27 2 nil 0) (6 0 28 2 nil 0) (15 0 29 2 nil 0)) (list (let ((newpict (make-instance 'patch-picture :name '|USER-ciel|))) (setf (thepict newpict) (om-get-picture '|USER-ciel|)) (setf (name newpict) '|USER-ciel|) (setf (pict-pos newpict) (om-make-point 515 63)) (setf (pict-size newpict) (om-make-point 633 205)) newpict) (let ((newpict (make-instance 'patch-picture :name '|USER-ciel|))) (setf (thepict newpict) (om-get-picture '|USER-ciel|)) (setf (name newpict) '|USER-ciel|) (setf (pict-pos newpict) (om-make-point 34 345)) (setf (pict-size newpict) (om-make-point 636 204)) newpict)) 5.0))
