; OM File Header - Saved 2009/10/22 17:10:02
; (6.04 :patc (om-make-point 119 84) (om-make-point 50 50) (om-make-point 980 836) "No documentation " 183 0 nil nil)
; End File Header
(in-package :om)(load-lib-for 'nil)(setf *om-current-persistent* (om-load-patch1 "05-R&S" '((om-load-boxcomment "comment1" (om-make-point 792 56) '"The construction of inner and outer rhythms" "" (om-make-point 83 3) nil (om-make-color 10/51 52/255 199/255) (om-make-font "Geneva" 36 :family nil :style 'nil :mode nil)) (om-load-boxcall 'bastype "aux3" 't 'nil (om-make-point 256 530) (om-make-point 75 20) (list 2 3 2 3 2) "(2 3 2 3 2)" nil) (om-load-boxcall 'bastype "aux2" 't 'nil (om-make-point 166 522) (om-make-point 17 20) 72 "72" nil) (om-load-boxcall 'genfun "PATTERNS" 'patterns '((om-load-inputfun 'input-funbox "periode" "N" 72) (om-load-inputfun 'input-funbox "numbre de voix" "NUMVOICES" 6)) (om-make-point 222 571) nil nil nil nil 2) (om-load-boxcomment "comment" (om-make-point 190 66) '"You can also give the five numbers directly to the patterns function.$<---" "" (om-make-point 515 584) nil (om-make-color 82/255 77/255 1) (om-make-font "Geneva" 12 :family nil :style 'nil :mode nil)) (om-load-boxcall 'lispfun "FIRST" 'first '((om-load-inputfun 'input-funbox "LIST" "LIST" nil)) (om-make-point 283 359) nil nil nil nil 1) (om-load-boxcall 'bastype "aux9" 't 'nil (om-make-point 370 255) (om-make-point 33 20) 72 "72" nil) (om-load-boxcall 'genfun "DECOMPO" 'decompo '((om-load-inputfun 'input-funbox "periode" "N" 72)) (om-make-point 309 291) nil nil nil nil 1) (om-load-boxcall 'bastype "aux1" 't 'nil (om-make-point 139 361) (om-make-point 17 20) 72 "72" nil) (om-load-boxcall 'genfun "PATTERNS" 'patterns '((om-load-inputfun 'input-funbox "periode" "N" 72) (om-load-inputfun 'input-funbox "numbre de voix" "NUMVOICES" 6)) (om-make-point 231 405) nil nil nil nil 2) (om-load-boxcomment "comment" (om-make-point 487 112) '"The left evaluation gives the rhythmic pattern R (inner rhythm) that generates the Canon by the temporal translation specified by the pattern S which is given by the right output evaluation (outer rhythm)$" "" (om-make-point 515 468) nil (om-make-color 82/255 77/255 1) (om-make-font "Geneva" 18 :family nil :style 'nil :mode nil)) (om-load-boxcomment "comment" (om-make-point 356 131) '"The Regular Complementary Canon of Maximal Category that is 'canonically' associated with this decomposition will have a number of voices equal to the product n1n2, i.e. 6.$" "" (om-make-point 515 328) nil (om-make-color 82/255 77/255 1) (om-make-font "Geneva" 18 :family nil :style 'nil :mode nil)) (om-load-boxcomment "comment" (om-make-point 181 143) '"p1=3$p2=2$n1=3$n2=2$n3=2" "" (om-make-point 605 168) nil (om-make-color 82/255 77/255 1) (om-make-font "Geneva" 18 :family nil :style 'nil :mode nil)) (om-load-boxcomment "comment" (om-make-point 337 78) '"We know from the 'decompo' function that the period n=72 can be decomposed in the five numbers:" "" (om-make-point 512 90) nil (om-make-color 82/255 77/255 1) (om-make-font "Geneva" 18 :family nil :style 'nil :mode nil)) (om-load-boxcall 'bastype "aux1" 't 'nil (om-make-point 162 102) (om-make-point 17 20) 72 "72" nil) (om-load-boxcall 'bastype "aux" 't 'nil (om-make-point 318 99) (om-make-point 11 20) 6 "6" nil) (om-load-boxcall 'genfun "PATTERNS" 'patterns '((om-load-inputfun 'input-funbox "periode" "N" 72) (om-load-inputfun 'input-funbox "numbre de voix" "NUMVOICES" 6)) (om-make-point 231 170) nil nil nil nil 2)) '((2 0 3 0 nil 0) (1 0 3 1 nil 0) (7 0 5 0 nil 0) (6 0 7 0 nil 0) (8 0 9 0 nil 0) (5 0 9 1 nil 0) (14 0 16 0 nil 0) (15 0 16 1 nil 0)) (list (let ((newpict (make-instance 'patch-picture :name '|USER-ciel|))) (setf (thepict newpict) (om-get-picture '|USER-ciel|)) (setf (name newpict) '|USER-ciel|) (setf (pict-pos newpict) (om-make-point 30 94)) (setf (pict-size newpict) (om-make-point 461 569)) newpict)) 5.0))
