; OM File Header - Saved 2009/10/22 17:10:03
; (6.04 :patc (om-make-point 20 20) (om-make-point 457 146) (om-make-point 492 436) "non documentation" 183 0 nil nil)
; End File Header
(in-package :om)(load-lib-for 'nil)(setf *om-current-persistent* (om-load-patch1 "differences" '((om-load-boxcall 'genfun "DIFF-IN-LIST1" 'diff-in-list '((om-load-inputfun 'input-funbox "no documentation" "LIST" nil) (om-load-inputfun 'input-funbox "no documentation" "N" nil)) (om-make-point 148 162) nil nil nil nil 1) (om-load-boxcall 'lispfun "CONS" 'cons '((om-load-inputfun 'input-funbox "X" "X" nil) (om-load-inputfun 'input-funbox "LIST-OR-THING" "LIST-OR-THING" nil)) (om-make-point 220 259) nil nil nil nil 1) (om-load-boxcall 'genfun "OM-" 'om- '((om-load-inputfun 'input-funbox "first input" "SELF" 0) (om-load-inputfun 'input-funbox "second input" "NUM" 1)) (om-make-point 301 104) nil nil nil nil 1) (om-load-boxcall 'patch-box "differences" '("elements" "mathTools" "tools" "differences") '((om-load-inputfun 'input-funbox "no documentation" "list" nil) (om-load-inputfun 'input-funbox "no documentation" "mod" nil) (om-load-inputfun 'input-funbox "no documentation" "k" nil)) (om-make-point 256 166) nil nil nil nil 1) (om-load-boxcall 'genfun "OM=" 'om= '((om-load-inputfun 'input-funbox "a number" "SELF" 0) (om-load-inputfun 'input-funbox "a number" "NUM" 0)) (om-make-point 38 164) nil nil nil nil 1) (om-load-boxcall 'genfun "OMIF" 'omif '((om-load-inputfun 'input-funbox "if" "TEST" nil) (om-load-inputfun 'input-funbox "then" "ACTION" nil) (om-load-inputfun 'input-funbox "else" "ELSE" nil)) (om-make-point 42 249) (om-make-point 100 53) nil nil nil 1) (om-load-boxout "output" 0 (om-make-point 66 349) '((om-load-inputfun 'input-funbox "out" "out" nil)) nil nil) (om-load-boxin "input2" 2 (om-make-point 17 85) "no documentation" "k" nil nil) (om-load-boxin "input1" 1 (om-make-point 210 37) "no documentation" "mod" nil nil) (om-load-boxin "input" 0 (om-make-point 130 17) "no documentation" "list" nil nil)) '((9 0 0 0 nil 0) (8 0 0 1 nil 0) (0 0 1 0 nil 0) (3 0 1 1 nil 0) (7 0 2 0 nil 0) (0 0 3 0 nil 0) (8 0 3 1 nil 0) (2 0 3 2 nil 0) (7 0 4 0 nil 0) (4 0 5 0 nil 0) (1 0 5 2 nil 0) (5 0 6 0 nil 0)) nil 5.0))
