; OM File Header - Saved 2008/11/07 13:50:39
; (6.04 :patc (om-make-point 27 27) (om-make-point 50 50) (om-make-point 445 555) "No documentation " 183 0 nil "2008/11/06 16:41:48")
; End File Header
(in-package :om)(load-lib-for (quote ("profile")))(setf *om-current-persistent* (om-load-patch1 "alea-pertb" (quote ((om-load-boxcall (quote genfun) "FLAT" (quote flat) (quote ((om-load-inputfun (quote input-funbox) "one list" "LST" nil))) (om-make-point 125 420) nil nil nil nil 1) (om-load-editor-box1 "xxBPF" (quote bpf) (quote ((om-load-inputfun (quote input-funbox) "objs" "SELF" nil) (om-load-inputfun (quote input-funbox) "X-POINTS" "X-POINTS" (list 0 10)) (om-load-inputfun (quote input-funbox) "Y-POINTS" "Y-POINTS" (list 0 100)))) (om-make-point 265 407) (om-make-point 86 93) (let ((newobj (when (find-class (quote bpf) nil) (let ((newbpf (simple-bpf-from-list (quote (0 10 20 30 40 50 60 70)) (quote (7479 7354 6977 7047 7527 5712 7058 6179)) (quote bpf) 0))) (setf (bpfcolor newbpf) (om-make-color 0 0 0)) newbpf)))) newobj) nil nil (pairlis (quote (obj-mode palette-mode inport outport deltapict zoom cmnpref notechancolor? grillestep mode winsize winpos show-stems)) (list 0 0 0 0 (om-make-point 0 0) 1 (let ((newobj (make-instance (quote edition-values)))) (setf (paper-size newobj) (om-make-point 600 800)) (setf (top-margin newobj) 2) (setf (left-margin newobj) 1) (setf (right-margin newobj) 1) (setf (bottom-margin newobj) 1) (setf (orientation newobj) nil) (setf (scale newobj) nil) (setf (system-space newobj) (quote (1))) (setf (line-space newobj) 1) (setf (title newobj) nil) (setf (show-title? newobj) nil) (setf (show-page? newobj) nil) (setf (sheet-id newobj) nil) (setf (page-mode newobj) nil) newobj) nil 1000 0 18350450 2621450 (quote t))) t nil nil nil) (om-load-editor-box1 "BPF" (quote bpf) (quote ((om-load-inputfun (quote input-funbox) "objs" "SELF" nil) (om-load-inputfun (quote input-funbox) "X-POINTS" "X-POINTS" (list 0 10)) (om-load-inputfun (quote input-funbox) "Y-POINTS" "Y-POINTS" (list 0 100)))) (om-make-point 12 200) (om-make-point 86 93) (let ((newobj (when (find-class (quote bpf) nil) (let ((newbpf (simple-bpf-from-list (quote (0 10 20 30 40 50 60 70)) (quote (7600 7200 7000 7100 7600 5800 7200 6000)) (quote bpf) 0))) (setf (bpfcolor newbpf) (om-make-color 0 0 0)) newbpf)))) newobj) nil nil (pairlis (quote (obj-mode palette-mode inport outport deltapict zoom cmnpref notechancolor? grillestep mode winsize winpos show-stems)) (list 0 0 0 0 (om-make-point 0 0) 1 (let ((newobj (make-instance (quote edition-values)))) (setf (paper-size newobj) (om-make-point 600 800)) (setf (top-margin newobj) 2) (setf (left-margin newobj) 1) (setf (right-margin newobj) 1) (setf (bottom-margin newobj) 1) (setf (orientation newobj) nil) (setf (scale newobj) nil) (setf (system-space newobj) (quote (1))) (setf (line-space newobj) 1) (setf (title newobj) nil) (setf (show-title? newobj) nil) (setf (show-page? newobj) nil) (setf (sheet-id newobj) nil) (setf (page-mode newobj) nil) newobj) nil 1000 0 18350450 2621450 (quote t))) t nil nil nil) (om-load-boxcall (quote bastype) "aux1" (quote t) (quote nil) (om-make-point 217 229) (om-make-point 52 28) (list 0 250) "(0 250)" nil) (om-load-editor-box1 "CHORD-SEQ" (quote chord-seq) (quote ((om-load-inputfun (quote input-funbox) "objs" "SELF" nil) (om-load-inputfun (quote input-funbox) "LMIDIC" "LMIDIC" (list 6000)) (om-load-inputfun (quote input-funbox) "LONSET" "LONSET" (list 0 1000)) (om-load-inputfun (quote input-funbox) "LDUR" "LDUR" (list 1000)) (om-load-inputfun (quote input-funbox) "LVEL" "LVEL" (list 100)) (om-load-inputfun (quote input-funbox) "LOFFSET" "LOFFSET" (list 0)) (om-load-inputfun (quote input-funbox) "LCHAN" "LCHAN" (list 1)) (om-load-inputfun (quote input-funbox) "LEGATO" "LEGATO" 100))) (om-make-point 140 267) (om-make-point 182 113) (let ((newobj (when (find-class (quote chord-seq) nil) (make-instance (quote chord-seq) :lmidic (quote ((7479) (7354) (6977) (7047) (7527) (5712) (7058) (6179))) :lonset (quote (0 250 500 750 1000 1250 1500 1750 2000)) :ldur (quote ((250) (250) (250) (250) (250) (250) (250) (250))) :lvel (quote ((100) (100) (100) (100) (100) (100) (100) (100))) :loffset (quote ((0) (0) (0) (0) (0) (0) (0) (0))) :lchan (quote ((1) (1) (1) (1) (1) (1) (1) (1))) :legato 0)))) (load-port-info newobj (quote ((0) (0) (0) (0) (0) (0) (0) (0)))) (init-mus-color newobj (quote nil)) (set-extra-pairs newobj (quote nil)) (set-patch-pairs newobj (quote ((nil (om-load-patch-abs1 "patch" (quote nil) (quote nil) 6.04 nil))))) (set-tonalite newobj nil) newobj) "x" nil (pairlis (quote (scale microplay obj-mode palette-mode inport outport approx fontsize staff cmnpref deltapict zoom notechancolor? grillestep mode winsize winpos show-stems)) (list nil nil 0 0 0 0 8 24 (quote gf) (let ((newobj (make-instance (quote edition-values)))) (setf (paper-size newobj) (om-make-point 600 800)) (setf (top-margin newobj) 2) (setf (left-margin newobj) 1) (setf (right-margin newobj) 1) (setf (bottom-margin newobj) 1) (setf (orientation newobj) nil) (setf (scale newobj) nil) (setf (system-space newobj) (quote (1))) (setf (line-space newobj) 1) (setf (title newobj) nil) (setf (show-title? newobj) nil) (setf (show-page? newobj) nil) (setf (sheet-id newobj) nil) (setf (page-mode newobj) nil) newobj) (om-make-point 0 0) 1 nil 1000 0 (om-make-point 500 280) (om-make-point 10 40) (quote t))) t nil nil nil) (om-load-boxcall (quote bastype) "aux" (quote t) (quote nil) (om-make-point 160 149) (om-make-point 32 28) 200 "200" nil) (om-load-boxcall (quote genfun) "ALEA-PERTB" (quote |Profile|::alea-pertb) (quote ((om-load-inputfun (quote input-funbox) "list" "LIST" (list 1 2 3 4 5)) (om-load-inputfun (quote input-funbox) "number" "RANGE" 2))) (om-make-point 119 189) nil nil nil nil 1) (om-load-editor-box1 "CHORD" (quote chord) (quote ((om-load-inputfun (quote input-funbox) "objs" "SELF" nil) (om-load-inputfun (quote input-funbox) "LMIDIC" "LMIDIC" (list 6000)) (om-load-inputfun (quote input-funbox) "LVEL" "LVEL" (list 100)) (om-load-inputfun (quote input-funbox) "LOFFSET" "LOFFSET" (list 0)) (om-load-inputfun (quote input-funbox) "LDUR" "LDUR" (list 1000)) (om-load-inputfun (quote input-funbox) "LCHAN" "LCHAN" (list 1)))) (om-make-point 79 24) (om-make-point 81 122) (let ((thechord (make-instance (quote chord) :lmidic (quote (7600 7200 7000 7100 7600 5800 7200 6000)) :ldur (quote (1000 1000 1000 1000 1000 1000 1000 1000)) :lvel (quote (100 100 100 100 100 100 100 100)) :loffset (quote (0 0 0 0 0 0 0 0)) :lchan (quote (1 1 1 1 1 1 1 1))))) (load-port-info thechord (quote (0 0 0 0 0 0 0 0))) thechord) "x" nil (pairlis (quote (scale microplay obj-mode palette-mode inport outport approx fontsize staff cmnpref deltapict zoom notechancolor? grillestep mode winsize winpos show-stems)) (list nil nil 0 0 0 0 2 24 (quote gf) (let ((newobj (make-instance (quote edition-values)))) (setf (paper-size newobj) (om-make-point 600 800)) (setf (top-margin newobj) 2) (setf (left-margin newobj) 1) (setf (right-margin newobj) 1) (setf (bottom-margin newobj) 1) (setf (orientation newobj) nil) (setf (scale newobj) nil) (setf (system-space newobj) (quote (1))) (setf (line-space newobj) 1) (setf (title newobj) nil) (setf (show-title? newobj) nil) (setf (show-page? newobj) nil) (setf (sheet-id newobj) nil) (setf (page-mode newobj) nil) newobj) (om-make-point 0 0) 1 nil 1000 0 (om-make-point 500 280) (om-make-point 10 40) (quote t))) t nil nil nil))) (quote ((4 1 0 0 nil 0) (0 0 1 2 nil 0) (7 1 2 2 nil 0) (6 0 4 1 nil 0) (3 0 4 2 nil 0) (7 1 6 0 nil 0) (5 0 6 1 nil 0))) nil 6.04))
