; OM File Header - Saved 2021/07/12 2:25:18
; (6.2 :patc (om-make-point 40 28) (om-make-point 0 0) (om-make-point 1039 782) "No documentation " 183 0 nil "2021/07/11 18:48:47")
; End File Header
(in-package :om)(load-lib-for (quote nil))(setf *om-current-persistent* (om-load-patch1 "01-transp&inv" (quote ((let ((box (om-load-boxcomment "comment" (om-make-point 420 37) (quote "(up to transposition and inversion)") "" (om-make-point 224 89) nil (om-make-color 10/51 52/255 199/255) (om-make-font "Geneva" 24 :family "Geneva" :style (quote (:plain)) :mode (quote nil))))) (when (fboundp (quote set-active)) (set-active box nil)) box) (let ((box (om-load-boxcomment "comment" (om-make-point 353 57) (quote "Equivalence classes ") "" (om-make-point 283 0) nil (om-make-color 10/51 52/255 199/255) (om-make-font "Geneva" 36 :family "Geneva" :style (quote (:plain)) :mode (quote nil))))) (when (fboundp (quote set-active)) (set-active box nil)) box) (let ((box (om-load-boxcomment "comment" (om-make-point 122 63) (quote "It enables to transform$ the content of a circle$ into a chord$<--------") "" (om-make-point 102 537) nil (om-make-color 0 0 0) (om-make-font "Geneva" 10 :family "Geneva" :style (quote (:plain)) :mode (quote nil))))) (when (fboundp (quote set-active)) (set-active box nil)) box) (let ((box (om-load-boxcomment "comment" (om-make-point 86 59) (quote "because$ 0+0=0$8+4=12=0$7+5=12=0") "" (om-make-point 513 269) nil (om-make-color 0 0 0) (om-make-font "Geneva" 10 :family "Geneva" :style (quote (:plain)) :mode (quote nil))))) (when (fboundp (quote set-active)) (set-active box nil)) box) (let ((box (om-load-boxcomment "comment" (om-make-point 84 49) (quote "<---Inversion of (0 4 7) gives (0 8 5)") "" (om-make-point 511 226) nil (om-make-color 0 0 0) (om-make-font "Geneva" 10 :family "Geneva" :style (quote (:plain)) :mode (quote nil))))) (when (fboundp (quote set-active)) (set-active box nil)) box) (let ((box (om-load-boxcomment "comment" (om-make-point 80 40) (quote "transposition by 3 semitons") "" (om-make-point 243 302) nil (om-make-color 0 0 0) (om-make-font "Geneva" 10 :family "Geneva" :style (quote (:plain)) :mode (quote nil))))) (when (fboundp (quote set-active)) (set-active box nil)) box) (let ((box (om-load-boxcomment "comment" (om-make-point 90 58) (quote "TnI means inversions followed by transpositions (or vice versa)") "" (om-make-point 729 507) nil (om-make-color 0 0 0) (om-make-font "Geneva" 10 :family "Geneva" :style (quote (:plain)) :mode (quote nil))))) (when (fboundp (quote set-active)) (set-active box nil)) box) (let ((box (om-load-boxcomment "comment" (om-make-point 80 40) (quote "inversions are reflections") "" (om-make-point 385 503) nil (om-make-color 0 0 0) (om-make-font "Geneva" 10 :family "Geneva" :style (quote (:plain)) :mode (quote nil))))) (when (fboundp (quote set-active)) (set-active box nil)) box) (let ((box (om-load-boxcomment "comment" (om-make-point 80 40) (quote "transpositions are rotations") "" (om-make-point 124 497) nil (om-make-color 0 0 0) (om-make-font "Geneva" 10 :family "Geneva" :style (quote (:plain)) :mode (quote nil))))) (when (fboundp (quote set-active)) (set-active box nil)) box) (let ((box (om-load-boxcomment "comment" (om-make-point 47 37) (quote "TnI") "" (om-make-point 689 138) nil (om-make-color 10/51 52/255 199/255) (om-make-font "Geneva" 24 :family "Geneva" :style (quote (:plain)) :mode (quote nil))))) (when (fboundp (quote set-active)) (set-active box nil)) box) (let ((box (om-load-boxcall (quote bastype) "aux1" (quote t) (quote nil) (om-make-point 791 315) (om-make-point 11 20) 7 "7" nil))) (when (fboundp (quote set-active)) (set-active box nil)) box) (let ((box (om-load-boxcall (quote genfun) "TRANSP" (quote transp) (quote ((om-load-inputfunmenu1 (quote input-funmenu) "no documentation" "TYPE" (quote :integer) (list (list "integer" (quote :integer)) (list "pitch" (quote :pitch)))) (om-load-inputfun (quote input-funbox) "no documentation" "VALUE" 3) (om-load-inputfun (quote input-funbox) "no documentation" "SET" (list 0 1 3 4 5 7)))) (om-make-point 827 319) nil nil nil nil 1))) (when (fboundp (quote set-active)) (set-active box nil)) box) (let ((box (om-load-boxcall (quote genfun) "INV" (quote inv) (quote ((om-load-inputfunmenu1 (quote input-funmenu) "no documentation" "TYPE" (quote :integer) (list (list "integer" (quote :integer)) (list "pitch" (quote :pitch)))) (om-load-inputfun (quote input-funbox) "no documentation" "SET" (list 0 1 2 7)))) (om-make-point 808 226) nil nil nil nil 1))) (when (fboundp (quote set-active)) (set-active box nil)) box) (let ((box (om-load-boxcall (quote genfun) "C2CHORD" (quote c2chord) (quote ((om-load-inputfun (quote input-funbox) "the cercle" "SELF" nil) (om-load-inputfun (quote input-funbox) "index" "INDEX" 0) (om-load-inputfun (quote input-funbox) "initial value" "BASE" 6000) (om-load-inputfun (quote input-funbox) "approx" "APPROX" 100))) (om-make-point 839 527) nil nil nil nil 1))) (when (fboundp (quote set-active)) (set-active box nil)) box) (let ((box (om-load-boxcall (quote genfun) "C2CHORD" (quote c2chord) (quote ((om-load-inputfun (quote input-funbox) "the cercle" "SELF" nil) (om-load-inputfun (quote input-funbox) "index" "INDEX" 0) (om-load-inputfun (quote input-funbox) "initial value" "BASE" 6000) (om-load-inputfun (quote input-funbox) "approx" "APPROX" 100))) (om-make-point 684 531) nil nil nil nil 1))) (when (fboundp (quote set-active)) (set-active box nil)) box) (let ((box (om-load-editor-box1 "CHORD" (quote chord) (quote ((om-load-inputfun (quote input-funbox) "objs" "SELF" nil) (om-load-inputfun (quote input-funbox) "no documentation" "LMIDIC" (list 6000)) (om-load-inputfun (quote input-funbox) "no documentation" "LVEL" (list 100)) (om-load-inputfun (quote input-funbox) "no documentation" "LOFFSET" (list 0)) (om-load-inputfun (quote input-funbox) "no documentation" "LDUR" (list 1000)) (om-load-inputfun (quote input-funbox) "no documentation" "LCHAN" (list 1)))) (om-make-point 697 616) (om-make-point 89 98) (let ((thechord (make-instance (quote chord) :lmidic (quote (6000 6400 6700)) :ldur (quote (1000 1000 1000)) :lvel (quote (100 100 100)) :loffset (quote (0 0 0)) :lchan (quote (1 1 1))))) (load-port-info thechord (quote (0 0 0))) (init-mus-color thechord (quote nil)) (set-extra-pairs thechord (quote nil)) (set-tonalite thechord nil) thechord) nil nil (pairlis (quote (scale obj-mode palette-mode approx fontsize staff cmnpref deltapict outport inport zoom notechancolor? grillestep mode winsize winpos show-stems)) (list nil 0 0 2 48 (quote g) (let ((newobj (make-instance (quote edition-values)))) (setf (paper-size newobj) (om-make-point 600 800)) (setf (top-margin newobj) 2) (setf (left-margin newobj) 1) (setf (right-margin newobj) 1) (setf (bottom-margin newobj) 1) (setf (orientation newobj) nil) (setf (scale newobj) nil) (setf (system-space newobj) (quote (1))) (setf (system-color newobj) (quote nil)) (setf (line-space newobj) 1) (setf (title newobj) nil) (setf (show-title? newobj) nil) (setf (show-page? newobj) nil) (setf (sheet-id newobj) nil) (setf (page-mode newobj) nil) newobj) (om-make-point 0 0) 0 0 43/50 nil 1000 0 18350450 2621450 (quote t))) t nil nil nil))) (when (fboundp (quote set-active)) (set-active box nil)) box) (let ((box (om-load-editor-box1 "N-CERCLE" (quote n-cercle) (quote ((om-load-inputfun (quote input-funbox) "objs" "SELF" nil) (om-load-inputfun (quote input-funbox) "no documentation" "N" 12) (om-load-inputfun (quote input-funbox) "no documentation" "PUNTOS" (list 0 5 7)))) (om-make-point 835 390) (om-make-point 95 112) (if (find-class (quote n-cercle) nil) (make-instance (quote n-cercle) :n 12 :puntos (list (list 15 11 8)) :from-file t)) "x" nil (pairlis (quote (obj-mode palette-mode winpos winsize mode grillestep notechancolor? cmnpref zoom inport outport deltapict show-stems)) (list 0 0 2621450 18350450 0 1000 nil (let ((newobj (make-instance (quote edition-values)))) (setf (paper-size newobj) (om-make-point 600 800)) (setf (top-margin newobj) 2) (setf (left-margin newobj) 1) (setf (right-margin newobj) 1) (setf (bottom-margin newobj) 1) (setf (orientation newobj) nil) (setf (scale newobj) nil) (setf (system-space newobj) (quote (1))) (setf (system-color newobj) (quote nil)) (setf (line-space newobj) 1) (setf (title newobj) nil) (setf (show-title? newobj) nil) (setf (show-page? newobj) nil) (setf (sheet-id newobj) nil) (setf (page-mode newobj) nil) newobj) 1 0 0 (om-make-point 0 0) (quote t))) t nil nil nil))) (when (fboundp (quote set-active)) (set-active box nil)) box) (let ((box (om-load-editor-box1 "N-CERCLE" (quote n-cercle) (quote ((om-load-inputfun (quote input-funbox) "objs" "SELF" nil) (om-load-inputfun (quote input-funbox) "no documentation" "N" 12) (om-load-inputfun (quote input-funbox) "no documentation" "PUNTOS" (list 0 5 7)))) (om-make-point 672 389) (om-make-point 111 117) (if (find-class (quote n-cercle) nil) (make-instance (quote n-cercle) :n 12 :puntos (list (list 0 4 7)) :from-file t)) nil nil (pairlis (quote (obj-mode palette-mode winpos winsize mode grillestep notechancolor? cmnpref zoom inport outport deltapict show-stems)) (list 0 0 2621450 18350450 0 1000 nil (let ((newobj (make-instance (quote edition-values)))) (setf (paper-size newobj) (om-make-point 600 800)) (setf (top-margin newobj) 2) (setf (left-margin newobj) 1) (setf (right-margin newobj) 1) (setf (bottom-margin newobj) 1) (setf (orientation newobj) nil) (setf (scale newobj) nil) (setf (system-space newobj) (quote (1))) (setf (system-color newobj) (quote nil)) (setf (line-space newobj) 1) (setf (title newobj) nil) (setf (show-title? newobj) nil) (setf (show-page? newobj) nil) (setf (sheet-id newobj) nil) (setf (page-mode newobj) nil) newobj) 1 0 0 (om-make-point 0 0) (quote t))) t nil nil nil))) (when (fboundp (quote set-active)) (set-active box nil)) box) (let ((box (om-load-boxcall (quote bastype) "aux" (quote t) (quote nil) (om-make-point 687 202) (om-make-point 65 37) (list 0 4 7) "(0 4 7)" nil))) (when (fboundp (quote set-active)) (set-active box nil)) box) (let ((box (om-load-editor-box1 "CHORD" (quote chord) (quote ((om-load-inputfun (quote input-funbox) "objs" "SELF" nil) (om-load-inputfun (quote input-funbox) "no documentation" "LMIDIC" (list 6000)) (om-load-inputfun (quote input-funbox) "no documentation" "LVEL" (list 100)) (om-load-inputfun (quote input-funbox) "no documentation" "LOFFSET" (list 0)) (om-load-inputfun (quote input-funbox) "no documentation" "LDUR" (list 1000)) (om-load-inputfun (quote input-funbox) "no documentation" "LCHAN" (list 1)))) (om-make-point 807 620) (om-make-point 93 96) (let ((thechord (make-instance (quote chord) :lmidic (quote (6700 6300 6000)) :ldur (quote (1000 1000 1000)) :lvel (quote (100 100 100)) :loffset (quote (0 0 0)) :lchan (quote (1 1 1))))) (load-port-info thechord (quote (0 0 0))) (init-mus-color thechord (quote nil)) (set-extra-pairs thechord (quote nil)) (set-tonalite thechord nil) thechord) nil nil (pairlis (quote (scale obj-mode palette-mode approx fontsize staff cmnpref deltapict outport inport zoom notechancolor? grillestep mode winsize winpos show-stems)) (list nil 0 0 2 48 (quote g) (let ((newobj (make-instance (quote edition-values)))) (setf (paper-size newobj) (om-make-point 600 800)) (setf (top-margin newobj) 2) (setf (left-margin newobj) 1) (setf (right-margin newobj) 1) (setf (bottom-margin newobj) 1) (setf (orientation newobj) nil) (setf (scale newobj) nil) (setf (system-space newobj) (quote (1))) (setf (system-color newobj) (quote nil)) (setf (line-space newobj) 1) (setf (title newobj) nil) (setf (show-title? newobj) nil) (setf (show-page? newobj) nil) (setf (sheet-id newobj) nil) (setf (page-mode newobj) nil) newobj) (om-make-point 0 0) 0 0 43/50 nil 1000 0 18350450 2621450 (quote t))) t nil nil nil))) (when (fboundp (quote set-active)) (set-active box nil)) box) (let ((box (om-load-boxcall (quote bastype) "aux" (quote t) (quote nil) (om-make-point 96 210) (om-make-point 70 26) (list 0 4 7) "(0 4 7)" nil))) (when (fboundp (quote set-active)) (set-active box nil)) box) (let ((box (om-load-boxcall (quote genfun) "INV" (quote inv) (quote ((om-load-inputfunmenu1 (quote input-funmenu) "no documentation" "TYPE" (quote :integer) (list (list "integer" (quote :integer)) (list "pitch" (quote :pitch)))) (om-load-inputfun (quote input-funbox) "no documentation" "SET" (list 0 1 2 7)))) (om-make-point 445 249) nil nil nil nil 1))) (when (fboundp (quote set-active)) (set-active box nil)) box) (let ((box (om-load-boxcall (quote genfun) "C2CHORD" (quote c2chord) (quote ((om-load-inputfun (quote input-funbox) "the cercle" "SELF" nil) (om-load-inputfun (quote input-funbox) "index" "INDEX" 0) (om-load-inputfun (quote input-funbox) "initial value" "BASE" 6000) (om-load-inputfun (quote input-funbox) "approx" "APPROX" 100))) (om-make-point 492 538) nil nil nil nil 1))) (when (fboundp (quote set-active)) (set-active box nil)) box) (let ((box (om-load-boxcall (quote genfun) "C2CHORD" (quote c2chord) (quote ((om-load-inputfun (quote input-funbox) "the cercle" "SELF" nil) (om-load-inputfun (quote input-funbox) "index" "INDEX" 0) (om-load-inputfun (quote input-funbox) "initial value" "BASE" 6000) (om-load-inputfun (quote input-funbox) "approx" "APPROX" 100))) (om-make-point 337 533) nil nil nil nil 1))) (when (fboundp (quote set-active)) (set-active box nil)) box) (let ((box (om-load-editor-box1 "CHORD" (quote chord) (quote ((om-load-inputfun (quote input-funbox) "objs" "SELF" nil) (om-load-inputfun (quote input-funbox) "no documentation" "LMIDIC" (list 6000)) (om-load-inputfun (quote input-funbox) "no documentation" "LVEL" (list 100)) (om-load-inputfun (quote input-funbox) "no documentation" "LOFFSET" (list 0)) (om-load-inputfun (quote input-funbox) "no documentation" "LDUR" (list 1000)) (om-load-inputfun (quote input-funbox) "no documentation" "LCHAN" (list 1)))) (om-make-point 337 631) (om-make-point 95 90) (let ((thechord (make-instance (quote chord) :lmidic (quote (6000 6400 6700)) :ldur (quote (1000 1000 1000)) :lvel (quote (100 100 100)) :loffset (quote (0 0 0)) :lchan (quote (1 1 1))))) (load-port-info thechord (quote (0 0 0))) (init-mus-color thechord (quote nil)) (set-extra-pairs thechord (quote nil)) (set-tonalite thechord nil) thechord) nil nil (pairlis (quote (scale obj-mode palette-mode approx fontsize staff cmnpref deltapict outport inport zoom notechancolor? grillestep mode winsize winpos show-stems)) (list nil 0 0 2 48 (quote g) (let ((newobj (make-instance (quote edition-values)))) (setf (paper-size newobj) (om-make-point 600 800)) (setf (top-margin newobj) 2) (setf (left-margin newobj) 1) (setf (right-margin newobj) 1) (setf (bottom-margin newobj) 1) (setf (orientation newobj) nil) (setf (scale newobj) nil) (setf (system-space newobj) (quote (1))) (setf (system-color newobj) (quote nil)) (setf (line-space newobj) 1) (setf (title newobj) nil) (setf (show-title? newobj) nil) (setf (show-page? newobj) nil) (setf (sheet-id newobj) nil) (setf (page-mode newobj) nil) newobj) (om-make-point 0 0) 0 0 43/50 nil 1000 0 18350450 2621450 (quote t))) t nil nil nil))) (when (fboundp (quote set-active)) (set-active box nil)) box) (let ((box (om-load-editor-box1 "N-CERCLE" (quote n-cercle) (quote ((om-load-inputfun (quote input-funbox) "objs" "SELF" nil) (om-load-inputfun (quote input-funbox) "no documentation" "N" 12) (om-load-inputfun (quote input-funbox) "no documentation" "PUNTOS" (list 0 5 7)))) (om-make-point 503 393) (om-make-point 95 112) (if (find-class (quote n-cercle) nil) (make-instance (quote n-cercle) :n 12 :puntos (list (list 0 8 5)) :from-file t)) nil nil (pairlis (quote (obj-mode palette-mode winpos winsize mode grillestep notechancolor? cmnpref zoom inport outport deltapict show-stems)) (list 0 0 2621450 18350450 0 1000 nil (let ((newobj (make-instance (quote edition-values)))) (setf (paper-size newobj) (om-make-point 600 800)) (setf (top-margin newobj) 2) (setf (left-margin newobj) 1) (setf (right-margin newobj) 1) (setf (bottom-margin newobj) 1) (setf (orientation newobj) nil) (setf (scale newobj) nil) (setf (system-space newobj) (quote (1))) (setf (system-color newobj) (quote nil)) (setf (line-space newobj) 1) (setf (title newobj) nil) (setf (show-title? newobj) nil) (setf (show-page? newobj) nil) (setf (sheet-id newobj) nil) (setf (page-mode newobj) nil) newobj) 1 0 0 (om-make-point 0 0) (quote t))) t nil nil nil))) (when (fboundp (quote set-active)) (set-active box nil)) box) (let ((box (om-load-editor-box1 "N-CERCLE" (quote n-cercle) (quote ((om-load-inputfun (quote input-funbox) "objs" "SELF" nil) (om-load-inputfun (quote input-funbox) "no documentation" "N" 12) (om-load-inputfun (quote input-funbox) "no documentation" "PUNTOS" (list 0 5 7)))) (om-make-point 320 389) (om-make-point 111 117) (if (find-class (quote n-cercle) nil) (make-instance (quote n-cercle) :n 12 :puntos (list (list 0 4 7)) :from-file t)) nil nil (pairlis (quote (obj-mode palette-mode winpos winsize mode grillestep notechancolor? cmnpref zoom inport outport deltapict show-stems)) (list 0 0 2621450 18350450 0 1000 nil (let ((newobj (make-instance (quote edition-values)))) (setf (paper-size newobj) (om-make-point 600 800)) (setf (top-margin newobj) 2) (setf (left-margin newobj) 1) (setf (right-margin newobj) 1) (setf (bottom-margin newobj) 1) (setf (orientation newobj) nil) (setf (scale newobj) nil) (setf (system-space newobj) (quote (1))) (setf (system-color newobj) (quote nil)) (setf (line-space newobj) 1) (setf (title newobj) nil) (setf (show-title? newobj) nil) (setf (show-page? newobj) nil) (setf (sheet-id newobj) nil) (setf (page-mode newobj) nil) newobj) 1 0 0 (om-make-point 0 0) (quote t))) t nil nil nil))) (when (fboundp (quote set-active)) (set-active box nil)) box) (let ((box (om-load-boxcall (quote bastype) "aux" (quote t) (quote nil) (om-make-point 353 210) (om-make-point 62 27) (list 0 4 7) "(0 4 7)" nil))) (when (fboundp (quote set-active)) (set-active box nil)) box) (let ((box (om-load-editor-box1 "CHORD" (quote chord) (quote ((om-load-inputfun (quote input-funbox) "objs" "SELF" nil) (om-load-inputfun (quote input-funbox) "no documentation" "LMIDIC" (list 6000)) (om-load-inputfun (quote input-funbox) "no documentation" "LVEL" (list 100)) (om-load-inputfun (quote input-funbox) "no documentation" "LOFFSET" (list 0)) (om-load-inputfun (quote input-funbox) "no documentation" "LDUR" (list 1000)) (om-load-inputfun (quote input-funbox) "no documentation" "LCHAN" (list 1)))) (om-make-point 451 630) (om-make-point 99 91) (let ((thechord (make-instance (quote chord) :lmidic (quote (6000 6800 6500)) :ldur (quote (1000 1000 1000)) :lvel (quote (100 100 100)) :loffset (quote (0 0 0)) :lchan (quote (1 1 1))))) (load-port-info thechord (quote (0 0 0))) (init-mus-color thechord (quote nil)) (set-extra-pairs thechord (quote nil)) (set-tonalite thechord nil) thechord) nil nil (pairlis (quote (scale obj-mode palette-mode approx fontsize staff cmnpref deltapict outport inport zoom notechancolor? grillestep mode winsize winpos show-stems)) (list nil 0 0 2 48 (quote g) (let ((newobj (make-instance (quote edition-values)))) (setf (paper-size newobj) (om-make-point 600 800)) (setf (top-margin newobj) 2) (setf (left-margin newobj) 1) (setf (right-margin newobj) 1) (setf (bottom-margin newobj) 1) (setf (orientation newobj) nil) (setf (scale newobj) nil) (setf (system-space newobj) (quote (1))) (setf (system-color newobj) (quote nil)) (setf (line-space newobj) 1) (setf (title newobj) nil) (setf (show-title? newobj) nil) (setf (show-page? newobj) nil) (setf (sheet-id newobj) nil) (setf (page-mode newobj) nil) newobj) (om-make-point 0 0) 0 0 43/50 nil 1000 0 18350450 2621450 (quote t))) t nil nil nil))) (when (fboundp (quote set-active)) (set-active box nil)) box) (let ((box (om-load-boxcomment "comment" (om-make-point 123 38) (quote "Inversion") "" (om-make-point 330 158) nil (om-make-color 10/51 52/255 199/255) (om-make-font "Geneva" 24 :family "Geneva" :style (quote (:plain)) :mode (quote nil))))) (when (fboundp (quote set-active)) (set-active box nil)) box) (let ((box (om-load-boxcall (quote genfun) "C2CHORD" (quote c2chord) (quote ((om-load-inputfun (quote input-funbox) "the cercle" "SELF" nil) (om-load-inputfun (quote input-funbox) "index" "INDEX" 0) (om-load-inputfun (quote input-funbox) "initial value" "BASE" 6300) (om-load-inputfun (quote input-funbox) "approx" "APPROX" 100))) (om-make-point 253 532) nil nil nil nil 1))) (when (fboundp (quote set-active)) (set-active box nil)) box) (let ((box (om-load-editor-box1 "CHORD" (quote chord) (quote ((om-load-inputfun (quote input-funbox) "objs" "SELF" nil) (om-load-inputfun (quote input-funbox) "no documentation" "LMIDIC" (list 6000)) (om-load-inputfun (quote input-funbox) "no documentation" "LVEL" (list 100)) (om-load-inputfun (quote input-funbox) "no documentation" "LOFFSET" (list 0)) (om-load-inputfun (quote input-funbox) "no documentation" "LDUR" (list 1000)) (om-load-inputfun (quote input-funbox) "no documentation" "LCHAN" (list 1)))) (om-make-point 195 628) (om-make-point 108 95) (let ((thechord (make-instance (quote chord) :lmidic (quote (6600 7000 7300)) :ldur (quote (1000 1000 1000)) :lvel (quote (100 100 100)) :loffset (quote (0 0 0)) :lchan (quote (1 1 1))))) (load-port-info thechord (quote (0 0 0))) (init-mus-color thechord (quote nil)) (set-extra-pairs thechord (quote nil)) (set-tonalite thechord nil) thechord) nil nil (pairlis (quote (scale approx fontsize staff cmnpref deltapict outport inport zoom notechancolor? grillestep mode winsize winpos palette-mode obj-mode show-stems)) (list nil 2 48 (quote g) (let ((newobj (make-instance (quote edition-values)))) (setf (paper-size newobj) (om-make-point 600 800)) (setf (top-margin newobj) 2) (setf (left-margin newobj) 1) (setf (right-margin newobj) 1) (setf (bottom-margin newobj) 1) (setf (orientation newobj) nil) (setf (scale newobj) nil) (setf (system-space newobj) (quote (1))) (setf (system-color newobj) (quote nil)) (setf (line-space newobj) 1) (setf (title newobj) nil) (setf (show-title? newobj) nil) (setf (show-page? newobj) nil) (setf (sheet-id newobj) nil) (setf (page-mode newobj) nil) newobj) (om-make-point 0 0) 0 0 43/50 nil 1000 1 18350450 2621450 0 0 (quote t))) t nil nil nil))) (when (fboundp (quote set-active)) (set-active box nil)) box) (let ((box (om-load-boxcall (quote bastype) "aux3" (quote t) (quote nil) (om-make-point 193 270) (om-make-point 11 20) 3 "3" nil))) (when (fboundp (quote set-active)) (set-active box nil)) box) (let ((box (om-load-boxcall (quote genfun) "TRANSP" (quote transp) (quote ((om-load-inputfunmenu1 (quote input-funmenu) "no documentation" "TYPE" (quote :integer) (list (list "integer" (quote :integer)) (list "pitch" (quote :pitch)))) (om-load-inputfun (quote input-funbox) "no documentation" "VALUE" 3) (om-load-inputfun (quote input-funbox) "no documentation" "SET" (list 0 1 3 4 5 7)))) (om-make-point 196 295) nil nil nil nil 1))) (when (fboundp (quote set-active)) (set-active box nil)) box) (let ((box (om-load-boxcall (quote genfun) "C2CHORD" (quote c2chord) (quote ((om-load-inputfun (quote input-funbox) "the cercle" "SELF" nil) (om-load-inputfun (quote input-funbox) "index" "INDEX" 0) (om-load-inputfun (quote input-funbox) "initial value" "BASE" 6000) (om-load-inputfun (quote input-funbox) "approx" "APPROX" 100))) (om-make-point 54 540) nil nil nil nil 1))) (when (fboundp (quote set-active)) (set-active box nil)) box) (let ((box (om-load-boxcomment "comment" (om-make-point 177 43) (quote "Transposition") "" (om-make-point 14 156) nil (om-make-color 10/51 52/255 199/255) (om-make-font "Geneva" 24 :family "Geneva" :style (quote (:plain)) :mode (quote nil))))) (when (fboundp (quote set-active)) (set-active box nil)) box) (let ((box (om-load-editor-box1 "N-CERCLE" (quote n-cercle) (quote ((om-load-inputfun (quote input-funbox) "objs" "SELF" nil) (om-load-inputfun (quote input-funbox) "no documentation" "N" 12) (om-load-inputfun (quote input-funbox) "no documentation" "PUNTOS" (list 0 5 7)))) (om-make-point 185 386) (om-make-point 94 113) (if (find-class (quote n-cercle) nil) (make-instance (quote n-cercle) :n 12 :puntos (list (list 3 7 10)) :from-file t)) nil nil (pairlis (quote (winpos winsize mode grillestep notechancolor? cmnpref zoom inport outport deltapict palette-mode obj-mode show-stems)) (list 2621450 18350450 0 1000 nil (let ((newobj (make-instance (quote edition-values)))) (setf (paper-size newobj) (om-make-point 600 800)) (setf (top-margin newobj) 2) (setf (left-margin newobj) 1) (setf (right-margin newobj) 1) (setf (bottom-margin newobj) 1) (setf (orientation newobj) nil) (setf (scale newobj) nil) (setf (system-space newobj) (quote (1))) (setf (system-color newobj) (quote nil)) (setf (line-space newobj) 1) (setf (title newobj) nil) (setf (show-title? newobj) nil) (setf (show-page? newobj) nil) (setf (sheet-id newobj) nil) (setf (page-mode newobj) nil) newobj) 1 0 0 (om-make-point 0 0) 0 0 (quote t))) t nil nil nil))) (when (fboundp (quote set-active)) (set-active box nil)) box) (let ((box (om-load-editor-box1 "N-CERCLE" (quote n-cercle) (quote ((om-load-inputfun (quote input-funbox) "objs" "SELF" nil) (om-load-inputfun (quote input-funbox) "no documentation" "N" 12) (om-load-inputfun (quote input-funbox) "no documentation" "PUNTOS" (list 0 5 7)))) (om-make-point 70 387) (om-make-point 101 109) (if (find-class (quote n-cercle) nil) (make-instance (quote n-cercle) :n 12 :puntos (list (list 0 4 7)) :from-file t)) nil nil (pairlis (quote (winpos winsize mode grillestep notechancolor? cmnpref zoom inport outport deltapict palette-mode obj-mode show-stems)) (list 2621450 18350450 0 1000 nil (let ((newobj (make-instance (quote edition-values)))) (setf (paper-size newobj) (om-make-point 600 800)) (setf (top-margin newobj) 2) (setf (left-margin newobj) 1) (setf (right-margin newobj) 1) (setf (bottom-margin newobj) 1) (setf (orientation newobj) nil) (setf (scale newobj) nil) (setf (system-space newobj) (quote (1))) (setf (system-color newobj) (quote nil)) (setf (line-space newobj) 1) (setf (title newobj) nil) (setf (show-title? newobj) nil) (setf (show-page? newobj) nil) (setf (sheet-id newobj) nil) (setf (page-mode newobj) nil) newobj) 1 0 0 (om-make-point 0 0) 0 0 (quote t))) t nil nil nil))) (when (fboundp (quote set-active)) (set-active box nil)) box) (let ((box (om-load-editor-box1 "CHORD" (quote chord) (quote ((om-load-inputfun (quote input-funbox) "objs" "SELF" nil) (om-load-inputfun (quote input-funbox) "no documentation" "LMIDIC" (list 6000)) (om-load-inputfun (quote input-funbox) "no documentation" "LVEL" (list 100)) (om-load-inputfun (quote input-funbox) "no documentation" "LOFFSET" (list 0)) (om-load-inputfun (quote input-funbox) "no documentation" "LDUR" (list 1000)) (om-load-inputfun (quote input-funbox) "no documentation" "LCHAN" (list 1)))) (om-make-point 82 629) (om-make-point 103 92) (let ((thechord (make-instance (quote chord) :lmidic (quote (6000 6400 6700)) :ldur (quote (1000 1000 1000)) :lvel (quote (100 100 100)) :loffset (quote (0 0 0)) :lchan (quote (1 1 1))))) (load-port-info thechord (quote (0 0 0))) (init-mus-color thechord (quote nil)) (set-extra-pairs thechord (quote nil)) (set-tonalite thechord nil) thechord) nil nil (pairlis (quote (scale approx fontsize staff cmnpref deltapict outport inport zoom notechancolor? grillestep mode winsize winpos palette-mode obj-mode show-stems)) (list nil 2 48 (quote g) (let ((newobj (make-instance (quote edition-values)))) (setf (paper-size newobj) (om-make-point 600 800)) (setf (top-margin newobj) 2) (setf (left-margin newobj) 1) (setf (right-margin newobj) 1) (setf (bottom-margin newobj) 1) (setf (orientation newobj) nil) (setf (scale newobj) nil) (setf (system-space newobj) (quote (1))) (setf (system-color newobj) (quote nil)) (setf (line-space newobj) 1) (setf (title newobj) nil) (setf (show-title? newobj) nil) (setf (show-page? newobj) nil) (setf (sheet-id newobj) nil) (setf (page-mode newobj) nil) newobj) (om-make-point 0 0) 0 0 43/50 nil 1000 1 18350450 2621450 0 0 (quote t))) t nil nil nil))) (when (fboundp (quote set-active)) (set-active box nil)) box))) (quote ((10 0 11 1 nil 0) (12 0 11 2 nil 0) (18 0 12 1 nil 0) (16 0 13 0 nil 0) (17 0 14 0 nil 0) (14 0 15 0 nil 0) (11 0 16 2 nil 0) (18 0 17 2 nil 0) (13 0 19 0 nil 0) (27 0 21 1 nil 0) (25 0 22 0 nil 0) (26 0 23 0 nil 0) (23 0 24 0 nil 0) (21 0 25 2 nil 0) (27 0 26 2 nil 0) (22 0 28 0 nil 0) (36 0 30 0 nil 0) (30 0 31 0 nil 0) (32 0 33 1 nil 0) (20 0 33 2 nil 0) (37 0 34 0 nil 0) (33 0 36 2 nil 0) (20 0 37 2 nil 0) (34 0 38 0 nil 0))) nil 6.2))
