; OM File Header - Saved 2017/01/10 17:34:48
; (6.04 :patc (om-make-point 12 26) (om-make-point 241 44) (om-make-point 1020 740) "No documentation " 183 0 nil "2017/01/10 17:34:48")
; End File Header
(in-package :om)(load-lib-for 'nil)(setf *om-current-persistent* (om-load-patch1 "01-transp&inv" '((om-load-boxcomment "comment" (om-make-point 420 37) '"(up to transposition and inversion)" "" (om-make-point 234 56) nil (om-make-color 10/51 52/255 199/255) (om-make-font "Geneva" 24 :family nil :style 'nil :mode nil)) (om-load-boxcomment "comment" (om-make-point 353 57) '"Equivalence classes " "" (om-make-point 283 5) nil (om-make-color 10/51 52/255 199/255) (om-make-font "Geneva" 36 :family nil :style 'nil :mode nil)) (om-load-boxcomment "comment" (om-make-point 122 63) '"It enables to transform$ the content of a circle$ into a chord$<--------" "" (om-make-point 102 497) nil (om-make-color 0 0 0) (om-make-font "Geneva" 10 :family nil :style 'nil :mode nil)) (om-load-boxcomment "comment" (om-make-point 86 59) '"because$ 0+0=0$8+4=12=0$7+5=12=0" "" (om-make-point 513 229) nil (om-make-color 0 0 0) (om-make-font "Geneva" 10 :family nil :style 'nil :mode nil)) (om-load-boxcomment "comment" (om-make-point 84 49) '"<---Inversion of (0 4 7) gives (0 8 5)" "" (om-make-point 511 186) nil (om-make-color 0 0 0) (om-make-font "Geneva" 10 :family nil :style 'nil :mode nil)) (om-load-boxcomment "comment" (om-make-point 80 40) '"transposition by 3 semitons" "" (om-make-point 243 262) nil (om-make-color 0 0 0) (om-make-font "Geneva" 10 :family nil :style 'nil :mode nil)) (om-load-boxcomment "comment" (om-make-point 90 58) '"TnI means inversions followed by transpositions (or vice versa)" "" (om-make-point 729 467) nil (om-make-color 0 0 0) (om-make-font "Geneva" 10 :family nil :style 'nil :mode nil)) (om-load-boxcomment "comment" (om-make-point 80 40) '"inversions are reflections" "" (om-make-point 385 463) nil (om-make-color 0 0 0) (om-make-font "Geneva" 10 :family nil :style 'nil :mode nil)) (om-load-boxcomment "comment" (om-make-point 80 40) '"transpositions are rotations" "" (om-make-point 124 457) nil (om-make-color 0 0 0) (om-make-font "Geneva" 10 :family nil :style 'nil :mode nil)) (om-load-boxcomment "comment" (om-make-point 47 37) '"TnI" "" (om-make-point 691 119) nil (om-make-color 10/51 52/255 199/255) (om-make-font "Geneva" 24 :family nil :style 'nil :mode nil)) (om-load-boxcall 'bastype "aux1" 't 'nil (om-make-point 791 275) (om-make-point 11 20) 7 "7" nil) (om-load-boxcall 'genfun "TRANSP" 'transp '((om-load-inputfunmenu1 'input-funmenu "no documentation" "TYPE" ':integer (list (list "integer" ':integer) (list "pitch" ':pitch))) (om-load-inputfun 'input-funbox "no documentation" "VALUE" 3) (om-load-inputfun 'input-funbox "no documentation" "SET" (list 0 1 3 4 5 7))) (om-make-point 827 279) nil nil nil nil 1) (om-load-boxcall 'genfun "INV" 'inv '((om-load-inputfunmenu1 'input-funmenu "no documentation" "TYPE" ':integer (list (list "integer" ':integer) (list "pitch" ':pitch))) (om-load-inputfun 'input-funbox "no documentation" "SET" (list 0 1 2 7))) (om-make-point 808 186) nil nil nil nil 1) (om-load-boxcall 'genfun "C2CHORD" 'c2chord '((om-load-inputfun 'input-funbox "the cercle" "SELF" nil) (om-load-inputfun 'input-funbox "index" "INDEX" 0) (om-load-inputfun 'input-funbox "initial value" "BASE" 6000) (om-load-inputfun 'input-funbox "approx" "APPROX" 100)) (om-make-point 839 487) nil nil nil nil 1) (om-load-boxcall 'genfun "C2CHORD" 'c2chord '((om-load-inputfun 'input-funbox "the cercle" "SELF" nil) (om-load-inputfun 'input-funbox "index" "INDEX" 0) (om-load-inputfun 'input-funbox "initial value" "BASE" 6000) (om-load-inputfun 'input-funbox "approx" "APPROX" 100)) (om-make-point 684 491) nil nil nil nil 1) (om-load-editor-box1 "CHORD" 'chord '((om-load-inputfun 'input-funbox "objs" "SELF" nil) (om-load-inputfun 'input-funbox "no documentation" "LMIDIC" (list 6000)) (om-load-inputfun 'input-funbox "no documentation" "LVEL" (list 100)) (om-load-inputfun 'input-funbox "no documentation" "LOFFSET" (list 0)) (om-load-inputfun 'input-funbox "no documentation" "LDUR" (list 1000)) (om-load-inputfun 'input-funbox "no documentation" "LCHAN" (list 1))) (om-make-point 697 576) (om-make-point 89 98) (if (find-class 'chord nil) (let ((newobj (make-instance 'chord :lmidic (list 6000 6400 6700) :lvel (list 100 100 100) :loffset (list 0 0 0) :ldur (list 1000 1000 1000) :lchan (list 1 1 1) :from-file t))) (load-port-info newobj '(0 0 0)) (init-mus-color newobj (list (list nil (om-make-color 0 0 0)) (list (list 0) (om-make-color 0 0 0)) (list (list 1) (om-make-color 0 0 0)) (list (list 2) (om-make-color 0 0 0)))) (set-extra-pairs newobj 'nil) (set-patch-pairs newobj 'nil) (set-tonalite newobj nil) newobj)) nil nil (corrige (pairlis '(show-stems winpos winsize mode grillestep notechancolor? zoom inport outport deltapict cmnpref staff fontsize approx palette-mode obj-mode) (list 't 2621450 18350450 0 1000 nil 43/50 0 0 (om-make-point 0 0) (let ((newobj (make-instance 'edition-values))) (setf (paper-size newobj) (om-make-point 600 800)) (setf (top-margin newobj) 2) (setf (left-margin newobj) 1) (setf (right-margin newobj) 1) (setf (bottom-margin newobj) 1) (setf (orientation newobj) nil) (setf (scale newobj) nil) (setf (system-space newobj) '(1)) (setf (line-space newobj) 1) (setf (title newobj) nil) (setf (show-title? newobj) nil) (setf (show-page? newobj) nil) (setf (sheet-id newobj) nil) (setf (page-mode newobj) nil) newobj) 'g 48 2 0 0))) t nil nil) (om-load-editor-box1 "N-CERCLE" 'n-cercle '((om-load-inputfun 'input-funbox "objs" "SELF" nil) (om-load-inputfun 'input-funbox "no documentation" "N" 12) (om-load-inputfun 'input-funbox "no documentation" "PUNTOS" (list 0 5 7))) (om-make-point 835 350) (om-make-point 95 112) (if (find-class 'n-cercle nil) (make-instance 'n-cercle :n 12 :puntos (list (list 15 11 8)) :from-file t)) "x" nil (corrige (pairlis '(show-stems deltapict outport inport zoom cmnpref notechancolor? grillestep mode winsize winpos palette-mode obj-mode) (list 't (om-make-point 0 0) 0 0 1 (let ((newobj (make-instance 'edition-values))) (setf (paper-size newobj) (om-make-point 600 800)) (setf (top-margin newobj) 2) (setf (left-margin newobj) 1) (setf (right-margin newobj) 1) (setf (bottom-margin newobj) 1) (setf (orientation newobj) nil) (setf (scale newobj) nil) (setf (system-space newobj) '(1)) (setf (line-space newobj) 1) (setf (title newobj) nil) (setf (show-title? newobj) nil) (setf (show-page? newobj) nil) (setf (sheet-id newobj) nil) (setf (page-mode newobj) nil) newobj) nil 1000 0 18350450 2621450 0 0))) t nil nil) (om-load-editor-box1 "N-CERCLE" 'n-cercle '((om-load-inputfun 'input-funbox "objs" "SELF" nil) (om-load-inputfun 'input-funbox "no documentation" "N" 12) (om-load-inputfun 'input-funbox "no documentation" "PUNTOS" (list 0 5 7))) (om-make-point 672 349) (om-make-point 111 117) (if (find-class 'n-cercle nil) (make-instance 'n-cercle :n 12 :puntos (list (list 0 4 7)) :from-file t)) nil nil (corrige (pairlis '(show-stems deltapict outport inport zoom cmnpref notechancolor? grillestep mode winsize winpos palette-mode obj-mode) (list 't (om-make-point 0 0) 0 0 1 (let ((newobj (make-instance 'edition-values))) (setf (paper-size newobj) (om-make-point 600 800)) (setf (top-margin newobj) 2) (setf (left-margin newobj) 1) (setf (right-margin newobj) 1) (setf (bottom-margin newobj) 1) (setf (orientation newobj) nil) (setf (scale newobj) nil) (setf (system-space newobj) '(1)) (setf (line-space newobj) 1) (setf (title newobj) nil) (setf (show-title? newobj) nil) (setf (show-page? newobj) nil) (setf (sheet-id newobj) nil) (setf (page-mode newobj) nil) newobj) nil 1000 0 18350450 2621450 0 0))) t nil nil) (om-load-boxcall 'bastype "aux" 't 'nil (om-make-point 687 162) (om-make-point 59 20) (list 0 4 7) "(0 4 7)" nil) (om-load-editor-box1 "CHORD" 'chord '((om-load-inputfun 'input-funbox "objs" "SELF" nil) (om-load-inputfun 'input-funbox "no documentation" "LMIDIC" (list 6000)) (om-load-inputfun 'input-funbox "no documentation" "LVEL" (list 100)) (om-load-inputfun 'input-funbox "no documentation" "LOFFSET" (list 0)) (om-load-inputfun 'input-funbox "no documentation" "LDUR" (list 1000)) (om-load-inputfun 'input-funbox "no documentation" "LCHAN" (list 1))) (om-make-point 807 580) (om-make-point 93 96) (if (find-class 'chord nil) (let ((newobj (make-instance 'chord :lmidic (list 6700 6300 6000) :lvel (list 100 100 100) :loffset (list 0 0 0) :ldur (list 1000 1000 1000) :lchan (list 1 1 1) :from-file t))) (load-port-info newobj '(0 0 0)) (init-mus-color newobj (list (list nil (om-make-color 0 0 0)) (list (list 0) (om-make-color 0 0 0)) (list (list 1) (om-make-color 0 0 0)) (list (list 2) (om-make-color 0 0 0)))) (set-extra-pairs newobj 'nil) (set-patch-pairs newobj '((nil (om-load-patch-abs1 "patch" 'nil 'nil 5.0 nil)))) (set-tonalite newobj nil) newobj)) nil nil (corrige (pairlis '(show-stems winpos winsize mode grillestep notechancolor? zoom inport outport deltapict cmnpref staff fontsize approx palette-mode obj-mode) (list 't 2621450 18350450 0 1000 nil 43/50 0 0 (om-make-point 0 0) (let ((newobj (make-instance 'edition-values))) (setf (paper-size newobj) (om-make-point 600 800)) (setf (top-margin newobj) 2) (setf (left-margin newobj) 1) (setf (right-margin newobj) 1) (setf (bottom-margin newobj) 1) (setf (orientation newobj) nil) (setf (scale newobj) nil) (setf (system-space newobj) '(1)) (setf (line-space newobj) 1) (setf (title newobj) nil) (setf (show-title? newobj) nil) (setf (show-page? newobj) nil) (setf (sheet-id newobj) nil) (setf (page-mode newobj) nil) newobj) 'g 48 2 0 0))) t nil nil) (om-load-boxcall 'bastype "aux" 't 'nil (om-make-point 96 170) (om-make-point 59 20) (list 0 4 7) "(0 4 7)" nil) (om-load-boxcall 'genfun "INV" 'inv '((om-load-inputfunmenu1 'input-funmenu "no documentation" "TYPE" ':integer (list (list "integer" ':integer) (list "pitch" ':pitch))) (om-load-inputfun 'input-funbox "no documentation" "SET" (list 0 1 2 7))) (om-make-point 445 209) nil nil nil nil 1) (om-load-boxcall 'genfun "C2CHORD" 'c2chord '((om-load-inputfun 'input-funbox "the cercle" "SELF" nil) (om-load-inputfun 'input-funbox "index" "INDEX" 0) (om-load-inputfun 'input-funbox "initial value" "BASE" 6000) (om-load-inputfun 'input-funbox "approx" "APPROX" 100)) (om-make-point 492 498) nil nil nil nil 1) (om-load-boxcall 'genfun "C2CHORD" 'c2chord '((om-load-inputfun 'input-funbox "the cercle" "SELF" nil) (om-load-inputfun 'input-funbox "index" "INDEX" 0) (om-load-inputfun 'input-funbox "initial value" "BASE" 6000) (om-load-inputfun 'input-funbox "approx" "APPROX" 100)) (om-make-point 337 493) nil nil nil nil 1) (om-load-editor-box1 "CHORD" 'chord '((om-load-inputfun 'input-funbox "objs" "SELF" nil) (om-load-inputfun 'input-funbox "no documentation" "LMIDIC" (list 6000)) (om-load-inputfun 'input-funbox "no documentation" "LVEL" (list 100)) (om-load-inputfun 'input-funbox "no documentation" "LOFFSET" (list 0)) (om-load-inputfun 'input-funbox "no documentation" "LDUR" (list 1000)) (om-load-inputfun 'input-funbox "no documentation" "LCHAN" (list 1))) (om-make-point 337 591) (om-make-point 95 90) (if (find-class 'chord nil) (let ((newobj (make-instance 'chord :lmidic (list 6000 6400 6700) :lvel (list 100 100 100) :loffset (list 0 0 0) :ldur (list 1000 1000 1000) :lchan (list 1 1 1) :from-file t))) (load-port-info newobj '(0 0 0)) (init-mus-color newobj (list (list nil (om-make-color 0 0 0)) (list (list 0) (om-make-color 0 0 0)) (list (list 1) (om-make-color 0 0 0)) (list (list 2) (om-make-color 0 0 0)))) (set-extra-pairs newobj 'nil) (set-patch-pairs newobj 'nil) (set-tonalite newobj nil) newobj)) nil nil (corrige (pairlis '(show-stems winpos winsize mode grillestep notechancolor? zoom inport outport deltapict cmnpref staff fontsize approx palette-mode obj-mode) (list 't 2621450 18350450 0 1000 nil 43/50 0 0 (om-make-point 0 0) (let ((newobj (make-instance 'edition-values))) (setf (paper-size newobj) (om-make-point 600 800)) (setf (top-margin newobj) 2) (setf (left-margin newobj) 1) (setf (right-margin newobj) 1) (setf (bottom-margin newobj) 1) (setf (orientation newobj) nil) (setf (scale newobj) nil) (setf (system-space newobj) '(1)) (setf (line-space newobj) 1) (setf (title newobj) nil) (setf (show-title? newobj) nil) (setf (show-page? newobj) nil) (setf (sheet-id newobj) nil) (setf (page-mode newobj) nil) newobj) 'g 48 2 0 0))) t nil nil) (om-load-editor-box1 "N-CERCLE" 'n-cercle '((om-load-inputfun 'input-funbox "objs" "SELF" nil) (om-load-inputfun 'input-funbox "no documentation" "N" 12) (om-load-inputfun 'input-funbox "no documentation" "PUNTOS" (list 0 5 7))) (om-make-point 503 353) (om-make-point 95 112) (if (find-class 'n-cercle nil) (make-instance 'n-cercle :n 12 :puntos (list (list 0 8 5)) :from-file t)) nil nil (corrige (pairlis '(show-stems deltapict outport inport zoom cmnpref notechancolor? grillestep mode winsize winpos palette-mode obj-mode) (list 't (om-make-point 0 0) 0 0 1 (let ((newobj (make-instance 'edition-values))) (setf (paper-size newobj) (om-make-point 600 800)) (setf (top-margin newobj) 2) (setf (left-margin newobj) 1) (setf (right-margin newobj) 1) (setf (bottom-margin newobj) 1) (setf (orientation newobj) nil) (setf (scale newobj) nil) (setf (system-space newobj) '(1)) (setf (line-space newobj) 1) (setf (title newobj) nil) (setf (show-title? newobj) nil) (setf (show-page? newobj) nil) (setf (sheet-id newobj) nil) (setf (page-mode newobj) nil) newobj) nil 1000 0 18350450 2621450 0 0))) t nil nil) (om-load-editor-box1 "N-CERCLE" 'n-cercle '((om-load-inputfun 'input-funbox "objs" "SELF" nil) (om-load-inputfun 'input-funbox "no documentation" "N" 12) (om-load-inputfun 'input-funbox "no documentation" "PUNTOS" (list 0 5 7))) (om-make-point 320 349) (om-make-point 111 117) (if (find-class 'n-cercle nil) (make-instance 'n-cercle :n 12 :puntos (list (list 0 4 7)) :from-file t)) nil nil (corrige (pairlis '(show-stems deltapict outport inport zoom cmnpref notechancolor? grillestep mode winsize winpos palette-mode obj-mode) (list 't (om-make-point 0 0) 0 0 1 (let ((newobj (make-instance 'edition-values))) (setf (paper-size newobj) (om-make-point 600 800)) (setf (top-margin newobj) 2) (setf (left-margin newobj) 1) (setf (right-margin newobj) 1) (setf (bottom-margin newobj) 1) (setf (orientation newobj) nil) (setf (scale newobj) nil) (setf (system-space newobj) '(1)) (setf (line-space newobj) 1) (setf (title newobj) nil) (setf (show-title? newobj) nil) (setf (show-page? newobj) nil) (setf (sheet-id newobj) nil) (setf (page-mode newobj) nil) newobj) nil 1000 0 18350450 2621450 0 0))) t nil nil) (om-load-boxcall 'bastype "aux" 't 'nil (om-make-point 353 170) (om-make-point 59 20) (list 0 4 7) "(0 4 7)" nil) (om-load-editor-box1 "CHORD" 'chord '((om-load-inputfun 'input-funbox "objs" "SELF" nil) (om-load-inputfun 'input-funbox "no documentation" "LMIDIC" (list 6000)) (om-load-inputfun 'input-funbox "no documentation" "LVEL" (list 100)) (om-load-inputfun 'input-funbox "no documentation" "LOFFSET" (list 0)) (om-load-inputfun 'input-funbox "no documentation" "LDUR" (list 1000)) (om-load-inputfun 'input-funbox "no documentation" "LCHAN" (list 1))) (om-make-point 451 590) (om-make-point 99 91) (if (find-class 'chord nil) (let ((newobj (make-instance 'chord :lmidic (list 6000 6800 6500) :lvel (list 100 100 100) :loffset (list 0 0 0) :ldur (list 1000 1000 1000) :lchan (list 1 1 1) :from-file t))) (load-port-info newobj '(0 0 0)) (init-mus-color newobj (list (list nil (om-make-color 0 0 0)) (list (list 0) (om-make-color 0 0 0)) (list (list 1) (om-make-color 0 0 0)) (list (list 2) (om-make-color 0 0 0)))) (set-extra-pairs newobj 'nil) (set-patch-pairs newobj 'nil) (set-tonalite newobj nil) newobj)) nil nil (corrige (pairlis '(show-stems winpos winsize mode grillestep notechancolor? zoom inport outport deltapict cmnpref staff fontsize approx palette-mode obj-mode) (list 't 2621450 18350450 0 1000 nil 43/50 0 0 (om-make-point 0 0) (let ((newobj (make-instance 'edition-values))) (setf (paper-size newobj) (om-make-point 600 800)) (setf (top-margin newobj) 2) (setf (left-margin newobj) 1) (setf (right-margin newobj) 1) (setf (bottom-margin newobj) 1) (setf (orientation newobj) nil) (setf (scale newobj) nil) (setf (system-space newobj) '(1)) (setf (line-space newobj) 1) (setf (title newobj) nil) (setf (show-title? newobj) nil) (setf (show-page? newobj) nil) (setf (sheet-id newobj) nil) (setf (page-mode newobj) nil) newobj) 'g 48 2 0 0))) t nil nil) (om-load-boxcomment "comment" (om-make-point 123 38) '"Inversion" "" (om-make-point 316 121) nil (om-make-color 10/51 52/255 199/255) (om-make-font "Geneva" 24 :family nil :style 'nil :mode nil)) (om-load-boxcall 'genfun "C2CHORD" 'c2chord '((om-load-inputfun 'input-funbox "the cercle" "SELF" nil) (om-load-inputfun 'input-funbox "index" "INDEX" 0) (om-load-inputfun 'input-funbox "initial value" "BASE" 6300) (om-load-inputfun 'input-funbox "approx" "APPROX" 100)) (om-make-point 253 492) nil nil nil nil 1) (om-load-editor-box1 "CHORD" 'chord '((om-load-inputfun 'input-funbox "objs" "SELF" nil) (om-load-inputfun 'input-funbox "no documentation" "LMIDIC" (list 6000)) (om-load-inputfun 'input-funbox "no documentation" "LVEL" (list 100)) (om-load-inputfun 'input-funbox "no documentation" "LOFFSET" (list 0)) (om-load-inputfun 'input-funbox "no documentation" "LDUR" (list 1000)) (om-load-inputfun 'input-funbox "no documentation" "LCHAN" (list 1))) (om-make-point 195 588) (om-make-point 108 95) (if (find-class 'chord nil) (let ((newobj (make-instance 'chord :lmidic (list 6600 7000 7300) :lvel (list 100 100 100) :loffset (list 0 0 0) :ldur (list 1000 1000 1000) :lchan (list 1 1 1) :from-file t))) (load-port-info newobj '(0 0 0)) (init-mus-color newobj (list (list nil (om-make-color 0 0 0)) (list (list 0) (om-make-color 0 0 0)) (list (list 1) (om-make-color 0 0 0)) (list (list 2) (om-make-color 0 0 0)))) (set-extra-pairs newobj 'nil) (set-patch-pairs newobj 'nil) (set-tonalite newobj nil) newobj)) nil nil (corrige (pairlis '(show-stems obj-mode palette-mode winpos winsize mode grillestep notechancolor? zoom inport outport deltapict cmnpref staff fontsize approx) (list 't 0 0 2621450 18350450 1 1000 nil 43/50 0 0 (om-make-point 0 0) (let ((newobj (make-instance 'edition-values))) (setf (paper-size newobj) (om-make-point 600 800)) (setf (top-margin newobj) 2) (setf (left-margin newobj) 1) (setf (right-margin newobj) 1) (setf (bottom-margin newobj) 1) (setf (orientation newobj) nil) (setf (scale newobj) nil) (setf (system-space newobj) '(1)) (setf (line-space newobj) 1) (setf (title newobj) nil) (setf (show-title? newobj) nil) (setf (show-page? newobj) nil) (setf (sheet-id newobj) nil) (setf (page-mode newobj) nil) newobj) 'g 48 2))) t nil nil) (om-load-boxcall 'bastype "aux3" 't 'nil (om-make-point 193 230) (om-make-point 11 20) 3 "3" nil) (om-load-boxcall 'genfun "TRANSP" 'transp '((om-load-inputfunmenu1 'input-funmenu "no documentation" "TYPE" ':integer (list (list "integer" ':integer) (list "pitch" ':pitch))) (om-load-inputfun 'input-funbox "no documentation" "VALUE" 3) (om-load-inputfun 'input-funbox "no documentation" "SET" (list 0 1 3 4 5 7))) (om-make-point 196 255) nil nil nil nil 1) (om-load-boxcall 'genfun "C2CHORD" 'c2chord '((om-load-inputfun 'input-funbox "the cercle" "SELF" nil) (om-load-inputfun 'input-funbox "index" "INDEX" 0) (om-load-inputfun 'input-funbox "initial value" "BASE" 6000) (om-load-inputfun 'input-funbox "approx" "APPROX" 100)) (om-make-point 54 500) nil nil nil nil 1) (om-load-boxcomment "comment" (om-make-point 177 43) '"Transposition" "" (om-make-point 57 119) nil (om-make-color 10/51 52/255 199/255) (om-make-font "Geneva" 24 :family nil :style 'nil :mode nil)) (om-load-editor-box1 "N-CERCLE" 'n-cercle '((om-load-inputfun 'input-funbox "objs" "SELF" nil) (om-load-inputfun 'input-funbox "no documentation" "N" 12) (om-load-inputfun 'input-funbox "no documentation" "PUNTOS" (list 0 5 7))) (om-make-point 185 346) (om-make-point 94 113) (if (find-class 'n-cercle nil) (make-instance 'n-cercle :n 12 :puntos (list (list 3 7 10)) :from-file t)) nil nil (corrige (pairlis '(show-stems obj-mode palette-mode deltapict outport inport zoom cmnpref notechancolor? grillestep mode winsize winpos) (list 't 0 0 (om-make-point 0 0) 0 0 1 (let ((newobj (make-instance 'edition-values))) (setf (paper-size newobj) (om-make-point 600 800)) (setf (top-margin newobj) 2) (setf (left-margin newobj) 1) (setf (right-margin newobj) 1) (setf (bottom-margin newobj) 1) (setf (orientation newobj) nil) (setf (scale newobj) nil) (setf (system-space newobj) '(1)) (setf (line-space newobj) 1) (setf (title newobj) nil) (setf (show-title? newobj) nil) (setf (show-page? newobj) nil) (setf (sheet-id newobj) nil) (setf (page-mode newobj) nil) newobj) nil 1000 0 18350450 2621450))) t nil nil) (om-load-editor-box1 "N-CERCLE" 'n-cercle '((om-load-inputfun 'input-funbox "objs" "SELF" nil) (om-load-inputfun 'input-funbox "no documentation" "N" 12) (om-load-inputfun 'input-funbox "no documentation" "PUNTOS" (list 0 5 7))) (om-make-point 70 347) (om-make-point 101 109) (if (find-class 'n-cercle nil) (make-instance 'n-cercle :n 12 :puntos (list (list 0 4 7)) :from-file t)) nil nil (corrige (pairlis '(show-stems obj-mode palette-mode deltapict outport inport zoom cmnpref notechancolor? grillestep mode winsize winpos) (list 't 0 0 (om-make-point 0 0) 0 0 1 (let ((newobj (make-instance 'edition-values))) (setf (paper-size newobj) (om-make-point 600 800)) (setf (top-margin newobj) 2) (setf (left-margin newobj) 1) (setf (right-margin newobj) 1) (setf (bottom-margin newobj) 1) (setf (orientation newobj) nil) (setf (scale newobj) nil) (setf (system-space newobj) '(1)) (setf (line-space newobj) 1) (setf (title newobj) nil) (setf (show-title? newobj) nil) (setf (show-page? newobj) nil) (setf (sheet-id newobj) nil) (setf (page-mode newobj) nil) newobj) nil 1000 0 18350450 2621450))) t nil nil) (om-load-editor-box1 "CHORD" 'chord '((om-load-inputfun 'input-funbox "objs" "SELF" nil) (om-load-inputfun 'input-funbox "no documentation" "LMIDIC" (list 6000)) (om-load-inputfun 'input-funbox "no documentation" "LVEL" (list 100)) (om-load-inputfun 'input-funbox "no documentation" "LOFFSET" (list 0)) (om-load-inputfun 'input-funbox "no documentation" "LDUR" (list 1000)) (om-load-inputfun 'input-funbox "no documentation" "LCHAN" (list 1))) (om-make-point 82 589) (om-make-point 103 92) (if (find-class 'chord nil) (let ((newobj (make-instance 'chord :lmidic (list 6000 6400 6700) :lvel (list 100 100 100) :loffset (list 0 0 0) :ldur (list 1000 1000 1000) :lchan (list 1 1 1) :from-file t))) (load-port-info newobj '(0 0 0)) (init-mus-color newobj (list (list nil (om-make-color 0 0 0)) (list (list 0) (om-make-color 0 0 0)) (list (list 1) (om-make-color 0 0 0)) (list (list 2) (om-make-color 0 0 0)))) (set-extra-pairs newobj 'nil) (set-patch-pairs newobj 'nil) (set-tonalite newobj nil) newobj)) nil nil (corrige (pairlis '(show-stems obj-mode palette-mode winpos winsize mode grillestep notechancolor? zoom inport outport deltapict cmnpref staff fontsize approx) (list 't 0 0 2621450 18350450 1 1000 nil 43/50 0 0 (om-make-point 0 0) (let ((newobj (make-instance 'edition-values))) (setf (paper-size newobj) (om-make-point 600 800)) (setf (top-margin newobj) 2) (setf (left-margin newobj) 1) (setf (right-margin newobj) 1) (setf (bottom-margin newobj) 1) (setf (orientation newobj) nil) (setf (scale newobj) nil) (setf (system-space newobj) '(1)) (setf (line-space newobj) 1) (setf (title newobj) nil) (setf (show-title? newobj) nil) (setf (show-page? newobj) nil) (setf (sheet-id newobj) nil) (setf (page-mode newobj) nil) newobj) 'g 48 2))) t nil nil)) '((10 0 11 1 nil 0) (12 0 11 2 nil 0) (18 0 12 1 nil 0) (16 0 13 0 nil 0) (17 0 14 0 nil 0) (14 0 15 0 nil 0) (11 0 16 2 nil 0) (18 0 17 2 nil 0) (13 0 19 0 nil 0) (27 0 21 1 nil 0) (25 0 22 0 nil 0) (26 0 23 0 nil 0) (23 0 24 0 nil 0) (21 0 25 2 nil 0) (27 0 26 2 nil 0) (22 0 28 0 nil 0) (36 0 30 0 nil 0) (30 0 31 0 nil 0) (32 0 33 1 nil 0) (20 0 33 2 nil 0) (37 0 34 0 nil 0) (33 0 36 2 nil 0) (20 0 37 2 nil 0) (34 0 38 0 nil 0)) (list (let ((newpict (make-instance 'patch-picture :name '|USER-ciel|))) (setf (thepict newpict) (om-get-picture '|USER-ciel|)) (setf (name newpict) '|USER-ciel|) (setf (pict-pos newpict) (om-make-point 641 157)) (setf (pict-size newpict) (om-make-point 376 447)) newpict) (let ((newpict (make-instance 'patch-picture :name '|USER-ciel|))) (setf (thepict newpict) (om-get-picture '|USER-ciel|)) (setf (name newpict) '|USER-ciel|) (setf (pict-pos newpict) (om-make-point 328 159)) (setf (pict-size newpict) (om-make-point 289 446)) newpict) (let ((newpict (make-instance 'patch-picture :name '|USER-ciel|))) (setf (thepict newpict) (om-get-picture '|USER-ciel|)) (setf (name newpict) '|USER-ciel|) (setf (pict-pos newpict) (om-make-point 16 162)) (setf (pict-size newpict) (om-make-point 288 452)) newpict)) 5.0))
