; OM File Header - Saved 2009/10/22 17:10:02
; (6.04 :patc (om-make-point 404 21) (om-make-point 50 50) (om-make-point 917 654) "No documentation " 183 0 nil nil)
; End File Header
(in-package :om)(load-lib-for 'nil)(setf *om-current-persistent* (om-load-patch1 "06-iv" '((om-load-boxcomment "comment" (om-make-point 144 63) '"Any transposition and/or inversion of a chord has the same interval content $-------------->" "" (om-make-point 120 486) nil (om-make-color 0 0 0) (om-make-font "Geneva" 10 :family nil :style 'nil :mode nil)) (om-load-boxcomment "comment" (om-make-point 93 60) '"It gives the number of intervals inside of a chord" "" (om-make-point 418 230) nil (om-make-color 0 0 0) (om-make-font "Geneva" 10 :family nil :style 'nil :mode nil)) (om-load-boxcomment "comment" (om-make-point 96 20) '"3 augmented 4th" "" (om-make-point 724 244) nil (om-make-color 0 0 0) (om-make-font "Geneva" 10 :family nil :style 'nil :mode nil)) (om-load-boxcomment "comment" (om-make-point 74 19) '"2 perfect 4th" "" (om-make-point 691 264) nil (om-make-color 0 0 0) (om-make-font "Geneva" 10 :family nil :style 'nil :mode nil)) (om-load-boxcomment "comment" (om-make-point 74 19) '"2 mjor 3rd" "" (om-make-point 656 283) nil (om-make-color 0 0 0) (om-make-font "Geneva" 10 :family nil :style 'nil :mode nil)) (om-load-boxcomment "comment" (om-make-point 73 20) '"4 minor 3rd" "" (om-make-point 611 265) nil (om-make-color 0 0 0) (om-make-font "Geneva" 10 :family nil :style 'nil :mode nil)) (om-load-boxcomment "comment" (om-make-point 47 20) '"2 tones" "" (om-make-point 578 249) nil (om-make-color 0 0 0) (om-make-font "Geneva" 10 :family nil :style 'nil :mode nil)) (om-load-boxcomment "comment" (om-make-point 62 21) '"2 semitons" "" (om-make-point 544 232) nil (om-make-color 0 0 0) (om-make-font "Geneva" 10 :family nil :style 'nil :mode nil)) (om-load-boxcomment "comment" (om-make-point 73 32) '"Vector mode$<------$" "" (om-make-point 582 118) nil (om-make-color 0 0 0) (om-make-font "Geneva" 10 :family nil :style 'nil :mode nil)) (om-load-boxcomment "comment" (om-make-point 63 36) '"in fn mode$------>$" "" (om-make-point 284 115) nil (om-make-color 0 0 0) (om-make-font "Geneva" 10 :family nil :style 'nil :mode nil)) (om-load-editor-box1 "N-CERCLE" 'n-cercle '((om-load-inputfun 'input-funbox "objs" "SELF" nil) (om-load-inputfun 'input-funbox "no documentation" "N" 12) (om-load-inputfun 'input-funbox "no documentation" "PUNTOS" (list 0 5 7))) (om-make-point 272 310) (om-make-point 219 248) (if (find-class 'n-cercle nil) (make-instance 'n-cercle :n 12 :puntos (list (list 5 4 2 11 10 8)) :from-file t)) nil nil (corrige (pairlis '(deltapict outport inport zoom palette-mode obj-mode cmnpref notechancolor? grillestep mode winsize winpos show-stems) (list (om-make-point 0 0) 0 0 1 0 0 (let ((newobj (make-instance 'edition-values))) (setf (paper-size newobj) (om-make-point 600 800)) (setf (top-margin newobj) 2) (setf (left-margin newobj) 1) (setf (right-margin newobj) 1) (setf (bottom-margin newobj) 1) (setf (orientation newobj) nil) (setf (scale newobj) nil) (setf (system-space newobj) '(1)) (setf (line-space newobj) 1) (setf (title newobj) nil) (setf (show-title? newobj) nil) (setf (show-page? newobj) nil) (setf (sheet-id newobj) nil) (setf (page-mode newobj) nil) newobj) nil 1000 0 18350450 2621450 't))) t nil nil) (om-load-boxcall 'bastype "aux1" 't 'nil (om-make-point 211 158) (om-make-point 11 20) 7 "7" nil) (om-load-boxcall 'genfun "TRANSP" 'transp '((om-load-inputfunmenu1 'input-funmenu "no documentation" "TYPE" ':integer (list (list "integer" ':integer) (list "pitch" ':pitch))) (om-load-inputfun 'input-funbox "no documentation" "VALUE" 3) (om-load-inputfun 'input-funbox "no documentation" "SET" (list 0 1 3 4 5 7))) (om-make-point 196 187) nil nil nil nil 1) (om-load-boxcall 'genfun "INV" 'inv '((om-load-inputfunmenu1 'input-funmenu "no documentation" "TYPE" ':integer (list (list "integer" ':integer) (list "pitch" ':pitch))) (om-load-inputfun 'input-funbox "no documentation" "SET" (list 0 1 2 7))) (om-make-point 284 215) nil nil nil nil 1) (om-load-boxcomment "comment" (om-make-point 245 57) '"(2 2 4 2 2 3)" "" (om-make-point 529 181) nil (om-make-color 10/51 52/255 199/255) (om-make-font "Geneva" 36 :family nil :style 'nil :mode nil)) (om-load-boxcall 'genfun "P-FORM" 'p-form '((om-load-inputfunmenu1 'input-funmenu "no documentation" "TYPE" ':fn (list (list "fn" ':fn) (list "integer" ':integer) (list "pitch" ':pitch))) (om-load-inputfun 'input-funbox "no documentation" "SET" (list 3 9 6 5 0))) (om-make-point 347 117) nil nil nil nil 1) (om-load-boxcall 'bastype "aux" 't 'nil (om-make-point 68 65) (om-make-point 112 38) (list 0 1 3 6 7 9) "(0 1 3 6 7 9)" nil) (om-load-editor-box1 "N-CERCLE1" 'n-cercle '((om-load-inputfun 'input-funbox "objs" "SELF" nil) (om-load-inputfun 'input-funbox "no documentation" "N" 12) (om-load-inputfun 'input-funbox "no documentation" "PUNTOS" (list 0 5 7))) (om-make-point 535 303) (om-make-point 274 249) (if (find-class 'n-cercle nil) (make-instance 'n-cercle :n 12 :puntos (list (list 0 1 3 6 7 9)) :from-file t)) nil nil (corrige (pairlis '(obj-mode palette-mode deltapict outport inport zoom cmnpref notechancolor? grillestep mode winsize winpos show-stems) (list 0 0 (om-make-point 0 0) 0 0 1 (let ((newobj (make-instance 'edition-values))) (setf (paper-size newobj) (om-make-point 600 800)) (setf (top-margin newobj) 2) (setf (left-margin newobj) 1) (setf (right-margin newobj) 1) (setf (bottom-margin newobj) 1) (setf (orientation newobj) nil) (setf (scale newobj) nil) (setf (system-space newobj) '(1)) (setf (line-space newobj) 1) (setf (title newobj) nil) (setf (show-title? newobj) nil) (setf (show-page? newobj) nil) (setf (sheet-id newobj) nil) (setf (page-mode newobj) nil) newobj) nil 1000 0 18350450 2621450 't))) t nil nil) (om-load-boxcall 'genfun "PC-SET" 'pc-set '((om-load-inputfunmenu1 'input-funmenu "no documentation" "TYPE" ':vector (list (list "integer" ':integer) (list "vector" ':vector) (list "pitch" ':pitch))) (om-load-inputfun 'input-funbox "no documentation" "FN-NAME" '6-z10)) (om-make-point 530 106) nil nil nil nil 1) (om-load-boxcall 'genfun "C2CHORD" 'c2chord '((om-load-inputfun 'input-funbox "the cercle" "SELF" nil) (om-load-inputfun 'input-funbox "index" "INDEX" 0) (om-load-inputfun 'input-funbox "initial value" "BASE" 6000) (om-load-inputfun 'input-funbox "approx" "APPROX" 100)) (om-make-point 86 297) nil nil nil nil 1) (om-load-editor-box1 "N-CERCLE1" 'n-cercle '((om-load-inputfun 'input-funbox "objs" "SELF" nil) (om-load-inputfun 'input-funbox "no documentation" "N" 12) (om-load-inputfun 'input-funbox "no documentation" "PUNTOS" (list 0 5 7))) (om-make-point 26 167) (om-make-point 127 102) (if (find-class 'n-cercle nil) (make-instance 'n-cercle :n 12 :puntos (list (list 0 1 3 6 7 9)) :from-file t)) nil nil (corrige (pairlis '(obj-mode palette-mode deltapict outport inport zoom cmnpref notechancolor? grillestep mode winsize winpos show-stems) (list 0 0 (om-make-point 0 0) 0 0 1 (let ((newobj (make-instance 'edition-values))) (setf (paper-size newobj) (om-make-point 600 800)) (setf (top-margin newobj) 2) (setf (left-margin newobj) 1) (setf (right-margin newobj) 1) (setf (bottom-margin newobj) 1) (setf (orientation newobj) nil) (setf (scale newobj) nil) (setf (system-space newobj) '(1)) (setf (line-space newobj) 1) (setf (title newobj) nil) (setf (show-title? newobj) nil) (setf (show-page? newobj) nil) (setf (sheet-id newobj) nil) (setf (page-mode newobj) nil) newobj) nil 1000 0 18350450 2621450 't))) t nil nil) (om-load-boxcomment "comment" (om-make-point 118 27) '"Vecteur --->" "" (om-make-point 401 204) nil (om-make-color 28/85 41/255 1) (om-make-font "Geneva" 12 :family nil :style 'nil :mode nil)) (om-load-boxcomment "comment" (om-make-point 489 59) '"Interval Vector of a PC-Set" "" (om-make-point 222 5) nil (om-make-color 10/51 52/255 199/255) (om-make-font "Geneva" 36 :family nil :style 'nil :mode nil)) (om-load-boxcomment "comment" (om-make-point 157 48) '"Rhythms$" "" (om-make-point 250 697) nil (om-make-color 166/255 11/51 36/85) (om-make-font "Georgia" 36 :family nil :style 'nil :mode nil)) (om-load-editor-box1 "CHORD" 'chord '((om-load-inputfun 'input-funbox "objs" "SELF" nil) (om-load-inputfun 'input-funbox "no documentation" "LMIDIC" (list 6000)) (om-load-inputfun 'input-funbox "no documentation" "LVEL" (list 100)) (om-load-inputfun 'input-funbox "no documentation" "LOFFSET" (list 0)) (om-load-inputfun 'input-funbox "no documentation" "LDUR" (list 1000)) (om-load-inputfun 'input-funbox "no documentation" "LCHAN" (list 1))) (om-make-point 64 369) (om-make-point 86 110) (if (find-class 'chord nil) (let ((newobj (make-instance 'chord :lmidic (list 6000 6100 6300 6400 6600 6700 6900 7000) :lvel (list 100 100 100 100 100 100 100 100) :loffset (list 0 0 0 0 0 0 0 0) :ldur (list 1000 1000 1000 1000 1000 1000 1000 1000) :lchan (list 1 1 1 1 1 1 1 1) :from-file t))) (load-port-info newobj '(0 0 0 0 0 0 0 0)) (init-mus-color newobj (list (list nil (om-make-color 0 0 0)) (list (list 0) (om-make-color 0 0 0)) (list (list 1) (om-make-color 0 0 0)) (list (list 2) (om-make-color 0 0 0)) (list (list 3) (om-make-color 0 0 0)) (list (list 4) (om-make-color 0 0 0)) (list (list 5) (om-make-color 0 0 0)) (list (list 6) (om-make-color 0 0 0)) (list (list 7) (om-make-color 0 0 0)))) (set-extra-pairs newobj 'nil) (set-patch-pairs newobj 'nil) (set-tonalite newobj nil) newobj)) nil nil (corrige (pairlis '(obj-mode palette-mode winpos winsize mode grillestep notechancolor? zoom inport outport deltapict cmnpref staff fontsize approx show-stems) (list 0 0 2621450 18350450 0 1000 nil 43/50 0 0 (om-make-point 0 0) (let ((newobj (make-instance 'edition-values))) (setf (paper-size newobj) (om-make-point 600 800)) (setf (top-margin newobj) 2) (setf (left-margin newobj) 1) (setf (right-margin newobj) 1) (setf (bottom-margin newobj) 1) (setf (orientation newobj) nil) (setf (scale newobj) nil) (setf (system-space newobj) '(1)) (setf (line-space newobj) 1) (setf (title newobj) nil) (setf (show-title? newobj) nil) (setf (show-page? newobj) nil) (setf (sheet-id newobj) nil) (setf (page-mode newobj) nil) newobj) 'g 48 2 't))) t nil nil)) '((13 0 10 2 nil 0) (11 0 12 1 nil 0) (16 0 12 2 nil 0) (12 0 13 1 nil 0) (16 0 15 1 nil 0) (15 0 18 1 nil 0) (20 0 19 0 nil 0) (16 0 20 2 nil 0) (19 0 24 0 nil 0)) (list (let ((newpict (make-instance 'patch-picture :name '|USER-ciel|))) (setf (thepict newpict) (om-get-picture '|USER-ciel|)) (setf (name newpict) '|USER-ciel|) (setf (pict-pos newpict) (om-make-point 18 95)) (setf (pict-size newpict) (om-make-point 880 345)) newpict) (let ((newpict (make-instance 'patch-picture :name 'user-recover-pict85))) (setf (thepict newpict) (om-get-picture 'user-recover-pict85)) (setf (name newpict) 'user-recover-pict85) (setf (pict-pos newpict) (om-make-point 156 349)) (setf (pict-size newpict) (om-make-point 0 -13691)) newpict)) 5.0))
