; OM File Header - Saved 2009/10/22 17:10:02
; (6.04 :patc (om-make-point 106 90) (om-make-point 50 50) (om-make-point 899 652) "No documentation " 183 0 nil nil)
; End File Header
(in-package :om)(load-lib-for 'nil)(setf *om-current-persistent* (om-load-patch1 "08-compl" '((om-load-boxcomment "comment" (om-make-point 110 67) '"Note that 4+8=12. This is a general property of Forte's catalogue." "" (om-make-point 526 70) nil (om-make-color 0 0 0) (om-make-font "Geneva" 10 :family nil :style 'nil :mode nil)) (om-load-boxcomment "comment" (om-make-point 95 50) '"The complement of 4-6 in the prime form" "" (om-make-point 434 268) nil (om-make-color 0 0 0) (om-make-font "Geneva" 10 :family nil :style 'nil :mode nil)) (om-load-boxcomment "comment" (om-make-point 96 62) '"It gives the litteral complement of the set 4-6" "" (om-make-point 338 176) nil (om-make-color 0 0 0) (om-make-font "Geneva" 10 :family nil :style 'nil :mode nil)) (om-load-boxcomment "comment" (om-make-point 42 27) '"8-6" "" (om-make-point 653 68) nil (om-make-color 28/85 41/255 1) (om-make-font "Geneva" 14 :family nil :style 'nil :mode nil)) (om-load-boxcomment "comment" (om-make-point 47 26) '"4-6" "" (om-make-point 249 69) nil (om-make-color 28/85 41/255 1) (om-make-font "Geneva" 14 :family nil :style 'nil :mode nil)) (om-load-boxcall 'genfun "PC-SET" 'pc-set '((om-load-inputfunmenu1 'input-funmenu "no documentation" "TYPE" ':integer (list (list "integer" ':integer) (list "vector" ':vector) (list "pitch" ':pitch))) (om-load-inputfun 'input-funbox "no documentation" "FN-NAME" '8-6)) (om-make-point 649 93) nil nil nil nil 1) (om-load-editor-box1 "N-CERCLE" 'n-cercle '((om-load-inputfun 'input-funbox "objs" "SELF" nil) (om-load-inputfun 'input-funbox "no documentation" "N" 12) (om-load-inputfun 'input-funbox "no documentation" "PUNTOS" (list 0 5 7))) (om-make-point 576 361) (om-make-point 167 179) (if (find-class 'n-cercle nil) (make-instance 'n-cercle :n 12 :puntos (list (list 0 1 2 3 5 6 7 8)) :from-file t)) nil nil (corrige (pairlis '(deltapict outport inport zoom cmnpref notechancolor? grillestep mode winsize winpos palette-mode obj-mode show-stems) (list (om-make-point 0 0) 0 0 1 (let ((newobj (make-instance 'edition-values))) (setf (paper-size newobj) (om-make-point 600 800)) (setf (top-margin newobj) 2) (setf (left-margin newobj) 1) (setf (right-margin newobj) 1) (setf (bottom-margin newobj) 1) (setf (orientation newobj) nil) (setf (scale newobj) nil) (setf (system-space newobj) '(1)) (setf (line-space newobj) 1) (setf (title newobj) nil) (setf (show-title? newobj) nil) (setf (show-page? newobj) nil) (setf (sheet-id newobj) nil) (setf (page-mode newobj) nil) newobj) nil 1000 0 18350450 2621450 0 0 't))) t nil nil) (om-load-boxcall 'genfun "P-FORM" 'p-form '((om-load-inputfunmenu1 'input-funmenu "no documentation" "TYPE" ':integer (list (list "fn" ':fn) (list "integer" ':integer) (list "pitch" ':pitch))) (om-load-inputfun 'input-funbox "no documentation" "SET" (list 3 9 6 5 0))) (om-make-point 386 266) nil nil nil nil 1) (om-load-boxcall 'genfun "COMP" 'comp '((om-load-inputfunmenu1 'input-funmenu "no documentation" "TYPE" ':integer (list (list "integer" ':integer) (list "pitch" ':pitch))) (om-load-inputfun 'input-funbox "no documentation" "FROM" 0) (om-load-inputfun 'input-funbox "no documentation" "TO" 4) (om-load-inputfun 'input-funbox "no documentation" "LIST" (list 0 1 2 7))) (om-make-point 294 182) nil nil nil nil 1) (om-load-editor-box1 "N-CERCLE1" 'n-cercle '((om-load-inputfun 'input-funbox "objs" "SELF" nil) (om-load-inputfun 'input-funbox "no documentation" "N" 12) (om-load-inputfun 'input-funbox "no documentation" "PUNTOS" (list 0 5 7))) (om-make-point 26 131) (om-make-point 183 192) (if (find-class 'n-cercle nil) (make-instance 'n-cercle :n 12 :puntos (list (list 0 1 2 7)) :from-file t)) nil nil (corrige (pairlis '(winpos winsize mode grillestep notechancolor? cmnpref obj-mode palette-mode zoom inport outport deltapict show-stems) (list 2621450 18350450 0 1000 nil (let ((newobj (make-instance 'edition-values))) (setf (paper-size newobj) (om-make-point 600 800)) (setf (top-margin newobj) 2) (setf (left-margin newobj) 1) (setf (right-margin newobj) 1) (setf (bottom-margin newobj) 1) (setf (orientation newobj) nil) (setf (scale newobj) nil) (setf (system-space newobj) '(1)) (setf (line-space newobj) 1) (setf (title newobj) nil) (setf (show-title? newobj) nil) (setf (show-page? newobj) nil) (setf (sheet-id newobj) nil) (setf (page-mode newobj) nil) newobj) 0 0 1 0 0 (om-make-point 0 0) 't))) t nil nil) (om-load-editor-box1 "N-CERCLE" 'n-cercle '((om-load-inputfun 'input-funbox "objs" "SELF" nil) (om-load-inputfun 'input-funbox "no documentation" "N" 12) (om-load-inputfun 'input-funbox "no documentation" "PUNTOS" (list 0 5 7))) (om-make-point 392 361) (om-make-point 167 179) (if (find-class 'n-cercle nil) (make-instance 'n-cercle :n 12 :puntos (list (list 0 1 2 3 5 6 7 8)) :from-file t)) nil nil (corrige (pairlis '(deltapict outport inport zoom cmnpref notechancolor? grillestep mode winsize winpos palette-mode obj-mode show-stems) (list (om-make-point 0 0) 0 0 1 (let ((newobj (make-instance 'edition-values))) (setf (paper-size newobj) (om-make-point 600 800)) (setf (top-margin newobj) 2) (setf (left-margin newobj) 1) (setf (right-margin newobj) 1) (setf (bottom-margin newobj) 1) (setf (orientation newobj) nil) (setf (scale newobj) nil) (setf (system-space newobj) '(1)) (setf (line-space newobj) 1) (setf (title newobj) nil) (setf (show-title? newobj) nil) (setf (show-page? newobj) nil) (setf (sheet-id newobj) nil) (setf (page-mode newobj) nil) newobj) nil 1000 0 18350450 2621450 0 0 't))) t nil nil) (om-load-editor-box1 "N-CERCLE" 'n-cercle '((om-load-inputfun 'input-funbox "objs" "SELF" nil) (om-load-inputfun 'input-funbox "no documentation" "N" 12) (om-load-inputfun 'input-funbox "no documentation" "PUNTOS" (list 0 5 7))) (om-make-point 162 361) (om-make-point 201 180) (if (find-class 'n-cercle nil) (make-instance 'n-cercle :n 12 :puntos (list (list 3 4 5 6 8 9 10 11)) :from-file t)) nil nil (corrige (pairlis '(deltapict outport inport zoom cmnpref notechancolor? grillestep mode winsize winpos palette-mode obj-mode show-stems) (list (om-make-point 0 0) 0 0 1 (let ((newobj (make-instance 'edition-values))) (setf (paper-size newobj) (om-make-point 600 800)) (setf (top-margin newobj) 2) (setf (left-margin newobj) 1) (setf (right-margin newobj) 1) (setf (bottom-margin newobj) 1) (setf (orientation newobj) nil) (setf (scale newobj) nil) (setf (system-space newobj) '(1)) (setf (line-space newobj) 1) (setf (title newobj) nil) (setf (show-title? newobj) nil) (setf (show-page? newobj) nil) (setf (sheet-id newobj) nil) (setf (page-mode newobj) nil) newobj) nil 1000 0 18350450 2621450 0 0 't))) t nil nil) (om-load-boxcall 'bastype "aux1" 't 'nil (om-make-point 246 95) (om-make-point 59 20) (list 0 1 2 7) "(0 1 2 7)" nil) (om-load-boxcomment "comment" (om-make-point 520 53) '"The complement of a PC-Set" "" (om-make-point 151 5) nil (om-make-color 10/51 52/255 199/255) (om-make-font "Geneva" 36 :family nil :style 'nil :mode nil))) '((5 0 6 2 nil 0) (8 0 7 1 nil 0) (12 0 8 3 nil 0) (12 0 9 2 nil 0) (7 0 10 2 nil 0) (8 0 11 2 nil 0)) (list (let ((newpict (make-instance 'patch-picture :name '|USER-ciel|))) (setf (thepict newpict) (om-get-picture '|USER-ciel|)) (setf (name newpict) '|USER-ciel|) (setf (pict-pos newpict) (om-make-point 28 213)) (setf (pict-size newpict) (om-make-point 856 395)) newpict)) 5.0))
