; OM File Header - Saved 2017/01/10 17:34:48
; (6.04 :patc (om-make-point 247 89) (om-make-point 50 50) (om-make-point 836 681) "No documentation " 183 0 nil "2017/01/10 17:34:48")
; End File Header
(in-package :om)(load-lib-for 'nil)(setf *om-current-persistent* (om-load-patch1 "10-Zrelation" '((om-load-boxcomment "comment" (om-make-point 97 18) '"<--- vector mode " "" (om-make-point 502 143) nil (om-make-color 0 0 0) (om-make-font "Geneva" 10 :family nil :style 'nil :mode nil)) (om-load-boxcomment "comment" (om-make-point 106 17) '"integer mode --->$" "" (om-make-point 11 113) nil (om-make-color 0 0 0) (om-make-font "Geneva" 10 :family nil :style 'nil :mode nil)) (om-load-boxcomment "comment" (om-make-point 97 18) '"vector mode --->$" "" (om-make-point 198 146) nil (om-make-color 0 0 0) (om-make-font "Geneva" 10 :family nil :style 'nil :mode nil)) (om-load-boxcomment "comment" (om-make-point 84 32) '"evaluate in the vector mode" "" (om-make-point 353 173) nil (om-make-color 0 0 0) (om-make-font "Geneva" 10 :family nil :style 'nil :mode nil)) (om-load-boxcomment "comment" (om-make-point 309 38) '"These two chords have the same interval vector but they are not equivalent under transposition and/or inversion." "" (om-make-point 239 539) nil (om-make-color 0 0 0) (om-make-font "Geneva" 10 :family nil :style 'nil :mode nil)) (om-load-boxcomment "comment" (om-make-point 22 24) '"B" "" (om-make-point 608 29) nil (om-make-color 28/85 41/255 1) (om-make-font "Geneva" 12 :family nil :style 'nil :mode nil)) (om-load-boxcomment "comment" (om-make-point 19 23) '"A" "" (om-make-point 200 41) nil (om-make-color 28/85 41/255 1) (om-make-font "Geneva" 12 :family nil :style 'nil :mode nil)) (om-load-boxcall 'genfun "PC-SET" 'pc-set '((om-load-inputfunmenu1 'input-funmenu "no documentation" "TYPE" ':vector (list (list "integer" ':integer) (list "vector" ':vector) (list "pitch" ':pitch))) (om-load-inputfun 'input-funbox "no documentation" "FN-NAME" '6-z10)) (om-make-point 452 149) nil nil nil nil 1) (om-load-boxcall 'genfun "PC-SET" 'pc-set '((om-load-inputfunmenu1 'input-funmenu "no documentation" "TYPE" ':integer (list (list "integer" ':integer) (list "vector" ':vector) (list "pitch" ':pitch))) (om-load-inputfun 'input-funbox "no documentation" "FN-NAME" '6-z10)) (om-make-point 652 106) nil nil nil nil 1) (om-load-boxcall 'genfun "PC-SET" 'pc-set '((om-load-inputfunmenu1 'input-funmenu "no documentation" "TYPE" ':vector (list (list "integer" ':integer) (list "vector" ':vector) (list "pitch" ':pitch))) (om-load-inputfun 'input-funbox "no documentation" "FN-NAME" '6-z10)) (om-make-point 295 150) nil nil nil nil 1) (om-load-boxcall 'genfun "PC-SET" 'pc-set '((om-load-inputfunmenu1 'input-funmenu "no documentation" "TYPE" ':integer (list (list "integer" ':integer) (list "vector" ':vector) (list "pitch" ':pitch))) (om-load-inputfun 'input-funbox "no documentation" "FN-NAME" '6-z10)) (om-make-point 106 124) nil nil nil nil 1) (om-load-boxcall 'genfun "C2CHORD" 'c2chord '((om-load-inputfun 'input-funbox "the cercle" "SELF" nil) (om-load-inputfun 'input-funbox "index" "INDEX" 0) (om-load-inputfun 'input-funbox "initial value" "BASE" 6000) (om-load-inputfun 'input-funbox "approx" "APPROX" 100)) (om-make-point 404 431) nil nil nil nil 1) (om-load-boxcall 'genfun "C2CHORD" 'c2chord '((om-load-inputfun 'input-funbox "the cercle" "SELF" nil) (om-load-inputfun 'input-funbox "index" "INDEX" 0) (om-load-inputfun 'input-funbox "initial value" "BASE" 6000) (om-load-inputfun 'input-funbox "approx" "APPROX" 100)) (om-make-point 287 431) nil nil nil nil 1) (om-load-editor-box1 "CHORD" 'chord '((om-load-inputfun 'input-funbox "objs" "SELF" nil) (om-load-inputfun 'input-funbox "no documentation" "LMIDIC" (list 6000)) (om-load-inputfun 'input-funbox "no documentation" "LVEL" (list 100)) (om-load-inputfun 'input-funbox "no documentation" "LOFFSET" (list 0)) (om-load-inputfun 'input-funbox "no documentation" "LDUR" (list 1000)) (om-load-inputfun 'input-funbox "no documentation" "LCHAN" (list 1))) (om-make-point 552 513) (om-make-point 86 110) (if (find-class 'chord nil) (let ((newobj (make-instance 'chord :lmidic (list 6000 6200 6300 6400 6500 6800) :lvel (list 100 100 100 100 100 100) :loffset (list 0 0 0 0 0 0) :ldur (list 1000 1000 1000 1000 1000 1000) :lchan (list 1 1 1 1 1 1) :from-file t))) (load-port-info newobj '(0 0 0 0 0 0)) (init-mus-color newobj (list (list nil (om-make-color 0 0 0)) (list (list 0) (om-make-color 0 0 0)) (list (list 1) (om-make-color 0 0 0)) (list (list 2) (om-make-color 0 0 0)) (list (list 3) (om-make-color 0 0 0)) (list (list 4) (om-make-color 0 0 0)) (list (list 5) (om-make-color 0 0 0)))) (set-extra-pairs newobj 'nil) (set-patch-pairs newobj 'nil) (set-tonalite newobj nil) newobj)) nil nil (corrige (pairlis '(show-stems approx fontsize staff cmnpref deltapict outport inport zoom notechancolor? grillestep mode winsize winpos palette-mode obj-mode) (list 't 2 48 'g (let ((newobj (make-instance 'edition-values))) (setf (paper-size newobj) (om-make-point 600 800)) (setf (top-margin newobj) 2) (setf (left-margin newobj) 1) (setf (right-margin newobj) 1) (setf (bottom-margin newobj) 1) (setf (orientation newobj) nil) (setf (scale newobj) nil) (setf (system-space newobj) '(1)) (setf (line-space newobj) 1) (setf (title newobj) nil) (setf (show-title? newobj) nil) (setf (show-page? newobj) nil) (setf (sheet-id newobj) nil) (setf (page-mode newobj) nil) newobj) (om-make-point 0 0) 0 0 43/50 nil 1000 0 18350450 2621450 0 0))) t nil nil) (om-load-editor-box1 "N-CERCLE1" 'n-cercle '((om-load-inputfun 'input-funbox "objs" "SELF" nil) (om-load-inputfun 'input-funbox "no documentation" "N" 12) (om-load-inputfun 'input-funbox "no documentation" "PUNTOS" (list 0 5 7))) (om-make-point 528 195) (om-make-point 217 222) (if (find-class 'n-cercle nil) (make-instance 'n-cercle :n 12 :puntos (list (list 0 1 3 7)) :from-file t)) nil nil (corrige (pairlis '(show-stems winpos winsize mode grillestep notechancolor? cmnpref zoom inport outport deltapict palette-mode obj-mode) (list 't 2621450 18350450 0 1000 nil (let ((newobj (make-instance 'edition-values))) (setf (paper-size newobj) (om-make-point 600 800)) (setf (top-margin newobj) 2) (setf (left-margin newobj) 1) (setf (right-margin newobj) 1) (setf (bottom-margin newobj) 1) (setf (orientation newobj) nil) (setf (scale newobj) nil) (setf (system-space newobj) '(1)) (setf (line-space newobj) 1) (setf (title newobj) nil) (setf (show-title? newobj) nil) (setf (show-page? newobj) nil) (setf (sheet-id newobj) nil) (setf (page-mode newobj) nil) newobj) 1 0 0 (om-make-point 0 0) 0 0))) t nil nil) (om-load-boxcall 'bastype "aux3" 't 'nil (om-make-point 602 52) (om-make-point 35 20) '4-z29 "4-z29" nil) (om-load-editor-box1 "N-CERCLE1" 'n-cercle '((om-load-inputfun 'input-funbox "objs" "SELF" nil) (om-load-inputfun 'input-funbox "no documentation" "N" 12) (om-load-inputfun 'input-funbox "no documentation" "PUNTOS" (list 0 5 7))) (om-make-point 29 210) (om-make-point 204 200) (if (find-class 'n-cercle nil) (make-instance 'n-cercle :n 12 :puntos (list (list 0 1 4 6)) :from-file t)) nil nil (corrige (pairlis '(show-stems winpos winsize mode grillestep notechancolor? cmnpref zoom inport outport deltapict palette-mode obj-mode) (list 't 2621450 18350450 0 1000 nil (let ((newobj (make-instance 'edition-values))) (setf (paper-size newobj) (om-make-point 600 800)) (setf (top-margin newobj) 2) (setf (left-margin newobj) 1) (setf (right-margin newobj) 1) (setf (bottom-margin newobj) 1) (setf (orientation newobj) nil) (setf (scale newobj) nil) (setf (system-space newobj) '(1)) (setf (line-space newobj) 1) (setf (title newobj) nil) (setf (show-title? newobj) nil) (setf (show-page? newobj) nil) (setf (sheet-id newobj) nil) (setf (page-mode newobj) nil) newobj) 1 0 0 (om-make-point 0 0) 0 0))) t nil nil) (om-load-boxcomment "comment" (om-make-point 186 50) '"Z-Relation" "" (om-make-point 299 15) nil (om-make-color 10/51 52/255 199/255) (om-make-font "Geneva" 36 :family nil :style 'nil :mode nil)) (om-load-boxcall 'bastype "aux3" 't 'nil (om-make-point 193 65) (om-make-point 35 20) '4-z15 "4-z15" nil) (om-load-editor-box1 "CHORD" 'chord '((om-load-inputfun 'input-funbox "objs" "SELF" nil) (om-load-inputfun 'input-funbox "no documentation" "LMIDIC" (list 6000)) (om-load-inputfun 'input-funbox "no documentation" "LVEL" (list 100)) (om-load-inputfun 'input-funbox "no documentation" "LOFFSET" (list 0)) (om-load-inputfun 'input-funbox "no documentation" "LDUR" (list 1000)) (om-load-inputfun 'input-funbox "no documentation" "LCHAN" (list 1))) (om-make-point 133 514) (om-make-point 86 110) (if (find-class 'chord nil) (let ((newobj (make-instance 'chord :lmidic (list 6000 6100 6300 6400 6500 6700) :lvel (list 100 100 100 100 100 100) :loffset (list 0 0 0 0 0 0) :ldur (list 1000 1000 1000 1000 1000 1000) :lchan (list 1 1 1 1 1 1) :from-file t))) (load-port-info newobj '(0 0 0 0 0 0)) (init-mus-color newobj (list (list nil (om-make-color 0 0 0)) (list (list 0) (om-make-color 0 0 0)) (list (list 1) (om-make-color 0 0 0)) (list (list 2) (om-make-color 0 0 0)) (list (list 3) (om-make-color 0 0 0)) (list (list 4) (om-make-color 0 0 0)) (list (list 5) (om-make-color 0 0 0)))) (set-extra-pairs newobj 'nil) (set-patch-pairs newobj 'nil) (set-tonalite newobj nil) newobj)) nil nil (corrige (pairlis '(show-stems approx fontsize staff cmnpref deltapict outport inport zoom notechancolor? grillestep mode winsize winpos palette-mode obj-mode) (list 't 2 48 'g (let ((newobj (make-instance 'edition-values))) (setf (paper-size newobj) (om-make-point 600 800)) (setf (top-margin newobj) 2) (setf (left-margin newobj) 1) (setf (right-margin newobj) 1) (setf (bottom-margin newobj) 1) (setf (orientation newobj) nil) (setf (scale newobj) nil) (setf (system-space newobj) '(1)) (setf (line-space newobj) 1) (setf (title newobj) nil) (setf (show-title? newobj) nil) (setf (show-page? newobj) nil) (setf (sheet-id newobj) nil) (setf (page-mode newobj) nil) newobj) (om-make-point 0 0) 0 0 43/50 nil 1000 0 18350450 2621450 0 0))) t nil nil)) '((15 0 7 1 nil 0) (15 0 8 1 nil 0) (18 0 9 1 nil 0) (18 0 10 1 nil 0) (14 0 11 0 nil 0) (16 0 12 0 nil 0) (11 0 13 0 nil 0) (8 0 14 2 nil 0) (10 0 16 2 nil 0) (12 0 19 0 nil 0)) (list (let ((newpict (make-instance 'patch-picture :name '|USER-ciel|))) (setf (thepict newpict) (om-get-picture '|USER-ciel|)) (setf (name newpict) '|USER-ciel|) (setf (pict-pos newpict) (om-make-point 562 165)) (setf (pict-size newpict) (om-make-point 254 316)) newpict) (let ((newpict (make-instance 'patch-picture :name '|USER-ciel|))) (setf (thepict newpict) (om-get-picture '|USER-ciel|)) (setf (name newpict) '|USER-ciel|) (setf (pict-pos newpict) (om-make-point 12 166)) (setf (pict-size newpict) (om-make-point 254 316)) newpict)) 5.0))
