; OM File Header - Saved 2021/07/12 2:25:18
; (6.2 :patc (om-make-point 347 90) (om-make-point 0 0) (om-make-point 840 605) "No documentation " 183 0 nil "2021/07/11 18:48:47")
; End File Header
(in-package :om)(load-lib-for (quote nil))(setf *om-current-persistent* (om-load-patch1 "11-compl&Zrel" (quote ((let ((box (om-load-boxcomment "comment" (om-make-point 98 72) (quote "The complements of two Z-related sets are in Z-relation") "" (om-make-point 341 431) nil (om-make-color 0 0 0) (om-make-font "Geneva" 10 :family "Geneva" :style (quote (:plain)) :mode (quote nil))))) (when (fboundp (quote set-active)) (set-active box nil)) box) (let ((box (om-load-boxcomment "comment" (om-make-point 141 36) (quote "this means that it is an all-interval PC-Set") "" (om-make-point 353 188) nil (om-make-color 0 0 0) (om-make-font "Geneva" 10 :family "Geneva" :style (quote (:plain)) :mode (quote nil))))) (when (fboundp (quote set-active)) (set-active box nil)) box) (let ((box (om-load-boxcomment "comment" (om-make-point 64 21) (quote "(111111)") "" (om-make-point 378 167) nil (om-make-color 0 0 0) (om-make-font "Geneva" 10 :family "Geneva" :style (quote (:plain)) :mode (quote nil))))) (when (fboundp (quote set-active)) (set-active box nil)) box) (let ((box (om-load-boxcomment "comment" (om-make-point 75 21) (quote "vector-mode") "" (om-make-point 380 95) nil (om-make-color 0 0 0) (om-make-font "Geneva" 10 :family "Geneva" :style (quote (:plain)) :mode (quote nil))))) (when (fboundp (quote set-active)) (set-active box nil)) box) (let ((box (om-load-boxcall (quote genfun) "PC-SET" (quote pc-set) (quote ((om-load-inputfunmenu1 (quote input-funmenu) "no documentation" "TYPE" (quote :vector) (list (list "integer" (quote :integer)) (list "vector" (quote :vector)) (list "pitch" (quote :pitch)))) (om-load-inputfun (quote input-funbox) "no documentation" "FN-NAME" (quote |8-6|)))) (om-make-point 455 112) nil nil nil nil 1))) (when (fboundp (quote set-active)) (set-active box nil)) box) (let ((box (om-load-boxcall (quote genfun) "PC-SET" (quote pc-set) (quote ((om-load-inputfunmenu1 (quote input-funmenu) "no documentation" "TYPE" (quote :vector) (list (list "integer" (quote :integer)) (list "vector" (quote :vector)) (list "pitch" (quote :pitch)))) (om-load-inputfun (quote input-funbox) "no documentation" "FN-NAME" (quote |8-6|)))) (om-make-point 334 114) nil nil nil nil 1))) (when (fboundp (quote set-active)) (set-active box nil)) box) (let ((box (om-load-boxcomment "comment" (om-make-point 73 27) (quote "8-z29") "" (om-make-point 516 341) nil (om-make-color 28/85 41/255 1) (om-make-font "Geneva" 14 :family "Geneva" :style (quote (:plain)) :mode (quote nil))))) (when (fboundp (quote set-active)) (set-active box nil)) box) (let ((box (om-load-boxcomment "comment" (om-make-point 73 27) (quote "8-z15") "" (om-make-point 176 351) nil (om-make-color 28/85 41/255 1) (om-make-font "Geneva" 14 :family "Geneva" :style (quote (:plain)) :mode (quote nil))))) (when (fboundp (quote set-active)) (set-active box nil)) box) (let ((box (om-load-editor-box1 "N-CERCLE" (quote n-cercle) (quote ((om-load-inputfun (quote input-funbox) "objs" "SELF" nil) (om-load-inputfun (quote input-funbox) "no documentation" "N" 12) (om-load-inputfun (quote input-funbox) "no documentation" "PUNTOS" (list 0 5 7)))) (om-make-point 474 381) (om-make-point 167 179) (if (find-class (quote n-cercle) nil) (make-instance (quote n-cercle) :n 12 :puntos (list (list 0 2 3 4 6 7 8 9)) :from-file t)) nil nil (pairlis (quote (deltapict outport inport zoom cmnpref notechancolor? grillestep mode winsize winpos palette-mode obj-mode show-stems)) (list (om-make-point 0 0) 0 0 1 (let ((newobj (make-instance (quote edition-values)))) (setf (paper-size newobj) (om-make-point 600 800)) (setf (top-margin newobj) 2) (setf (left-margin newobj) 1) (setf (right-margin newobj) 1) (setf (bottom-margin newobj) 1) (setf (orientation newobj) nil) (setf (scale newobj) nil) (setf (system-space newobj) (quote (1))) (setf (system-color newobj) (quote nil)) (setf (line-space newobj) 1) (setf (title newobj) nil) (setf (show-title? newobj) nil) (setf (show-page? newobj) nil) (setf (sheet-id newobj) nil) (setf (page-mode newobj) nil) newobj) nil 1000 0 18350450 2621450 0 0 (quote t))) t nil nil nil))) (when (fboundp (quote set-active)) (set-active box nil)) box) (let ((box (om-load-boxcall (quote genfun) "P-FORM" (quote p-form) (quote ((om-load-inputfunmenu1 (quote input-funmenu) "no documentation" "TYPE" (quote :integer) (list (list "fn" (quote :fn)) (list "integer" (quote :integer)) (list "pitch" (quote :pitch)))) (om-load-inputfun (quote input-funbox) "no documentation" "SET" (list 3 9 6 5 0)))) (om-make-point 399 316) nil nil nil nil 1))) (when (fboundp (quote set-active)) (set-active box nil)) box) (let ((box (om-load-editor-box1 "N-CERCLE" (quote n-cercle) (quote ((om-load-inputfun (quote input-funbox) "objs" "SELF" nil) (om-load-inputfun (quote input-funbox) "no documentation" "N" 12) (om-load-inputfun (quote input-funbox) "no documentation" "PUNTOS" (list 0 5 7)))) (om-make-point 611 173) (om-make-point 167 179) (if (find-class (quote n-cercle) nil) (make-instance (quote n-cercle) :n 12 :puntos (list (list 0 1 3 7)) :from-file t)) nil nil (pairlis (quote (deltapict outport inport zoom cmnpref notechancolor? grillestep mode winsize winpos palette-mode obj-mode show-stems)) (list (om-make-point 0 0) 0 0 1 (let ((newobj (make-instance (quote edition-values)))) (setf (paper-size newobj) (om-make-point 600 800)) (setf (top-margin newobj) 2) (setf (left-margin newobj) 1) (setf (right-margin newobj) 1) (setf (bottom-margin newobj) 1) (setf (orientation newobj) nil) (setf (scale newobj) nil) (setf (system-space newobj) (quote (1))) (setf (system-color newobj) (quote nil)) (setf (line-space newobj) 1) (setf (title newobj) nil) (setf (show-title? newobj) nil) (setf (show-page? newobj) nil) (setf (sheet-id newobj) nil) (setf (page-mode newobj) nil) newobj) nil 1000 0 18350450 2621450 0 0 (quote t))) t nil nil nil))) (when (fboundp (quote set-active)) (set-active box nil)) box) (let ((box (om-load-boxcall (quote genfun) "COMP" (quote comp) (quote ((om-load-inputfunmenu1 (quote input-funmenu) "no documentation" "TYPE" (quote :integer) (list (list "integer" (quote :integer)) (list "pitch" (quote :pitch)))) (om-load-inputfun (quote input-funbox) "no documentation" "FROM" 0) (om-load-inputfun (quote input-funbox) "no documentation" "TO" 4) (om-load-inputfun (quote input-funbox) "no documentation" "LIST" (list 0 1 2 7)))) (om-make-point 524 236) nil nil nil nil 1))) (when (fboundp (quote set-active)) (set-active box nil)) box) (let ((box (om-load-boxcall (quote bastype) "aux1" (quote t) (quote nil) (om-make-point 510 72) (om-make-point 63 26) (quote |4-Z29|) "4-z29" nil))) (when (fboundp (quote set-active)) (set-active box nil)) box) (let ((box (om-load-boxcall (quote genfun) "PC-SET" (quote pc-set) (quote ((om-load-inputfunmenu1 (quote input-funmenu) "no documentation" "TYPE" (quote :integer) (list (list "integer" (quote :integer)) (list "vector" (quote :vector)) (list "pitch" (quote :pitch)))) (om-load-inputfun (quote input-funbox) "no documentation" "FN-NAME" (quote |8-6|)))) (om-make-point 549 109) nil nil nil nil 1))) (when (fboundp (quote set-active)) (set-active box nil)) box) (let ((box (om-load-boxcall (quote bastype) "aux" (quote t) (quote nil) (om-make-point 289 74) (om-make-point 67 32) (quote |4-Z15|) "4-z15" nil))) (when (fboundp (quote set-active)) (set-active box nil)) box) (let ((box (om-load-boxcomment "comment" (om-make-point 66 28) (quote "4-z29") "" (om-make-point 645 123) nil (om-make-color 28/85 41/255 1) (om-make-font "Geneva" 14 :family "Geneva" :style (quote (:plain)) :mode (quote nil))))) (when (fboundp (quote set-active)) (set-active box nil)) box) (let ((box (om-load-boxcomment "comment" (om-make-point 73 27) (quote "4-z15") "" (om-make-point 59 71) nil (om-make-color 28/85 41/255 1) (om-make-font "Geneva" 14 :family "Geneva" :style (quote (:plain)) :mode (quote nil))))) (when (fboundp (quote set-active)) (set-active box nil)) box) (let ((box (om-load-boxcall (quote genfun) "PC-SET" (quote pc-set) (quote ((om-load-inputfunmenu1 (quote input-funmenu) "no documentation" "TYPE" (quote :integer) (list (list "integer" (quote :integer)) (list "vector" (quote :vector)) (list "pitch" (quote :pitch)))) (om-load-inputfun (quote input-funbox) "no documentation" "FN-NAME" (quote |8-6|)))) (om-make-point 234 110) nil nil nil nil 1))) (when (fboundp (quote set-active)) (set-active box nil)) box) (let ((box (om-load-editor-box1 "N-CERCLE" (quote n-cercle) (quote ((om-load-inputfun (quote input-funbox) "objs" "SELF" nil) (om-load-inputfun (quote input-funbox) "no documentation" "N" 12) (om-load-inputfun (quote input-funbox) "no documentation" "PUNTOS" (list 0 5 7)))) (om-make-point 11 107) (om-make-point 167 179) (if (find-class (quote n-cercle) nil) (make-instance (quote n-cercle) :n 12 :puntos (list (list 0 1 4 6)) :from-file t)) nil nil (pairlis (quote (deltapict outport inport zoom cmnpref notechancolor? grillestep mode winsize winpos palette-mode obj-mode show-stems)) (list (om-make-point 0 0) 0 0 1 (let ((newobj (make-instance (quote edition-values)))) (setf (paper-size newobj) (om-make-point 600 800)) (setf (top-margin newobj) 2) (setf (left-margin newobj) 1) (setf (right-margin newobj) 1) (setf (bottom-margin newobj) 1) (setf (orientation newobj) nil) (setf (scale newobj) nil) (setf (system-space newobj) (quote (1))) (setf (system-color newobj) (quote nil)) (setf (line-space newobj) 1) (setf (title newobj) nil) (setf (show-title? newobj) nil) (setf (show-page? newobj) nil) (setf (sheet-id newobj) nil) (setf (page-mode newobj) nil) newobj) nil 1000 0 18350450 2621450 0 0 (quote t))) t nil nil nil))) (when (fboundp (quote set-active)) (set-active box nil)) box) (let ((box (om-load-boxcall (quote genfun) "P-FORM" (quote p-form) (quote ((om-load-inputfunmenu1 (quote input-funmenu) "no documentation" "TYPE" (quote :integer) (list (list "fn" (quote :fn)) (list "integer" (quote :integer)) (list "pitch" (quote :pitch)))) (om-load-inputfun (quote input-funbox) "no documentation" "SET" (list 3 9 6 5 0)))) (om-make-point 340 313) nil nil nil nil 1))) (when (fboundp (quote set-active)) (set-active box nil)) box) (let ((box (om-load-boxcall (quote genfun) "COMP" (quote comp) (quote ((om-load-inputfunmenu1 (quote input-funmenu) "no documentation" "TYPE" (quote :integer) (list (list "integer" (quote :integer)) (list "pitch" (quote :pitch)))) (om-load-inputfun (quote input-funbox) "no documentation" "FROM" 0) (om-load-inputfun (quote input-funbox) "no documentation" "TO" 4) (om-load-inputfun (quote input-funbox) "no documentation" "LIST" (list 0 1 2 7)))) (om-make-point 248 253) nil nil nil nil 1))) (when (fboundp (quote set-active)) (set-active box nil)) box) (let ((box (om-load-editor-box1 "N-CERCLE" (quote n-cercle) (quote ((om-load-inputfun (quote input-funbox) "objs" "SELF" nil) (om-load-inputfun (quote input-funbox) "no documentation" "N" 12) (om-load-inputfun (quote input-funbox) "no documentation" "PUNTOS" (list 0 5 7)))) (om-make-point 130 385) (om-make-point 167 179) (if (find-class (quote n-cercle) nil) (make-instance (quote n-cercle) :n 12 :puntos (list (list 0 1 3 5 6 7 8 9)) :from-file t)) nil nil (pairlis (quote (deltapict outport inport zoom cmnpref notechancolor? grillestep mode winsize winpos palette-mode obj-mode show-stems)) (list (om-make-point 0 0) 0 0 1 (let ((newobj (make-instance (quote edition-values)))) (setf (paper-size newobj) (om-make-point 600 800)) (setf (top-margin newobj) 2) (setf (left-margin newobj) 1) (setf (right-margin newobj) 1) (setf (bottom-margin newobj) 1) (setf (orientation newobj) nil) (setf (scale newobj) nil) (setf (system-space newobj) (quote (1))) (setf (system-color newobj) (quote nil)) (setf (line-space newobj) 1) (setf (title newobj) nil) (setf (show-title? newobj) nil) (setf (show-page? newobj) nil) (setf (sheet-id newobj) nil) (setf (page-mode newobj) nil) newobj) nil 1000 0 18350450 2621450 0 0 (quote t))) t nil nil nil))) (when (fboundp (quote set-active)) (set-active box nil)) box) (let ((box (om-load-boxcomment "comment" (om-make-point 539 58) (quote "Complement and Z-Relation") "" (om-make-point 217 2) nil (om-make-color 10/51 52/255 199/255) (om-make-font "Geneva" 36 :family "Geneva" :style (quote (:plain)) :mode (quote nil))))) (when (fboundp (quote set-active)) (set-active box nil)) box))) (quote ((12 0 4 1 nil 0) (14 0 5 1 nil 0) (9 0 8 2 nil 0) (11 0 9 1 nil 0) (13 0 10 2 nil 0) (13 0 11 3 nil 0) (12 0 13 1 nil 0) (14 0 17 1 nil 0) (17 0 18 2 nil 0) (20 0 19 1 nil 0) (17 0 20 3 nil 0) (19 0 21 2 nil 0))) nil 6.2))
