; OM File Header - Saved 2017/01/10 17:34:48
; (6.04 :patc (om-make-point 392 88) (om-make-point 50 50) (om-make-point 971 631) "No documentation " 183 0 nil "2017/01/10 17:34:48")
; End File Header
(in-package :om)(load-lib-for 'nil)(setf *om-current-persistent* (om-load-patch1 "12-BabbittTh" '((om-load-boxcall 'genfun "DN-ORBITES" 'dn-orbites '((om-load-inputfun 'input-funbox "no documentation" "SELF" 3)) (om-make-point 115 131) nil nil nil nil 1) (om-load-boxcomment "comment" (om-make-point 69 35) '"complement$----->" "" (om-make-point 460 170) nil (om-make-color 0 0 0) (om-make-font "Geneva" 10 :family nil :style 'nil :mode nil)) (om-load-boxcomment "comment" (om-make-point 159 26) '"...in prime form!" "" (om-make-point 680 460) nil (om-make-color 28/85 41/255 1) (om-make-font "Geneva" 12 :family nil :style 'nil :mode nil)) (om-load-boxcomment "comment" (om-make-point 159 26) '"Its complement..." "" (om-make-point 462 458) nil (om-make-color 28/85 41/255 1) (om-make-font "Geneva" 12 :family nil :style 'nil :mode nil)) (om-load-boxcomment "comment" (om-make-point 126 27) '"An hexachord" "" (om-make-point 294 459) nil (om-make-color 28/85 41/255 1) (om-make-font "Geneva" 12 :family nil :style 'nil :mode nil)) (om-load-boxcomment "comment" (om-make-point 88 55) '"By evaluating you have the following interval vector" "" (om-make-point 153 232) nil (om-make-color 0 0 0) (om-make-font "Geneva" 10 :family nil :style 'nil :mode nil)) (om-load-boxcomment "comment" (om-make-point 88 55) '"family of all possible hexachords" "" (om-make-point 58 448) nil (om-make-color 0 0 0) (om-make-font "Geneva" 10 :family nil :style 'nil :mode nil)) (om-load-boxcall 'bastype "aux" 't 'nil (om-make-point 269 108) (om-make-point 11 20) 9 "9" nil) (om-load-boxcomment "comment" (om-make-point 597 34) '"\"Complementary Hexachords have the same interval vector\"" "" (om-make-point 147 55) nil (om-make-color 28/85 41/255 1) (om-make-font "Geneva" 18 :family nil :style 'nil :mode nil)) (om-load-boxcall 'genfun "P-FORM" 'p-form '((om-load-inputfunmenu1 'input-funmenu "no documentation" "TYPE" ':fn (list (list "fn" ':fn) (list "integer" ':integer) (list "pitch" ':pitch))) (om-load-inputfun 'input-funbox "no documentation" "SET" (list 3 9 6 5 0))) (om-make-point 702 118) nil nil nil nil 1) (om-load-boxcall 'genfun "PC-SET" 'pc-set '((om-load-inputfunmenu1 'input-funmenu "no documentation" "TYPE" ':vector (list (list "integer" ':integer) (list "vector" ':vector) (list "pitch" ':pitch))) (om-load-inputfun 'input-funbox "no documentation" "FN-NAME" '6-z10)) (om-make-point 241 218) nil nil nil nil 1) (om-load-boxcall 'genfun "PC-SET1" 'pc-set '((om-load-inputfunmenu1 'input-funmenu "no documentation" "TYPE" ':vector (list (list "integer" ':integer) (list "vector" ':vector) (list "pitch" ':pitch))) (om-load-inputfun 'input-funbox "no documentation" "FN-NAME" '6-z10)) (om-make-point 757 193) nil nil nil nil 1) (om-load-boxcall 'genfun "P-FORM" 'p-form '((om-load-inputfunmenu1 'input-funmenu "no documentation" "TYPE" ':integer (list (list "fn" ':fn) (list "integer" ':integer) (list "pitch" ':pitch))) (om-load-inputfun 'input-funbox "no documentation" "SET" (list 3 9 6 5 0))) (om-make-point 653 255) nil nil nil nil 1) (om-load-boxcall 'genfun "COMP" 'comp '((om-load-inputfunmenu1 'input-funmenu "no documentation" "TYPE" ':integer (list (list "integer" ':integer) (list "pitch" ':pitch))) (om-load-inputfun 'input-funbox "no documentation" "FROM" 6) (om-load-inputfun 'input-funbox "no documentation" "TO" 6) (om-load-inputfun 'input-funbox "no documentation" "LIST" (list 0 1 2 7))) (om-make-point 533 158) nil nil nil nil 1) (om-load-boxcall 'genfun "PC-SET" 'pc-set '((om-load-inputfunmenu1 'input-funmenu "no documentation" "TYPE" ':integer (list (list "integer" ':integer) (list "vector" ':vector) (list "pitch" ':pitch))) (om-load-inputfun 'input-funbox "no documentation" "FN-NAME" '6-z10)) (om-make-point 308 217) nil nil nil nil 1) (om-load-boxcall 'genfun "PC-SET" 'pc-set '((om-load-inputfunmenu1 'input-funmenu "no documentation" "TYPE" ':integer (list (list "integer" ':integer) (list "vector" ':vector) (list "pitch" ':pitch))) (om-load-inputfun 'input-funbox "no documentation" "FN-NAME" '6-z10)) (om-make-point 87 240) nil nil nil nil 1) (om-load-editor-box1 "N-CERCLE1" 'n-cercle '((om-load-inputfun 'input-funbox "objs" "SELF" nil) (om-load-inputfun 'input-funbox "no documentation" "N" 12) (om-load-inputfun 'input-funbox "no documentation" "PUNTOS" (list 0 5 7))) (om-make-point 45 332) (om-make-point 106 113) (if (find-class 'n-cercle nil) (make-instance 'n-cercle :n 12 :puntos (list (list 0 1 2 3 4 5) (list 0 1 2 3 4 6) (list 0 1 2 3 5 6) (list 0 1 2 4 5 6) (list 0 1 2 3 6 7) (list 0 1 2 5 6 7) (list 0 1 2 6 7 8) (list 0 2 3 4 5 7) (list 0 1 2 3 5 7) (list 0 1 3 4 5 7) (list 0 1 2 4 5 7) (list 0 1 2 4 6 7) (list 0 1 3 4 6 7) (list 0 1 3 4 5 8) (list 0 1 2 4 5 8) (list 0 1 4 5 6 8) (list 0 1 2 4 7 8) (list 0 1 2 5 7 8) (list 0 1 3 4 7 8) (list 0 1 4 5 8 9) (list 0 2 3 4 6 8) (list 0 1 2 4 6 8) (list 0 2 3 5 6 8) (list 0 1 3 4 6 8) (list 0 1 3 5 6 8) (list 0 1 3 5 7 8) (list 0 1 3 4 6 9) (list 0 1 3 5 6 9) (list 0 1 3 6 8 9) (list 0 1 3 6 7 9) (list 0 1 3 5 8 9) (list 0 2 4 5 7 9) (list 0 2 3 5 7 9) (list 0 1 3 5 7 9) (list 0 2 4 6 8 10) (list 0 1 2 3 4 7) (list 0 1 2 3 4 8) (list 0 1 2 3 7 8) (list 0 2 3 4 5 8) (list 0 1 2 3 5 8) (list 0 1 2 3 6 8) (list 0 1 2 3 6 9) (list 0 1 2 5 6 8) (list 0 1 2 5 6 9) (list 0 2 3 4 6 9) (list 0 1 2 4 6 9) (list 0 1 2 4 7 9) (list 0 1 2 5 7 9) (list 0 1 3 4 7 9) (list 0 1 4 6 7 9)) :from-file t)) nil nil (corrige (pairlis '(show-stems deltapict outport inport zoom palette-mode obj-mode cmnpref notechancolor? grillestep mode winsize winpos) (list 't (om-make-point 0 0) 0 0 1 0 0 (let ((newobj (make-instance 'edition-values))) (setf (paper-size newobj) (om-make-point 600 800)) (setf (top-margin newobj) 2) (setf (left-margin newobj) 1) (setf (right-margin newobj) 1) (setf (bottom-margin newobj) 1) (setf (orientation newobj) nil) (setf (scale newobj) nil) (setf (system-space newobj) '(1)) (setf (line-space newobj) 1) (setf (title newobj) nil) (setf (show-title? newobj) nil) (setf (show-page? newobj) nil) (setf (sheet-id newobj) nil) (setf (page-mode newobj) nil) newobj) nil 1000 0 18350450 2621450))) t nil nil) (om-load-boxcomment "comment" (om-make-point 115 29) '"(3 3 3 3 2 1)" "" (om-make-point 716 255) nil (om-make-color 28/85 41/255 1) (om-make-font "Geneva" 12 :family nil :style 'nil :mode nil)) (om-load-editor-box1 "N-CERCLE" 'n-cercle '((om-load-inputfun 'input-funbox "objs" "SELF" nil) (om-load-inputfun 'input-funbox "no documentation" "N" 12) (om-load-inputfun 'input-funbox "no documentation" "PUNTOS" (list 0 5 7))) (om-make-point 681 327) (om-make-point 144 129) (if (find-class 'n-cercle nil) (make-instance 'n-cercle :n 12 :puntos (list (list 0 2 3 4 5 8)) :from-file t)) nil nil (corrige (pairlis '(show-stems winpos winsize mode grillestep notechancolor? cmnpref zoom inport outport deltapict palette-mode obj-mode) (list 't 2621450 18350450 0 1000 nil (let ((newobj (make-instance 'edition-values))) (setf (paper-size newobj) (om-make-point 600 800)) (setf (top-margin newobj) 2) (setf (left-margin newobj) 1) (setf (right-margin newobj) 1) (setf (bottom-margin newobj) 1) (setf (orientation newobj) nil) (setf (scale newobj) nil) (setf (system-space newobj) '(1)) (setf (line-space newobj) 1) (setf (title newobj) nil) (setf (show-title? newobj) nil) (setf (show-page? newobj) nil) (setf (sheet-id newobj) nil) (setf (page-mode newobj) nil) newobj) 1 0 0 (om-make-point 0 0) 0 0))) t nil nil) (om-load-boxcomment "comment" (om-make-point 115 29) '"(3 3 3 3 2 1)" "" (om-make-point 172 290) nil (om-make-color 28/85 41/255 1) (om-make-font "Geneva" 12 :family nil :style 'nil :mode nil)) (om-load-editor-box1 "N-CERCLE" 'n-cercle '((om-load-inputfun 'input-funbox "objs" "SELF" nil) (om-load-inputfun 'input-funbox "no documentation" "N" 12) (om-load-inputfun 'input-funbox "no documentation" "PUNTOS" (list 0 5 7))) (om-make-point 291 327) (om-make-point 131 131) (if (find-class 'n-cercle nil) (make-instance 'n-cercle :n 12 :puntos (list (list 0 1 3 4 5 7)) :from-file t)) nil nil (corrige (pairlis '(show-stems winpos winsize mode grillestep notechancolor? cmnpref zoom inport outport deltapict palette-mode obj-mode) (list 't 2621450 18350450 0 1000 nil (let ((newobj (make-instance 'edition-values))) (setf (paper-size newobj) (om-make-point 600 800)) (setf (top-margin newobj) 2) (setf (left-margin newobj) 1) (setf (right-margin newobj) 1) (setf (bottom-margin newobj) 1) (setf (orientation newobj) nil) (setf (scale newobj) nil) (setf (system-space newobj) '(1)) (setf (line-space newobj) 1) (setf (title newobj) nil) (setf (show-title? newobj) nil) (setf (show-page? newobj) nil) (setf (sheet-id newobj) nil) (setf (page-mode newobj) nil) newobj) 1 0 0 (om-make-point 0 0) 0 0))) t nil nil) (om-load-boxcall 'lispfun "NTH" 'nth '((om-load-inputfun 'input-funbox "N" "N" 9) (om-load-inputfun 'input-funbox "LIST" "LIST" nil)) (om-make-point 288 150) nil nil nil nil 1) (om-load-boxcall 'bastype "aux2" 't 'nil (om-make-point 75 102) (om-make-point 17 20) 6 "6" nil) (om-load-editor-box1 "N-CERCLE" 'n-cercle '((om-load-inputfun 'input-funbox "objs" "SELF" nil) (om-load-inputfun 'input-funbox "no documentation" "N" 12) (om-load-inputfun 'input-funbox "no documentation" "PUNTOS" (list 0 5 7))) (om-make-point 467 327) (om-make-point 133 126) (if (find-class 'n-cercle nil) (make-instance 'n-cercle :n 12 :puntos (list (list 2 6 8 9 10 11)) :from-file t)) nil nil (corrige (pairlis '(show-stems winpos winsize mode grillestep notechancolor? cmnpref zoom inport outport deltapict palette-mode obj-mode) (list 't 2621450 18350450 0 1000 nil (let ((newobj (make-instance 'edition-values))) (setf (paper-size newobj) (om-make-point 600 800)) (setf (top-margin newobj) 2) (setf (left-margin newobj) 1) (setf (right-margin newobj) 1) (setf (bottom-margin newobj) 1) (setf (orientation newobj) nil) (setf (scale newobj) nil) (setf (system-space newobj) '(1)) (setf (line-space newobj) 1) (setf (title newobj) nil) (setf (show-title? newobj) nil) (setf (show-page? newobj) nil) (setf (sheet-id newobj) nil) (setf (page-mode newobj) nil) newobj) 1 0 0 (om-make-point 0 0) 0 0))) t nil nil) (om-load-boxcomment "comment" (om-make-point 458 57) '"Milton Babbitt's Theorem" "" (om-make-point 253 6) nil (om-make-color 10/51 52/255 199/255) (om-make-font "Geneva" 36 :family nil :style 'nil :mode nil))) '((22 0 0 0 nil 0) (13 0 9 1 nil 0) (21 0 10 1 nil 0) (9 0 11 1 nil 0) (13 0 12 1 nil 0) (14 0 13 3 nil 0) (21 0 14 1 nil 0) (0 0 15 1 nil 0) (15 0 16 2 nil 0) (12 0 18 2 nil 0) (14 0 20 2 nil 0) (7 0 21 0 nil 0) (0 0 21 1 nil 0) (13 0 23 2 nil 0)) (list (let ((newpict (make-instance 'patch-picture :name '|USER-ciel|))) (setf (thepict newpict) (om-get-picture '|USER-ciel|)) (setf (name newpict) '|USER-ciel|) (setf (pict-pos newpict) (om-make-point 21 138)) (setf (pict-size newpict) (om-make-point 723 412)) newpict)) 5.0))
