; OM File Header - Saved 2021/07/12 2:25:18
; (6.2 :patc (om-make-point 11 153) (om-make-point 0 0) (om-make-point 1003 675) "non documentation" 183 0 nil "2021/07/11 18:48:33")
; End File Header
(in-package :om)(load-lib-for (quote nil))(setf *om-current-persistent* (om-load-patch1 "13-hexcombinatoriality" (quote ((let ((box (om-load-editor-box1 "N-CERCLE3" (quote n-cercle) (quote ((om-load-inputfun (quote input-funbox) "objs" "SELF" nil) (om-load-inputfun (quote input-funbox) "no documentation" "N" 12) (om-load-inputfun (quote input-funbox) "no documentation" "PUNTOS" (list 0 5 7)))) (om-make-point 812 433) (om-make-point 135 137) (if (find-class (quote n-cercle) nil) (make-instance (quote n-cercle) :n 12 :puntos (list (list 10 8 7 4 2 1)) :from-file t)) nil nil (pairlis (quote (show-stems obj-mode palette-mode winpos winsize deltapict outport inport zoom cmnpref notechancolor? grillestep mode)) (list (quote t) 0 0 (om-make-point 40 10) (om-make-point 370 280) (om-make-point 0 0) 0 0 1 (let ((newobj (make-instance (quote edition-values)))) (setf (paper-size newobj) (om-make-point 600 800)) (setf (top-margin newobj) 2) (setf (left-margin newobj) 1) (setf (right-margin newobj) 1) (setf (bottom-margin newobj) 1) (setf (orientation newobj) nil) (setf (scale newobj) nil) (setf (system-space newobj) (quote (1))) (setf (system-color newobj) (quote nil)) (setf (line-space newobj) 1) (setf (title newobj) nil) (setf (show-title? newobj) nil) (setf (show-page? newobj) nil) (setf (sheet-id newobj) nil) (setf (page-mode newobj) nil) newobj) nil 1000 0)) t nil nil nil))) (when (fboundp (quote set-active)) (set-active box nil)) box) (let ((box (om-load-boxcall (quote genfun) "INV1" (quote inv) (quote ((om-load-inputfunmenu1 (quote input-funmenu) "no documentation" "TYPE" (quote :integer) (list (list "integer" (quote :integer)) (list "pitch" (quote :pitch)))) (om-load-inputfun (quote input-funbox) "no documentation" "SET" (list 0 1 2 7)))) (om-make-point 900 253) nil nil nil nil 1))) (when (fboundp (quote set-active)) (set-active box nil)) box) (let ((box (om-load-editor-box1 "N-CERCLE3" (quote n-cercle) (quote ((om-load-inputfun (quote input-funbox) "objs" "SELF" nil) (om-load-inputfun (quote input-funbox) "no documentation" "N" 12) (om-load-inputfun (quote input-funbox) "no documentation" "PUNTOS" (list 0 5 7)))) (om-make-point 760 287) (om-make-point 135 137) (if (find-class (quote n-cercle) nil) (make-instance (quote n-cercle) :n 12 :puntos (list (list 2 4 5 8 10 11)) :from-file t)) nil nil (pairlis (quote (show-stems obj-mode palette-mode winpos winsize deltapict outport inport zoom cmnpref notechancolor? grillestep mode)) (list (quote t) 0 0 (om-make-point 40 10) (om-make-point 370 280) (om-make-point 0 0) 0 0 1 (let ((newobj (make-instance (quote edition-values)))) (setf (paper-size newobj) (om-make-point 600 800)) (setf (top-margin newobj) 2) (setf (left-margin newobj) 1) (setf (right-margin newobj) 1) (setf (bottom-margin newobj) 1) (setf (orientation newobj) nil) (setf (scale newobj) nil) (setf (system-space newobj) (quote (1))) (setf (system-color newobj) (quote nil)) (setf (line-space newobj) 1) (setf (title newobj) nil) (setf (show-title? newobj) nil) (setf (show-page? newobj) nil) (setf (sheet-id newobj) nil) (setf (page-mode newobj) nil) newobj) nil 1000 0)) t nil nil nil))) (when (fboundp (quote set-active)) (set-active box nil)) box) (let ((box (om-load-boxcall (quote genfun) "COMP" (quote comp) (quote ((om-load-inputfunmenu1 (quote input-funmenu) "no documentation" "TYPE" (quote :integer) (list (list "integer" (quote :integer)) (list "pitch" (quote :pitch)))) (om-load-inputfun (quote input-funbox) "no documentation" "FROM" 6) (om-load-inputfun (quote input-funbox) "no documentation" "TO" 6) (om-load-inputfun (quote input-funbox) "no documentation" "LIST" (list 0 1 2 7)))) (om-make-point 804 214) nil nil nil nil 1))) (when (fboundp (quote set-active)) (set-active box nil)) box) (let ((box (om-load-editor-box1 "N-CERCLE3" (quote n-cercle) (quote ((om-load-inputfun (quote input-funbox) "objs" "SELF" nil) (om-load-inputfun (quote input-funbox) "no documentation" "N" 12) (om-load-inputfun (quote input-funbox) "no documentation" "PUNTOS" (list 0 5 7)))) (om-make-point 620 275) (om-make-point 135 137) (if (find-class (quote n-cercle) nil) (make-instance (quote n-cercle) :n 12 :puntos (list (list 0 1 3 6 7 9)) :from-file t)) nil nil (pairlis (quote (show-stems obj-mode palette-mode winpos winsize deltapict outport inport zoom cmnpref notechancolor? grillestep mode)) (list (quote t) 0 0 (om-make-point 40 10) (om-make-point 370 280) (om-make-point 0 0) 0 0 1 (let ((newobj (make-instance (quote edition-values)))) (setf (paper-size newobj) (om-make-point 600 800)) (setf (top-margin newobj) 2) (setf (left-margin newobj) 1) (setf (right-margin newobj) 1) (setf (bottom-margin newobj) 1) (setf (orientation newobj) nil) (setf (scale newobj) nil) (setf (system-space newobj) (quote (1))) (setf (system-color newobj) (quote nil)) (setf (line-space newobj) 1) (setf (title newobj) nil) (setf (show-title? newobj) nil) (setf (show-page? newobj) nil) (setf (sheet-id newobj) nil) (setf (page-mode newobj) nil) newobj) nil 1000 0)) t nil nil nil))) (when (fboundp (quote set-active)) (set-active box nil)) box) (let ((box (om-load-boxcall (quote bastype) "aux2" (quote t) (quote nil) (om-make-point 669 214) (om-make-point 34 31) 6 "6" nil))) (when (fboundp (quote set-active)) (set-active box nil)) box) (let ((box (om-load-boxcall (quote lispfun) "NTH1" (quote nth) (quote ((om-load-inputfun (quote input-funbox) "N" "N" nil) (om-load-inputfun (quote input-funbox) "LIST" "LIST" nil))) (om-make-point 722 221) nil nil nil nil 1))) (when (fboundp (quote set-active)) (set-active box nil)) box) (let ((box (om-load-editor-box1 "N-CERCLE2" (quote n-cercle) (quote ((om-load-inputfun (quote input-funbox) "objs" "SELF" nil) (om-load-inputfun (quote input-funbox) "no documentation" "N" 12) (om-load-inputfun (quote input-funbox) "no documentation" "PUNTOS" (list 0 5 7)))) (om-make-point 352 232) (om-make-point 127 132) (if (find-class (quote n-cercle) nil) (make-instance (quote n-cercle) :n 12 :puntos (list (list 0 11 9 7 4 2)) :from-file t)) nil nil (pairlis (quote (show-stems obj-mode palette-mode winpos winsize deltapict outport inport zoom cmnpref notechancolor? grillestep mode)) (list (quote t) 0 0 (om-make-point 40 10) (om-make-point 370 280) (om-make-point 0 0) 0 0 1 (let ((newobj (make-instance (quote edition-values)))) (setf (paper-size newobj) (om-make-point 600 800)) (setf (top-margin newobj) 2) (setf (left-margin newobj) 1) (setf (right-margin newobj) 1) (setf (bottom-margin newobj) 1) (setf (orientation newobj) nil) (setf (scale newobj) nil) (setf (system-space newobj) (quote (1))) (setf (system-color newobj) (quote nil)) (setf (line-space newobj) 1) (setf (title newobj) nil) (setf (show-title? newobj) nil) (setf (show-page? newobj) nil) (setf (sheet-id newobj) nil) (setf (page-mode newobj) nil) newobj) nil 1000 0)) t nil nil nil))) (when (fboundp (quote set-active)) (set-active box nil)) box) (let ((box (om-load-editor-box1 "N-CERCLE2" (quote n-cercle) (quote ((om-load-inputfun (quote input-funbox) "objs" "SELF" nil) (om-load-inputfun (quote input-funbox) "no documentation" "N" 12) (om-load-inputfun (quote input-funbox) "no documentation" "PUNTOS" (list 0 5 7)))) (om-make-point 217 232) (om-make-point 127 132) (if (find-class (quote n-cercle) nil) (make-instance (quote n-cercle) :n 12 :puntos (list (list 0 1 3 5 8 10)) :from-file t)) nil nil (pairlis (quote (show-stems obj-mode palette-mode winpos winsize deltapict outport inport zoom cmnpref notechancolor? grillestep mode)) (list (quote t) 0 0 (om-make-point 40 10) (om-make-point 370 280) (om-make-point 0 0) 0 0 1 (let ((newobj (make-instance (quote edition-values)))) (setf (paper-size newobj) (om-make-point 600 800)) (setf (top-margin newobj) 2) (setf (left-margin newobj) 1) (setf (right-margin newobj) 1) (setf (bottom-margin newobj) 1) (setf (orientation newobj) nil) (setf (scale newobj) nil) (setf (system-space newobj) (quote (1))) (setf (system-color newobj) (quote nil)) (setf (line-space newobj) 1) (setf (title newobj) nil) (setf (show-title? newobj) nil) (setf (show-page? newobj) nil) (setf (sheet-id newobj) nil) (setf (page-mode newobj) nil) newobj) nil 1000 0)) t nil nil nil))) (when (fboundp (quote set-active)) (set-active box nil)) box) (let ((box (om-load-boxcall (quote bastype) "aux" (quote t) (quote nil) (om-make-point 222 107) (om-make-point 38 34) 4 "4" nil))) (when (fboundp (quote set-active)) (set-active box nil)) box) (let ((box (om-load-boxcall (quote lispfun) "NTH" (quote nth) (quote ((om-load-inputfun (quote input-funbox) "N" "N" 4) (om-load-inputfun (quote input-funbox) "LIST" "LIST" nil))) (om-make-point 230 161) nil nil nil nil 1))) (when (fboundp (quote set-active)) (set-active box nil)) box) (let ((box (om-load-boxcall (quote genfun) "INV" (quote inv) (quote ((om-load-inputfunmenu1 (quote input-funmenu) "no documentation" "TYPE" (quote :integer) (list (list "integer" (quote :integer)) (list "pitch" (quote :pitch)))) (om-load-inputfun (quote input-funbox) "no documentation" "SET" (list 0 1 2 7)))) (om-make-point 434 143) nil nil nil nil 1))) (when (fboundp (quote set-active)) (set-active box nil)) box) (let ((box (om-load-boxcomment "comment" (om-make-point 389 112) (quote "Hexachordal Combinatoriality") "" (om-make-point 236 0) nil (om-make-color 10/51 52/255 199/255) (om-make-font "Geneva" 36 :family "Geneva" :style (quote (:plain)) :mode (quote nil))))) (when (fboundp (quote set-active)) (set-active box nil)) box) (let ((box (om-load-boxcomment "comment" (om-make-point 147 67) (quote "6 Babbitt's all-combinatorial hexachords") "" (om-make-point 443 515) nil (om-make-color 28/85 41/255 1) (om-make-font "Geneva" 12 :family "Geneva" :style (quote (:plain)) :mode (quote nil))))) (when (fboundp (quote set-active)) (set-active box nil)) box) (let ((box (om-load-editor-box1 "N-CERCLE" (quote n-cercle) (quote ((om-load-inputfun (quote input-funbox) "objs" "SELF" nil) (om-load-inputfun (quote input-funbox) "no documentation" "N" 12) (om-load-inputfun (quote input-funbox) "no documentation" "PUNTOS" (list 0 5 7)))) (om-make-point 346 510) (om-make-point 84 104) (if (find-class (quote n-cercle) nil) (make-instance (quote n-cercle) :n 12 :puntos (list (list 0 2 4 6 8 10) (list 0 1 4 5 8 9) (list 0 1 3 5 8 10) (list 0 1 2 6 7 8) (list 0 1 2 3 5 10) (list 0 1 2 3 4 5)) :from-file t)) "x" nil (pairlis (quote (winpos winsize mode grillestep notechancolor? cmnpref obj-mode palette-mode zoom inport outport deltapict show-stems)) (list 2621450 18350450 0 1000 nil (let ((newobj (make-instance (quote edition-values)))) (setf (paper-size newobj) (om-make-point 600 800)) (setf (top-margin newobj) 2) (setf (left-margin newobj) 1) (setf (right-margin newobj) 1) (setf (bottom-margin newobj) 1) (setf (orientation newobj) nil) (setf (scale newobj) nil) (setf (system-space newobj) (quote (1))) (setf (system-color newobj) (quote nil)) (setf (line-space newobj) 1) (setf (title newobj) nil) (setf (show-title? newobj) nil) (setf (show-page? newobj) nil) (setf (sheet-id newobj) nil) (setf (page-mode newobj) nil) newobj) 0 0 1 0 0 (om-make-point 0 0) (quote t))) t nil nil nil))) (when (fboundp (quote set-active)) (set-active box nil)) box) (let ((box (om-load-boxcall (quote genfun) "X-INTERSECT" (quote x-intersect) (quote ((om-load-inputfun (quote input-funbox) "first list" "L1?" nil) (om-load-inputfun (quote input-funbox) "second list" "L2?" nil))) (om-make-point 381 428) nil nil nil nil 1))) (when (fboundp (quote set-active)) (set-active box nil)) box) (let ((box (om-load-editor-box1 "N-CERCLE1" (quote n-cercle) (quote ((om-load-inputfun (quote input-funbox) "objs" "SELF" nil) (om-load-inputfun (quote input-funbox) "no documentation" "N" 12) (om-load-inputfun (quote input-funbox) "no documentation" "PUNTOS" (list 0 5 7)))) (om-make-point 512 246) (om-make-point 103 115) (if (find-class (quote n-cercle) nil) (make-instance (quote n-cercle) :n 12 :puntos (list (list 0 2 4 6 8 10) (list 0 1 4 6 8 10) (list 0 1 4 6 7 10) (list 0 1 4 5 8 10) (list 0 1 4 5 8 9) (list 0 1 3 6 8 10) (list 0 1 3 6 7 9) (list 0 1 3 5 8 10) (list 0 1 3 5 8 9) (list 0 1 3 5 7 10) (list 0 1 3 5 7 9) (list 0 1 3 4 7 10) (list 0 1 3 4 6 9) (list 0 1 2 6 9 10) (list 0 1 2 6 8 10) (list 0 1 2 6 7 9) (list 0 1 2 6 7 8) (list 0 1 2 5 7 8) (list 0 1 2 5 6 10) (list 0 1 2 4 8 10) (list 0 1 2 4 8 9) (list 0 1 2 4 6 10) (list 0 1 2 4 6 8) (list 0 1 2 4 5 8) (list 0 1 2 3 8 10) (list 0 1 2 3 8 9) (list 0 1 2 3 6 7) (list 0 1 2 3 5 10) (list 0 1 2 3 5 7) (list 0 1 2 3 4 10) (list 0 1 2 3 4 6) (list 0 1 2 3 4 5)) :from-file t)) "x" nil (pairlis (quote (obj-mode palette-mode deltapict outport inport zoom cmnpref notechancolor? grillestep mode winsize winpos show-stems)) (list 0 0 (om-make-point 0 0) 0 0 1 (let ((newobj (make-instance (quote edition-values)))) (setf (paper-size newobj) (om-make-point 600 800)) (setf (top-margin newobj) 2) (setf (left-margin newobj) 1) (setf (right-margin newobj) 1) (setf (bottom-margin newobj) 1) (setf (orientation newobj) nil) (setf (scale newobj) nil) (setf (system-space newobj) (quote (1))) (setf (system-color newobj) (quote nil)) (setf (line-space newobj) 1) (setf (title newobj) nil) (setf (show-title? newobj) nil) (setf (show-page? newobj) nil) (setf (sheet-id newobj) nil) (setf (page-mode newobj) nil) newobj) nil 1000 0 18350450 2621450 (quote t))) t nil nil nil))) (when (fboundp (quote set-active)) (set-active box nil)) box) (let ((box (om-load-boxcall (quote bastype) "aux1" (quote t) (quote nil) (om-make-point 606 87) (om-make-point 39 28) 32 "32" nil))) (when (fboundp (quote set-active)) (set-active box nil)) box) (let ((box (om-load-boxcall (quote genfun) "FAMILLE" (quote famille) (quote ((om-load-inputfun (quote input-funbox) "Zn" "N" 12) (om-load-inputfunmenu1 (quote input-funmenu) "familly" "FAMILLY" "tic" (list (list "tac" "tac") (list "tai" "tai") (list "tic" "tic") (list "ttl" "ttl") (list "tp" "tp") (list "tid" "tid"))) (om-load-inputfun (quote input-funbox) "number of elements" "K" 6) (om-load-inputfun (quote input-funbox) "howmany answers" "HOWMANY" 20))) (om-make-point 572 123) nil (list (list (list 0 2 4 6 8 10) (list 0 1 4 6 8 10) (list 0 1 4 6 7 10) (list 0 1 4 5 8 10) (list 0 1 4 5 8 9) (list 0 1 3 6 8 10) (list 0 1 3 6 7 9) (list 0 1 3 5 8 10) (list 0 1 3 5 8 9) (list 0 1 3 5 7 10) (list 0 1 3 5 7 9) (list 0 1 3 4 7 10) (list 0 1 3 4 6 9) (list 0 1 2 6 9 10) (list 0 1 2 6 8 10) (list 0 1 2 6 7 9) (list 0 1 2 6 7 8) (list 0 1 2 5 7 8) (list 0 1 2 5 6 10) (list 0 1 2 4 8 10) (list 0 1 2 4 8 9) (list 0 1 2 4 6 10) (list 0 1 2 4 6 8) (list 0 1 2 4 5 8) (list 0 1 2 3 8 10) (list 0 1 2 3 8 9) (list 0 1 2 3 6 7) (list 0 1 2 3 5 10) (list 0 1 2 3 5 7) (list 0 1 2 3 4 10) (list 0 1 2 3 4 6) (list 0 1 2 3 4 5))) "x" nil 1))) (when (fboundp (quote set-active)) (set-active box nil)) box) (let ((box (om-load-boxcomment "comment" (om-make-point 193 52) (quote "invers-complementary$hexachords") "" (om-make-point 621 123) nil (om-make-color 28/85 41/255 1) (om-make-font "Geneva" 12 :family "Geneva" :style (quote (:plain)) :mode (quote nil))))) (when (fboundp (quote set-active)) (set-active box nil)) box) (let ((box (om-load-boxcomment "comment" (om-make-point 90 43) (quote "self-invers hexachords") "" (om-make-point 111 99) nil (om-make-color 28/85 41/255 1) (om-make-font "Geneva" 12 :family "Geneva" :style (quote (:plain)) :mode (quote nil))))) (when (fboundp (quote set-active)) (set-active box nil)) box) (let ((box (om-load-editor-box1 "N-CERCLE1" (quote n-cercle) (quote ((om-load-inputfun (quote input-funbox) "objs" "SELF" nil) (om-load-inputfun (quote input-funbox) "no documentation" "N" 12) (om-load-inputfun (quote input-funbox) "no documentation" "PUNTOS" (list 0 5 7)))) (om-make-point 70 243) (om-make-point 110 112) (if (find-class (quote n-cercle) nil) (make-instance (quote n-cercle) :n 12 :puntos (list (list 0 2 4 6 8 10) (list 0 1 4 5 8 9) (list 0 1 3 6 8 9) (list 0 1 3 6 7 10) (list 0 1 3 5 8 10) (list 0 1 3 5 7 8) (list 0 1 3 5 6 9) (list 0 1 3 4 7 9) (list 0 1 3 4 6 10) (list 0 1 3 4 6 7) (list 0 1 2 6 7 8) (list 0 1 2 5 7 9) (list 0 1 2 5 6 7) (list 0 1 2 4 7 10) (list 0 1 2 4 5 6) (list 0 1 2 3 7 8) (list 0 1 2 3 6 9) (list 0 1 2 3 5 10) (list 0 1 2 3 4 8) (list 0 1 2 3 4 5)) :from-file t)) "x" nil (pairlis (quote (obj-mode palette-mode deltapict outport inport zoom cmnpref notechancolor? grillestep mode winsize winpos show-stems)) (list 0 0 (om-make-point 0 0) 0 0 1 (let ((newobj (make-instance (quote edition-values)))) (setf (paper-size newobj) (om-make-point 600 800)) (setf (top-margin newobj) 2) (setf (left-margin newobj) 1) (setf (right-margin newobj) 1) (setf (bottom-margin newobj) 1) (setf (orientation newobj) nil) (setf (scale newobj) nil) (setf (system-space newobj) (quote (1))) (setf (system-color newobj) (quote nil)) (setf (line-space newobj) 1) (setf (title newobj) nil) (setf (show-title? newobj) nil) (setf (show-page? newobj) nil) (setf (sheet-id newobj) nil) (setf (page-mode newobj) nil) newobj) nil 1000 0 18350450 2621450 (quote t))) t nil nil nil))) (when (fboundp (quote set-active)) (set-active box nil)) box) (let ((box (om-load-boxcall (quote bastype) "aux1" (quote t) (quote nil) (om-make-point 84 51) (om-make-point 39 35) 20 "20" nil))) (when (fboundp (quote set-active)) (set-active box nil)) box) (let ((box (om-load-boxcall (quote genfun) "FAMILLE" (quote famille) (quote ((om-load-inputfun (quote input-funbox) "Zn" "N" 12) (om-load-inputfunmenu1 (quote input-funmenu) "familly" "FAMILLY" "tai" (list (list "tac" "tac") (list "tai" "tai") (list "tic" "tic") (list "ttl" "ttl") (list "tp" "tp") (list "tid" "tid"))) (om-load-inputfun (quote input-funbox) "number of elements" "K" 6) (om-load-inputfun (quote input-funbox) "howmany answers" "HOWMANY" 20))) (om-make-point 70 99) nil (list (list (list 0 2 4 6 8 10) (list 0 1 4 5 8 9) (list 0 1 3 6 8 9) (list 0 1 3 6 7 10) (list 0 1 3 5 8 10) (list 0 1 3 5 7 8) (list 0 1 3 5 6 9) (list 0 1 3 4 7 9) (list 0 1 3 4 6 10) (list 0 1 3 4 6 7) (list 0 1 2 6 7 8) (list 0 1 2 5 7 9) (list 0 1 2 5 6 7) (list 0 1 2 4 7 10) (list 0 1 2 4 5 6) (list 0 1 2 3 7 8) (list 0 1 2 3 6 9) (list 0 1 2 3 5 10) (list 0 1 2 3 4 8) (list 0 1 2 3 4 5))) "x" nil 1))) (when (fboundp (quote set-active)) (set-active box nil)) box))) (quote ((1 0 0 2 nil 0) (3 0 1 1 nil 0) (3 0 2 2 nil 0) (6 0 3 3 nil 0) (6 0 4 2 nil 0) (5 0 6 0 nil 0) (18 0 6 1 nil 0) (11 0 7 2 nil 0) (10 0 8 2 nil 0) (9 0 10 0 nil 0) (23 0 10 1 nil 0) (10 0 11 1 nil 0) (15 0 14 2 nil 0) (21 2 15 0 nil 0) (16 2 15 1 nil 0) (18 0 16 2 nil 0) (17 0 18 3 nil 0) (23 0 21 2 nil 0) (22 0 23 3 nil 0))) nil 6.2))
