; OM File Header - Saved 2008/11/07 13:50:39
; (6.04 :patc (om-make-point 78 24) (om-make-point 50 50) (om-make-point 413 531) "No documentation " 183 0 nil "2008/11/06 16:40:36")
; End File Header
(in-package :om)(load-lib-for (quote ("profile")))(setf *om-current-persistent* (om-load-patch1 "double-reflect" (quote ((om-load-boxcall (quote bastype) "aux1" (quote t) (quote nil) (om-make-point 227 272) (om-make-point 52 28) (list 0 100) "(0 100)" nil) (om-load-editor-box1 "CHORD-SEQ" (quote chord-seq) (quote ((om-load-inputfun (quote input-funbox) "objs" "SELF" nil) (om-load-inputfun (quote input-funbox) "LMIDIC" "LMIDIC" (list 6000)) (om-load-inputfun (quote input-funbox) "LONSET" "LONSET" (list 0 1000)) (om-load-inputfun (quote input-funbox) "LDUR" "LDUR" (list 1000)) (om-load-inputfun (quote input-funbox) "LVEL" "LVEL" (list 100)) (om-load-inputfun (quote input-funbox) "LOFFSET" "LOFFSET" (list 0)) (om-load-inputfun (quote input-funbox) "LCHAN" "LCHAN" (list 1)) (om-load-inputfun (quote input-funbox) "LEGATO" "LEGATO" 100))) (om-make-point 93 327) (om-make-point 238 107) (let ((newobj (when (find-class (quote chord-seq) nil) (make-instance (quote chord-seq) :lmidic (quote ((7600) (7700) (7200) (6800) (7200) (6500) (6001) (6400) (6001) (6700) (7200) (7600) (7200) (7900) (7600) (7200) (7600) (7900) (7200) (7600) (7200) (6700) (6001) (6400) (6001) (6500) (7200) (6800) (7200) (7700) (7600) (6400))) :lonset (quote (0 100 200 300 400 500 600 700 800 900 1000 1100 1200 1300 1400 1500 1600 1700 1800 1900 2000 2100 2200 2300 2400 2500 2600 2700 2800 2900 3000 3100 3200)) :ldur (quote ((100) (100) (100) (100) (100) (100) (100) (100) (100) (100) (100) (100) (100) (100) (100) (100) (100) (100) (100) (100) (100) (100) (100) (100) (100) (100) (100) (100) (100) (100) (100) (100))) :lvel (quote ((100) (100) (100) (100) (100) (100) (100) (100) (100) (100) (100) (100) (100) (100) (100) (100) (100) (100) (100) (100) (100) (100) (100) (100) (100) (100) (100) (100) (100) (100) (100) (100))) :loffset (quote ((0) (0) (0) (0) (0) (0) (0) (0) (0) (0) (0) (0) (0) (0) (0) (0) (0) (0) (0) (0) (0) (0) (0) (0) (0) (0) (0) (0) (0) (0) (0) (0))) :lchan (quote ((1) (1) (1) (1) (1) (1) (1) (1) (1) (1) (1) (1) (1) (1) (1) (1) (1) (1) (1) (1) (1) (1) (1) (1) (1) (1) (1) (1) (1) (1) (1) (1))) :legato 100)))) (load-port-info newobj (quote ((0) (0) (0) (0) (0) (0) (0) (0) (0) (0) (0) (0) (0) (0) (0) (0) (0) (0) (0) (0) (0) (0) (0) (0) (0) (0) (0) (0) (0) (0) (0) (0)))) (init-mus-color newobj (quote nil)) (set-extra-pairs newobj (quote nil)) (set-patch-pairs newobj (quote ((nil (om-load-patch-abs1 "patch" (quote nil) (quote nil) 6.04 nil))))) (set-tonalite newobj nil) newobj) "x" nil (pairlis (quote (scale microplay obj-mode palette-mode inport outport cmnpref staff fontsize approx deltapict zoom notechancolor? grillestep mode winsize winpos show-stems)) (list nil nil 0 0 0 0 (let ((newobj (make-instance (quote edition-values)))) (setf (paper-size newobj) (om-make-point 600 800)) (setf (top-margin newobj) 2) (setf (left-margin newobj) 1) (setf (right-margin newobj) 1) (setf (bottom-margin newobj) 1) (setf (orientation newobj) nil) (setf (scale newobj) nil) (setf (system-space newobj) (quote (1))) (setf (line-space newobj) 1) (setf (title newobj) nil) (setf (show-title? newobj) nil) (setf (show-page? newobj) nil) (setf (sheet-id newobj) nil) (setf (page-mode newobj) nil) newobj) (quote gf) 24 2 (om-make-point 0 0) 1 nil 1000 0 (om-make-point 500 280) (om-make-point 10 40) (quote t))) t nil nil nil) (om-load-editor-box1 "CHORD1" (quote chord) (quote ((om-load-inputfun (quote input-funbox) "objs" "SELF" nil) (om-load-inputfun (quote input-funbox) "LMIDIC" "LMIDIC" (list 6000)) (om-load-inputfun (quote input-funbox) "LVEL" "LVEL" (list 100)) (om-load-inputfun (quote input-funbox) "LOFFSET" "LOFFSET" (list 0)) (om-load-inputfun (quote input-funbox) "LDUR" "LDUR" (list 1000)) (om-load-inputfun (quote input-funbox) "LCHAN" "LCHAN" (list 1)))) (om-make-point 146 125) (om-make-point 94 87) (let ((thechord (make-instance (quote chord) :lmidic (quote (6000 8000)) :ldur (quote (1000 1000)) :lvel (quote (100 100)) :loffset (quote (0 0)) :lchan (quote (1 1))))) (load-port-info thechord (quote (0 0))) thechord) "x" nil (pairlis (quote (scale microplay obj-mode palette-mode inport outport cmnpref staff fontsize approx deltapict zoom notechancolor? grillestep mode winsize winpos show-stems)) (list nil nil 0 0 0 0 (let ((newobj (make-instance (quote edition-values)))) (setf (paper-size newobj) (om-make-point 600 800)) (setf (top-margin newobj) 2) (setf (left-margin newobj) 1) (setf (right-margin newobj) 1) (setf (bottom-margin newobj) 1) (setf (orientation newobj) nil) (setf (scale newobj) nil) (setf (system-space newobj) (quote (1))) (setf (line-space newobj) 1) (setf (title newobj) nil) (setf (show-title? newobj) nil) (setf (show-page? newobj) nil) (setf (sheet-id newobj) nil) (setf (page-mode newobj) nil) newobj) (quote g) 24 2 (om-make-point 0 0) 1 nil 1000 0 18350450 2621450 (quote t))) t nil nil nil) (om-load-boxcall (quote bastype) "aux" (quote t) (quote nil) (om-make-point 63 14) (om-make-point 273 67) (list 3600 4300 4800 5200 4800 5500 6000 6400 6000 6700 7200 7600 7200 7900 8400 8800 8400 7900 7200 7600 7200 6700 6000 6400 6000 5500 4800 5200 4800 4300 3600 2400) "(3600 4300 4800 5200 4800 5500 6000 6400 6000 6700 7200 7600 7200 7900 8400 8800 8400 7900 7200 7600 7200 6700 6000 6400 6000 5500 4800 5200 4800 4300 3600 2400)" nil) (om-load-editor-box1 "CHORD" (quote chord) (quote ((om-load-inputfun (quote input-funbox) "objs" "SELF" nil) (om-load-inputfun (quote input-funbox) "LMIDIC" "LMIDIC" (list 6000)) (om-load-inputfun (quote input-funbox) "LVEL" "LVEL" (list 100)) (om-load-inputfun (quote input-funbox) "LOFFSET" "LOFFSET" (list 0)) (om-load-inputfun (quote input-funbox) "LDUR" "LDUR" (list 1000)) (om-load-inputfun (quote input-funbox) "LCHAN" "LCHAN" (list 1)))) (om-make-point 26 101) (om-make-point 83 132) (let ((thechord (make-instance (quote chord) :lmidic (quote (3600 4300 4800 5200 4800 5500 6000 6400 6000 6700 7200 7600 7200 7900 8400 8800 8400 7900 7200 7600 7200 6700 6000 6400 6000 5500 4800 5200 4800 4300 3600 2400)) :ldur (quote (1000 1000 1000 1000 1000 1000 1000 1000 1000 1000 1000 1000 1000 1000 1000 1000 1000 1000 1000 1000 1000 1000 1000 1000 1000 1000 1000 1000 1000 1000 1000 1000)) :lvel (quote (100 100 100 100 100 100 100 100 100 100 100 100 100 100 100 100 100 100 100 100 100 100 100 100 100 100 100 100 100 100 100 100)) :loffset (quote (0 0 0 0 0 0 0 0 0 0 0 0 0 0 0 0 0 0 0 0 0 0 0 0 0 0 0 0 0 0 0 0)) :lchan (quote (1 1 1 1 1 1 1 1 1 1 1 1 1 1 1 1 1 1 1 1 1 1 1 1 1 1 1 1 1 1 1 1))))) (load-port-info thechord (quote (0 0 0 0 0 0 0 0 0 0 0 0 0 0 0 0 0 0 0 0 0 0 0 0 0 0 0 0 0 0 0 0))) thechord) nil nil (pairlis (quote (scale microplay obj-mode palette-mode inport outport cmnpref staff fontsize approx deltapict zoom notechancolor? grillestep mode winsize winpos show-stems)) (list nil nil 0 0 0 0 (let ((newobj (make-instance (quote edition-values)))) (setf (paper-size newobj) (om-make-point 600 800)) (setf (top-margin newobj) 2) (setf (left-margin newobj) 1) (setf (right-margin newobj) 1) (setf (bottom-margin newobj) 1) (setf (orientation newobj) nil) (setf (scale newobj) nil) (setf (system-space newobj) (quote (1))) (setf (line-space newobj) 1) (setf (title newobj) nil) (setf (show-title? newobj) nil) (setf (show-page? newobj) nil) (setf (sheet-id newobj) nil) (setf (page-mode newobj) nil) newobj) (quote g) 24 2 (om-make-point 0 0) 1 nil 1000 0 18350450 2621450 (quote t))) t nil nil nil) (om-load-boxcall (quote genfun) "DOUBLE-REFLECT" (quote |Profile|::double-reflect) (quote ((om-load-inputfun (quote input-funbox) "list" "LIST" (list 1 2 3 4 5)) (om-load-inputfun (quote input-funbox) "number" "LIMITS" 2) (om-load-inputfunmenu1 (quote input-funmenu) "" "MODE?" 1 (list (list "intrv" 1) (list "note" 2))) (om-load-inputfunmenu1 (quote input-funmenu) "" "INCLU?" 2 (list (list "yes" 1) (list "no!" 2))))) (om-make-point 96 249) nil nil nil nil 1))) (quote ((5 0 1 1 nil 0) (0 0 1 2 nil 0) (3 0 4 1 nil 0) (4 1 5 0 nil 0) (2 1 5 1 nil 0))) nil 6.04))
