; OM File Header - Saved 2008/11/07 13:50:39
; (6.04 :patc (om-make-point 202 60) (om-make-point 50 50) (om-make-point 818 603) "No documentation " 183 0 nil "2008/11/06 16:46:20")
; End File Header
(in-package :om)(load-lib-for (quote ("profile")))(setf *om-current-persistent* (om-load-patch1 "multi-interpol" (quote ((om-load-editor-box1 "xxCHORD-SEQ" (quote chord-seq) (quote ((om-load-inputfun (quote input-funbox) "objs" "SELF" nil) (om-load-inputfun (quote input-funbox) "LMIDIC" "LMIDIC" (list 6000)) (om-load-inputfun (quote input-funbox) "LONSET" "LONSET" (list 0 1000)) (om-load-inputfun (quote input-funbox) "LDUR" "LDUR" (list 1000)) (om-load-inputfun (quote input-funbox) "LVEL" "LVEL" (list 100)) (om-load-inputfun (quote input-funbox) "LOFFSET" "LOFFSET" (list 0)) (om-load-inputfun (quote input-funbox) "LCHAN" "LCHAN" (list 1)) (om-load-inputfun (quote input-funbox) "LEGATO" "LEGATO" 100))) (om-make-point 72 362) (om-make-point 642 185) (let ((newobj (when (find-class (quote chord-seq) nil) (make-instance (quote chord-seq) :lmidic (quote ((3000 3200 3300) (4900 5300 5200) (8800 9600 9100) (7000 7800 7400) (7800 8600 8100) (5600 6400 6000) (4000 4500 4300) (4600 5200 4900) (4100 4500 4400) (2500 2600 2700) (4400 4600 4600) (4700 4900 4900) (3300 3500 3500) (5300 5500 5500) (7200 7500 7400))) :lonset (quote (0 1000 2000 3000 4000 5000 6000 7000 8000 9000 10000 11000 12000 13000 14000 15000)) :ldur (quote ((1000 1000 1000) (1000 1000 1000) (1000 1000 1000) (1000 1000 1000) (1000 1000 1000) (1000 1000 1000) (1000 1000 1000) (1000 1000 1000) (1000 1000 1000) (1000 1000 1000) (1000 1000 1000) (1000 1000 1000) (1000 1000 1000) (1000 1000 1000) (1000 1000 1000))) :lvel (quote ((100 100 100) (100 100 100) (100 100 100) (100 100 100) (100 100 100) (100 100 100) (100 100 100) (100 100 100) (100 100 100) (100 100 100) (100 100 100) (100 100 100) (100 100 100) (100 100 100) (100 100 100))) :loffset (quote ((0 0 0) (0 0 0) (0 0 0) (0 0 0) (0 0 0) (0 0 0) (0 0 0) (0 0 0) (0 0 0) (0 0 0) (0 0 0) (0 0 0) (0 0 0) (0 0 0) (0 0 0))) :lchan (quote ((1 1 1) (1 1 1) (1 1 1) (1 1 1) (1 1 1) (1 1 1) (1 1 1) (1 1 1) (1 1 1) (1 1 1) (1 1 1) (1 1 1) (1 1 1) (1 1 1) (1 1 1))) :legato 100)))) (load-port-info newobj (quote ((nil nil nil) (nil nil nil) (nil nil nil) (nil nil nil) (nil nil nil) (nil nil nil) (nil nil nil) (nil nil nil) (nil nil nil) (nil nil nil) (nil nil nil) (nil nil nil) (nil nil nil) (nil nil nil) (nil nil nil)))) (init-mus-color newobj (quote nil)) (set-extra-pairs newobj (quote nil)) (set-patch-pairs newobj (quote nil)) (set-tonalite newobj nil) newobj) nil nil (pairlis (quote (scale microplay obj-mode palette-mode inport outport cmnpref staff fontsize approx deltapict zoom notechancolor? grillestep mode winsize winpos show-stems)) (list nil nil 0 0 0 0 (let ((newobj (make-instance (quote edition-values)))) (setf (paper-size newobj) (om-make-point 600 800)) (setf (top-margin newobj) 2) (setf (left-margin newobj) 1) (setf (right-margin newobj) 1) (setf (bottom-margin newobj) 1) (setf (orientation newobj) nil) (setf (scale newobj) nil) (setf (system-space newobj) (quote (1))) (setf (line-space newobj) 1) (setf (title newobj) nil) (setf (show-title? newobj) nil) (setf (show-page? newobj) nil) (setf (sheet-id newobj) nil) (setf (page-mode newobj) nil) newobj) (quote ggff) 24 2 (om-make-point 0 0) 1 nil 1000 0 18350450 2621450 (quote t))) t nil nil nil) (om-load-boxcall (quote bastype) "aux1" (quote t) (quote nil) (om-make-point 283 242) (om-make-point 60 28) (list 1 2 3 4) "(1 2 3 4)" nil) (om-load-editor-box1 "BPF" (quote bpf) (quote ((om-load-inputfun (quote input-funbox) "objs" "SELF" nil) (om-load-inputfun (quote input-funbox) "X-POINTS" "X-POINTS" (list 0 10)) (om-load-inputfun (quote input-funbox) "Y-POINTS" "Y-POINTS" (list 0 100)))) (om-make-point 404 135) (om-make-point 79 105) (let ((newobj (when (find-class (quote bpf) nil) (let ((newbpf (simple-bpf-from-list (quote (0 3 6 10)) (quote (0 61 18 100)) (quote bpf) 0))) (setf (bpfcolor newbpf) (om-make-color 0 0 0)) newbpf)))) newobj) "x" nil (pairlis (quote (obj-mode palette-mode inport outport deltapict zoom cmnpref notechancolor? grillestep mode winsize winpos show-stems)) (list 0 0 0 0 (om-make-point 0 0) 1 (let ((newobj (make-instance (quote edition-values)))) (setf (paper-size newobj) (om-make-point 600 800)) (setf (top-margin newobj) 2) (setf (left-margin newobj) 1) (setf (right-margin newobj) 1) (setf (bottom-margin newobj) 1) (setf (orientation newobj) nil) (setf (scale newobj) nil) (setf (system-space newobj) (quote (1))) (setf (line-space newobj) 1) (setf (title newobj) nil) (setf (show-title? newobj) nil) (setf (show-page? newobj) nil) (setf (sheet-id newobj) nil) (setf (page-mode newobj) nil) newobj) nil 1000 0 18350450 2621450 (quote t))) t nil nil nil) (om-load-editor-box1 "CHORD1" (quote chord) (quote ((om-load-inputfun (quote input-funbox) "objs" "SELF" nil) (om-load-inputfun (quote input-funbox) "LMIDIC" "LMIDIC" (list 6000)) (om-load-inputfun (quote input-funbox) "LVEL" "LVEL" (list 100)) (om-load-inputfun (quote input-funbox) "LOFFSET" "LOFFSET" (list 0)) (om-load-inputfun (quote input-funbox) "LDUR" "LDUR" (list 1000)) (om-load-inputfun (quote input-funbox) "LCHAN" "LCHAN" (list 1)))) (om-make-point 513 169) (om-make-point 78 108) (let ((thechord (make-instance (quote chord) :lmidic (quote (6000 6100 6200 6300 6400 6500 6600 6700 6800 6900 7000 7100 7200)) :ldur (quote (1000 1000 1000 1000 1000 1000 1000 1000 1000 1000 1000 1000 1000)) :lvel (quote (100 100 100 100 100 100 100 100 100 100 100 100 100)) :loffset (quote (0 0 0 0 0 0 0 0 0 0 0 0 0)) :lchan (quote (1 1 1 1 1 1 1 1 1 1 1 1 1))))) (load-port-info thechord (quote (0 0 0 0 0 0 0 0 0 0 0 0 0))) thechord) "x" nil (pairlis (quote (scale microplay obj-mode palette-mode inport outport cmnpref staff fontsize approx deltapict zoom notechancolor? grillestep mode winsize winpos show-stems)) (list nil nil 0 0 0 0 (let ((newobj (make-instance (quote edition-values)))) (setf (paper-size newobj) (om-make-point 600 800)) (setf (top-margin newobj) 2) (setf (left-margin newobj) 1) (setf (right-margin newobj) 1) (setf (bottom-margin newobj) 1) (setf (orientation newobj) nil) (setf (scale newobj) nil) (setf (system-space newobj) (quote (1))) (setf (line-space newobj) 1) (setf (title newobj) nil) (setf (show-title? newobj) nil) (setf (show-page? newobj) nil) (setf (sheet-id newobj) nil) (setf (page-mode newobj) nil) newobj) (quote g) 24 2 (om-make-point 0 0) 1 nil 1000 0 18350450 2621450 (quote t))) t nil nil nil) (om-load-boxcall (quote bastype) "aux" (quote t) (quote nil) (om-make-point 53 34) (om-make-point 248 53) (list (list 3000 3200 3300) (list 8800 9600 9100) (list 5600 6400 6000) (list 2500 2600 2700) (list 7200 7500 7400)) "((3000 3200 3300) (8800 9600 9100) (5600 6400 6000) (2500 2600 2700) (7200 7500 7400))" nil) (om-load-editor-box1 "CHORD-SEQ" (quote chord-seq) (quote ((om-load-inputfun (quote input-funbox) "objs" "SELF" nil) (om-load-inputfun (quote input-funbox) "LMIDIC" "LMIDIC" (list 6000)) (om-load-inputfun (quote input-funbox) "LONSET" "LONSET" (list 0 1000)) (om-load-inputfun (quote input-funbox) "LDUR" "LDUR" (list 1000)) (om-load-inputfun (quote input-funbox) "LVEL" "LVEL" (list 100)) (om-load-inputfun (quote input-funbox) "LOFFSET" "LOFFSET" (list 0)) (om-load-inputfun (quote input-funbox) "LCHAN" "LCHAN" (list 1)) (om-load-inputfun (quote input-funbox) "LEGATO" "LEGATO" 100))) (om-make-point 15 110) (om-make-point 258 182) (let ((newobj (when (find-class (quote chord-seq) nil) (make-instance (quote chord-seq) :lmidic (quote ((3000 3200 3300) (8800 9600 9100) (5600 6400 6000) (2500 2600 2700) (7200 7500 7400))) :lonset (quote (0 1000 2000 3000 4000 5000)) :ldur (quote ((1000 1000 1000) (1000 1000 1000) (1000 1000 1000) (1000 1000 1000) (1000 1000 1000))) :lvel (quote ((100 100 100) (100 100 100) (100 100 100) (100 100 100) (100 100 100))) :loffset (quote ((0 0 0) (0 0 0) (0 0 0) (0 0 0) (0 0 0))) :lchan (quote ((1 1 1) (1 1 1) (1 1 1) (1 1 1) (1 1 1))) :legato 100)))) (load-port-info newobj (quote ((nil nil nil) (nil nil nil) (nil nil nil) (nil nil nil) (nil nil nil)))) (init-mus-color newobj (quote nil)) (set-extra-pairs newobj (quote nil)) (set-patch-pairs newobj (quote nil)) (set-tonalite newobj nil) newobj) nil nil (pairlis (quote (scale microplay obj-mode palette-mode inport outport cmnpref staff fontsize approx deltapict zoom notechancolor? grillestep mode winsize winpos show-stems)) (list nil nil 0 0 0 0 (let ((newobj (make-instance (quote edition-values)))) (setf (paper-size newobj) (om-make-point 600 800)) (setf (top-margin newobj) 2) (setf (left-margin newobj) 1) (setf (right-margin newobj) 1) (setf (bottom-margin newobj) 1) (setf (orientation newobj) nil) (setf (scale newobj) nil) (setf (system-space newobj) (quote (1))) (setf (line-space newobj) 1) (setf (title newobj) nil) (setf (show-title? newobj) nil) (setf (show-page? newobj) nil) (setf (sheet-id newobj) nil) (setf (page-mode newobj) nil) newobj) (quote ggff) 24 2 (om-make-point 0 0) 1 nil 1000 0 18350450 2621450 (quote t))) t nil nil nil) (om-load-boxcall (quote genfun) "MULTI-INTERPOL" (quote |Profile|::multi-interpol) (quote ((om-load-inputfun (quote input-funbox) "no documentation" "PROF" (list 0)) (om-load-inputfun (quote input-funbox) "no documentation" "N¡ELM" (list 10)) (om-load-inputfun (quote input-funbox) "no documentation" "TAB" (let ((newobj (when (find-class (quote bpf) nil) (let ((newbpf (simple-bpf-from-list (quote (0 100)) (quote (0 100)) (quote bpf) 0))) (setf (bpfcolor newbpf) (om-make-color 0 0 0)) newbpf)))) newobj)) (om-load-inputfun (quote input-funbox) "no documentation" "NOTE?" (list 6000)))) (om-make-point 285 305) nil nil nil nil 1))) (quote ((6 0 0 1 nil 0) (4 0 5 1 nil 0) (5 1 6 0 nil 0) (1 0 6 1 nil 0) (2 0 6 2 nil 0) (3 1 6 3 nil 0))) nil 6.04))
