; OM File Header - Saved 2021/07/13 20:14:15
; (6.2 :patc (om-make-point 114 22) (om-make-point 0 0) (om-make-point 1138 701) "No documentation " 183 0 nil "2021/07/13 20:11:01")
; End File Header
; External resources 
; (list (list (quote :picture) "#P\"../../../../../../openmusic/OPENMUSIC/resources/pict/lewin\""))
(in-package :om)(load-lib-for (quote nil))(setf *om-current-persistent* (om-load-patch1 "03-lewinifunc" (quote ((let ((box (om-load-editor-box1 "TEXT-BOX" (quote text-box) (quote ((om-load-inputfun (quote input-funbox) "dialog-item text (string)" "text" "untitled"))) (om-make-point 296 359) (om-make-point 172 41) (om-make-dialog-item (quote text-box) (om-make-point 1 1) (om-make-point 144 21) "(0 0 1 1 1 0)" :font (om-make-font "Liberation Sans" 11.0D0 :family "Liberation Sans" :style (quote (:plain)) :mode (quote nil))) nil nil (pairlis (quote (winpos winsize)) (list (om-make-point 10 40) (om-make-point 335 275))) nil nil nil nil))) (when (fboundp (quote set-active)) (set-active box nil)) box) (let ((box (om-load-editor-box1 "TEXT-BOX" (quote text-box) (quote ((om-load-inputfun (quote input-funbox) "dialog-item text (string)" "text" "untitled"))) (om-make-point 763 639) (om-make-point 172 41) (om-make-dialog-item (quote text-box) (om-make-point 1 1) (om-make-point 144 21) "(2 0 0 2 0 1 0 1 2 0 0 1)" :font (om-make-font "Liberation Sans" 11.0D0 :family "Liberation Sans" :style (quote (:plain)) :mode (quote nil))) nil nil (pairlis (quote (winpos winsize)) (list (om-make-point 10 40) (om-make-point 335 275))) nil nil nil nil))) (when (fboundp (quote set-active)) (set-active box nil)) box) (let ((box (om-load-editor-box1 "TEXT-BOX" (quote text-box) (quote ((om-load-inputfun (quote input-funbox) "dialog-item text (string)" "text" "untitled"))) (om-make-point 408 639) (om-make-point 172 41) (om-make-dialog-item (quote text-box) (om-make-point 1 1) (om-make-point 144 21) "(3 0 0 1 1 1 0 1 1 1 0 0)" :font (om-make-font "Liberation Sans" 11.0D0 :family "Liberation Sans" :style (quote (:plain)) :mode (quote nil))) nil nil (pairlis (quote (winpos winsize)) (list (om-make-point 10 40) (om-make-point 335 275))) nil nil nil nil))) (when (fboundp (quote set-active)) (set-active box nil)) box) (let ((box (om-load-boxcomment "comment" (om-make-point 231 46) (quote "D. Lewin: Generalized Musical Intervals and Transformations ") "" (om-make-point 848 311) nil (om-make-color 0 0 0) (om-make-font "Geneva" 14 :family "Geneva" :style (quote (:plain)) :mode (quote nil))))) (when (fboundp (quote set-active)) (set-active box nil)) box) (let ((box (om-load-boxcomment "comment" (om-make-point 366 56) (quote "Lewin Interval functions -->") "" (om-make-point 38 633) nil (om-make-color 0 0 0) (om-make-font "Geneva" 24 :family "Geneva" :style (quote (:plain)) :mode (quote nil))))) (when (fboundp (quote set-active)) (set-active box nil)) box) (let ((box (om-load-boxcomment "comment" (om-make-point 167 48) (quote "<--- Vector") "" (om-make-point 476 356) nil (om-make-color 0 0 0) (om-make-font "Geneva" 24 :family "Geneva" :style (quote (:plain)) :mode (quote nil))))) (when (fboundp (quote set-active)) (set-active box nil)) box) (let ((box (om-load-boxcall (quote genfun) "IFUNC" (quote ifunc) (quote ((om-load-inputfun (quote input-funbox) "first set" "SET1" (list 0 3 7)) (om-load-inputfun (quote input-funbox) "second set" "SET2" (list 0 4 7)) (om-load-inputfun (quote input-funbox) "modulo" "MOD" 12))) (om-make-point 480 488) nil nil nil "ifunc" 1))) (when (fboundp (quote set-active)) (set-active box nil)) box) (let ((box (om-load-editor-box1 "N-CERCLE" (quote n-cercle) (quote ((om-load-inputfun (quote input-funbox) "objs" "SELF" nil) (om-load-inputfun (quote input-funbox) "no documentation" "N" 12) (om-load-inputfun (quote input-funbox) "no documentation" "PUNTOS" (list 0 5 7)))) (om-make-point 300 488) (om-make-point 138 136) (if (find-class (quote n-cercle) nil) (make-instance (quote n-cercle) :n 12 :puntos (list (list 0 4 7)) :from-file t)) nil nil (pairlis (quote (winpos winsize mode grillestep notechancolor? cmnpref obj-mode palette-mode zoom inport outport deltapict show-stems)) (list 2621450 18350450 0 1000 nil (let ((newobj (make-instance (quote edition-values)))) (setf (paper-size newobj) (om-make-point 600 800)) (setf (top-margin newobj) 2) (setf (left-margin newobj) 1) (setf (right-margin newobj) 1) (setf (bottom-margin newobj) 1) (setf (orientation newobj) nil) (setf (scale newobj) nil) (setf (system-space newobj) (quote (1))) (setf (system-color newobj) (quote nil)) (setf (line-space newobj) 1) (setf (title newobj) nil) (setf (show-title? newobj) nil) (setf (show-page? newobj) nil) (setf (sheet-id newobj) nil) (setf (page-mode newobj) nil) newobj) 0 0 1 0 0 (om-make-point 0 0) (quote t))) t nil nil nil))) (when (fboundp (quote set-active)) (set-active box nil)) box) (let ((box (om-load-editor-box1 "N-CERCLE" (quote n-cercle) (quote ((om-load-inputfun (quote input-funbox) "objs" "SELF" nil) (om-load-inputfun (quote input-funbox) "no documentation" "N" 12) (om-load-inputfun (quote input-funbox) "no documentation" "PUNTOS" (list 0 5 7)))) (om-make-point 543 488) (om-make-point 149 143) (if (find-class (quote n-cercle) nil) (make-instance (quote n-cercle) :n 12 :puntos (list (list 0 4 7)) :from-file t)) nil nil (pairlis (quote (winpos winsize mode grillestep notechancolor? cmnpref obj-mode palette-mode zoom inport outport deltapict show-stems)) (list 2621450 18350450 0 1000 nil (let ((newobj (make-instance (quote edition-values)))) (setf (paper-size newobj) (om-make-point 600 800)) (setf (top-margin newobj) 2) (setf (left-margin newobj) 1) (setf (right-margin newobj) 1) (setf (bottom-margin newobj) 1) (setf (orientation newobj) nil) (setf (scale newobj) nil) (setf (system-space newobj) (quote (1))) (setf (system-color newobj) (quote nil)) (setf (line-space newobj) 1) (setf (title newobj) nil) (setf (show-title? newobj) nil) (setf (show-page? newobj) nil) (setf (sheet-id newobj) nil) (setf (page-mode newobj) nil) newobj) 0 0 1 0 0 (om-make-point 0 0) (quote t))) t nil nil nil))) (when (fboundp (quote set-active)) (set-active box nil)) box) (let ((box (om-load-boxcall (quote bastype) "aux" (quote t) (quote nil) (om-make-point 347 416) (om-make-point 71 28) (list 0 4 7) "(0 4 7)" nil))) (when (fboundp (quote set-active)) (set-active box nil)) box) (let ((box (om-load-boxcall (quote bastype) "aux1" (quote t) (quote nil) (om-make-point 586 411) (om-make-point 65 33) (list 0 4 7) "(0 4 7)" nil))) (when (fboundp (quote set-active)) (set-active box nil)) box) (let ((box (om-load-boxcall (quote genfun) "PC-SET" (quote pc-set) (quote ((om-load-inputfunmenu1 (quote input-funmenu) "no documentation" "TYPE" (quote :vector) (list (list "integer" (quote :integer)) (list "vector" (quote :vector)) (list "pitch" (quote :pitch)))) (om-load-inputfun (quote input-funbox) "no documentation" "FN-NAME" (quote |6-Z10|)))) (om-make-point 365 278) nil nil nil nil 1))) (when (fboundp (quote set-active)) (set-active box nil)) box) (let ((box (om-load-boxcall (quote genfun) "P-FORM" (quote p-form) (quote ((om-load-inputfunmenu1 (quote input-funmenu) "no documentation" "TYPE" (quote :fn) (list (list "fn" (quote :fn)) (list "integer" (quote :integer)) (list "pitch" (quote :pitch)))) (om-load-inputfun (quote input-funbox) "no documentation" "SET" (list 3 9 6 5 0)))) (om-make-point 373 177) nil nil nil nil 1))) (when (fboundp (quote set-active)) (set-active box nil)) box) (let ((box (om-load-boxcall (quote genfun) "IFUNC" (quote ifunc) (quote ((om-load-inputfun (quote input-funbox) "first set" "SET1" (list 0 3 7)) (om-load-inputfun (quote input-funbox) "second set" "SET2" (list 0 4 7)) (om-load-inputfun (quote input-funbox) "modulo" "MOD" 12))) (om-make-point 835 483) nil nil nil nil 1))) (when (fboundp (quote set-active)) (set-active box nil)) box) (let ((box (om-load-editor-box1 "N-CERCLE" (quote n-cercle) (quote ((om-load-inputfun (quote input-funbox) "objs" "SELF" nil) (om-load-inputfun (quote input-funbox) "no documentation" "N" 12) (om-load-inputfun (quote input-funbox) "no documentation" "PUNTOS" (list 0 5 7)))) (om-make-point 696 485) (om-make-point 118 139) (if (find-class (quote n-cercle) nil) (make-instance (quote n-cercle) :n 12 :puntos (list (list 0 4 7)) :from-file t)) nil nil (pairlis (quote (winpos winsize mode grillestep notechancolor? cmnpref obj-mode palette-mode zoom inport outport deltapict show-stems)) (list 2621450 18350450 0 1000 nil (let ((newobj (make-instance (quote edition-values)))) (setf (paper-size newobj) (om-make-point 600 800)) (setf (top-margin newobj) 2) (setf (left-margin newobj) 1) (setf (right-margin newobj) 1) (setf (bottom-margin newobj) 1) (setf (orientation newobj) nil) (setf (scale newobj) nil) (setf (system-space newobj) (quote (1))) (setf (system-color newobj) (quote nil)) (setf (line-space newobj) 1) (setf (title newobj) nil) (setf (show-title? newobj) nil) (setf (show-page? newobj) nil) (setf (sheet-id newobj) nil) (setf (page-mode newobj) nil) newobj) 0 0 1 0 0 (om-make-point 0 0) (quote t))) t nil nil nil))) (when (fboundp (quote set-active)) (set-active box nil)) box) (let ((box (om-load-editor-box1 "N-CERCLE" (quote n-cercle) (quote ((om-load-inputfun (quote input-funbox) "objs" "SELF" nil) (om-load-inputfun (quote input-funbox) "no documentation" "N" 12) (om-load-inputfun (quote input-funbox) "no documentation" "PUNTOS" (list 0 5 7)))) (om-make-point 895 483) (om-make-point 120 141) (if (find-class (quote n-cercle) nil) (make-instance (quote n-cercle) :n 12 :puntos (list (list 0 3 7)) :from-file t)) nil nil (pairlis (quote (winpos winsize mode grillestep notechancolor? cmnpref obj-mode palette-mode zoom inport outport deltapict show-stems)) (list 2621450 18350450 0 1000 nil (let ((newobj (make-instance (quote edition-values)))) (setf (paper-size newobj) (om-make-point 600 800)) (setf (top-margin newobj) 2) (setf (left-margin newobj) 1) (setf (right-margin newobj) 1) (setf (bottom-margin newobj) 1) (setf (orientation newobj) nil) (setf (scale newobj) nil) (setf (system-space newobj) (quote (1))) (setf (system-color newobj) (quote nil)) (setf (line-space newobj) 1) (setf (title newobj) nil) (setf (show-title? newobj) nil) (setf (show-page? newobj) nil) (setf (sheet-id newobj) nil) (setf (page-mode newobj) nil) newobj) 0 0 1 0 0 (om-make-point 0 0) (quote t))) t nil nil nil))) (when (fboundp (quote set-active)) (set-active box nil)) box) (let ((box (om-load-boxcall (quote bastype) "aux" (quote t) (quote nil) (om-make-point 723 412) (om-make-point 55 30) (list 0 4 7) "(0 4 7)" nil))) (when (fboundp (quote set-active)) (set-active box nil)) box) (let ((box (om-load-boxcall (quote bastype) "aux1" (quote t) (quote nil) (om-make-point 907 411) (om-make-point 57 32) (list 0 3 7) "(0 3 7)" nil))) (when (fboundp (quote set-active)) (set-active box nil)) box) (let ((box (om-load-boxcomment "comment" (om-make-point 95 299) (quote "IFUNC=2$IFUNC=1$IFUNC=0$IFUNC=0$IFUNC=2$IFUNC=1$IFUNC=0$IFUNC=1$IFUNC=0$IFUNC=2$IFUNC=0$IFUNC=0$") "" (om-make-point 180 289) nil (om-make-color 127/255 37/255 43/255) (om-make-font "Geneva" 18 :family "Geneva" :style (quote (:plain)) :mode (quote nil))))) (when (fboundp (quote set-active)) (set-active box nil)) box) (let ((box (om-load-boxcomment "comment" (om-make-point 50 298) (quote "-->$-->$-->$-->$-->$-->$-->$-->$-->$-->$-->$-->") "" (om-make-point 107 289) nil (om-make-color 5/17 98/255 209/255) (om-make-font "Geneva" 18 :family "Geneva" :style (quote (:plain)) :mode (quote nil))))) (when (fboundp (quote set-active)) (set-active box nil)) box) (let ((box (om-load-boxcomment "comment" (om-make-point 63 298) (quote "i = 0 $i=1$i=2$i=3$i=4$i=5$i=6$i=7$i=8$i=9$i=10$i=11$   ") "" (om-make-point 33 289) nil (om-make-color 127/255 37/255 43/255) (om-make-font "Geneva" 18 :family "Geneva" :style (quote (:plain)) :mode (quote nil))))) (when (fboundp (quote set-active)) (set-active box nil)) box) (let ((box (om-load-boxcall (quote bastype) "aux1" (quote t) (quote nil) (om-make-point 316 125) (om-make-point 58 30) (list 0 4 7) "(0 4 7)" nil))) (when (fboundp (quote set-active)) (set-active box nil)) box) (let ((box (om-load-editor-box1 "N-CERCLE" (quote n-cercle) (quote ((om-load-inputfun (quote input-funbox) "objs" "SELF" nil) (om-load-inputfun (quote input-funbox) "no documentation" "N" 12) (om-load-inputfun (quote input-funbox) "no documentation" "PUNTOS" (list 0 5 7)))) (om-make-point 234 177) (om-make-point 78 88) (if (find-class (quote n-cercle) nil) (make-instance (quote n-cercle) :n 12 :puntos (list (list 0 4 7)) :from-file t)) nil nil (pairlis (quote (winpos winsize mode grillestep notechancolor? cmnpref obj-mode palette-mode zoom inport outport deltapict show-stems)) (list 2621450 18350450 0 1000 nil (let ((newobj (make-instance (quote edition-values)))) (setf (paper-size newobj) (om-make-point 600 800)) (setf (top-margin newobj) 2) (setf (left-margin newobj) 1) (setf (right-margin newobj) 1) (setf (bottom-margin newobj) 1) (setf (orientation newobj) nil) (setf (scale newobj) nil) (setf (system-space newobj) (quote (1))) (setf (system-color newobj) (quote nil)) (setf (line-space newobj) 1) (setf (title newobj) nil) (setf (show-title? newobj) nil) (setf (show-page? newobj) nil) (setf (sheet-id newobj) nil) (setf (page-mode newobj) nil) newobj) 0 0 1 0 0 (om-make-point 0 0) (quote t))) t nil nil nil))) (when (fboundp (quote set-active)) (set-active box nil)) box) (let ((box (om-load-boxcall (quote bastype) "aux" (quote t) (quote nil) (om-make-point 92 136) (om-make-point 61 31) (list 0 3 7) "(0 3 7)" nil))) (when (fboundp (quote set-active)) (set-active box nil)) box) (let ((box (om-load-editor-box1 "N-CERCLE" (quote n-cercle) (quote ((om-load-inputfun (quote input-funbox) "objs" "SELF" nil) (om-load-inputfun (quote input-funbox) "no documentation" "N" 12) (om-load-inputfun (quote input-funbox) "no documentation" "PUNTOS" (list 0 5 7)))) (om-make-point 60 175) (om-make-point 78 88) (if (find-class (quote n-cercle) nil) (make-instance (quote n-cercle) :n 12 :puntos (list (list 0 3 7)) :from-file t)) nil nil (pairlis (quote (winpos winsize mode grillestep notechancolor? cmnpref obj-mode palette-mode zoom inport outport deltapict show-stems)) (list 2621450 18350450 0 1000 nil (let ((newobj (make-instance (quote edition-values)))) (setf (paper-size newobj) (om-make-point 600 800)) (setf (top-margin newobj) 2) (setf (left-margin newobj) 1) (setf (right-margin newobj) 1) (setf (bottom-margin newobj) 1) (setf (orientation newobj) nil) (setf (scale newobj) nil) (setf (system-space newobj) (quote (1))) (setf (system-color newobj) (quote nil)) (setf (line-space newobj) 1) (setf (title newobj) nil) (setf (show-title? newobj) nil) (setf (show-page? newobj) nil) (setf (sheet-id newobj) nil) (setf (page-mode newobj) nil) newobj) 0 0 1 0 0 (om-make-point 0 0) (quote t))) t nil nil nil))) (when (fboundp (quote set-active)) (set-active box nil)) box) (let ((box (om-load-boxcomment "comment" (om-make-point 405 49) (quote "IFUNC (i) = # (a,b) : int(a,b) = i") "" (om-make-point 421 216) nil (om-make-color 10/51 52/255 199/255) (om-make-font "Geneva" 24 :family "Geneva" :style (quote (:plain)) :mode (quote nil))))) (when (fboundp (quote set-active)) (set-active box nil)) box) (let ((box (om-load-boxcomment "comment" (om-make-point 343 63) (quote "GIS = (S, IVLS, int)") "" (om-make-point 444 136) nil (om-make-color 10/51 52/255 199/255) (om-make-font "Geneva" 36 :family "Geneva" :style (quote (:plain)) :mode (quote nil))))) (when (fboundp (quote set-active)) (set-active box nil)) box) (let ((box (om-load-boxcomment "comment" (om-make-point 1033 112) (quote "Generalized Interval System (GIS) and Interval function (IFUNC)") "" (om-make-point 66 3) nil (om-make-color 0 0 0) (om-make-font "Geneva" 36 :family "Geneva" :style (quote (:plain)) :mode (quote nil))))) (when (fboundp (quote set-active)) (set-active box nil)) box))) (quote ((11 0 0 0 nil 0) (13 0 1 0 nil 0) (6 0 2 0 nil 0) (9 0 6 0 nil 0) (10 0 6 1 nil 0) (9 0 7 2 nil 0) (10 0 8 2 nil 0) (12 0 11 1 nil 0) (21 0 12 1 nil 0) (16 0 13 0 nil 0) (17 0 13 1 nil 0) (16 0 14 2 nil 0) (17 0 15 2 nil 0) (21 0 22 2 nil 0) (23 0 24 2 nil 0))) (list (let ((newpict (make-instance (quote patch-picture) :name "lewin" :source (quote kernel) :pict-pathname (restore-pict-path (restore-path nil)) :thepict (om-get-picture "lewin" (quote kernel)) :storemode :external :draw-params (quote (p 0 0 100 100)) :extraobjs nil))) (setf (pict-pos newpict) (om-make-point 814 93)) (setf (pict-size newpict) (om-make-point 261 209)) newpict)) 6.2))
