; OM File Header - Saved 2011/10/22 18:44:21
; (6.010003 :patc (om-make-point 55 79) (om-make-point 621 154) (om-make-point 828 746) "No documentation " 183 0 nil "2011/10/22 18:44:21")
; End File Header
(in-package :om)(load-lib-for (quote nil))(setf *om-current-persistent* (om-load-patch1 "patch_40" (quote ((om-load-boxcomment "comment1112" (om-make-point 317 37) (quote "TUTORIAL 40 - Building a Maquette") "" (om-make-point 283 9) nil (om-make-color 0 0 0) (om-make-font "Verdana" 12 :family "Verdana" :style (quote (:bold)) :mode (quote nil))) (om-load-boxcall (quote maquette) "maquette_40" (quote ("elements" "tutorial patches" "tutorial_40" "maquette_40")) (quote ((om-load-inputfun (quote input-funbox) "time rate number of offsets list" "time" 1000) (om-load-inputfun (quote input-funbox) "objects to put in maquette" "Objs" nil))) (om-make-point 284 549) nil nil nil "maquette_40") (om-load-boxcomment "comment" (om-make-point 15 20) (quote "M") "" (om-make-point 255 639) nil (om-make-color 0 0 0) (om-make-font "Helvetica" 10 :family "Helvetica" :style (quote (:plain)) :mode (quote nil))) (om-load-boxcomment "comment" (om-make-point 15 20) (quote "J") "" (om-make-point 443 487) nil (om-make-color 0 0 0) (om-make-font "Helvetica" 10 :family "Helvetica" :style (quote (:plain)) :mode (quote nil))) (om-load-boxcall (quote abstraction) "tutorial_121" (om-load-patch-abs1 "tutorial_12" (quote ((om-load-boxout "output" 0 (om-make-point 125 473) (quote ((om-load-inputfun (quote input-funbox) "out" "out" nil))) nil nil) (om-load-boxcomment "comment11111" (om-make-point 19 25) (quote "F") "" (om-make-point 125 18) nil (om-make-color 0 0 0) (om-make-font "Geneva" 10 :family "Geneva" :style (quote (:plain)) :mode (quote nil))) (om-load-boxcomment "comment1111" (om-make-point 19 25) (quote "E") "" (om-make-point 324 50) nil (om-make-color 0 0 0) (om-make-font "Geneva" 10 :family "Geneva" :style (quote (:plain)) :mode (quote nil))) (om-load-boxcomment "comment111" (om-make-point 19 25) (quote "D") "" (om-make-point 164 289) nil (om-make-color 0 0 0) (om-make-font "Geneva" 10 :family "Geneva" :style (quote (:plain)) :mode (quote nil))) (om-load-boxcomment "comment11" (om-make-point 19 25) (quote "C") "" (om-make-point 231 244) nil (om-make-color 0 0 0) (om-make-font "Geneva" 10 :family "Geneva" :style (quote (:plain)) :mode (quote nil))) (om-load-boxcomment "comment1" (om-make-point 19 25) (quote "B") "" (om-make-point 185 50) nil (om-make-color 0 0 0) (om-make-font "Geneva" 10 :family "Geneva" :style (quote (:plain)) :mode (quote nil))) (om-load-boxcomment "comment" (om-make-point 19 25) (quote "A") "" (om-make-point 78 51) nil (om-make-color 0 0 0) (om-make-font "Geneva" 10 :family "Geneva" :style (quote (:plain)) :mode (quote nil))) (om-load-boxcomment "comment" (om-make-point 46 20) (quote "Velocity") "" (om-make-point 338 51) nil (om-make-color 0 0 0) (om-make-font "Geneva" 10 :family "Geneva" :style (quote (:plain)) :mode (quote nil))) (om-load-boxcomment "comment" (om-make-point 108 25) (quote "Onsets & Durations") "" (om-make-point 199 50) nil (om-make-color 0 0 0) (om-make-font "Geneva" 10 :family "Geneva" :style (quote (:plain)) :mode (quote nil))) (om-load-boxcomment "comment" (om-make-point 46 20) (quote "Notes") "" (om-make-point 91 51) nil (om-make-color 0 0 0) (om-make-font "Geneva" 10 :family "Geneva" :style (quote (:plain)) :mode (quote nil))) (om-load-boxcall (quote genfun) "REPEAT-N" (quote repeat-n) (quote ((om-load-inputfun (quote input-funbox) "patch" "SELF" nil) (om-load-inputfun (quote input-funbox) "times" "NUM" 10))) (om-make-point 372 232) nil nil nil nil 1) (om-load-boxcall (quote genfun) "OM-RANDOM" (quote om-random) (quote ((om-load-inputfun (quote input-funbox) "min" "LOW" 0) (om-load-inputfun (quote input-funbox) "max" "HIGH" 0))) (om-make-point 328 111) nil nil nil nil 1) (om-load-boxcall (quote bastype) "aux" (quote t) (quote nil) (om-make-point 332 78) (om-make-point 23 27) 10 "10" nil) (om-load-boxcall (quote bastype) "aux1" (quote t) (quote nil) (om-make-point 365 78) (om-make-point 32 25) 120 "120" nil) (om-load-boxcall (quote bastype) "aux4" (quote t) (quote nil) (om-make-point 172 249) (om-make-point 18 23) 0 "0" nil) (om-load-boxcall (quote genfun) "DX->X" (quote dx->x) (quote ((om-load-inputfun (quote input-funbox) "a number" "START" 0) (om-load-inputfun (quote input-funbox) "a list of numbers" "LIST" (list 1 1)))) (om-make-point 179 281) nil nil nil nil 1) (om-load-editor-box1 "CHORD-SEQ" (quote chord-seq) (quote ((om-load-inputfun (quote input-funbox) "objs" "SELF" nil) (om-load-inputfun (quote input-funbox) "LMIDIC" "LMIDIC" (list 6000)) (om-load-inputfun (quote input-funbox) "LONSET" "LONSET" (list 0 1000)) (om-load-inputfun (quote input-funbox) "LDUR" "LDUR" (list 1000)) (om-load-inputfun (quote input-funbox) "LVEL" "LVEL" (list 100)) (om-load-inputfun (quote input-funbox) "LOFFSET" "LOFFSET" (list 0)) (om-load-inputfun (quote input-funbox) "LCHAN" "LCHAN" (list 1)) (om-load-inputfun (quote input-funbox) "LEGATO" "LEGATO" 0))) (om-make-point 117 356) (om-make-point 251 103) (let ((newobj (when (find-class (quote chord-seq) nil) (make-instance (quote chord-seq) :lmidic (quote ((5300) (4700) (4200) (6400) (6300) (5000) (7300) (6800) (7700) (6500) (6400) (7400) (7700) (8000) (5400) (6900) (4200) (7700) (5700) (5300) (7600) (5600) (6800) (6200) (4500) (8200) (7300) (7200) (5600) (6700))) :lonset (quote (0 420 810 1010 1400 1710 1910 2150 2560 2740 2960 3340 3560 3760 4100 4450 4580 4930 5430 5810 6240 6450 6610 6950 7340 7510 7990 8130 8430 8890 9200)) :ldur (quote ((420) (390) (200) (390) (310) (200) (240) (410) (180) (220) (380) (220) (200) (340) (350) (130) (350) (500) (380) (430) (210) (160) (340) (390) (170) (480) (140) (300) (460) (310))) :lvel (quote ((93) (88) (113) (80) (48) (36) (66) (68) (113) (119) (78) (29) (61) (66) (51) (118) (35) (38) (55) (120) (54) (52) (66) (15) (99) (35) (64) (103) (33) (33))) :loffset (quote ((0) (0) (0) (0) (0) (0) (0) (0) (0) (0) (0) (0) (0) (0) (0) (0) (0) (0) (0) (0) (0) (0) (0) (0) (0) (0) (0) (0) (0) (0))) :lchan (quote ((1) (1) (1) (1) (1) (1) (1) (1) (1) (1) (1) (1) (1) (1) (1) (1) (1) (1) (1) (1) (1) (1) (1) (1) (1) (1) (1) (1) (1) (1))) :legato 0)))) (load-port-info newobj (quote ((0) (0) (0) (0) (0) (0) (0) (0) (0) (0) (0) (0) (0) (0) (0) (0) (0) (0) (0) (0) (0) (0) (0) (0) (0) (0) (0) (0) (0) (0)))) (init-mus-color newobj (quote nil)) (set-extra-pairs newobj (quote nil)) (set-patch-pairs newobj (quote nil)) (set-name newobj nil) (set-tonalite newobj nil) newobj) nil nil (pairlis (quote (player scale approx fontsize staff cmnpref deltapict outport inport zoom notechancolor? grillestep mode winsize winpos palette-mode obj-mode show-stems)) (list (quote :midishare) nil 2 24 (quote gf) (let ((newobj (make-instance (quote edition-values)))) (setf (paper-size newobj) (om-make-point 600 800)) (setf (top-margin newobj) 2) (setf (left-margin newobj) 1) (setf (right-margin newobj) 1) (setf (bottom-margin newobj) 1) (setf (orientation newobj) nil) (setf (scale newobj) nil) (setf (system-space newobj) (quote (1))) (setf (system-color newobj) (quote nil)) (setf (line-space newobj) 1) (setf (title newobj) nil) (setf (show-title? newobj) nil) (setf (show-page? newobj) nil) (setf (sheet-id newobj) nil) (setf (page-mode newobj) nil) newobj) (om-make-point 0 -17) 0 0 1 nil 1000 0 18350450 2621450 0 0 (quote t))) t nil nil nil) (om-load-boxcall (quote bastype) "aux2" (quote t) (quote nil) (om-make-point 144 18) (om-make-point 70 25) 20 "20" nil) (om-load-boxcall (quote bastype) "aux3" (quote t) (quote nil) (om-make-point 256 145) (om-make-point 34 29) 10 "10" nil) (om-load-boxcall (quote genfun) "OM*" (quote om*) (quote ((om-load-inputfun (quote input-funbox) "first input" "SELF" 0) (om-load-inputfun (quote input-funbox) "second input" "NUM" 0))) (om-make-point 220 193) (om-make-point 61 35) nil nil nil 1) (om-load-boxcall (quote bastype) "aux1" (quote t) (quote nil) (om-make-point 234 78) (om-make-point 38 29) 50 "50" nil) (om-load-boxcall (quote bastype) "aux" (quote t) (quote nil) (om-make-point 201 78) (om-make-point 25 27) 10 "10" nil) (om-load-boxcall (quote genfun) "OM-RANDOM" (quote om-random) (quote ((om-load-inputfun (quote input-funbox) "min" "LOW" 0) (om-load-inputfun (quote input-funbox) "max" "HIGH" 0))) (om-make-point 197 111) nil nil nil nil 1) (om-load-boxcall (quote genfun) "REPEAT-N" (quote repeat-n) (quote ((om-load-inputfun (quote input-funbox) "patch" "SELF" nil) (om-load-inputfun (quote input-funbox) "times" "NUM" 10))) (om-make-point 241 238) nil (list (list 210 470 280 170 130 150 430 100 350 250 340 470 290 120 330 320 100 470 160 400 340 310 480 500 180 340 370 360 450 150)) "&" nil 1) (om-load-boxcall (quote genfun) "REPEAT-N" (quote repeat-n) (quote ((om-load-inputfun (quote input-funbox) "patch" "SELF" nil) (om-load-inputfun (quote input-funbox) "times" "NUM" 10))) (om-make-point 108 239) nil nil nil nil 1) (om-load-boxcall (quote genfun) "OM-RANDOM" (quote om-random) (quote ((om-load-inputfun (quote input-funbox) "min" "LOW" 0) (om-load-inputfun (quote input-funbox) "max" "HIGH" 0))) (om-make-point 75 109) nil nil nil nil 1) (om-load-boxcall (quote bastype) "aux" (quote t) (quote nil) (om-make-point 79 76) (om-make-point 30 33) 42 "42" nil) (om-load-boxcall (quote bastype) "aux1" (quote t) (quote nil) (om-make-point 112 76) (om-make-point 34 25) 82 "82" nil) (om-load-boxcall (quote genfun) "OM*" (quote om*) (quote ((om-load-inputfun (quote input-funbox) "first input" "SELF" 0) (om-load-inputfun (quote input-funbox) "second input" "NUM" 0))) (om-make-point 98 191) (om-make-point 61 35) nil nil nil 1) (om-load-boxcall (quote bastype) "aux3" (quote t) (quote nil) (om-make-point 134 143) (om-make-point 37 31) 100 "100" nil))) (quote ((16 0 0 0 nil 0) (11 0 10 0 nil 0) (17 0 10 1 ((om-make-point 177 41) (om-make-point 406 41) (om-make-point 406 137) (om-make-point 402 232)) 0) (12 0 11 0 nil 0) (13 0 11 1 nil 0) (14 0 15 0 nil 0) (23 0 15 1 nil 0) (24 0 16 1 nil 0) (15 0 16 2 nil 0) (23 0 16 3 nil 0) (10 0 16 4 ((om-make-point 396 283) (om-make-point 396 319) (om-make-point 320 339) (om-make-point 255 356)) 0) (22 0 19 0 nil 0) (18 0 19 1 nil 0) (21 0 22 0 nil 0) (20 0 22 1 nil 0) (19 0 23 0 nil 0) (17 0 23 1 ((om-make-point 177 41) (om-make-point 314 41) (om-make-point 314 129) (om-make-point 271 238)) 0) (28 0 24 0 nil 0) (17 0 24 1 ((om-make-point 177 41) (om-make-point 177 57) (om-make-point 177 239) (om-make-point 138 239)) 0) (26 0 25 0 nil 0) (27 0 25 1 nil 0) (25 0 28 0 nil 0) (29 0 28 1 nil 0))) 6.010003 nil "") (quote nil) (om-make-point 701 371) nil nil nil nil) (om-load-boxcomment "comment" (om-make-point 15 20) (quote "L") "" (om-make-point 265 562) nil (om-make-color 0 0 0) (om-make-font "Helvetica" 10 :family "Helvetica" :style (quote (:plain)) :mode (quote nil))) (om-load-boxcomment "comment" (om-make-point 15 20) (quote "K") "" (om-make-point 14 412) nil (om-make-color 0 0 0) (om-make-font "Helvetica" 10 :family "Helvetica" :style (quote (:plain)) :mode (quote nil))) (om-load-boxcomment "comment" (om-make-point 33 34) (quote "I") "" (om-make-point 725 347) nil (om-make-color 0 0 0) (om-make-font "Helvetica" 10 :family "Helvetica" :style (quote (:plain)) :mode (quote nil))) (om-load-boxcomment "comment" (om-make-point 15 20) (quote "H") "" (om-make-point 498 316) nil (om-make-color 0 0 0) (om-make-font "Helvetica" 10 :family "Helvetica" :style (quote (:plain)) :mode (quote nil))) (om-load-boxcomment "comment" (om-make-point 26 29) (quote "G") "" (om-make-point 545 237) nil (om-make-color 0 0 0) (om-make-font "Helvetica" 10 :family "Helvetica" :style (quote (:plain)) :mode (quote nil))) (om-load-boxcomment "comment" (om-make-point 15 18) (quote "A") "" (om-make-point 58 181) nil (om-make-color 0 0 0) (om-make-font "Helvetica" 10 :family "Helvetica" :style (quote (:plain)) :mode (quote nil))) (om-load-boxcomment "comment" (om-make-point 17 19) (quote "B") "" (om-make-point 17 150) nil (om-make-color 0 0 0) (om-make-font "Helvetica" 10 :family "Helvetica" :style (quote (:plain)) :mode (quote nil))) (om-load-boxcomment "comment" (om-make-point 17 26) (quote "C") "" (om-make-point 258 146) nil (om-make-color 0 0 0) (om-make-font "Helvetica" 10 :family "Helvetica" :style (quote (:plain)) :mode (quote nil))) (om-load-boxcomment "comment" (om-make-point 18 19) (quote "D") "" (om-make-point 122 330) nil (om-make-color 0 0 0) (om-make-font "Helvetica" 10 :family "Helvetica" :style (quote (:plain)) :mode (quote nil))) (om-load-boxcomment "comment" (om-make-point 16 19) (quote "E") "" (om-make-point 269 333) nil (om-make-color 0 0 0) (om-make-font "Helvetica" 10 :family "Helvetica" :style (quote (:plain)) :mode (quote nil))) (om-load-boxcomment "comment" (om-make-point 15 19) (quote "F") "" (om-make-point 296 237) nil (om-make-color 0 0 0) (om-make-font "Helvetica" 10 :family "Helvetica" :style (quote (:plain)) :mode (quote nil))) (om-load-boxcall (quote genfun) "SAVE-AS-MIDI" (quote save-as-midi) (quote ((om-load-inputfun (quote input-funbox) "a music object to save" "OBJECT" nil))) (om-make-point 279 625) nil nil nil nil 1) (om-load-editor-box1 "CHORD-SEQ" (quote chord-seq) (quote ((om-load-inputfun (quote input-funbox) "objs" "SELF" nil) (om-load-inputfun (quote input-funbox) "LMIDIC" "LMIDIC" (list 6000)) (om-load-inputfun (quote input-funbox) "LONSET" "LONSET" (list 0 1000)) (om-load-inputfun (quote input-funbox) "LDUR" "LDUR" (list 1000)) (om-load-inputfun (quote input-funbox) "LVEL" "LVEL" (list 100)) (om-load-inputfun (quote input-funbox) "LOFFSET" "LOFFSET" (list 0)) (om-load-inputfun (quote input-funbox) "LCHAN" "LCHAN" (list 1)) (om-load-inputfun (quote input-funbox) "LEGATO" "LEGATO" 100))) (om-make-point 282 92) (om-make-point 162 86) (let ((newobj (when (find-class (quote chord-seq) nil) (make-instance (quote chord-seq) :lmidic (quote ((6100) (7400) (6800) (4800) (8100) (6700) (4200))) :lonset (quote (0 150 300 450 600 750 1046 2046)) :ldur (quote ((150) (150) (150) (150) (150) (296) (1000))) :lvel (quote ((100) (100) (100) (100) (100) (100) (100))) :loffset (quote ((0) (0) (0) (0) (0) (0) (0))) :lchan (quote ((1) (1) (1) (1) (1) (1) (1))) :legato 100)))) (load-port-info newobj (quote ((0) (0) (0) (0) (0) (0) (0)))) (init-mus-color newobj (quote nil)) (set-extra-pairs newobj (quote nil)) (set-patch-pairs newobj (quote nil)) (set-name newobj nil) (set-tonalite newobj nil) newobj) "x" nil (pairlis (quote (player scale approx fontsize staff cmnpref deltapict outport inport zoom notechancolor? grillestep mode winsize winpos palette-mode obj-mode show-stems)) (list (quote :midishare) nil 2 24 (quote gf) (let ((newobj (make-instance (quote edition-values)))) (setf (paper-size newobj) (om-make-point 600 800)) (setf (top-margin newobj) 2) (setf (left-margin newobj) 1) (setf (right-margin newobj) 1) (setf (bottom-margin newobj) 1) (setf (orientation newobj) nil) (setf (scale newobj) nil) (setf (system-space newobj) (quote (1))) (setf (system-color newobj) (quote nil)) (setf (line-space newobj) 1) (setf (title newobj) nil) (setf (show-title? newobj) nil) (setf (show-page? newobj) nil) (setf (sheet-id newobj) nil) (setf (page-mode newobj) nil) newobj) (om-make-point 0 -19) 0 0 1 nil 1000 0 18350450 2621450 0 0 (quote t))) t nil nil nil) (om-load-boxcall (quote bastype) "aux" (quote t) (quote nil) (om-make-point 4 126) (om-make-point 239 37) (list (quote ?) (list (list (list 4 4) (list 1 (list 2 (list (list 2 (list 1.0 4)) 1)) 1.0)) (list (list 4 4) (list (list 2 (list -3 2)) (list 1 (list 2.0 2 1)) (list 1 (list 1.0 6)))))) "(? (((4 4) (1 (2 ((2 (1.0 4)) 1)) 1.0)) ((4 4) ((2 (-3  2))(1 (2.0 2 1 )) (1 (1.0 6))))))" nil) (om-load-editor-box1 "VOICE" (quote voice) (quote ((om-load-inputfun (quote input-funbox) "objs" "SELF" nil) (om-load-inputfun (quote input-funbox) "TREE" "TREE" (list (quote ?) (list (list (quote |4//4|) (list 1 (list 1 (list 1 -2 1 1)) 1 1)) (list (quote |4//4|) (list 1 (list 1 (list 1 2 1 1)) -1 1))))) (om-load-inputfun (quote input-funbox) "CHORDS" "CHORDS" (list (let ((thechord (make-instance (quote chord) :lmidic (quote (6000)) :ldur (quote (1000)) :lvel (quote (100)) :loffset (quote (0)) :lchan (quote (1))))) (load-port-info thechord (quote (0))) thechord))) (om-load-inputfun (quote input-funbox) "TEMPO" "TEMPO" 60) (om-load-inputfun (quote input-funbox) "LEGATO" "LEGATO" 100) (om-load-inputfun (quote input-funbox) "TIES" "TIES" nil))) (om-make-point 56 197) (om-make-point 231 95) (let ((newobj (when (find-class (quote voice) nil) (make-instance (quote voice) :tree (quote (2 (((4 4) (1 (2 ((2 (1.0 4)) 1)) 1.0)) ((4 4) ((2 (-3 2)) (1 (2.0 2 1)) (1 (1.0 6))))))) :chords (load-obj-list-from-save (quote ((let ((thechord (make-instance (quote chord) :lmidic (quote (6100)) :ldur (quote (1000)) :lvel (quote (100)) :loffset (quote (0)) :lchan (quote (1))))) (load-port-info thechord (quote (0))) thechord) (let ((thechord (make-instance (quote chord) :lmidic (quote (7400)) :ldur (quote (1067)) :lvel (quote (100)) :loffset (quote (0)) :lchan (quote (1))))) (load-port-info thechord (quote (0))) thechord) (let ((thechord (make-instance (quote chord) :lmidic (quote (6800)) :ldur (quote (667)) :lvel (quote (100)) :loffset (quote (0)) :lchan (quote (1))))) (load-port-info thechord (quote (0))) thechord) (let ((thechord (make-instance (quote chord) :lmidic (quote (4800)) :ldur (quote (800)) :lvel (quote (100)) :loffset (quote (0)) :lchan (quote (1))))) (load-port-info thechord (quote (0))) thechord) (let ((thechord (make-instance (quote chord) :lmidic (quote (8100)) :ldur (quote (400)) :lvel (quote (100)) :loffset (quote (0)) :lchan (quote (1))))) (load-port-info thechord (quote (0))) thechord) (let ((thechord (make-instance (quote chord) :lmidic (quote (6700)) :ldur (quote (200)) :lvel (quote (100)) :loffset (quote (0)) :lchan (quote (1))))) (load-port-info thechord (quote (0))) thechord) (let ((thechord (make-instance (quote chord) :lmidic (quote (4200)) :ldur (quote (857)) :lvel (quote (100)) :loffset (quote (0)) :lchan (quote (1))))) (load-port-info thechord (quote (0))) thechord)))) :tempo (quote ((1/4 60) nil)) :legato 100 :ties (quote (nil nil nil nil nil nil nil)))))) (load-port-info newobj (quote nil)) (init-mus-color newobj (quote nil)) (set-extra-pairs newobj (quote nil)) (set-patch-pairs newobj (quote nil)) (set-name newobj nil) (set-tonalite newobj nil) newobj) nil nil (pairlis (quote (player scale inport outport deltapict cmnpref staff fontsize approx zoom notechancolor? grillestep mode winsize winpos palette-mode obj-mode show-stems)) (list (quote :midishare) nil 0 0 (om-make-point 0 -4) (let ((newobj (make-instance (quote edition-values)))) (setf (paper-size newobj) (om-make-point 600 800)) (setf (top-margin newobj) 2) (setf (left-margin newobj) 1) (setf (right-margin newobj) 1) (setf (bottom-margin newobj) 1) (setf (orientation newobj) nil) (setf (scale newobj) nil) (setf (system-space newobj) (quote (1))) (setf (system-color newobj) (quote nil)) (setf (line-space newobj) 1) (setf (title newobj) nil) (setf (show-title? newobj) nil) (setf (show-page? newobj) nil) (setf (sheet-id newobj) nil) (setf (page-mode newobj) nil) newobj) (quote g) 36 2 1 nil 1000 0 18350450 2621450 0 0 (quote t))) t nil nil nil) (om-load-editor-box1 "CHORD-SEQ2" (quote chord-seq) (quote ((om-load-inputfun (quote input-funbox) "objs" "SELF" nil) (om-load-inputfun (quote input-funbox) "LMIDIC" "LMIDIC" (list 6000)) (om-load-inputfun (quote input-funbox) "LONSET" "LONSET" (list 0 1000)) (om-load-inputfun (quote input-funbox) "LDUR" "LDUR" (list 1000)) (om-load-inputfun (quote input-funbox) "LVEL" "LVEL" (list 100)) (om-load-inputfun (quote input-funbox) "LOFFSET" "LOFFSET" (list 0)) (om-load-inputfun (quote input-funbox) "LCHAN" "LCHAN" (list 1)) (om-load-inputfun (quote input-funbox) "LEGATO" "LEGATO" 0))) (om-make-point 32 380) (om-make-point 81 70) (let ((newobj (when (find-class (quote chord-seq) nil) (make-instance (quote chord-seq) :lmidic (quote ((6100) (7400) (6800) (4800) (8100) (6700) (4200))) :lonset (quote (0 1267 2333 5200 6400 6800 7143 7184)) :ldur (quote ((1267) (1067) (1667) (1200) (400) (343) (857))) :lvel (quote ((100) (100) (100) (100) (100) (100) (100))) :loffset (quote ((0) (0) (0) (0) (0) (0) (0))) :lchan (quote ((1) (1) (1) (1) (1) (1) (1))) :legato 0)))) (load-port-info newobj (quote ((0) (0) (0) (0) (0) (0) (0)))) (init-mus-color newobj (quote nil)) (set-extra-pairs newobj (quote nil)) (set-patch-pairs newobj (quote nil)) (set-name newobj nil) (set-tonalite newobj nil) newobj) nil nil (pairlis (quote (player scale inport outport deltapict cmnpref staff fontsize approx zoom notechancolor? grillestep mode winsize winpos palette-mode obj-mode show-stems)) (list (quote :midishare) nil 0 1 (om-make-point 0 -15) (let ((newobj (make-instance (quote edition-values)))) (setf (paper-size newobj) (om-make-point 600 800)) (setf (top-margin newobj) 2) (setf (left-margin newobj) 1) (setf (right-margin newobj) 1) (setf (bottom-margin newobj) 1) (setf (orientation newobj) nil) (setf (scale newobj) nil) (setf (system-space newobj) (quote (1))) (setf (system-color newobj) (quote nil)) (setf (line-space newobj) 1) (setf (title newobj) nil) (setf (show-title? newobj) nil) (setf (show-page? newobj) nil) (setf (sheet-id newobj) nil) (setf (page-mode newobj) nil) newobj) (quote g) 24 2 1 nil 1000 0 18350450 2621450 0 0 (quote t))) t nil nil nil) (om-load-editor-box1 "CHORD-SEQ" (quote chord-seq) (quote ((om-load-inputfun (quote input-funbox) "objs" "SELF" nil) (om-load-inputfun (quote input-funbox) "LMIDIC" "LMIDIC" (list 6000)) (om-load-inputfun (quote input-funbox) "LONSET" "LONSET" (list 0 1000)) (om-load-inputfun (quote input-funbox) "LDUR" "LDUR" (list 1000)) (om-load-inputfun (quote input-funbox) "LVEL" "LVEL" (list 100)) (om-load-inputfun (quote input-funbox) "LOFFSET" "LOFFSET" (list 0)) (om-load-inputfun (quote input-funbox) "LCHAN" "LCHAN" (list 1)) (om-load-inputfun (quote input-funbox) "LEGATO" "LEGATO" 0))) (om-make-point 435 196) (om-make-point 106 98) (let ((newobj (when (find-class (quote chord-seq) nil) (make-instance (quote chord-seq) :lmidic (quote ((5500) (5500) (5500) (5500) (5500) (5700) (5700) (5100) (5100) (5100) (5100) (5100) (5100))) :lonset (quote (0 100 200 300 400 500 600 700 800 900 1000 1100 1200 1300)) :ldur (quote ((100) (100) (100) (100) (100) (100) (100) (100) (100) (100) (100) (100) (100))) :lvel (quote ((100) (100) (100) (100) (100) (100) (100) (100) (100) (100) (100) (100) (100))) :loffset (quote ((0) (0) (0) (0) (0) (0) (0) (0) (0) (0) (0) (0) (0))) :lchan (quote ((1) (1) (1) (1) (1) (1) (1) (1) (1) (1) (1) (1) (1))) :legato 0)))) (load-port-info newobj (quote ((0) (0) (0) (0) (0) (0) (0) (0) (0) (0) (0) (0) (0)))) (init-mus-color newobj (quote nil)) (set-extra-pairs newobj (quote nil)) (set-patch-pairs newobj (quote nil)) (set-name newobj nil) (set-tonalite newobj nil) newobj) "x" nil (pairlis (quote (player scale inport outport deltapict cmnpref staff fontsize approx zoom notechancolor? grillestep mode winsize winpos palette-mode obj-mode show-stems)) (list (quote :midishare) nil 0 0 (om-make-point 0 -16) (let ((newobj (make-instance (quote edition-values)))) (setf (paper-size newobj) (om-make-point 600 800)) (setf (top-margin newobj) 2) (setf (left-margin newobj) 1) (setf (right-margin newobj) 1) (setf (bottom-margin newobj) 1) (setf (orientation newobj) nil) (setf (scale newobj) nil) (setf (system-space newobj) (quote (1))) (setf (system-color newobj) (quote nil)) (setf (line-space newobj) 1) (setf (title newobj) nil) (setf (show-title? newobj) nil) (setf (show-page? newobj) nil) (setf (sheet-id newobj) nil) (setf (page-mode newobj) nil) newobj) (quote g) 24 2 1 nil 1000 0 18350450 2621450 0 0 (quote t))) t nil nil nil) (om-load-editor-box1 "CHORD-SEQ" (quote chord-seq) (quote ((om-load-inputfun (quote input-funbox) "objs" "SELF" nil) (om-load-inputfun (quote input-funbox) "LMIDIC" "LMIDIC" (list 6000)) (om-load-inputfun (quote input-funbox) "LONSET" "LONSET" (list 0 1000)) (om-load-inputfun (quote input-funbox) "LDUR" "LDUR" (list 1000)) (om-load-inputfun (quote input-funbox) "LVEL" "LVEL" (list 100)) (om-load-inputfun (quote input-funbox) "LOFFSET" "LOFFSET" (list 0)) (om-load-inputfun (quote input-funbox) "LCHAN" "LCHAN" (list 1)) (om-load-inputfun (quote input-funbox) "LEGATO" "LEGATO" 0))) (om-make-point 142 298) (om-make-point 95 95) (let ((newobj (when (find-class (quote chord-seq) nil) (make-instance (quote chord-seq) :lmidic (quote ((4700) (4700) (4700) (4700) (8100) (8100) (8100) (8100) (8100) (5600) (5600))) :lonset (quote (0 100 200 300 400 500 600 700 800 900 1000 1100)) :ldur (quote ((100) (100) (100) (100) (100) (100) (100) (100) (100) (100) (100))) :lvel (quote ((100) (100) (100) (100) (100) (100) (100) (100) (100) (100) (100))) :loffset (quote ((0) (0) (0) (0) (0) (0) (0) (0) (0) (0) (0))) :lchan (quote ((1) (1) (1) (1) (1) (1) (1) (1) (1) (1) (1))) :legato 0)))) (load-port-info newobj (quote ((0) (0) (0) (0) (0) (0) (0) (0) (0) (0) (0)))) (init-mus-color newobj (quote nil)) (set-extra-pairs newobj (quote nil)) (set-patch-pairs newobj (quote nil)) (set-name newobj nil) (set-tonalite newobj nil) newobj) "x" nil (pairlis (quote (player scale inport outport deltapict cmnpref staff fontsize approx zoom notechancolor? grillestep mode winsize winpos palette-mode obj-mode show-stems)) (list (quote :midishare) nil 0 0 (om-make-point 0 -16) (let ((newobj (make-instance (quote edition-values)))) (setf (paper-size newobj) (om-make-point 600 800)) (setf (top-margin newobj) 2) (setf (left-margin newobj) 1) (setf (right-margin newobj) 1) (setf (bottom-margin newobj) 1) (setf (orientation newobj) nil) (setf (scale newobj) nil) (setf (system-space newobj) (quote (1))) (setf (system-color newobj) (quote nil)) (setf (line-space newobj) 1) (setf (title newobj) nil) (setf (show-title? newobj) nil) (setf (show-page? newobj) nil) (setf (sheet-id newobj) nil) (setf (page-mode newobj) nil) newobj) (quote g) 24 2 1 nil 1000 0 18350450 2621450 0 0 (quote t))) t nil nil nil) (om-load-editor-box1 "CHORD-SEQ" (quote chord-seq) (quote ((om-load-inputfun (quote input-funbox) "objs" "SELF" nil) (om-load-inputfun (quote input-funbox) "LMIDIC" "LMIDIC" (list 6000)) (om-load-inputfun (quote input-funbox) "LONSET" "LONSET" (list 0 1000)) (om-load-inputfun (quote input-funbox) "LDUR" "LDUR" (list 1000)) (om-load-inputfun (quote input-funbox) "LVEL" "LVEL" (list 100)) (om-load-inputfun (quote input-funbox) "LOFFSET" "LOFFSET" (list 0)) (om-load-inputfun (quote input-funbox) "LCHAN" "LCHAN" (list 1)) (om-load-inputfun (quote input-funbox) "LEGATO" "LEGATO" 0))) (om-make-point 315 196) (om-make-point 111 96) (let ((newobj (when (find-class (quote chord-seq) nil) (make-instance (quote chord-seq) :lmidic (quote ((6800) (6800) (6800) (6800) (4700) (4700) (4700) (4700) (4700) (4700) (4800) (4800) (4800) (4800))) :lonset (quote (0 100 200 300 400 500 600 700 800 900 1000 1100 1200 1300 1400)) :ldur (quote ((100) (100) (100) (100) (100) (100) (100) (100) (100) (100) (100) (100) (100) (100))) :lvel (quote ((100) (100) (100) (100) (100) (100) (100) (100) (100) (100) (100) (100) (100) (100))) :loffset (quote ((0) (0) (0) (0) (0) (0) (0) (0) (0) (0) (0) (0) (0) (0))) :lchan (quote ((1) (1) (1) (1) (1) (1) (1) (1) (1) (1) (1) (1) (1) (1))) :legato 0)))) (load-port-info newobj (quote ((0) (0) (0) (0) (0) (0) (0) (0) (0) (0) (0) (0) (0) (0)))) (init-mus-color newobj (quote nil)) (set-extra-pairs newobj (quote nil)) (set-patch-pairs newobj (quote nil)) (set-name newobj nil) (set-tonalite newobj nil) newobj) "x" nil (pairlis (quote (player scale inport outport deltapict cmnpref staff fontsize approx zoom notechancolor? grillestep mode winsize winpos palette-mode obj-mode show-stems)) (list (quote :midishare) nil 0 0 (om-make-point 0 -16) (let ((newobj (make-instance (quote edition-values)))) (setf (paper-size newobj) (om-make-point 600 800)) (setf (top-margin newobj) 2) (setf (left-margin newobj) 1) (setf (right-margin newobj) 1) (setf (bottom-margin newobj) 1) (setf (orientation newobj) nil) (setf (scale newobj) nil) (setf (system-space newobj) (quote (1))) (setf (system-color newobj) (quote nil)) (setf (line-space newobj) 1) (setf (title newobj) nil) (setf (show-title? newobj) nil) (setf (show-page? newobj) nil) (setf (sheet-id newobj) nil) (setf (page-mode newobj) nil) newobj) (quote g) 24 2 1 nil 1000 0 18350450 2621450 0 0 (quote t))) t nil nil nil) (om-load-editor-box1 "CHORD-SEQ1" (quote chord-seq) (quote ((om-load-inputfun (quote input-funbox) "object or object list" "object" nil) (om-load-inputfun (quote input-funbox) "LMIDIC" "LMIDIC" (list 6000)) (om-load-inputfun (quote input-funbox) "LONSET" "LONSET" (list 0 1000)) (om-load-inputfun (quote input-funbox) "LDUR" "LDUR" (list 1000)) (om-load-inputfun (quote input-funbox) "LVEL" "LVEL" (list 100)) (om-load-inputfun (quote input-funbox) "LOFFSET" "LOFFSET" (list 0)) (om-load-inputfun (quote input-funbox) "LCHAN" "LCHAN" (list 1)) (om-load-inputfun (quote input-funbox) "LEGATO" "LEGATO" 100))) (om-make-point 519 296) (om-make-point 177 136) (let ((newobj (when (find-class (quote chord-seq) nil) (make-instance (quote chord-seq) :lmidic (quote ((2900) (2800) (2300) (3300) (2691) (2691) (2691) (4782) (3764) (4100) (5064) (3082) (4700) (3473) (4245) (4245) (5627) (5300) (5736) (5627) (4255) (5900) (4255) (6145) (6191) (4645) (6191) (6300) (6964) (7100) (6964) (6964) (7373) (7700) (5427) (7373) (8300) (7782) (5818) (7782) (7618) (8900) (6209) (6209) (8100) (6600) (7600) (8800))) :lonset (quote (0 75 150 225 300 375 450 525 600 675 750 825 900 975 1050 1125 1200 1275 1350 1425 1500 1575 1650 1725 1800 1875 1950 2025 2100 2175 2250 2325 2400 2475 2550 2625 2700 2775 2850 2925 3000 3075 3150 3225 3300 3375 3450 3525 3600)) :ldur (quote ((75) (75) (75) (75) (75) (75) (75) (75) (75) (75) (75) (75) (75) (75) (75) (75) (75) (75) (75) (75) (75) (75) (75) (75) (75) (75) (75) (75) (75) (75) (75) (75) (75) (75) (75) (75) (75) (75) (75) (75) (75) (75) (75) (75) (75) (75) (75) (75))) :lvel (quote ((100) (100) (100) (100) (100) (100) (100) (100) (100) (100) (100) (100) (100) (100) (100) (100) (100) (100) (100) (100) (100) (100) (100) (100) (100) (100) (100) (100) (100) (100) (100) (100) (100) (100) (100) (100) (100) (100) (100) (100) (100) (100) (100) (100) (100) (100) (100) (100))) :loffset (quote ((0) (0) (0) (0) (0) (0) (0) (0) (0) (0) (0) (0) (0) (0) (0) (0) (0) (0) (0) (0) (0) (0) (0) (0) (0) (0) (0) (0) (0) (0) (0) (0) (0) (0) (0) (0) (0) (0) (0) (0) (0) (0) (0) (0) (0) (0) (0) (0))) :lchan (quote ((1) (1) (1) (1) (1) (1) (1) (1) (1) (1) (1) (1) (1) (1) (1) (1) (1) (1) (1) (1) (1) (1) (1) (1) (1) (1) (1) (1) (1) (1) (1) (1) (1) (1) (1) (1) (1) (1) (1) (1) (1) (1) (1) (1) (1) (1) (1) (1))) :legato 100)))) (load-port-info newobj (quote ((0) (0) (0) (0) (0) (0) (0) (0) (0) (0) (0) (0) (0) (0) (0) (0) (0) (0) (0) (0) (0) (0) (0) (0) (0) (0) (0) (0) (0) (0) (0) (0) (0) (0) (0) (0) (0) (0) (0) (0) (0) (0) (0) (0) (0) (0) (0) (0)))) (init-mus-color newobj (quote nil)) (set-extra-pairs newobj (quote nil)) (set-patch-pairs newobj (quote nil)) (set-name newobj nil) (set-tonalite newobj nil) newobj) "x" nil (pairlis (quote (player scale inport outport deltapict cmnpref staff fontsize approx zoom notechancolor? grillestep mode winsize winpos palette-mode obj-mode show-stems)) (list (quote :midishare) nil 0 0 (om-make-point 0 -14) (let ((newobj (make-instance (quote edition-values)))) (setf (paper-size newobj) (om-make-point 600 800)) (setf (top-margin newobj) 2) (setf (left-margin newobj) 1) (setf (right-margin newobj) 1) (setf (bottom-margin newobj) 1) (setf (orientation newobj) nil) (setf (scale newobj) nil) (setf (system-space newobj) (quote (1))) (setf (system-color newobj) (quote nil)) (setf (line-space newobj) 1) (setf (title newobj) nil) (setf (show-title? newobj) nil) (setf (show-page? newobj) nil) (setf (sheet-id newobj) nil) (setf (page-mode newobj) nil) newobj) (quote ggf) 24 2 1 nil 1000 0 18350450 2621450 0 0 (quote t))) t nil nil nil) (om-load-boxcall (quote maqabs) "tutorial_301" (om-load-maq-abs1 "tutorial_28" (quote ((om-load-tempobj1 "tempobj1" (quote ((om-load-inputfun (quote input-funbox) "no documentation" "input" nil))) (list (quote patch) (om-load-patch-abs1 "tempobj1" (quote ((om-load-boxcomment "comment1" (om-make-point 21 21) (quote "D") "" (om-make-point 70 399) nil (om-make-color 0 0 0) (om-make-font "Geneva" 10 :family "Geneva" :style (quote (:plain)) :mode (quote nil))) (om-load-boxcomment "comment1" (om-make-point 21 21) (quote "C") "" (om-make-point 77 284) nil (om-make-color 0 0 0) (om-make-font "Geneva" 10 :family "Geneva" :style (quote (:plain)) :mode (quote nil))) (om-load-boxcomment "comment1" (om-make-point 21 21) (quote "B") "" (om-make-point 81 159) nil (om-make-color 0 0 0) (om-make-font "Geneva" 10 :family "Geneva" :style (quote (:plain)) :mode (quote nil))) (om-load-boxcomment "comment" (om-make-point 21 21) (quote "A") "" (om-make-point 89 84) nil (om-make-color 0 0 0) (om-make-font "Geneva" 10 :family "Geneva" :style (quote (:plain)) :mode (quote nil))) (om-load-boxwithed1 (quote box-with-win) "OMLOOP" (quote omloop) (quote ((om-load-inputfun (quote input-funbox) "aditional input" "OPLIST" nil))) (om-make-point 104 150) nil nil nil (list (om-load-boxcall (quote genfun) "collect" (quote listing) (quote ((om-load-inputfun (quote input-funbox) "no documentation" "WHAT?" nil))) (om-make-point 149 266) nil nil nil nil 3) (om-load-boxcall (quote bastype) "aux2" (quote t) (quote nil) (om-make-point 34 122) (om-make-point 39 35) 1200 "1200" nil) (om-load-boxcall (quote bastype) "aux1" (quote t) (quote nil) (om-make-point 123 47) (om-make-point 19 32) 7 "7" nil) (om-load-boxcall (quote bastype) "aux" (quote t) (quote nil) (om-make-point 92 48) (om-make-point 20 31) 3 "3" nil) (om-load-boxcall (quote genfun) "OM*" (quote om*) (quote ((om-load-inputfun (quote input-funbox) "first input" "SELF" 0) (om-load-inputfun (quote input-funbox) "second input" "NUM" 0))) (om-make-point 60 163) (om-make-point 68 35) nil nil nil 1) (om-load-boxcall (quote genfun) "OM-RANDOM" (quote om-random) (quote ((om-load-inputfun (quote input-funbox) "min" "LOW" 0) (om-load-inputfun (quote input-funbox) "max" "HIGH" 0))) (om-make-point 88 85) nil nil nil nil 1) (om-load-boxcall (quote genfun) "inlist" (quote listloop) (quote ((om-load-inputfun (quote input-funbox) "list to iterate" "LIST" nil))) (om-make-point 164 121) nil nil nil nil 1) (om-load-boxcall (quote genfun) "OM+" (quote om+) (quote ((om-load-inputfun (quote input-funbox) "first input" "SELF" 0) (om-load-inputfun (quote input-funbox) "second input" "NUM" 0))) (om-make-point 136 219) (om-make-point 78 35) nil nil nil 1) (om-load-boxin "input0" 0 (om-make-point 172 38) "no documentation" nil nil nil) (om-load-seqbox "finally" (quote finaldo) (quote ((om-load-inputfun (quote input-funbox) "patch" "PATCH" nil))) (om-make-point 166 354) nil nil nil 0) (om-load-seqbox "eachTime" (quote loopdo) (quote ((om-load-inputfun (quote input-funbox) "patch" "PATCH" nil))) (om-make-point 109 354) nil nil nil 0)) (quote ((7 0 0 0 nil 0) (1 0 4 0 nil 0) (5 0 4 1 nil 0) (3 0 5 0 nil 0) (2 0 5 1 nil 0) (8 0 6 0 nil 0) (4 0 7 0 nil 0) (6 0 7 1 nil 0) (0 1 9 0 nil 0) (0 0 10 0 nil 0))) 1 "omloop" nil) (om-load-editor-box1 "CHORD" (quote chord) (quote ((om-load-inputfun (quote input-funbox) "objs" "SELF" nil) (om-load-inputfun (quote input-funbox) "LMIDIC" "LMIDIC" (list 6000)) (om-load-inputfun (quote input-funbox) "LVEL" "LVEL" (list 100)) (om-load-inputfun (quote input-funbox) "LOFFSET" "LOFFSET" (list 0)) (om-load-inputfun (quote input-funbox) "LDUR" "LDUR" (list 1000)) (om-load-inputfun (quote input-funbox) "LCHAN" "LCHAN" (list 1)))) (om-make-point 108 225) (om-make-point 60 141) (let ((thechord (make-instance (quote chord) :lmidic (quote (6000)) :ldur (quote (1000)) :lvel (quote (100)) :loffset (quote (0)) :lchan (quote (1))))) (load-port-info thechord (quote (0))) thechord) nil nil (pairlis (quote (player scale inport outport deltapict cmnpref staff fontsize approx zoom notechancolor? grillestep mode winsize winpos palette-mode obj-mode show-stems)) (list (quote :midishare) nil 0 0 (om-make-point 0 0) (let ((newobj (make-instance (quote edition-values)))) (setf (paper-size newobj) (om-make-point 600 800)) (setf (top-margin newobj) 2) (setf (left-margin newobj) 1) (setf (right-margin newobj) 1) (setf (bottom-margin newobj) 1) (setf (orientation newobj) nil) (setf (scale newobj) nil) (setf (system-space newobj) (quote (1))) (setf (system-color newobj) (quote nil)) (setf (line-space newobj) 1) (setf (title newobj) nil) (setf (show-title? newobj) nil) (setf (show-page? newobj) nil) (setf (sheet-id newobj) nil) (setf (page-mode newobj) nil) newobj) (quote gf) 24 2 1 nil 1000 0 18350450 2621450 0 0 (quote t))) t nil nil nil) (om-load-boxin "input" 0 (om-make-point 112 64) "no documentation" nil nil nil) (om-load-tempboxout "tempout" (om-make-point 93 386) (quote ((om-load-inputfun (quote input-funbox) "out" "out" nil))) nil nil) (om-load-boxselfin "self" (om-make-point 211 12) nil))) (quote ((6 0 4 0 nil 0) (4 0 5 1 nil 0) (5 0 7 0 nil 0))) 6.010003 nil "")) 0 876 1000 (om-make-color 128/255 128/255 128/255) (list (let ((thechord (make-instance (quote chord) :lmidic (quote (7500 6400 4100 9000 4600 4700)) :ldur (quote (1000 1000 1000 1000 1000 1000)) :lvel (quote (100 100 100 100 100 100)) :loffset (quote (0 0 0 0 0 0)) :lchan (quote (1 1 1 1 1 1))))) (load-port-info thechord (quote (0 0 0 0 0 0))) thechord)) t 11 11 1 0 (pairlis (quote (player scale inport outport deltapict cmnpref staff fontsize approx zoom notechancolor? grillestep mode winsize winpos palette-mode obj-mode show-stems)) (list (quote :midishare) nil 0 0 (om-make-point 0 -9) (let ((newobj (make-instance (quote edition-values)))) (setf (paper-size newobj) (om-make-point 600 800)) (setf (top-margin newobj) 2) (setf (left-margin newobj) 1) (setf (right-margin newobj) 1) (setf (bottom-margin newobj) 1) (setf (orientation newobj) nil) (setf (scale newobj) nil) (setf (system-space newobj) (quote (1))) (setf (system-color newobj) (quote nil)) (setf (line-space newobj) 1) (setf (title newobj) nil) (setf (show-title? newobj) nil) (setf (show-page? newobj) nil) (setf (sheet-id newobj) nil) (setf (page-mode newobj) nil) newobj) (quote gf) 24 2 1 nil 1000 0 18350450 2621450 0 0 (quote t))) nil nil nil nil nil nil "") (om-load-tempobj1 "tempobj" (quote nil) (list (quote patch) (om-load-patch-abs1 "tempobj" (quote ((om-load-boxcomment "comment1111111111" (om-make-point 20 21) (quote "K") "" (om-make-point 220 502) nil (om-make-color 0 0 0) (om-make-font "Geneva" 10 :family "Geneva" :style (quote (:plain)) :mode (quote nil))) (om-load-boxcomment "comment111111111" (om-make-point 20 21) (quote "J") "" (om-make-point 135 520) nil (om-make-color 0 0 0) (om-make-font "Geneva" 10 :family "Geneva" :style (quote (:plain)) :mode (quote nil))) (om-load-boxcomment "comment11111111" (om-make-point 20 21) (quote "I") "" (om-make-point 222 434) nil (om-make-color 0 0 0) (om-make-font "Geneva" 10 :family "Geneva" :style (quote (:plain)) :mode (quote nil))) (om-load-boxcomment "comment1111111" (om-make-point 20 21) (quote "H") "" (om-make-point 310 271) nil (om-make-color 0 0 0) (om-make-font "Geneva" 10 :family "Geneva" :style (quote (:plain)) :mode (quote nil))) (om-load-boxcomment "comment111111" (om-make-point 20 21) (quote "G") "" (om-make-point 135 456) nil (om-make-color 0 0 0) (om-make-font "Geneva" 10 :family "Geneva" :style (quote (:plain)) :mode (quote nil))) (om-load-boxcomment "comment11111" (om-make-point 19 27) (quote "F") "" (om-make-point 147 360) nil (om-make-color 0 0 0) (om-make-font "Geneva" 10 :family "Geneva" :style (quote (:plain)) :mode (quote nil))) (om-load-boxcomment "comment1111" (om-make-point 20 21) (quote "E") "" (om-make-point 75 183) nil (om-make-color 0 0 0) (om-make-font "Geneva" 10 :family "Geneva" :style (quote (:plain)) :mode (quote nil))) (om-load-boxcomment "comment111" (om-make-point 20 21) (quote "D") "" (om-make-point 89 117) nil (om-make-color 0 0 0) (om-make-font "Geneva" 10 :family "Geneva" :style (quote (:plain)) :mode (quote nil))) (om-load-boxcomment "comment11" (om-make-point 20 21) (quote "C") "" (om-make-point 144 44) nil (om-make-color 0 0 0) (om-make-font "Geneva" 10 :family "Geneva" :style (quote (:plain)) :mode (quote nil))) (om-load-boxcomment "comment1" (om-make-point 20 21) (quote "B") "" (om-make-point 77 265) nil (om-make-color 0 0 0) (om-make-font "Geneva" 10 :family "Geneva" :style (quote (:plain)) :mode (quote nil))) (om-load-boxcomment "comment" (om-make-point 20 21) (quote "A") "" (om-make-point 279 170) nil (om-make-color 0 0 0) (om-make-font "Geneva" 10 :family "Geneva" :style (quote (:plain)) :mode (quote nil))) (om-load-boxcall (quote bastype) "aux8" (quote t) (quote nil) (om-make-point 200 332) (om-make-point 37 33) 1200 "1200" nil) (om-load-boxcall (quote bastype) "aux7" (quote t) (quote nil) (om-make-point 144 317) (om-make-point 46 31) 1200 "1200" nil) (om-load-boxcall (quote bastype) "aux6" (quote t) (quote nil) (om-make-point 88 149) (om-make-point 40 27) 6000 "6000" nil) (om-load-boxcall (quote bastype) "aux5" (quote t) (quote nil) (om-make-point 156 81) (om-make-point 38 27) 100 "100" nil) (om-load-boxcall (quote bastype) "aux4" (quote t) (quote nil) (om-make-point 138 19) (om-make-point 18 24) 1 "1" nil) (om-load-boxcall (quote bastype) "aux3" (quote t) (quote nil) (om-make-point 102 17) (om-make-point 23 24) 11 "11" nil) (om-load-boxcall (quote bastype) "aux2" (quote t) (quote nil) (om-make-point 75 15) (om-make-point 17 28) 0 "0" nil) (om-load-boxcall (quote bastype) "aux1" (quote t) (quote nil) (om-make-point 372 333) (om-make-point 35 28) 100 "100" nil) (om-load-boxcall (quote bastype) "aux" (quote t) (quote nil) (om-make-point 302 337) (om-make-point 44 25) (list 0 150) "(0 150)" nil) (om-load-boxcall (quote genfun) "PERMUT-RANDOM" (quote permut-random) (quote ((om-load-inputfun (quote input-funbox) "the list" "LIST" nil))) (om-make-point 237 261) nil nil nil nil 1) (om-load-editor-box1 "CHORD-SEQ" (quote chord-seq) (quote ((om-load-inputfun (quote input-funbox) "objs" "SELF" nil) (om-load-inputfun (quote input-funbox) "LMIDIC" "LMIDIC" (list 6000)) (om-load-inputfun (quote input-funbox) "LONSET" "LONSET" (list 0 1000)) (om-load-inputfun (quote input-funbox) "LDUR" "LDUR" (list 1000)) (om-load-inputfun (quote input-funbox) "LVEL" "LVEL" (list 100)) (om-load-inputfun (quote input-funbox) "LOFFSET" "LOFFSET" (list 0)) (om-load-inputfun (quote input-funbox) "LCHAN" "LCHAN" (list 1)) (om-load-inputfun (quote input-funbox) "LEGATO" "LEGATO" 100))) (om-make-point 244 364) (om-make-point 162 86) (let ((newobj (when (find-class (quote chord-seq) nil) (make-instance (quote chord-seq) :lmidic (quote ((6100) (7400) (6800) (4800) (8100) (6700))) :lonset (quote (0 150 300 450 600 750 900)) :ldur (quote ((150) (150) (150) (150) (150) (150))) :lvel (quote ((100) (100) (100) (100) (100) (100))) :loffset (quote ((0) (0) (0) (0) (0) (0))) :lchan (quote ((1) (1) (1) (1) (1) (1))) :legato 100)))) (load-port-info newobj (quote ((0) (0) (0) (0) (0) (0)))) (init-mus-color newobj (quote nil)) (set-extra-pairs newobj (quote nil)) (set-patch-pairs newobj (quote nil)) (set-name newobj nil) (set-tonalite newobj nil) newobj) nil nil (pairlis (quote (player scale approx fontsize staff cmnpref deltapict outport inport zoom notechancolor? grillestep mode winsize winpos palette-mode obj-mode show-stems)) (list (quote :midishare) nil 2 24 (quote gf) (let ((newobj (make-instance (quote edition-values)))) (setf (paper-size newobj) (om-make-point 600 800)) (setf (top-margin newobj) 2) (setf (left-margin newobj) 1) (setf (right-margin newobj) 1) (setf (bottom-margin newobj) 1) (setf (orientation newobj) nil) (setf (scale newobj) nil) (setf (system-space newobj) (quote (1))) (setf (system-color newobj) (quote nil)) (setf (line-space newobj) 1) (setf (title newobj) nil) (setf (show-title? newobj) nil) (setf (show-page? newobj) nil) (setf (sheet-id newobj) nil) (setf (page-mode newobj) nil) newobj) (om-make-point 0 -28) 0 0 1 nil 1000 0 18350450 2621450 0 0 (quote t))) t nil nil nil) (om-load-boxout "output" 0 (om-make-point 151 510) (quote ((om-load-inputfun (quote input-funbox) "out" "out" nil))) nil nil) (om-load-boxcall (quote genfun) "X-DIFF" (quote x-diff) (quote ((om-load-inputfun (quote input-funbox) "first list" "L1?" nil) (om-load-inputfun (quote input-funbox) "second list" "L2?" nil))) (om-make-point 157 446) nil nil nil nil 1) (om-load-boxcall (quote genfun) "OM//" (quote om//) (quote ((om-load-inputfun (quote input-funbox) "number or tree" "SELF" 1) (om-load-inputfun (quote input-funbox) "number or tree" "DIVISOR" 1200))) (om-make-point 185 367) nil nil nil nil 2) (om-load-editor-box1 "CHORD" (quote chord) (quote ((om-load-inputfun (quote input-funbox) "objs" "SELF" nil) (om-load-inputfun (quote input-funbox) "LMIDIC" "LMIDIC" (list 6000)) (om-load-inputfun (quote input-funbox) "LVEL" "LVEL" (list 100)) (om-load-inputfun (quote input-funbox) "LOFFSET" "LOFFSET" (list 0)) (om-load-inputfun (quote input-funbox) "LDUR" "LDUR" (list 1000)) (om-load-inputfun (quote input-funbox) "LCHAN" "LCHAN" (list 1)))) (om-make-point 214 125) (om-make-point 55 105) (let ((thechord (make-instance (quote chord) :lmidic (quote (4800 6100 6700 6800 7400 8100)) :ldur (quote (1000 1000 1000 1000 1000 1000)) :lvel (quote (80 80 80 80 80 80)) :loffset (quote (0 0 0 0 0 0)) :lchan (quote (1 1 1 1 1 1))))) (load-port-info thechord (quote (0 0 0 0 0 0))) thechord) "x" nil (pairlis (quote (player scale inport outport deltapict cmnpref staff fontsize approx zoom notechancolor? grillestep mode winsize winpos palette-mode obj-mode show-stems)) (list (quote :midishare) nil 0 0 (om-make-point 0 0) (let ((newobj (make-instance (quote edition-values)))) (setf (paper-size newobj) (om-make-point 600 800)) (setf (top-margin newobj) 2) (setf (left-margin newobj) 1) (setf (right-margin newobj) 1) (setf (bottom-margin newobj) 1) (setf (orientation newobj) nil) (setf (scale newobj) nil) (setf (system-space newobj) (quote (1))) (setf (system-color newobj) (quote nil)) (setf (line-space newobj) 1) (setf (title newobj) nil) (setf (show-title? newobj) nil) (setf (show-page? newobj) nil) (setf (sheet-id newobj) nil) (setf (page-mode newobj) nil) newobj) (quote gf) 24 2 1 nil 1000 0 18350450 2621450 0 0 (quote t))) t nil nil nil) (om-load-boxcall (quote genfun) "OM//" (quote om//) (quote ((om-load-inputfun (quote input-funbox) "number or tree" "SELF" 1) (om-load-inputfun (quote input-funbox) "number or tree" "DIVISOR" 1200))) (om-make-point 118 349) nil nil nil nil 2) (om-load-boxcall (quote genfun) "OM+" (quote om+) (quote ((om-load-inputfun (quote input-funbox) "first input" "SELF" 6000) (om-load-inputfun (quote input-funbox) "second input" "NUM" 0))) (om-make-point 99 177) (om-make-point 54 35) nil nil nil 1) (om-load-boxcall (quote genfun) "OM*" (quote om*) (quote ((om-load-inputfun (quote input-funbox) "first input" "SELF" 0) (om-load-inputfun (quote input-funbox) "second input" "NUM" 100))) (om-make-point 117 109) (om-make-point 41 35) nil nil nil 1) (om-load-boxcall (quote genfun) "ARITHM-SER" (quote arithm-ser) (quote ((om-load-inputfun (quote input-funbox) "begin" "BEGIN" 0) (om-load-inputfun (quote input-funbox) "end " "END" 11) (om-load-inputfun (quote input-funbox) "step" "STEP" 1))) (om-make-point 87 47) nil nil nil nil 1) (om-load-editor-box1 "CHORD" (quote chord) (quote ((om-load-inputfun (quote input-funbox) "objs" "SELF" nil) (om-load-inputfun (quote input-funbox) "LMIDIC" "LMIDIC" (list 6000)) (om-load-inputfun (quote input-funbox) "LVEL" "LVEL" (list 100)) (om-load-inputfun (quote input-funbox) "LOFFSET" "LOFFSET" (list 0)) (om-load-inputfun (quote input-funbox) "LDUR" "LDUR" (list 1000)) (om-load-inputfun (quote input-funbox) "LCHAN" "LCHAN" (list 1)))) (om-make-point 108 221) (om-make-point 70 90) (let ((thechord (make-instance (quote chord) :lmidic (quote (6000 6100 6200 6300 6400 6500 6600 6700 6800 6900 7000 7100)) :ldur (quote (1000 1000 1000 1000 1000 1000 1000 1000 1000 1000 1000 1000)) :lvel (quote (100 100 100 100 100 100 100 100 100 100 100 100)) :loffset (quote (0 0 0 0 0 0 0 0 0 0 0 0)) :lchan (quote (1 1 1 1 1 1 1 1 1 1 1 1))))) (load-port-info thechord (quote (0 0 0 0 0 0 0 0 0 0 0 0))) thechord) "x" nil (pairlis (quote (player scale inport outport deltapict cmnpref staff fontsize approx zoom notechancolor? grillestep mode winsize winpos palette-mode obj-mode show-stems)) (list (quote :midishare) nil 0 0 (om-make-point 0 0) (let ((newobj (make-instance (quote edition-values)))) (setf (paper-size newobj) (om-make-point 600 800)) (setf (top-margin newobj) 2) (setf (left-margin newobj) 1) (setf (right-margin newobj) 1) (setf (bottom-margin newobj) 1) (setf (orientation newobj) nil) (setf (scale newobj) nil) (setf (system-space newobj) (quote (1))) (setf (system-color newobj) (quote nil)) (setf (line-space newobj) 1) (setf (title newobj) nil) (setf (show-title? newobj) nil) (setf (show-page? newobj) nil) (setf (sheet-id newobj) nil) (setf (page-mode newobj) nil) newobj) (quote g) 24 2 1 nil 1000 0 18350450 2621450 0 0 (quote t))) t nil nil nil) (om-load-tempboxout "tempout" (om-make-point 238 485) (quote ((om-load-inputfun (quote input-funbox) "out" "out" nil))) nil nil) (om-load-boxselfin "self" (om-make-point 333 41) nil))) (quote ((25 1 20 0 nil 0) (20 0 21 1 nil 0) (19 0 21 2 nil 0) (18 0 21 7 nil 0) (23 0 22 0 nil 0) (26 1 23 0 nil 0) (24 1 23 1 nil 0) (25 1 24 0 nil 0) (11 0 24 1 nil 0) (30 1 26 0 nil 0) (12 0 26 1 nil 0) (13 0 27 0 nil 0) (28 0 27 1 nil 0) (29 0 28 0 nil 0) (14 0 28 1 nil 0) (17 0 29 0 nil 0) (16 0 29 1 nil 0) (15 0 29 2 nil 0) (27 0 30 1 nil 0) (21 0 31 0 nil 0))) 6.010003 nil "")) 1 16 900 (om-make-color 128/255 128/255 128/255) (list (let ((newobj (when (find-class (quote chord-seq) nil) (make-instance (quote chord-seq) :lmidic (quote ((8100) (6100) (6800) (4800) (6700) (7400))) :lonset (quote (0 150 300 450 600 750 900)) :ldur (quote ((150) (150) (150) (150) (150) (150))) :lvel (quote ((100) (100) (100) (100) (100) (100))) :loffset (quote ((0) (0) (0) (0) (0) (0))) :lchan (quote ((1) (1) (1) (1) (1) (1))) :legato 100)))) (load-port-info newobj (quote ((0) (0) (0) (0) (0) (0)))) (init-mus-color newobj (quote nil)) (set-extra-pairs newobj (quote nil)) (set-patch-pairs newobj (quote nil)) (set-name newobj nil) (set-tonalite newobj nil) newobj) (list 300 400 500 600 1000 1100)) t 9 23 1 0 (pairlis (quote (player scale inport outport deltapict cmnpref staff fontsize approx zoom notechancolor? grillestep mode winsize winpos palette-mode obj-mode show-stems)) (list (quote :midishare) nil 0 0 (om-make-point 0 -16) (let ((newobj (make-instance (quote edition-values)))) (setf (paper-size newobj) (om-make-point 600 800)) (setf (top-margin newobj) 2) (setf (left-margin newobj) 1) (setf (right-margin newobj) 1) (setf (bottom-margin newobj) 1) (setf (orientation newobj) nil) (setf (scale newobj) nil) (setf (system-space newobj) (quote (1))) (setf (system-color newobj) (quote nil)) (setf (line-space newobj) 1) (setf (title newobj) nil) (setf (show-title? newobj) nil) (setf (show-page? newobj) nil) (setf (sheet-id newobj) nil) (setf (page-mode newobj) nil) newobj) (quote g) 24 2 1 nil 1000 0 18350450 2621450 0 0 (quote t))) nil nil nil nil nil nil ""))) (quote ((1 0 0 0 nil 0))) (quote (0 2064 -2 25)) (quote nil) (om-make-color 0.32459396 0.4541175 0.6153846) (quote ((4 60) ((4 4)) 16 t)) t 6.010003 nil "") (quote ((om-load-inputfun (quote input-funbox) "time rate number of offsets list" "time" 1000) (om-load-inputfun (quote input-funbox) "objects to put in maquette" "Objs" nil))) (om-make-point 263 359) nil nil "o" "tutorial_28") (om-load-boxcall (quote lispfun) "LIST" (quote list) (quote ((om-load-inputfun (quote input-funbox) "add-input" "add-input" nil) (om-load-inputfun (quote input-funbox) "add-input" "add-input" nil) (om-load-inputfun (quote input-funbox) "add-input" "add-input" nil) (om-load-inputfun (quote input-funbox) "add-input" "add-input" nil) (om-load-inputfun (quote input-funbox) "add-input" "add-input" nil) (om-load-inputfun (quote input-funbox) "add-input" "add-input" nil) (om-load-inputfun (quote input-funbox) "add-input" "add-input" nil))) (om-make-point 83 455) (om-make-point 683 37) nil nil nil 1))) (quote ((20 2 1 0 nil 0) (26 0 1 1 nil 0) (1 0 16 0 nil 0) (18 0 19 1 nil 0) (17 0 19 2 nil 0) (19 0 20 0 nil 0) (19 0 26 0 ((om-make-point 87 290) (om-make-point 87 372) (om-make-point 130 415) (om-make-point 168 455)) 0) (22 0 26 1 nil 0) (25 0 26 2 nil 0) (23 0 26 3 nil 0) (21 0 26 4 nil 0) (24 0 26 5 nil 0) (4 0 26 6 nil 0))) nil 6.010003))
