; OM File Header - Saved 2011/10/22 18:44:21
; (6.010003 :patc (om-make-point 99 234) (om-make-point 50 50) (om-make-point 788 611) "No documentation " 183 0 nil nil)
; End File Header
; External resources 
; (list (list (quote :midi) "../../in-files/tutorial28.mid"))
(in-package :om)(load-lib-for (quote nil))(setf *om-current-persistent* (om-load-patch1 "tutorial_29" (quote ((om-load-boxcomment "comment1112" (om-make-point 317 37) (quote "TUTORIAL 29 - Working with MIDI Files (II)") "" (om-make-point 205 17) nil (om-make-color 0 0 0) (om-make-font "Verdana" 12 :family "Verdana" :style (quote (:bold)) :mode (quote nil))) (om-load-boxcomment "comment11" (om-make-point 62 24) (quote "Durations") "" (om-make-point 495 322) nil (om-make-color 1/15 22/255 52/85) (om-make-font "Helvetica" 10 :family "Helvetica" :style (quote (:plain)) :mode (quote nil))) (om-load-boxcomment "comment1" (om-make-point 40 19) (quote "Onsets") "" (om-make-point 338 321) nil (om-make-color 1/15 22/255 52/85) (om-make-font "Helvetica" 10 :family "Helvetica" :style (quote (:plain)) :mode (quote nil))) (om-load-boxcomment "comment" (om-make-point 61 22) (quote "MIDI notes") "" (om-make-point 204 320) nil (om-make-color 1/15 22/255 52/85) (om-make-font "Helvetica" 10 :family "Helvetica" :style (quote (:plain)) :mode (quote nil))) (om-load-boxcomment "comment" (om-make-point 18 19) (quote "F") "" (om-make-point 207 449) nil (om-make-color 0 0 0) (om-make-font "Helvetica" 10 :family "Helvetica" :style (quote (:plain)) :mode (quote nil))) (om-load-boxcomment "comment" (om-make-point 18 18) (quote "E") "" (om-make-point 515 309) nil (om-make-color 0 0 0) (om-make-font "Helvetica" 10 :family "Helvetica" :style (quote (:plain)) :mode (quote nil))) (om-load-boxcomment "comment" (om-make-point 24 23) (quote "D") "" (om-make-point 345 302) nil (om-make-color 0 0 0) (om-make-font "Helvetica" 10 :family "Helvetica" :style (quote (:plain)) :mode (quote nil))) (om-load-boxcomment "comment" (om-make-point 16 19) (quote "C") "" (om-make-point 226 302) nil (om-make-color 0 0 0) (om-make-font "Helvetica" 10 :family "Helvetica" :style (quote (:plain)) :mode (quote nil))) (om-load-boxcomment "comment" (om-make-point 18 26) (quote "B") "" (om-make-point 202 202) nil (om-make-color 0 0 0) (om-make-font "Helvetica" 10 :family "Helvetica" :style (quote (:plain)) :mode (quote nil))) (om-load-boxcomment "comment" (om-make-point 18 26) (quote "A") "" (om-make-point 240 91) nil (om-make-color 0 0 0) (om-make-font "Helvetica" 10 :family "Helvetica" :style (quote (:plain)) :mode (quote nil))) (om-load-editor-box1 "midifile" (quote midifile) (quote ((om-load-inputfun (quote input-funbox) "objs" "SELF" nil))) (om-make-point 302 62) (om-make-point 74 95) (let ((newobj (load-midi (make-pathname :directory (quote (:relative "in-files")) :device :unspecific :host :unspecific :name "tutorial28" :type "mid")))) (load-port-info newobj (quote nil)) (init-mus-color newobj (quote nil)) (set-extra-pairs newobj (quote nil)) (set-patch-pairs newobj (quote nil)) (set-name newobj nil) (set-tonalite newobj nil) newobj) "x" nil (pairlis (quote (scale show-stems obj-mode palette-mode winpos winsize mode grillestep notechancolor? zoom inport outport deltapict cmnpref staff fontsize approx player)) (list nil (quote t) 0 0 2621450 18350450 0 1000 nil 1 0 0 (om-make-point 0 0) (let ((newobj (make-instance (quote edition-values)))) (setf (paper-size newobj) (om-make-point 600 800)) (setf (top-margin newobj) 2) (setf (left-margin newobj) 1) (setf (right-margin newobj) 1) (setf (bottom-margin newobj) 1) (setf (orientation newobj) nil) (setf (scale newobj) nil) (setf (system-space newobj) (quote (1))) (setf (system-color newobj) (quote nil)) (setf (line-space newobj) 1) (setf (title newobj) nil) (setf (show-title? newobj) nil) (setf (show-page? newobj) nil) (setf (sheet-id newobj) nil) (setf (page-mode newobj) nil) newobj) (quote g) 24 2 (quote :midishare))) t nil nil nil) (om-load-editor-box1 "CHORD-SEQ21" (quote chord-seq) (quote ((om-load-inputfun (quote input-funbox) "objs" "SELF" nil) (om-load-inputfun (quote input-funbox) "LMIDIC" "LMIDIC" (list 6000)) (om-load-inputfun (quote input-funbox) "LONSET" "LONSET" (list 0 1000)) (om-load-inputfun (quote input-funbox) "LDUR" "LDUR" (list 1000)) (om-load-inputfun (quote input-funbox) "LVEL" "LVEL" (list 100)) (om-load-inputfun (quote input-funbox) "LOFFSET" "LOFFSET" (list 0)) (om-load-inputfun (quote input-funbox) "LCHAN" "LCHAN" (list 1)) (om-load-inputfun (quote input-funbox) "LEGATO" "LEGATO" 0))) (om-make-point 244 419) (om-make-point 271 93) (let ((newobj (when (find-class (quote chord-seq) nil) (make-instance (quote chord-seq) :lmidic (quote ((6000) (6050) (6100) (6150) (6200) (6250) (6300) (6350))) :lonset (quote (0 625 1250 1875 2500 3125 3750 4375 5000)) :ldur (quote ((625) (625) (625) (625) (625) (625) (625) (625))) :lvel (quote ((100) (100) (100) (100) (100) (100) (100) (100))) :loffset (quote ((0) (0) (0) (0) (0) (0) (0) (0))) :lchan (quote ((1) (1) (1) (1) (1) (1) (1) (1))) :legato 0)))) (load-port-info newobj (quote ((0) (0) (0) (0) (0) (0) (0) (0)))) (init-mus-color newobj (quote nil)) (set-extra-pairs newobj (quote nil)) (set-patch-pairs newobj (quote nil)) (set-name newobj nil) (set-tonalite newobj nil) newobj) nil nil (pairlis (quote (scale show-stems obj-mode palette-mode winpos winsize mode grillestep notechancolor? zoom approx fontsize staff cmnpref deltapict outport inport player)) (list nil (quote t) 0 0 2621450 18350450 0 1000 nil 1 4 24 (quote g) (let ((newobj (make-instance (quote edition-values)))) (setf (paper-size newobj) (om-make-point 600 800)) (setf (top-margin newobj) 2) (setf (left-margin newobj) 1) (setf (right-margin newobj) 1) (setf (bottom-margin newobj) 1) (setf (orientation newobj) nil) (setf (scale newobj) nil) (setf (system-space newobj) (quote (1))) (setf (system-color newobj) (quote nil)) (setf (line-space newobj) 1) (setf (title newobj) nil) (setf (show-title? newobj) nil) (setf (show-page? newobj) nil) (setf (sheet-id newobj) nil) (setf (page-mode newobj) nil) newobj) (om-make-point 0 0) 0 0 (quote :midishare))) t nil nil nil) (om-load-boxcall (quote genfun) "FLAT" (quote flat) (quote ((om-load-inputfun (quote input-funbox) "one list" "LST" nil))) (om-make-point 446 338) (om-make-point 86 53) nil nil nil 1) (om-load-boxwithed1 (quote box-with-win) "OMLOOP1" (quote omloop) (quote ((om-load-inputfun (quote input-funbox) "aditional input" "OPLIST" nil) (om-load-inputfun (quote input-funbox) "aditional input" "OPLIST" nil))) (om-make-point 351 338) (om-make-point 88 53) nil nil (list (om-load-boxcomment "comment" (om-make-point 16 19) (quote "C") "" (om-make-point 100 338) nil (om-make-color 0 0 0) (om-make-font "Helvetica" 10 :family "Helvetica" :style (quote (:plain)) :mode (quote nil))) (om-load-boxcomment "comment" (om-make-point 18 26) (quote "B") "" (om-make-point 123 215) nil (om-make-color 0 0 0) (om-make-font "Helvetica" 10 :family "Helvetica" :style (quote (:plain)) :mode (quote nil))) (om-load-boxcomment "comment" (om-make-point 18 26) (quote "A") "" (om-make-point 96 108) nil (om-make-color 0 0 0) (om-make-font "Helvetica" 10 :family "Helvetica" :style (quote (:plain)) :mode (quote nil))) (om-load-boxcall (quote genfun) "FLAT" (quote flat) (quote ((om-load-inputfun (quote input-funbox) "one list" "LST" nil))) (om-make-point 219 327) nil nil nil nil 1) (om-load-boxcall (quote genfun) "inlist1" (quote listloop) (quote ((om-load-inputfun (quote input-funbox) "list to iterate" "LIST" nil))) (om-make-point 127 107) nil nil nil nil 1) (om-load-boxcall (quote genfun) "inlist" (quote listloop) (quote ((om-load-inputfun (quote input-funbox) "list to iterate" "LIST" nil))) (om-make-point 193 97) nil nil nil nil 1) (om-load-boxcall (quote lispfun) "LENGTH" (quote length) (quote ((om-load-inputfun (quote input-funbox) "SEQUENCE" "SEQUENCE" nil))) (om-make-point 192 155) nil nil nil nil 1) (om-load-boxcall (quote genfun) "REPEAT-N" (quote repeat-n) (quote ((om-load-inputfun (quote input-funbox) "patch" "SELF" nil) (om-load-inputfun (quote input-funbox) "times" "NUM" 0))) (om-make-point 154 198) nil nil nil nil 1) (om-load-boxcall (quote genfun) "collect" (quote listing) (quote ((om-load-inputfun (quote input-funbox) "no documentation" "WHAT?" nil))) (om-make-point 157 260) nil nil nil nil 3) (om-load-boxin "input1" 1 (om-make-point 130 34) "no documentation" nil nil nil) (om-load-boxin "input0" 0 (om-make-point 196 37) "no documentation" nil nil nil) (om-load-seqbox "finally" (quote finaldo) (quote ((om-load-inputfun (quote input-funbox) "patch" "PATCH" nil))) (om-make-point 213 391) nil nil nil 0) (om-load-seqbox "eachTime" (quote loopdo) (quote ((om-load-inputfun (quote input-funbox) "patch" "PATCH" nil))) (om-make-point 114 331) nil nil nil 0)) (quote ((8 1 3 0 nil 0) (9 0 4 0 nil 0) (10 0 5 0 nil 0) (5 0 6 0 nil 0) (4 0 7 0 nil 0) (6 0 7 1 nil 0) (7 0 8 0 nil 0) (3 0 11 0 nil 0) (8 0 12 0 nil 0))) 1 "omloop1" nil) (om-load-boxwithed1 (quote box-with-win) "OMLOOP" (quote omloop) (quote ((om-load-inputfun (quote input-funbox) "aditional input" "OPLIST" nil) (om-load-inputfun (quote input-funbox) "aditional input" "OPLIST" nil))) (om-make-point 243 338) (om-make-point 99 53) nil nil (list (om-load-boxcomment "comment" (om-make-point 15 18) (quote "A") "" (om-make-point 175 134) nil (om-make-color 0 0 0) (om-make-font "Helvetica" 10 :family "Helvetica" :style (quote (:plain)) :mode (quote nil))) (om-load-boxcomment "comment" (om-make-point 17 19) (quote "B") "" (om-make-point 76 277) nil (om-make-color 0 0 0) (om-make-font "Helvetica" 10 :family "Helvetica" :style (quote (:plain)) :mode (quote nil))) (om-load-boxcomment "comment" (om-make-point 27 31) (quote "C") "" (om-make-point 109 397) nil (om-make-color 0 0 0) (om-make-font "Helvetica" 10 :family "Helvetica" :style (quote (:plain)) :mode (quote nil))) (om-load-boxcall (quote bastype) "aux1" (quote t) (quote nil) (om-make-point 202 254) (om-make-point 22 27) 50 "50" nil) (om-load-boxcall (quote bastype) "aux" (quote t) (quote nil) (om-make-point 149 242) (om-make-point 20 27) 2 "2" nil) (om-load-boxcall (quote genfun) "FLAT" (quote flat) (quote ((om-load-inputfun (quote input-funbox) "one list" "LST" nil))) (om-make-point 236 102) nil nil nil nil 1) (om-load-boxcall (quote genfun) "FLAT" (quote flat) (quote ((om-load-inputfun (quote input-funbox) "one list" "LST" nil))) (om-make-point 112 100) nil nil nil nil 1) (om-load-boxcall (quote genfun) "OM=" (quote om=) (quote ((om-load-inputfun (quote input-funbox) "a number" "SELF" 0) (om-load-inputfun (quote input-funbox) "a number" "NUM" 1))) (om-make-point 124 275) (om-make-point 37 35) nil nil nil 1) (om-load-boxcall (quote genfun) "OM+" (quote om+) (quote ((om-load-inputfun (quote input-funbox) "first input" "SELF" 0) (om-load-inputfun (quote input-funbox) "second input" "NUM" 50))) (om-make-point 167 280) (om-make-point 54 35) nil nil nil 1) (om-load-boxcall (quote genfun) "OMIF" (quote omif) (quote ((om-load-inputfun (quote input-funbox) "if" "TEST" nil) (om-load-inputfun (quote input-funbox) "then" "ACTION" nil) (om-load-inputfun (quote input-funbox) "else" "ELSE" nil))) (om-make-point 88 327) (om-make-point 209 53) nil nil nil 1) (om-load-boxcall (quote genfun) "inlist1" (quote listloop) (quote ((om-load-inputfun (quote input-funbox) "list to iterate" "LIST" nil))) (om-make-point 228 165) nil nil nil nil 1) (om-load-boxcall (quote genfun) "inlist" (quote listloop) (quote ((om-load-inputfun (quote input-funbox) "list to iterate" "LIST" nil))) (om-make-point 104 169) nil nil nil "listloop" 1) (om-load-boxcall (quote genfun) "collect" (quote listing) (quote ((om-load-inputfun (quote input-funbox) "no documentation" "WHAT?" nil))) (om-make-point 171 385) nil nil nil nil 3) (om-load-boxin "input1" 1 (om-make-point 233 41) "no documentation" nil nil nil) (om-load-boxin "input0" 0 (om-make-point 106 40) "no documentation" nil nil nil) (om-load-seqbox "finally" (quote finaldo) (quote ((om-load-inputfun (quote input-funbox) "patch" "PATCH" nil))) (om-make-point 193 452) nil nil nil 0) (om-load-seqbox "eachTime" (quote loopdo) (quote ((om-load-inputfun (quote input-funbox) "patch" "PATCH" nil))) (om-make-point 134 450) nil nil nil 0)) (quote ((13 0 5 0 nil 0) (14 0 6 0 nil 0) (11 0 7 0 nil 0) (4 0 7 1 nil 0) (10 0 8 0 nil 0) (3 0 8 1 nil 0) (7 0 9 0 nil 0) (8 0 9 1 nil 0) (10 0 9 2 nil 0) (5 0 10 0 nil 0) (6 0 11 0 nil 0) (9 0 12 0 nil 0) (12 1 15 0 nil 0) (12 0 16 0 nil 0))) 1 "omloop" nil) (om-load-editor-box1 "CHORD-SEQ21" (quote chord-seq) (quote ((om-load-inputfun (quote input-funbox) "objs" "SELF" nil) (om-load-inputfun (quote input-funbox) "LMIDIC" "LMIDIC" (list 6000)) (om-load-inputfun (quote input-funbox) "LONSET" "LONSET" (list 0 1000)) (om-load-inputfun (quote input-funbox) "LDUR" "LDUR" (list 1000)) (om-load-inputfun (quote input-funbox) "LVEL" "LVEL" (list 100)) (om-load-inputfun (quote input-funbox) "LOFFSET" "LOFFSET" (list 0)) (om-load-inputfun (quote input-funbox) "LCHAN" "LCHAN" (list 1)) (om-load-inputfun (quote input-funbox) "LEGATO" "LEGATO" 0))) (om-make-point 245 171) (om-make-point 271 93) (let ((newobj (when (find-class (quote chord-seq) nil) (make-instance (quote chord-seq) :lmidic (quote ((6000) (6000) (6100) (6100) (6200) (6200) (6300) (6300))) :lonset (quote (0 625 1250 1875 2500 3125 3750 4375 5375)) :ldur (quote ((625) (625) (625) (625) (625) (625) (625) (625))) :lvel (quote ((64) (64) (64) (64) (64) (64) (64) (64))) :loffset (quote ((0) (0) (0) (0) (0) (0) (0) (0))) :lchan (quote ((1) (2) (1) (2) (1) (2) (1) (2))) :legato 0)))) (load-port-info newobj (quote ((0) (0) (0) (0) (0) (0) (0) (0)))) (init-mus-color newobj (quote nil)) (set-extra-pairs newobj (quote nil)) (set-patch-pairs newobj (quote nil)) (set-name newobj nil) (set-tonalite newobj nil) newobj) "x" nil (pairlis (quote (scale show-stems obj-mode palette-mode winpos winsize mode grillestep notechancolor? zoom approx fontsize staff cmnpref deltapict outport inport player)) (list nil (quote t) 0 0 2621450 18350450 0 1000 nil 1 4 24 (quote g) (let ((newobj (make-instance (quote edition-values)))) (setf (paper-size newobj) (om-make-point 600 800)) (setf (top-margin newobj) 2) (setf (left-margin newobj) 1) (setf (right-margin newobj) 1) (setf (bottom-margin newobj) 1) (setf (orientation newobj) nil) (setf (scale newobj) nil) (setf (system-space newobj) (quote (1))) (setf (system-color newobj) (quote nil)) (setf (line-space newobj) 1) (setf (title newobj) nil) (setf (show-title? newobj) nil) (setf (show-page? newobj) nil) (setf (sheet-id newobj) nil) (setf (page-mode newobj) nil) newobj) (om-make-point 0 -3) 0 0 (quote :midishare))) t nil nil nil))) (quote ((14 0 11 1 nil 1) (13 0 11 2 nil 2) (12 0 11 3 nil 3) (15 3 12 0 nil 3) (15 1 13 0 nil 2) (15 2 13 1 nil 2) (15 6 14 0 nil 1) (15 1 14 1 nil 1) (10 0 15 0 nil 0))) nil 6.010003))
