; OM File Header - Saved 2011/10/22 18:44:21
; (6.010003 :patc (om-make-point 164 233) (om-make-point 50 50) (om-make-point 734 714) "No documentation " 183 0 nil nil)
; End File Header
(in-package :om)(load-lib-for (quote nil))(setf *om-current-persistent* (om-load-patch1 "tutorial_30" (quote ((om-load-boxcomment "comment1112" (om-make-point 317 37) (quote "TUTORIAL 30 - Working with LISTS (I)") "" (om-make-point 185 16) nil (om-make-color 0 0 0) (om-make-font "Verdana" 12 :family "Verdana" :style (quote (:bold)) :mode (quote nil))) (om-load-boxcall (quote bastype) "aux5" (quote t) (quote nil) (om-make-point 253 349) (om-make-point 26 20) 250 "250" nil) (om-load-boxcall (quote genfun) "OM*" (quote om*) (quote ((om-load-inputfun (quote input-funbox) "first input" "SELF" 0) (om-load-inputfun (quote input-funbox) "second input" "NUM" 0))) (om-make-point 180 372) (om-make-point 127 35) nil nil nil 1) (om-load-boxcomment "comment11" (om-make-point 14 28) (quote "H") "" (om-make-point 384 122) nil (om-make-color 0 0 0) (om-make-font "Geneva" 10 :family "Geneva" :style (quote (:plain)) :mode (quote nil))) (om-load-boxcomment "comment1" (om-make-point 17 33) (quote "G") "" (om-make-point 205 443) nil (om-make-color 0 0 0) (om-make-font "Geneva" 10 :family "Geneva" :style (quote (:plain)) :mode (quote nil))) (om-load-boxcomment "comment" (om-make-point 22 20) (quote "K") "" (om-make-point 161 475) nil (om-make-color 0 0 0) (om-make-font "Geneva" 10 :family "Geneva" :style (quote (:plain)) :mode (quote nil))) (om-load-boxcomment "comment" (om-make-point 16 32) (quote "J") "" (om-make-point 364 402) nil (om-make-color 0 0 0) (om-make-font "Geneva" 10 :family "Geneva" :style (quote (:plain)) :mode (quote nil))) (om-load-boxcomment "comment" (om-make-point 16 19) (quote "I") "" (om-make-point 361 328) nil (om-make-color 0 0 0) (om-make-font "Geneva" 10 :family "Geneva" :style (quote (:plain)) :mode (quote nil))) (om-load-boxcomment "comment" (om-make-point 13 22) (quote "F") "" (om-make-point 163 378) nil (om-make-color 0 0 0) (om-make-font "Geneva" 10 :family "Geneva" :style (quote (:plain)) :mode (quote nil))) (om-load-boxcomment "comment" (om-make-point 20 28) (quote "E") "" (om-make-point 169 264) nil (om-make-color 0 0 0) (om-make-font "Geneva" 10 :family "Geneva" :style (quote (:plain)) :mode (quote nil))) (om-load-boxcomment "comment" (om-make-point 18 21) (quote "D") "" (om-make-point 260 194) nil (om-make-color 0 0 0) (om-make-font "Geneva" 10 :family "Geneva" :style (quote (:plain)) :mode (quote nil))) (om-load-boxcomment "comment" (om-make-point 23 23) (quote "C") "" (om-make-point 216 192) nil (om-make-color 0 0 0) (om-make-font "Geneva" 10 :family "Geneva" :style (quote (:plain)) :mode (quote nil))) (om-load-boxcomment "comment" (om-make-point 16 27) (quote "B") "" (om-make-point 309 169) nil (om-make-color 0 0 0) (om-make-font "Geneva" 10 :family "Geneva" :style (quote (:plain)) :mode (quote nil))) (om-load-boxcomment "comment" (om-make-point 16 24) (quote "A") "" (om-make-point 246 108) nil (om-make-color 0 0 0) (om-make-font "Geneva" 10 :family "Geneva" :style (quote (:plain)) :mode (quote nil))) (om-load-boxcall (quote genfun) "FLAT" (quote flat) (quote ((om-load-inputfun (quote input-funbox) "one list" "LST" nil))) (om-make-point 388 388) (om-make-point 44 58) nil nil nil 1) (om-load-boxcall (quote bastype) "aux4" (quote t) (quote nil) (om-make-point 234 74) (om-make-point 25 24) 20 "20" nil) (om-load-boxcall (quote bastype) "aux3" (quote t) (quote nil) (om-make-point 198 74) (om-make-point 28 25) 200 "200" nil) (om-load-boxcall (quote bastype) "aux2" (quote t) (quote nil) (om-make-point 166 74) (om-make-point 24 26) 10 "10" nil) (om-load-boxcall (quote genfun) "ARITHM-SER" (quote arithm-ser) (quote ((om-load-inputfun (quote input-funbox) "begin" "BEGIN" 0) (om-load-inputfun (quote input-funbox) "end " "END" 10) (om-load-inputfun (quote input-funbox) "step" "STEP" 1))) (om-make-point 178 101) (om-make-point 65 53) nil nil nil 1) (om-load-editor-box1 "CHORD" (quote chord) (quote ((om-load-inputfun (quote input-funbox) "object or object list" "object" nil) (om-load-inputfun (quote input-funbox) "LMIDIC" "LMIDIC" (list 6000)) (om-load-inputfun (quote input-funbox) "LVEL" "LVEL" (list 100)) (om-load-inputfun (quote input-funbox) "LOFFSET" "LOFFSET" (list 0)) (om-load-inputfun (quote input-funbox) "LDUR" "LDUR" (list 1000)) (om-load-inputfun (quote input-funbox) "LCHAN" "LCHAN" (list 1)))) (om-make-point 416 176) (om-make-point 80 112) (let ((thechord (make-instance (quote chord) :lmidic (quote (7200 6100 6700 7800)) :ldur (quote (1000 1000 1000 1000)) :lvel (quote (100 100 100 100)) :loffset (quote (0 0 0 0)) :lchan (quote (1 1 1 1))))) (load-port-info thechord (quote (0 0 0 0))) thechord) "x" nil (pairlis (quote (player show-stems obj-mode palette-mode winpos winsize mode grillestep notechancolor? zoom inport outport deltapict approx fontsize staff cmnpref scale)) (list (quote :midishare) (quote t) 0 0 2621450 18350450 0 1000 nil 1 0 0 (om-make-point 0 0) 2 24 (quote gf) (let ((newobj (make-instance (quote edition-values)))) (setf (paper-size newobj) (om-make-point 600 800)) (setf (top-margin newobj) 2) (setf (left-margin newobj) 1) (setf (right-margin newobj) 1) (setf (bottom-margin newobj) 1) (setf (orientation newobj) nil) (setf (scale newobj) nil) (setf (system-space newobj) (quote (1))) (setf (system-color newobj) (quote nil)) (setf (line-space newobj) 1) (setf (title newobj) nil) (setf (show-title? newobj) nil) (setf (show-page? newobj) nil) (setf (sheet-id newobj) nil) (setf (page-mode newobj) nil) newobj) nil)) t nil nil nil) (om-load-boxcall (quote genfun) "CREATE-LIST" (quote create-list) (quote ((om-load-inputfun (quote input-funbox) "number of elements" "COUNT" 10) (om-load-inputfun (quote input-funbox) "initial element" "ELEM" nil))) (om-make-point 368 298) (om-make-point 71 53) nil nil nil 1) (om-load-editor-box1 "VOICE" (quote voice) (quote ((om-load-inputfun (quote input-funbox) "object or object list" "object" nil) (om-load-inputfun (quote input-funbox) "TREE" "TREE" (list (quote ?) (list (list (quote |4//4|) (list 1 (list 1 (list 1 -2 1 1)) 1 1)) (list (quote |4//4|) (list 1 (list 1 (list 1 2 1 1)) -1 1))))) (om-load-inputfun (quote input-funbox) "CHORDS" "CHORDS" (list (let ((thechord (make-instance (quote chord) :lmidic (quote (6000)) :ldur (quote (1000)) :lvel (quote (100)) :loffset (quote (0)) :lchan (quote (1))))) (load-port-info thechord (quote (0))) thechord))) (om-load-inputfun (quote input-funbox) "TEMPO" "TEMPO" 60) (om-load-inputfun (quote input-funbox) "LEGATO" "LEGATO" 100))) (om-make-point 154 502) (om-make-point 407 99) (let ((newobj (when (find-class (quote voice) nil) (make-instance (quote voice) :tree (quote (19/4 (((4 4) ((1 (1 2 1)) (1 (1.0 1)) (1 (3.0 1)) 1.0)) ((4 4) ((1 (1.0 3)) 1.0 1 1.0)) ((4 4) (1 1.0 (1 (1.0 1)) 1.0)) ((4 4) (1.0 (1 (1.0 3)) 1.0 1.0)) ((3 4) ((1 (1.0 -3)) -1 -1))))) :chords (load-obj-list-from-save (quote ((let ((thechord (make-instance (quote chord) :lmidic (quote (7200)) :ldur (quote (250)) :lvel (quote (80)) :loffset (quote (0)) :lchan (quote (1))))) (load-port-info thechord (quote (0))) thechord) (let ((thechord (make-instance (quote chord) :lmidic (quote (6100)) :ldur (quote (500)) :lvel (quote (80)) :loffset (quote (0)) :lchan (quote (1))))) (load-port-info thechord (quote (0))) thechord) (let ((thechord (make-instance (quote chord) :lmidic (quote (6700)) :ldur (quote (250)) :lvel (quote (80)) :loffset (quote (0)) :lchan (quote (1))))) (load-port-info thechord (quote (0))) thechord) (let ((thechord (make-instance (quote chord) :lmidic (quote (7800)) :ldur (quote (500)) :lvel (quote (80)) :loffset (quote (0)) :lchan (quote (1))))) (load-port-info thechord (quote (0))) thechord) (let ((thechord (make-instance (quote chord) :lmidic (quote (7200)) :ldur (quote (250)) :lvel (quote (80)) :loffset (quote (0)) :lchan (quote (1))))) (load-port-info thechord (quote (0))) thechord) (let ((thechord (make-instance (quote chord) :lmidic (quote (6100)) :ldur (quote (750)) :lvel (quote (80)) :loffset (quote (0)) :lchan (quote (1))))) (load-port-info thechord (quote (0))) thechord) (let ((thechord (make-instance (quote chord) :lmidic (quote (6700)) :ldur (quote (1000)) :lvel (quote (80)) :loffset (quote (0)) :lchan (quote (1))))) (load-port-info thechord (quote (0))) thechord) (let ((thechord (make-instance (quote chord) :lmidic (quote (7800)) :ldur (quote (1000)) :lvel (quote (80)) :loffset (quote (0)) :lchan (quote (1))))) (load-port-info thechord (quote (0))) thechord) (let ((thechord (make-instance (quote chord) :lmidic (quote (7200)) :ldur (quote (500)) :lvel (quote (80)) :loffset (quote (0)) :lchan (quote (1))))) (load-port-info thechord (quote (0))) thechord) (let ((thechord (make-instance (quote chord) :lmidic (quote (6100)) :ldur (quote (750)) :lvel (quote (80)) :loffset (quote (0)) :lchan (quote (1))))) (load-port-info thechord (quote (0))) thechord)))) :tempo (quote ((1/4 60) nil)) :legato 100 :ties (quote (nil nil nil nil nil nil nil nil nil nil)))))) (load-port-info newobj (quote nil)) (init-mus-color newobj (quote nil)) (set-extra-pairs newobj (quote nil)) (set-patch-pairs newobj (quote ((nil (om-load-patch-abs1 "patch" (quote nil) (quote nil) 6.010003 nil ""))))) (set-name newobj nil) (set-tonalite newobj nil) newobj) nil nil (pairlis (quote (player show-stems obj-mode palette-mode winpos winsize mode grillestep notechancolor? zoom inport outport deltapict approx fontsize staff cmnpref scale)) (list (quote :midishare) (quote t) 0 0 2621450 18350450 0 1000 nil 37/50 0 0 (om-make-point 0 2) 2 36 (quote g) (let ((newobj (make-instance (quote edition-values)))) (setf (paper-size newobj) (om-make-point 600 800)) (setf (top-margin newobj) 2) (setf (left-margin newobj) 1) (setf (right-margin newobj) 1) (setf (bottom-margin newobj) 1) (setf (orientation newobj) nil) (setf (scale newobj) nil) (setf (system-space newobj) (quote (1))) (setf (system-color newobj) (quote nil)) (setf (line-space newobj) 1) (setf (title newobj) nil) (setf (show-title? newobj) nil) (setf (show-page? newobj) nil) (setf (sheet-id newobj) nil) (setf (page-mode newobj) nil) newobj) nil)) t nil nil nil) (om-load-boxcall (quote genfun) "OMQUANTIFY" (quote omquantify) (quote ((om-load-inputfun (quote input-funbox) "durations" "DURS" (list 100)) (om-load-inputfun (quote input-funbox) "Tempi" "TEMPI" 60) (om-load-inputfun (quote input-funbox) "measures" "MEASURES" (list 4 4)) (om-load-inputfun (quote input-funbox) "maximum division" "MAX/" 8))) (om-make-point 226 428) (om-make-point 80 53) nil nil nil 1) (om-load-boxcall (quote genfun) "OM-ROUND" (quote om-round) (quote ((om-load-inputfun (quote input-funbox) "number or tree" "SELF" 1))) (om-make-point 196 308) (om-make-point 56 53) nil nil nil 1) (om-load-boxcall (quote bastype) "aux1" (quote t) (quote nil) (om-make-point 251 218) (om-make-point 46 25) 12 "12" nil) (om-load-boxcall (quote bastype) "aux" (quote t) (quote nil) (om-make-point 214 219) (om-make-point 27 25) 1 "1" nil) (om-load-boxcall (quote genfun) "OM-SCALE" (quote om-scale) (quote ((om-load-inputfun (quote input-funbox) "number or tree" "SELF" 1) (om-load-inputfun (quote input-funbox) "a number" "MINOUT" 0) (om-load-inputfun (quote input-funbox) "a number" "MAXOUT" 0))) (om-make-point 190 248) (om-make-point 71 53) nil nil nil 1) (om-load-boxcall (quote lispfun) "LENGTH" (quote length) (quote ((om-load-inputfun (quote input-funbox) "ARG-0" "ARG-0" nil))) (om-make-point 331 160) (om-make-point 41 37) nil nil nil 1))) (quote ((23 0 2 0 nil 0) (1 0 2 1 nil 0) (20 0 14 0 nil 0) (17 0 18 0 nil 0) (16 0 18 1 nil 0) (15 0 18 2 nil 0) (27 0 20 0 nil 0) (19 1 20 1 nil 0) (22 0 21 1 nil 0) (14 0 21 2 nil 0) (2 0 22 0 nil 0) (26 0 23 0 nil 0) (18 0 26 0 nil 0) (25 0 26 1 nil 0) (24 0 26 2 nil 0) (18 0 27 0 nil 0))) nil 6.010003))
