; OM File Header - Saved 2011/10/22 18:44:21
; (6.010003 :patc (om-make-point 404 233) (om-make-point 50 50) (om-make-point 904 688) "No documentation " 183 0 nil nil)
; End File Header
(in-package :om)(load-lib-for (quote nil))(setf *om-current-persistent* (om-load-patch1 "tutorial_34" (quote ((om-load-boxcomment "comment1112" (om-make-point 317 37) (quote "TUTORIAL 34 - Lambda Functions (I)") "" (om-make-point 249 18) nil (om-make-color 0 0 0) (om-make-font "Verdana" 12 :family "Verdana" :style (quote (:bold)) :mode (quote nil))) (om-load-boxcall (quote bastype) "aux3" (quote t) (quote nil) (om-make-point 707 550) (om-make-point 23 20) 100 "100" nil) (om-load-boxcomment "comment" (om-make-point 14 20) (quote "K") "" (om-make-point 359 626) nil (om-make-color 0 0 0) (om-make-font "Helvetica" 10 :family "Helvetica" :style (quote (:plain)) :mode (quote nil))) (om-load-boxcomment "comment" (om-make-point 14 20) (quote "J") "" (om-make-point 511 528) nil (om-make-color 0 0 0) (om-make-font "Helvetica" 10 :family "Helvetica" :style (quote (:plain)) :mode (quote nil))) (om-load-boxcomment "comment" (om-make-point 14 20) (quote "I") "" (om-make-point 518 475) nil (om-make-color 0 0 0) (om-make-font "Helvetica" 10 :family "Helvetica" :style (quote (:plain)) :mode (quote nil))) (om-load-boxcomment "comment" (om-make-point 15 18) (quote "A") "" (om-make-point 400 78) nil (om-make-color 0 0 0) (om-make-font "Helvetica" 10 :family "Helvetica" :style (quote (:plain)) :mode (quote nil))) (om-load-boxcomment "comment" (om-make-point 17 19) (quote "B") "" (om-make-point 376 172) nil (om-make-color 0 0 0) (om-make-font "Helvetica" 10 :family "Helvetica" :style (quote (:plain)) :mode (quote nil))) (om-load-boxcomment "comment" (om-make-point 20 32) (quote "C") "" (om-make-point 484 419) nil (om-make-color 0 0 0) (om-make-font "Helvetica" 10 :family "Helvetica" :style (quote (:plain)) :mode (quote nil))) (om-load-boxcomment "comment" (om-make-point 18 19) (quote "D") "" (om-make-point 507 347) nil (om-make-color 0 0 0) (om-make-font "Helvetica" 10 :family "Helvetica" :style (quote (:plain)) :mode (quote nil))) (om-load-boxcomment "comment" (om-make-point 15 18) (quote "A") "" (om-make-point 53 229) nil (om-make-color 0 0 0) (om-make-font "Helvetica" 10 :family "Helvetica" :style (quote (:plain)) :mode (quote nil))) (om-load-boxcomment "comment" (om-make-point 17 19) (quote "B") "" (om-make-point 60 91) nil (om-make-color 0 0 0) (om-make-font "Helvetica" 10 :family "Helvetica" :style (quote (:plain)) :mode (quote nil))) (om-load-boxcomment "comment" (om-make-point 18 26) (quote "C") "" (om-make-point 105 74) nil (om-make-color 0 0 0) (om-make-font "Helvetica" 10 :family "Helvetica" :style (quote (:plain)) :mode (quote nil))) (om-load-boxcomment "comment" (om-make-point 18 19) (quote "D") "" (om-make-point 235 125) nil (om-make-color 0 0 0) (om-make-font "Helvetica" 10 :family "Helvetica" :style (quote (:plain)) :mode (quote nil))) (om-load-boxcomment "comment" (om-make-point 16 19) (quote "E") "" (om-make-point 235 209) nil (om-make-color 0 0 0) (om-make-font "Helvetica" 10 :family "Helvetica" :style (quote (:plain)) :mode (quote nil))) (om-load-boxcomment "comment" (om-make-point 15 19) (quote "F") "" (om-make-point 212 259) nil (om-make-color 0 0 0) (om-make-font "Helvetica" 10 :family "Helvetica" :style (quote (:plain)) :mode (quote nil))) (om-load-editor-box1 "CHORD-SEQ1" (quote chord-seq) (quote ((om-load-inputfun (quote input-funbox) "objs" "SELF" nil) (om-load-inputfun (quote input-funbox) "no documentation" "LMIDIC" (list 6000)) (om-load-inputfun (quote input-funbox) "no documentation" "LONSET" (list 0 1000)) (om-load-inputfun (quote input-funbox) "no documentation" "LDUR" (list 1000)) (om-load-inputfun (quote input-funbox) "no documentation" "LVEL" (list 100)) (om-load-inputfun (quote input-funbox) "no documentation" "LOFFSET" (list 0)) (om-load-inputfun (quote input-funbox) "no documentation" "LCHAN" (list 1)) (om-load-inputfun (quote input-funbox) "no documentation" "LEGATO" 100))) (om-make-point 397 582) (om-make-point 356 105) (let ((newobj (when (find-class (quote chord-seq) nil) (make-instance (quote chord-seq) :lmidic (quote ((7200) (6100) (6700) (7800) (7200) (6100) (6700) (7800) (7200) (6100) (6700) (7800) (7200) (6100) (6700) (7800) (7200) (6100) (6700) (7800))) :lonset (quote (0 450 1250 1750 2500 3550 4850 5650 7000 8800 10500 12550 14200 16400 18950 21400 23800 26200 28850 31900 34900)) :ldur (quote ((450) (800) (500) (750) (1050) (1300) (800) (1350) (1800) (1700) (2050) (1650) (2200) (2550) (2450) (2400) (2400) (2650) (3050) (3000))) :lvel (quote ((100) (100) (100) (100) (100) (100) (100) (100) (100) (100) (100) (100) (100) (100) (100) (100) (100) (100) (100) (100))) :loffset (quote ((0) (0) (0) (0) (0) (0) (0) (0) (0) (0) (0) (0) (0) (0) (0) (0) (0) (0) (0) (0))) :lchan (quote ((1) (1) (1) (1) (1) (1) (1) (1) (1) (1) (1) (1) (1) (1) (1) (1) (1) (1) (1) (1))) :legato 100)))) (load-port-info newobj (quote ((0) (0) (0) (0) (0) (0) (0) (0) (0) (0) (0) (0) (0) (0) (0) (0) (0) (0) (0) (0)))) (init-mus-color newobj (quote nil)) (set-extra-pairs newobj (quote nil)) (set-patch-pairs newobj (quote nil)) (set-name newobj nil) (set-tonalite newobj nil) newobj) nil nil (pairlis (quote (player scale approx fontsize staff cmnpref deltapict outport inport zoom notechancolor? grillestep mode winsize winpos palette-mode obj-mode show-stems)) (list (quote :midishare) nil 2 24 (quote g) (let ((newobj (make-instance (quote edition-values)))) (setf (paper-size newobj) (om-make-point 600 800)) (setf (top-margin newobj) 2) (setf (left-margin newobj) 1) (setf (right-margin newobj) 1) (setf (bottom-margin newobj) 1) (setf (orientation newobj) nil) (setf (scale newobj) nil) (setf (system-space newobj) (quote (1))) (setf (system-color newobj) (quote nil)) (setf (line-space newobj) 1) (setf (title newobj) nil) (setf (show-title? newobj) nil) (setf (show-page? newobj) nil) (setf (sheet-id newobj) nil) (setf (page-mode newobj) nil) newobj) (om-make-point 0 0) 0 0 1 nil 1000 0 18350450 2621450 0 0 (quote t))) t nil nil nil) (om-load-boxcall (quote bastype) "aux6" (quote t) (quote nil) (om-make-point 123 76) (om-make-point 25 30) 7 "7" nil) (om-load-boxcall (quote bastype) "aux5" (quote t) (quote nil) (om-make-point 224 78) (om-make-point 27 30) 1 "1" nil) (om-load-boxcall (quote bastype) "aux2" (quote t) (quote nil) (om-make-point 165 72) (om-make-point 27 24) 1 "1" nil) (om-load-boxcall (quote bastype) "aux1" (quote t) (quote nil) (om-make-point 226 167) (om-make-point 47 26) 100 "100" nil) (om-load-boxcall (quote bastype) "aux" (quote t) (quote nil) (om-make-point 56 113) (om-make-point 48 29) 6000 "6000" nil) (om-load-boxcall (quote lispfun) "MAPCAR1" (quote mapcar) (quote ((om-load-inputfun (quote input-funbox) "FUNCTION" "FUNCTION" (quote list)) (om-load-inputfun (quote input-funbox) "LIST" "LIST" nil) (om-load-inputfun (quote input-funbox) "add-input" "add-input" nil))) (om-make-point 53 300) (om-make-point 136 37) nil nil nil 1) (om-load-editor-box1 "CHORD-SEQ" (quote chord-seq) (quote ((om-load-inputfun (quote input-funbox) "objs" "SELF" nil) (om-load-inputfun (quote input-funbox) "no documentation" "LMIDIC" (list 6000)) (om-load-inputfun (quote input-funbox) "no documentation" "LONSET" (list 0 250)) (om-load-inputfun (quote input-funbox) "no documentation" "LDUR" (list 1000)) (om-load-inputfun (quote input-funbox) "no documentation" "LVEL" (list 100)) (om-load-inputfun (quote input-funbox) "no documentation" "LOFFSET" (list 0)) (om-load-inputfun (quote input-funbox) "no documentation" "LCHAN" (list 1)) (om-load-inputfun (quote input-funbox) "no documentation" "LEGATO" 100))) (om-make-point 67 360) (om-make-point 138 99) (let ((newobj (when (find-class (quote chord-seq) nil) (make-instance (quote chord-seq) :lmidic (quote ((6000 6100) (6000 6200) (6000 6300) (6000 6400) (6000 6500) (6000 6600) (6000 6700))) :lonset (quote (0 250 500 750 1000 1250 1500 1750)) :ldur (quote ((250 250) (250 250) (250 250) (250 250) (250 250) (250 250) (250 250))) :lvel (quote ((100 100) (100 100) (100 100) (100 100) (100 100) (100 100) (100 100))) :loffset (quote ((0 0) (0 0) (0 0) (0 0) (0 0) (0 0) (0 0))) :lchan (quote ((1 1) (1 1) (1 1) (1 1) (1 1) (1 1) (1 1))) :legato 100)))) (load-port-info newobj (quote ((0 0) (0 0) (0 0) (0 0) (0 0) (0 0) (0 0)))) (init-mus-color newobj (quote nil)) (set-extra-pairs newobj (quote nil)) (set-patch-pairs newobj (quote nil)) (set-name newobj nil) (set-tonalite newobj nil) newobj) nil nil (pairlis (quote (player scale approx fontsize staff cmnpref deltapict outport inport zoom notechancolor? grillestep mode winsize winpos palette-mode obj-mode show-stems)) (list (quote :midishare) nil 2 24 (quote g) (let ((newobj (make-instance (quote edition-values)))) (setf (paper-size newobj) (om-make-point 600 800)) (setf (top-margin newobj) 2) (setf (left-margin newobj) 1) (setf (right-margin newobj) 1) (setf (bottom-margin newobj) 1) (setf (orientation newobj) nil) (setf (scale newobj) nil) (setf (system-space newobj) (quote (1))) (setf (system-color newobj) (quote nil)) (setf (line-space newobj) 1) (setf (title newobj) nil) (setf (show-title? newobj) nil) (setf (show-page? newobj) nil) (setf (sheet-id newobj) nil) (setf (page-mode newobj) nil) newobj) (om-make-point 0 0) 0 0 1 nil 1000 0 18350450 2621450 0 0 (quote t))) t nil nil nil) (om-load-boxcall (quote genfun) "REPEAT-N" (quote repeat-n) (quote ((om-load-inputfun (quote input-funbox) "patch" "SELF" 6000) (om-load-inputfun (quote input-funbox) "times" "NUM" 7))) (om-make-point 103 203) nil nil nil nil 1) (om-load-boxcall (quote genfun) "ARITHM-SER" (quote arithm-ser) (quote ((om-load-inputfun (quote input-funbox) "begin" "BEGIN" 1) (om-load-inputfun (quote input-funbox) "end " "END" 7) (om-load-inputfun (quote input-funbox) "step" "STEP" 1))) (om-make-point 165 114) nil nil nil nil 1) (om-load-boxcall (quote genfun) "OM*" (quote om*) (quote ((om-load-inputfun (quote input-funbox) "first input" "SELF" 0) (om-load-inputfun (quote input-funbox) "second input" "NUM" 100))) (om-make-point 210 200) (om-make-point 20 35) nil nil nil 1) (om-load-boxcall (quote bastype) "aux4" (quote t) (quote nil) (om-make-point 50 252) (om-make-point 33 31) (quote list) "list" nil) (om-load-boxcall (quote genfun) "OM+" (quote om+) (quote ((om-load-inputfun (quote input-funbox) "first input" "SELF" 6000) (om-load-inputfun (quote input-funbox) "second input" "NUM" 0))) (om-make-point 179 252) nil nil nil nil 1) (om-load-boxcall (quote lispfun) "MAPCAR" (quote mapcar) (quote ((om-load-inputfun (quote input-funbox) "FUNCTION" "FUNCTION" nil) (om-load-inputfun (quote input-funbox) "LIST" "LIST" nil))) (om-make-point 503 409) (om-make-point 129 37) nil nil nil 1) (om-load-boxcall (quote abstraction) "mypatch" (om-load-patch-abs1 "mypatch" (quote ((om-load-boxcomment "comment" (om-make-point 15 20) (quote "H") "" (om-make-point 133 247) nil (om-make-color 0 0 0) (om-make-font "Helvetica" 10 :family "Helvetica" :style (quote (:plain)) :mode (quote nil))) (om-load-boxcomment "comment" (om-make-point 32 39) (quote "G") "" (om-make-point 261 129) nil (om-make-color 0 0 0) (om-make-font "Helvetica" 10 :family "Helvetica" :style (quote (:plain)) :mode (quote nil))) (om-load-boxcomment "comment" (om-make-point 15 19) (quote "F") "" (om-make-point 83 153) nil (om-make-color 0 0 0) (om-make-font "Helvetica" 10 :family "Helvetica" :style (quote (:plain)) :mode (quote nil))) (om-load-boxcomment "comment" (om-make-point 16 19) (quote "E") "" (om-make-point 63 69) nil (om-make-color 0 0 0) (om-make-font "Helvetica" 10 :family "Helvetica" :style (quote (:plain)) :mode (quote nil))) (om-load-boxcall (quote bastype) "aux2" (quote t) (quote nil) (om-make-point 152 108) (om-make-point 34 31) 100 "100" nil) (om-load-boxcall (quote genfun) "OM*" (quote om*) (quote ((om-load-inputfun (quote input-funbox) "first input" "SELF" 0) (om-load-inputfun (quote input-funbox) "second input" "NUM" 100))) (om-make-point 104 146) (om-make-point 52 35) nil nil nil 1) (om-load-boxin "input" 0 (om-make-point 226 117) "no documentation" nil nil nil) (om-load-boxout "output" 0 (om-make-point 152 281) (quote ((om-load-inputfun (quote input-funbox) "out" "out" nil))) nil nil) (om-load-boxcall (quote genfun) "OM+" (quote om+) (quote ((om-load-inputfun (quote input-funbox) "first input" "SELF" 0) (om-load-inputfun (quote input-funbox) "second input" "NUM" 0))) (om-make-point 153 238) (om-make-point 39 35) nil nil nil 1) (om-load-boxcall (quote bastype) "aux1" (quote t) (quote nil) (om-make-point 136 18) (om-make-point 19 25) 3 "3" nil) (om-load-boxcall (quote bastype) "aux" (quote t) (quote nil) (om-make-point 88 18) (om-make-point 24 26) -2 "-2" nil) (om-load-boxcall (quote genfun) "OM-RANDOM" (quote om-random) (quote ((om-load-inputfun (quote input-funbox) "min" "LOW" 0) (om-load-inputfun (quote input-funbox) "max" "HIGH" 0))) (om-make-point 85 52) nil nil nil nil 1))) (quote ((11 0 5 0 nil 0) (4 0 5 1 nil 0) (8 0 7 0 nil 0) (5 0 8 0 nil 0) (6 0 8 1 nil 0) (10 0 11 0 nil 0) (9 0 11 1 nil 0))) 6.010003 nil "") (quote ((om-load-inputfun (quote input-funbox) "no documentation" "input" nil))) (om-make-point 526 328) nil nil "l" nil) (om-load-boxcall (quote abstraction) "tutorial_30" (om-load-patch-abs1 "tutorial_30" (quote ((om-load-boxout "output" 0 (om-make-point 167 579) (quote ((om-load-inputfun (quote input-funbox) "out" "out" nil))) nil nil) (om-load-boxcall (quote bastype) "aux5" (quote t) (quote nil) (om-make-point 216 297) (om-make-point 26 20) 250 "250" nil) (om-load-boxcall (quote genfun) "OM*" (quote om*) (quote ((om-load-inputfun (quote input-funbox) "first input" "SELF" 0) (om-load-inputfun (quote input-funbox) "second input" "NUM" 0))) (om-make-point 143 320) (om-make-point 127 35) nil nil nil 1) (om-load-boxcomment "comment11" (om-make-point 25 32) (quote "H") "" (om-make-point 379 69) nil (om-make-color 0 0 0) (om-make-font "Geneva" 10 :family "Geneva" :style (quote (:plain)) :mode (quote nil))) (om-load-boxcomment "comment1" (om-make-point 23 31) (quote "G") "" (om-make-point 168 391) nil (om-make-color 0 0 0) (om-make-font "Geneva" 10 :family "Geneva" :style (quote (:plain)) :mode (quote nil))) (om-load-boxcomment "comment" (om-make-point 24 28) (quote "K") "" (om-make-point 122 422) nil (om-make-color 0 0 0) (om-make-font "Geneva" 10 :family "Geneva" :style (quote (:plain)) :mode (quote nil))) (om-load-boxcomment "comment" (om-make-point 18 27) (quote "J") "" (om-make-point 327 320) nil (om-make-color 0 0 0) (om-make-font "Geneva" 10 :family "Geneva" :style (quote (:plain)) :mode (quote nil))) (om-load-boxcomment "comment" (om-make-point 16 19) (quote "I") "" (om-make-point 310 234) nil (om-make-color 0 0 0) (om-make-font "Geneva" 10 :family "Geneva" :style (quote (:plain)) :mode (quote nil))) (om-load-boxcomment "comment" (om-make-point 20 33) (quote "F") "" (om-make-point 126 326) nil (om-make-color 0 0 0) (om-make-font "Geneva" 10 :family "Geneva" :style (quote (:plain)) :mode (quote nil))) (om-load-boxcomment "comment" (om-make-point 15 27) (quote "E") "" (om-make-point 132 212) nil (om-make-color 0 0 0) (om-make-font "Geneva" 10 :family "Geneva" :style (quote (:plain)) :mode (quote nil))) (om-load-boxcomment "comment" (om-make-point 25 23) (quote "D") "" (om-make-point 226 125) nil (om-make-color 0 0 0) (om-make-font "Geneva" 10 :family "Geneva" :style (quote (:plain)) :mode (quote nil))) (om-load-boxcomment "comment" (om-make-point 34 36) (quote "C") "" (om-make-point 180 122) nil (om-make-color 0 0 0) (om-make-font "Geneva" 10 :family "Geneva" :style (quote (:plain)) :mode (quote nil))) (om-load-boxcomment "comment" (om-make-point 33 41) (quote "B") "" (om-make-point 284 133) nil (om-make-color 0 0 0) (om-make-font "Geneva" 10 :family "Geneva" :style (quote (:plain)) :mode (quote nil))) (om-load-boxcomment "comment" (om-make-point 16 19) (quote "A") "" (om-make-point 209 67) nil (om-make-color 0 0 0) (om-make-font "Geneva" 10 :family "Geneva" :style (quote (:plain)) :mode (quote nil))) (om-load-boxcall (quote genfun) "FLAT" (quote flat) (quote ((om-load-inputfun (quote input-funbox) "one list" "LST" nil))) (om-make-point 351 306) (om-make-point 29 53) nil nil nil 1) (om-load-boxcall (quote bastype) "aux4" (quote t) (quote nil) (om-make-point 197 23) (om-make-point 26 26) 20 "20" nil) (om-load-boxcall (quote bastype) "aux3" (quote t) (quote nil) (om-make-point 161 23) (om-make-point 26 25) 200 "200" nil) (om-load-boxcall (quote bastype) "aux2" (quote t) (quote nil) (om-make-point 129 23) (om-make-point 26 26) 10 "10" nil) (om-load-boxcall (quote genfun) "ARITHM-SER" (quote arithm-ser) (quote ((om-load-inputfun (quote input-funbox) "begin" "BEGIN" 0) (om-load-inputfun (quote input-funbox) "end " "END" 10) (om-load-inputfun (quote input-funbox) "step" "STEP" 1))) (om-make-point 141 54) (om-make-point 65 53) nil nil nil 1) (om-load-editor-box1 "CHORD" (quote chord) (quote ((om-load-inputfun (quote input-funbox) "object or object list" "object" nil) (om-load-inputfun (quote input-funbox) "LMIDIC" "LMIDIC" (list 6000)) (om-load-inputfun (quote input-funbox) "LVEL" "LVEL" (list 100)) (om-load-inputfun (quote input-funbox) "LOFFSET" "LOFFSET" (list 0)) (om-load-inputfun (quote input-funbox) "LDUR" "LDUR" (list 1000)) (om-load-inputfun (quote input-funbox) "LCHAN" "LCHAN" (list 1)))) (om-make-point 376 100) (om-make-point 110 107) (let ((thechord (make-instance (quote chord) :lmidic (quote (7200 6100 6700 7800)) :ldur (quote (1000 1000 1000 1000)) :lvel (quote (100 100 100 100)) :loffset (quote (0 0 0 0)) :lchan (quote (1 1 1 1))))) (load-port-info thechord (quote (0 0 0 0))) thechord) "x" nil (pairlis (quote (player scale inport outport deltapict approx fontsize staff cmnpref zoom notechancolor? grillestep mode winsize winpos palette-mode obj-mode show-stems)) (list (quote :midishare) nil 0 0 (om-make-point 0 0) 2 24 (quote gf) (let ((newobj (make-instance (quote edition-values)))) (setf (paper-size newobj) (om-make-point 600 800)) (setf (top-margin newobj) 2) (setf (left-margin newobj) 1) (setf (right-margin newobj) 1) (setf (bottom-margin newobj) 1) (setf (orientation newobj) nil) (setf (scale newobj) nil) (setf (system-space newobj) (quote (1))) (setf (system-color newobj) (quote nil)) (setf (line-space newobj) 1) (setf (title newobj) nil) (setf (show-title? newobj) nil) (setf (show-page? newobj) nil) (setf (sheet-id newobj) nil) (setf (page-mode newobj) nil) newobj) 1 nil 1000 0 18350450 2621450 0 0 (quote t))) t nil nil nil) (om-load-boxcall (quote genfun) "CREATE-LIST" (quote create-list) (quote ((om-load-inputfun (quote input-funbox) "number of elements" "COUNT" 10) (om-load-inputfun (quote input-funbox) "initial element" "ELEM" nil))) (om-make-point 331 216) (om-make-point 71 53) nil nil nil 1) (om-load-editor-box1 "VOICE" (quote voice) (quote ((om-load-inputfun (quote input-funbox) "object or object list" "object" nil) (om-load-inputfun (quote input-funbox) "TREE" "TREE" (list (quote ?) (list (list (quote |4//4|) (list 1 (list 1 (list 1 -2 1 1)) 1 1)) (list (quote |4//4|) (list 1 (list 1 (list 1 2 1 1)) -1 1))))) (om-load-inputfun (quote input-funbox) "CHORDS" "CHORDS" (list (let ((thechord (make-instance (quote chord) :lmidic (quote (6000)) :ldur (quote (1000)) :lvel (quote (100)) :loffset (quote (0)) :lchan (quote (1))))) (load-port-info thechord (quote (0))) thechord))) (om-load-inputfun (quote input-funbox) "TEMPO" "TEMPO" 60) (om-load-inputfun (quote input-funbox) "LEGATO" "LEGATO" 100))) (om-make-point 117 450) (om-make-point 357 98) (let ((newobj (when (find-class (quote voice) nil) (make-instance (quote voice) :tree (quote (35/4 (((4 4) ((1 (1 2 1)) (1 (1.0 3)) (1 (3 1)) (1 (3.0 1)))) ((4 4) ((1 (3.0 1)) 1.0 1 (1 (1.0 1)))) ((4 4) (1.0 1 (1 (3.0 1)) 1.0)) ((4 4) ((1 (1.0 1)) 1.0 (1 (1.0 1)) 1.0)) ((4 4) ((1 (3.0 1)) 1.0 1.0 1)) ((4 4) (1.0 (1 (1.0 1)) 1.0 1.0)) ((4 4) (1 1.0 (1 (3.0 1)) 1.0)) ((4 4) (1.0 (1 (1.0 1)) 1.0 1.0)) ((3 4) ((1 (1.0 -1)) -1 -1))))) :chords (load-obj-list-from-save (quote ((let ((thechord (make-instance (quote chord) :lmidic (quote (7200)) :ldur (quote (250)) :lvel (quote (80)) :loffset (quote (0)) :lchan (quote (1))))) (load-port-info thechord (quote (0))) thechord) (let ((thechord (make-instance (quote chord) :lmidic (quote (6100)) :ldur (quote (500)) :lvel (quote (80)) :loffset (quote (0)) :lchan (quote (1))))) (load-port-info thechord (quote (0))) thechord) (let ((thechord (make-instance (quote chord) :lmidic (quote (6700)) :ldur (quote (250)) :lvel (quote (80)) :loffset (quote (0)) :lchan (quote (1))))) (load-port-info thechord (quote (0))) thechord) (let ((thechord (make-instance (quote chord) :lmidic (quote (7800)) :ldur (quote (750)) :lvel (quote (80)) :loffset (quote (0)) :lchan (quote (1))))) (load-port-info thechord (quote (0))) thechord) (let ((thechord (make-instance (quote chord) :lmidic (quote (7200)) :ldur (quote (750)) :lvel (quote (80)) :loffset (quote (0)) :lchan (quote (1))))) (load-port-info thechord (quote (0))) thechord) (let ((thechord (make-instance (quote chord) :lmidic (quote (6100)) :ldur (quote (250)) :lvel (quote (80)) :loffset (quote (0)) :lchan (quote (1))))) (load-port-info thechord (quote (0))) thechord) (let ((thechord (make-instance (quote chord) :lmidic (quote (6700)) :ldur (quote (250)) :lvel (quote (80)) :loffset (quote (0)) :lchan (quote (1))))) (load-port-info thechord (quote (0))) thechord) (let ((thechord (make-instance (quote chord) :lmidic (quote (7800)) :ldur (quote (250)) :lvel (quote (80)) :loffset (quote (0)) :lchan (quote (1))))) (load-port-info thechord (quote (0))) thechord) (let ((thechord (make-instance (quote chord) :lmidic (quote (7200)) :ldur (quote (1000)) :lvel (quote (80)) :loffset (quote (0)) :lchan (quote (1))))) (load-port-info thechord (quote (0))) thechord) (let ((thechord (make-instance (quote chord) :lmidic (quote (6100)) :ldur (quote (500)) :lvel (quote (80)) :loffset (quote (0)) :lchan (quote (1))))) (load-port-info thechord (quote (0))) thechord) (let ((thechord (make-instance (quote chord) :lmidic (quote (6700)) :ldur (quote (1000)) :lvel (quote (80)) :loffset (quote (0)) :lchan (quote (1))))) (load-port-info thechord (quote (0))) thechord) (let ((thechord (make-instance (quote chord) :lmidic (quote (7800)) :ldur (quote (250)) :lvel (quote (80)) :loffset (quote (0)) :lchan (quote (1))))) (load-port-info thechord (quote (0))) thechord) (let ((thechord (make-instance (quote chord) :lmidic (quote (7200)) :ldur (quote (500)) :lvel (quote (80)) :loffset (quote (0)) :lchan (quote (1))))) (load-port-info thechord (quote (0))) thechord) (let ((thechord (make-instance (quote chord) :lmidic (quote (6100)) :ldur (quote (500)) :lvel (quote (80)) :loffset (quote (0)) :lchan (quote (1))))) (load-port-info thechord (quote (0))) thechord) (let ((thechord (make-instance (quote chord) :lmidic (quote (6700)) :ldur (quote (250)) :lvel (quote (80)) :loffset (quote (0)) :lchan (quote (1))))) (load-port-info thechord (quote (0))) thechord) (let ((thechord (make-instance (quote chord) :lmidic (quote (7800)) :ldur (quote (1000)) :lvel (quote (80)) :loffset (quote (0)) :lchan (quote (1))))) (load-port-info thechord (quote (0))) thechord) (let ((thechord (make-instance (quote chord) :lmidic (quote (7200)) :ldur (quote (500)) :lvel (quote (80)) :loffset (quote (0)) :lchan (quote (1))))) (load-port-info thechord (quote (0))) thechord) (let ((thechord (make-instance (quote chord) :lmidic (quote (6100)) :ldur (quote (1000)) :lvel (quote (80)) :loffset (quote (0)) :lchan (quote (1))))) (load-port-info thechord (quote (0))) thechord) (let ((thechord (make-instance (quote chord) :lmidic (quote (6700)) :ldur (quote (250)) :lvel (quote (80)) :loffset (quote (0)) :lchan (quote (1))))) (load-port-info thechord (quote (0))) thechord) (let ((thechord (make-instance (quote chord) :lmidic (quote (7800)) :ldur (quote (500)) :lvel (quote (80)) :loffset (quote (0)) :lchan (quote (1))))) (load-port-info thechord (quote (0))) thechord)))) :tempo (quote ((1/4 60) nil)) :legato 100 :ties (quote (nil nil nil nil nil nil nil nil nil nil nil nil nil nil nil nil nil nil nil nil)))))) (load-port-info newobj (quote nil)) (init-mus-color newobj (quote nil)) (set-extra-pairs newobj (quote nil)) (set-patch-pairs newobj (quote nil)) (set-name newobj nil) (set-tonalite newobj nil) newobj) "x" nil (pairlis (quote (player scale inport outport deltapict approx fontsize staff cmnpref zoom notechancolor? grillestep mode winsize winpos palette-mode obj-mode show-stems)) (list (quote :midishare) nil 0 0 (om-make-point 0 2) 2 36 (quote g) (let ((newobj (make-instance (quote edition-values)))) (setf (paper-size newobj) (om-make-point 600 800)) (setf (top-margin newobj) 2) (setf (left-margin newobj) 1) (setf (right-margin newobj) 1) (setf (bottom-margin newobj) 1) (setf (orientation newobj) nil) (setf (scale newobj) nil) (setf (system-space newobj) (quote (1))) (setf (system-color newobj) (quote nil)) (setf (line-space newobj) 1) (setf (title newobj) nil) (setf (show-title? newobj) nil) (setf (show-page? newobj) nil) (setf (sheet-id newobj) nil) (setf (page-mode newobj) nil) newobj) 1 nil 1000 0 18350450 2621450 0 0 (quote t))) t nil nil nil) (om-load-boxcall (quote genfun) "OMQUANTIFY" (quote omquantify) (quote ((om-load-inputfun (quote input-funbox) "durations" "DURS" (list 100)) (om-load-inputfun (quote input-funbox) "Tempi" "TEMPI" 60) (om-load-inputfun (quote input-funbox) "measures" "MEASURES" (list 4 4)) (om-load-inputfun (quote input-funbox) "maximum division" "MAX/" 8))) (om-make-point 189 376) (om-make-point 80 53) nil nil nil 1) (om-load-boxcall (quote genfun) "OM-ROUND" (quote om-round) (quote ((om-load-inputfun (quote input-funbox) "number or tree" "SELF" 1))) (om-make-point 159 256) (om-make-point 56 53) nil nil nil 1) (om-load-boxcall (quote bastype) "aux1" (quote t) (quote nil) (om-make-point 212 148) (om-make-point 40 27) 12 "12" nil) (om-load-boxcall (quote bastype) "aux" (quote t) (quote nil) (om-make-point 175 149) (om-make-point 31 24) 1 "1" nil) (om-load-boxcall (quote genfun) "OM-SCALE" (quote om-scale) (quote ((om-load-inputfun (quote input-funbox) "number or tree" "SELF" 1) (om-load-inputfun (quote input-funbox) "a number" "MINOUT" 0) (om-load-inputfun (quote input-funbox) "a number" "MAXOUT" 0))) (om-make-point 153 196) (om-make-point 71 53) nil nil nil 1) (om-load-boxcall (quote lispfun) "LENGTH" (quote length) (quote ((om-load-inputfun (quote input-funbox) "ARG-0" "ARG-0" nil))) (om-make-point 306 124) (om-make-point 41 37) nil nil nil 1))) (quote ((21 0 0 0 nil 0) (23 0 2 0 nil 0) (1 0 2 1 nil 0) (20 0 14 0 nil 0) (17 0 18 0 nil 0) (16 0 18 1 nil 0) (15 0 18 2 nil 0) (27 0 20 0 nil 0) (19 1 20 1 nil 0) (22 0 21 1 nil 0) (14 0 21 2 nil 0) (2 0 22 0 nil 0) (26 0 23 0 nil 0) (18 0 26 0 nil 0) (25 0 26 1 nil 0) (24 0 26 2 nil 0) (18 0 27 0 nil 0))) 6.010003 nil "") (quote nil) (om-make-point 417 62) nil nil nil "tutorial_30") (om-load-editor-box1 "CHORD-SEQ1" (quote chord-seq) (quote ((om-load-inputfun (quote input-funbox) "objs" "SELF" nil) (om-load-inputfun (quote input-funbox) "no documentation" "LMIDIC" (list 6000)) (om-load-inputfun (quote input-funbox) "no documentation" "LONSET" (list 0 1000)) (om-load-inputfun (quote input-funbox) "no documentation" "LDUR" (list 1000)) (om-load-inputfun (quote input-funbox) "no documentation" "LVEL" (list 100)) (om-load-inputfun (quote input-funbox) "no documentation" "LOFFSET" (list 0)) (om-load-inputfun (quote input-funbox) "no documentation" "LCHAN" (list 1)) (om-load-inputfun (quote input-funbox) "no documentation" "LEGATO" 0))) (om-make-point 411 135) (om-make-point 356 105) (let ((newobj (when (find-class (quote chord-seq) nil) (make-instance (quote chord-seq) :lmidic (quote ((7200) (6100) (6700) (7800) (7200) (6100) (6700) (7800) (7200) (6100) (6700) (7800) (7200) (6100) (6700) (7800) (7200) (6100) (6700) (7800))) :lonset (quote (0 250 750 1250 2000 2750 3750 4750 6000 7500 9000 10750 12500 14500 16750 19000 21500 24000 26750 29500 30000)) :ldur (quote ((250) (500) (500) (750) (750) (1000) (1000) (1250) (1500) (1500) (1750) (1750) (2000) (2250) (2250) (2500) (2500) (2750) (2750) (3000))) :lvel (quote ((80) (80) (80) (80) (80) (80) (80) (80) (80) (80) (80) (80) (80) (80) (80) (80) (80) (80) (80) (80))) :loffset (quote ((0) (0) (0) (0) (0) (0) (0) (0) (0) (0) (0) (0) (0) (0) (0) (0) (0) (0) (0) (0))) :lchan (quote ((1) (1) (1) (1) (1) (1) (1) (1) (1) (1) (1) (1) (1) (1) (1) (1) (1) (1) (1) (1))) :legato 0)))) (load-port-info newobj (quote ((0) (0) (0) (0) (0) (0) (0) (0) (0) (0) (0) (0) (0) (0) (0) (0) (0) (0) (0) (0)))) (init-mus-color newobj (quote nil)) (set-extra-pairs newobj (quote nil)) (set-patch-pairs newobj (quote nil)) (set-name newobj nil) (set-tonalite newobj nil) newobj) "x" nil (pairlis (quote (player scale approx fontsize staff cmnpref deltapict outport inport zoom notechancolor? grillestep mode winsize winpos palette-mode obj-mode show-stems)) (list (quote :midishare) nil 2 24 (quote g) (let ((newobj (make-instance (quote edition-values)))) (setf (paper-size newobj) (om-make-point 600 800)) (setf (top-margin newobj) 2) (setf (left-margin newobj) 1) (setf (right-margin newobj) 1) (setf (bottom-margin newobj) 1) (setf (orientation newobj) nil) (setf (scale newobj) nil) (setf (system-space newobj) (quote (1))) (setf (system-color newobj) (quote nil)) (setf (line-space newobj) 1) (setf (title newobj) nil) (setf (show-title? newobj) nil) (setf (show-page? newobj) nil) (setf (sheet-id newobj) nil) (setf (page-mode newobj) nil) newobj) (om-make-point 0 0) 0 0 1 nil 1000 0 18350450 2621450 0 0 (quote t))) t nil nil nil) (om-load-boxcall (quote genfun) "FLAT" (quote flat) (quote ((om-load-inputfun (quote input-funbox) "one list" "LST" nil))) (om-make-point 553 460) nil nil nil nil 1) (om-load-boxcall (quote genfun) "DX->X" (quote dx->x) (quote ((om-load-inputfun (quote input-funbox) "a number" "START" 0) (om-load-inputfun (quote input-funbox) "a list of numbers" "LIST" (list 1 1)))) (om-make-point 541 518) nil nil nil nil 1))) (quote ((31 1 15 1 nil 0) (33 0 15 2 nil 0) (1 0 15 7 nil 0) (26 0 21 0 nil 0) (23 0 21 1 nil 0) (27 0 21 2 nil 0) (21 0 22 1 nil 0) (20 0 23 0 nil 0) (16 0 23 1 nil 0) (18 0 24 0 nil 0) (16 0 24 1 nil 0) (17 0 24 2 nil 0) (24 0 25 0 nil 0) (19 0 25 1 nil 0) (20 0 27 0 nil 0) (25 0 27 1 nil 0) (29 0 28 0 nil 0) (31 3 28 1 nil 0) (30 0 31 0 nil 0) (28 0 32 0 nil 0) (32 0 33 1 nil 0))) nil 6.010003))
