; OM File Header - Saved 2011/10/22 19:09:39
; (6.050101 :patc (om-make-point 463 72) (om-make-point 267 176) (om-make-point 561 593) "No documentation " 183 0 nil "2011/10/22 19:09:34")
; End File Header
(in-package :om)(load-lib-for (quote nil))(setf *om-current-persistent* (om-load-patch1 "tutorial_08" (quote ((om-load-boxcomment "comment11" (om-make-point 376 37) (quote "TUTORIAL 8 - Construction of a harmonic series") "" (om-make-point 125 29) nil (om-make-color 0 0 0) (om-make-font "Verdana" 12 :family "Verdana" :style (quote (:bold)) :mode (quote nil))) (om-load-editor-box1 "NOTE1" (quote note) (quote ((om-load-inputfun (quote input-funbox) "objs" "SELF" nil) (om-load-inputfun (quote input-funbox) "no documentation" "MIDIC" 6000) (om-load-inputfun (quote input-funbox) "no documentation" "VEL" 80) (om-load-inputfun (quote input-funbox) "no documentation" "DUR" 1000) (om-load-inputfun (quote input-funbox) "no documentation" "CHAN" 1))) (om-make-point 186 108) (om-make-point 59 75) (if (find-class (quote note) nil) (let ((newobj (make-instance (quote note) :midic 3600 :vel 80 :dur 1000 :chan 1 :from-file t))) (load-port-info newobj (quote 0)) (init-mus-color newobj (quote nil)) (set-extra-pairs newobj (quote nil)) (set-patch-pairs newobj (quote nil)) (set-name newobj nil) (set-tonalite newobj nil) newobj)) nil nil (pairlis (quote (player approx fontsize staff cmnpref deltapict outport inport zoom notechancolor? grillestep mode winsize winpos score-mode obj-mode show-stems scale palette-mode)) (list (quote :midishare) 2 24 (quote ff) (let ((newobj (make-instance (quote edition-values)))) (setf (paper-size newobj) (om-make-point 600 800)) (setf (top-margin newobj) 2) (setf (left-margin newobj) 1) (setf (right-margin newobj) 1) (setf (bottom-margin newobj) 1) (setf (orientation newobj) nil) (setf (scale newobj) nil) (setf (system-space newobj) (quote (1))) (setf (system-color newobj) (quote nil)) (setf (line-space newobj) 1) (setf (title newobj) nil) (setf (show-title? newobj) nil) (setf (show-page? newobj) nil) (setf (sheet-id newobj) nil) (setf (page-mode newobj) nil) newobj) (om-make-point 0 0) 0 0 1 nil 1000 0 (om-make-point 572 291) (om-make-point 300 20) 0 0 (quote t) nil 0)) t nil nil nil) (om-load-boxcall (quote bastype) "aux4" (quote t) (quote nil) (om-make-point 187 73) (om-make-point 42 30) 3600 "3600" nil) (om-load-boxcomment "comment" (om-make-point 23 26) (quote "G") "" (om-make-point 351 327) nil (om-make-color 0 0 0) (om-make-font "Geneva" 10 :family "Geneva" :style (quote (:plain)) :mode (quote nil))) (om-load-boxcomment "comment" (om-make-point 26 22) (quote "B") "" (om-make-point 192 207) nil (om-make-color 0 0 0) (om-make-font "Geneva" 10 :family "Geneva" :style (quote (:plain)) :mode (quote nil))) (om-load-boxcomment "comment" (om-make-point 26 24) (quote "A") "" (om-make-point 155 129) nil (om-make-color 0 0 0) (om-make-font "Geneva" 10 :family "Geneva" :style (quote (:plain)) :mode (quote nil))) (om-load-boxcall (quote bastype) "aux3" (quote t) (quote nil) (om-make-point 302 154) (om-make-point 18 27) 1 "1" nil) (om-load-boxcall (quote bastype) "aux2" (quote t) (quote nil) (om-make-point 277 154) (om-make-point 23 27) 16 "16" nil) (om-load-boxcall (quote bastype) "aux1" (quote t) (quote nil) (om-make-point 257 154) (om-make-point 18 26) 1 "1" nil) (om-load-editor-box1 "CHORD" (quote chord) (quote ((om-load-inputfun (quote input-funbox) "object or object list" "object" nil) (om-load-inputfun (quote input-funbox) "LMIDIC" "LMIDIC" (list 6000)) (om-load-inputfun (quote input-funbox) "LVEL" "LVEL" (list 100)) (om-load-inputfun (quote input-funbox) "LOFFSET" "LOFFSET" (list 0)) (om-load-inputfun (quote input-funbox) "LDUR" "LDUR" (list 1000)) (om-load-inputfun (quote input-funbox) "LCHAN" "LCHAN" (list 1)))) (om-make-point 241 277) (om-make-point 98 178) (let ((thechord (make-instance (quote chord) :lmidic (quote (3600 4800 5502 6000 6386 6702 6968 7200 7404 7586 7752 7902 8040 8168 8288 8400)) :ldur (quote (1000 1000 1000 1000 1000 1000 1000 1000 1000 1000 1000 1000 1000 1000 1000 1000)) :lvel (quote (100 100 100 100 100 100 100 100 100 100 100 100 100 100 100 100)) :loffset (quote (0 0 0 0 0 0 0 0 0 0 0 0 0 0 0 0)) :lchan (quote (1 1 1 1 1 1 1 1 1 1 1 1 1 1 1 1))))) (load-port-info thechord (quote (0 0 0 0 0 0 0 0 0 0 0 0 0 0 0 0))) (init-mus-color thechord (quote nil)) (set-extra-pairs thechord (quote nil)) (set-tonalite thechord nil) thechord) nil nil (pairlis (quote (player show-stems obj-mode palette-mode deltapict approx fontsize staff cmnpref outport inport zoom notechancolor? grillestep mode winsize winpos scale)) (list (quote :midishare) (quote t) 0 0 (om-make-point 0 0) 8 24 (quote ggff) (let ((newobj (make-instance (quote edition-values)))) (setf (paper-size newobj) (om-make-point 600 800)) (setf (top-margin newobj) 2) (setf (left-margin newobj) 1) (setf (right-margin newobj) 1) (setf (bottom-margin newobj) 1) (setf (orientation newobj) nil) (setf (scale newobj) nil) (setf (system-space newobj) (quote (1))) (setf (system-color newobj) (quote nil)) (setf (line-space newobj) 1) (setf (title newobj) nil) (setf (show-title? newobj) nil) (setf (show-page? newobj) nil) (setf (sheet-id newobj) nil) (setf (page-mode newobj) nil) newobj) 0 0 1 nil 1000 0 (om-make-point 500 280) (om-make-point 10 40) nil)) t nil nil nil) (om-load-boxcall (quote abstraction) "harmonic series" (om-load-patch-abs1 "harmonic series" (quote ((om-load-boxcomment "comment" (om-make-point 21 21) (quote "F") "" (om-make-point 296 340) nil (om-make-color 0 0 0) (om-make-font "Geneva" 10 :family "Geneva" :style (quote (:plain)) :mode (quote nil))) (om-load-boxcomment "comment" (om-make-point 21 21) (quote "E") "" (om-make-point 387 166) nil (om-make-color 0 0 0) (om-make-font "Geneva" 10 :family "Geneva" :style (quote (:plain)) :mode (quote nil))) (om-load-boxcomment "comment" (om-make-point 21 21) (quote "D") "" (om-make-point 157 173) nil (om-make-color 0 0 0) (om-make-font "Geneva" 10 :family "Geneva" :style (quote (:plain)) :mode (quote nil))) (om-load-boxcomment "comment" (om-make-point 21 22) (quote "C") "" (om-make-point 133 79) nil (om-make-color 0 0 0) (om-make-font "Geneva" 10 :family "Geneva" :style (quote (:plain)) :mode (quote nil))) (om-load-boxout "output" 0 (om-make-point 246 390) (quote ((om-load-inputfun (quote input-funbox) "out" "out" nil))) nil nil) (om-load-boxin "input3" 3 (om-make-point 387 77) "Step" "Step" 1 nil) (om-load-boxin "input2" 2 (om-make-point 334 77) "Last desired harmonic" "End" 16 nil) (om-load-boxin "input1" 1 (om-make-point 275 77) "Start" "Begin" 1 nil) (om-load-boxin "input" 0 (om-make-point 146 75) "this is the 
fondamental" "fondamental" 3600 nil) (om-load-boxcall (quote genfun) "ARITHM-SER" (quote arithm-ser) (quote ((om-load-inputfun (quote input-funbox) "begin" "BEGIN" 0) (om-load-inputfun (quote input-funbox) "end " "END" 10) (om-load-inputfun (quote input-funbox) "step" "STEP" 1))) (om-make-point 312 154) nil nil nil nil 1) (om-load-boxcall (quote genfun) "F->MC" (quote f->mc) (quote ((om-load-inputfun (quote input-funbox) "freq" "FREQ" 440))) (om-make-point 248 319) nil nil nil nil 1) (om-load-boxcall (quote genfun) "MC->F" (quote mc->f) (quote ((om-load-inputfun (quote input-funbox) "midic" "MIDICS?" 6000))) (om-make-point 182 168) nil nil nil nil 1) (om-load-boxcall (quote genfun) "OM*" (quote om*) (quote ((om-load-inputfun (quote input-funbox) "first input" "SELF" 0) (om-load-inputfun (quote input-funbox) "second input" "NUM" 0))) (om-make-point 256 252) (om-make-point 24 35) nil nil nil 1))) (quote ((10 0 4 0 nil 0) (7 0 9 0 nil 0) (6 0 9 1 nil 0) (5 0 9 2 nil 0) (12 0 10 0 nil 0) (8 0 11 0 nil 0) (11 0 12 0 nil 0) (9 0 12 1 nil 0))) 6.050101 nil "" (om-make-point 200 200) (om-make-point 630 517)) (quote ((om-load-inputfun (quote input-funbox) "this is the $fondamental" "fondamental" nil) (om-load-inputfun (quote input-funbox) "Start" "Begin" 1) (om-load-inputfun (quote input-funbox) "Last desired harmonic" "End" 16) (om-load-inputfun (quote input-funbox) "Step" "Step" 1))) (om-make-point 222 192) (om-make-point 107 67) nil nil "harmonic series"))) (quote ((2 0 1 1 nil 0) (10 0 9 1 nil 0) (1 1 10 0 nil 0) (8 0 10 1 nil 0) (7 0 10 2 nil 0) (6 0 10 3 nil 0))) nil 6.050101))
