; OM File Header - Saved 2011/10/22 18:44:21
; (6.010003 :patc (om-make-point 460 292) (om-make-point 50 50) (om-make-point 642 490) "No documentation " 183 0 nil "2011/10/22 18:44:21")
; End File Header
(in-package :om)(load-lib-for (quote nil))(setf *om-current-persistent* (om-load-patch1 "tutorial_42" (quote ((om-load-boxcomment "comment1112" (om-make-point 344 32) (quote "TUTORIAL 42 - Creating Generic Functions (I)") "" (om-make-point 154 18) nil (om-make-color 0 0 0) (om-make-font "Verdana" 12 :family "Verdana" :style (quote (:bold)) :mode (quote nil))) (om-load-boxcall (quote bastype) "aux1" (quote t) (quote nil) (om-make-point 285 225) (om-make-point 64 27) (list 5 6 7 8 9) "(5 6 7 8 9)" nil) (om-load-boxcall (quote bastype) "aux1" (quote t) (quote nil) (om-make-point 360 225) (om-make-point 64 28) (list 1 2 3 4 5) "(1 2 3 4 5)" nil) (om-load-boxcall (quote bastype) "aux1" (quote t) (quote nil) (om-make-point 176 227) (om-make-point 69 28) (list 5 6 7 8 9) "(5 6 7 8 9)" nil) (om-load-boxcall (quote bastype) "aux" (quote t) (quote nil) (om-make-point 254 226) (om-make-point 24 32) 3 "3" nil) (om-load-boxcall (quote genfun) "MYPLUS" (quote myplus) (quote ((om-load-inputfun (quote input-funbox) "no documentation" "INPUT" 0) (om-load-inputfun (quote input-funbox) "no documentation" "INPUT1" 0))) (om-make-point 343 269) nil nil nil nil 1) (om-load-boxcall (quote genfun) "MYPLUS" (quote myplus) (quote ((om-load-inputfun (quote input-funbox) "no documentation" "INPUT" 0) (om-load-inputfun (quote input-funbox) "no documentation" "INPUT1" 0))) (om-make-point 212 267) nil nil nil nil 1) (om-load-boxcall (quote genfun) "MYPLUS" (quote myplus) (quote ((om-load-inputfun (quote input-funbox) "no documentation" "INPUT" 0) (om-load-inputfun (quote input-funbox) "no documentation" "INPUT1" 0))) (om-make-point 208 125) nil nil nil nil 1) (om-load-boxcall (quote bastype) "aux" (quote t) (quote nil) (om-make-point 191 84) (om-make-point 26 26) 5 "5" nil) (om-load-boxcall (quote bastype) "aux1" (quote t) (quote nil) (om-make-point 233 86) (om-make-point 19 27) 3 "3" nil) (om-load-boxcall (quote bastype) "aux1" (quote t) (quote nil) (om-make-point 353 85) (om-make-point 65 28) (list 1 2 3 4 5) "(1 2 3 4 5)" nil) (om-load-boxcall (quote bastype) "aux" (quote t) (quote nil) (om-make-point 321 86) (om-make-point 23 26) 5 "5" nil) (om-load-boxcall (quote genfun) "MYPLUS" (quote myplus) (quote ((om-load-inputfun (quote input-funbox) "no documentation" "INPUT" 0) (om-load-inputfun (quote input-funbox) "no documentation" "INPUT1" 0))) (om-make-point 338 127) nil nil nil nil 1))) (quote ((1 0 5 0 nil 0) (2 0 5 1 nil 0) (3 0 6 0 nil 0) (4 0 6 1 nil 0) (8 0 7 0 nil 0) (9 0 7 1 nil 0) (11 0 12 0 nil 0) (10 0 12 1 nil 0))) nil 6.010003))
