; OM File Header - Saved 2011/10/22 19:09:41
; (6.050101 :patc (om-make-point 161 181) (om-make-point 413 131) (om-make-point 782 706) "No documentation " 183 0 nil "2011/10/22 19:09:41")
; End File Header
(in-package :om)(load-lib-for (quote nil))(setf *om-current-persistent* (om-load-patch1 "tutorial_21" (quote ((om-load-boxcomment "comment1112" (om-make-point 255 31) (quote "TUTORIAL 21 - Using BPFs (III)") "" (om-make-point 266 19) nil (om-make-color 0 0 0) (om-make-font "Verdana" 12 :family "Verdana" :style (quote (:bold)) :mode (quote nil))) (om-load-editor-box1 "BPF1" (quote bpf) (quote ((om-load-inputfun (quote input-funbox) "objs" "SELF" nil) (om-load-inputfun (quote input-funbox) "X-POINTS" "X-POINTS" (list 0 10)) (om-load-inputfun (quote input-funbox) "Y-POINTS" "Y-POINTS" (list 0 100)) (om-load-inputfun (quote input-funbox) "DECIMALS" "DECIMALS" 0))) (om-make-point 181 61) (om-make-point 84 105) (let ((newobj (when (find-class (quote bpf) nil) (let ((newbpf (simple-bpf-from-list (quote (0 1 2 4 5 6 7 8 10)) (quote (0 70 74 27 46 84 46 26 26)) (quote bpf) 0))) (setf (bpfcolor newbpf) (om-make-color 0 0 0)) (set-name newbpf nil) newbpf)))) newobj) "x" nil (pairlis (quote (picture show-stems deltapict outport inport zoom cmnpref notechancolor? grillestep mode winsize winpos palette-mode obj-mode)) (list nil (quote t) (om-make-point 0 0) 0 0 1 (list 1 15 2 2 1) nil 1000 0 18350450 2621450 0 0)) t nil nil nil) (om-load-boxcomment "comment" (om-make-point 18 24) (quote "L") "" (om-make-point 217 471) nil (om-make-color 0 0 0) (om-make-font "Geneva" 10 :family "Geneva" :style (quote (:plain)) :mode (quote nil))) (om-load-boxcomment "comment" (om-make-point 18 26) (quote "I") "" (om-make-point 392 447) nil (om-make-color 0 0 0) (om-make-font "Geneva" 10 :family "Geneva" :style (quote (:plain)) :mode (quote nil))) (om-load-boxcomment "comment" (om-make-point 21 26) (quote "H") "" (om-make-point 389 376) nil (om-make-color 0 0 0) (om-make-font "Geneva" 10 :family "Geneva" :style (quote (:plain)) :mode (quote nil))) (om-load-boxcomment "comment" (om-make-point 20 28) (quote "G") "" (om-make-point 477 266) nil (om-make-color 0 0 0) (om-make-font "Geneva" 10 :family "Geneva" :style (quote (:plain)) :mode (quote nil))) (om-load-boxcomment "comment" (om-make-point 22 32) (quote "F") "" (om-make-point 483 163) nil (om-make-color 0 0 0) (om-make-font "Geneva" 10 :family "Geneva" :style (quote (:plain)) :mode (quote nil))) (om-load-boxcomment "comment" (om-make-point 27 38) (quote "E") "" (om-make-point 360 276) nil (om-make-color 0 0 0) (om-make-font "Geneva" 10 :family "Geneva" :style (quote (:plain)) :mode (quote nil))) (om-load-boxcomment "comment" (om-make-point 19 29) (quote "D") "" (om-make-point 359 127) nil (om-make-color 0 0 0) (om-make-font "Geneva" 10 :family "Geneva" :style (quote (:plain)) :mode (quote nil))) (om-load-boxcomment "comment" (om-make-point 21 27) (quote "C") "" (om-make-point 190 273) nil (om-make-color 0 0 0) (om-make-font "Geneva" 10 :family "Geneva" :style (quote (:plain)) :mode (quote nil))) (om-load-boxcomment "comment" (om-make-point 16 28) (quote "B") "" (om-make-point 286 195) nil (om-make-color 0 0 0) (om-make-font "Geneva" 10 :family "Geneva" :style (quote (:plain)) :mode (quote nil))) (om-load-boxcomment "comment" (om-make-point 17 20) (quote "A") "" (om-make-point 270 90) nil (om-make-color 0 0 0) (om-make-font "Geneva" 10 :family "Geneva" :style (quote (:plain)) :mode (quote nil))) (om-load-boxcall (quote genfun) "OM-ROUND" (quote om-round) (quote ((om-load-inputfun (quote input-funbox) "number or tree" "SELF" 1))) (om-make-point 320 429) nil nil nil nil 1) (om-load-editor-box1 "CHORD-SEQ" (quote chord-seq) (quote ((om-load-inputfun (quote input-funbox) "object or object list" "object" nil) (om-load-inputfun (quote input-funbox) "LMIDIC" "LMIDIC" (list 6000)) (om-load-inputfun (quote input-funbox) "LONSET" "LONSET" (list 0 1000)) (om-load-inputfun (quote input-funbox) "LDUR" "LDUR" (list 1000)) (om-load-inputfun (quote input-funbox) "LVEL" "LVEL" (list 100)) (om-load-inputfun (quote input-funbox) "LOFFSET" "LOFFSET" (list 0)) (om-load-inputfun (quote input-funbox) "LCHAN" "LCHAN" (list 1)) (om-load-inputfun (quote input-funbox) "LEGATO" "LEGATO" 100))) (om-make-point 176 502) (om-make-point 416 124) (let ((newobj (when (find-class (quote chord-seq) nil) (make-instance (quote chord-seq) :lmidic (quote ((3800) (6774) (7544) (6979) (6005) (5338) (6159) (7800) (6826) (5646) (5133) (5133) (5133))) :lonset (quote (0 1000 2000 3000 4000 5000 6000 7000 8000 9000 10000 11000 12000 13000)) :ldur (quote ((1000) (1000) (1000) (1000) (1000) (1000) (1000) (1000) (1000) (1000) (1000) (1000) (1000))) :lvel (quote ((100) (100) (100) (100) (100) (100) (100) (100) (100) (100) (100) (100) (100))) :loffset (quote ((0) (0) (0) (0) (0) (0) (0) (0) (0) (0) (0) (0) (0))) :lchan (quote ((1) (1) (1) (1) (1) (1) (1) (1) (1) (1) (1) (1) (1))) :legato 100)))) (load-port-info newobj (quote ((0) (0) (0) (0) (0) (0) (0) (0) (0) (0) (0) (0) (0)))) (init-mus-color newobj (quote nil)) (set-extra-pairs newobj (quote nil)) (set-patch-pairs newobj (quote nil)) (set-name newobj nil) (set-tonalite newobj nil) newobj) nil nil (pairlis (quote (player show-stems inport outport deltapict cmnpref staff fontsize approx zoom notechancolor? grillestep mode winsize winpos palette-mode obj-mode scale)) (list (quote :midishare) (quote t) 0 0 (om-make-point 0 0) (let ((newobj (make-instance (quote edition-values)))) (setf (paper-size newobj) (om-make-point 600 800)) (setf (top-margin newobj) 2) (setf (left-margin newobj) 1) (setf (right-margin newobj) 1) (setf (bottom-margin newobj) 1) (setf (orientation newobj) nil) (setf (scale newobj) nil) (setf (system-space newobj) (quote (1))) (setf (system-color newobj) (quote nil)) (setf (line-space newobj) 1) (setf (title newobj) nil) (setf (show-title? newobj) nil) (setf (show-page? newobj) nil) (setf (sheet-id newobj) nil) (setf (page-mode newobj) nil) newobj) (quote gf) 24 2 1 nil 1000 0 18350450 2621450 0 0 nil)) t nil nil nil) (om-load-boxcall (quote genfun) "BPF-SAMPLE" (quote bpf-sample) (quote ((om-load-inputfun (quote input-funbox) "a BPF" "SELF" (let ((newobj (when (find-class (quote bpf) nil) (let ((newbpf (simple-bpf-from-list (quote (0 100)) (quote (0 100)) (quote bpf) 0))) (setf (bpfcolor newbpf) (om-make-color 0 0 0)) (set-name newbpf nil) newbpf)))) newobj)) (om-load-inputfun (quote input-funbox) "a number" "XMIN" 0) (om-load-inputfun (quote input-funbox) "a number" "XMAX" 100) (om-load-inputfun (quote input-funbox) "an integer" "NBSAMPLES" 10))) (om-make-point 214 260) nil nil nil nil 1) (om-load-boxcall (quote bastype) "aux1" (quote t) (quote nil) (om-make-point 234 209) (om-make-point 21 30) 0 "0" nil) (om-load-boxcall (quote bastype) "aux2" (quote t) (quote nil) (om-make-point 258 206) (om-make-point 28 30) 10 "10" nil) (om-load-boxcall (quote lispfun) "FIRST1" (quote first) (quote ((om-load-inputfun (quote input-funbox) "ARG-0" "ARG-0" nil))) (om-make-point 386 260) nil nil nil nil 1) (om-load-editor-box1 "CHORD1" (quote chord) (quote ((om-load-inputfun (quote input-funbox) "object or object list" "object" nil) (om-load-inputfun (quote input-funbox) "LMIDIC" "LMIDIC" (list 6000)) (om-load-inputfun (quote input-funbox) "LVEL" "LVEL" (list 100)) (om-load-inputfun (quote input-funbox) "LOFFSET" "LOFFSET" (list 0)) (om-load-inputfun (quote input-funbox) "LDUR" "LDUR" (list 1000)) (om-load-inputfun (quote input-funbox) "LCHAN" "LCHAN" (list 1)))) (om-make-point 362 153) (om-make-point 83 95) (let ((thechord (make-instance (quote chord) :lmidic (quote (3800)) :ldur (quote (1000)) :lvel (quote (100)) :loffset (quote (0)) :lchan (quote (1))))) (load-port-info thechord (quote (0))) thechord) "x" nil (pairlis (quote (player show-stems inport outport deltapict cmnpref staff fontsize approx zoom notechancolor? grillestep mode winsize winpos palette-mode obj-mode scale)) (list (quote :midishare) (quote t) 0 0 (om-make-point 0 0) (let ((newobj (make-instance (quote edition-values)))) (setf (paper-size newobj) (om-make-point 600 800)) (setf (top-margin newobj) 2) (setf (left-margin newobj) 1) (setf (right-margin newobj) 1) (setf (bottom-margin newobj) 1) (setf (orientation newobj) nil) (setf (scale newobj) nil) (setf (system-space newobj) (quote (1))) (setf (system-color newobj) (quote nil)) (setf (line-space newobj) 1) (setf (title newobj) nil) (setf (show-title? newobj) nil) (setf (show-page? newobj) nil) (setf (sheet-id newobj) nil) (setf (page-mode newobj) nil) newobj) (quote f) 24 2 1 nil 1000 0 18350450 2621450 0 0 nil)) t nil nil nil) (om-load-boxcall (quote lispfun) "FIRST" (quote first) (quote ((om-load-inputfun (quote input-funbox) "ARG-0" "ARG-0" nil))) (om-make-point 498 262) nil nil nil nil 1) (om-load-editor-box1 "CHORD" (quote chord) (quote ((om-load-inputfun (quote input-funbox) "object or object list" "object" nil) (om-load-inputfun (quote input-funbox) "LMIDIC" "LMIDIC" (list 6000)) (om-load-inputfun (quote input-funbox) "LVEL" "LVEL" (list 100)) (om-load-inputfun (quote input-funbox) "LOFFSET" "LOFFSET" (list 0)) (om-load-inputfun (quote input-funbox) "LDUR" "LDUR" (list 1000)) (om-load-inputfun (quote input-funbox) "LCHAN" "LCHAN" (list 1)))) (om-make-point 506 160) (om-make-point 94 90) (let ((thechord (make-instance (quote chord) :lmidic (quote (7800)) :ldur (quote (1000)) :lvel (quote (100)) :loffset (quote (0)) :lchan (quote (1))))) (load-port-info thechord (quote (0))) thechord) "x" nil (pairlis (quote (player show-stems inport outport deltapict cmnpref staff fontsize approx zoom notechancolor? grillestep mode winsize winpos palette-mode obj-mode scale)) (list (quote :midishare) (quote t) 0 0 (om-make-point 0 0) (let ((newobj (make-instance (quote edition-values)))) (setf (paper-size newobj) (om-make-point 600 800)) (setf (top-margin newobj) 2) (setf (left-margin newobj) 1) (setf (right-margin newobj) 1) (setf (bottom-margin newobj) 1) (setf (orientation newobj) nil) (setf (scale newobj) nil) (setf (system-space newobj) (quote (1))) (setf (system-color newobj) (quote nil)) (setf (line-space newobj) 1) (setf (title newobj) nil) (setf (show-title? newobj) nil) (setf (show-page? newobj) nil) (setf (sheet-id newobj) nil) (setf (page-mode newobj) nil) newobj) (quote g) 24 2 1 nil 1000 0 18350450 2621450 0 0 nil)) t nil nil nil) (om-load-boxcall (quote genfun) "OM-SCALE" (quote om-scale) (quote ((om-load-inputfun (quote input-funbox) "number or tree" "SELF" 1) (om-load-inputfun (quote input-funbox) "a number" "MINOUT" 0) (om-load-inputfun (quote input-funbox) "a number" "MAXOUT" 0))) (om-make-point 327 361) nil nil nil "om-scale" 1) (om-load-boxcall (quote bastype) "aux" (quote t) (quote nil) (om-make-point 288 228) (om-make-point 28 30) 13 "13" nil))) (quote ((21 0 12 0 nil 0) (12 0 13 1 nil 0) (1 0 14 0 nil 0) (15 0 14 1 nil 0) (16 0 14 2 nil 0) (22 0 14 3 nil 0) (18 1 17 0 nil 0) (20 1 19 0 nil 0) (14 0 21 0 nil 0) (17 0 21 1 nil 0) (19 0 21 2 ((om-make-point 511 303) (om-make-point 500 316) (om-make-point 458 361) (om-make-point 372 361)) 0))) nil 6.010003))
