; OM File Header - Saved 2025/03/09 13:31:10
; (6.050101 :patc (om-make-point 463 128) (om-make-point 293 1) (om-make-point 777 706) "No documentation " 183 0 nil "2023/04/09 18:13:49")
; End File Header
(in-package :om)(load-lib-for (quote nil))(setf *om-current-persistent* (om-load-patch1 "tutorial-17" (quote ((om-load-boxcomment "comment1112" (om-make-point 305 62) (quote "TUTORIAL 17 - Generation of a melodic sequence from harmonic reservoirs") "" (om-make-point 225 6) nil (om-make-color 0 0 0) (om-make-font "Verdana" 12 :family "Verdana" :style (quote (:bold)) :mode (quote nil))) (om-load-boxcomment "comment2111" (om-make-point 18 23) (quote "I") "" (om-make-point 453 180) nil (om-make-color 0 0 0) (om-make-font "Geneva" 10 :family "Geneva" :style (quote (:plain)) :mode (quote nil))) (om-load-boxcomment "comment211" (om-make-point 18 23) (quote "V") "" (om-make-point 380 180) nil (om-make-color 0 0 0) (om-make-font "Geneva" 10 :family "Geneva" :style (quote (:plain)) :mode (quote nil))) (om-load-boxcomment "comment21" (om-make-point 18 23) (quote "IV") "" (om-make-point 297 179) nil (om-make-color 0 0 0) (om-make-font "Geneva" 10 :family "Geneva" :style (quote (:plain)) :mode (quote nil))) (om-load-boxcomment "comment2" (om-make-point 18 23) (quote "I") "" (om-make-point 224 180) nil (om-make-color 0 0 0) (om-make-font "Geneva" 10 :family "Geneva" :style (quote (:plain)) :mode (quote nil))) (om-load-boxcall (quote genfun) "X-APPEND" (quote x-append) (quote ((om-load-inputfun (quote input-funbox) "first list" "L1?" nil) (om-load-inputfun (quote input-funbox) "second list" "L2?" nil) (om-load-inputfun (quote input-funbox) "add list" "LST?" nil) (om-load-inputfun (quote input-funbox) "add list" "LST?" nil))) (om-make-point 306 352) nil nil nil nil 1) (om-load-boxcall (quote bastype) "aux3" (quote t) (quote nil) (om-make-point 525 513) (om-make-point 36 26) 100 "100" nil) (om-load-boxcomment "comment1111" (om-make-point 18 23) (quote "E") "" (om-make-point 287 424) nil (om-make-color 0 0 0) (om-make-font "Geneva" 10 :family "Geneva" :style (quote (:plain)) :mode (quote nil))) (om-load-boxcomment "comment111" (om-make-point 18 23) (quote "D") "" (om-make-point 282 366) nil (om-make-color 0 0 0) (om-make-font "Geneva" 10 :family "Geneva" :style (quote (:plain)) :mode (quote nil))) (om-load-boxcomment "comment11" (om-make-point 18 23) (quote "C") "" (om-make-point 170 293) nil (om-make-color 0 0 0) (om-make-font "Geneva" 10 :family "Geneva" :style (quote (:plain)) :mode (quote nil))) (om-load-boxcomment "comment1" (om-make-point 18 23) (quote "B") "" (om-make-point 163 195) nil (om-make-color 0 0 0) (om-make-font "Geneva" 10 :family "Geneva" :style (quote (:plain)) :mode (quote nil))) (om-load-boxcomment "comment" (om-make-point 18 23) (quote "A") "" (om-make-point 152 131) nil (om-make-color 0 0 0) (om-make-font "Geneva" 10 :family "Geneva" :style (quote (:plain)) :mode (quote nil))) (om-load-boxcall (quote bastype) "aux2" (quote t) (quote nil) (om-make-point 364 392) (om-make-point 11 20) 2 "2" nil) (om-load-editor-box1 "CHORD-SEQ1" (quote chord-seq) (quote ((om-load-inputfun (quote input-funbox) "object or object list" "object" nil) (om-load-inputfun (quote input-funbox) "LMIDIC" "LMIDIC" (list 6000)) (om-load-inputfun (quote input-funbox) "LONSET" "LONSET" (list 0 1000)) (om-load-inputfun (quote input-funbox) "LDUR" "LDUR" (list 1000)) (om-load-inputfun (quote input-funbox) "LVEL" "LVEL" (list 100)) (om-load-inputfun (quote input-funbox) "LOFFSET" "LOFFSET" (list 0)) (om-load-inputfun (quote input-funbox) "LCHAN" "LCHAN" (list 1)) (om-load-inputfun (quote input-funbox) "LEGATO" "LEGATO" 100))) (om-make-point 269 541) (om-make-point 309 100) (let ((newobj (when (find-class (quote chord-seq) nil) (make-instance (quote chord-seq) :lmidic (quote ((6700) (6000) (6700) (6400) (6500) (6500) (6900) (7200) (7400) (5900) (6700) (5900) (7200) (7200) (7200) (7200) (6000) (7200) (6000) (7200) (6000) (6500) (6900) (6000) (6500) (6700) (6700) (5900) (6000) (6000) (6000) (7200))) :lonset (quote (0 200 400 600 800 1000 1200 1400 1600 1800 2000 2200 2400 2600 2800 3000 3200 3400 3600 3800 4000 4200 4400 4600 4800 5000 5200 5400 5600 5800 6000 6200 6400)) :ldur (quote ((200) (200) (200) (200) (200) (200) (200) (200) (200) (200) (200) (200) (200) (200) (200) (200) (200) (200) (200) (200) (200) (200) (200) (200) (200) (200) (200) (200) (200) (200) (200) (200))) :lvel (quote ((100) (100) (100) (100) (100) (100) (100) (100) (100) (100) (100) (100) (100) (100) (100) (100) (100) (100) (100) (100) (100) (100) (100) (100) (100) (100) (100) (100) (100) (100) (100) (100))) :loffset (quote ((0) (0) (0) (0) (0) (0) (0) (0) (0) (0) (0) (0) (0) (0) (0) (0) (0) (0) (0) (0) (0) (0) (0) (0) (0) (0) (0) (0) (0) (0) (0) (0))) :lchan (quote ((1) (1) (1) (1) (1) (1) (1) (1) (1) (1) (1) (1) (1) (1) (1) (1) (1) (1) (1) (1) (1) (1) (1) (1) (1) (1) (1) (1) (1) (1) (1) (1))) :legato 0)))) (load-port-info newobj (quote ((0) (0) (0) (0) (0) (0) (0) (0) (0) (0) (0) (0) (0) (0) (0) (0) (0) (0) (0) (0) (0) (0) (0) (0) (0) (0) (0) (0) (0) (0) (0) (0)))) (init-mus-color newobj (quote nil)) (set-extra-pairs newobj (quote nil)) (set-patch-pairs newobj (quote nil)) (set-name newobj nil) (set-tonalite newobj nil) newobj) nil nil (pairlis (quote (scale winpos winsize mode grillestep notechancolor? zoom inport outport deltapict cmnpref staff fontsize approx palette-mode obj-mode show-stems player)) (list nil 2621450 18350450 0 1000 nil 1 0 0 (om-make-point 0 0) (let ((newobj (make-instance (quote edition-values)))) (setf (paper-size newobj) (om-make-point 600 800)) (setf (top-margin newobj) 2) (setf (left-margin newobj) 1) (setf (right-margin newobj) 1) (setf (bottom-margin newobj) 1) (setf (orientation newobj) nil) (setf (scale newobj) nil) (setf (system-space newobj) (quote (1))) (setf (system-color newobj) (quote nil)) (setf (line-space newobj) 1) (setf (title newobj) nil) (setf (show-title? newobj) nil) (setf (show-page? newobj) nil) (setf (sheet-id newobj) nil) (setf (page-mode newobj) nil) newobj) (quote gf) 24 2 0 0 (quote t) (quote :midishare))) t nil nil nil) (om-load-editor-box1 "CHORD1" (quote chord) (quote ((om-load-inputfun (quote input-funbox) "object or object list" "object" nil) (om-load-inputfun (quote input-funbox) "LMIDIC" "LMIDIC" (list 6000)) (om-load-inputfun (quote input-funbox) "LVEL" "LVEL" (list 100)) (om-load-inputfun (quote input-funbox) "LOFFSET" "LOFFSET" (list 0)) (om-load-inputfun (quote input-funbox) "LDUR" "LDUR" (list 1000)) (om-load-inputfun (quote input-funbox) "LCHAN" "LCHAN" (list 1)))) (om-make-point 426 78) (om-make-point 84 91) (let ((thechord (make-instance (quote chord) :lmidic (quote (6000 7200)) :ldur (quote (1000 1000)) :lvel (quote (100 100)) :loffset (quote (0 0)) :lchan (quote (1 1))))) (load-port-info thechord (quote (0 0))) (init-mus-color thechord (quote nil)) (set-extra-pairs thechord (quote nil)) (set-tonalite thechord nil) thechord) "x" nil (pairlis (quote (scale winpos winsize mode grillestep notechancolor? zoom inport outport deltapict cmnpref staff fontsize approx palette-mode obj-mode show-stems player)) (list nil (om-make-point 10 40) (om-make-point 500 280) 0 1000 nil 1 0 0 (om-make-point 0 -14) (let ((newobj (make-instance (quote edition-values)))) (setf (paper-size newobj) (om-make-point 600 800)) (setf (top-margin newobj) 2) (setf (left-margin newobj) 1) (setf (right-margin newobj) 1) (setf (bottom-margin newobj) 1) (setf (orientation newobj) nil) (setf (scale newobj) nil) (setf (system-space newobj) (quote (1))) (setf (system-color newobj) (quote nil)) (setf (line-space newobj) 1) (setf (title newobj) nil) (setf (show-title? newobj) nil) (setf (show-page? newobj) nil) (setf (sheet-id newobj) nil) (setf (page-mode newobj) nil) newobj) (quote gf) 24 2 0 0 (quote t) (quote :midishare))) t nil nil nil) (om-load-editor-box1 "CHORD1" (quote chord) (quote ((om-load-inputfun (quote input-funbox) "object or object list" "object" nil) (om-load-inputfun (quote input-funbox) "LMIDIC" "LMIDIC" (list 6000)) (om-load-inputfun (quote input-funbox) "LVEL" "LVEL" (list 100)) (om-load-inputfun (quote input-funbox) "LOFFSET" "LOFFSET" (list 0)) (om-load-inputfun (quote input-funbox) "LDUR" "LDUR" (list 1000)) (om-load-inputfun (quote input-funbox) "LCHAN" "LCHAN" (list 1)))) (om-make-point 339 77) (om-make-point 83 94) (let ((thechord (make-instance (quote chord) :lmidic (quote (5900 7400 6700 6500)) :ldur (quote (1000 1000 1000 1000)) :lvel (quote (100 100 100 100)) :loffset (quote (0 0 0 0)) :lchan (quote (1 1 1 1))))) (load-port-info thechord (quote (0 0 0 0))) (init-mus-color thechord (quote nil)) (set-extra-pairs thechord (quote nil)) (set-tonalite thechord nil) thechord) "x" nil (pairlis (quote (scale winpos winsize mode grillestep notechancolor? zoom inport outport deltapict cmnpref staff fontsize approx palette-mode obj-mode show-stems player)) (list nil 2621450 18350450 0 1000 nil 1 0 0 (om-make-point 0 -14) (let ((newobj (make-instance (quote edition-values)))) (setf (paper-size newobj) (om-make-point 600 800)) (setf (top-margin newobj) 2) (setf (left-margin newobj) 1) (setf (right-margin newobj) 1) (setf (bottom-margin newobj) 1) (setf (orientation newobj) nil) (setf (scale newobj) nil) (setf (system-space newobj) (quote (1))) (setf (system-color newobj) (quote nil)) (setf (line-space newobj) 1) (setf (title newobj) nil) (setf (show-title? newobj) nil) (setf (show-page? newobj) nil) (setf (sheet-id newobj) nil) (setf (page-mode newobj) nil) newobj) (quote gf) 24 2 0 0 (quote t) (quote :midishare))) t nil nil nil) (om-load-editor-box1 "CHORD1" (quote chord) (quote ((om-load-inputfun (quote input-funbox) "object or object list" "object" nil) (om-load-inputfun (quote input-funbox) "LMIDIC" "LMIDIC" (list 6000)) (om-load-inputfun (quote input-funbox) "LVEL" "LVEL" (list 100)) (om-load-inputfun (quote input-funbox) "LOFFSET" "LOFFSET" (list 0)) (om-load-inputfun (quote input-funbox) "LDUR" "LDUR" (list 1000)) (om-load-inputfun (quote input-funbox) "LCHAN" "LCHAN" (list 1)))) (om-make-point 254 82) (om-make-point 82 89) (let ((thechord (make-instance (quote chord) :lmidic (quote (6000 6500 6900 7200)) :ldur (quote (1000 1000 1000 1000)) :lvel (quote (100 100 100 100)) :loffset (quote (0 0 0 0)) :lchan (quote (1 1 1 1))))) (load-port-info thechord (quote (0 0 0 0))) (init-mus-color thechord (quote nil)) (set-extra-pairs thechord (quote nil)) (set-tonalite thechord nil) thechord) "x" nil (pairlis (quote (scale winpos winsize mode grillestep notechancolor? zoom inport outport deltapict cmnpref staff fontsize approx palette-mode obj-mode show-stems player)) (list nil 2621450 18350450 0 1000 nil 1 0 0 (om-make-point 0 -14) (let ((newobj (make-instance (quote edition-values)))) (setf (paper-size newobj) (om-make-point 600 800)) (setf (top-margin newobj) 2) (setf (left-margin newobj) 1) (setf (right-margin newobj) 1) (setf (bottom-margin newobj) 1) (setf (orientation newobj) nil) (setf (scale newobj) nil) (setf (system-space newobj) (quote (1))) (setf (system-color newobj) (quote nil)) (setf (line-space newobj) 1) (setf (title newobj) nil) (setf (show-title? newobj) nil) (setf (show-page? newobj) nil) (setf (sheet-id newobj) nil) (setf (page-mode newobj) nil) newobj) (quote gf) 24 2 0 0 (quote t) (quote :midishare))) t nil nil nil) (om-load-editor-box1 "CHORD" (quote chord) (quote ((om-load-inputfun (quote input-funbox) "object or object list" "object" nil) (om-load-inputfun (quote input-funbox) "LMIDIC" "LMIDIC" (list 6000)) (om-load-inputfun (quote input-funbox) "LVEL" "LVEL" (list 100)) (om-load-inputfun (quote input-funbox) "LOFFSET" "LOFFSET" (list 0)) (om-load-inputfun (quote input-funbox) "LDUR" "LDUR" (list 1000)) (om-load-inputfun (quote input-funbox) "LCHAN" "LCHAN" (list 1)))) (om-make-point 174 82) (om-make-point 71 92) (let ((thechord (make-instance (quote chord) :lmidic (quote (7200 6700 6400 6000)) :ldur (quote (1000 1000 1000 1000)) :lvel (quote (100 100 100 100)) :loffset (quote (0 0 0 0)) :lchan (quote (1 1 1 1))))) (load-port-info thechord (quote (0 0 0 0))) (init-mus-color thechord (quote nil)) (set-extra-pairs thechord (quote nil)) (set-tonalite thechord nil) thechord) "x" nil (pairlis (quote (scale winpos winsize mode grillestep notechancolor? zoom inport outport deltapict cmnpref staff fontsize approx palette-mode obj-mode show-stems player)) (list nil (om-make-point 10 40) (om-make-point 500 280) 0 1000 nil 1 0 0 (om-make-point 0 -15) (let ((newobj (make-instance (quote edition-values)))) (setf (paper-size newobj) (om-make-point 600 800)) (setf (top-margin newobj) 2) (setf (left-margin newobj) 1) (setf (right-margin newobj) 1) (setf (bottom-margin newobj) 1) (setf (orientation newobj) nil) (setf (scale newobj) nil) (setf (system-space newobj) (quote (1))) (setf (system-color newobj) (quote nil)) (setf (line-space newobj) 1) (setf (title newobj) nil) (setf (show-title? newobj) nil) (setf (show-page? newobj) nil) (setf (sheet-id newobj) nil) (setf (page-mode newobj) nil) newobj) (quote gf) 24 2 0 0 (quote t) (quote :midishare))) t nil nil nil) (om-load-boxcall (quote genfun) "FLAT" (quote flat) (quote ((om-load-inputfun (quote input-funbox) "one list" "LST" nil))) (om-make-point 322 475) nil nil nil nil 1) (om-load-boxcall (quote genfun) "REPEAT-N1" (quote repeat-n) (quote ((om-load-inputfun (quote input-funbox) "patch" "SELF" nil) (om-load-inputfun (quote input-funbox) "times" "NUM" 2))) (om-make-point 312 411) nil nil nil nil 1) (om-load-boxcall (quote bastype) "aux1" (quote t) (quote nil) (om-make-point 375 500) (om-make-point 56 30) (list 0 200) "(0 200)" nil) (om-load-boxcall (quote genfun) "NTH-RANDOM" (quote nth-random) (quote ((om-load-inputfun (quote input-funbox) "the list" "LIST" nil))) (om-make-point 181 199) nil nil nil nil 1) (om-load-boxcall (quote genfun) "REPEAT-N" (quote repeat-n) (quote ((om-load-inputfun (quote input-funbox) "patch" "SELF" nil) (om-load-inputfun (quote input-funbox) "times" "NUM" 5))) (om-make-point 198 282) nil nil nil nil 1) (om-load-boxcall (quote bastype) "aux" (quote t) (quote nil) (om-make-point 160 241) (om-make-point 21 28) 4 "4$" nil) (om-load-boxcall (quote genfun) "NTH-RANDOM" (quote nth-random) (quote ((om-load-inputfun (quote input-funbox) "the list" "LIST" nil))) (om-make-point 410 196) nil nil nil nil 1) (om-load-boxcall (quote genfun) "REPEAT-N" (quote repeat-n) (quote ((om-load-inputfun (quote input-funbox) "patch" "SELF" nil) (om-load-inputfun (quote input-funbox) "times" "NUM" 5))) (om-make-point 428 283) nil nil nil nil 1) (om-load-boxcall (quote genfun) "REPEAT-N" (quote repeat-n) (quote ((om-load-inputfun (quote input-funbox) "patch" "SELF" nil) (om-load-inputfun (quote input-funbox) "times" "NUM" 5))) (om-make-point 352 282) nil nil nil nil 1) (om-load-boxcall (quote genfun) "NTH-RANDOM" (quote nth-random) (quote ((om-load-inputfun (quote input-funbox) "the list" "LIST" nil))) (om-make-point 334 197) nil nil nil nil 1) (om-load-boxcall (quote genfun) "NTH-RANDOM" (quote nth-random) (quote ((om-load-inputfun (quote input-funbox) "the list" "LIST" nil))) (om-make-point 254 199) nil nil nil nil 1) (om-load-boxcall (quote genfun) "REPEAT-N" (quote repeat-n) (quote ((om-load-inputfun (quote input-funbox) "patch" "SELF" nil) (om-load-inputfun (quote input-funbox) "times" "NUM" 5))) (om-make-point 272 282) nil nil nil nil 1))) (quote ((22 0 5 0 nil 0) (29 0 5 1 nil 0) (26 0 5 2 nil 0) (25 0 5 3 nil 0) (18 0 13 1 nil 0) (20 0 13 2 nil 0) (6 0 13 7 nil 0) (19 0 18 0 nil 0) (5 0 19 0 nil 0) (12 0 19 1 nil 0) (17 1 21 0 nil 0) (21 0 22 0 nil 0) (23 0 22 1 nil 3) (14 1 24 0 nil 0) (24 0 25 0 nil 0) (23 0 25 1 nil 3) (27 0 26 0 nil 0) (23 0 26 1 nil 3) (15 1 27 0 nil 0) (16 1 28 0 nil 0) (28 0 29 0 nil 0) (23 0 29 1 nil 3))) nil 6.050101))
