; OM File Header - Saved 2021/07/12 2:25:18
; (6.2 :patc (om-make-point 91 25) (om-make-point 0 0) (om-make-point 968 624) "No documentation " 183 0 nil "2021/07/11 18:30:52")
; End File Header
(in-package :om)(load-lib-for (quote nil))(setf *om-current-persistent* (om-load-patch1 "02-TAC" (quote ((let ((box (om-load-boxcomment "comment1" (om-make-point 760 56) (quote "The family of self-complementary chords") "" (om-make-point 112 12) nil (om-make-color 10/51 52/255 199/255) (om-make-font "Geneva" 36 :family "Geneva" :style (quote (:plain)) :mode (quote nil))))) (when (fboundp (quote set-active)) (set-active box nil)) box) (let ((box (om-load-boxcall (quote genfun) "C2CHORD" (quote c2chord) (quote ((om-load-inputfun (quote input-funbox) "the cercle" "SELF" nil) (om-load-inputfun (quote input-funbox) "index" "INDEX" 0) (om-load-inputfun (quote input-funbox) "initial value" "BASE" 6000) (om-load-inputfun (quote input-funbox) "approx" "APPROX" 100))) (om-make-point 744 378) nil nil nil nil 1))) (when (fboundp (quote set-active)) (set-active box nil)) box) (let ((box (om-load-boxcall (quote genfun) "C2CHORD" (quote c2chord) (quote ((om-load-inputfun (quote input-funbox) "the cercle" "SELF" nil) (om-load-inputfun (quote input-funbox) "index" "INDEX" 0) (om-load-inputfun (quote input-funbox) "initial value" "BASE" 6000) (om-load-inputfun (quote input-funbox) "approx" "APPROX" 100))) (om-make-point 516 378) nil nil nil nil 1))) (when (fboundp (quote set-active)) (set-active box nil)) box) (let ((box (om-load-boxcomment "comment" (om-make-point 117 81) (quote "<--- This is the complement. It has the same intervallic structure.") "" (om-make-point 818 276) nil (om-make-color 0 0 0) (om-make-font "Geneva" 10 :family "Geneva" :style (quote (:plain)) :mode (quote nil))))) (when (fboundp (quote set-active)) (set-active box nil)) box) (let ((box (om-load-editor-box1 "CHORD" (quote chord) (quote ((om-load-inputfun (quote input-funbox) "objs" "SELF" nil) (om-load-inputfun (quote input-funbox) "no documentation" "LMIDIC" (list 6000)) (om-load-inputfun (quote input-funbox) "no documentation" "LVEL" (list 100)) (om-load-inputfun (quote input-funbox) "no documentation" "LOFFSET" (list 0)) (om-load-inputfun (quote input-funbox) "no documentation" "LDUR" (list 1000)) (om-load-inputfun (quote input-funbox) "no documentation" "LCHAN" (list 1)))) (om-make-point 748 456) (om-make-point 129 93) (let ((thechord (make-instance (quote chord) :lmidic (quote (6600 6700 6800 6900 7000 7100)) :ldur (quote (1000 1000 1000 1000 1000 1000)) :lvel (quote (100 100 100 100 100 100)) :loffset (quote (0 0 0 0 0 0)) :lchan (quote (1 1 1 1 1 1))))) (load-port-info thechord (quote (0 0 0 0 0 0))) (init-mus-color thechord (quote nil)) (set-extra-pairs thechord (quote nil)) (set-tonalite thechord nil) thechord) nil nil (pairlis (quote (scale obj-mode palette-mode approx fontsize staff cmnpref deltapict outport inport zoom notechancolor? grillestep mode winsize winpos show-stems)) (list nil 0 0 4 24 (quote g) (let ((newobj (make-instance (quote edition-values)))) (setf (paper-size newobj) (om-make-point 600 800)) (setf (top-margin newobj) 2) (setf (left-margin newobj) 1) (setf (right-margin newobj) 1) (setf (bottom-margin newobj) 1) (setf (orientation newobj) nil) (setf (scale newobj) nil) (setf (system-space newobj) (quote (1))) (setf (system-color newobj) (quote nil)) (setf (line-space newobj) 1) (setf (title newobj) nil) (setf (show-title? newobj) nil) (setf (show-page? newobj) nil) (setf (sheet-id newobj) nil) (setf (page-mode newobj) nil) newobj) (om-make-point 0 0) 0 0 1 nil 1000 0 18350450 2621450 (quote t))) t nil nil nil))) (when (fboundp (quote set-active)) (set-active box nil)) box) (let ((box (om-load-editor-box1 "N-CERCLE" (quote n-cercle) (quote ((om-load-inputfun (quote input-funbox) "objs" "SELF" nil) (om-load-inputfun (quote input-funbox) "no documentation" "N" 12) (om-load-inputfun (quote input-funbox) "no documentation" "PUNTOS" (list 0 5 7)))) (om-make-point 735 271) (om-make-point 82 95) (if (find-class (quote n-cercle) nil) (make-instance (quote n-cercle) :n 12 :puntos (list (list 6 7 8 9 10 11)) :from-file t)) "x" nil (pairlis (quote (obj-mode palette-mode deltapict outport inport zoom cmnpref notechancolor? grillestep mode winsize winpos show-stems)) (list 0 0 (om-make-point 0 0) 0 0 1 (let ((newobj (make-instance (quote edition-values)))) (setf (paper-size newobj) (om-make-point 600 800)) (setf (top-margin newobj) 2) (setf (left-margin newobj) 1) (setf (right-margin newobj) 1) (setf (bottom-margin newobj) 1) (setf (orientation newobj) nil) (setf (scale newobj) nil) (setf (system-space newobj) (quote (1))) (setf (system-color newobj) (quote nil)) (setf (line-space newobj) 1) (setf (title newobj) nil) (setf (show-title? newobj) nil) (setf (show-page? newobj) nil) (setf (sheet-id newobj) nil) (setf (page-mode newobj) nil) newobj) nil 1000 0 18350450 2621450 (quote t))) t nil nil nil))) (when (fboundp (quote set-active)) (set-active box nil)) box) (let ((box (om-load-editor-box1 "CHORD" (quote chord) (quote ((om-load-inputfun (quote input-funbox) "objs" "SELF" nil) (om-load-inputfun (quote input-funbox) "no documentation" "LMIDIC" (list 6000)) (om-load-inputfun (quote input-funbox) "no documentation" "LVEL" (list 100)) (om-load-inputfun (quote input-funbox) "no documentation" "LOFFSET" (list 0)) (om-load-inputfun (quote input-funbox) "no documentation" "LDUR" (list 1000)) (om-load-inputfun (quote input-funbox) "no documentation" "LCHAN" (list 1)))) (om-make-point 523 453) (om-make-point 102 93) (let ((thechord (make-instance (quote chord) :lmidic (quote (6000 6100 6200 6300 6400 6500)) :ldur (quote (1000 1000 1000 1000 1000 1000)) :lvel (quote (100 100 100 100 100 100)) :loffset (quote (0 0 0 0 0 0)) :lchan (quote (1 1 1 1 1 1))))) (load-port-info thechord (quote (0 0 0 0 0 0))) (init-mus-color thechord (quote nil)) (set-extra-pairs thechord (quote nil)) (set-tonalite thechord nil) thechord) nil nil (pairlis (quote (scale obj-mode palette-mode approx fontsize staff cmnpref deltapict outport inport zoom notechancolor? grillestep mode winsize winpos show-stems)) (list nil 0 0 4 24 (quote g) (let ((newobj (make-instance (quote edition-values)))) (setf (paper-size newobj) (om-make-point 600 800)) (setf (top-margin newobj) 2) (setf (left-margin newobj) 1) (setf (right-margin newobj) 1) (setf (bottom-margin newobj) 1) (setf (orientation newobj) nil) (setf (scale newobj) nil) (setf (system-space newobj) (quote (1))) (setf (system-color newobj) (quote nil)) (setf (line-space newobj) 1) (setf (title newobj) nil) (setf (show-title? newobj) nil) (setf (show-page? newobj) nil) (setf (sheet-id newobj) nil) (setf (page-mode newobj) nil) newobj) (om-make-point 0 0) 0 0 1 nil 1000 0 18350450 2621450 (quote t))) t nil nil nil))) (when (fboundp (quote set-active)) (set-active box nil)) box) (let ((box (om-load-boxcomment "comment" (om-make-point 118 79) (quote "<--- This is one of the 8 possible self-complementary exachords (up to transposition!)") "" (om-make-point 591 282) nil (om-make-color 0 0 0) (om-make-font "Geneva" 10 :family "Geneva" :style (quote (:plain)) :mode (quote nil))))) (when (fboundp (quote set-active)) (set-active box nil)) box) (let ((box (om-load-boxcomment "comment" (om-make-point 82 49) (quote "<--- just 1 solution, please... ") "" (om-make-point 623 150) nil (om-make-color 0 0 0) (om-make-font "Geneva" 10 :family "Geneva" :style (quote (:plain)) :mode (quote nil))))) (when (fboundp (quote set-active)) (set-active box nil)) box) (let ((box (om-load-boxcomment "comment" (om-make-point 158 47) (quote "<--- there is no choice! For n=12 only 6-chords can be self-complementary$") "" (om-make-point 603 90) nil (om-make-color 0 0 0) (om-make-font "Geneva" 10 :family "Geneva" :style (quote (:plain)) :mode (quote nil))))) (when (fboundp (quote set-active)) (set-active box nil)) box) (let ((box (om-load-boxcomment "comment" (om-make-point 132 37) (quote "<--- we are looking for exachords") "" (om-make-point 204 152) nil (om-make-color 0 0 0) (om-make-font "Geneva" 10 :family "Geneva" :style (quote (:plain)) :mode (quote nil))))) (when (fboundp (quote set-active)) (set-active box nil)) box) (let ((box (om-load-boxcomment "comment" (om-make-point 68 73) (quote "---->$The octave is divided in 12 parts") "" (om-make-point 31 137) nil (om-make-color 0 0 0) (om-make-font "Geneva" 10 :family "Geneva" :style (quote (:plain)) :mode (quote nil))))) (when (fboundp (quote set-active)) (set-active box nil)) box) (let ((box (om-load-boxcomment "comment" (om-make-point 86 56) (quote "<--- Some exachords in the cyclic representation") "" (om-make-point 281 418) nil (om-make-color 0 0 0) (om-make-font "Geneva" 10 :family "Geneva" :style (quote (:plain)) :mode (quote nil))))) (when (fboundp (quote set-active)) (set-active box nil)) box) (let ((box (om-load-boxcomment "comment" (om-make-point 132 66) (quote "<--- orbites give the complete list of exachords in Z/12Z$") "" (om-make-point 299 310) nil (om-make-color 0 0 0) (om-make-font "Geneva" 10 :family "Geneva" :style (quote (:plain)) :mode (quote nil))))) (when (fboundp (quote set-active)) (set-active box nil)) box) (let ((box (om-load-boxcomment "comment" (om-make-point 141 57) (quote "<--- Card shows that there are 80 exachords (up to transposition!)") "" (om-make-point 258 233) nil (om-make-color 0 0 0) (om-make-font "Geneva" 10 :family "Geneva" :style (quote (:plain)) :mode (quote nil))))) (when (fboundp (quote set-active)) (set-active box nil)) box) (let ((box (om-load-boxcall (quote bastype) "aux4" (quote t) (quote nil) (om-make-point 590 155) (om-make-point 25 27) 1 "1" nil))) (when (fboundp (quote set-active)) (set-active box nil)) box) (let ((box (om-load-boxcall (quote bastype) "aux3" (quote t) (quote nil) (om-make-point 561 101) (om-make-point 28 30) 6 "6" nil))) (when (fboundp (quote set-active)) (set-active box nil)) box) (let ((box (om-load-boxcall (quote bastype) "aux1" (quote t) (quote nil) (om-make-point 511 144) (om-make-point 34 30) 12 "12" nil))) (when (fboundp (quote set-active)) (set-active box nil)) box) (let ((box (om-load-editor-box1 "N-CERCLE1" (quote n-cercle) (quote ((om-load-inputfun (quote input-funbox) "objs" "SELF" nil) (om-load-inputfun (quote input-funbox) "no documentation" "N" 12) (om-load-inputfun (quote input-funbox) "no documentation" "PUNTOS" (list 0 5 7)))) (om-make-point 87 388) (om-make-point 173 154) (if (find-class (quote n-cercle) nil) (make-instance (quote n-cercle) :n 12 :puntos (list (list 0 2 4 6 8 10) (list 0 1 4 6 8 10) (list 0 1 4 6 7 10) (list 0 1 4 5 8 10) (list 0 1 4 5 8 9) (list 0 1 3 6 8 10) (list 0 1 3 6 8 9) (list 0 1 3 6 7 10) (list 0 1 3 6 7 9) (list 0 1 3 5 8 10) (list 0 1 3 5 8 9) (list 0 1 3 5 7 10) (list 0 1 3 5 7 9) (list 0 1 3 5 7 8) (list 0 1 3 5 6 10) (list 0 1 3 5 6 9) (list 0 1 3 5 6 8) (list 0 1 3 4 8 10) (list 0 1 3 4 8 9) (list 0 1 3 4 7 10) (list 0 1 3 4 7 9) (list 0 1 3 4 7 8) (list 0 1 3 4 6 10) (list 0 1 3 4 6 9) (list 0 1 3 4 6 8) (list 0 1 3 4 6 7) (list 0 1 2 7 9 10) (list 0 1 2 7 8 10) (list 0 1 2 6 9 10) (list 0 1 2 6 8 10) (list 0 1 2 6 8 9) (list 0 1 2 6 7 10) (list 0 1 2 6 7 9) (list 0 1 2 6 7 8) (list 0 1 2 5 9 10) (list 0 1 2 5 8 10) (list 0 1 2 5 8 9) (list 0 1 2 5 7 10) (list 0 1 2 5 7 9) (list 0 1 2 5 7 8) (list 0 1 2 5 6 10) (list 0 1 2 5 6 9) (list 0 1 2 5 6 8) (list 0 1 2 5 6 7) (list 0 1 2 4 9 10) (list 0 1 2 4 8 10) (list 0 1 2 4 8 9) (list 0 1 2 4 7 10) (list 0 1 2 4 7 9) (list 0 1 2 4 7 8) (list 0 1 2 4 6 10) (list 0 1 2 4 6 9) (list 0 1 2 4 6 8) (list 0 1 2 4 6 7) (list 0 1 2 4 5 10) (list 0 1 2 4 5 9) (list 0 1 2 4 5 8) (list 0 1 2 4 5 7) (list 0 1 2 4 5 6) (list 0 1 2 3 9 10) (list 0 1 2 3 8 10) (list 0 1 2 3 8 9) (list 0 1 2 3 7 10) (list 0 1 2 3 7 9) (list 0 1 2 3 7 8) (list 0 1 2 3 6 10) (list 0 1 2 3 6 9) (list 0 1 2 3 6 8) (list 0 1 2 3 6 7) (list 0 1 2 3 5 10) (list 0 1 2 3 5 9) (list 0 1 2 3 5 8) (list 0 1 2 3 5 7) (list 0 1 2 3 5 6) (list 0 1 2 3 4 10) (list 0 1 2 3 4 9) (list 0 1 2 3 4 8) (list 0 1 2 3 4 7) (list 0 1 2 3 4 6) (list 0 1 2 3 4 5)) :from-file t)) nil nil (pairlis (quote (obj-mode palette-mode deltapict outport inport zoom cmnpref notechancolor? grillestep mode winsize winpos show-stems)) (list 0 0 (om-make-point 0 0) 0 0 1 (let ((newobj (make-instance (quote edition-values)))) (setf (paper-size newobj) (om-make-point 600 800)) (setf (top-margin newobj) 2) (setf (left-margin newobj) 1) (setf (right-margin newobj) 1) (setf (bottom-margin newobj) 1) (setf (orientation newobj) nil) (setf (scale newobj) nil) (setf (system-space newobj) (quote (1))) (setf (system-color newobj) (quote nil)) (setf (line-space newobj) 1) (setf (title newobj) nil) (setf (show-title? newobj) nil) (setf (show-page? newobj) nil) (setf (sheet-id newobj) nil) (setf (page-mode newobj) nil) newobj) nil 1000 0 18350450 2621450 (quote t))) t nil nil nil))) (when (fboundp (quote set-active)) (set-active box nil)) box) (let ((box (om-load-boxcall (quote bastype) "aux2" (quote t) (quote nil) (om-make-point 165 154) (om-make-point 28 27) 6 "6" nil))) (when (fboundp (quote set-active)) (set-active box nil)) box) (let ((box (om-load-boxcall (quote bastype) "aux" (quote t) (quote nil) (om-make-point 101 139) (om-make-point 43 30) 12 "12" nil))) (when (fboundp (quote set-active)) (set-active box nil)) box) (let ((box (om-load-boxcall (quote genfun) "ORBITES" (quote orbites) (quote ((om-load-inputfun (quote input-funbox) "Zn" "N" 12) (om-load-inputfun (quote input-funbox) "elments" "K" 6) (om-load-inputfun (quote input-funbox) "how many answers" "HOWMANY" 4))) (om-make-point 65 299) (om-make-point 224 61) nil nil nil 1))) (when (fboundp (quote set-active)) (set-active box nil)) box) (let ((box (om-load-boxcall (quote genfun) "CARD" (quote card) (quote ((om-load-inputfun (quote input-funbox) "Zn" "N" 12) (om-load-inputfun (quote input-funbox) "elments" "K" 6))) (om-make-point 219 227) nil nil nil nil 1))) (when (fboundp (quote set-active)) (set-active box nil)) box) (let ((box (om-load-boxcomment "comment" (om-make-point 42 22) (quote "TAC") "" (om-make-point 506 209) nil (om-make-color 28/85 41/255 1) (om-make-font "Geneva" 12 :family "Geneva" :style (quote (:plain)) :mode (quote nil))))) (when (fboundp (quote set-active)) (set-active box nil)) box) (let ((box (om-load-editor-box1 "N-CERCLE" (quote n-cercle) (quote ((om-load-inputfun (quote input-funbox) "objs" "SELF" nil) (om-load-inputfun (quote input-funbox) "no documentation" "N" 12) (om-load-inputfun (quote input-funbox) "no documentation" "PUNTOS" (list 0 5 7)))) (om-make-point 507 273) (om-make-point 82 95) (if (find-class (quote n-cercle) nil) (make-instance (quote n-cercle) :n 12 :puntos (list (list 0 1 2 3 4 5)) :from-file t)) "x" nil (pairlis (quote (obj-mode palette-mode deltapict outport inport zoom cmnpref notechancolor? grillestep mode winsize winpos show-stems)) (list 0 0 (om-make-point 0 0) 0 0 1 (let ((newobj (make-instance (quote edition-values)))) (setf (paper-size newobj) (om-make-point 600 800)) (setf (top-margin newobj) 2) (setf (left-margin newobj) 1) (setf (right-margin newobj) 1) (setf (bottom-margin newobj) 1) (setf (orientation newobj) nil) (setf (scale newobj) nil) (setf (system-space newobj) (quote (1))) (setf (system-color newobj) (quote nil)) (setf (line-space newobj) 1) (setf (title newobj) nil) (setf (show-title? newobj) nil) (setf (show-page? newobj) nil) (setf (sheet-id newobj) nil) (setf (page-mode newobj) nil) newobj) nil 1000 0 18350450 2621450 (quote t))) t nil nil nil))) (when (fboundp (quote set-active)) (set-active box nil)) box) (let ((box (om-load-boxcall (quote genfun) "FAMILLE" (quote famille) (quote ((om-load-inputfun (quote input-funbox) "Zn" "N" 12) (om-load-inputfunmenu1 (quote input-funmenu) "familly" "FAMILLY" "tac" (list (list "tac" "tac") (list "tai" "tai") (list "tic" "tic") (list "ttl" "ttl") (list "tp" "tp") (list "tid" "tid"))) (om-load-inputfun (quote input-funbox) "number of elements" "K" 6) (om-load-inputfun (quote input-funbox) "howmany answers" "HOWMANY" 1))) (om-make-point 549 191) nil nil nil nil 1))) (when (fboundp (quote set-active)) (set-active box nil)) box))) (quote ((5 0 1 0 nil 0) (24 0 2 0 nil 0) (1 0 4 0 nil 0) (2 0 6 0 nil 0) (21 0 18 2 nil 0) (20 0 21 0 nil 0) (19 0 21 1 nil 2) (22 0 21 2 nil 0) (20 0 22 0 nil 0) (19 0 22 1 nil 0) (25 0 24 2 nil 0) (17 0 25 0 nil 0) (16 0 25 2 nil 0) (15 0 25 3 nil 0))) nil 6.2))
