; OM File Header - Saved 2009/10/22 17:10:02
; (6.04 :patc (om-make-point 225 113) (om-make-point 50 50) (om-make-point 870 816) "No documentation " 183 0 nil nil)
; End File Header
(in-package :om)(load-lib-for 'nil)(setf *om-current-persistent* (om-load-patch1 "06-TP" '((om-load-boxcall 'genfun "C2CHORD" 'c2chord '((om-load-inputfun 'input-funbox "the cercle" "SELF" nil) (om-load-inputfun 'input-funbox "index" "INDEX" 0) (om-load-inputfun 'input-funbox "initial value" "BASE" 6000) (om-load-inputfun 'input-funbox "approx" "APPROX" 100)) (om-make-point 100 287) nil nil nil nil 1) (om-load-boxcomment "comment11" (om-make-point 608 59) '"The family of partitioning chords$" "" (om-make-point 268 10) nil (om-make-color 10/51 52/255 199/255) (om-make-font "Geneva" 36 :family nil :style 'nil :mode nil)) (om-load-editor-box1 "CHORD-SEQ" 'chord-seq '((om-load-inputfun 'input-funbox "objs" "SELF" nil) (om-load-inputfun 'input-funbox "no documentation" "LMIDIC" (list 6000)) (om-load-inputfun 'input-funbox "no documentation" "LONSET" (list 0 1000)) (om-load-inputfun 'input-funbox "no documentation" "LDUR" (list 1000)) (om-load-inputfun 'input-funbox "no documentation" "LVEL" (list 100)) (om-load-inputfun 'input-funbox "no documentation" "LOFFSET" (list 0)) (om-load-inputfun 'input-funbox "no documentation" "LCHAN" (list 1)) (om-load-inputfun 'input-funbox "no documentation" "LEGATO" 0)) (om-make-point 238 472) (om-make-point 210 93) (let ((newobj (when (find-class 'chord-seq nil) (make-instance 'chord-seq :lmidic '((6000 6200 6400 6600 6800 7000) (6100 6300 6500 6700 6900 7100)) :lonset '(0 1000 2000) :ldur '((1000 1000 1000 1000 1000 1000) (1000 1000 1000 1000 1000 1000)) :lvel '((100 100 100 100 100 100) (100 100 100 100 100 100)) :loffset '((0 0 0 0 0 0) (0 0 0 0 0 0)) :lchan '((1 1 1 1 1 1) (1 1 1 1 1 1)) :legato 0)))) (load-port-info newobj '((0 0 0 0 0 0) (0 0 0 0 0 0))) (init-mus-color newobj (list (list nil (om-make-color 0 0 0)) (list (list 0) (om-make-color 0 0 0)) (list (list 0 0) (om-make-color 0 0 0)) (list (list 0 1) (om-make-color 0 0 0)) (list (list 0 2) (om-make-color 0 0 0)) (list (list 0 3) (om-make-color 0 0 0)) (list (list 0 4) (om-make-color 0 0 0)) (list (list 0 5) (om-make-color 0 0 0)) (list (list 1) (om-make-color 0 0 0)) (list (list 1 0) (om-make-color 0 0 0)) (list (list 1 1) (om-make-color 0 0 0)) (list (list 1 2) (om-make-color 0 0 0)) (list (list 1 3) (om-make-color 0 0 0)) (list (list 1 4) (om-make-color 0 0 0)) (list (list 1 5) (om-make-color 0 0 0)))) (set-extra-pairs newobj 'nil) (set-patch-pairs newobj 'nil) (set-tonalite newobj nil) newobj) nil nil (corrige (pairlis '(show-stems approx fontsize staff cmnpref deltapict outport inport zoom notechancolor? grillestep mode winsize winpos palette-mode obj-mode) (list 't 4 24 'g (let ((newobj (make-instance 'edition-values))) (setf (paper-size newobj) (om-make-point 600 800)) (setf (top-margin newobj) 2) (setf (left-margin newobj) 1) (setf (right-margin newobj) 1) (setf (bottom-margin newobj) 1) (setf (orientation newobj) nil) (setf (scale newobj) nil) (setf (system-space newobj) '(1)) (setf (line-space newobj) 1) (setf (title newobj) nil) (setf (show-title? newobj) nil) (setf (show-page? newobj) nil) (setf (sheet-id newobj) nil) (setf (page-mode newobj) nil) newobj) (om-make-point 0 0) 0 0 1 nil 1000 0 18350450 2621450 0 0))) t nil nil) (om-load-boxcall 'bastype "aux5" 't 'nil (om-make-point 314 358) (om-make-point 53 20) (list 0 100) "(0 100)" nil) (om-load-boxwithed1 'box-with-win "OMLOOP" 'omloop '((om-load-inputfun 'input-funbox "aditional input" "OPLIST" nil) (om-load-inputfun 'input-funbox "aditional input" "OPLIST" nil)) (om-make-point 284 403) nil nil nil (list (om-load-editor-box1 "CHORD-SEQ" 'chord-seq '((om-load-inputfun 'input-funbox "objs" "SELF" nil) (om-load-inputfun 'input-funbox "no documentation" "LMIDIC" (list 6000)) (om-load-inputfun 'input-funbox "no documentation" "LONSET" (list 0 1000)) (om-load-inputfun 'input-funbox "no documentation" "LDUR" (list 1000)) (om-load-inputfun 'input-funbox "no documentation" "LVEL" (list 100)) (om-load-inputfun 'input-funbox "no documentation" "LOFFSET" (list 0)) (om-load-inputfun 'input-funbox "no documentation" "LCHAN" (list 1)) (om-load-inputfun 'input-funbox "no documentation" "LEGATO" 0)) (om-make-point 149 241) (om-make-point 80 70) (let ((newobj (when (find-class 'chord-seq nil) (make-instance 'chord-seq :lmidic '((6000)) :lonset '(0 1000) :ldur '((1000)) :lvel '((100)) :loffset '((0)) :lchan '((1)) :legato 0)))) (load-port-info newobj '((0))) (init-mus-color newobj (list (list nil (om-make-color 0 0 0)) (list (list 0) (om-make-color 0 0 0)) (list (list 0 0) (om-make-color 0 0 0)))) (set-extra-pairs newobj 'nil) (set-patch-pairs newobj 'nil) (set-tonalite newobj nil) newobj) nil nil (corrige (pairlis '(show-stems approx fontsize staff cmnpref deltapict outport inport zoom notechancolor? grillestep mode winsize winpos palette-mode obj-mode) (list 't 4 24 'g (let ((newobj (make-instance 'edition-values))) (setf (paper-size newobj) (om-make-point 600 800)) (setf (top-margin newobj) 2) (setf (left-margin newobj) 1) (setf (right-margin newobj) 1) (setf (bottom-margin newobj) 1) (setf (orientation newobj) nil) (setf (scale newobj) nil) (setf (system-space newobj) '(1)) (setf (line-space newobj) 1) (setf (title newobj) nil) (setf (show-title? newobj) nil) (setf (show-page? newobj) nil) (setf (sheet-id newobj) nil) (setf (page-mode newobj) nil) newobj) (om-make-point 0 0) 0 0 1 nil 1000 0 18350450 2621450 0 0))) nil nil nil) (om-load-boxcall 'genfun "collect" 'listing '((om-load-inputfun 'input-funbox "no documentation" "WHAT?" nil)) (om-make-point 84 173) nil nil nil nil 3) (om-load-boxcall 'genfun "OM+" 'om+ '((om-load-inputfun 'input-funbox "first input" "SELF" 0) (om-load-inputfun 'input-funbox "second input" "NUM" 0)) (om-make-point 28 139) (om-make-point 68 35) nil nil nil 1) (om-load-boxcall 'genfun "inlist" 'listloop '((om-load-inputfun 'input-funbox "list to iterate" "LIST" nil)) (om-make-point 82 70) nil nil nil nil 1) (om-load-boxin "input1" 1 (om-make-point 159 40) "no documentation" "transpositions" nil nil) (om-load-boxin "input0" 0 (om-make-point 5 40) "no documentation" "midics" nil nil) (om-load-seqbox "finally" 'finaldo '((om-load-inputfun 'input-funbox "patch" "PATCH" nil)) (om-make-point 132 318) nil nil nil 0) (om-load-seqbox "eachTime" 'loopdo '((om-load-inputfun 'input-funbox "patch" "PATCH" nil)) (om-make-point 27 319) nil nil nil 0)) '((1 1 0 1 nil 0) (2 0 1 0 nil 0) (5 0 2 0 nil 0) (3 0 2 1 nil 0) (4 0 3 0 nil 0) (0 0 6 0 nil 0) (1 0 7 0 nil 0)) 1 nil nil) (om-load-editor-box1 "CHORD" 'chord '((om-load-inputfun 'input-funbox "objs" "SELF" nil) (om-load-inputfun 'input-funbox "no documentation" "LMIDIC" (list 6000)) (om-load-inputfun 'input-funbox "no documentation" "LVEL" (list 100)) (om-load-inputfun 'input-funbox "no documentation" "LOFFSET" (list 0)) (om-load-inputfun 'input-funbox "no documentation" "LDUR" (list 1000)) (om-load-inputfun 'input-funbox "no documentation" "LCHAN" (list 1))) (om-make-point 197 304) (om-make-point 78 84) (if (find-class 'chord nil) (let ((newobj (make-instance 'chord :lmidic (list 6000 6200 6400 6600 6800 7000) :lvel (list 100 100 100 100 100 100) :loffset (list 0 0 0 0 0 0) :ldur (list 1000 1000 1000 1000 1000 1000) :lchan (list 1 1 1 1 1 1) :from-file t))) (load-port-info newobj '(0 0 0 0 0 0)) (init-mus-color newobj (list (list nil (om-make-color 0 0 0)) (list (list 0) (om-make-color 0 0 0)) (list (list 1) (om-make-color 0 0 0)) (list (list 2) (om-make-color 0 0 0)) (list (list 3) (om-make-color 0 0 0)) (list (list 4) (om-make-color 0 0 0)) (list (list 5) (om-make-color 0 0 0)))) (set-extra-pairs newobj 'nil) (set-patch-pairs newobj 'nil) (set-tonalite newobj nil) newobj)) nil nil (corrige (pairlis '(show-stems approx fontsize staff cmnpref deltapict outport inport zoom notechancolor? grillestep mode winsize winpos palette-mode obj-mode) (list 't 4 24 'g (let ((newobj (make-instance 'edition-values))) (setf (paper-size newobj) (om-make-point 600 800)) (setf (top-margin newobj) 2) (setf (left-margin newobj) 1) (setf (right-margin newobj) 1) (setf (bottom-margin newobj) 1) (setf (orientation newobj) nil) (setf (scale newobj) nil) (setf (system-space newobj) '(1)) (setf (line-space newobj) 1) (setf (title newobj) nil) (setf (show-title? newobj) nil) (setf (show-page? newobj) nil) (setf (sheet-id newobj) nil) (setf (page-mode newobj) nil) newobj) (om-make-point 0 0) 0 0 1 nil 1000 0 18350450 2621450 0 0))) t nil nil) (om-load-boxcall 'bastype "aux4" 't 'nil (om-make-point 148 53) (om-make-point 11 20) 4 "4" nil) (om-load-boxcall 'bastype "aux3" 't 'nil (om-make-point 105 49) (om-make-point 11 20) 6 "6" nil) (om-load-boxcall 'bastype "aux1" 't 'nil (om-make-point 66 48) (om-make-point 17 20) 12 "12" nil) (om-load-boxcomment "comment" (om-make-point 42 22) '"TP" "" (om-make-point 42 97) nil (om-make-color 28/85 41/255 1) (om-make-font "Geneva" 12 :family nil :style 'nil :mode nil)) (om-load-editor-box1 "N-CERCLE" 'n-cercle '((om-load-inputfun 'input-funbox "objs" "SELF" nil) (om-load-inputfun 'input-funbox "no documentation" "N" 12) (om-load-inputfun 'input-funbox "no documentation" "PUNTOS" (list 0 5 7))) (om-make-point 50 163) (om-make-point 82 95) (if (find-class 'n-cercle nil) (make-instance 'n-cercle :n 12 :puntos (list (list 0 2 4 6 8 10) (list 0 1 4 5 8 9) (list 0 1 2 6 7 8) (list 0 1 2 3 4 5)) :from-file t)) nil nil (corrige (pairlis '(show-stems winpos winsize mode grillestep notechancolor? cmnpref zoom inport outport deltapict palette-mode obj-mode) (list 't 2621450 18350450 0 1000 nil (let ((newobj (make-instance 'edition-values))) (setf (paper-size newobj) (om-make-point 600 800)) (setf (top-margin newobj) 2) (setf (left-margin newobj) 1) (setf (right-margin newobj) 1) (setf (bottom-margin newobj) 1) (setf (orientation newobj) nil) (setf (scale newobj) nil) (setf (system-space newobj) '(1)) (setf (line-space newobj) 1) (setf (title newobj) nil) (setf (show-title? newobj) nil) (setf (show-page? newobj) nil) (setf (sheet-id newobj) nil) (setf (page-mode newobj) nil) newobj) 1 0 0 (om-make-point 0 0) 0 0))) t nil nil) (om-load-boxcall 'genfun "FAMILLE" 'famille '((om-load-inputfun 'input-funbox "Zn" "N" 12) (om-load-inputfunmenu1 'input-funmenu "familly" "FAMILLY" "tp" (list (list "tac" "tac") (list "tai" "tai") (list "tic" "tic") (list "ttl" "ttl") (list "tp" "tp") (list "tid" "tid"))) (om-load-inputfun 'input-funbox "number of elements" "K" 6) (om-load-inputfun 'input-funbox "howmany answers" "HOWMANY" 2)) (om-make-point 84 79) nil nil nil nil 1)) '((10 0 0 0 nil 0) (4 0 2 0 nil 0) (5 1 4 0 nil 0) (3 0 4 1 nil 0) (0 0 5 0 nil 0) (11 0 10 2 nil 0) (8 0 11 0 nil 0) (7 0 11 2 nil 0) (6 0 11 3 nil 0)) (list (let ((newpict (make-instance 'patch-picture :name '|USER-ciel|))) (setf (thepict newpict) (om-get-picture '|USER-ciel|)) (setf (name newpict) '|USER-ciel|) (setf (pict-pos newpict) (om-make-point 16 84)) (setf (pict-size newpict) (om-make-point 735 649)) newpict)) 5.0))
