; OM File Header - Saved 2009/10/22 17:10:02
; (6.04 :patc (om-make-point 108 185) (om-make-point 1 46) (om-make-point 1098 744) "No documentation " 183 0 nil nil)
; End File Header
(in-package :om)(load-lib-for 'nil)(setf *om-current-persistent* (om-load-patch1 "08-TC and TTL" '((om-load-boxcall 'genfun "GET-TID1" 'get-tid '((om-load-inputfun 'input-funbox "no documentation" "N" nil)) (om-make-point 692 98) nil nil nil nil 1) (om-load-boxcall 'genfun "GET-TID1" 'get-tid '((om-load-inputfun 'input-funbox "no documentation" "N" nil)) (om-make-point 79 84) nil nil nil nil 1) (om-load-boxcall 'genfun "TRANSP-COMB2" 'transp-comb '((om-load-inputfun 'input-funbox "no documentation" "A" nil) (om-load-inputfun 'input-funbox "no documentation" "TID" nil) (om-load-inputfun 'input-funbox "no documentation" "N" nil)) (om-make-point 796 166) nil nil nil nil 1) (om-load-boxcall 'genfun "TRANSP-COMB1" 'transp-comb '((om-load-inputfun 'input-funbox "no documentation" "A" nil) (om-load-inputfun 'input-funbox "no documentation" "TID" nil) (om-load-inputfun 'input-funbox "no documentation" "N" nil)) (om-make-point 155 204) nil nil nil nil 1) (om-load-boxcall 'lispfun "REMOVE-DUPLICATES" 'remove-duplicates '((om-load-inputfun 'input-funbox "SEQUENCE" "SEQUENCE" nil)) (om-make-point 959 257) nil nil nil nil 1) (om-load-boxcall 'lispfun "REMOVE-DUPLICATES" 'remove-duplicates '((om-load-inputfun 'input-funbox "SEQUENCE" "SEQUENCE" nil)) (om-make-point 263 333) nil nil nil nil 1) (om-load-editor-box1 "CHORD1" 'chord '((om-load-inputfun 'input-funbox "objs" "SELF" nil) (om-load-inputfun 'input-funbox "no documentation" "LMIDIC" (list 6000)) (om-load-inputfun 'input-funbox "no documentation" "LVEL" (list 100)) (om-load-inputfun 'input-funbox "no documentation" "LOFFSET" (list 0)) (om-load-inputfun 'input-funbox "no documentation" "LDUR" (list 1000)) (om-load-inputfun 'input-funbox "no documentation" "LCHAN" (list 1))) (om-make-point 214 617) (om-make-point 167 92) (if (find-class 'chord nil) (let ((newobj (make-instance 'chord :lmidic (list 6000 6100 6300 6400 6600 6700 6900 7000) :lvel (list 100 100 100 100 100 100 100 100) :loffset (list 0 0 0 0 0 0 0 0) :ldur (list 1000 1000 1000 1000 1000 1000 1000 1000) :lchan (list 1 1 1 1 1 1 1 1) :from-file t))) (load-port-info newobj '(0 0 0 0 0 0 0 0)) (init-mus-color newobj (list (list nil (om-make-color 0 0 0)) (list (list 0) (om-make-color 0 0 0)) (list (list 1) (om-make-color 0 0 0)) (list (list 2) (om-make-color 0 0 0)) (list (list 3) (om-make-color 0 0 0)) (list (list 4) (om-make-color 0 0 0)) (list (list 5) (om-make-color 0 0 0)) (list (list 6) (om-make-color 0 0 0)) (list (list 7) (om-make-color 0 0 0)))) (set-extra-pairs newobj 'nil) (set-patch-pairs newobj 'nil) (set-tonalite newobj nil) newobj)) nil nil (corrige (pairlis '(approx fontsize staff cmnpref deltapict outport inport zoom notechancolor? grillestep mode winsize winpos palette-mode obj-mode show-stems) (list 2 24 'g (let ((newobj (make-instance 'edition-values))) (setf (paper-size newobj) (om-make-point 600 800)) (setf (top-margin newobj) 2) (setf (left-margin newobj) 1) (setf (right-margin newobj) 1) (setf (bottom-margin newobj) 1) (setf (orientation newobj) nil) (setf (scale newobj) nil) (setf (system-space newobj) '(1)) (setf (line-space newobj) 1) (setf (title newobj) nil) (setf (show-title? newobj) nil) (setf (show-page? newobj) nil) (setf (sheet-id newobj) nil) (setf (page-mode newobj) nil) newobj) (om-make-point 0 0) 0 0 1 nil 1000 1 18350450 2621450 0 0 't))) t nil nil) (om-load-boxcall 'genfun "C2CHORD1" 'c2chord '((om-load-inputfun 'input-funbox "the cercle" "SELF" nil) (om-load-inputfun 'input-funbox "index" "INDEX" 0) (om-load-inputfun 'input-funbox "initial value" "BASE" 6000) (om-load-inputfun 'input-funbox "approx" "APPROX" 100)) (om-make-point 262 563) nil nil nil nil 1) (om-load-editor-box1 "CHORD" 'chord '((om-load-inputfun 'input-funbox "objs" "SELF" nil) (om-load-inputfun 'input-funbox "no documentation" "LMIDIC" (list 6000)) (om-load-inputfun 'input-funbox "no documentation" "LVEL" (list 100)) (om-load-inputfun 'input-funbox "no documentation" "LOFFSET" (list 0)) (om-load-inputfun 'input-funbox "no documentation" "LDUR" (list 1000)) (om-load-inputfun 'input-funbox "no documentation" "LCHAN" (list 1))) (om-make-point 780 630) (om-make-point 160 92) (if (find-class 'chord nil) (let ((newobj (make-instance 'chord :lmidic (list 6000 6050 6200 6300 6350 6500 6600 6650 6800 6900 6950 7100) :lvel (list 100 100 100 100 100 100 100 100 100 100 100 100) :loffset (list 0 0 0 0 0 0 0 0 0 0 0 0) :ldur (list 1000 1000 1000 1000 1000 1000 1000 1000 1000 1000 1000 1000) :lchan (list 1 1 1 1 1 1 1 1 1 1 1 1) :from-file t))) (load-port-info newobj '(0 0 0 0 0 0 0 0 0 0 0 0)) (init-mus-color newobj (list (list nil (om-make-color 0 0 0)) (list (list 0) (om-make-color 0 0 0)) (list (list 1) (om-make-color 0 0 0)) (list (list 2) (om-make-color 0 0 0)) (list (list 3) (om-make-color 0 0 0)) (list (list 4) (om-make-color 0 0 0)) (list (list 5) (om-make-color 0 0 0)) (list (list 6) (om-make-color 0 0 0)) (list (list 7) (om-make-color 0 0 0)) (list (list 8) (om-make-color 0 0 0)) (list (list 9) (om-make-color 0 0 0)) (list (list 10) (om-make-color 0 0 0)) (list (list 11) (om-make-color 0 0 0)))) (set-extra-pairs newobj 'nil) (set-patch-pairs newobj 'nil) (set-tonalite newobj nil) newobj)) nil nil (corrige (pairlis '(approx fontsize staff cmnpref deltapict outport inport zoom notechancolor? grillestep mode winsize winpos palette-mode obj-mode show-stems) (list 4 24 'g (let ((newobj (make-instance 'edition-values))) (setf (paper-size newobj) (om-make-point 600 800)) (setf (top-margin newobj) 2) (setf (left-margin newobj) 1) (setf (right-margin newobj) 1) (setf (bottom-margin newobj) 1) (setf (orientation newobj) nil) (setf (scale newobj) nil) (setf (system-space newobj) '(1)) (setf (line-space newobj) 1) (setf (title newobj) nil) (setf (show-title? newobj) nil) (setf (show-page? newobj) nil) (setf (sheet-id newobj) nil) (setf (page-mode newobj) nil) newobj) (om-make-point 0 0) 0 0 1 nil 1000 1 18350450 2621450 0 0 't))) t nil nil) (om-load-boxcall 'genfun "C2CHORD" 'c2chord '((om-load-inputfun 'input-funbox "the cercle" "SELF" nil) (om-load-inputfun 'input-funbox "index" "INDEX" 0) (om-load-inputfun 'input-funbox "initial value" "BASE" 6000) (om-load-inputfun 'input-funbox "approx" "APPROX" 50)) (om-make-point 847 566) nil nil nil nil 1) (om-load-boxcall 'bastype "aux5" 't 'nil (om-make-point 764 55) (om-make-point 25 20) 24 "24" nil) (om-load-boxcall 'bastype "aux2" 't 'nil (om-make-point 643 146) (om-make-point 23 20) 2 "2" nil) (om-load-editor-box1 "N-CERCLE" 'n-cercle '((om-load-inputfun 'input-funbox "objs" "SELF" nil) (om-load-inputfun 'input-funbox "no documentation" "N" 24) (om-load-inputfun 'input-funbox "no documentation" "PUNTOS" (list 0 5 7))) (om-make-point 877 364) (om-make-point 202 195) (if (find-class 'n-cercle nil) (make-instance 'n-cercle :n 24 :puntos (list (list 0 1 4 6 7 10 12 13 16 18 19 22)) :from-file t)) nil nil (corrige (pairlis '(deltapict outport inport zoom palette-mode obj-mode cmnpref notechancolor? grillestep mode winsize winpos show-stems) (list (om-make-point 0 0) 0 0 1 0 0 (let ((newobj (make-instance 'edition-values))) (setf (paper-size newobj) (om-make-point 600 800)) (setf (top-margin newobj) 2) (setf (left-margin newobj) 1) (setf (right-margin newobj) 1) (setf (bottom-margin newobj) 1) (setf (orientation newobj) nil) (setf (scale newobj) nil) (setf (system-space newobj) '(1)) (setf (line-space newobj) 1) (setf (title newobj) nil) (setf (show-title? newobj) nil) (setf (show-page? newobj) nil) (setf (sheet-id newobj) nil) (setf (page-mode newobj) nil) newobj) nil 1000 0 18350450 2621450 't))) t nil nil) (om-load-boxcall 'genfun "FLAT" 'flat '((om-load-inputfun 'input-funbox "one list" "LST" nil)) (om-make-point 907 223) nil nil nil nil 1) (om-load-editor-box1 "N-CERCLE" 'n-cercle '((om-load-inputfun 'input-funbox "objs" "SELF" nil) (om-load-inputfun 'input-funbox "no documentation" "N" 24) (om-load-inputfun 'input-funbox "no documentation" "PUNTOS" (list 0 5 7))) (om-make-point 563 235) (om-make-point 183 141) (if (find-class 'n-cercle nil) (make-instance 'n-cercle :n 24 :puntos (list (list 0 6 12 18)) :from-file t)) nil nil (corrige (pairlis '(deltapict outport inport zoom palette-mode obj-mode cmnpref notechancolor? grillestep mode winsize winpos show-stems) (list (om-make-point 0 0) 0 0 1 0 0 (let ((newobj (make-instance 'edition-values))) (setf (paper-size newobj) (om-make-point 600 800)) (setf (top-margin newobj) 2) (setf (left-margin newobj) 1) (setf (right-margin newobj) 1) (setf (bottom-margin newobj) 1) (setf (orientation newobj) nil) (setf (scale newobj) nil) (setf (system-space newobj) '(1)) (setf (line-space newobj) 1) (setf (title newobj) nil) (setf (show-title? newobj) nil) (setf (show-page? newobj) nil) (setf (sheet-id newobj) nil) (setf (page-mode newobj) nil) newobj) nil 1000 0 18350450 2621450 't))) t nil nil) (om-load-boxcall 'lispfun "NTH" 'nth '((om-load-inputfun 'input-funbox "N" "N" nil) (om-load-inputfun 'input-funbox "LIST" "LIST" nil)) (om-make-point 672 179) nil nil nil nil 1) (om-load-editor-box1 "N-CERCLE1" 'n-cercle '((om-load-inputfun 'input-funbox "objs" "SELF" nil) (om-load-inputfun 'input-funbox "no documentation" "N" 24) (om-load-inputfun 'input-funbox "no documentation" "PUNTOS" (list 0 5 7))) (om-make-point 650 372) (om-make-point 215 178) (if (find-class 'n-cercle nil) (make-instance 'n-cercle :n 24 :puntos (list (list 0 1 4) (list 6 7 10) (list 12 13 16) (list 18 19 22)) :from-file t)) nil nil (corrige (pairlis '(deltapict outport inport zoom palette-mode obj-mode cmnpref notechancolor? grillestep mode winsize winpos show-stems) (list (om-make-point 0 0) 0 0 1 0 0 (let ((newobj (make-instance 'edition-values))) (setf (paper-size newobj) (om-make-point 600 800)) (setf (top-margin newobj) 2) (setf (left-margin newobj) 1) (setf (right-margin newobj) 1) (setf (bottom-margin newobj) 1) (setf (orientation newobj) nil) (setf (scale newobj) nil) (setf (system-space newobj) '(1)) (setf (line-space newobj) 1) (setf (title newobj) nil) (setf (show-title? newobj) nil) (setf (show-page? newobj) nil) (setf (sheet-id newobj) nil) (setf (page-mode newobj) nil) newobj) nil 1000 0 18350450 2621450 't))) t nil nil) (om-load-boxcall 'bastype "aux1" 't 'nil (om-make-point 804 122) (om-make-point 38 22) (list 0 1 4) "(0 1 4)" nil) (om-load-boxcall 'bastype "aux5" 't 'nil (om-make-point 132 56) (om-make-point 25 20) 12 "12" nil) (om-load-boxcall 'bastype "aux2" 't 'nil (om-make-point 24 149) (om-make-point 23 20) 2 "2" nil) (om-load-editor-box1 "N-CERCLE" 'n-cercle '((om-load-inputfun 'input-funbox "objs" "SELF" nil) (om-load-inputfun 'input-funbox "no documentation" "N" 24) (om-load-inputfun 'input-funbox "no documentation" "PUNTOS" (list 0 5 7))) (om-make-point 275 394) (om-make-point 165 150) (if (find-class 'n-cercle nil) (make-instance 'n-cercle :n 24 :puntos (list (list 0 1 3 4 6 7 9 10)) :from-file t)) nil nil (corrige (pairlis '(deltapict outport inport zoom palette-mode obj-mode cmnpref notechancolor? grillestep mode winsize winpos show-stems) (list (om-make-point 0 0) 0 0 1 0 0 (let ((newobj (make-instance 'edition-values))) (setf (paper-size newobj) (om-make-point 600 800)) (setf (top-margin newobj) 2) (setf (left-margin newobj) 1) (setf (right-margin newobj) 1) (setf (bottom-margin newobj) 1) (setf (orientation newobj) nil) (setf (scale newobj) nil) (setf (system-space newobj) '(1)) (setf (line-space newobj) 1) (setf (title newobj) nil) (setf (show-title? newobj) nil) (setf (show-page? newobj) nil) (setf (sheet-id newobj) nil) (setf (page-mode newobj) nil) newobj) nil 1000 0 18350450 2621450 't))) t nil nil) (om-load-boxcall 'genfun "FLAT" 'flat '((om-load-inputfun 'input-funbox "one list" "LST" nil)) (om-make-point 273 277) nil nil nil nil 1) (om-load-editor-box1 "N-CERCLE" 'n-cercle '((om-load-inputfun 'input-funbox "objs" "SELF" nil) (om-load-inputfun 'input-funbox "no documentation" "N" 12) (om-load-inputfun 'input-funbox "no documentation" "PUNTOS" (list 0 5 7))) (om-make-point 18 262) (om-make-point 126 121) (if (find-class 'n-cercle nil) (make-instance 'n-cercle :n 12 :puntos (list (list 0 3 6 9)) :from-file t)) nil nil (corrige (pairlis '(deltapict outport inport zoom palette-mode obj-mode cmnpref notechancolor? grillestep mode winsize winpos show-stems) (list (om-make-point 0 0) 0 0 1 0 0 (let ((newobj (make-instance 'edition-values))) (setf (paper-size newobj) (om-make-point 600 800)) (setf (top-margin newobj) 2) (setf (left-margin newobj) 1) (setf (right-margin newobj) 1) (setf (bottom-margin newobj) 1) (setf (orientation newobj) nil) (setf (scale newobj) nil) (setf (system-space newobj) '(1)) (setf (line-space newobj) 1) (setf (title newobj) nil) (setf (show-title? newobj) nil) (setf (show-page? newobj) nil) (setf (sheet-id newobj) nil) (setf (page-mode newobj) nil) newobj) nil 1000 0 18350450 2621450 't))) t nil nil) (om-load-boxcall 'lispfun "NTH" 'nth '((om-load-inputfun 'input-funbox "N" "N" nil) (om-load-inputfun 'input-funbox "LIST" "LIST" nil)) (om-make-point 49 196) nil nil nil nil 1) (om-load-editor-box1 "N-CERCLE1" 'n-cercle '((om-load-inputfun 'input-funbox "objs" "SELF" nil) (om-load-inputfun 'input-funbox "no documentation" "N" 24) (om-load-inputfun 'input-funbox "no documentation" "PUNTOS" (list 0 5 7))) (om-make-point 58 394) (om-make-point 166 146) (if (find-class 'n-cercle nil) (make-instance 'n-cercle :n 12 :puntos (list (list 0 1) (list 3 4) (list 6 7) (list 9 10)) :from-file t)) "x" nil (corrige (pairlis '(deltapict outport inport zoom palette-mode obj-mode cmnpref notechancolor? grillestep mode winsize winpos show-stems) (list (om-make-point 0 0) 0 0 1 0 0 (let ((newobj (make-instance 'edition-values))) (setf (paper-size newobj) (om-make-point 600 800)) (setf (top-margin newobj) 2) (setf (left-margin newobj) 1) (setf (right-margin newobj) 1) (setf (bottom-margin newobj) 1) (setf (orientation newobj) nil) (setf (scale newobj) nil) (setf (system-space newobj) '(1)) (setf (line-space newobj) 1) (setf (title newobj) nil) (setf (show-title? newobj) nil) (setf (show-page? newobj) nil) (setf (sheet-id newobj) nil) (setf (page-mode newobj) nil) newobj) nil 1000 0 18350450 2621450 't))) t nil nil) (om-load-boxcall 'bastype "aux1" 't 'nil (om-make-point 174 173) (om-make-point 24 20) (list 0 1) "(0 1)" nil) (om-load-boxcomment "comment" (om-make-point 1034 54) '"Chord multiplication and transposition limited modes" "" (om-make-point 62 0) nil (om-make-color 10/51 52/255 199/255) (om-make-font "Geneva" 36 :family nil :style 'nil :mode nil))) '((10 0 0 0 nil 0) (18 0 1 0 nil 0) (15 0 2 0 nil 0) (17 0 2 1 nil 0) (10 0 2 2 nil 0) (23 0 3 0 nil 0) (25 0 3 1 nil 0) (18 0 3 2 nil 0) (13 0 4 0 nil 0) (21 0 5 0 nil 0) (7 0 6 0 nil 0) (20 0 7 0 nil 0) (9 0 8 0 nil 0) (12 0 9 0 nil 0) (4 0 12 2 nil 0) (16 2 13 0 nil 0) (15 0 14 2 nil 0) (11 0 15 0 nil 0) (0 0 15 1 nil 0) (10 0 16 1 nil 0) (2 0 16 2 nil 0) (5 0 20 2 nil 0) (24 2 21 0 nil 0) (23 0 22 2 nil 0) (19 0 23 0 nil 0) (1 0 23 1 nil 0) (18 0 24 1 nil 0) (3 0 24 2 nil 0)) (list (let ((newpict (make-instance 'patch-picture :name '|USER-ciel|))) (setf (thepict newpict) (om-get-picture '|USER-ciel|)) (setf (name newpict) '|USER-ciel|) (setf (pict-pos newpict) (om-make-point 4 60)) (setf (pict-size newpict) (om-make-point 495 598)) newpict) (let ((newpict (make-instance 'patch-picture :name '|USER-ciel|))) (setf (thepict newpict) (om-get-picture '|USER-ciel|)) (setf (name newpict) '|USER-ciel|) (setf (pict-pos newpict) (om-make-point 530 59)) (setf (pict-size newpict) (om-make-point 591 608)) newpict)) 5.0))
