; OM File Header - Saved 2011/10/19 16:13:15
; (6.0501 :patc (om-make-point 52 161) (om-make-point 297 27) (om-make-point 960 731) "non documentation" 183 0 nil nil)
; End File Header
(in-package :om)(load-lib-for (quote nil))(setf *om-current-persistent* (om-load-patch1 "05-sdif-classes" (quote ((om-load-boxcall (quote bastype) "aux 4" (quote t) (quote nil) (om-make-point 729 347) (om-make-point 127 43) (list 1 44.0 0.7 0.006 2 608.5 0.02 0.009) "(1 44.0 0.7 0.006$2 608.5 0.02 0.009)" nil) (om-load-boxcall (quote bastype) "aux 3" (quote t) (quote nil) (om-make-point 691 363) (om-make-point 21 30) 4 "4" nil) (om-load-boxcall (quote bastype) "aux 2" (quote t) (quote nil) (om-make-point 669 363) (om-make-point 21 30) 2 "2" nil) (om-load-boxcall (quote bastype) "aux" (quote t) (quote nil) (om-make-point 612 361) (om-make-point 54 30) "1TRC" "\"1TRC\"" nil) (om-load-boxcomment "comment" (om-make-point 249 83) (quote "Raw-SDIFMatrix provide an optimized access to write SDIF files. Data is pre-ordered as a sequence of components fields values.") "" (om-make-point 621 484) nil (om-make-color 0 0 0) (om-make-font "Gill Sans" 14.0 :family "Gill Sans" :style (quote (:plain)) :mode (quote nil))) (om-load-boxcomment "comment" (om-make-point 174 80) (quote "- type signature$- number of rows$- number of columns (fields)$- flat list of data") "" (om-make-point 752 397) nil (om-make-color 0 0 0) (om-make-font "Gill Sans" 14.0 :family "Gill Sans" :style (quote (:plain)) :mode (quote nil))) (om-load-boxcomment "comment" (om-make-point 154 32) (quote "RAW-SDIFMATRIX") "" (om-make-point 631 296) nil (om-make-color 0 0 0) (om-make-font "Gill Sans" 14.0 :family "Gill Sans" :style (quote (:bold)) :mode (quote nil))) (om-load-editor-box1 "RAW-SDIFMATRIX" (quote raw-sdifmatrix) (quote ((om-load-inputfun (quote input-funbox) "object" "self" nil) (om-load-inputfun (quote input-funbox) "SDIF type signature" "signature" "1TRC") (om-load-inputfun (quote input-funbox) "number of elements" "num-elts" 1) (om-load-inputfun (quote input-funbox) "number of fields" "num-fields" 1) (om-load-inputfun (quote input-funbox) "data list" "data" nil))) (om-make-point 623 393) (om-make-point 111 80) (if (find-class (quote raw-sdifmatrix) nil) (make-instance (quote raw-sdifmatrix) :signature "" :num-elts 1 :num-fields 1 :data nil :from-file t)) nil nil (pairlis (quote (winpos winsize)) (list (om-make-point 10 40) (om-make-point 335 275))) nil nil nil t) (om-load-editor-box1 "SDIF-BUFFER" (quote sdif-buffer) (quote ((om-load-inputfun (quote input-funbox) "object" "self" nil) (om-load-inputfun (quote input-funbox) "list of SDIFType" "types" nil) (om-load-inputfun (quote input-funbox) "list of SDIFNVT" "nvts" nil) (om-load-inputfun (quote input-funbox) "list of SDIFStream or SDIFFrame" "lframes" nil))) (om-make-point 181 584) (om-make-point 121 54) (make-instance (quote sdif-buffer)) nil nil (pairlis (quote (winpos winsize)) (list (om-make-point 10 40) (om-make-point 335 275))) nil nil nil nil) (om-load-boxcomment "comment" (om-make-point 154 32) (quote "Equivalent to an SDIFFile") "" (om-make-point 6 599) nil (om-make-color 0 0 0) (om-make-font "Gill Sans" 14.0 :family "Gill Sans" :style (quote (:plain)) :mode (quote nil))) (om-load-boxcomment "comment" (om-make-point 229 63) (quote "- List of SDIFType$- List of SDIFNVTs or SDIFSIDs$- List of SDIFFrames or SDIFStream") "" (om-make-point 304 583) nil (om-make-color 0 0 0) (om-make-font "Gill Sans" 14.0 :family "Gill Sans" :style (quote (:plain)) :mode (quote nil))) (om-load-boxcomment "comment" (om-make-point 104 32) (quote "SDIFBUFFER") "" (om-make-point 60 580) nil (om-make-color 0 0 0) (om-make-font "Gill Sans" 14.0 :family "Gill Sans" :style (quote (:bold)) :mode (quote nil))) (om-load-boxcomment "comment" (om-make-point 226 32) (quote "(All frames' streamID are converted)") "" (om-make-point 314 531) nil (om-make-color 0 0 0) (om-make-font "Gill Sans" 14.0 :family "Gill Sans" :style (quote (:plain)) :mode (quote nil))) (om-load-boxcomment "comment" (om-make-point 109 32) (quote "SDIFSTREAM") "" (om-make-point 58 493) nil (om-make-color 0 0 0) (om-make-font "Gill Sans" 14.0 :family "Gill Sans" :style (quote (:bold)) :mode (quote nil))) (om-load-boxcomment "comment" (om-make-point 129 48) (quote "- streamID$- List of SDIFFrames") "" (om-make-point 314 494) nil (om-make-color 0 0 0) (om-make-font "Gill Sans" 14.0 :family "Gill Sans" :style (quote (:plain)) :mode (quote nil))) (om-load-boxcomment "comment" (om-make-point 125 80) (quote "- type signature$- time$- streamID$- List of SDIFMatrix") "" (om-make-point 315 387) nil (om-make-color 0 0 0) (om-make-font "Gill Sans" 14.0 :family "Gill Sans" :style (quote (:plain)) :mode (quote nil))) (om-load-boxcomment "comment" (om-make-point 98 32) (quote "SDIFFRAME") "" (om-make-point 60 401) nil (om-make-color 0 0 0) (om-make-font "Gill Sans" 14.0 :family "Gill Sans" :style (quote (:bold)) :mode (quote nil))) (om-load-editor-box1 "SDIFFRAME" (quote sdifframe) (quote ((om-load-inputfun (quote input-funbox) "objs" "SELF" nil) (om-load-inputfun (quote input-funbox) "no documentation" "SIGNATURE" nil) (om-load-inputfun (quote input-funbox) "no documentation" "FTIME" 0.0) (om-load-inputfun (quote input-funbox) "no documentation" "STREAMID" 0) (om-load-inputfun (quote input-funbox) "no documentation" "LMATRIX" nil))) (om-make-point 181 389) (om-make-point 118 84) (if (find-class (quote sdifframe) nil) (make-instance (quote sdifframe) :signature nil :ftime 0.0 :streamid 0 :lmatrix nil :from-file t)) nil nil (pairlis (quote (show-stems obj-mode palette-mode winpos winsize deltapict outport inport zoom cmnpref notechancolor? grillestep mode)) (list (quote t) 0 0 (om-make-point 40 10) (om-make-point 370 280) (om-make-point 0 0) 0 0 1 (let ((newobj (make-instance (quote edition-values)))) (setf (paper-size newobj) (om-make-point 600 800)) (setf (top-margin newobj) 2) (setf (left-margin newobj) 1) (setf (right-margin newobj) 1) (setf (bottom-margin newobj) 1) (setf (orientation newobj) nil) (setf (scale newobj) nil) (setf (system-space newobj) (quote (1))) (setf (system-color newobj) (quote nil)) (setf (line-space newobj) 1) (setf (title newobj) nil) (setf (show-title? newobj) nil) (setf (show-page? newobj) nil) (setf (sheet-id newobj) nil) (setf (page-mode newobj) nil) newobj) nil 1000 0)) nil nil nil nil) (om-load-boxcomment "comment" (om-make-point 108 32) (quote "SDIFMATRIX") "" (om-make-point 561 68) nil (om-make-color 0 0 0) (om-make-font "Gill Sans" 14.0 :family "Gill Sans" :style (quote (:bold)) :mode (quote nil))) (om-load-boxcomment "comment" (om-make-point 86 32) (quote "SDIFTYPE") "" (om-make-point 47 98) nil (om-make-color 0 0 0) (om-make-font "Gill Sans" 14.0 :family "Gill Sans" :style (quote (:bold)) :mode (quote nil))) (om-load-boxcomment "comment" (om-make-point 208 81) (quote "SDIF matrix data can be set following the various ways allowed by the Class-Array$(lists, bpf, function, etc.)") "" (om-make-point 368 266) nil (om-make-color 0 0 0) (om-make-font "Gill Sans" 14.0 :family "Gill Sans" :style (quote (:plain)) :mode (quote nil))) (om-load-boxcomment "comment" (om-make-point 168 60) (quote "Add/Remove matrix columns using k/K keys") "" (om-make-point 577 215) nil (om-make-color 0 0 0) (om-make-font "Gill Sans" 14.0 :family "Gill Sans" :style (quote (:plain)) :mode (quote nil))) (om-load-boxcomment "comment" (om-make-point 120 64) (quote "- number of rows$- type signature$- n columns (fields)") "" (om-make-point 579 153) nil (om-make-color 0 0 0) (om-make-font "Gill Sans" 14.0 :family "Gill Sans" :style (quote (:plain)) :mode (quote nil))) (om-load-boxcomment "comment" (om-make-point 246 47) (quote "When creating an SDIF file, all new (user-defined) types must be declared") "" (om-make-point 43 241) nil (om-make-color 0 0 0) (om-make-font "Gill Sans" 14.0 :family "Gill Sans" :style (quote (:plain)) :mode (quote nil))) (om-load-boxcomment "comment" (om-make-point 160 63) (quote "- frame or matrix?$- Signature (\"XXXX\")$- Description") "" (om-make-point 46 118) nil (om-make-color 0 0 0) (om-make-font "Gill Sans" 14.0 :family "Gill Sans" :style (quote (:plain)) :mode (quote nil))) (om-load-boxcomment "comment" (om-make-point 252 32) (quote "Create and process your own SDIF data...") "" (om-make-point 119 39) nil (om-make-color 0 0 0) (om-make-font "Gill Sans" 14.0 :family "Gill Sans" :style (quote (:plain)) :mode (quote nil))) (om-load-boxcomment "comment" (om-make-point 164 56) (quote "SDIF Classes") "" (om-make-point 118 10) nil (om-make-color 0.19215687 0.2627451 0.42352942) (om-make-font "Gill Sans" 18.0 :family "Gill Sans" :style (quote (:bold)) :mode (quote nil))) (om-load-editor-box1 "SDIFSTREAM" (quote sdifstream) (quote ((om-load-inputfun (quote input-funbox) "objs" "SELF" nil) (om-load-inputfun (quote input-funbox) "no documentation" "ID" 0) (om-load-inputfun (quote input-funbox) "no documentation" "LFRAMES" nil))) (om-make-point 179 487) (om-make-point 123 76) (if (find-class (quote sdifstream) nil) (make-instance (quote sdifstream) :id 0 :lframes nil :from-file t)) nil nil (pairlis (quote (mode grillestep notechancolor? cmnpref zoom inport outport deltapict winsize winpos palette-mode obj-mode show-stems)) (list 0 1000 nil (let ((newobj (make-instance (quote edition-values)))) (setf (paper-size newobj) (om-make-point 600 800)) (setf (top-margin newobj) 2) (setf (left-margin newobj) 1) (setf (right-margin newobj) 1) (setf (bottom-margin newobj) 1) (setf (orientation newobj) nil) (setf (scale newobj) nil) (setf (system-space newobj) (quote (1))) (setf (system-color newobj) (quote nil)) (setf (line-space newobj) 1) (setf (title newobj) nil) (setf (show-title? newobj) nil) (setf (show-page? newobj) nil) (setf (sheet-id newobj) nil) (setf (page-mode newobj) nil) newobj) 1 0 0 (om-make-point 0 0) (om-make-point 370 280) (om-make-point 40 10) 0 0 (quote t))) nil nil nil nil) (om-load-editor-box1 "SDIFTYPE" (quote sdiftype) (quote ((om-load-inputfun (quote input-funbox) "object" "self" nil) (om-load-inputfunmenu1 (quote input-funmenu) "Frame/Matrix" "struct" (quote m) (list (list "Frame" (quote (quote f))) (list "Matrix" (quote (quote m))))) (om-load-inputfun (quote input-funbox) "signature (4 chars)" "signature" "XMAT") (om-load-inputfun (quote input-funbox) "description du type" "description" (list "par1" "par2" "par3")))) (om-make-point 133 185) (om-make-point 70 50) (if (find-class (quote sdiftype) nil) (make-instance (quote sdiftype) :struct (quote m) :signature "XMAT" :description (list "par1" "par2" "par3") :from-file t)) "x" nil (pairlis (quote (mode grillestep notechancolor? cmnpref zoom inport outport deltapict winsize winpos palette-mode obj-mode show-stems)) (list 0 1000 nil (let ((newobj (make-instance (quote edition-values)))) (setf (paper-size newobj) (om-make-point 600 800)) (setf (top-margin newobj) 2) (setf (left-margin newobj) 1) (setf (right-margin newobj) 1) (setf (bottom-margin newobj) 1) (setf (orientation newobj) nil) (setf (scale newobj) nil) (setf (system-space newobj) (quote (1))) (setf (system-color newobj) (quote nil)) (setf (line-space newobj) 1) (setf (title newobj) nil) (setf (show-title? newobj) nil) (setf (show-page? newobj) nil) (setf (sheet-id newobj) nil) (setf (page-mode newobj) nil) newobj) 1 0 0 (om-make-point 0 0) (om-make-point 370 280) (om-make-point 40 10) 0 0 (quote t))) nil nil nil nil) (om-load-boxcall (quote bastype) "aux2" (quote t) (quote nil) (om-make-point 399 102) (om-make-point 52 28) "XMAT" "\"XMAT\"" nil) (om-load-editor-box1 "SDIFTYPE" (quote sdiftype) (quote ((om-load-inputfun (quote input-funbox) "object" "self" nil) (om-load-inputfunmenu1 (quote input-funmenu) "Frame/Matrix" "struct" (quote f) (list (list "Frame" (quote (quote f))) (list "Matrix" (quote (quote m))))) (om-load-inputfun (quote input-funbox) "signature (4 chars)" "signature" "XFRA") (om-load-inputfun (quote input-funbox) "description du type" "description" (list (list "XNFO" "InfoMat") (list "XMAT" "datamat"))))) (om-make-point 47 184) (om-make-point 70 50) (if (find-class (quote sdiftype) nil) (make-instance (quote sdiftype) :struct (quote f) :signature "XFRA" :description (list (list "XNFO" "InfoMat") (list "XMAT" "datamat")) :from-file t)) "x" nil (pairlis (quote (mode grillestep notechancolor? cmnpref zoom inport outport deltapict winsize winpos palette-mode obj-mode show-stems)) (list 0 1000 nil (let ((newobj (make-instance (quote edition-values)))) (setf (paper-size newobj) (om-make-point 600 800)) (setf (top-margin newobj) 2) (setf (left-margin newobj) 1) (setf (right-margin newobj) 1) (setf (bottom-margin newobj) 1) (setf (orientation newobj) nil) (setf (scale newobj) nil) (setf (system-space newobj) (quote (1))) (setf (system-color newobj) (quote nil)) (setf (line-space newobj) 1) (setf (title newobj) nil) (setf (show-title? newobj) nil) (setf (show-page? newobj) nil) (setf (sheet-id newobj) nil) (setf (page-mode newobj) nil) newobj) 1 0 0 (om-make-point 0 0) (om-make-point 370 280) (om-make-point 40 10) 0 0 (quote t))) nil nil nil nil) (om-load-boxcall (quote bastype) "list" (quote list) (quote nil) (om-make-point 563 105) (om-make-point 60 28) (list 5 7 8 2) "(5 7 8 2)" nil) (om-load-editor-box1 "SDIFMATRIX1" (quote sdifmatrix) (quote ((om-load-inputfun (quote input-funbox) "object or object list" "self" nil) (om-load-inputfun (quote input-funbox) "How many matrix fields?" "numrows" 30) (om-load-inputfun (quote input-funbox) "matrix type" "signature" "") (om-load-inputkeyword (quote control-keyword) "Optional control keyword. There exists 2 special keywords :attributes and :parsingFun" "Control input" (quote :par1) nil nil) (om-load-inputkeyword (quote control-keyword) "Optional control keyword. There exists 2 special keywords :attributes and :parsingFun" "Control input" (quote :par2) nil nil) (om-load-inputkeyword (quote control-keyword) "Optional control keyword. There exists 2 special keywords :attributes and :parsingFun" "Control input" (quote :par3) nil nil))) (om-make-point 366 136) (om-make-point 180 111) (if (find-class (quote sdifmatrix) nil) (let ((array (make-instance (quote sdifmatrix) :numcols 30))) (setf (slot-value array (quote attached-components)) nil) (setf (slot-value array (quote signature)) "XMAT") (setf (lcontrols array) (list (list (quote :par1) (let ((newobj (when (find-class (quote bpf) nil) (let ((newbpf (simple-bpf-from-list (quote (0 18 32 40 42 67 78 94 100)) (quote (0 60 54 10 44 13 39 43 100)) (quote bpf) 0))) (setf (bpfcolor newbpf) (om-make-color 0 0 0)) (set-name newbpf nil) newbpf)))) newobj)) (list (quote :par2) (list 0 60 54 10 44 13 39 43 100)) (list (quote :par3) (list 5 7 8 2)))) (setf (data array) nil) array)) nil nil (pairlis (quote (winpos winsize color-list show-opt-fields cur-group-ind panel-list)) (list (om-make-point 10 40) (om-make-point 335 275) (list (om-make-color 0 0 0) (om-make-color 0 0 0) (om-make-color 0 0 0)) (quote t) 0 (list (list "All open" (list 0 (quote t)) (list 1 (quote t)) (list 2 (quote t))) (list "All close" (list 0 nil) (list 1 nil) (list 2 nil))))) nil nil nil nil) (om-load-editor-box1 "BPF" (quote bpf) (quote ((om-load-inputfun (quote input-funbox) "objs" "SELF" nil) (om-load-inputfun (quote input-funbox) "no documentation" "X-POINTS" (list 0 10)) (om-load-inputfun (quote input-funbox) "no documentation" "Y-POINTS" (list 0 100)) (om-load-inputfun (quote input-funbox) "no documentation" "DECIMALS" 0))) (om-make-point 456 43) (om-make-point 78 74) (let ((newobj (when (find-class (quote bpf) nil) (let ((newbpf (simple-bpf-from-list (quote (0 18 32 40 42 67 78 94 100)) (quote (0 60 54 10 44 13 39 43 100)) (quote bpf) 0))) (setf (bpfcolor newbpf) (om-make-color 0 0 0)) (set-name newbpf nil) newbpf)))) newobj) "x" nil (pairlis (quote (mode grillestep notechancolor? cmnpref zoom inport outport deltapict winsize winpos palette-mode obj-mode show-stems picture)) (list 0 1000 nil (let ((newobj (make-instance (quote edition-values)))) (setf (paper-size newobj) (om-make-point 600 800)) (setf (top-margin newobj) 2) (setf (left-margin newobj) 1) (setf (right-margin newobj) 1) (setf (bottom-margin newobj) 1) (setf (orientation newobj) nil) (setf (scale newobj) nil) (setf (system-space newobj) (quote (1))) (setf (system-color newobj) (quote nil)) (setf (line-space newobj) 1) (setf (title newobj) nil) (setf (show-title? newobj) nil) (setf (show-page? newobj) nil) (setf (sheet-id newobj) nil) (setf (page-mode newobj) nil) newobj) 1 0 0 (om-make-point 0 0) (om-make-point 370 280) (om-make-point 40 10) 0 0 (quote t) nil)) t nil nil nil))) (quote ((3 0 7 1 nil 0) (2 0 7 2 nil 0) (1 0 7 3 nil 0) (0 0 7 4 nil 0) (29 0 32 2 nil 0) (33 0 32 3 nil 0) (33 2 32 4 nil 0) (31 0 32 5 nil 0))) nil 6.0501))
