; OM File Header - Saved 2008/11/07 13:50:39
; (6.04 :patc (om-make-point 183 29) (om-make-point 50 50) (om-make-point 500 400) "No documentation " 183 0 nil "2008/11/06 16:33:27")
; End File Header
(in-package :om)(load-lib-for (quote ("profile")))(setf *om-current-persistent* (om-load-patch1 "interpol-tab" (quote ((om-load-editor-box1 "BPF" (quote bpf) (quote ((om-load-inputfun (quote input-funbox) "objs" "SELF" nil) (om-load-inputfun (quote input-funbox) "X-POINTS" "X-POINTS" (list 0 10)) (om-load-inputfun (quote input-funbox) "Y-POINTS" "Y-POINTS" (list 0 100)))) (om-make-point 318 110) (om-make-point 70 89) (let ((newobj (when (find-class (quote bpf) nil) (let ((newbpf (simple-bpf-from-list (quote (0 1 7 10)) (quote (0 88 24 100)) (quote bpf) 0))) (setf (bpfcolor newbpf) (om-make-color 0 0 0)) newbpf)))) newobj) "x" nil (pairlis (quote (obj-mode palette-mode inport outport deltapict zoom cmnpref notechancolor? grillestep mode winsize winpos show-stems)) (list 0 0 0 0 (om-make-point 0 0) 1 (let ((newobj (make-instance (quote edition-values)))) (setf (paper-size newobj) (om-make-point 600 800)) (setf (top-margin newobj) 2) (setf (left-margin newobj) 1) (setf (right-margin newobj) 1) (setf (bottom-margin newobj) 1) (setf (orientation newobj) nil) (setf (scale newobj) nil) (setf (system-space newobj) (quote (1))) (setf (line-space newobj) 1) (setf (title newobj) nil) (setf (show-title? newobj) nil) (setf (show-page? newobj) nil) (setf (sheet-id newobj) nil) (setf (page-mode newobj) nil) newobj) nil 1000 0 18350450 2621450 (quote t))) t nil nil nil) (om-load-boxcall (quote bastype) "aux2" (quote t) (quote nil) (om-make-point 251 189) (om-make-point 26 28) 10 "10" nil) (om-load-boxcall (quote bastype) "aux1" (quote t) (quote nil) (om-make-point 185 157) (om-make-point 100 28) (list 10 20 30 40 50) "(10 20 30 40 50)" nil) (om-load-boxcall (quote bastype) "aux" (quote t) (quote nil) (om-make-point 128 190) (om-make-point 70 28) (list 1 2 3 4 5) "(1 2 3 4 5)" nil) (om-load-boxcall (quote genfun) "INTERPOL-TAB" (quote |Profile|::interpol-tab) (quote ((om-load-inputfun (quote input-funbox) "list" "BEGIN" (list 1 2 3 4 5)) (om-load-inputfun (quote input-funbox) "number" "END" 2) (om-load-inputfun (quote input-funbox) "" "STEPS" 1) (om-load-inputfun (quote input-funbox) "" "TAB" (let ((newobj (when (find-class (quote bpf) nil) (let ((newbpf (simple-bpf-from-list (quote (0 100)) (quote (0 100)) (quote bpf) 0))) (setf (bpfcolor newbpf) (om-make-color 0 0 0)) newbpf)))) newobj)) (om-load-inputfunmenu1 (quote input-funmenu) "" "INCLU?" 0 (list (list "yes" 1) (list "no" 2))))) (om-make-point 175 232) (om-make-point 174 61) nil nil "interpol-tab" 1))) (quote ((3 0 4 0 nil 0) (2 0 4 1 nil 0) (1 0 4 2 nil 0) (0 0 4 3 nil 0))) nil 6.04))
