; OM File Header - Saved 2008/11/07 13:50:39
; (6.04 :patc (om-make-point 210 90) (om-make-point 50 50) (om-make-point 507 526) "No documentation " 183 0 nil "2008/11/06 16:35:38")
; End File Header
(in-package :om)(load-lib-for (quote ("profile")))(setf *om-current-persistent* (om-load-patch1 "range-approx" (quote ((om-load-boxcall (quote bastype) "aux2" (quote t) (quote nil) (om-make-point 249 310) (om-make-point 52 28) (list 0 100) "(0 100)" nil) (om-load-editor-box1 "CHORD-SEQ" (quote chord-seq) (quote ((om-load-inputfun (quote input-funbox) "objs" "SELF" nil) (om-load-inputfun (quote input-funbox) "LMIDIC" "LMIDIC" (list 6000)) (om-load-inputfun (quote input-funbox) "LONSET" "LONSET" (list 0 1000)) (om-load-inputfun (quote input-funbox) "LDUR" "LDUR" (list 1000)) (om-load-inputfun (quote input-funbox) "LVEL" "LVEL" (list 100)) (om-load-inputfun (quote input-funbox) "LOFFSET" "LOFFSET" (list 0)) (om-load-inputfun (quote input-funbox) "LCHAN" "LCHAN" (list 1)) (om-load-inputfun (quote input-funbox) "LEGATO" "LEGATO" 0))) (om-make-point 189 356) (om-make-point 218 114) (let ((newobj (when (find-class (quote chord-seq) nil) (make-instance (quote chord-seq) :lmidic (quote ((6000) (4200) (4800) (4700) (4700) (6800) (5600) (5000) (4100) (6300) (6300) (7100) (5200) (5900) (7100) (6000) (4500) (6200) (6600))) :lonset (quote (0 100 200 300 400 500 600 700 800 900 1000 1100 1200 1300 1400 1500 1600 1700 1800 1900)) :ldur (quote ((1000) (1000) (1000) (1000) (1000) (1000) (1000) (1000) (1000) (1000) (1000) (1000) (1000) (1000) (1000) (1000) (1000) (1000) (1000))) :lvel (quote ((100) (100) (100) (100) (100) (100) (100) (100) (100) (100) (100) (100) (100) (100) (100) (100) (100) (100) (100))) :loffset (quote ((0) (0) (0) (0) (0) (0) (0) (0) (0) (0) (0) (0) (0) (0) (0) (0) (0) (0) (0))) :lchan (quote ((1) (1) (1) (1) (1) (1) (1) (1) (1) (1) (1) (1) (1) (1) (1) (1) (1) (1) (1))) :legato 0)))) (load-port-info newobj (quote ((0) (0) (0) (0) (0) (0) (0) (0) (0) (0) (0) (0) (0) (0) (0) (0) (0) (0) (0)))) (init-mus-color newobj (quote nil)) (set-extra-pairs newobj (quote nil)) (set-patch-pairs newobj (quote ((nil (om-load-patch-abs1 "patch" (quote nil) (quote nil) 6.04 nil))))) (set-tonalite newobj nil) newobj) "x" nil (pairlis (quote (scale microplay obj-mode palette-mode inport outport approx fontsize staff cmnpref deltapict zoom notechancolor? grillestep mode winsize winpos show-stems)) (list nil nil 0 0 0 0 2 24 (quote gf) (let ((newobj (make-instance (quote edition-values)))) (setf (paper-size newobj) (om-make-point 600 800)) (setf (top-margin newobj) 2) (setf (left-margin newobj) 1) (setf (right-margin newobj) 1) (setf (bottom-margin newobj) 1) (setf (orientation newobj) nil) (setf (scale newobj) nil) (setf (system-space newobj) (quote (1))) (setf (line-space newobj) 1) (setf (title newobj) nil) (setf (show-title? newobj) nil) (setf (show-page? newobj) nil) (setf (sheet-id newobj) nil) (setf (page-mode newobj) nil) newobj) (om-make-point 0 0) 1 nil 1000 0 18350450 2621450 (quote t))) t nil nil nil) (om-load-boxcall (quote genfun) "RANGE-APPROX" (quote |Profile|::range-approx) (quote ((om-load-inputfun (quote input-funbox) "list" "LIST" (list 1 2 3 4 5)) (om-load-inputfun (quote input-funbox) "number" "LIMIT" (list 1 2 3 4 5)) (om-load-inputfunmenu1 (quote input-funmenu) "" "INCLU?" 2 (list (list "yes" 1) (list "non" 2))))) (om-make-point 170 266) nil nil nil nil 1) (om-load-boxcall (quote bastype) "aux1" (quote t) (quote nil) (om-make-point 235 73) (om-make-point 75 29) (list 4100 7200) "(4100 7200)" nil) (om-load-editor-box1 "CHORD1" (quote chord) (quote ((om-load-inputfun (quote input-funbox) "objs" "SELF" nil) (om-load-inputfun (quote input-funbox) "LMIDIC" "LMIDIC" (list 6000)) (om-load-inputfun (quote input-funbox) "LVEL" "LVEL" (list 100)) (om-load-inputfun (quote input-funbox) "LOFFSET" "LOFFSET" (list 0)) (om-load-inputfun (quote input-funbox) "LDUR" "LDUR" (list 1000)) (om-load-inputfun (quote input-funbox) "LCHAN" "LCHAN" (list 1)))) (om-make-point 277 114) (om-make-point 57 119) (let ((thechord (make-instance (quote chord) :lmidic (quote (4100 7200)) :ldur (quote (1000 1000)) :lvel (quote (100 100)) :loffset (quote (0 0)) :lchan (quote (1 1))))) (load-port-info thechord (quote (0 0))) thechord) nil nil (pairlis (quote (scale microplay obj-mode palette-mode inport outport approx fontsize staff cmnpref deltapict zoom notechancolor? grillestep mode winsize winpos show-stems)) (list nil nil 0 0 0 0 2 24 (quote g) (let ((newobj (make-instance (quote edition-values)))) (setf (paper-size newobj) (om-make-point 600 800)) (setf (top-margin newobj) 2) (setf (left-margin newobj) 1) (setf (right-margin newobj) 1) (setf (bottom-margin newobj) 1) (setf (orientation newobj) nil) (setf (scale newobj) nil) (setf (system-space newobj) (quote (1))) (setf (line-space newobj) 1) (setf (title newobj) nil) (setf (show-title? newobj) nil) (setf (show-page? newobj) nil) (setf (sheet-id newobj) nil) (setf (page-mode newobj) nil) newobj) (om-make-point 0 0) 1 nil 1000 0 18350450 2621450 (quote t))) t nil nil nil) (om-load-boxcall (quote bastype) "aux" (quote t) (quote nil) (om-make-point 78 28) (om-make-point 103 46) (list 6000 4200 3600 3500 2300 9200 5600 5000 2900 6300 8700 7100 4000 5900 10700 8400 2100 6200 6600) "(6000 4200 3600 3500 2300 9200 5600 5000 2900 6300 8700 7100 4000 5900 10700 8400 2100 6200 6600)" nil) (om-load-editor-box1 "CHORD" (quote chord) (quote ((om-load-inputfun (quote input-funbox) "objs" "SELF" nil) (om-load-inputfun (quote input-funbox) "LMIDIC" "LMIDIC" (list 6000)) (om-load-inputfun (quote input-funbox) "LVEL" "LVEL" (list 100)) (om-load-inputfun (quote input-funbox) "LOFFSET" "LOFFSET" (list 0)) (om-load-inputfun (quote input-funbox) "LDUR" "LDUR" (list 1000)) (om-load-inputfun (quote input-funbox) "LCHAN" "LCHAN" (list 1)))) (om-make-point 80 84) (om-make-point 103 149) (let ((thechord (make-instance (quote chord) :lmidic (quote (6000 4200 3600 3500 2300 9200 5600 5000 2900 6300 8700 7100 4000 5900 10700 8400 2100 6200 6600)) :ldur (quote (1000 1000 1000 1000 1000 1000 1000 1000 1000 1000 1000 1000 1000 1000 1000 1000 1000 1000 1000)) :lvel (quote (100 100 100 100 100 100 100 100 100 100 100 100 100 100 100 100 100 100 100)) :loffset (quote (0 0 0 0 0 0 0 0 0 0 0 0 0 0 0 0 0 0 0)) :lchan (quote (1 1 1 1 1 1 1 1 1 1 1 1 1 1 1 1 1 1 1))))) (load-port-info thechord (quote (0 0 0 0 0 0 0 0 0 0 0 0 0 0 0 0 0 0 0))) thechord) nil nil (pairlis (quote (scale microplay obj-mode palette-mode inport outport approx fontsize staff cmnpref deltapict zoom notechancolor? grillestep mode winsize winpos show-stems)) (list nil nil 0 0 0 0 2 24 (quote g) (let ((newobj (make-instance (quote edition-values)))) (setf (paper-size newobj) (om-make-point 600 800)) (setf (top-margin newobj) 2) (setf (left-margin newobj) 1) (setf (right-margin newobj) 1) (setf (bottom-margin newobj) 1) (setf (orientation newobj) nil) (setf (scale newobj) nil) (setf (system-space newobj) (quote (1))) (setf (line-space newobj) 1) (setf (title newobj) nil) (setf (show-title? newobj) nil) (setf (show-page? newobj) nil) (setf (sheet-id newobj) nil) (setf (page-mode newobj) nil) newobj) (om-make-point 0 0) 1 nil 1000 0 18350450 2621450 (quote t))) t nil nil nil))) (quote ((2 0 1 1 nil 0) (0 0 1 2 nil 0) (6 1 2 0 nil 0) (4 1 2 1 nil 0) (3 0 4 1 nil 0) (5 0 6 1 nil 0))) nil 6.04))
