; OM File Header - Saved 2008/11/07 13:50:39
; (6.04 :patc (om-make-point 27 25) (om-make-point 50 50) (om-make-point 469 283) "No documentation " 183 0 nil "2008/11/06 16:33:06")
; End File Header
(in-package :om)(load-lib-for (quote ("profile")))(setf *om-current-persistent* (om-load-patch1 "subst-list" (quote ((om-load-boxcall (quote bastype) "aux4" (quote t) (quote nil) (om-make-point 305 113) (om-make-point 20 28) 1 "1" nil) (om-load-boxcall (quote bastype) "aux3" (quote t) (quote nil) (om-make-point 271 113) (om-make-point 20 28) 1 "1" nil) (om-load-boxcall (quote bastype) "aux2" (quote t) (quote nil) (om-make-point 232 115) (om-make-point 30 28) (list 2) "(2)" nil) (om-load-boxcall (quote bastype) "aux1" (quote t) (quote nil) (om-make-point 195 87) (om-make-point 36 28) (list (quote ttt)) "(ttt)" nil) (om-load-boxcall (quote bastype) "aux" (quote t) (quote nil) (om-make-point 94 54) (om-make-point 170 28) (list 1 2 3 4 5 2 (quote oioi) (quote ppp) 2 3 22 (quote p)) "(1 2 3 4 5 2 oioi ppp 2 3 22 p)" nil) (om-load-boxcall (quote genfun) "SUBST-LIST" (quote |Profile|::subst-list) (quote ((om-load-inputfun (quote input-funbox) "list" "LIST" (list 1 2 3 4 5)) (om-load-inputfun (quote input-funbox) "number" "NEW" (list 1 2 3 4 5)) (om-load-inputfun (quote input-funbox) "" "OLD" (list 1 2 3 4 5)) (om-load-inputfun (quote input-funbox) "" "START" 1) (om-load-inputfun (quote input-funbox) "" "COUNT" 2))) (om-make-point 143 143) (om-make-point 204 61) nil nil "subst-list" 1))) (quote ((4 0 5 0 nil 0) (3 0 5 1 nil 0) (2 0 5 2 nil 0) (1 0 5 3 nil 0) (0 0 5 4 nil 0))) nil 6.04))
