; OM File Header - Saved 2009/10/22 17:10:01
; (6.04 :patc (om-make-point 148 48) (om-make-point 50 50) (om-make-point 500 400) "No documentation " 183 0 nil "2008/11/07 15:12:13")
; End File Header
(in-package :om)(load-lib-for (quote nil))(setf *om-current-persistent* (om-load-patch1 "2-Second example" (quote ((om-load-boxcall (quote bastype) "aux" (quote t) (quote nil) (om-make-point 54 73) (om-make-point 90 28) (list 3 3 5 1 9 6 8) "(3 3 5 1 9 6 8)" nil) (om-load-boxcomment "comment" (om-make-point 280 219) (quote "An example of a permutation CSP.$$Here, the domain of possible values is the set of all permutation of the values given in the input.$$The constraints are stated the same way as in cree-varliste, double click on the cree-varperm icon to see the definition.$$This CSP simply states that the list have to be in growing order.") "" (om-make-point 188 108) nil (om-make-color 0 0 0) (om-make-font "Geneva" 10 :family "Geneva" :style (quote (:plain)) :mode (quote nil))) (om-load-boxcall (quote genfun) "RESOLUTION12" (quote resolution) (quote ((om-load-inputfun (quote input-funbox) "if" "VAR" nil))) (om-make-point 41 214) nil nil nil "resolution" 1) (om-load-boxwithed1 (quote box-with-win) "CREE-VARPERM3" (quote cree-varperm) (quote ((om-load-inputfun (quote input-funbox) "no documentation" "INIT" (list 3 2 1 6 5 4)))) (om-make-point 46 131) nil nil nil (list (om-load-boxcomment "comment" (om-make-point 222 199) (quote "The current variable is represented by the i icon.$$The constraints are supposed to be stated always on any variable (the i icon) and the variables following it, here the i+ icon. To make them appear, click on the second button in the up-right corner.") "" (om-make-point 276 153) nil (om-make-color 0 0 0) (om-make-font "Geneva" 10 :family "Geneva" :style (quote (:plain)) :mode (quote nil))) (om-load-boxcall (quote genfun) "<=C" (quote <=c) (quote ((om-load-inputfun (quote input-funbox) "no documentation" "A" nil) (om-load-inputfun (quote input-funbox) "no documentation" "B" nil))) (om-make-point 138 199) nil nil nil nil 1) (om-load-var-i+ "i+" 1 (om-make-point 183 87) "no documentation" nil nil nil 1) (om-load-var-i "i" t (om-make-point 100 100) "no documentation" nil nil nil 1) (om-load-varstate "state" t (om-make-point 200 300) (quote ((om-load-inputfun (quote input-funbox) "patch" "PATCH" nil))) nil nil) (om-load-varliste "liste" t (om-make-point 5 100) "no documentation" nil nil nil)) (quote ((3 0 1 0 nil 0) (2 0 1 1 nil 0) (1 0 4 0 nil 0))) 2 "cree-varperm" nil))) (quote ((3 0 2 0 nil 0) (0 0 3 0 nil 0))) nil 6.04))
