; OM File Header - Saved 2021/07/13 20:06:15
; (6.2 :patc (om-make-point 91 15) (om-make-point 0 0) (om-make-point 1128 628) "non documentation" 183 0 nil "2021/07/11 18:03:40")
; End File Header
(in-package :om)(load-lib-for (quote nil))(setf *om-current-persistent* (om-load-patch1 "02-sievestl" (quote ((let ((box (om-load-boxcomment "comment1" (om-make-point 44 26) (quote "3-0") "" (om-make-point 718 602) nil (om-make-color 0 0 0) (om-make-font "Geneva" 12 :family "Geneva" :style (quote (:plain)) :mode (quote nil))))) (when (fboundp (quote set-active)) (set-active box nil)) box) (let ((box (om-load-boxcomment "comment1" (om-make-point 44 26) (quote "3-2") "" (om-make-point 579 492) nil (om-make-color 0 0 0) (om-make-font "Geneva" 12 :family "Geneva" :style (quote (:plain)) :mode (quote nil))))) (when (fboundp (quote set-active)) (set-active box nil)) box) (let ((box (om-load-boxcomment "comment1" (om-make-point 44 26) (quote "3-0") "" (om-make-point 305 490) nil (om-make-color 0 0 0) (om-make-font "Geneva" 12 :family "Geneva" :style (quote (:plain)) :mode (quote nil))))) (when (fboundp (quote set-active)) (set-active box nil)) box) (let ((box (om-load-boxcomment "comment" (om-make-point 209 127) (quote "Two ways of constructing the octotonic scale") "" (om-make-point 679 74) nil (om-make-color 52/85 28/255 22/85) (om-make-font "Geneva" 24 :family "Geneva" :style (quote (:plain)) :mode (quote nil))))) (when (fboundp (quote set-active)) (set-active box nil)) box) (let ((box (om-load-boxcomment "comment" (om-make-point 751 54) (quote "Sieves and transposition limited modes") "" (om-make-point 158 1) nil (om-make-color 52/85 28/255 22/85) (om-make-font "Geneva" 36 :family "Geneva" :style (quote (:plain)) :mode (quote nil))))) (when (fboundp (quote set-active)) (set-active box nil)) box) (let ((box (om-load-editor-box1 "N-CERCLE2" (quote n-cercle) (quote ((om-load-inputfun (quote input-funbox) "objs" "SELF" nil) (om-load-inputfun (quote input-funbox) "no documentation" "N" 12) (om-load-inputfun (quote input-funbox) "no documentation" "PUNTOS" (list 0 5 7)))) (om-make-point 681 483) (om-make-point 112 115) (if (find-class (quote n-cercle) nil) (make-instance (quote n-cercle) :n 12 :puntos (list (list 0 3 6 9 12)) :from-file t)) nil nil (pairlis (quote (show-stems obj-mode palette-mode winpos winsize deltapict outport inport zoom cmnpref notechancolor? grillestep mode)) (list (quote t) 0 0 (om-make-point 40 10) (om-make-point 370 280) (om-make-point 0 0) 0 0 1 (let ((newobj (make-instance (quote edition-values)))) (setf (paper-size newobj) (om-make-point 600 800)) (setf (top-margin newobj) 2) (setf (left-margin newobj) 1) (setf (right-margin newobj) 1) (setf (bottom-margin newobj) 1) (setf (orientation newobj) nil) (setf (scale newobj) nil) (setf (system-space newobj) (quote (1))) (setf (system-color newobj) (quote nil)) (setf (line-space newobj) 1) (setf (title newobj) nil) (setf (show-title? newobj) nil) (setf (show-page? newobj) nil) (setf (sheet-id newobj) nil) (setf (page-mode newobj) nil) newobj) nil 1000 0)) t nil nil nil))) (when (fboundp (quote set-active)) (set-active box nil)) box) (let ((box (om-load-boxcall (quote genfun) "REVEL-CRIBLE" (quote revel-crible) (quote ((om-load-inputfun (quote input-funbox) "no documentation" "SELF" nil))) (om-make-point 719 405) nil nil nil nil 1))) (when (fboundp (quote set-active)) (set-active box nil)) box) (let ((box (om-load-editor-box1 "N-CERCLE1" (quote n-cercle) (quote ((om-load-inputfun (quote input-funbox) "objs" "SELF" nil) (om-load-inputfun (quote input-funbox) "no documentation" "N" 12) (om-load-inputfun (quote input-funbox) "no documentation" "PUNTOS" (list 0 5 7)))) (om-make-point 859 462) (om-make-point 107 96) (if (find-class (quote n-cercle) nil) (make-instance (quote n-cercle) :n 12 :puntos (list (list 0 1 3 4 6 7 9 10 12)) :from-file t)) nil nil (pairlis (quote (show-stems obj-mode palette-mode winpos winsize deltapict outport inport zoom cmnpref notechancolor? grillestep mode)) (list (quote t) 0 0 (om-make-point 40 10) (om-make-point 370 280) (om-make-point 0 0) 0 0 1 (let ((newobj (make-instance (quote edition-values)))) (setf (paper-size newobj) (om-make-point 600 800)) (setf (top-margin newobj) 2) (setf (left-margin newobj) 1) (setf (right-margin newobj) 1) (setf (bottom-margin newobj) 1) (setf (orientation newobj) nil) (setf (scale newobj) nil) (setf (system-space newobj) (quote (1))) (setf (system-color newobj) (quote nil)) (setf (line-space newobj) 1) (setf (title newobj) nil) (setf (show-title? newobj) nil) (setf (show-page? newobj) nil) (setf (sheet-id newobj) nil) (setf (page-mode newobj) nil) newobj) nil 1000 0)) t nil nil nil))) (when (fboundp (quote set-active)) (set-active box nil)) box) (let ((box (om-load-boxcall (quote genfun) "REVEL-CRIBLE" (quote revel-crible) (quote ((om-load-inputfun (quote input-funbox) "no documentation" "SELF" nil))) (om-make-point 880 311) nil nil nil nil 1))) (when (fboundp (quote set-active)) (set-active box nil)) box) (let ((box (om-load-editor-box1 "N-CERCLE2" (quote n-cercle) (quote ((om-load-inputfun (quote input-funbox) "objs" "SELF" nil) (om-load-inputfun (quote input-funbox) "no documentation" "N" 12) (om-load-inputfun (quote input-funbox) "no documentation" "PUNTOS" (list 0 5 7)))) (om-make-point 401 432) (om-make-point 112 115) (if (find-class (quote n-cercle) nil) (make-instance (quote n-cercle) :n 12 :puntos (list (list 0 2 3 5 6 8 9 11 12)) :from-file t)) nil nil (pairlis (quote (show-stems obj-mode palette-mode winpos winsize deltapict outport inport zoom cmnpref notechancolor? grillestep mode)) (list (quote t) 0 0 (om-make-point 40 10) (om-make-point 370 280) (om-make-point 0 0) 0 0 1 (let ((newobj (make-instance (quote edition-values)))) (setf (paper-size newobj) (om-make-point 600 800)) (setf (top-margin newobj) 2) (setf (left-margin newobj) 1) (setf (right-margin newobj) 1) (setf (bottom-margin newobj) 1) (setf (orientation newobj) nil) (setf (scale newobj) nil) (setf (system-space newobj) (quote (1))) (setf (system-color newobj) (quote nil)) (setf (line-space newobj) 1) (setf (title newobj) nil) (setf (show-title? newobj) nil) (setf (show-page? newobj) nil) (setf (sheet-id newobj) nil) (setf (page-mode newobj) nil) newobj) nil 1000 0)) t nil nil nil))) (when (fboundp (quote set-active)) (set-active box nil)) box) (let ((box (om-load-boxcall (quote genfun) "REVEL-CRIBLE" (quote revel-crible) (quote ((om-load-inputfun (quote input-funbox) "no documentation" "SELF" nil))) (om-make-point 418 331) nil nil nil nil 1))) (when (fboundp (quote set-active)) (set-active box nil)) box) (let ((box (om-load-boxcall (quote genfun) "REVEL-CRIBLE" (quote revel-crible) (quote ((om-load-inputfun (quote input-funbox) "no documentation" "SELF" nil))) (om-make-point 538 249) nil nil nil nil 1))) (when (fboundp (quote set-active)) (set-active box nil)) box) (let ((box (om-load-editor-box1 "CRIBLE" (quote crible) (quote ((om-load-inputfun (quote input-funbox) "objs" "SELF" nil) (om-load-inputfun (quote input-funbox) "no documentation" "CR-EXP" (list 2 0 18)))) (om-make-point 469 109) (om-make-point 125 113) (if (find-class (quote crible) nil) (make-instance (quote crible) :cr-exp (list 3 2 12) :from-file t)) nil nil (pairlis (quote (show-stems obj-mode palette-mode winpos winsize deltapict outport inport zoom cmnpref notechancolor? grillestep mode)) (list (quote t) 0 0 (om-make-point 40 10) (om-make-point 370 280) (om-make-point 0 0) 0 0 1 (let ((newobj (make-instance (quote edition-values)))) (setf (paper-size newobj) (om-make-point 600 800)) (setf (top-margin newobj) 2) (setf (left-margin newobj) 1) (setf (right-margin newobj) 1) (setf (bottom-margin newobj) 1) (setf (orientation newobj) nil) (setf (scale newobj) nil) (setf (system-space newobj) (quote (1))) (setf (system-color newobj) (quote nil)) (setf (line-space newobj) 1) (setf (title newobj) nil) (setf (show-title? newobj) nil) (setf (show-page? newobj) nil) (setf (sheet-id newobj) nil) (setf (page-mode newobj) nil) newobj) nil 1000 0)) nil nil nil nil))) (when (fboundp (quote set-active)) (set-active box nil)) box) (let ((box (om-load-boxcall (quote bastype) "aux1" (quote t) (quote nil) (om-make-point 529 74) (om-make-point 52 30) (list 3 2 12) "(3 2 12)" nil))) (when (fboundp (quote set-active)) (set-active box nil)) box) (let ((box (om-load-editor-box1 "N-CERCLE1" (quote n-cercle) (quote ((om-load-inputfun (quote input-funbox) "objs" "SELF" nil) (om-load-inputfun (quote input-funbox) "no documentation" "N" 12) (om-load-inputfun (quote input-funbox) "no documentation" "PUNTOS" (list 0 5 7)))) (om-make-point 546 393) (om-make-point 107 96) (if (find-class (quote n-cercle) nil) (make-instance (quote n-cercle) :n 12 :puntos (list (list 2 5 8 11)) :from-file t)) nil nil (pairlis (quote (show-stems obj-mode palette-mode winpos winsize deltapict outport inport zoom cmnpref notechancolor? grillestep mode)) (list (quote t) 0 0 (om-make-point 40 10) (om-make-point 370 280) (om-make-point 0 0) 0 0 1 (let ((newobj (make-instance (quote edition-values)))) (setf (paper-size newobj) (om-make-point 600 800)) (setf (top-margin newobj) 2) (setf (left-margin newobj) 1) (setf (right-margin newobj) 1) (setf (bottom-margin newobj) 1) (setf (orientation newobj) nil) (setf (scale newobj) nil) (setf (system-space newobj) (quote (1))) (setf (system-color newobj) (quote nil)) (setf (line-space newobj) 1) (setf (title newobj) nil) (setf (show-title? newobj) nil) (setf (show-page? newobj) nil) (setf (sheet-id newobj) nil) (setf (page-mode newobj) nil) newobj) nil 1000 0)) t nil nil nil))) (when (fboundp (quote set-active)) (set-active box nil)) box) (let ((box (om-load-editor-box1 "N-CERCLE1" (quote n-cercle) (quote ((om-load-inputfun (quote input-funbox) "objs" "SELF" nil) (om-load-inputfun (quote input-funbox) "no documentation" "N" 12) (om-load-inputfun (quote input-funbox) "no documentation" "PUNTOS" (list 0 5 7)))) (om-make-point 272 392) (om-make-point 107 96) (if (find-class (quote n-cercle) nil) (make-instance (quote n-cercle) :n 12 :puntos (list (list 0 3 6 9 12)) :from-file t)) nil nil (pairlis (quote (show-stems obj-mode palette-mode winpos winsize deltapict outport inport zoom cmnpref notechancolor? grillestep mode)) (list (quote t) 0 0 (om-make-point 40 10) (om-make-point 370 280) (om-make-point 0 0) 0 0 1 (let ((newobj (make-instance (quote edition-values)))) (setf (paper-size newobj) (om-make-point 600 800)) (setf (top-margin newobj) 2) (setf (left-margin newobj) 1) (setf (right-margin newobj) 1) (setf (bottom-margin newobj) 1) (setf (orientation newobj) nil) (setf (scale newobj) nil) (setf (system-space newobj) (quote (1))) (setf (system-color newobj) (quote nil)) (setf (line-space newobj) 1) (setf (title newobj) nil) (setf (show-title? newobj) nil) (setf (show-page? newobj) nil) (setf (sheet-id newobj) nil) (setf (page-mode newobj) nil) newobj) nil 1000 0)) t nil nil nil))) (when (fboundp (quote set-active)) (set-active box nil)) box) (let ((box (om-load-boxcall (quote bastype) "aux1" (quote t) (quote nil) (om-make-point 376 71) (om-make-point 51 29) (list 3 0 12) "(3 0 12)" nil))) (when (fboundp (quote set-active)) (set-active box nil)) box) (let ((box (om-load-editor-box1 "CRIBLE" (quote crible) (quote ((om-load-inputfun (quote input-funbox) "objs" "SELF" nil) (om-load-inputfun (quote input-funbox) "no documentation" "CR-EXP" (list 2 0 18)))) (om-make-point 315 109) (om-make-point 125 113) (if (find-class (quote crible) nil) (make-instance (quote crible) :cr-exp (list 3 0 12) :from-file t)) nil nil (pairlis (quote (show-stems obj-mode palette-mode winpos winsize deltapict outport inport zoom cmnpref notechancolor? grillestep mode)) (list (quote t) 0 0 (om-make-point 40 10) (om-make-point 370 280) (om-make-point 0 0) 0 0 1 (let ((newobj (make-instance (quote edition-values)))) (setf (paper-size newobj) (om-make-point 600 800)) (setf (top-margin newobj) 2) (setf (left-margin newobj) 1) (setf (right-margin newobj) 1) (setf (bottom-margin newobj) 1) (setf (orientation newobj) nil) (setf (scale newobj) nil) (setf (system-space newobj) (quote (1))) (setf (system-color newobj) (quote nil)) (setf (line-space newobj) 1) (setf (title newobj) nil) (setf (show-title? newobj) nil) (setf (show-page? newobj) nil) (setf (sheet-id newobj) nil) (setf (page-mode newobj) nil) newobj) nil 1000 0)) nil nil nil nil))) (when (fboundp (quote set-active)) (set-active box nil)) box) (let ((box (om-load-boxcall (quote genfun) "REVEL-CRIBLE" (quote revel-crible) (quote ((om-load-inputfun (quote input-funbox) "no documentation" "SELF" nil))) (om-make-point 325 253) nil nil nil nil 1))) (when (fboundp (quote set-active)) (set-active box nil)) box) (let ((box (om-load-boxcall (quote genfun) "C-COMPLEMENT" (quote c-complement) (quote ((om-load-inputfun (quote input-funbox) "no documentation" "SELF" nil))) (om-make-point 775 231) nil nil nil nil 1))) (when (fboundp (quote set-active)) (set-active box nil)) box) (let ((box (om-load-boxcall (quote genfun) "C-INTERSECTION" (quote c-intersection) (quote ((om-load-inputfun (quote input-funbox) "no documentation" "SELF" nil) (om-load-inputfun (quote input-funbox) "no documentation" "CRIBLE" nil))) (om-make-point 745 340) nil nil nil nil 1))) (when (fboundp (quote set-active)) (set-active box nil)) box) (let ((box (om-load-boxcall (quote genfun) "C-UNION" (quote c-union) (quote ((om-load-inputfun (quote input-funbox) "no documentation" "SELF" nil) (om-load-inputfun (quote input-funbox) "no documentation" "CRIBLE" nil))) (om-make-point 428 242) nil nil nil "c-union" 1))) (when (fboundp (quote set-active)) (set-active box nil)) box) (let ((box (om-load-editor-box1 "CHORD" (quote chord) (quote ((om-load-inputfun (quote input-funbox) "objs" "SELF" nil) (om-load-inputfun (quote input-funbox) "no documentation" "LMIDIC" (list 6000)) (om-load-inputfun (quote input-funbox) "no documentation" "LVEL" (list 100)) (om-load-inputfun (quote input-funbox) "no documentation" "LOFFSET" (list 0)) (om-load-inputfun (quote input-funbox) "no documentation" "LDUR" (list 1000)) (om-load-inputfun (quote input-funbox) "no documentation" "LCHAN" (list 1)))) (om-make-point 63 389) (om-make-point 122 95) (let ((thechord (make-instance (quote chord) :lmidic (quote (6000 6200 6300 6500 6600 6800 6900 7100)) :ldur (quote (1000 1000 1000 1000 1000 1000 1000 1000)) :lvel (quote (100 100 100 100 100 100 100 100)) :loffset (quote (0 0 0 0 0 0 0 0)) :lchan (quote (1 1 1 1 1 1 1 1))))) (load-port-info thechord (quote (0 0 0 0 0 0 0 0))) (init-mus-color thechord (quote nil)) (set-extra-pairs thechord (quote nil)) (set-tonalite thechord nil) thechord) nil nil (pairlis (quote (scale approx fontsize staff cmnpref deltapict outport inport zoom notechancolor? grillestep mode winsize winpos palette-mode obj-mode show-stems)) (list nil 2 24 (quote g) (let ((newobj (make-instance (quote edition-values)))) (setf (paper-size newobj) (om-make-point 600 800)) (setf (top-margin newobj) 2) (setf (left-margin newobj) 1) (setf (right-margin newobj) 1) (setf (bottom-margin newobj) 1) (setf (orientation newobj) nil) (setf (scale newobj) nil) (setf (system-space newobj) (quote (1))) (setf (system-color newobj) (quote nil)) (setf (line-space newobj) 1) (setf (title newobj) nil) (setf (show-title? newobj) nil) (setf (show-page? newobj) nil) (setf (sheet-id newobj) nil) (setf (page-mode newobj) nil) newobj) (om-make-point 0 0) 0 0 1 nil 1000 0 (om-make-point 370 280) (om-make-point 40 10) 0 0 (quote t))) t nil nil nil))) (when (fboundp (quote set-active)) (set-active box nil)) box) (let ((box (om-load-boxcall (quote genfun) "C2CHORD" (quote c2chord) (quote ((om-load-inputfun (quote input-funbox) "the cercle" "SELF" nil) (om-load-inputfun (quote input-funbox) "index" "INDEX" 0) (om-load-inputfun (quote input-funbox) "initial value" "BASE" 6000) (om-load-inputfun (quote input-funbox) "approx" "APPROX" 100))) (om-make-point 109 295) nil nil nil nil 1))) (when (fboundp (quote set-active)) (set-active box nil)) box) (let ((box (om-load-boxcall (quote bastype) "aux" (quote t) (quote nil) (om-make-point 74 60) (om-make-point 99 30) (list 0 2 3 5 6 8 9 11) "(0 2 3 5 6 8 9 11)" nil))) (when (fboundp (quote set-active)) (set-active box nil)) box) (let ((box (om-load-editor-box1 "N-CERCLE" (quote n-cercle) (quote ((om-load-inputfun (quote input-funbox) "objs" "SELF" nil) (om-load-inputfun (quote input-funbox) "no documentation" "N" 12) (om-load-inputfun (quote input-funbox) "no documentation" "PUNTOS" (list 0 5 7)))) (om-make-point 37 106) (om-make-point 153 141) (if (find-class (quote n-cercle) nil) (make-instance (quote n-cercle) :n 12 :puntos (list (list 0 2 3 5 6 8 9 11)) :from-file t)) nil nil (pairlis (quote (mode grillestep notechancolor? cmnpref zoom inport outport deltapict winsize winpos palette-mode obj-mode show-stems)) (list 0 1000 nil (let ((newobj (make-instance (quote edition-values)))) (setf (paper-size newobj) (om-make-point 600 800)) (setf (top-margin newobj) 2) (setf (left-margin newobj) 1) (setf (right-margin newobj) 1) (setf (bottom-margin newobj) 1) (setf (orientation newobj) nil) (setf (scale newobj) nil) (setf (system-space newobj) (quote (1))) (setf (system-color newobj) (quote nil)) (setf (line-space newobj) 1) (setf (title newobj) nil) (setf (show-title? newobj) nil) (setf (show-page? newobj) nil) (setf (sheet-id newobj) nil) (setf (page-mode newobj) nil) newobj) 1 0 0 (om-make-point 0 0) (om-make-point 370 280) (om-make-point 40 10) 0 0 (quote t))) t nil nil nil))) (when (fboundp (quote set-active)) (set-active box nil)) box))) (quote ((6 0 5 2 nil 0) (20 0 6 0 nil 0) (8 0 7 2 nil 0) (19 0 8 0 nil 0) (10 0 9 2 nil 0) (21 0 10 0 nil 0) (12 0 11 0 nil 0) (13 0 12 1 nil 0) (11 0 14 2 nil 0) (18 0 15 2 nil 0) (16 0 17 1 nil 0) (17 0 18 0 nil 0) (12 0 19 0 nil 0) (21 0 20 0 nil 0) (19 0 20 1 nil 0) (17 0 21 0 nil 0) (12 0 21 1 nil 0) (23 0 22 0 nil 0) (25 0 23 0 nil 0) (24 0 25 2 nil 0))) nil 6.2))
