; OM File Header - Saved 2010/11/16 19:27:30
; (6.030006 :patc (om-make-point 8 109) (om-make-point 50 50) (om-make-point 317 326) "No documentation " 183 0 nil "2010/11/16 19:27:30")
; End File Header
(in-package :om)(load-lib-for 'nil)(setf *om-current-persistent* (om-load-patch1 "a=b times c" '((om-load-boxcall 'lispfun "=" '= '((om-load-inputfun 'input-funbox "NUMBER" "NUMBER" nil) (om-load-inputfun 'input-funbox "add-input" "add-input" nil)) (om-make-point 91 168) (om-make-point 24 37) nil nil nil 1) (om-load-boxcall 'lispfun "*" '* '((om-load-inputfun 'input-funbox "add-input" "add-input" nil) (om-load-inputfun 'input-funbox "add-input" "add-input" nil)) (om-make-point 130 123) (om-make-point 24 37) nil nil nil 1) (om-load-boxin "input2" 2 (om-make-point 160 48) "no documentation" nil nil nil) (om-load-boxin "input1" 1 (om-make-point 73 42) "no documentation" nil nil nil) (om-load-boxin "input" 0 (om-make-point 5 45) "no documentation" nil nil nil) (om-load-boxout "output" 0 (om-make-point 76 231) '((om-load-inputfun 'input-funbox "out" "out" nil)) nil nil)) '((4 0 0 0 nil 0) (1 0 0 1 nil 0) (3 0 1 0 nil 0) (2 0 1 1 nil 0) (0 0 5 0 nil 0)) nil 5.1))
