; OM File Header - Saved 2010/11/16 19:27:30
; (6.04 :patc (om-make-point 177 109) (om-make-point 50 50) (om-make-point 296 369) "No documentation " 183 0 nil "2010/11/16 19:27:30")
; End File Header
(in-package :om)(load-lib-for (quote nil))(setf *om-current-persistent* (om-load-patch1 "imp par mes" (quote ((om-load-boxcall (quote lispfun) "ZEROP" (quote zerop) (quote ((om-load-inputfun (quote input-funbox) "NUMBER" "NUMBER" nil))) (om-make-point 120 194) (om-make-point 35 37) nil nil nil 1) (om-load-boxcall (quote bastype) "aux" (quote t) (quote nil) (om-make-point 176 117) (om-make-point 37 28) 1/32 "1/32" nil) (om-load-boxcall (quote lispfun) "MOD" (quote mod) (quote ((om-load-inputfun (quote input-funbox) "NUMBER" "NUMBER" nil) (om-load-inputfun (quote input-funbox) "DIVISOR" "DIVISOR" nil))) (om-make-point 128 153) (om-make-point 24 37) nil nil nil 1) (om-load-boxcall (quote lispfun) "*" (quote *) (quote ((om-load-inputfun (quote input-funbox) "add-input" "add-input" nil) (om-load-inputfun (quote input-funbox) "add-input" "add-input" nil))) (om-make-point 123 112) (om-make-point 24 37) nil nil nil 1) (om-load-boxin "input1" 1 (om-make-point 144 43) "no documentation" nil nil nil) (om-load-boxin "input" 0 (om-make-point 84 46) "no documentation" nil nil nil) (om-load-boxout "output" 0 (om-make-point 122 247) (quote ((om-load-inputfun (quote input-funbox) "out" "out" nil))) nil nil))) (quote ((2 0 0 0 nil 0) (3 0 2 0 nil 0) (1 0 2 1 nil 0) (5 0 3 0 nil 0) (4 0 3 1 nil 0) (0 0 6 0 nil 0))) nil 6.04))
