; OM File Header - Saved 2010/11/16 19:27:30
; (6.04 :patc (om-make-point 78 110) (om-make-point 50 50) (om-make-point 297 304) "No documentation " 183 0 nil "2010/11/16 19:27:30")
; End File Header
(in-package :om)(load-lib-for 'nil)(setf *om-current-persistent* (om-load-patch1 "int-vXp" '((om-load-boxcall 'lispfun "INTEGERP" 'integerp '((om-load-inputfun 'input-funbox "OBJECT" "OBJECT" nil)) (om-make-point 108 171) (om-make-point 53 37) nil nil nil 1) (om-load-boxcall 'lispfun "*" '* '((om-load-inputfun 'input-funbox "add-input" "add-input" nil) (om-load-inputfun 'input-funbox "add-input" "add-input" nil)) (om-make-point 114 118) (om-make-point 24 37) nil nil nil 1) (om-load-boxin "input1" 1 (om-make-point 165 47) "no documentation" nil nil nil) (om-load-boxin "input" 0 (om-make-point 78 48) "no documentation" nil nil nil) (om-load-boxout "output" 0 (om-make-point 113 220) '((om-load-inputfun 'input-funbox "out" "out" nil)) nil nil)) '((1 0 0 0 nil 0) (3 0 1 0 nil 0) (2 0 1 1 nil 0) (0 0 4 0 nil 0)) nil 5.1))
