; OM File Header - Saved 2009/10/22 17:10:05
; (6.04 :patc (om-make-point 49 13) (om-make-point 50 50) (om-make-point 630 437) "non documentation" 183 0 nil "2008/10/18 1:12:38")
; End File Header
(in-package :om)(load-lib-for (quote nil))(setf *om-current-persistent* (om-load-patch1 "01-pulsemaker" (quote ((om-load-boxcall (quote genfun) "PULSEMAKER" (quote pulsemaker) (quote ((om-load-inputfun (quote input-funbox) "measures-num" "MEASURES-NUM" (list 4 4)) (om-load-inputfun (quote input-funbox) "beat-unit" "BEAT-UNIT" (list 4 4)) (om-load-inputfun (quote input-funbox) "npulses" "NPULSES" (list 4 4)))) (om-make-point 209 191) nil nil nil nil 1) (om-load-boxcomment "comment" (om-make-point 457 96) (quote "Constructs a tree starting with a list of measures numerators <measures-num>$and measures denominators <beat-unit> filling these measures with n-beats <npulses>") "" (om-make-point 90 2) nil (om-make-color 64/85 1/15 2/51) (om-make-font "Arial" 18 :family "Arial" :style (quote (:plain)) :mode (quote nil))) (om-load-boxcomment "comment" (om-make-point 90 40) (quote "Pulses frequencies") "" (om-make-point 326 109) nil (om-make-color 194/255 7/85 2/51) (om-make-font "Arial" 12 :family "Arial" :style (quote (:plain)) :mode (quote nil))) (om-load-boxcomment "comment" (om-make-point 90 40) (quote "Measures denominators") "" (om-make-point 238 110) nil (om-make-color 194/255 7/85 2/51) (om-make-font "Arial" 12 :family "Arial" :style (quote (:plain)) :mode (quote nil))) (om-load-boxcomment "comment" (om-make-point 80 40) (quote "Measures numerators") "" (om-make-point 156 110) nil (om-make-color 194/255 7/85 2/51) (om-make-font "Arial" 12 :family "Arial" :style (quote (:plain)) :mode (quote nil))) (om-load-boxcall (quote bastype) "aux1" (quote t) (quote nil) (om-make-point 323 151) (om-make-point 74 27) (list 2 3 4 5 6 7) "( 2 3 4 5 6 7)" nil) (om-load-boxcall (quote bastype) "aux" (quote t) (quote nil) (om-make-point 245 150) (om-make-point 74 28) (list 8 8 8 8 8 8) "(8 8 8 8 8 8)" nil) (om-load-editor-box1 "VOICE" (quote voice) (quote ((om-load-inputfun (quote input-funbox) "objs" "SELF" nil) (om-load-inputfun (quote input-funbox) "a list representing a rhythm tree" "TREE" (list (quote ?) (list (list (quote |4//4|) (list 1 (list 1 (list 1 -2 1 1)) 1 1)) (list (quote |4//4|) (list 1 (list 1 (list 1 2 1 1)) -1 1))))) (om-load-inputfun (quote input-funbox) "a chord object , a list of chord objects, a list of midics, a list of lists of midics." "CHORDS" (list (let ((thechord (make-instance (quote chord) :lmidic (quote (6000)) :ldur (quote (1000)) :lvel (quote (100)) :loffset (quote (0)) :lchan (quote (1))))) (load-port-info thechord (quote (0))) thechord))) (om-load-inputfun (quote input-funbox) "a number indicating the frequency of the quarter-note (default 60/mn)" "TEMPO" 60) (om-load-inputfun (quote input-funbox) "no documentation" "LEGATO" 100) (om-load-inputfun (quote input-funbox) "no documentation" "TIES" nil))) (om-make-point 10 280) (om-make-point 550 101) (let ((newobj (when (find-class (quote voice) nil) (make-instance (quote voice) :tree (quote (17/8 (((2 8) ((2 (1 1)))) ((2 8) ((2 (1 1 1)))) ((3 8) ((3 (1 1 1 1)))) ((4 8) ((4 (1 1 1 1 1)))) ((5 8) ((5 (1 1 1 1 1 1)))) ((1 8) ((1 (1 1 1 1 1 1 1))))))) :chords (load-obj-list-from-save (quote ((let ((thechord (make-instance (quote chord) :lmidic (quote (6000)) :ldur (quote (500)) :lvel (quote (100)) :loffset (quote (0)) :lchan (quote (1))))) (load-port-info thechord (quote (0))) thechord) (let ((thechord (make-instance (quote chord) :lmidic (quote (6000)) :ldur (quote (500)) :lvel (quote (100)) :loffset (quote (0)) :lchan (quote (1))))) (load-port-info thechord (quote (0))) thechord) (let ((thechord (make-instance (quote chord) :lmidic (quote (6000)) :ldur (quote (333)) :lvel (quote (100)) :loffset (quote (0)) :lchan (quote (1))))) (load-port-info thechord (quote (0))) thechord) (let ((thechord (make-instance (quote chord) :lmidic (quote (6000)) :ldur (quote (333)) :lvel (quote (100)) :loffset (quote (0)) :lchan (quote (1))))) (load-port-info thechord (quote (0))) thechord) (let ((thechord (make-instance (quote chord) :lmidic (quote (6000)) :ldur (quote (333)) :lvel (quote (100)) :loffset (quote (0)) :lchan (quote (1))))) (load-port-info thechord (quote (0))) thechord) (let ((thechord (make-instance (quote chord) :lmidic (quote (6000)) :ldur (quote (375)) :lvel (quote (100)) :loffset (quote (0)) :lchan (quote (1))))) (load-port-info thechord (quote (0))) thechord) (let ((thechord (make-instance (quote chord) :lmidic (quote (6000)) :ldur (quote (375)) :lvel (quote (100)) :loffset (quote (0)) :lchan (quote (1))))) (load-port-info thechord (quote (0))) thechord) (let ((thechord (make-instance (quote chord) :lmidic (quote (6000)) :ldur (quote (375)) :lvel (quote (100)) :loffset (quote (0)) :lchan (quote (1))))) (load-port-info thechord (quote (0))) thechord) (let ((thechord (make-instance (quote chord) :lmidic (quote (6000)) :ldur (quote (375)) :lvel (quote (100)) :loffset (quote (0)) :lchan (quote (1))))) (load-port-info thechord (quote (0))) thechord) (let ((thechord (make-instance (quote chord) :lmidic (quote (6000)) :ldur (quote (400)) :lvel (quote (100)) :loffset (quote (0)) :lchan (quote (1))))) (load-port-info thechord (quote (0))) thechord) (let ((thechord (make-instance (quote chord) :lmidic (quote (6000)) :ldur (quote (400)) :lvel (quote (100)) :loffset (quote (0)) :lchan (quote (1))))) (load-port-info thechord (quote (0))) thechord) (let ((thechord (make-instance (quote chord) :lmidic (quote (6000)) :ldur (quote (400)) :lvel (quote (100)) :loffset (quote (0)) :lchan (quote (1))))) (load-port-info thechord (quote (0))) thechord) (let ((thechord (make-instance (quote chord) :lmidic (quote (6000)) :ldur (quote (400)) :lvel (quote (100)) :loffset (quote (0)) :lchan (quote (1))))) (load-port-info thechord (quote (0))) thechord) (let ((thechord (make-instance (quote chord) :lmidic (quote (6000)) :ldur (quote (400)) :lvel (quote (100)) :loffset (quote (0)) :lchan (quote (1))))) (load-port-info thechord (quote (0))) thechord) (let ((thechord (make-instance (quote chord) :lmidic (quote (6000)) :ldur (quote (417)) :lvel (quote (100)) :loffset (quote (0)) :lchan (quote (1))))) (load-port-info thechord (quote (0))) thechord) (let ((thechord (make-instance (quote chord) :lmidic (quote (6000)) :ldur (quote (417)) :lvel (quote (100)) :loffset (quote (0)) :lchan (quote (1))))) (load-port-info thechord (quote (0))) thechord) (let ((thechord (make-instance (quote chord) :lmidic (quote (6000)) :ldur (quote (417)) :lvel (quote (100)) :loffset (quote (0)) :lchan (quote (1))))) (load-port-info thechord (quote (0))) thechord) (let ((thechord (make-instance (quote chord) :lmidic (quote (6000)) :ldur (quote (417)) :lvel (quote (100)) :loffset (quote (0)) :lchan (quote (1))))) (load-port-info thechord (quote (0))) thechord) (let ((thechord (make-instance (quote chord) :lmidic (quote (6000)) :ldur (quote (417)) :lvel (quote (100)) :loffset (quote (0)) :lchan (quote (1))))) (load-port-info thechord (quote (0))) thechord) (let ((thechord (make-instance (quote chord) :lmidic (quote (6000)) :ldur (quote (417)) :lvel (quote (100)) :loffset (quote (0)) :lchan (quote (1))))) (load-port-info thechord (quote (0))) thechord) (let ((thechord (make-instance (quote chord) :lmidic (quote (6000)) :ldur (quote (71)) :lvel (quote (100)) :loffset (quote (0)) :lchan (quote (1))))) (load-port-info thechord (quote (0))) thechord) (let ((thechord (make-instance (quote chord) :lmidic (quote (6000)) :ldur (quote (71)) :lvel (quote (100)) :loffset (quote (0)) :lchan (quote (1))))) (load-port-info thechord (quote (0))) thechord) (let ((thechord (make-instance (quote chord) :lmidic (quote (6000)) :ldur (quote (71)) :lvel (quote (100)) :loffset (quote (0)) :lchan (quote (1))))) (load-port-info thechord (quote (0))) thechord) (let ((thechord (make-instance (quote chord) :lmidic (quote (6000)) :ldur (quote (71)) :lvel (quote (100)) :loffset (quote (0)) :lchan (quote (1))))) (load-port-info thechord (quote (0))) thechord) (let ((thechord (make-instance (quote chord) :lmidic (quote (6000)) :ldur (quote (71)) :lvel (quote (100)) :loffset (quote (0)) :lchan (quote (1))))) (load-port-info thechord (quote (0))) thechord) (let ((thechord (make-instance (quote chord) :lmidic (quote (6000)) :ldur (quote (71)) :lvel (quote (100)) :loffset (quote (0)) :lchan (quote (1))))) (load-port-info thechord (quote (0))) thechord) (let ((thechord (make-instance (quote chord) :lmidic (quote (6000)) :ldur (quote (71)) :lvel (quote (100)) :loffset (quote (0)) :lchan (quote (1))))) (load-port-info thechord (quote (0))) thechord)))) :tempo (quote ((1/4 60) nil)) :legato 100 :ties (quote (nil nil nil nil nil nil nil nil nil nil nil nil nil nil nil nil nil nil nil nil nil nil nil nil nil nil nil)))))) (load-port-info newobj (quote ((((0) (0))) (((0) (0) (0))) (((0) (0) (0) (0))) (((0) (0) (0) (0) (0))) (((0) (0) (0) (0) (0) (0))) (((0) (0) (0) (0) (0) (0) (0)))))) (init-mus-color newobj (quote nil)) (set-extra-pairs newobj (quote nil)) (set-patch-pairs newobj (quote ((nil (om-load-patch-abs1 "patch" (quote nil) (quote nil) 6.0301 nil))))) (set-tonalite newobj nil) newobj) nil nil (pairlis (quote (scale approx fontsize staff cmnpref deltapict outport inport zoom notechancolor? grillestep mode winsize winpos palette-mode obj-mode show-stems)) (list nil 2 24 (quote empty) (let ((newobj (make-instance (quote edition-values)))) (setf (paper-size newobj) (om-make-point 600 800)) (setf (top-margin newobj) 2) (setf (left-margin newobj) 1) (setf (right-margin newobj) 1) (setf (bottom-margin newobj) 1) (setf (orientation newobj) nil) (setf (scale newobj) nil) (setf (system-space newobj) (quote (1))) (setf (line-space newobj) 1) (setf (title newobj) nil) (setf (show-title? newobj) nil) (setf (show-page? newobj) nil) (setf (sheet-id newobj) nil) (setf (page-mode newobj) nil) newobj) (om-make-point 0 0) 2 0 1 nil 1000 0 18350450 2621450 0 0 (quote t))) t nil nil nil) (om-load-boxcall (quote bastype) "aux3" (quote t) (quote nil) (om-make-point 156 150) (om-make-point 81 26) (list 2 2 3 4 5 1) "(2 2 3 4 5 1)" nil))) (quote ((8 0 0 0 nil 0) (6 0 0 1 nil 0) (5 0 0 2 nil 0) (0 0 7 1 nil 0))) nil 6.0301))
