; OM File Header - Saved 2009/10/22 17:10:05
; (6.04 :patc (om-make-point 328 71) (om-make-point 50 50) (om-make-point 911 569) "non documentation" 183 0 nil "2008/10/18 1:30:17")
; End File Header
(in-package :om)(load-lib-for (quote nil))(setf *om-current-persistent* (om-load-patch1 "06-rotatetree" (quote ((om-load-boxcomment "comment" (om-make-point 574 97) (quote "rotatetree applies a rotation to the tree pulses following <nth> position.$If <mode> is equal to 'pulse' (default mode) this will be applied to pulses of tree meaning $that it is applied to expressed durations.$If <mode> is equal to 'prop' this will be applied to proportions of tree$meaning the integers of tree.") "" (om-make-point 169 8) nil (om-make-color 173/255 22/255 11/255) (om-make-font "Arial" 14 :family "Arial" :style (quote (:plain)) :mode (quote nil))) (om-load-boxcall (quote bastype) "list" (quote list) (quote nil) (om-make-point 583 300) (om-make-point 32 25) (quote (quote prop)) "'prop" nil) (om-load-boxcall (quote bastype) "aux" (quote t) (quote nil) (om-make-point 562 300) (om-make-point 19 25) 1 "1" nil) (om-load-boxcall (quote bastype) "aux2" (quote t) (quote nil) (om-make-point 141 304) (om-make-point 21 24) 1 "1" nil) (om-load-boxcall (quote genfun) "ROTATETREE1" (quote rotatetree) (quote ((om-load-inputfun (quote input-funbox) "tree" "TREE" (list (quote ?) (list (list (quote |4//4|) (list 1 (list 1 (list 1 2 1 1)) 1 1)) (list (quote |4//4|) (list 1 (list 1 (list 1 2 1 1)) -1 1))))) (om-load-inputfun (quote input-funbox) "nth" "NTH" 1))) (om-make-point 113 330) nil nil nil nil 1) (om-load-boxcall (quote genfun) "ROTATETREE1" (quote rotatetree) (quote ((om-load-inputfun (quote input-funbox) "tree" "TREE" (list (quote ?) (list (list (quote |4//4|) (list 1 (list 1 (list 1 2 1 1)) 1 1)) (list (quote |4//4|) (list 1 (list 1 (list 1 2 1 1)) -1 1))))) (om-load-inputfun (quote input-funbox) "nth" "NTH" 1) (om-load-inputfunmenu1 (quote input-funmenu) "mode" "MODE" (quote prop) (list (list "pulse" (quote (quote pulse))) (list "prop" (quote (quote prop))))))) (om-make-point 542 330) nil nil nil nil 1) (om-load-boxcomment "comment" (om-make-point 231 66) (quote "Extra input for proportions mode$rotates proportions$by <nth> position ") "" (om-make-point 614 328) nil (om-make-color 184/255 16/85 2/17) (om-make-font "Helvetica" 12 :family "Helvetica" :style (quote (:plain)) :mode (quote nil))) (om-load-editor-box1 "VOICE" (quote voice) (quote ((om-load-inputfun (quote input-funbox) "objs" "SELF" nil) (om-load-inputfun (quote input-funbox) "a list representing a rhythm tree" "TREE" (list (quote ?) (list (list (quote |4//4|) (list 1 (list 1 (list 1 -2 1 1)) 1 1)) (list (quote |4//4|) (list 1 (list 1 (list 1 2 1 1)) -1 1))))) (om-load-inputfun (quote input-funbox) "a chord object , a list of chord objects, a list of midics, a list of lists of midics." "CHORDS" (list (let ((thechord (make-instance (quote chord) :lmidic (quote (6000)) :ldur (quote (1000)) :lvel (quote (100)) :loffset (quote (0)) :lchan (quote (1))))) (load-port-info thechord (quote (0))) thechord))) (om-load-inputfun (quote input-funbox) "a number indicating the frequency of the quarter-note (default 60/mn)" "TEMPO" 60) (om-load-inputfun (quote input-funbox) "no documentation" "LEGATO" 100) (om-load-inputfun (quote input-funbox) "no documentation" "TIES" nil))) (om-make-point 452 399) (om-make-point 406 102) (let ((newobj (when (find-class (quote voice) nil) (make-instance (quote voice) :tree (quote (2 (((4 4) ((4 (3 (1 (-2 1)) -2 (1 (1 -2)))))) ((4 4) ((4 (-3 (1 (4 1)) 1))))))) :chords (load-obj-list-from-save (quote ((let ((thechord (make-instance (quote chord) :lmidic (quote (6000)) :ldur (quote (1714)) :lvel (quote (100)) :loffset (quote (0)) :lchan (quote (1))))) (load-port-info thechord (quote (0))) thechord) (let ((thechord (make-instance (quote chord) :lmidic (quote (6000)) :ldur (quote (190)) :lvel (quote (100)) :loffset (quote (0)) :lchan (quote (1))))) (load-port-info thechord (quote (0))) thechord) (let ((thechord (make-instance (quote chord) :lmidic (quote (6000)) :ldur (quote (190)) :lvel (quote (100)) :loffset (quote (0)) :lchan (quote (1))))) (load-port-info thechord (quote (0))) thechord) (let ((thechord (make-instance (quote chord) :lmidic (quote (6000)) :ldur (quote (640)) :lvel (quote (100)) :loffset (quote (0)) :lchan (quote (1))))) (load-port-info thechord (quote (0))) thechord) (let ((thechord (make-instance (quote chord) :lmidic (quote (6000)) :ldur (quote (160)) :lvel (quote (100)) :loffset (quote (0)) :lchan (quote (1))))) (load-port-info thechord (quote (0))) thechord) (let ((thechord (make-instance (quote chord) :lmidic (quote (6000)) :ldur (quote (800)) :lvel (quote (100)) :loffset (quote (0)) :lchan (quote (1))))) (load-port-info thechord (quote (0))) thechord)))) :tempo (quote ((1/4 60) nil)) :legato 100 :ties (quote (nil nil nil nil nil nil)))))) (load-port-info newobj (quote ((((0) (nil (0)) nil ((0) nil))) ((nil ((0) (0)) (0)))))) (init-mus-color newobj (quote nil)) (set-extra-pairs newobj (quote nil)) (set-patch-pairs newobj (quote ((nil (om-load-patch-abs1 "patch" (quote nil) (quote nil) 6.0301 nil))))) (set-tonalite newobj nil) newobj) nil nil (pairlis (quote (scale inport outport deltapict cmnpref staff fontsize approx zoom palette-mode obj-mode notechancolor? grillestep mode winsize winpos show-stems)) (list nil 0 0 (om-make-point 0 0) (let ((newobj (make-instance (quote edition-values)))) (setf (paper-size newobj) (om-make-point 600 800)) (setf (top-margin newobj) 2) (setf (left-margin newobj) 1) (setf (right-margin newobj) 1) (setf (bottom-margin newobj) 1) (setf (orientation newobj) nil) (setf (scale newobj) nil) (setf (system-space newobj) (quote (1))) (setf (line-space newobj) 1) (setf (title newobj) nil) (setf (show-title? newobj) nil) (setf (show-page? newobj) nil) (setf (sheet-id newobj) nil) (setf (page-mode newobj) nil) newobj) (quote empty) 36 2 1 0 0 nil 1000 0 (om-make-point 370 280) (om-make-point 10 40) (quote t))) t nil nil nil) (om-load-boxcall (quote bastype) "aux1" (quote t) (quote nil) (om-make-point 240 115) (om-make-point 412 24) (list (quote ?) (list (list (quote |4//4|) (list 1 (list 1 (list 3 -2)) 1 (list 1 (list -2 1)))) (list (quote |4//4|) (list -2 (list 1 (list -3 4)) 1)))) "(? ((4//4 (1 (1 (3 -2)) 1 (1(-2 1)))) (4//4 (-2 (1 (-3 4)) 1))))" nil) (om-load-boxcomment "comment" (om-make-point 167 38) (quote "rotates all pulses$by <nth> position ") "" (om-make-point 182 336) nil (om-make-color 40/51 37/255 26/255) (om-make-font "Helvetica" 12 :family "Helvetica" :style (quote (:plain)) :mode (quote nil))) (om-load-editor-box1 "VOICE" (quote voice) (quote ((om-load-inputfun (quote input-funbox) "objs" "SELF" nil) (om-load-inputfun (quote input-funbox) "a list representing a rhythm tree" "TREE" (list (quote ?) (list (list (quote |4//4|) (list 1 (list 1 (list 1 -2 1 1)) 1 1)) (list (quote |4//4|) (list 1 (list 1 (list 1 2 1 1)) -1 1))))) (om-load-inputfun (quote input-funbox) "a chord object , a list of chord objects, a list of midics, a list of lists of midics." "CHORDS" (list (let ((thechord (make-instance (quote chord) :lmidic (quote (6000)) :ldur (quote (1000)) :lvel (quote (100)) :loffset (quote (0)) :lchan (quote (1))))) (load-port-info thechord (quote (0))) thechord))) (om-load-inputfun (quote input-funbox) "a number indicating the frequency of the quarter-note (default 60/mn)" "TEMPO" 60) (om-load-inputfun (quote input-funbox) "no documentation" "LEGATO" 100) (om-load-inputfun (quote input-funbox) "no documentation" "TIES" nil))) (om-make-point 21 399) (om-make-point 412 98) (let ((newobj (when (find-class (quote voice) nil) (make-instance (quote voice) :tree (quote (2 (((4 4) ((1 (3 -2)) 1 (1 (-2 1)) -1)) ((4 4) (-1 (1 (-3 4)) 1 1))))) :chords (load-obj-list-from-save (quote ((let ((thechord (make-instance (quote chord) :lmidic (quote (6000)) :ldur (quote (600)) :lvel (quote (100)) :loffset (quote (0)) :lchan (quote (1))))) (load-port-info thechord (quote (0))) thechord) (let ((thechord (make-instance (quote chord) :lmidic (quote (6000)) :ldur (quote (1000)) :lvel (quote (100)) :loffset (quote (0)) :lchan (quote (1))))) (load-port-info thechord (quote (0))) thechord) (let ((thechord (make-instance (quote chord) :lmidic (quote (6000)) :ldur (quote (333)) :lvel (quote (100)) :loffset (quote (0)) :lchan (quote (1))))) (load-port-info thechord (quote (0))) thechord) (let ((thechord (make-instance (quote chord) :lmidic (quote (6000)) :ldur (quote (571)) :lvel (quote (100)) :loffset (quote (0)) :lchan (quote (1))))) (load-port-info thechord (quote (0))) thechord) (let ((thechord (make-instance (quote chord) :lmidic (quote (6000)) :ldur (quote (1000)) :lvel (quote (100)) :loffset (quote (0)) :lchan (quote (1))))) (load-port-info thechord (quote (0))) thechord) (let ((thechord (make-instance (quote chord) :lmidic (quote (6000)) :ldur (quote (1000)) :lvel (quote (100)) :loffset (quote (0)) :lchan (quote (1))))) (load-port-info thechord (quote (0))) thechord)))) :tempo (quote ((1/4 60) nil)) :legato 100 :ties (quote (nil nil nil nil nil nil)))))) (load-port-info newobj (quote ((((0) nil) (0) (nil (0)) nil) (nil (nil (0)) (0) (0))))) (init-mus-color newobj (quote nil)) (set-extra-pairs newobj (quote nil)) (set-patch-pairs newobj (quote ((nil (om-load-patch-abs1 "patch" (quote nil) (quote nil) 6.0301 nil))))) (set-tonalite newobj nil) newobj) nil nil (pairlis (quote (scale approx fontsize staff cmnpref deltapict outport inport zoom palette-mode obj-mode notechancolor? grillestep mode winsize winpos show-stems)) (list nil 2 24 (quote empty) (let ((newobj (make-instance (quote edition-values)))) (setf (paper-size newobj) (om-make-point 600 800)) (setf (top-margin newobj) 2) (setf (left-margin newobj) 1) (setf (right-margin newobj) 1) (setf (bottom-margin newobj) 1) (setf (orientation newobj) nil) (setf (scale newobj) nil) (setf (system-space newobj) (quote (1))) (setf (line-space newobj) 1) (setf (title newobj) nil) (setf (show-title? newobj) nil) (setf (show-page? newobj) nil) (setf (sheet-id newobj) nil) (setf (page-mode newobj) nil) newobj) (om-make-point 0 0) 0 0 1 0 0 nil 1000 0 (om-make-point 370 280) (om-make-point 10 40) (quote t))) t nil nil nil) (om-load-editor-box1 "VOICE" (quote voice) (quote ((om-load-inputfun (quote input-funbox) "objs" "SELF" nil) (om-load-inputfun (quote input-funbox) "a list representing a rhythm tree" "TREE" (list (quote ?) (list (list (quote |4//4|) (list 1 (list 1 (list 1 -2 1 1)) 1 1)) (list (quote |4//4|) (list 1 (list 1 (list 1 2 1 1)) -1 1))))) (om-load-inputfun (quote input-funbox) "a chord object , a list of chord objects, a list of midics, a list of lists of midics." "CHORDS" (list (let ((thechord (make-instance (quote chord) :lmidic (quote (6000)) :ldur (quote (1000)) :lvel (quote (100)) :loffset (quote (0)) :lchan (quote (1))))) (load-port-info thechord (quote (0))) thechord))) (om-load-inputfun (quote input-funbox) "a number indicating the frequency of the quarter-note (default 60/mn)" "TEMPO" 60) (om-load-inputfun (quote input-funbox) "no documentation" "LEGATO" 100) (om-load-inputfun (quote input-funbox) "no documentation" "TIES" nil))) (om-make-point 198 156) (om-make-point 473 93) (let ((newobj (when (find-class (quote voice) nil) (make-instance (quote voice) :tree (quote (2 (((4 4) (1 (1 (3 -2)) 1 (1 (-2 1)))) ((4 4) (-2 (1 (-3 4)) 1))))) :chords (load-obj-list-from-save (quote ((let ((thechord (make-instance (quote chord) :lmidic (quote (6000)) :ldur (quote (1000)) :lvel (quote (100)) :loffset (quote (0)) :lchan (quote (1))))) (load-port-info thechord (quote (0))) thechord) (let ((thechord (make-instance (quote chord) :lmidic (quote (6000)) :ldur (quote (600)) :lvel (quote (100)) :loffset (quote (0)) :lchan (quote (1))))) (load-port-info thechord (quote (0))) thechord) (let ((thechord (make-instance (quote chord) :lmidic (quote (6000)) :ldur (quote (1000)) :lvel (quote (100)) :loffset (quote (0)) :lchan (quote (1))))) (load-port-info thechord (quote (0))) thechord) (let ((thechord (make-instance (quote chord) :lmidic (quote (6000)) :ldur (quote (333)) :lvel (quote (100)) :loffset (quote (0)) :lchan (quote (1))))) (load-port-info thechord (quote (0))) thechord) (let ((thechord (make-instance (quote chord) :lmidic (quote (6000)) :ldur (quote (571)) :lvel (quote (100)) :loffset (quote (0)) :lchan (quote (1))))) (load-port-info thechord (quote (0))) thechord) (let ((thechord (make-instance (quote chord) :lmidic (quote (6000)) :ldur (quote (1000)) :lvel (quote (100)) :loffset (quote (0)) :lchan (quote (1))))) (load-port-info thechord (quote (0))) thechord)))) :tempo (quote ((1/4 60) nil)) :legato 100 :ties (quote (nil nil nil nil nil nil)))))) (load-port-info newobj (quote (((0) ((0) nil) (0) (nil (0))) (nil (nil (0)) (0))))) (init-mus-color newobj (quote nil)) (set-extra-pairs newobj (quote nil)) (set-patch-pairs newobj (quote ((nil (om-load-patch-abs1 "patch" (quote nil) (quote nil) 6.0301 nil))))) (set-tonalite newobj nil) newobj) "x" nil (pairlis (quote (scale approx fontsize staff cmnpref deltapict outport inport zoom palette-mode obj-mode notechancolor? grillestep mode winsize winpos show-stems)) (list nil 2 24 (quote empty) (let ((newobj (make-instance (quote edition-values)))) (setf (paper-size newobj) (om-make-point 600 800)) (setf (top-margin newobj) 2) (setf (left-margin newobj) 1) (setf (right-margin newobj) 1) (setf (bottom-margin newobj) 1) (setf (orientation newobj) nil) (setf (scale newobj) nil) (setf (system-space newobj) (quote (1))) (setf (line-space newobj) 1) (setf (title newobj) nil) (setf (show-title? newobj) nil) (setf (show-page? newobj) nil) (setf (sheet-id newobj) nil) (setf (page-mode newobj) nil) newobj) (om-make-point 0 0) 0 0 1 0 0 nil 1000 0 (om-make-point 370 280) (om-make-point 10 40) (quote t))) t nil nil nil))) (quote ((11 1 4 0 nil 0) (3 0 4 1 nil 0) (11 1 5 0 nil 0) (2 0 5 1 nil 0) (1 0 5 2 nil 0) (5 0 7 1 nil 0) (4 0 10 1 nil 0) (8 0 11 1 nil 0))) nil 6.0301))
